<?xml version="1.0" encoding="UTF-8" standalone="no"?>
<svg
   xmlns:dc="http://purl.org/dc/elements/1.1/"
   xmlns:cc="http://creativecommons.org/ns#"
   xmlns:rdf="http://www.w3.org/1999/02/22-rdf-syntax-ns#"
   xmlns:svg="http://www.w3.org/2000/svg"
   xmlns="http://www.w3.org/2000/svg"
   xmlns:sodipodi="http://sodipodi.sourceforge.net/DTD/sodipodi-0.dtd"
   xmlns:inkscape="http://www.inkscape.org/namespaces/inkscape"
   width="700"
   height="500"
   viewBox="0 0 185.20833 132.29167"
   version="1.1"
   id="svg8"
   inkscape:version="1.0.1 (3bc2e813f5, 2020-09-07)"
   sodipodi:docname="QHouseStrenght3pl.svg">
  <defs
     id="defs2" />
  <sodipodi:namedview
     id="base"
     pagecolor="#ffffff"
     bordercolor="#666666"
     borderopacity="1.0"
     inkscape:pageopacity="0.0"
     inkscape:pageshadow="2"
     inkscape:zoom="0.49497475"
     inkscape:cx="469.67605"
     inkscape:cy="325.05776"
     inkscape:document-units="mm"
     inkscape:current-layer="layer1"
     inkscape:document-rotation="0"
     showgrid="false"
     units="px"
     inkscape:snap-global="true"
     inkscape:window-width="1920"
     inkscape:window-height="1137"
     inkscape:window-x="-8"
     inkscape:window-y="-8"
     inkscape:window-maximized="1" />
  <metadata
     id="metadata5">
    <rdf:RDF>
      <cc:Work
         rdf:about="">
        <dc:format>image/svg+xml</dc:format>
        <dc:type
           rdf:resource="http://purl.org/dc/dcmitype/StillImage" />
        <dc:title></dc:title>
      </cc:Work>
    </rdf:RDF>
  </metadata>
  <g
     inkscape:label="Layer 1"
     inkscape:groupmode="layer"
     id="layer1">
    <rect
       style="fill:#ff6600;stroke:none;stroke-width:2.10748;stroke-miterlimit:4;stroke-dasharray:none;stroke-opacity:1"
       id="rect1065-9-6-5-9"
       width="184.31049"
       height="48.33202"
       x="1.1258723"
       y="0.6099515" />
    <path
       style="fill:#ffffff;stroke-width:0.325408"
       d="m 139.73083,47.303515 c 0.11499,-1.1001 0.20907,-2.85731 0.20907,-3.90492 v -1.90472 h 8.17783 8.17782 l -0.2017,1.22029 c -0.11096,0.67117 -0.20332,2.42838 -0.20528,3.90492 l -0.003,2.68463 h -8.1816 -8.1816 z m 3.27722,-0.46361 c 0.65156,-0.65156 0.64517,-1.07931 -0.0272,-1.82223 -1.02211,-1.12943 -2.39014,-0.53257 -2.39014,1.0428 0,0.4713 0.0977,0.95453 0.21694,1.07385 0.39629,0.3963 1.68166,0.22431 2.2004,-0.29442 z m 19.05972,0.0686 c 0,-1.31735 -0.0932,-3.07457 -0.20693,-3.90493 l -0.20693,-1.50976 h 8.17948 8.17948 l 0.003,2.19651 c 0.001,1.20809 0.0951,2.96531 0.20802,3.90493 l 0.20522,1.70839 h -8.18056 -8.18069 z m 15.17329,-0.42121 c 0.40954,-1.63171 -0.99207,-2.63082 -2.18109,-1.55478 -0.76028,0.68807 -0.79301,1.22955 -0.11522,1.90732 0.83794,0.83795 2.04401,0.65278 2.29633,-0.35254 z m -32.62625,-5.906192 c -0.99682,-0.0969 -1.02286,-0.14191 -1.15727,-2.00032 -0.11665,-1.61152 -0.38928,-2.29052 -1.78992,-4.45661 -3.41037,-5.27408 -4.51659,-7.88223 -5.46602,-12.88729 -0.82589,-4.35363 -0.48784,-13.5534501 0.54367,-14.7963601 0.20444,-0.24631 0.67156,-0.40417 1.03803,-0.35078 0.88412,0.12876 1.40273,1.97112 1.87996,6.6785001 l 0.37138,3.66298 -0.85299,0.85299 c -1.66646,1.66645 -1.45676,3.90294 0.68339,7.28824 1.34841,2.13294 5.34155,7.15846 5.68818,7.15878 0.42526,5.3e-4 0.24317,-0.4537 -0.66414,-1.65654 -0.48487,-0.64277 -1.59276,-2.10711 -2.46202,-3.25411 -1.857,-2.45035 -2.9999,-4.59799 -3.30099,-6.20291 -0.1759,-0.93765 -0.0709,-1.32174 0.56191,-2.05755 1.13938,-1.32463 1.81187,-0.91839 3.94362,2.38228 2.20722,3.41747 2.90033,4.09904 5.96311,5.86358 3.62148,2.08644 5.34647,4.55125 5.2954,7.56652 -0.0107,0.60567 -0.27784,2.27266 -0.59465,3.70447 l -0.57598,2.603282 h -4.04246 c -2.22335,0 -4.50134,-0.0447 -5.06221,-0.0992 z m 19.60152,-0.0999 c -0.39705,-1.25025 -1.17232,-5.37026 -1.17232,-6.23006 0,-2.97751 1.76925,-5.41303 5.49218,-7.56041 2.91355,-1.68053 3.56856,-2.33902 5.90893,-5.94039 2.01058,-3.09389 2.69673,-3.49581 3.79275,-2.22162 0.93097,1.08231 0.92835,1.50779 -0.0234,3.82182 -0.69472,1.68908 -1.84508,3.42643 -4.91856,7.42836 -1.12845,1.46934 -1.35036,1.95268 -0.89633,1.95224 0.34662,-5.3e-4 4.33977,-5.02587 5.68817,-7.1588 2.14013,-3.3853 2.34986,-5.62179 0.6834,-7.28823 l -0.85301,-0.853 0.37137,-3.66297 c 0.47723,-4.7073801 0.99586,-6.5497501 1.87996,-6.6785101 0.36648,-0.0534 0.8336,0.10436 1.03804,0.35078 1.0315,1.24291 1.36955,10.4427401 0.54368,14.7963701 -0.94943,5.00507 -2.05566,7.6132 -5.46603,12.88731 -1.40566,2.17381 -1.67314,2.84195 -1.79121,4.47438 -0.0764,1.05543 -0.15782,1.92297 -0.18104,1.92784 -0.0233,0.005 -2.27218,0.0984 -4.99766,0.207822 -4.07014,0.16337 -4.98105,0.11819 -5.09891,-0.252932 z m -6.24021,-15.0406 c -0.27227,-0.70951 0.44131,-3.06033 1.59702,-5.26128 0.67663,-1.28861 2.24316,-3.18401 4.60727,-5.5745 2.60636,-2.63546 3.18319,-3.34761 2.11771,-2.61451 -3.38862,2.33153 -6.12258,5.4941 -7.95752,9.20505 -1.05379,2.13122 -1.11291,2.18957 -1.33232,1.31538 -0.44732,-1.78228 0.0264,-5.52019 0.95731,-7.55578 1.43618,-3.14 3.53072,-4.89298 9.30874,-7.7907701 1.70027,-0.85271 3.71526,-1.9787 4.47773,-2.50217 1.14779,-0.78799 1.41919,-0.86611 1.57735,-0.45397 0.3285,0.85607 -0.52061,6.0248001 -1.35308,8.2364401 -1.55879,4.14134 -3.90107,6.52854 -8.81618,8.98527 -2.80938,1.40422 -4.34648,2.69692 -4.34648,3.65537 0,0.63463 -0.62813,0.90121 -0.83755,0.35547 z m -2.24171,-7.03144 c -0.12324,-0.19936 -1.39555,-0.95152 -2.82738,-1.67143 -5.33939,-2.68458 -7.54462,-6.04037 -8.27001,-12.5848501 -0.12401,-1.11861 -0.13617,-2.03382 -0.0272,-2.03382 0.10908,0 0.97003,0.493 1.91313,1.09558 0.9431,0.60256 2.94015,1.71118 4.43788,2.46358 3.19474,1.60489 5.56954,3.6997 6.54371,5.7721601 0.65223,1.38757 0.66432,1.55043 0.18931,2.55145 -0.27908,0.5881 -0.50741,1.23019 -0.50741,1.42687 0,0.64588 -0.50049,0.37451 -1.0618,-0.57571 -0.79491,-1.34568 -3.37936,-4.15217 -4.57997,-4.9734501 -0.83899,-0.57392 -0.74929,-0.40893 0.48552,0.8929701 1.68489,1.77649 4.0965,5.38121 4.39455,6.56874 0.2144,0.85424 -0.3158,1.67423 -0.69052,1.06791 z"
       id="path1012-3" />
    <text
       xml:space="preserve"
       style="font-size:22.2511px;line-height:1.25;font-family:sans-serif;fill:#ffffff;stroke:#ff6200;stroke-width:1.19202;stroke-opacity:1"
       x="25.813967"
       y="49.076565"
       id="text1120-9-5"><tspan
         sodipodi:role="line"
         id="tspan1118-7-0"
         x="25.813967"
         y="49.076565"
         style="font-style:normal;font-variant:normal;font-weight:bold;font-stretch:normal;font-family:sans-serif;-inkscape-font-specification:'sans-serif Bold';fill:#ffffff;stroke:#ff6200;stroke-width:1.19202;stroke-opacity:1">Ekologia</tspan></text>
    <path
       style="fill:#000000;stroke-width:0.264583"
       d="m 9.182992,98.187975 c -0.097,-0.097 -0.17639,-1.07974 -0.17639,-2.18384 v -2.00744 l 12.76715,-12.76513 12.76716,-12.76512 h 2.64934 2.64933 l 2.90551,-2.91455 2.90551,-2.91455 7.14415,0.0703 7.14414,0.0703 0.0788,1.96848 c 0.0659,1.6473 -0.01,2.08804 -0.46302,2.70126 -0.29798,0.40304 -0.54178,0.79491 -0.54178,0.87083 0,0.0759 2.70868,0.17004 6.019275,0.20915 l 6.019275,0.0711 0.0782,2.10357 0.0782,2.10357 -12.77722,12.77924 -12.77721,12.77925 h -7.07862 -7.07863 v -2.34886 c 0,-1.76509 0.0986,-2.43071 0.39687,-2.67823 0.74587,-0.61901 0.39639,-0.79375 -1.5875,-0.79375 -1.72192,0 -1.98437,0.0619 -1.98437,0.46825 0,0.25753 -1.10357,1.56722 -2.45237,2.91042 l -2.45236,2.44217 h -7.02854 c -3.86569,0 -7.10791,-0.0794 -7.20492,-0.17639 z m 13.31735,-2.08445 v -1.44333 h -6.2177 -6.21771 v 1.44592 1.44592 l 6.21771,-0.003 6.2177,-0.003 v -1.44333 z m 22.43727,-0.0543 0.08,-1.38906 h -6.36382 -6.36384 v 1.27882 c 0,0.70335 0.0854,1.36426 0.18988,1.46868 0.10442,0.10443 2.93216,0.15404 6.28385,0.11025 l 6.09399,-0.0796 z m 2.60996,-1.50338 c 0,-0.20756 -0.16312,-0.3018 -0.37898,-0.21897 -0.32322,0.12403 -0.32657,0.0615 -0.0227,-0.42506 0.36934,-0.5914 1.20482,-0.99615 1.48268,-0.71828 0.0876,0.0875 -0.0702,0.33276 -0.35066,0.54491 -0.28042,0.21215 -0.38564,0.38951 -0.23382,0.39414 0.52608,0.016 2.63815,-2.48906 2.60626,-3.09125 -0.0199,-0.37491 0.48015,-1.11813 1.3876,-2.06255 0.78026,-0.81205 1.41865,-1.57568 1.41865,-1.69698 0,-0.12129 -1.66688,1.44678 -3.70417,3.4846 -2.03729,2.03782 -3.69036,3.89865 -3.67348,4.13517 0.0258,0.36194 0.0499,0.35672 0.1517,-0.033 0.16564,-0.63385 0.61136,-0.58563 0.61136,0.0661 0,0.29398 -0.17639,0.52917 -0.39687,0.52917 -0.21828,0 -0.39688,0.20087 -0.39688,0.44638 0,0.35481 0.15377,0.29906 0.74965,-0.27184 0.41231,-0.39502 0.74966,-0.88219 0.74966,-1.08261 z m 1.14652,-1.91545 c 0,-0.1409 0.35719,-0.65625 0.79375,-1.14523 0.43657,-0.48898 0.79375,-0.74747 0.79375,-0.57441 0,0.17305 -0.35718,0.6884 -0.79375,1.14523 -0.43656,0.45682 -0.79375,0.7153 -0.79375,0.57441 z m -23.07835,1.78921 c 0.4025,-0.54441 0.478,-0.81297 0.25132,-0.89404 -0.1782,-0.0637 -0.23759,-0.20867 -0.13196,-0.32209 0.10561,-0.11342 0.35772,-0.0687 0.56021,0.0993 0.28341,0.23521 0.44461,0.21344 0.70024,-0.0946 0.28913,-0.34837 0.15473,-0.40013 -1.03884,-0.40013 -0.81198,0 -1.30669,0.10393 -1.21337,0.25493 0.0867,0.14021 -0.0849,0.4974 -0.38127,0.79375 -0.30438,0.30438 -0.53881,0.88682 -0.53881,1.33866 0,0.77383 0.0198,0.78688 0.60859,0.40109 0.33471,-0.21931 0.86748,-0.74893 1.18389,-1.17691 z m -2.85081,-1.17895 c 0.63228,-0.26796 0.61505,-0.28455 -0.39037,-0.37598 -0.5785,-0.0526 -1.09193,0.0247 -1.14096,0.17176 -0.0498,0.14954 -0.31511,0.0739 -0.60182,-0.17156 -0.43018,-0.36834 -0.51268,-0.78975 -0.51268,-2.61866 v -2.17968 l 9.26041,-9.24013 c 5.09323,-5.08208 9.26042,-9.31351 9.26042,-9.40319 0,-0.0897 -0.31731,-0.16305 -0.70513,-0.16305 -0.50264,0 -1.18532,0.4611 -2.37721,1.60561 -1.53011,1.46929 -2.20933,1.76738 -2.20933,0.96962 0,-0.16718 0.43875,-0.75328 0.975,-1.30245 0.53625,-0.54916 0.91799,-1.05548 0.84832,-1.12515 -0.0697,-0.0697 -5.59832,5.35129 -12.28593,12.04656 l -12.15926,12.17322 5.68854,-0.0533 c 3.2842,-0.0308 5.96811,-0.17178 6.35,-0.33362 z m 15.61041,-1.6232 c 1.08413,-1.09141 2.06715,-1.98437 2.18449,-1.98437 0.11736,0 0.28562,0.18827 0.37393,0.41839 0.10789,0.28117 -0.3477,0.93201 -1.38909,1.98438 l -1.54963,1.56598 h 1.59891 1.59893 l 3.41031,-3.43959 c 1.87567,-1.89177 3.55641,-3.43958 3.73499,-3.43958 0.97994,0 0.41676,0.85778 -2.45086,3.73289 l -3.13808,3.14628 h 1.25264 c 1.23201,0 1.38977,-0.12831 1.26413,-1.02812 -0.0333,-0.23835 0.10046,-0.30846 0.38219,-0.20034 0.49867,0.19136 2.06384,-1.34448 1.80197,-1.76821 -0.0884,-0.14305 -0.0406,-0.18584 0.10625,-0.0951 0.38736,0.2394 1.50126,-1.03193 1.25428,-1.43155 -0.13915,-0.22515 -0.0744,-0.27963 0.2049,-0.17244 0.42683,0.16378 2.20241,-1.42341 1.91446,-1.71135 -0.085,-0.085 0.0476,-0.13672 0.29478,-0.11489 0.26244,0.0232 0.62746,-0.31074 0.87754,-0.80276 0.23549,-0.46334 0.64851,-0.90181 0.91782,-0.97438 0.30436,-0.082 0.41403,-0.25426 0.28984,-0.45521 -0.11483,-0.1858 -0.0898,-0.25527 0.0589,-0.16337 0.2479,0.15321 4.5234,-3.92572 4.3871,-4.18542 -0.0364,-0.0693 -0.0191,-0.0963 0.0384,-0.0599 0.20643,0.13064 1.28382,-1.00445 1.5068,-1.5875 0.12522,-0.32743 0.38392,-0.59532 0.5749,-0.59532 0.19097,0 0.93806,-0.61228 1.66019,-1.36062 0.72214,-0.74834 1.14575,-1.26573 0.94136,-1.14975 -0.24876,0.14117 -0.3092,0.1099 -0.18282,-0.0946 0.10383,-0.16801 0.3706,-0.30546 0.59281,-0.30546 0.471271,0 3.26412,-2.8674 3.188081,-3.27317 -0.0283,-0.15106 0.0798,-0.28007 0.240139,-0.28668 0.44028,-0.0182 2.55992,-2.01113 2.35621,-2.21541 -0.0976,-0.0978 -1.781879,-0.21324 -3.742929,-0.25647 l -3.565551,-0.0786 -2.03529,1.99658 c -1.1194,1.09812 -2.17709,1.99669 -2.3504,1.99683 -0.81559,5.3e-4 -0.51074,-0.67979 1.02461,-2.28688 1.31988,-1.38156 1.53253,-1.70891 1.0103,-1.55528 -0.36381,0.10702 -0.88091,0.4498 -1.14911,0.76172 -0.42817,0.49795 -0.46777,0.50609 -0.32467,0.0667 0.1353,-0.41547 0.0972,-0.44588 -0.22423,-0.17909 -0.21297,0.17674 -0.32664,0.4792 -0.25261,0.67212 0.13396,0.34908 -0.32315,0.78939 -0.82751,0.79712 -0.14552,0.002 -0.38282,0.27357 -0.52732,0.60299 -0.14451,0.32942 -0.40634,0.54384 -0.58184,0.4765 -0.18228,-0.07 -0.26126,0.0283 -0.1842,0.22909 0.13659,0.35593 -1.0558,1.47359 -1.57211,1.47359 -0.40738,0 -1.76474,1.36087 -1.76474,1.7693 0,0.19105 -0.11906,0.34737 -0.26458,0.34737 -0.14552,0 -0.26458,0.17859 -0.26458,0.39687 0,0.21829 -0.14448,0.36711 -0.32105,0.33073 -0.17658,-0.0364 -0.44284,0.20154 -0.5917,0.5287 -0.14887,0.32716 -0.63126,0.76596 -1.07199,0.9751 -0.90557,0.42972 -2.41148,1.88478 -1.64706,1.59144 0.25124,-0.0964 0.4568,-0.28161 0.4568,-0.41156 0,-0.12996 0.13364,-0.23628 0.29697,-0.23628 0.50461,0 -0.23142,0.70235 -1.23519,1.17867 -0.55137,0.26164 -0.91387,0.62578 -0.91387,0.91801 0,0.47366 -0.78591,1.36787 -0.80179,0.91228 -0.004,-0.12696 -0.13081,-0.02 -0.28085,0.23775 -0.15004,0.25772 -0.38454,0.39952 -0.52112,0.31511 -0.2243,-0.13862 -0.36106,0.2221 -0.27965,0.73766 0.0172,0.10914 -0.11209,0.16867 -0.28737,0.13229 -0.17529,-0.0364 -0.32412,0.0946 -0.33073,0.29113 -0.007,0.1965 -0.48828,0.6267 -1.07036,0.95599 -0.67277,0.38059 -1.02969,0.75791 -0.9797,1.03569 0.0465,0.25858 -0.16949,0.52877 -0.52916,0.66182 -0.3343,0.12366 -0.58995,0.33027 -0.56812,0.45912 0.0218,0.12885 -0.08,0.20033 -0.22629,0.15884 -0.43312,-0.12283 -1.04014,0.52572 -0.88077,0.94103 0.0989,0.25779 0.0204,0.33522 -0.23907,0.23567 -0.25851,-0.0992 -0.33799,-0.0221 -0.24013,0.23289 0.0867,0.22603 -0.0534,0.44369 -0.34421,0.53478 -0.94736,0.29671 -1.28428,0.57637 -1.2905,1.07122 -0.004,0.31126 -0.1676,0.4726 -0.43446,0.42824 -0.26196,-0.0436 -0.41359,0.0995 -0.3906,0.3684 0.0207,0.24177 -0.12781,0.49761 -0.32997,0.56853 -0.24351,0.0854 -0.29773,0.016 -0.16067,-0.20581 0.11379,-0.18411 -0.14472,-0.0748 -0.57445,0.24293 -0.42975,0.31772 -1.04206,0.59731 -1.36069,0.62131 -0.36368,0.0274 -0.57934,0.21967 -0.57934,0.5165 0,0.39951 0.23704,0.47287 1.52798,0.47287 h 1.52798 z m 14.02849,-16.36974 c 0.36074,-0.34487 0.70477,-0.58372 0.76451,-0.53079 0.16994,0.15057 -0.81855,1.15782 -1.13625,1.15782 -0.15629,0 0.011,-0.28216 0.37174,-0.62703 z m -18.57872,14.98068 0.08,-1.38906 h -6.36382 -6.36383 v 1.45999 1.46 l 6.28385,-0.0709 6.28386,-0.0709 z m 25.8804,-7.51399 c 5.336905,-5.32223 8.251259,-8.41504 8.227436,-8.73125 -0.02029,-0.26931 -0.137631,-0.48966 -0.260771,-0.48966 -0.12315,0 -0.157218,-0.10788 -0.0757,-0.23974 0.2144,-0.3469 1.22881,-0.0221 1.049372,0.33597 -0.0829,0.16536 0.156591,-0.0334 0.532138,-0.44171 0.6115,-0.66484 0.979591,-2.30035 0.517721,-2.30035 -0.281919,0 -2.352651,2.47329 -2.275761,2.71818 0.04,0.12736 -0.0584,0.15053 -0.218699,0.0515 -0.418531,-0.25866 -1.445329,0.90423 -1.101757,1.24779 0.182478,0.18249 0.325946,0.0902 0.445556,-0.28664 0.097,-0.30569 0.37674,-0.55201 0.621591,-0.54739 0.387469,0.007 0.378613,0.0588 -0.0684,0.39688 -0.282467,0.21365 -0.423818,0.38846 -0.314098,0.38846 0.109718,0 -0.135411,0.34557 -0.54474,0.76793 -0.409331,0.42236 -0.846973,0.67086 -0.972531,0.55222 -0.329359,-0.31119 0.0817,-0.85308 0.519639,-0.68503 0.40259,0.15448 0.516509,-0.24883 0.136612,-0.48362 -0.225502,-0.13937 -12.294338,11.75052 -12.112218,11.93263 0.0495,0.0495 0.30609,-0.14891 0.5703,-0.44084 0.2642,-0.29194 0.62382,-0.53079 0.79916,-0.53079 0.17535,0 0.53699,-0.29053 0.80365,-0.64562 0.26666,-0.35509 0.58901,-0.58122 0.71634,-0.50253 0.12733,0.0787 -0.1337,0.46914 -0.58007,0.86765 -0.44636,0.39852 -0.81157,0.86278 -0.81157,1.0317 0,0.16892 -0.17938,0.30713 -0.39863,0.30713 -0.21924,0 -0.66572,0.31112 -0.99218,0.69137 -0.32646,0.38025 -1.09958,1.20806 -1.71805,1.83959 -1.10315,1.12644 -1.30704,1.43779 -0.94155,1.43779 0.1006,0 3.90186,-3.70871 8.44724,-8.24159 z m -2.74319,1.96873 c -0.1819,-0.0667 -0.33073,-0.24311 -0.33073,-0.39208 0,-0.14896 0.1786,-0.20231 0.39688,-0.11854 0.21892,0.084 0.39702,0.008 0.3972,-0.17013 5.3e-4,-0.53891 1.34403,-1.9157 1.77982,-1.82394 0.2625,0.0553 0.35658,-0.049 0.26339,-0.29182 -0.0797,-0.2078 0.0841,-0.57391 0.36397,-0.81359 0.56907,-0.48726 0.7675,-0.54216 0.7675,-0.21236 0,0.37767 -1.18704,1.62866 -1.5454,1.62866 -0.18805,0 -0.2542,0.13547 -0.14913,0.30546 0.11697,0.18926 0.0726,0.23364 -0.11668,0.11668 -0.17547,-0.10845 -0.30546,-0.0308 -0.30546,0.18255 0,0.54414 -1.13575,1.73047 -1.52136,1.58911 z m 3.80693,-4.17818 c -0.10523,-0.27422 0.0174,-0.39687 0.39687,-0.39687 0.38546,0 0.50263,-0.1213 0.39304,-0.40689 -0.0946,-0.24652 0.0246,-0.47355 0.30242,-0.57602 0.25221,-0.093 0.54138,-0.29342 0.64261,-0.44534 0.10123,-0.15192 0.26276,-0.19751 0.35896,-0.10131 0.0962,0.0962 -0.19443,0.56901 -0.64585,1.05067 -0.45142,0.48167 -0.82131,0.96506 -0.82198,1.0742 -0.002,0.35655 -0.47,0.20828 -0.62607,-0.19844 z m 2.360646,-1.95847 c -0.187316,-0.30308 0.0962,-1.08424 0.393549,-1.08424 0.44826,0 0.53816,0.54529 0.153339,0.9301 -0.218278,0.21829 -0.464378,0.28765 -0.546888,0.15414 z m 0.758071,-1.11606 c -0.0929,-0.15031 0.0756,-0.50108 0.374449,-0.7795 0.566491,-0.52776 0.94906,-0.32074 0.68395,0.37011 -0.197477,0.51464 -0.839798,0.76309 -1.058399,0.40939 z m -28.333917,12.35204 c 0.0802,-0.20888 0.0631,-0.42749 -0.0378,-0.4858 -0.10096,-0.0583 -0.0131,-0.0614 0.19534,-0.007 0.20839,0.0545 1.06523,-0.58005 1.90406,-1.41013 1.25894,-1.24579 1.47983,-1.59396 1.26542,-1.99456 -0.38856,-0.72604 -0.66066,-0.61495 -2.2137,0.90375 -1.02716,1.00446 -1.4717,1.66378 -1.60546,2.38125 -0.18138,0.97275 0.18092,1.42354 0.49217,0.6124 z m -0.0891,-1.1921 c 0,-0.13693 0.1177,-0.32171 0.26154,-0.41062 0.14999,-0.0927 0.19435,0.0135 0.104,0.24897 -0.1759,0.45837 -0.36554,0.54223 -0.36554,0.16165 z m -1.98056,-4.26702 c 4.17191,-4.19849 5.09861,-4.80995 7.14606,-4.7151 l 1.48019,0.0686 7.92061,-7.91731 c 8.48181,-8.47829 8.33003,-8.26187 5.82246,-8.30157 l -1.17479,-0.0186 -4.91949,4.89479 c -4.47334,4.45087 -5.82781,5.51094 -5.82781,4.56105 0,-0.18355 1.96453,-2.29556 4.36561,-4.69334 2.4011,-2.39779 4.36564,-4.4298 4.36564,-4.51558 0,-0.0858 -0.73693,-0.12187 -1.6376,-0.0802 l -1.63758,0.0758 -2.43539,2.42526 c -2.21636,2.20716 -3.02728,2.67705 -3.01731,1.7484 0.002,-0.17331 0.89972,-1.20808 1.99526,-2.29949 l 1.99186,-1.98437 -0.85025,-0.0863 c -0.80335,-0.0816 -1.52248,0.58592 -13.04124,12.10468 l -12.191,12.191 h 4.1045 4.10451 z m 4.09723,-0.11422 3.56451,-3.57188 h -1.1343 c -1.1005,0 -1.24224,0.10616 -4.75882,3.56445 l -3.62453,3.56445 1.1943,0.007 c 1.18391,0.007 1.22531,-0.0237 4.75884,-3.56445 z m 5.40619,-1.72508 c 2.34522,-2.33278 2.96734,-3.09542 2.74431,-3.36415 -0.37469,-0.45147 -0.0655,-0.76125 0.38591,-0.38663 0.26888,0.22315 1.43325,-0.79935 5.16577,-4.53641 2.65026,-2.65347 4.81865,-4.96881 4.81865,-5.14518 0,-0.17637 0.1423,-0.32068 0.31624,-0.32068 0.44292,0 1.80043,-1.3458 1.80043,-1.7849 0,-0.19965 0.10657,-0.29712 0.23686,-0.21661 0.13027,0.0805 0.30885,-0.0413 0.39687,-0.2706 0.23711,-0.61794 0.19395,-1.43205 -0.076,-1.43205 -0.42613,0 -4.24842,4.04117 -4.08003,4.31365 0.0962,0.15566 0.0308,0.18343 -0.15772,0.0669 -0.48894,-0.30218 -1.37886,0.63525 -1.22102,1.2862 0.0735,0.30301 0.0636,0.39713 -0.022,0.20915 -0.20964,-0.46054 -0.91914,0.11076 -0.73464,0.59156 0.0725,0.18886 -0.0599,0.41692 -0.29405,0.50679 -0.24474,0.0939 -0.35788,0.0535 -0.26605,-0.0951 0.0918,-0.14858 -0.0213,-0.18903 -0.26605,-0.0951 -0.2342,0.0899 -0.36081,0.33282 -0.28136,0.53988 0.0795,0.20706 0.032,0.30695 -0.10552,0.22198 -0.34804,-0.21511 -3.4941,3.01353 -3.27768,3.36372 0.10764,0.17418 0.0509,0.20737 -0.14623,0.0856 -0.47381,-0.29284 -1.38656,0.63459 -1.20074,1.22005 0.087,0.27413 0.0244,0.48478 -0.14417,0.48478 -0.16391,0 -0.22444,-0.11907 -0.1345,-0.26459 0.37212,-0.6021 -0.19497,-0.18029 -1.59424,1.18584 -0.89773,0.87646 -1.40974,1.5732 -1.29386,1.76067 0.12338,0.19966 0.0769,0.23929 -0.1304,0.11116 -0.18109,-0.11191 -0.54655,0.004 -0.83463,0.26471 -0.51411,0.46527 -0.72241,1.07192 -0.27259,0.79391 0.13195,-0.0815 0.17759,0.09 0.10143,0.38126 -0.0762,0.29125 -0.2399,0.52954 -0.36389,0.52954 -0.12398,0 -0.15689,-0.1786 -0.0731,-0.39688 0.28343,-0.73861 -0.21843,-0.40254 -1.77611,1.18937 -1.53933,1.57315 -1.82968,2.45953 -0.75178,2.29503 0.27454,-0.0419 1.86387,-1.43366 3.53186,-3.09281 z m -2.49244,1.05596 c 0.48375,-0.30586 0.7904,-0.32474 0.7904,-0.0486 0,0.11455 -0.26638,0.22834 -0.59196,0.25287 -0.46526,0.035 -0.50773,-0.009 -0.19844,-0.20423 z m 7.05222,-6.51873 c -0.097,-0.097 -0.17639,-0.29942 -0.17639,-0.44979 0,-0.16579 0.12323,-0.15017 0.31309,0.0397 0.17219,0.1722 0.25157,0.3746 0.17638,0.44979 -0.0752,0.0752 -0.21607,0.0573 -0.31308,-0.0397 z m 1.14653,-1.64446 c 0,-0.14552 0.11905,-0.33817 0.26458,-0.42811 0.14551,-0.0899 0.26457,-0.0445 0.26457,0.10106 0,0.14552 -0.11906,0.33817 -0.26457,0.42811 -0.14553,0.0899 -0.26458,0.0445 -0.26458,-0.10106 z m 5.42395,-5.05832 c -0.0899,-0.14552 -0.0374,-0.26458 0.11667,-0.26458 0.15412,0 0.28021,0.11906 0.28021,0.26458 0,0.14552 -0.0525,0.26459 -0.11669,0.26459 -0.0642,0 -0.19025,-0.11907 -0.28019,-0.26459 z m 1.32291,-1.85208 c 0.0899,-0.14552 0.21603,-0.26458 0.28021,-0.26458 0.0642,0 0.11668,0.11906 0.11668,0.26458 0,0.14552 -0.12609,0.26458 -0.2802,0.26458 -0.15412,0 -0.20663,-0.11906 -0.11669,-0.26458 z m 1.05834,-0.26458 c 0.0899,-0.14552 0.21603,-0.26459 0.28019,-0.26459 0.0642,0 0.11669,0.11907 0.11669,0.26459 0,0.14552 -0.12609,0.26458 -0.28021,0.26458 -0.15411,0 -0.2066,-0.11906 -0.11667,-0.26458 z m -2.10967,5.07818 c -0.0815,-0.0815 -0.29496,-1.7e-4 -0.47442,0.18065 -0.25937,0.26131 -0.22898,0.2917 0.14811,0.14811 0.26094,-0.0994 0.40777,-0.2473 0.32631,-0.32876 z"
       id="path1591" />
    <path
       style="fill:#171717;stroke-width:0.264583"
       d="m 91.750322,104.87044 c -1.00582,-0.19373 -0.67693,-0.57097 1.38906,-1.59325 l 1.98438,-0.98189 V 90.221785 78.148275 l -7.53335,-5.21218 c -4.14334,-2.8667 -7.59631,-5.31404 -7.67325,-5.43854 -0.18406,-0.29781 3.04121,-0.49645 12.69306,-0.78172 l 7.937508,-0.2346 7.67291,5.138 c 6.90793,4.62574 7.6821,5.07899 7.765,4.5461 0.116,-0.74566 0.009,-0.83217 -6.41774,-5.20898 -2.86026,-1.9478 -5.14165,-3.60028 -5.06975,-3.67217 0.0719,-0.0719 3.28039,-0.23614 7.12998,-0.365 l 6.99927,-0.23428 2.46954,1.67473 c 1.35824,0.9211 4.01735,2.72255 5.90912,4.00322 1.89177,1.28067 3.55865,2.44738 3.70417,2.59268 0.37146,0.37089 -1.18437,-0.48831 -1.98438,-1.09588 -0.3638,-0.27629 -2.76227,-1.88913 -5.32993,-3.58409 l -4.66848,-3.08175 -5.78257,0.18434 c -3.18041,0.10138 -6.01012,0.26622 -6.28824,0.36632 -0.47623,0.17138 -0.46853,0.20885 0.13229,0.64349 0.71455,0.51691 3.93513,2.74391 7.04614,4.87235 1.13217,0.77458 4.73741,3.25171 8.01162,5.50471 4.65971,3.20637 6.09684,4.07138 6.61459,3.98132 1.0683,-0.18581 7.79242,-3.05081 7.89708,-3.36477 0.0526,-0.15791 -0.1251,-0.46392 -0.39496,-0.68002 -0.3996,-0.31999 -0.33107,-0.31562 0.36923,0.0236 0.47295,0.22906 0.8599,0.57371 0.8599,0.76589 0,0.44387 -8.88837,4.22744 -9.33203,3.97242 -0.17889,-0.10283 -1.13146,-0.76634 -2.11681,-1.47447 -1.3858,-0.99592 -1.82555,-1.1989 -1.94167,-0.89628 -0.22314,0.58149 0.0107,0.82795 2.16395,2.28096 1.08138,0.72971 1.96614,1.48293 1.96614,1.67383 0,0.1909 -0.9525,0.79407 -2.11667,1.34038 -2.03667,0.95575 -2.11666,1.02732 -2.11666,1.8938 0,0.49529 0.0522,0.90052 0.11606,0.90052 0.0638,0 1.96807,-0.91358 4.23163,-2.03017 2.26357,-1.1166 4.16765,-1.9781 4.23129,-1.91446 0.18867,0.18868 -17.46546,9.68533 -31.33315,16.854985 -2.401088,1.24138 -4.600488,2.41626 -4.887528,2.61084 -0.49646,0.33656 -2.93556,0.43118 -4.30675,0.16707 z M 102.74742,93.919395 c 0.0457,-2.67823 0.005,-6.19594 -0.0904,-7.81714 l -0.17347,-2.94762 -2.02624,-1.43865 c -1.114428,-0.79126 -2.175058,-1.52568 -2.356948,-1.63206 -0.26229,-0.15338 -0.33074,1.99644 -0.33074,10.38959 V 101.0565 l 2.447398,-1.133785 2.4474,-1.1338 z m 8.38364,1.12006 5.02708,-2.32233 -0.0907,-0.90758 c -0.11463,-1.14749 -0.16385,-1.18967 -0.96319,-0.82547 -0.6074,0.27676 -0.99602,0.0618 -4.9436,-2.73514 -2.35641,-1.66953 -4.38198,-3.03551 -4.50127,-3.03551 -0.11929,0 -0.21689,2.73844 -0.21689,6.08542 0,4.69793 0.0754,6.08285 0.33073,6.07417 0.1819,-0.006 2.59291,-1.05628 5.35781,-2.33356 z m 9.45885,-4.30809 c 1.41516,-0.7098 1.52136,-0.82743 1.52136,-1.68529 0,-0.50723 -0.0529,-0.92223 -0.11764,-0.92223 -0.0647,0 -1.01719,0.40994 -2.11666,0.91098 -1.95371,0.89034 -1.99904,0.93274 -1.99904,1.86992 0,0.87275 0.0535,0.94233 0.59532,0.7743 0.32742,-0.10155 1.27992,-0.52801 2.11666,-0.94768 z m -1.89042,-2.21965 c 1.94924,-0.80532 4.07985,-1.69429 4.73469,-1.97548 0.65485,-0.2812 1.63711,-0.68779 2.18282,-0.90354 0.5457,-0.21575 0.98912,-0.54717 0.98538,-0.7365 -0.004,-0.18933 -5.762,-4.19679 -12.79614,-8.90547 -11.07368,-7.41276 -12.94503,-8.57593 -13.949968,-8.6708 -0.63835,-0.0602 -4.73251,0.0418 -9.09814,0.22687 -5.812,0.24633 -7.93749,0.42147 -7.93749,0.65404 0,0.17469 0.83344,0.89192 1.85209,1.59386 1.01864,0.70193 2.98317,2.05884 4.36562,3.01535 1.38244,0.95651 6.77168,4.6747 11.976098,8.26264 5.2044,3.58795 10.20503,7.05289 11.1125,7.69988 0.90747,0.64699 1.96011,1.18242 2.3392,1.18985 0.3791,0.007 2.2841,-0.64539 4.23334,-1.4507 z m -7.17388,-1.26198 c -4.55056,-3.11618 -4.59448,-3.15143 -4.19444,-3.36651 0.19817,-0.10655 1.25327,-0.40044 2.34468,-0.65309 l 1.98438,-0.45938 3.3875,2.31851 c 1.86313,1.27519 3.29175,2.41428 3.1747,2.53133 -0.18191,0.18191 -3.68545,1.58775 -3.85627,1.54737 -0.0331,-0.008 -1.3113,-0.87101 -2.84055,-1.91823 z m 6.7492,-0.54229 c -0.43656,-0.33697 -1.96783,-1.40421 -3.40282,-2.37164 -2.54795,-1.71777 -2.59252,-1.76526 -1.90269,-2.02753 2.09843,-0.79782 2.46344,-0.7031 5.56848,1.44511 1.59985,1.10685 3.01991,2.12355 3.1557,2.25934 0.1528,0.1528 -0.0987,0.38838 -0.65985,0.61814 -1.71915,0.70389 -1.93823,0.70997 -2.75882,0.0766 z m 0.95524,-3.0884 c -1.70701,-1.18844 -2.85411,-2.14784 -2.64584,-2.2129 0.20223,-0.0632 0.7724,-0.24441 1.26706,-0.40275 0.49466,-0.15834 1.1301,-0.28789 1.4121,-0.28789 0.37666,0 5.29492,3.03915 6.26073,3.8687 0.18491,0.15882 -2.20055,1.14705 -2.75137,1.13982 -0.29105,-0.004 -1.88525,-0.95107 -3.54268,-2.10498 z m -14.84587,-1.2283 c -0.94588,-0.66341 -2.41357,-1.67959 -3.26153,-2.25818 -0.84796,-0.57858 -1.492658,-1.10107 -1.432648,-1.16108 0.06,-0.06 1.197758,-0.29611 2.528308,-0.52467 l 2.41919,-0.41556 3.04834,2.04736 c 1.67659,1.12605 3.04834,2.13211 3.04834,2.23568 0,0.14774 -4.24419,1.35651 -4.55448,1.29714 -0.0417,-0.008 -0.84963,-0.55728 -1.79552,-1.22069 z m 4.23384,-2.20338 c -1.5277,-1.01756 -2.81417,-1.95974 -2.85884,-2.09374 -0.0922,-0.27644 0.37502,-0.43675 2.01897,-0.69281 1.09473,-0.17051 1.26044,-0.0998 3.77349,1.61104 3.46834,2.36113 3.48261,2.3825 1.82741,2.73748 -0.7414,0.159 -1.49096,0.28887 -1.6657,0.28861 -0.17474,-2.6e-4 -1.56764,-0.83302 -3.09533,-1.85058 z m 4.4229,-0.76222 c -1.42342,-0.98754 -2.71204,-1.91952 -2.86358,-2.07106 -0.19099,-0.19099 0.26319,-0.37719 1.48019,-0.60682 l 1.75573,-0.33128 2.62921,1.7842 c 1.44607,0.98131 2.62921,1.86447 2.62921,1.96259 0,0.0981 -0.50601,0.31409 -1.12447,0.47994 -0.61847,0.16584 -1.30308,0.36373 -1.52136,0.43975 -0.22554,0.0785 -1.5142,-0.63696 -2.98493,-1.65732 z m -17.325098,-2.99764 c -1.70809,-1.14794 -3.14107,-2.24436 -3.1844,-2.43648 -0.0591,-0.26191 0.57717,-0.39581 2.54297,-0.53518 l 2.6218,-0.18588 3.058548,2.06795 c 1.6822,1.13736 3.01682,2.10966 2.96582,2.16066 -0.051,0.051 -1.17417,0.30049 -2.49593,0.55442 l -2.403218,0.46169 z m 7.080858,-0.27269 c -1.0914,-0.76692 -2.43004,-1.69161 -2.974758,-2.05487 -0.54471,-0.36327 -0.99119,-0.73333 -0.99219,-0.82238 -0.001,-0.089 0.79153,-0.24318 1.761178,-0.34252 l 1.76298,-0.18062 2.86723,1.91646 c 1.57698,1.05406 2.86723,1.99861 2.86723,2.09902 0,0.1004 -0.44648,0.2594 -0.99219,0.35333 -0.5457,0.0939 -1.28984,0.22821 -1.65364,0.29839 -0.49361,0.0952 -1.165,-0.22624 -2.64584,-1.26681 z m 3.6283,-1.29596 c -1.55014,-1.04107 -2.76419,-1.98063 -2.69788,-2.08792 0.0663,-0.10729 0.89538,-0.27805 1.84238,-0.37947 l 1.72183,-0.18439 2.50179,1.74427 c 1.37599,0.95934 2.56614,1.84837 2.64478,1.97562 0.0786,0.12724 -0.42135,0.311 -1.11108,0.40835 -0.68974,0.0974 -1.44067,0.23086 -1.66872,0.2967 -0.22806,0.0658 -1.68295,-0.73209 -3.2331,-1.77316 z m -18.519278,-3.74014 c -1.92365,-1.30731 -3.54717,-2.42128 -3.6078,-2.47548 -0.27548,-0.24628 0.31839,-0.35081 2.89844,-0.51017 l 2.76804,-0.17097 3.57188,2.46875 3.57187,2.46876 -1.45521,0.17485 c -4.46554,0.53657 -3.85196,0.69146 -7.74722,-1.95574 z m 6.98548,-0.45121 c -1.65591,-1.14691 -3.12111,-2.19568 -3.25602,-2.33059 -0.31635,-0.31636 2.97186,-0.66789 3.66185,-0.39147 0.74058,0.29668 6.176758,4.08733 6.176758,4.30706 0,0.17229 -2.252498,0.53454 -3.175008,0.51061 -0.21828,-0.006 -1.7517,-0.94869 -3.40758,-2.09561 z m 4.8747,-0.28189 c -3.88529,-2.70829 -3.85129,-2.63469 -1.21702,-2.63469 h 2.215588 l 2.40518,1.62903 c 1.32285,0.89596 2.62676,1.8187 2.89759,2.05052 0.46575,0.39867 0.42995,0.43117 -0.66146,0.60032 -2.53075,0.39221 -2.8511,0.29876 -5.639878,-1.64518 z m 22.527798,9.43905 c -0.15672,-0.40841 -3.79305,-3.07791 -4.19266,-3.07791 -0.12269,0 -0.22309,0.23437 -0.22309,0.52082 0,0.47166 1.20986,1.51524 3.43959,2.96685 0.70751,0.46061 1.22654,0.24273 0.97616,-0.40976 z m 4.711,1.86037 c -0.43732,-0.31496 -1.54906,-1.10322 -2.47053,-1.7517 -1.38765,-0.97654 -1.59191,-1.21192 -1.18925,-1.37046 0.37569,-0.14793 0.30928,-0.19565 -0.29226,-0.21002 -0.7625,-0.0182 -4.91012,-2.50203 -4.91012,-2.94045 0,-0.18745 2.24619,-0.78231 2.954,-0.78231 0.15517,0 1.12351,0.56554 2.15187,1.25677 1.02836,0.69122 1.99284,1.33923 2.14329,1.44001 0.15296,0.10247 -0.0594,0.30984 -0.4818,0.47043 -0.41543,0.15794 -0.69468,0.34783 -0.62054,0.42197 0.0741,0.0741 0.45223,-0.01 0.8402,-0.18661 0.65489,-0.29839 0.86942,-0.2076 2.99563,1.26765 1.25963,0.87398 2.32734,1.70039 2.3727,1.83647 0.0669,0.20074 -2.25966,1.22355 -2.60128,1.14356 -0.0532,-0.0125 -0.45459,-0.28035 -0.89191,-0.59531 z m 1.85346,-2.36021 c -2.19682,-1.50019 -2.33002,-1.64046 -1.71979,-1.81114 1.39508,-0.39021 2.00576,-0.21704 3.90261,1.10662 1.05502,0.73623 1.91822,1.43541 1.91822,1.55375 0,0.11833 -0.20835,0.27506 -0.46302,0.34828 -0.25466,0.0732 -0.64161,0.19962 -0.85989,0.28088 -0.23035,0.0857 -1.39604,-0.53458 -2.77813,-1.47839 z m 2.64584,-0.77007 c -1.01865,-0.724 -1.82232,-1.42698 -1.78594,-1.56218 0.0364,-0.1352 -0.12286,-0.24582 -0.35387,-0.24582 -0.54779,0 -4.43968,-2.55453 -4.15754,-2.7289 0.11878,-0.0734 0.64887,-0.21469 1.17799,-0.31395 0.85133,-0.15971 1.18076,-0.0364 2.8631,1.07196 1.36087,0.89654 1.80118,1.31577 1.5495,1.47532 -0.24631,0.15615 -0.15779,0.2241 0.29566,0.22694 0.60779,0.004 1.6041,0.57223 3.67184,2.09492 l 0.87949,0.64766 -0.61491,0.34115 c -0.9912,0.54992 -1.56545,0.38587 -3.52532,-1.0071 z m 1.50781,-1.81538 c -0.90206,-0.58615 -1.64011,-1.12018 -1.64011,-1.18674 0,-0.0666 0.38696,0.12571 0.8599,0.42727 0.47294,0.30155 1.24685,0.78781 1.71979,1.08057 0.75077,0.46475 1.04402,0.74462 0.78022,0.74462 -0.0438,0 -0.81774,-0.47958 -1.7198,-1.06572 z m -8.51927,-0.4073 c -0.94589,-0.65931 -1.95792,-1.37344 -2.24896,-1.58694 -0.29104,-0.21351 -1.4919,-1.01134 -2.66857,-1.77297 -1.21192,-0.78445 -2.09131,-1.52816 -2.02847,-1.71551 0.0638,-0.19009 -0.11039,-0.33073 -0.40952,-0.33073 -0.48053,0 -3.63521,-1.95948 -4.55073,-2.82661 -0.34489,-0.32666 -0.15426,-0.37131 1.45521,-0.3409 1.01864,0.0192 2.42255,-0.051 3.1198,-0.156 1.22341,-0.18433 1.34169,-0.14114 3.3844,1.23553 2.03385,1.3707 2.08778,1.43306 1.37811,1.59365 -0.66475,0.15044 -0.63736,0.17027 0.27408,0.19844 0.74326,0.023 1.49924,0.36563 2.84177,1.28808 1.62744,1.11819 1.76376,1.27574 1.23632,1.42883 -1.2405,0.36005 -2.12815,0.20823 -3.26387,-0.55826 -1.30801,-0.88277 -2.22374,-1.39964 -2.22374,-1.25517 0,0.0534 0.60463,0.48883 1.34363,0.96768 0.73899,0.47885 1.40657,1.03469 1.48351,1.23519 0.0769,0.20049 0.26827,0.36454 0.42518,0.36454 0.36538,0 4.14806,2.45415 4.1526,2.69415 0.003,0.16229 -0.31671,0.28932 -1.58409,0.6293 -0.21828,0.0585 -1.17078,-0.43298 -2.11666,-1.0923 z m -1.39458,-2.12642 c -0.0879,-0.0879 -0.31612,-0.0973 -0.50711,-0.0209 -0.21107,0.0845 -0.14838,0.14716 0.15985,0.15985 0.27891,0.0115 0.43518,-0.051 0.34726,-0.13896 z m -2.30959,-3.27973 c 0,-0.14552 -0.27384,-0.26458 -0.60854,-0.26458 -0.3347,0 -0.76888,-0.14883 -0.96486,-0.33073 -0.28505,-0.26459 -0.31897,-0.26459 -0.16959,0 0.10625,0.1882 0.0375,0.34422 -0.15962,0.36203 -0.19049,0.0172 0.0109,0.12219 0.4474,0.23328 1.16166,0.29559 1.45521,0.29559 1.45521,0 z m -5.76738,2.45843 c -1.75766,-1.21411 -2.10063,-1.554 -1.71979,-1.70432 0.35697,-0.14088 0.2793,-0.19239 -0.31114,-0.20635 -0.49246,-0.0116 -1.59063,-0.55898 -2.9351,-1.46287 -3.21502,-2.16149 -3.24726,-2.25989 -0.74039,-2.25989 h 2.08475 l 2.11484,1.49272 c 1.16316,0.821 2.15452,1.59491 2.20303,1.7198 0.0485,0.12488 0.20101,0.22706 0.33889,0.22706 0.35138,0 4.46771,2.71183 4.46771,2.94332 0,0.18809 -0.59796,0.34444 -2.38125,0.62263 -0.80837,0.12611 -1.20504,-0.0483 -3.12155,-1.3721 z"
       id="path1623" />
    <path
       style="fill:#0a0a0a;stroke-width:0.264583"
       d="m 172.995,95.175265 c -0.0168,-0.11981 -0.0105,-0.41874 0.0138,-0.6643 0.0244,-0.24555 -0.20714,-0.9393 -0.51444,-1.54167 -0.69605,-1.36437 -0.61408,-2.21418 0.22505,-2.33299 0.52344,-0.0741 0.59258,-10e-4 0.44392,0.46703 -0.11319,0.35661 0.0259,0.88173 0.38946,1.4699 0.67922,1.099 0.64393,2.59799 -0.0643,2.73215 -0.25466,0.0482 -0.47673,-0.0103 -0.49349,-0.13012 z m 3.175,0 c -0.0168,-0.11981 -0.009,-0.42903 0.0177,-0.68714 0.0265,-0.25812 -0.19793,-0.86749 -0.4987,-1.35415 -0.30078,-0.48666 -0.54686,-1.25774 -0.54686,-1.71351 0,-0.71332 0.0946,-0.82866 0.67928,-0.82866 0.55845,0 0.64947,0.094 0.51167,0.52814 -0.10139,0.31944 0.0572,0.92808 0.40118,1.5402 0.66315,1.17991 0.62748,2.51273 -0.0708,2.64515 -0.25466,0.0483 -0.47673,-0.0102 -0.49349,-0.13003 z m 3.0873,-0.44451 c 0.0991,-0.39487 -0.0442,-0.9528 -0.39084,-1.52135 -0.30104,-0.4938 -0.54779,-1.28476 -0.54833,-1.75771 -8e-4,-0.74283 0.0897,-0.85989 0.66551,-0.85989 0.568,0 0.64337,0.0921 0.50999,0.62354 -0.0991,0.39488 0.0442,0.9528 0.39085,1.52136 0.30104,0.49379 0.54779,1.28476 0.54833,1.7577 7.9e-4,0.74283 -0.0897,0.8599 -0.66551,0.8599 -0.568,0 -0.64337,-0.0922 -0.51,-0.62355 z m -9.67141,-5.65701 c 0,-0.10733 0.50601,-0.93793 1.12448,-1.84579 l 1.12447,-1.65064 4.02153,-0.006 4.02153,-0.006 1.20399,1.68725 c 0.6622,0.92798 1.204,1.76142 1.204,1.85208 0,0.0907 -2.8575,0.16484 -6.35,0.16484 -3.4925,0 -6.35,-0.0878 -6.35,-0.19514 z m 2.38125,-7.61007 v -3.30729 h 3.96875 3.96875 v 3.30729 3.30729 h -3.96875 -3.96875 z m -17.19792,-8.06979 v -3.96875 h 3.83646 3.83646 v 3.96875 3.96875 h -3.83646 -3.83646 z m 8.46667,0 v -3.96875 h 3.96875 3.96875 v 3.96875 3.96875 h -3.96875 -3.96875 z m 8.73125,0.007 v -3.97583 h 3.97582 3.97582 l -0.0732,3.9026 -0.0732,3.90261 -3.9026,0.0732 -3.9026,0.0732 z"
       id="path1621" />
    <text
       xml:space="preserve"
       style="font-size:4.9389px;line-height:1.25;font-family:sans-serif;stroke-width:0.264583"
       x="17.288393"
       y="112.56079"
       id="text1858-6"><tspan
         sodipodi:role="line"
         id="tspan1856-6"
         x="17.288393"
         y="112.56079"
         style="stroke-width:0.264583">Ekologiczne </tspan><tspan
         sodipodi:role="line"
         x="17.288393"
         y="118.73442"
         style="stroke-width:0.264583"
         id="tspan1943">materiały</tspan></text>
    <text
       xml:space="preserve"
       style="font-size:4.9389px;line-height:1.25;font-family:sans-serif;stroke-width:0.264583"
       x="88.124847"
       y="112.58704"
       id="text1858-3-0"><tspan
         sodipodi:role="line"
         id="tspan1856-4-2"
         x="88.124847"
         y="112.58704"
         style="stroke-width:0.264583">Odnawialne</tspan><tspan
         sodipodi:role="line"
         x="88.124847"
         y="118.76067"
         style="stroke-width:0.264583"
         id="tspan1945">zródła energii</tspan></text>
    <text
       xml:space="preserve"
       style="font-size:4.9389px;line-height:1.25;font-family:sans-serif;stroke-width:0.264583"
       x="146.65689"
       y="111.78519"
       id="text1858-0-1"><tspan
         sodipodi:role="line"
         x="146.65689"
         y="111.78519"
         style="stroke-width:0.264583"
         id="tspan1886-9">Rekuperacja</tspan></text>
  </g>
</svg>
