<?xml version="1.0" encoding="UTF-8" standalone="no"?>
<svg
   xmlns:dc="http://purl.org/dc/elements/1.1/"
   xmlns:cc="http://creativecommons.org/ns#"
   xmlns:rdf="http://www.w3.org/1999/02/22-rdf-syntax-ns#"
   xmlns:svg="http://www.w3.org/2000/svg"
   xmlns="http://www.w3.org/2000/svg"
   xmlns:sodipodi="http://sodipodi.sourceforge.net/DTD/sodipodi-0.dtd"
   xmlns:inkscape="http://www.inkscape.org/namespaces/inkscape"
   width="700"
   height="500"
   viewBox="0 0 185.20833 132.29167"
   version="1.1"
   id="svg8"
   inkscape:version="1.0.1 (3bc2e813f5, 2020-09-07)"
   sodipodi:docname="QHouseStrenght6pl.svg">
  <defs
     id="defs2" />
  <sodipodi:namedview
     id="base"
     pagecolor="#ffffff"
     bordercolor="#666666"
     borderopacity="1.0"
     inkscape:pageopacity="0.0"
     inkscape:pageshadow="2"
     inkscape:zoom="0.49497475"
     inkscape:cx="453.40384"
     inkscape:cy="525.27856"
     inkscape:document-units="mm"
     inkscape:current-layer="layer1"
     inkscape:document-rotation="0"
     showgrid="false"
     units="px"
     inkscape:snap-global="true"
     inkscape:window-width="1920"
     inkscape:window-height="1137"
     inkscape:window-x="-8"
     inkscape:window-y="-8"
     inkscape:window-maximized="1" />
  <metadata
     id="metadata5">
    <rdf:RDF>
      <cc:Work
         rdf:about="">
        <dc:format>image/svg+xml</dc:format>
        <dc:type
           rdf:resource="http://purl.org/dc/dcmitype/StillImage" />
        <dc:title></dc:title>
      </cc:Work>
    </rdf:RDF>
  </metadata>
  <g
     inkscape:label="Layer 1"
     inkscape:groupmode="layer"
     id="layer1">
    <rect
       style="fill:#ff6600;stroke:none;stroke-width:2.10748;stroke-miterlimit:4;stroke-dasharray:none;stroke-opacity:1"
       id="rect1065-9-6-5-6"
       width="184.31049"
       height="48.33202"
       x="-0.17981182"
       y="0.30294386" />
    <path
       style="fill:#ffffff;stroke-width:0.269044"
       d="m 152.87753,48.548434 c -6.94582,-1.488199 -12.54578,-5.806411 -15.70474,-12.110191 -1.31349,-2.621118 -1.94885,-5.24084 -2.11327,-8.713549 -0.30934,-6.53354 1.63855,-11.79769 6.1034,-16.49407 3.95449,-4.1596195 8.92914,-6.4646195 14.80444,-6.8597194 l 2.55591,-0.1719001 0.37844,-1.82438 c 0.20814,-1.00346 0.46113,-1.79041006 0.56219,-1.74879006 0.24505,0.10083 6.19035,7.03310016 6.17951,7.20529016 -0.009,0.1484598 -7.31766,3.5867994 -8.22999,3.8719394 -0.56535,0.17669 -0.56766,0.16121 -0.20598,-1.37578 0.57378,-2.4384794 0.66224,-2.3290993 -1.73391,-2.1442895 -2.39226,0.18444 -3.87981,0.6311101 -6.77037,2.0327405 -2.54702,1.235049 -6.42847,4.974489 -7.71789,7.435479 -1.68785,3.22146 -2.10223,4.998111 -2.10223,9.01303 0,3.820851 0.40099,5.698472 1.80454,8.44963 2.37167,4.648862 7.10791,8.312812 12.37925,9.576541 9.24662,2.216759 18.99376,-3.180001 21.86709,-12.107201 0.26195,-0.813858 0.5465,-1.600729 0.63233,-1.74866 0.0858,-0.14785 0.12108,-0.602189 0.0784,-1.00951 -0.0987,-0.941049 0.23957,-1.061329 2.24987,-0.800209 1.71737,0.223118 1.69714,0.19534 1.34169,1.840339 -0.0955,0.441661 -0.28915,0.549031 -0.86682,0.480451 -0.43894,-0.0521 -0.52332,-0.0265 -0.20582,0.0626 0.9031,0.253421 0.96011,0.477023 0.50898,1.996681 -1.34651,4.535702 -4.81356,9.088699 -9.07467,11.917071 -4.73859,3.145259 -11.24187,4.40018 -16.7203,3.226409 z m 13.44803,-12.377708 c -0.76098,-0.2032 -1.74878,-1.175041 -1.74878,-1.720562 0,-0.30612 0.27067,-0.50038 0.80675,-0.579091 0.6249,-0.0917 0.89921,0.0227 1.2169,0.507551 0.48016,0.73284 1.60387,0.838411 1.85859,0.174651 0.22444,-0.584891 -0.25849,-1.001339 -1.60053,-1.380202 -0.59474,-0.167849 -1.31108,-0.473178 -1.59185,-0.678489 -0.62428,-0.456488 -0.68267,-1.917179 -0.1,-2.499918 0.62269,-0.622703 2.34971,-0.929222 3.50316,-0.6218 0.98427,0.262358 1.93605,1.200208 1.66429,1.639937 -0.25283,0.409081 -1.92293,0.251863 -2.09527,-0.197268 -0.20421,-0.53213 -1.3401,-0.40577 -1.44798,0.1611 -0.0557,0.292579 0.40926,0.564279 1.61152,0.941631 1.27901,0.401449 1.77106,0.701857 2.02416,1.23566 0.40876,0.86206 0.052,2.102029 -0.74863,2.602039 -0.6192,0.386689 -2.55876,0.626689 -3.35238,0.414761 z m -22.4652,-3.452971 v -3.36309 h 2.22702 c 2.53394,0 3.25113,0.3303 3.85489,1.775299 0.74588,1.785141 0.19724,4.039631 -1.13022,4.644472 -0.36977,0.168507 -1.63516,0.306358 -2.81199,0.306358 h -2.1397 z m 3.88588,1.41986 c 0.50412,-0.71972 0.54583,-2.08878 0.0826,-2.70854 -0.18497,-0.247441 -0.63897,-0.482441 -1.00891,-0.522261 -0.64165,-0.069 -0.67637,0 -0.75441,1.51175 -0.0449,0.87127 -0.0185,1.749001 0.0588,1.950561 0.21759,0.567029 1.15653,0.432991 1.62198,-0.23151 z m 3.22854,0.26162 c 0.34829,-0.924851 0.92541,-2.40792 1.2825,-3.29578 l 0.64924,-1.614249 h 1.1919 1.19189 l 1.13486,2.959467 c 0.62417,1.627741 1.13971,3.110812 1.14565,3.295783 0.007,0.213198 -0.37176,0.336338 -1.034,0.336338 -0.81852,0 -1.07527,-0.116549 -1.18551,-0.53811 -0.11428,-0.43698 -0.36698,-0.538059 -1.34522,-0.538059 -0.97824,0 -1.23094,0.101079 -1.34522,0.538059 -0.11149,0.42635 -0.36698,0.53811 -1.23002,0.53811 h -1.08932 z m 3.51835,-1.7467 c -0.28489,-1.518632 -0.47265,-1.623722 -0.81596,-0.45683 -0.36462,1.239438 -0.29526,1.463681 0.4527,1.463681 0.49213,0 0.53161,-0.109432 0.36326,-1.006851 z m 5.23794,2.015778 c -0.002,-1.235048 -0.15462,-1.629778 -1.21069,-3.141818 -0.6643,-0.951151 -1.2078,-1.82893 -1.2078,-1.950591 0,-0.121679 0.47199,-0.221239 1.04885,-0.221239 0.94614,0 1.11401,0.110299 1.7139,1.12609 l 0.66504,1.12612 0.71087,-1.12612 c 0.64243,-1.01764 0.8151,-1.12609 1.79315,-1.12609 1.03642,0 1.06892,0.02569 0.76695,0.60534 -0.17342,0.332949 -0.7225,1.16641 -1.22017,1.852078 -0.77169,1.06331 -0.90484,1.469152 -0.90484,2.757752 v 1.510959 h -1.07618 -1.07617 l -0.003,-1.412481 z m 17.62531,-6.095759 c -1.22103,-0.14478 -1.35308,-0.227859 -1.43035,-0.899401 l -0.0851,-0.739878 h 1.90118 1.90117 v 0.941679 c 0,1.0278 0.13934,0.985281 -2.28687,0.6976 z M 146.1253,27.224796 c -0.58178,-0.249981 -1.9959,-1.783852 -1.9959,-2.164932 0,-0.3579 2.52382,-0.644309 2.63878,-0.29943 0.34631,1.03894 1.59226,1.40092 2.31933,0.67387 0.92119,-0.9212 0.23581,-2.53672 -1.07618,-2.53672 -0.53519,0 -0.6534,-0.13531 -0.6534,-0.74811 0,-0.58425 0.17687,-0.81494 0.80714,-1.05283 0.97626,-0.36851 1.13064,-1.50455 0.26725,-1.96662 -0.44499,-0.23815 -0.66499,-0.16383 -1.25151,0.4227 -0.58444,0.58441 -0.87858,0.68453 -1.64581,0.56002 -1.15526,-0.18749 -1.23071,-0.26123 -1.00258,-0.98002 0.32454,-1.02251 1.68693,-1.61388 3.72061,-1.61499 1.67201,0 1.90727,0.0696 2.62318,0.78544 0.93368,0.93369 1.03286,2.07613 0.2529,2.9133 l -0.53353,0.57269 0.80257,0.80259 c 1.14156,1.14155 1.1047,2.405511 -0.10877,3.72962 -0.8613,0.939849 -1.01275,0.99856 -2.7577,1.06926 -1.01549,0.0412 -2.09837,-0.0335 -2.40638,-0.165838 z m 9.18327,-0.2799 c -1.27073,-0.837651 -1.73851,-2.010812 -1.75134,-4.392222 -0.0199,-3.70353 1.09057,-5.03309 4.20553,-5.03494 1.39515,0 1.79333,0.11041 2.48866,0.69551 0.98096,0.82542 1.0535,1.3326 0.22243,1.5553 -1.05431,0.28252 -1.63007,0.18534 -2.22771,-0.3761 -0.31948,-0.30015 -0.76489,-0.47512 -0.98982,-0.38881 -0.46674,0.17912 -1.01992,1.25944 -1.01992,1.99186 0,0.45614 0.0799,0.46641 1.04337,0.13449 1.32674,-0.45712 2.75047,-0.10443 3.51814,0.87151 0.68366,0.86913 0.75749,3.171031 0.13043,4.066331 -1.00289,1.431791 -4.05547,1.908199 -5.61977,0.877071 z m 3.19549,-1.510592 c 0.58758,-0.58756 0.52823,-1.89315 -0.11531,-2.53672 -0.29594,-0.29591 -0.65916,-0.53808 -0.80713,-0.53808 -0.49409,0 -1.34522,1.06862 -1.34522,1.68894 0,1.44698 1.36954,2.28396 2.26766,1.38586 z m 5.5964,1.498601 c -0.79066,-0.482071 -1.66614,-1.736091 -1.38344,-1.981571 0.061,-0.053 0.61965,-0.16129 1.24138,-0.24056 0.98024,-0.125039 1.18659,-0.0585 1.55321,0.501071 0.45501,0.69445 1.438,0.855209 1.97085,0.322419 0.17756,-0.177589 0.32285,-0.84606 0.32285,-1.48553 0,-0.979089 -0.1062,-1.21102 -0.67261,-1.46915 -0.51772,-0.23585 -0.843,-0.22503 -1.41248,0.0469 -0.64325,0.30723 -2.44632,0.392851 -2.71773,0.12906 -0.052,-0.0505 0.0442,-0.97755 0.21387,-2.06002 0.55786,-3.56018 0.10359,-3.17886 3.78694,-3.17886 h 3.22341 v 1.06532 1.06529 l -2.21963,0.0781 c -2.09912,0.0739 -2.22447,0.1125 -2.30917,0.71091 -0.0845,0.59719 -0.0297,0.62267 0.97477,0.45294 1.18865,-0.20082 2.60063,0.26532 3.32229,1.09677 1.13444,1.30704 0.76737,3.41514 -0.8285,4.75798 -0.73548,0.61886 -1.11202,0.727151 -2.52524,0.726281 -1.18431,0 -1.91337,-0.15494 -2.54077,-0.537451 z M 176.056,26.215804 c -0.0986,-0.0986 -0.17936,-0.385469 -0.17936,-0.63738 0,-0.47821 1.12988,-0.78859 2.89222,-0.794569 0.74275,-0.003 0.87439,0.0936 0.87439,0.638309 0,0.43751 -0.19228,0.69273 -0.60535,0.803431 -0.8172,0.219019 -2.75949,0.212619 -2.9819,-0.0103 z m -0.26904,-2.15236 c -0.55602,-0.55597 0.18851,-0.96872 2.30929,-1.28016 1.22489,-0.17989 1.27796,-0.1606 1.27796,0.46482 0,0.57232 -0.15342,0.67355 -1.24825,0.82365 -1.58748,0.21759 -2.11502,0.21572 -2.339,-0.008 z m -0.40557,-2.13122 c 0.0993,-0.51559 2.67064,-1.33895 3.35792,-1.07521 0.66648,0.25577 0.37992,0.67101 -0.64306,0.93194 -2.50636,0.63918 -2.8135,0.6554 -2.71486,0.14327 z m -0.58094,-1.82223 c 0,-0.20146 0.67666,-0.62519 1.50369,-0.94166 1.76358,-0.67487 1.9939,-0.69908 1.9939,-0.20923 0,0.20145 -0.67666,0.62521 -1.5037,0.94165 -1.76357,0.6749 -1.99389,0.69908 -1.99389,0.20924 z m -0.80713,-1.78224 c 0,-0.33745 3.10709,-1.91897 3.3307,-1.69537 0.35758,0.35761 0.10917,0.56999 -1.46512,1.25275 -1.84639,0.80076 -1.86558,0.80531 -1.86558,0.44262 z m -1.07617,-1.84912 c 0,-0.21566 2.78564,-2.19046 3.08988,-2.19046 0.0763,0 0.13866,0.17005 0.13866,0.37788 0,0.20783 -0.66406,0.75266 -1.47568,1.21073 -1.59254,0.89874 -1.75286,0.9538 -1.75286,0.60185 z m -1.34523,-1.76398 c 0,-0.19076 2.74732,-2.30975 2.99464,-2.30975 0.55671,0 0.14139,0.56017 -1.08011,1.45679 -1.16269,0.85352 -1.91453,1.18848 -1.91453,0.85296 z m -0.24631,-2.78061 c 0.64209,-0.70289 1.29313,-1.32289 1.44675,-1.37782 0.15362,-0.0549 -0.32148,0.52012 -1.0558,1.27794 -1.68006,1.73387 -1.94555,1.80168 -0.39095,0.0999 z"
       id="path1018-6" />
    <text
       xml:space="preserve"
       style="font-size:17.8266px;line-height:1.25;font-family:sans-serif;fill:#ffffff;stroke:#ff6200;stroke-width:1.07563;stroke-opacity:1"
       x="-0.28254926"
       y="26.836926"
       id="text1120-9-5-2-0-81"><tspan
         sodipodi:role="line"
         id="tspan1118-7-0-2-6-6"
         x="-0.28254926"
         y="26.836926"
         style="font-style:normal;font-variant:normal;font-weight:bold;font-stretch:normal;font-size:17.8266px;font-family:sans-serif;-inkscape-font-specification:'sans-serif Bold';fill:#ffffff;stroke:#ff6200;stroke-width:1.07563;stroke-opacity:1">DOMY </tspan><tspan
         sodipodi:role="line"
         x="-0.28254926"
         y="49.120174"
         style="font-style:normal;font-variant:normal;font-weight:bold;font-stretch:normal;font-size:17.8266px;font-family:sans-serif;-inkscape-font-specification:'sans-serif Bold';fill:#ffffff;stroke:#ff6200;stroke-width:1.07563;stroke-opacity:1"
         id="tspan1442">CAŁOROCZNE</tspan></text>
    <path
       style="fill:#090909;stroke-width:0.265046"
       d="m 150.08504,100.12898 c -0.74519,-0.400874 -2.87398,-2.160115 -4.73065,-3.909434 -1.85666,-1.74929 -6.59795,-6.209292 -10.53619,-9.911112 -3.93824,-3.701809 -7.51496,-7.07022 -7.94829,-7.48534 -0.72597,-0.695508 -0.75416,-0.788538 -0.35887,-1.183799 0.46954,-0.46953 -0.54467,-1.377871 16.60269,14.869581 3.53852,3.352868 6.93533,6.37391 7.54846,6.71345 0.87784,0.48618 1.40803,0.594418 2.49448,0.50927 1.76347,-0.13816 2.77774,-0.797211 7.28722,-4.735031 1.93887,-1.693119 7.16296,-6.25639 11.60912,-10.140609 4.44614,-3.88421 8.25293,-7.031241 8.45951,-6.9934 1.14635,0.2101 1.6272,-0.24202 -17.27515,16.24263 -3.37359,2.942059 -6.43612,5.38742 -7.37818,5.89126 -2.12393,1.135954 -3.83586,1.175244 -5.77415,0.132534 z m 2.29215,-4.040805 c -0.39877,-0.120039 -1.18396,-0.616691 -1.74488,-1.10363 -3.32945,-2.89038 -15.93739,-14.195081 -16.54717,-14.83677 -0.90223,-0.949399 -0.92943,-1.9074 -0.0783,-2.758511 0.97708,-0.97708 1.74479,-0.825048 3.58108,0.709321 l 1.62752,1.359951 4.87714,-0.1914 4.87717,-0.191402 0.61828,0.620551 c 0.41757,0.41905 0.99603,1.88963 1.78192,4.529939 0.64,2.150192 1.29158,3.9062 1.44795,3.90226 0.15638,-0.004 0.74602,-0.436279 1.31032,-0.960628 0.99256,-0.92239 1.01642,-0.985461 0.73181,-1.935371 -0.55191,-1.842141 -1.35209,-5.179669 -1.35616,-5.656609 -0.002,-0.261721 0.30238,-0.78231 0.67692,-1.15688 l 0.68098,-0.681011 -1.18773,-2.02364 -1.18775,-2.023689 0.57302,-0.989121 c 0.31516,-0.54401 0.68344,-1.02108 0.81841,-1.060159 0.22676,-0.0658 1.7644,2.32437 3.80529,5.91479 0.83159,1.463 0.83547,1.486389 0.33429,2.024369 -0.48046,0.515731 -0.48582,0.62566 -0.10249,2.098011 0.22248,0.85458 0.43939,1.589619 0.48199,1.633429 0.0426,0.0439 0.89636,-0.62388 1.89722,-1.483879 1.00088,-0.86003 2.08029,-1.701011 2.3987,-1.86881 0.81662,-0.430371 2.61797,-0.37883 3.5468,0.101518 l 0.78634,0.406641 2.97501,-2.659499 c 3.21828,-2.877 3.78789,-3.11436 5.06445,-2.11019 0.95509,0.751258 0.93811,1.912379 -0.0417,2.850388 -1.24004,1.18709 -9.45343,8.479832 -14.36756,12.757002 -4.31437,3.75516 -6.17536,5.060188 -7.15625,5.018328 -0.21868,-0.009 -0.72384,-0.115199 -1.12259,-0.235299 z m -4.77911,-10.896121 -0.61274,-1.95979 -1.64613,-0.0789 c -0.92581,-0.0444 -1.64615,0.0321 -1.64615,0.174601 0,0.302599 4.24711,4.094499 4.40698,3.93464 0.0609,-0.0609 -0.16495,-0.99269 -0.50196,-2.070581 z m 10.40747,-6.249829 c 0,-0.1 -0.91434,-1.70584 -2.03189,-3.568531 -1.79785,-2.99662 -2.07164,-3.334358 -2.37698,-2.93243 -0.44994,0.59227 -0.45134,0.869501 -0.004,0.697601 0.23811,-0.0914 0.97009,0.890381 2.18013,2.923831 1.60316,2.69412 2.23227,3.505639 2.23227,2.879529 z m 6.43285,-1.663851 c -1.46965,-0.667168 -2.18982,-1.855229 -2.19111,-3.61479 -0.003,-4.133189 4.98017,-5.54759 7.52699,-2.136429 0.78433,1.050531 0.73976,3.227679 -0.09,4.392851 -0.67271,0.944748 -2.38327,1.86722 -3.46235,1.86722 -0.36445,0 -1.16706,-0.22897 -1.7836,-0.508852 z"
       id="path1739" />
    <g
       id="g1719"
       transform="matrix(0.7669626,0,0,0.7669626,-259.7514,-509.03789)"
       style="fill:#000000">
      <path
         style="fill:#000000;stroke-width:0.264583"
         d="m 384.09942,800.12772 c -1.87679,-0.45988 -5.41527,-2.27667 -4.43416,-2.27667 0.16603,0 0.37547,0.11906 0.46541,0.26458 0.0899,0.14552 0.51368,0.26459 0.94165,0.26459 0.42798,0 0.77814,-0.11907 0.77814,-0.26459 0,-0.14552 -0.1786,-0.26458 -0.39688,-0.26458 -0.21828,0 -0.39687,-0.12609 -0.39687,-0.2802 0,-0.15933 -0.14267,-0.18997 -0.33073,-0.071 -0.1819,0.11505 -0.66063,0.22733 -1.06385,0.24952 -1.54268,0.0849 -4.85093,-3.84759 -6.0602,-7.20365 -0.3969,-1.10153 -0.59823,-2.42505 -0.68695,-4.51604 -0.11314,-2.66632 -0.0573,-3.16921 0.56616,-5.10225 1.1583,-3.59105 3.33488,-6.36958 6.65125,-8.4907 1.30657,-0.83566 3.4577,-1.65928 3.90111,-1.49365 0.20774,0.0776 0.13395,0.19427 -0.19867,0.3141 -2.74651,0.98942 -6.20929,4.03835 -7.36591,6.48556 -3.42751,7.25204 -0.76027,15.59107 6.043,18.89322 2.79877,1.35846 3.74187,1.58844 6.48229,1.58073 5.6342,-0.0159 10.10212,-2.81898 12.65669,-7.94068 0.42604,-0.85419 0.8388,-1.73166 0.91724,-1.94994 0.0919,-0.25569 0.15006,-0.27625 0.16351,-0.0578 0.0509,0.82665 -1.18686,3.78092 -2.26252,5.40008 -2.08762,3.14238 -5.36485,5.54801 -8.73499,6.41185 -1.91196,0.49008 -5.73164,0.51386 -7.63472,0.0475 z m -0.92605,-1.21834 c 0,-0.14552 -0.23812,-0.26458 -0.52916,-0.26458 -0.29104,0 -0.52917,0.11906 -0.52917,0.26458 0,0.14552 0.23813,0.26459 0.52917,0.26459 0.29104,0 0.52916,-0.11907 0.52916,-0.26459 z m -2.72485,-1.94114 c -0.0293,-0.15201 0.16919,-0.32467 0.44108,-0.38368 0.28072,-0.0609 0.4243,0.006 0.33225,0.155 -0.0892,0.14426 0.0158,0.33056 0.23325,0.414 0.23146,0.0888 0.39536,0.002 0.39536,-0.20855 0,-0.51598 -0.50866,-0.64367 -2.10904,-0.52947 -1.40485,0.10026 -2.20839,0.37718 -1.09445,0.37718 0.32389,0 0.53403,0.0893 0.46699,0.19843 -0.067,0.10914 0.21779,0.21083 0.63296,0.22596 0.41518,0.0151 0.7309,-0.0969 0.7016,-0.24887 z m -2.01284,-0.98255 c 0.58263,-0.31181 0.43881,-0.84024 -0.16557,-0.60832 -0.21362,0.082 -0.3884,0.0172 -0.3884,-0.14385 0,-0.16109 0.13364,-0.29289 0.29698,-0.29289 0.21844,0 0.21905,-0.0939 0.002,-0.35507 -0.16208,-0.19529 -0.2232,-0.42656 -0.13583,-0.51393 0.0874,-0.0874 -0.11511,-0.54362 -0.44997,-1.01389 -0.33485,-0.47026 -0.65611,-0.71315 -0.71391,-0.53976 -0.0578,0.17338 0.16217,0.53166 0.48881,0.79616 0.57494,0.46555 0.57993,0.50892 0.15639,1.35793 -0.32841,0.65831 -0.36358,0.9661 -0.14103,1.23425 0.35651,0.42957 0.391,0.43218 1.05023,0.0794 z m -1.70166,-1.64037 c -0.0734,-0.1819 -0.13345,-0.0331 -0.13345,0.33073 0,0.3638 0.06,0.51263 0.13345,0.33073 0.0734,-0.1819 0.0734,-0.47956 0,-0.66146 z m -0.26395,-1.45889 c -0.3805,-0.38049 -0.37751,-0.44702 0.0335,-0.7476 0.24817,-0.18146 0.35237,-0.42878 0.23156,-0.54959 -0.39237,-0.39237 -0.98217,0.71787 -0.68065,1.28127 0.14795,0.27644 0.19184,0.766 0.0976,1.08793 -0.16846,0.5751 -0.16353,0.57449 0.2821,-0.0345 0.41319,-0.56468 0.41638,-0.657 0.0359,-1.0375 z m -0.84362,-0.12861 c -0.0804,-0.47294 -0.30286,-0.97942 -0.49443,-1.12549 -0.19157,-0.14608 -0.43319,-0.53304 -0.53693,-0.8599 -0.10375,-0.32686 -0.29593,-0.5943 -0.42707,-0.5943 -0.27153,0 -0.15241,0.35905 0.7171,2.16145 0.71951,1.49147 0.94538,1.6189 0.74133,0.41824 z m 0.0339,-2.50803 c -0.26895,-0.26895 -0.49087,0.13597 -0.2702,0.49302 0.1667,0.26972 0.22902,0.26993 0.31864,0.001 0.0613,-0.18383 0.0395,-0.40617 -0.0484,-0.49409 z m 10.42348,7.31247 c -2.15516,-0.41778 -5.02449,-2.04097 -6.80616,-3.85024 -1.75203,-1.77918 -2.66073,-3.30665 -3.35079,-5.63243 -0.49906,-1.68204 -0.54937,-2.76754 -0.056,-1.20875 1.19336,3.77057 3.54144,6.4999 7.03673,8.17927 2.06824,0.99372 2.4548,1.08838 4.78016,1.17053 2.17635,0.0769 2.81856,-0.007 4.59483,-0.60377 2.35957,-0.79208 4.0817,-1.86313 5.50658,-3.42472 1.22228,-1.33956 2.52861,-3.75021 3.00813,-5.55107 0.45931,-1.72501 0.43743,-5.01071 -0.0425,-6.38482 l -0.36966,-1.05834 0.11678,1.05834 0.11677,1.05833 -0.42609,-1.19062 c -0.58947,-1.64713 -2.0481,-3.79178 -3.35484,-4.93268 -0.60312,-0.52657 -1.98956,-1.38172 -3.08096,-1.90032 -1.9138,-0.90936 -2.0879,-0.94222 -4.89479,-0.9238 -2.80385,0.0184 -2.98192,0.0547 -4.86325,0.99097 -3.65856,1.82076 -5.99113,4.87743 -6.66205,8.73014 -0.43094,2.47461 -0.15189,4.37814 0.98976,6.75174 1.52071,3.16168 3.69318,5.06109 7.49283,6.55105 l 0.92604,0.36313 -1.05833,-0.15341 c -1.2829,-0.18597 -4.49792,-1.72951 -4.49792,-2.15946 0,-0.16978 -0.10839,-0.4079 -0.24086,-0.52917 -0.13993,-0.1281 -0.16111,-0.0819 -0.0505,0.11024 0.46185,0.80256 -0.40775,0.20646 -1.7369,-1.19062 -2.45732,-2.58292 -3.59164,-5.77649 -3.30356,-9.30088 0.33679,-4.12039 1.55866,-6.42307 4.93497,-9.30025 1.36625,-1.16427 4.00505,-2.17393 5.95313,-2.27778 1.01864,-0.0543 2.61301,-0.14379 3.54304,-0.19885 1.15083,-0.0681 1.57339,-0.0175 1.32291,0.1584 -0.2619,0.18397 -0.16225,0.21375 0.34557,0.1033 1.87437,-0.40771 6.00784,2.16836 8.1421,5.07432 1.80705,2.46045 2.60911,5.07864 2.71809,8.87284 0.0451,1.57 0.0127,2.65693 -0.072,2.41541 -0.10631,-0.30308 -0.25652,-0.0971 -0.4848,0.66488 -2.00018,6.67599 -9.1472,10.88172 -16.17633,9.51909 z m 13.85167,-19.7534 c -0.0669,-0.25466 -0.36019,-0.76067 -0.65166,-1.12448 -0.5125,-0.63969 -0.51186,-0.62446 0.0196,0.46302 0.57346,1.17349 0.84,1.45242 0.63209,0.66146 z m -1.15167,-2.00951 c 0,-0.0502 -0.26789,-0.3181 -0.59531,-0.59531 l -0.59531,-0.50403 0.50402,0.59531 c 0.47367,0.55945 0.6866,0.71576 0.6866,0.50403 z m -7.27604,14.87529 c -0.58208,-0.13425 -1.53458,-0.46586 -2.11667,-0.73692 -2.44876,-1.14032 -5.22867,-1.40798 -7.24277,-0.69737 -1.52078,0.53656 -1.36286,0.11245 0.29746,-0.79892 2.02427,-1.11114 4.36557,-1.03905 8.18391,0.25199 1.55435,0.52555 3.13785,0.95555 3.51887,0.95555 0.94493,0 2.19076,-0.66474 3.37847,-1.80264 1.1928,-1.14279 1.29002,-0.80458 0.20092,0.69889 -0.91846,1.2679 -3.01369,2.43923 -4.29317,2.40009 -0.47778,-0.0146 -1.34494,-0.13642 -1.92702,-0.27067 z m -1.19063,-2.62397 c -2.3087,-0.95307 -4.87703,-1.28348 -6.08556,-0.7829 -0.44581,0.18467 -0.88736,0.25897 -0.98121,0.16512 -0.2883,-0.28831 0.77575,-0.93312 2.29008,-1.38778 1.30584,-0.39206 1.60366,-0.39523 3.175,-0.0337 0.95369,0.21941 2.41562,0.65137 3.24873,0.95991 1.66628,0.61711 3.36413,0.72266 4.25734,0.26466 0.31785,-0.16298 0.96487,-0.66259 1.43781,-1.11024 0.47294,-0.44765 0.8599,-0.7251 0.8599,-0.61657 0,0.54416 -0.86951,1.75353 -1.73583,2.4143 -0.78796,0.60101 -1.30728,0.76178 -2.72757,0.84438 -1.49811,0.0871 -2.04411,-0.0176 -3.73869,-0.71717 z m -10.91541,-0.86265 c -1.67468,-0.66162 -2.24919,-3.70936 -1.02366,-5.43046 0.53611,-0.75289 2.4783,-1.52407 3.01029,-1.19528 0.12721,0.0786 0.16879,-0.31526 0.0924,-0.87529 -0.0764,-0.56003 -0.0724,-0.78011 0.009,-0.48907 0.0812,0.29105 0.2552,0.64228 0.38659,0.78053 0.51404,0.54082 0.22985,0.93927 -0.66991,0.93927 -0.49985,0 -1.21417,0.11609 -1.58738,0.25798 -0.80056,0.30437 -1.73475,1.72224 -1.73615,2.63504 -10e-4,0.85401 1.03654,2.9719 1.35876,2.77275 0.15807,-0.0977 0.14817,-0.28349 -0.0263,-0.49371 -0.21844,-0.26321 -0.1198,-0.30759 0.45018,-0.20254 0.72412,0.13347 0.72599,0.13012 0.23546,-0.42253 -0.68335,-0.76991 -0.39718,-2.23198 0.57054,-2.9149 0.64371,-0.45427 0.83441,-0.47165 1.85053,-0.16868 1.58762,0.47339 1.90731,0.81765 1.92661,2.07471 0.0142,0.92159 0.0541,0.99914 0.25606,0.49677 0.13161,-0.32742 0.31068,-0.59531 0.39793,-0.59531 0.0873,0 0.0854,0.26789 -0.004,0.59531 -0.1484,0.54281 -0.13558,0.55168 0.14538,0.10055 0.19019,-0.30539 0.37421,-0.38785 0.48076,-0.21543 0.10161,0.16441 0.62471,0.2187 1.2714,0.13196 1.42692,-0.19139 1.25189,-0.80728 -0.27199,-0.95705 -1.00634,-0.0989 -0.97577,-0.1129 0.35363,-0.16188 2.68056,-0.0988 3.175,-0.15379 3.175,-0.35336 0,-0.10914 0.40969,-0.19843 0.91043,-0.19843 0.50073,0 0.98401,-0.11907 1.07395,-0.26459 0.0899,-0.14552 0.71844,-0.26458 1.39668,-0.26458 1.0641,0 1.33391,-0.11789 1.96814,-0.8599 0.80648,-0.94355 0.89117,-1.42095 0.43117,-2.43055 -0.40103,-0.88015 -1.81098,-1.17752 -2.72952,-0.57567 -0.8614,0.56441 -0.93418,0.54475 -0.93418,-0.25232 0,-0.37337 -0.12259,-0.90791 -0.27243,-1.18788 -0.37277,-0.69654 -1.75629,-1.37184 -2.39513,-1.16908 -0.60164,0.19096 -1.83036,1.3489 -1.83036,1.72492 0,0.53509 -0.42667,0.21675 -0.70782,-0.52809 -0.40225,-1.06569 -1.82907,-1.92645 -2.92297,-1.76335 -1.0791,0.1609 -2.09882,0.89696 -2.42476,1.75025 -0.17334,0.45378 -0.25923,0.51739 -0.27356,0.20262 -0.0394,-0.8651 1.34439,-2.07531 2.5592,-2.23822 0.92749,-0.12438 1.31053,-0.028 2.18282,0.54926 0.58186,0.38505 1.05792,0.877 1.05792,1.09322 0,0.5653 0.20686,0.48975 0.91583,-0.33448 0.51696,-0.60101 0.84137,-0.72761 1.86447,-0.72761 1.05872,0 1.33085,0.11529 1.87368,0.79375 0.34928,0.43657 0.63565,1.06583 0.63638,1.39838 0.001,0.51567 0.0766,0.56432 0.51308,0.33072 0.91741,-0.49098 2.11246,-0.31954 2.83932,0.40731 0.59281,0.59282 0.66511,0.84854 0.55726,1.971 -0.0682,0.70939 -0.0527,1.28172 0.0344,1.27185 1.00737,-0.11427 1.8781,0.83858 1.8781,2.05522 0,0.72175 -0.19667,1.1359 -0.8127,1.71136 -1.40504,1.3125 -3.15149,1.31397 -7.51594,0.006 -1.01551,-0.30426 -2.33375,-0.5532 -2.92945,-0.5532 -1.20197,0 -3.55858,0.71284 -3.55858,1.07641 0,0.40625 -1.5275,1.04135 -2.43426,1.01211 -0.48017,-0.0155 -1.20107,-0.15774 -1.60199,-0.31613 z m 1.25812,-0.18489 c 0.0899,-0.14552 -0.0291,-0.26458 -0.26458,-0.26458 -0.23546,0 -0.35452,0.11906 -0.26458,0.26458 0.0899,0.14552 0.209,0.26459 0.26458,0.26459 0.0556,0 0.17464,-0.11907 0.26458,-0.26459 z m 1.11843,-0.52916 c -0.37,-0.29105 -0.83254,-0.52652 -1.02787,-0.52329 -0.46229,0.008 0.85227,1.03883 1.33419,1.04657 0.20625,0.003 0.0724,-0.22542 -0.30632,-0.52328 z m 1.8057,-2.30007 c -0.14111,-0.83525 -0.32895,-1.09256 -0.97582,-1.33672 -1.54497,-0.58316 -2.98262,0.62363 -2.363,1.98356 0.31022,0.68086 0.76344,0.71182 2.5975,0.17746 0.3655,-0.10649 0.59532,-0.0594 0.59532,0.12199 0,0.1625 -0.18562,0.29544 -0.41249,0.29544 -0.2317,0 -0.33394,0.1271 -0.23328,0.28998 0.12316,0.19927 0.30234,0.16684 0.57287,-0.10369 0.28462,-0.28462 0.34525,-0.68016 0.2189,-1.42802 z m 12.554,-1.13952 c 0,-0.14552 -0.12609,-0.26458 -0.2802,-0.26458 -0.15411,0 -0.20661,0.11906 -0.11668,0.26458 0.0899,0.14552 0.21603,0.26459 0.2802,0.26459 0.0642,0 0.11668,-0.11907 0.11668,-0.26459 z m -8.53282,0.35394 c 0.18191,-0.0734 0.47956,-0.0734 0.66146,0 0.1819,0.0734 0.0331,0.13345 -0.33073,0.13345 -0.3638,0 -0.51263,-0.06 -0.33073,-0.13345 z m 6.94532,-1.39665 c 0,-0.28246 0.10186,-0.57651 0.22636,-0.65346 0.1245,-0.0769 0.17015,0.15416 0.10145,0.51355 -0.14923,0.78065 -0.32781,0.85686 -0.32781,0.13991 z m -38.4142,-12.63178 c 0.191,-0.0764 0.4192,-0.067 0.50712,0.0209 0.0879,0.0879 -0.0683,0.15045 -0.34726,0.13896 -0.30823,-0.0127 -0.37092,-0.0754 -0.15986,-0.15985 z m 31.47197,-0.006 c 0.32912,-0.0633 0.80537,-0.0609 1.05833,0.005 0.25297,0.0662 -0.0163,0.118 -0.59839,0.11506 -0.58209,-0.003 -0.78906,-0.0571 -0.45994,-0.1204 z m -34.1178,-0.25818 c 0.191,-0.0764 0.4192,-0.067 0.50712,0.0209 0.0879,0.0879 -0.0684,0.15045 -0.34727,0.13896 -0.30822,-0.0127 -0.37092,-0.0754 -0.15985,-0.15985 z m 10.46985,-1.73373 c 2.63693,-1.76983 4.76017,-4.05566 5.77747,-6.21988 0.29639,-0.63053 0.59496,-1.09035 0.66349,-1.02181 0.0685,0.0685 -0.21259,0.75772 -0.62471,1.53153 -0.88683,1.66512 -4.07455,4.98078 -5.38857,5.60485 -0.50933,0.24189 -0.70178,0.28928 -0.42768,0.10531 z m -7.82382,-0.49387 c 0.24546,-0.0877 1.27973,-0.21935 2.29837,-0.29264 1.01865,-0.0733 1.56489,-0.0801 1.21388,-0.015 -0.3805,0.0705 -0.5172,0.19301 -0.33855,0.30343 0.16481,0.10185 -0.58227,0.18034 -1.66016,0.17441 -1.0779,-0.006 -1.75899,-0.0825 -1.51354,-0.17016 z m 31.31452,-0.006 c 0.47316,-0.29995 3.06105,-0.29383 3.2474,0.008 0.0831,0.13447 -0.67306,0.23416 -1.72606,0.22757 -1.12594,-0.007 -1.7332,-0.10095 -1.52134,-0.23525 z m -1.63177,-0.21953 c 0.21828,-0.14772 0.62508,-0.2704 0.90399,-0.27263 0.67692,-0.005 0.46574,0.14603 -0.50712,0.36364 -0.57968,0.12967 -0.68671,0.10512 -0.39687,-0.091 z m 5.55625,-0.0121 c -0.54493,-0.17452 -0.56823,-0.21577 -0.13229,-0.23416 0.29104,-0.0123 0.70776,0.0931 0.92604,0.23416 0.46358,0.29959 0.14173,0.29959 -0.79375,0 z m 6.99634,-1.66802 c 1.03443,-1.04712 2.26151,-2.61823 2.72684,-3.49136 0.46533,-0.87312 0.84922,-1.46143 0.8531,-1.30735 0.0243,0.96408 -3.68366,5.7236 -5.04194,6.47187 -0.23033,0.12689 0.42757,-0.62603 1.462,-1.67316 z m -43.17308,1.48466 c 0.25743,-0.0671 0.61462,-0.0627 0.79375,0.01 0.17913,0.0725 -0.0315,0.12736 -0.46805,0.12197 -0.43657,-0.005 -0.58313,-0.0647 -0.3257,-0.13177 z m 5.88195,-0.0812 c -0.34892,-0.14993 -0.39398,-0.23234 -0.1323,-0.24193 0.21828,-0.008 0.57547,0.10087 0.79375,0.24193 0.48365,0.31256 0.0659,0.31256 -0.66145,0 z m 23.88352,-0.0446 c 0.15375,-0.15375 0.43572,-0.22748 0.6266,-0.16386 0.19816,0.0661 0.0782,0.18599 -0.27954,0.27955 -0.4401,0.11509 -0.5434,0.0806 -0.34706,-0.11569 z m 7.60189,0.0446 c -0.43138,-0.18537 -0.44648,-0.23082 -0.0818,-0.24598 0.24607,-0.0102 0.52099,0.10046 0.61093,0.24598 0.18803,0.30424 0.17883,0.30424 -0.52917,0 z m -46.97258,-1.52135 -1.44617,-1.52136 1.52136,1.44617 c 0.83674,0.7954 1.52135,1.48001 1.52135,1.52136 0,0.19639 -0.253,-0.0328 -1.59654,-1.44617 z m 8.4261,1.34061 c 0.19099,-0.0764 0.4192,-0.067 0.50712,0.0209 0.0879,0.0879 -0.0684,0.15045 -0.34727,0.13896 -0.30822,-0.0127 -0.37092,-0.0754 -0.15985,-0.15985 z m 24.09294,-0.28228 c -0.32911,-0.41964 -0.31975,-0.429 0.0999,-0.0999 0.44073,0.34564 0.58088,0.56291 0.36312,0.56291 -0.0549,0 -0.2633,-0.20836 -0.46302,-0.46302 z m 15.37958,0.19844 c -0.23846,-0.15411 -0.2711,-0.2581 -0.0818,-0.26053 0.17332,-0.002 0.3887,0.11501 0.47864,0.26053 0.20301,0.32849 0.11142,0.32849 -0.39688,0 z m -30.25359,-0.40883 c 0.0806,-0.21003 0.25313,-0.31601 0.3834,-0.23549 0.32811,0.20278 0.29791,0.29969 -0.14654,0.47025 -0.25575,0.0981 -0.33461,0.02 -0.23686,-0.23476 z m 31.0913,0.17702 c -0.27904,-0.17689 -0.25593,-0.26093 0.11039,-0.4015 0.25482,-0.0978 0.59223,-0.0478 0.74979,0.11114 0.20664,0.2084 0.14534,0.23516 -0.21993,0.096 -0.35346,-0.13466 -0.44864,-0.0994 -0.31512,0.11661 0.2254,0.3647 0.15437,0.38168 -0.32513,0.0777 z m -30.32745,-0.54366 c -0.0837,-0.13546 -0.0511,-0.30882 0.0726,-0.38523 0.12364,-0.0764 0.2248,0.0344 0.2248,0.2463 0,0.44613 -0.0834,0.48511 -0.29738,0.13893 z m -13.93326,-0.21672 c -0.0172,-0.10914 -0.0153,-0.29338 0.004,-0.40943 0.0195,-0.11605 -0.13715,-0.17558 -0.34819,-0.13229 -0.21104,0.0433 -0.36176,0.002 -0.33492,-0.092 0.0268,-0.0939 -0.18933,-0.44686 -0.48037,-0.78444 -0.41354,-0.47967 -0.32928,-0.45047 0.38564,0.13364 0.77097,0.6299 1.29666,1.48292 0.91387,1.48292 -0.0599,0 -0.12298,-0.0893 -0.14022,-0.19844 z m 6.1829,0.016 c 0.25466,-0.0665 0.67138,-0.0665 0.92604,0 0.25466,0.0666 0.0463,0.12101 -0.46302,0.12101 -0.50932,0 -0.71768,-0.0544 -0.46302,-0.12101 z m 8.48871,-0.20285 c 0,-0.21188 0.10116,-0.32271 0.22481,-0.2463 0.12364,0.0764 0.1563,0.24977 0.0726,0.38524 -0.21394,0.34617 -0.29738,0.3072 -0.29738,-0.13894 z m 23.26632,0.20189 c 0.25744,-0.0671 0.61462,-0.0627 0.79375,0.01 0.17914,0.0725 -0.0315,0.12736 -0.46805,0.12197 -0.43656,-0.005 -0.58313,-0.0647 -0.3257,-0.13178 z m -28.64618,-0.33373 c 0.21828,-0.14771 0.62508,-0.27039 0.904,-0.27262 0.67692,-0.005 0.46573,0.14603 -0.50712,0.36364 -0.57968,0.12967 -0.68672,0.10512 -0.39688,-0.091 z m -4.49791,-0.27667 c -0.35278,-0.22798 -0.35278,-0.254 0,-0.23416 0.21828,0.0123 0.69453,0.11765 1.05833,0.23416 l 0.66146,0.21184 -0.66146,0.0223 c -0.3638,0.0123 -0.84005,-0.0931 -1.05833,-0.23417 z m 10.48625,0.057 c -0.14227,-0.23021 2.31938,-2.47196 2.66951,-2.43104 0.11313,0.0132 0.27577,-0.25088 0.36141,-0.58689 0.0856,-0.33601 0.29965,-0.57928 0.47558,-0.54059 0.17593,0.0387 0.29448,-0.0804 0.26344,-0.26459 -0.031,-0.1842 0.32041,-1.10882 0.78099,-2.0547 0.46057,-0.94589 0.83749,-1.87565 0.83761,-2.06614 1.1e-4,-0.19049 0.0977,-0.28607 0.21692,-0.21241 0.11919,0.0737 0.16272,-0.23388 0.0967,-0.68343 -0.0829,-0.56496 -0.0273,-0.76008 0.18017,-0.63187 0.37298,0.23052 0.39998,2.00635 0.0305,2.00635 -0.16006,0 -0.19869,0.29566 -0.0951,0.7276 0.096,0.40018 0.0777,0.63755 -0.0407,0.52748 -0.11841,-0.11006 -0.60432,0.49019 -1.07979,1.33391 -1.37129,2.43331 -4.31711,5.49142 -4.69727,4.87632 z m 2.0981,-1.71063 0.77711,-0.85989 -0.8599,0.7771 c -0.80155,0.72437 -0.98151,0.94269 -0.77711,0.94269 0.0455,0 0.43249,-0.38695 0.8599,-0.8599 z m 18.90106,1.65365 c 0,-0.31054 0.20337,-0.31054 0.92605,0 0.4689,0.2015 0.44631,0.22951 -0.19844,0.24599 -0.40018,0.0102 -0.72761,-0.10047 -0.72761,-0.24599 z m 4.96094,0.0893 c 0.1819,-0.0734 0.47956,-0.0734 0.66146,0 0.1819,0.0734 0.0331,0.13346 -0.33073,0.13346 -0.3638,0 -0.51263,-0.0601 -0.33073,-0.13346 z m 5.55222,0.0111 c -0.0853,-0.13801 0.61773,-0.93145 1.56227,-1.76321 0.94455,-0.83175 1.64197,-1.51228 1.54982,-1.51228 -0.0921,0 0.0648,-0.32742 0.34867,-0.7276 0.77733,-1.09568 1.87086,-3.47241 2.05895,-4.47506 0.24011,-1.27989 0.60539,-1.34078 0.58824,-0.0981 -0.009,0.6557 -0.11841,0.99598 -0.28667,0.89199 -0.17505,-0.10819 -0.21486,0.10532 -0.11165,0.59894 0.0882,0.42189 0.0964,0.62055 0.0183,0.44146 -0.0782,-0.17909 -0.55991,0.50946 -1.07053,1.53012 -0.51061,1.02065 -1.21481,2.0434 -1.56488,2.27278 -0.35007,0.22938 -0.58166,0.50578 -0.51463,0.61423 0.067,0.10845 -0.17212,0.47337 -0.53144,0.81093 -0.35932,0.33756 -0.65331,0.52683 -0.65331,0.42058 0,-0.10624 -0.27855,0.13067 -0.619,0.52647 -0.34045,0.39581 -0.68879,0.60672 -0.77409,0.46871 z m 1.95601,-1.62184 c 0.32911,-0.41965 0.31975,-0.42901 -0.0999,-0.0999 -0.44072,0.34564 -0.58088,0.56292 -0.36312,0.56292 0.0549,0 0.2633,-0.20836 0.46302,-0.46302 z m -46.26412,1.26048 c 0.25772,-0.16545 0.40051,-0.41096 0.31731,-0.54558 -0.0904,-0.14634 0.088,-0.15624 0.44383,-0.0246 0.63957,0.23658 0.99472,0.83106 0.4965,0.83106 -0.16624,0 -0.21616,-0.1393 -0.11094,-0.30955 0.12941,-0.20939 0.0488,-0.25219 -0.24897,-0.13229 -0.24215,0.0975 -0.64864,0.24578 -0.9033,0.32952 -0.43208,0.1421 -0.43171,0.13217 0.006,-0.14855 z m 31.14912,0.15689 c 0,-0.0572 0.18478,-0.17489 0.41062,-0.26156 0.23546,-0.0903 0.34166,-0.046 0.24897,0.10399 -0.15538,0.25141 -0.65959,0.37185 -0.65959,0.15757 z m -7.70667,-0.62362 c -0.3291,-0.41965 -0.31975,-0.42901 0.0999,-0.0999 0.44073,0.34564 0.58089,0.56292 0.36312,0.56292 -0.0549,0 -0.2633,-0.20836 -0.46302,-0.46302 z m 6.79193,0.21672 c -0.0837,-0.13547 -0.0128,-0.33246 0.15756,-0.43776 0.20765,-0.12834 0.23838,-0.0759 0.0932,0.15897 -0.15857,0.25657 -0.095,0.30377 0.23744,0.1762 0.26969,-0.10348 0.38839,-0.068 0.29238,0.0873 -0.20363,0.32948 -0.58181,0.33687 -0.78058,0.0153 z m 2.23766,-0.0183 c -0.23847,-0.15411 -0.2711,-0.2581 -0.0818,-0.26053 0.17331,-0.002 0.38869,0.11501 0.47863,0.26053 0.20302,0.32849 0.11142,0.32849 -0.39687,0 z m 8.58338,-0.11769 c 0.28247,-0.22631 0.62974,-0.41147 0.7717,-0.41147 0.33617,0 0.18606,0.12221 -0.62383,0.50792 -0.6237,0.29703 -0.63214,0.29153 -0.14787,-0.0965 z m -46.29896,-1.00007 c -0.57523,-0.61476 -0.79809,-0.91216 -0.49524,-0.66088 0.30285,0.25129 0.63027,0.39709 0.7276,0.32401 0.0973,-0.0731 0.11635,-0.0524 0.0423,0.0459 -0.0741,0.0983 0.12525,0.45553 0.44299,0.79375 0.31774,0.33822 0.52159,0.61494 0.45299,0.61494 -0.0686,0 -0.59536,-0.50299 -1.1706,-1.11776 z m 16.51547,0.0397 c 0.8879,-0.59291 2.16826,-1.69424 2.84524,-2.44739 0.67697,-0.75315 0.98608,-1.01218 0.6869,-0.57562 -0.98859,1.44256 -4.17355,4.10104 -4.91319,4.10104 -0.12832,0 0.49315,-0.48511 1.38105,-1.07803 z m 14.96995,-0.0339 c -0.57524,-0.61157 -0.85634,-0.96979 -0.62467,-0.79605 0.23167,0.17375 0.48045,0.25667 0.55284,0.18428 0.18243,-0.18243 1.10274,0.86971 1.1717,1.33953 0.077,0.52498 0.0808,0.52744 -1.09987,-0.72776 z m 0.93849,0.49149 c 0,-0.0502 -0.26789,-0.3181 -0.59531,-0.59531 l -0.59531,-0.50403 0.50402,0.59531 c 0.47367,0.55945 0.6866,0.71577 0.6866,0.50403 z m -30.03649,-0.27746 c -0.26461,-0.19349 -0.51072,-0.55351 -0.5469,-0.80004 -0.0524,-0.3574 0.01,-0.38555 0.30693,-0.13892 0.20499,0.17013 0.29497,0.43514 0.19994,0.5889 -0.10697,0.17308 -0.008,0.21645 0.25902,0.11387 0.23749,-0.0911 0.49709,-0.0601 0.57688,0.069 0.25606,0.41431 -0.29856,0.53078 -0.79587,0.16715 z m 2.12482,0.10719 c -0.0927,-0.14998 0.0135,-0.19433 0.24897,-0.10398 0.45837,0.17589 0.54223,0.36554 0.16165,0.36554 -0.13693,0 -0.32171,-0.1177 -0.41062,-0.26156 z m 29.27328,-0.16446 c -0.54177,-0.37946 -0.55689,-1.08487 -0.0161,-0.75064 0.13784,0.0852 0.16961,0.28596 0.0706,0.44615 -0.11513,0.18628 -0.0244,0.23154 0.25179,0.12557 0.2375,-0.0911 0.49709,-0.0601 0.57689,0.069 0.2732,0.44206 -0.30606,0.51413 -0.88319,0.10988 z m 14.3811,-0.14829 c 0.43656,-0.33576 1.44341,-1.26663 2.23745,-2.0686 1.35188,-1.36538 1.38356,-1.3824 0.49822,-0.26751 -0.52002,0.65484 -1.52687,1.58572 -2.23746,2.0686 -0.71058,0.48289 -0.93477,0.60327 -0.49821,0.26751 z m -9.90099,-0.1092 c 0.0127,-0.30822 0.0754,-0.37092 0.15985,-0.15985 0.0764,0.19099 0.067,0.4192 -0.0209,0.50712 -0.0879,0.0879 -0.15045,-0.0684 -0.13897,-0.34727 z m -42.35422,-0.90399 c -0.15576,-0.29105 -0.22367,-0.52917 -0.15091,-0.52917 0.0728,0 0.25973,0.23812 0.41549,0.52917 0.15576,0.29104 0.22367,0.52916 0.15091,0.52916 -0.0728,0 -0.25973,-0.23812 -0.41549,-0.52916 z m 6.76245,0.12387 c -0.28247,-0.21365 -0.38635,-0.38846 -0.23083,-0.38846 0.15551,0 0.43097,0.1786 0.61213,0.39688 0.41201,0.49644 0.2824,0.49358 -0.3813,-0.008 z m -2.51019,-0.7658 c -0.47226,-0.48726 -0.74812,-0.95424 -0.61301,-1.03774 0.13511,-0.0835 0.63205,0.24684 1.10432,0.73409 0.47227,0.48726 0.74812,0.95424 0.61301,1.03775 -0.1351,0.0835 -0.63205,-0.24685 -1.10432,-0.7341 z m 1.03941,0.55914 c 0,-0.0455 -0.38696,-0.43249 -0.8599,-0.8599 l -0.85989,-0.77711 0.7771,0.8599 c 0.72437,0.80154 0.94269,0.98151 0.94269,0.77711 z m 30.4171,-0.58897 c -0.48817,-0.50366 -0.77492,-0.91936 -0.63724,-0.92379 0.13769,-0.004 0.0435,-0.12859 -0.20943,-0.27591 -0.67488,-0.39319 -1.06906,-1.22681 -0.69069,-1.46066 0.18996,-0.1174 0.23452,-0.0733 0.1174,0.11624 -0.10384,0.168 -0.0627,0.30546 0.0914,0.30546 0.15411,0 0.25222,0.0893 0.21802,0.19844 -0.0342,0.10914 0.52019,0.74546 1.23197,1.41404 0.71179,0.66858 1.17535,1.28902 1.03015,1.37876 -0.14521,0.0897 -0.66342,-0.24892 -1.15159,-0.75258 z m 1.06831,0.58897 c 0,-0.0455 -0.38695,-0.43249 -0.85989,-0.8599 l -0.8599,-0.77711 0.77711,0.8599 c 0.72437,0.80154 0.94268,0.98151 0.94268,0.77711 z m -33.20787,-0.18611 c -0.0914,-0.1479 -0.26354,-0.20874 -0.38251,-0.13521 -0.11898,0.0735 -0.37864,-0.0734 -0.57703,-0.32641 -0.31864,-0.40644 -0.31158,-0.4218 0.0605,-0.13167 0.23167,0.18063 0.48259,0.26705 0.55761,0.19204 0.075,-0.075 0.28699,0.0451 0.47107,0.26688 0.18408,0.2218 0.2676,0.40327 0.18561,0.40327 -0.082,0 -0.22386,-0.12101 -0.31526,-0.2689 z m 7.7186,0.10138 c 0.22597,-0.0924 0.20885,-0.31503 -0.0645,-0.83901 -0.20466,-0.3923 -0.3681,-0.83233 -0.3632,-0.97785 0.008,-0.22549 1.04616,1.66005 1.04616,1.89933 0,0.0468 -0.20836,0.0756 -0.46302,0.0642 -0.25466,-0.0115 -0.3246,-0.0775 -0.15542,-0.14663 z m 4.85177,-0.0647 c 0,-0.1277 0.19809,-0.39559 0.4402,-0.59531 0.39915,-0.32927 0.41061,-0.30762 0.12298,0.23218 -0.32806,0.61568 -0.56318,0.76728 -0.56318,0.36313 z m -5.87259,-0.31012 c -0.24674,-0.1439 -0.70356,-0.64629 -1.01513,-1.11643 -0.51954,-0.78394 -0.52182,-0.80437 -0.0275,-0.24638 0.29645,0.33464 0.8128,0.83669 1.14743,1.11568 0.65955,0.54987 0.61093,0.66452 -0.10479,0.24713 z m 7.99653,-0.17716 c 0.35981,-0.25019 0.86961,-0.69667 1.13291,-0.99219 0.46457,-0.52141 0.46541,-0.51546 0.0287,0.20105 -0.24753,0.40609 -0.66348,0.85257 -0.92435,0.99218 -0.78254,0.4188 -0.93853,0.2866 -0.23724,-0.20104 z m 15.72254,-0.0951 c -0.067,-0.1085 0.0538,-0.17147 0.26856,-0.13995 0.55288,0.0811 0.75172,0.33721 0.26187,0.33721 -0.22469,0 -0.46338,-0.0888 -0.53043,-0.19726 z m 9.67019,-0.49269 c 0,-0.13693 0.1177,-0.32171 0.26155,-0.41061 0.14999,-0.0927 0.19434,0.0135 0.10399,0.24897 -0.17589,0.45836 -0.36554,0.54223 -0.36554,0.16164 z m -26.70203,-0.43453 c 0.0127,-0.30823 0.0754,-0.37092 0.15985,-0.15986 0.0764,0.191 0.067,0.4192 -0.0209,0.50712 -0.0879,0.0879 -0.15046,-0.0683 -0.13897,-0.34726 z m -12.22547,-0.30868 c -0.32911,-0.41965 -0.31975,-0.42901 0.0999,-0.0999 0.25466,0.19972 0.46302,0.40808 0.46302,0.46302 0,0.21776 -0.21728,0.0776 -0.56292,-0.36312 z m 31.48542,0 c -0.32911,-0.41965 -0.31975,-0.42901 0.0999,-0.0999 0.44073,0.34564 0.58089,0.56292 0.36313,0.56292 -0.0549,0 -0.2633,-0.20836 -0.46302,-0.46302 z m -34.19987,-0.11456 c 0.0764,-0.12364 0.24977,-0.15631 0.38523,-0.0726 0.34618,0.21395 0.3072,0.29738 -0.13893,0.29738 -0.21188,0 -0.32272,-0.10116 -0.2463,-0.2248 z m 0.78986,-0.25929 c -0.41349,-0.59034 -0.29732,-1.26004 0.14231,-0.82041 0.24728,0.24728 0.54388,1.39269 0.36063,1.39269 -0.0562,0 -0.28247,-0.25753 -0.50294,-0.57228 z m 24.45603,0.17541 c 0,-0.14552 0.11541,-0.44318 0.25648,-0.66146 0.14106,-0.21828 0.25648,-0.27781 0.25648,-0.13229 0,0.14552 -0.11542,0.44318 -0.25648,0.66146 -0.14107,0.21828 -0.25648,0.27781 -0.25648,0.13229 z m 16.14526,-0.1765 c -0.008,-0.2426 0.23611,-1.01651 0.54152,-1.7198 0.30542,-0.70328 0.84553,-2.11214 1.20026,-3.13079 0.37044,-1.0638 0.58394,-1.45794 0.50162,-0.92604 -0.17349,1.12098 -2.22389,6.40065 -2.2434,5.77663 z m 15.34015,0.1765 c 0,-0.14552 0.11542,-0.44318 0.25648,-0.66146 0.14107,-0.21828 0.25648,-0.27781 0.25648,-0.13229 0,0.14552 -0.11541,0.44318 -0.25648,0.66146 -0.14106,0.21828 -0.25648,0.27781 -0.25648,0.13229 z m -38.8792,-0.26459 c 0.0275,-0.50118 0.46851,-1.3451 0.48387,-0.92604 0.008,0.21828 -0.10087,0.57547 -0.24194,0.79375 -0.14106,0.21828 -0.24993,0.27782 -0.24193,0.13229 z m -11.49934,-0.53939 c -0.25532,-0.66535 -0.18,-0.83702 0.13191,-0.30066 0.15443,0.26558 0.22505,0.5386 0.15693,0.60673 -0.0681,0.0681 -0.1981,-0.0696 -0.28884,-0.30607 z m 38.06732,-0.65123 c 0.56838,-0.58208 1.09296,-1.05833 1.16572,-1.05833 0.0728,0 -0.33275,0.47625 -0.90114,1.05833 -0.56839,0.58208 -1.09297,1.05833 -1.16573,1.05833 -0.0728,0 0.33276,-0.47625 0.90115,-1.05833 z m -42.95182,-0.40821 c -0.4433,-0.97295 -0.35873,-1.18051 0.12061,-0.296 0.22385,0.41304 0.35748,0.8005 0.29697,0.86101 -0.0605,0.0605 -0.24842,-0.19374 -0.41758,-0.56501 z m 8.95286,0.3792 c -0.33917,-0.24398 -0.33204,-0.26479 0.0491,-0.1431 0.24526,0.0783 0.50375,2.4e-4 0.57442,-0.17348 0.0707,-0.17373 0.1379,-0.10751 0.14939,0.14715 0.0239,0.52927 -0.20338,0.57909 -0.77286,0.16943 z m 4.39831,-0.11351 c -0.25532,-0.66535 -0.18,-0.83702 0.1319,-0.30066 0.15444,0.26558 0.22506,0.5386 0.15693,0.60673 -0.0681,0.0681 -0.19809,-0.0696 -0.28883,-0.30607 z m 39.52252,0.15813 c 0,-0.13693 0.1177,-0.32171 0.26155,-0.41061 0.14999,-0.0927 0.19434,0.0135 0.10399,0.24897 -0.17589,0.45836 -0.36554,0.54223 -0.36554,0.16164 z m -48.33946,-1.86769 c 0,-0.80037 0.0496,-1.12779 0.11022,-0.72761 0.0606,0.40018 0.0606,1.05503 0,1.45521 -0.0606,0.40018 -0.11022,0.0728 -0.11022,-0.7276 z m 24.41168,0.98077 c 0.0994,-0.26093 0.2473,-0.40778 0.32876,-0.32632 0.0815,0.0815 1.7e-4,0.29496 -0.18065,0.47444 -0.26131,0.25936 -0.2917,0.22897 -0.14811,-0.14812 z m 9.27609,-0.065 c -0.0907,-0.23646 -0.15743,-0.56902 -0.1482,-0.73902 0.009,-0.16999 0.13084,-0.0239 0.27026,0.32464 0.13942,0.34855 0.20612,0.68111 0.14821,0.73902 -0.0579,0.0579 -0.17953,-0.0882 -0.27027,-0.32464 z m -28.94318,-0.65123 c 0,-0.50932 0.0545,-0.71768 0.121,-0.46302 0.0665,0.25466 0.0665,0.67138 0,0.92604 -0.0666,0.25466 -0.121,0.0463 -0.121,-0.46302 z m 13.0748,-0.39688 c 0.34788,-1.54382 0.62818,-2.18335 0.46383,-1.05833 -0.085,0.58208 -0.26441,1.23693 -0.39864,1.45521 -0.16334,0.26561 -0.1849,0.13434 -0.0652,-0.39688 z m 6.38728,-0.0473 c 0.0913,-0.47733 0.0382,-0.63454 -0.17051,-0.50554 -0.17806,0.11004 -0.30295,0.0172 -0.30295,-0.22526 0,-0.4643 0.411,-0.55316 0.66413,-0.14359 0.0914,0.14789 0.27702,0.2004 0.41249,0.11668 0.13546,-0.0837 0.2463,-0.0261 0.2463,0.12797 0,0.15411 -0.11907,0.2802 -0.26459,0.2802 -0.14552,0 -0.26458,0.17157 -0.26458,0.38126 0,0.20969 -0.10186,0.44421 -0.22636,0.52116 -0.1245,0.0769 -0.16677,-0.17185 -0.0939,-0.55288 z m 16.06598,-0.18467 c 0.25012,-0.38172 0.50478,-0.69404 0.56592,-0.69404 0.1914,0 -0.42463,1.0197 -0.73006,1.20847 -0.15983,0.0988 -0.086,-0.13271 0.16414,-0.51443 z m -47.49164,-0.71609 c 0.002,-0.49719 0.0994,-1.05416 0.2159,-1.2377 0.12241,-0.19283 0.18985,0.11964 0.15976,0.74018 -0.0642,1.32407 -0.38124,1.74394 -0.37566,0.49752 z m 19.33142,0.39688 c 0.0127,-0.30822 0.0754,-0.37092 0.15985,-0.15985 0.0764,0.19099 0.067,0.4192 -0.0209,0.50712 -0.0879,0.0879 -0.15046,-0.0684 -0.13897,-0.34727 z m 21.16667,0 c 0.0127,-0.30822 0.0754,-0.37092 0.15985,-0.15985 0.0764,0.19099 0.067,0.4192 -0.0209,0.50712 -0.0879,0.0879 -0.15045,-0.0684 -0.13896,-0.34727 z m -41.01042,-0.26458 c 0.0127,-0.30823 0.0754,-0.37092 0.15985,-0.15986 0.0764,0.191 0.067,0.4192 -0.0209,0.50712 -0.0879,0.0879 -0.15046,-0.0684 -0.13897,-0.34726 z m 2.38125,0 c 0.0127,-0.30823 0.0754,-0.37092 0.15985,-0.15986 0.0764,0.191 0.067,0.4192 -0.0209,0.50712 -0.0879,0.0879 -0.15046,-0.0684 -0.13897,-0.34726 z m 31.48542,0 c 0.0127,-0.30823 0.0754,-0.37092 0.15985,-0.15986 0.0764,0.191 0.067,0.4192 -0.0209,0.50712 -0.0879,0.0879 -0.15045,-0.0684 -0.13896,-0.34726 z m 23.28333,0 c 0.0127,-0.30823 0.0754,-0.37092 0.15985,-0.15986 0.0764,0.191 0.067,0.4192 -0.0209,0.50712 -0.0879,0.0879 -0.15045,-0.0684 -0.13897,-0.34726 z m -44.46957,0 c 7.2e-4,-0.1334 0.30822,-0.59973 0.68332,-1.03629 l 0.68201,-0.79375 -0.59764,0.92604 c -0.76662,1.18788 -0.76925,1.19097 -0.76769,0.904 z m 19.31327,-0.88838 c 0,-0.13693 0.11906,-0.32255 0.26458,-0.41249 0.14552,-0.0899 0.26458,0.0221 0.26458,0.24897 0,0.22687 -0.11906,0.41249 -0.26458,0.41249 -0.14552,0 -0.26458,-0.11204 -0.26458,-0.24897 z m 25.44177,-0.2802 c 0,-0.3638 0.0601,-0.51263 0.13346,-0.33073 0.0734,0.1819 0.0734,0.47956 0,0.66146 -0.0734,0.1819 -0.13346,0.0331 -0.13346,-0.33073 z m -55.255,-1.32292 c 0,-0.94588 0.048,-1.33284 0.10671,-0.85989 0.0587,0.47294 0.0587,1.24685 0,1.71979 -0.0587,0.47294 -0.10671,0.086 -0.10671,-0.8599 z m 38.60586,0.79375 c 0,-0.50932 0.0544,-0.71768 0.121,-0.46302 0.0666,0.25466 0.0666,0.67138 0,0.92604 -0.0666,0.25467 -0.121,0.0463 -0.121,-0.46302 z m -32.59703,0.13229 c 0,-0.14552 0.11542,-0.44317 0.25648,-0.66145 0.14106,-0.21828 0.25648,-0.27782 0.25648,-0.1323 0,0.14553 -0.11542,0.44318 -0.25648,0.66146 -0.14106,0.21828 -0.25648,0.27782 -0.25648,0.13229 z m 17.97951,-1.38906 c -0.003,-1.00274 -0.085,-1.39338 -0.24167,-1.14594 -0.16837,0.26601 -0.298,-0.004 -0.4448,-0.92604 -0.11395,-0.7158 -0.17583,-1.46223 -0.13751,-1.65874 0.0383,-0.1965 -0.0462,-0.28563 -0.18793,-0.19807 -0.15184,0.0938 -0.19631,-0.0752 -0.10831,-0.4117 0.0915,-0.34991 0.0455,-0.50677 -0.11874,-0.40524 -0.16427,0.10152 -0.21968,-0.0873 -0.14313,-0.4878 0.0687,-0.35939 0.15964,-0.65345 0.20207,-0.65345 0.0424,0 0.33045,0.74414 0.64002,1.65365 0.54591,1.60388 1.06204,5.75469 0.71556,5.75469 -0.0943,0 -0.17333,-0.68461 -0.17556,-1.52136 z m 1.66362,0.46302 c 0,-0.65484 0.0516,-0.92273 0.11466,-0.59531 0.0631,0.32742 0.0631,0.8632 0,1.19063 -0.0631,0.32742 -0.11466,0.0595 -0.11466,-0.59532 z m -13.8304,0.42928 c 0,-0.0549 0.20836,-0.26331 0.46302,-0.46303 0.41965,-0.3291 0.429,-0.31974 0.0999,0.0999 -0.34565,0.44073 -0.56292,0.58089 -0.56292,0.36313 z m -4.94589,-1.37459 c 0.2272,-0.44716 0.61396,-0.97973 0.85948,-1.1835 0.24552,-0.20376 0.12749,0.0995 -0.26229,0.67383 -0.92097,1.35713 -1.10952,1.51805 -0.59719,0.50967 z m 36.47308,0.15156 c 0,-0.3638 0.0601,-0.51263 0.13346,-0.33073 0.0734,0.18191 0.0734,0.47956 0,0.66146 -0.0734,0.1819 -0.13346,0.0331 -0.13346,-0.33073 z m 12.17084,0 c 0,-0.3638 0.06,-0.51263 0.13345,-0.33073 0.0734,0.18191 0.0734,0.47956 0,0.66146 -0.0734,0.1819 -0.13345,0.0331 -0.13345,-0.33073 z m -8.24386,-0.13229 c 0,-0.21828 0.0468,-0.39687 0.10398,-0.39687 0.0572,0 0.17252,0.17859 0.25628,0.39687 0.0838,0.21828 0.037,0.39688 -0.10398,0.39688 -0.14096,0 -0.25628,-0.1786 -0.25628,-0.39688 z m -8.02993,-0.25611 c -0.082,-0.21362 -0.0352,-0.45877 0.10398,-0.54478 0.13917,-0.086 0.25303,0.0888 0.25303,0.3884 0,0.63886 -0.14714,0.70331 -0.35701,0.15638 z m -43.54294,-0.2951 c 0.0127,-0.30823 0.0754,-0.37092 0.15986,-0.15986 0.0764,0.191 0.067,0.4192 -0.0209,0.50712 -0.0879,0.0879 -0.15045,-0.0684 -0.13897,-0.34726 z m 31.48542,0 c 0.0127,-0.30823 0.0754,-0.37092 0.15985,-0.15986 0.0764,0.191 0.067,0.4192 -0.0209,0.50712 -0.0879,0.0879 -0.15046,-0.0684 -0.13897,-0.34726 z m 4.23334,0 c 0.0127,-0.30823 0.0754,-0.37092 0.15985,-0.15986 0.0764,0.191 0.067,0.4192 -0.0209,0.50712 -0.0879,0.0879 -0.15045,-0.0684 -0.13896,-0.34726 z m -15.73092,-0.25277 c -0.25531,-0.66534 -0.17999,-0.83702 0.13191,-0.30065 0.15443,0.26557 0.22505,0.5386 0.15693,0.60672 -0.0681,0.0681 -0.1981,-0.0696 -0.28884,-0.30607 z m -17.87117,-0.2764 c 0.0127,-0.30822 0.0754,-0.37092 0.15985,-0.15985 0.0764,0.19099 0.067,0.4192 -0.0209,0.50712 -0.0879,0.0879 -0.15046,-0.0684 -0.13897,-0.34727 z m 57.08719,-0.0441 c -0.023,-0.25466 -0.0244,-0.67138 -0.003,-0.92604 0.0214,-0.25466 -0.0677,-0.46302 -0.19789,-0.46302 -0.13018,0 -0.16955,-0.25674 -0.0875,-0.57054 0.0821,-0.3138 0.0412,-0.5041 -0.0909,-0.42288 -0.13206,0.0812 -0.25315,-0.20492 -0.26909,-0.63583 -0.0419,-1.13448 0.38498,-0.55704 0.83315,1.12688 0.44938,1.68845 0.48385,2.35445 0.12187,2.35445 -0.14552,0 -0.28345,-0.20836 -0.30651,-0.46302 z m -29.57052,-0.22048 c 0.0127,-0.30823 0.0754,-0.37092 0.15985,-0.15986 0.0764,0.191 0.067,0.4192 -0.0209,0.50712 -0.0879,0.0879 -0.15045,-0.0684 -0.13896,-0.34726 z m 31.48542,0 c 0.0127,-0.30823 0.0754,-0.37092 0.15985,-0.15986 0.0764,0.191 0.067,0.4192 -0.0209,0.50712 -0.0879,0.0879 -0.15045,-0.0684 -0.13896,-0.34726 z m -58.18745,-0.37483 c 0,-0.3638 0.06,-0.51263 0.13345,-0.33073 0.0734,0.1819 0.0734,0.47956 0,0.66146 -0.0734,0.1819 -0.13345,0.0331 -0.13345,-0.33073 z m 1.5875,0 c 0,-0.3638 0.06,-0.51263 0.13345,-0.33073 0.0734,0.1819 0.0734,0.47956 0,0.66146 -0.0734,0.1819 -0.13345,0.0331 -0.13345,-0.33073 z m 29.87703,-0.15434 c 0.0127,-0.30822 0.0754,-0.37092 0.15985,-0.15985 0.0764,0.19099 0.067,0.4192 -0.0209,0.50712 -0.0879,0.0879 -0.15045,-0.0684 -0.13896,-0.34727 z m 1.5875,0 c 0.0127,-0.30822 0.0754,-0.37092 0.15985,-0.15985 0.0764,0.19099 0.067,0.4192 -0.0209,0.50712 -0.0879,0.0879 -0.15045,-0.0684 -0.13896,-0.34727 z m 15.61042,-0.26458 c 0.0127,-0.30823 0.0754,-0.37092 0.15985,-0.15986 0.0764,0.191 0.067,0.4192 -0.0209,0.50712 -0.0879,0.0879 -0.15045,-0.0684 -0.13896,-0.34726 z m -38.91464,0.0544 c 0,-0.0549 0.20836,-0.2633 0.46302,-0.46302 0.41964,-0.32911 0.429,-0.31975 0.0999,0.0999 -0.34564,0.44072 -0.56291,0.58088 -0.56291,0.36312 z m -7.9375,-0.52596 c 0,-0.31458 0.75903,-2.01998 0.89904,-2.01998 0.0728,0 -0.0527,0.44649 -0.27889,0.99219 -0.42452,1.02438 -0.62015,1.3486 -0.62015,1.02779 z m 31.49352,-0.0356 c 0,-0.14552 0.11541,-0.44318 0.25648,-0.66146 0.14106,-0.21828 0.25648,-0.27781 0.25648,-0.13229 0,0.14552 -0.11542,0.44318 -0.25648,0.66146 -0.14107,0.21828 -0.25648,0.27781 -0.25648,0.13229 z m -7.25146,-1.06856 c -0.25532,-0.66535 -0.18,-0.83703 0.1319,-0.30066 0.15444,0.26558 0.22506,0.5386 0.15693,0.60672 -0.0681,0.0681 -0.1981,-0.0696 -0.28883,-0.30606 z m -27.94623,0.0412 c 0,-0.28394 0.78724,-1.75075 0.93963,-1.75075 0.0728,0 -0.0645,0.38696 -0.30503,0.8599 -0.49112,0.9657 -0.6346,1.16711 -0.6346,0.89085 z m 18.93472,-0.50539 c 0.0994,-0.26093 0.2473,-0.40778 0.32877,-0.32632 0.0815,0.0815 1.6e-4,0.29496 -0.18066,0.47444 -0.2613,0.25936 -0.2917,0.22897 -0.14811,-0.14812 z m 16.78403,0.17223 c 0,-0.14196 0.18516,-0.48923 0.41147,-0.7717 0.38798,-0.48427 0.39349,-0.47583 0.0965,0.14786 -0.38571,0.8099 -0.50792,0.96 -0.50792,0.62384 z m -3.39932,-1.43265 c 0.3318,-0.59037 0.7647,-1.20737 0.96199,-1.3711 0.19729,-0.16374 -0.0248,0.31929 -0.49361,1.07339 -1.01099,1.62634 -1.32857,1.8282 -0.46838,0.29771 z m -29.93818,0.27965 c 0.15576,-0.29105 0.34273,-0.52917 0.41549,-0.52917 0.0728,0 0.005,0.23812 -0.15091,0.52917 -0.15576,0.29104 -0.34273,0.52916 -0.41549,0.52916 -0.0728,0 -0.005,-0.23812 0.15091,-0.52916 z m 25.02014,0.0775 c -0.14359,-0.37708 -0.1132,-0.40747 0.14811,-0.14811 0.18082,0.17948 0.26211,0.39297 0.18065,0.47443 -0.0815,0.0815 -0.22941,-0.0654 -0.32876,-0.32632 z m 22.24067,0.0445 c -0.25532,-0.66535 -0.18,-0.83702 0.1319,-0.30066 0.15444,0.26558 0.22506,0.53861 0.15694,0.60673 -0.0681,0.0681 -0.1981,-0.0696 -0.28884,-0.30607 z m -44.4359,-0.58722 c 0.25669,-0.47412 1.00167,-1.36709 1.65551,-1.98438 l 1.1888,-1.12234 -1.18175,1.32292 c -0.64996,0.7276 -1.39494,1.62057 -1.65551,1.98437 -0.45764,0.63895 -0.45788,0.63212 -0.007,-0.20057 z m 11.21889,-0.21835 c 0.0127,-0.30822 0.0754,-0.37092 0.15986,-0.15985 0.0764,0.19099 0.067,0.4192 -0.0209,0.50712 -0.0879,0.0879 -0.15045,-0.0684 -0.13897,-0.34727 z m 20.08745,0.31903 c 0,-0.0549 0.20836,-0.2633 0.46302,-0.46302 0.41965,-0.32911 0.429,-0.31975 0.0999,0.0999 -0.34565,0.44073 -0.56292,0.58089 -0.56292,0.36313 z m 9.78958,-0.56157 c 0.34178,-0.3638 0.68094,-0.66145 0.7537,-0.66145 0.0728,0 -0.14734,0.29765 -0.48911,0.66145 -0.34178,0.36381 -0.68094,0.66146 -0.7537,0.66146 -0.0728,0 0.14734,-0.29765 0.48911,-0.66146 z m -43.27376,0.10902 c -0.13673,-0.22124 -0.0892,-0.2548 0.15076,-0.10649 0.2572,0.15895 0.30365,0.0947 0.17459,-0.24164 -0.12861,-0.33517 0.31433,-0.95918 1.64941,-2.32369 1.00389,-1.02601 1.94327,-1.79253 2.08753,-1.70337 0.14425,0.0892 0.33247,-0.0208 0.41826,-0.24439 0.0858,-0.22357 0.66381,-0.64771 1.28449,-0.94254 0.9379,-0.4455 0.99444,-0.51004 0.33477,-0.38211 -0.65536,0.1271 -0.71022,0.10332 -0.31466,-0.13642 0.2635,-0.15969 0.6707,-0.21683 0.90488,-0.12696 0.23419,0.0899 0.50131,0.0412 0.5936,-0.10811 0.0923,-0.14933 0.75666,-0.32793 1.47636,-0.39688 1.0146,-0.0972 1.13025,-0.075 0.51482,0.0989 -0.75494,0.21335 -0.76141,0.2267 -0.1323,0.27303 0.45663,0.0336 0.23251,0.16424 -0.72375,0.42178 -1.6742,0.45088 -3.67915,1.44037 -4.75806,2.34821 -0.43711,0.3678 -0.8708,0.59268 -0.96376,0.49972 -0.093,-0.093 -0.16901,-0.0567 -0.16901,0.0806 0,0.18932 -1.75296,2.70677 -2.24883,3.22958 -0.0437,0.0461 -0.16928,-0.0616 -0.2791,-0.23932 z m 3.35543,-3.61474 c 0.32911,-0.41965 0.31975,-0.42901 -0.0999,-0.0999 -0.44072,0.34564 -0.58088,0.56292 -0.36312,0.56292 0.0549,0 0.2633,-0.20836 0.46302,-0.46302 z m 7.66005,3.48368 c 0.0127,-0.30823 0.0754,-0.37092 0.15986,-0.15986 0.0764,0.191 0.067,0.4192 -0.0209,0.50712 -0.0879,0.0879 -0.15045,-0.0684 -0.13897,-0.34726 z m 20.24966,0.10592 c 0.0764,-0.12364 0.24977,-0.1563 0.38524,-0.0726 0.34618,0.21395 0.3072,0.29739 -0.13894,0.29739 -0.21188,0 -0.32271,-0.10117 -0.2463,-0.22481 z m -10.2364,-0.67919 -0.64143,-0.7276 0.7276,0.64143 c 0.68006,0.59952 0.84894,0.81378 0.64143,0.81378 -0.0474,0 -0.37481,-0.32743 -0.7276,-0.72761 z m 0.94794,0.20147 c -0.0927,-0.14998 0.0135,-0.19434 0.24897,-0.10398 0.45837,0.17589 0.54223,0.36553 0.16165,0.36553 -0.13694,0 -0.32172,-0.1177 -0.41062,-0.26155 z m 9.79955,0.0161 c -0.18556,-0.30024 2.73676,-3.50822 3.03046,-3.3267 0.11525,0.0712 0.27322,-0.0365 0.35105,-0.23927 0.0778,-0.20282 0.74844,-0.6991 1.49023,-1.10284 0.95137,-0.5178 1.24914,-0.80082 1.0107,-0.96066 -0.19992,-0.13401 -0.0246,-0.15349 0.42904,-0.0477 0.57839,0.13491 0.71667,0.0974 0.56217,-0.1526 -0.15006,-0.24282 -0.0544,-0.28377 0.35742,-0.15305 0.30926,0.0982 0.5623,0.0707 0.5623,-0.0611 0,-0.13175 0.44648,-0.24913 0.99218,-0.26086 0.77145,-0.0166 0.87446,0.0286 0.46303,0.20312 -0.29105,0.12344 -0.41011,0.24064 -0.26459,0.26044 0.14552,0.0198 -0.36041,0.20431 -1.1243,0.41 -0.76389,0.2057 -1.89498,0.63219 -2.51354,0.94776 -0.61856,0.31556 -1.16087,0.55092 -1.20514,0.52302 -0.0443,-0.0279 -0.30819,0.22239 -0.58651,0.55619 -0.27831,0.33381 -0.50999,0.50395 -0.51483,0.37809 -0.005,-0.12586 -0.55917,0.43969 -1.23183,1.25677 -0.67267,0.81708 -1.33454,1.48561 -1.47083,1.48561 -0.13628,0 -0.17421,0.11906 -0.0843,0.26458 0.0899,0.14552 0.10399,0.26458 0.0312,0.26458 -0.0728,0 -0.20055,-0.11044 -0.28397,-0.24542 z m -32.72568,-0.74676 c 0.33165,-0.47295 0.65861,-0.8599 0.72658,-0.8599 0.22868,0 -0.39091,0.96603 -0.86244,1.34468 -0.33143,0.26615 -0.29197,0.12532 0.13586,-0.48478 z m 23.60322,-0.40165 c -0.75352,-0.92867 -0.78323,-1.00685 -0.17414,-0.45825 0.63297,0.57011 1.3844,1.59703 1.15813,1.58273 -0.0415,-0.003 -0.48429,-0.50864 -0.98399,-1.12448 z m 12.5502,0.0709 c 0.56839,-0.58209 1.09297,-1.05834 1.16573,-1.05834 0.0728,0 -0.33276,0.47625 -0.90114,1.05834 -0.56839,0.58208 -1.09297,1.05833 -1.16573,1.05833 -0.0728,0 0.33275,-0.47625 0.90114,-1.05833 z m 16.52222,0.0661 -0.9118,-0.99219 0.99219,0.9118 c 0.5457,0.50149 0.99218,0.94798 0.99218,0.99219 0,0.20204 -0.22389,0.0117 -1.07257,-0.9118 z m 1.15855,0.0968 c -0.67324,-1.03979 -2.37235,-2.48329 -4.05512,-3.44508 -1.3153,-0.75176 -1.257,-0.93726 0.0797,-0.25351 1.24786,0.63831 3.28876,2.3145 4.17322,3.42745 0.82424,1.03716 0.88923,1.16838 0.57614,1.16321 -0.10914,-0.002 -0.4574,-0.40323 -0.77392,-0.89207 z m 1.50071,0.0354 c -0.38954,-0.5321 -0.45343,-0.7169 -0.16761,-0.48478 0.43386,0.35235 1.08988,1.34468 0.88895,1.34468 -0.0505,0 -0.37512,-0.38695 -0.72134,-0.8599 z m -33.01919,0.0132 c -0.17462,-0.17462 -0.32046,-0.44251 -0.32409,-0.59531 -0.0196,-0.82781 -5.61088,-4.11427 -6.99961,-4.11427 -0.22117,0 -0.40213,-0.11906 -0.40213,-0.26458 0,-0.35481 1.2454,-0.33949 1.46636,0.018 0.0961,0.15544 0.34122,0.21871 0.54478,0.1406 0.20356,-0.0781 0.37011,-0.0337 0.37011,0.0987 0,0.13242 0.68461,0.60624 1.52135,1.05294 1.61298,0.86108 4.15618,2.88994 3.9194,3.12672 -0.0775,0.0775 0.0657,0.29767 0.31805,0.48933 0.2524,0.19166 0.33389,0.35226 0.1811,0.35689 -0.1528,0.005 -0.42069,-0.13446 -0.59532,-0.30909 z m 10.00125,-0.83774 c 0.50933,-0.5541 1.28323,-1.25449 1.7198,-1.55642 0.93173,-0.64441 0.7647,-0.4661 -1.19063,1.27104 -1.16255,1.03282 -1.26897,1.09022 -0.52917,0.28538 z m -11.92627,-0.10153 -0.64143,-0.7276 0.7276,0.64143 c 0.40018,0.35279 0.7276,0.68021 0.7276,0.72761 0,0.2075 -0.21426,0.0386 -0.81377,-0.64144 z m -8.8544,-0.34833 c -0.0959,-0.1552 -0.11765,-0.33893 -0.0483,-0.40829 0.0694,-0.0693 0.1966,0.0576 0.28278,0.28219 0.1789,0.46622 0.0264,0.54823 -0.23448,0.1261 z m 39.53234,-0.18083 c -0.32911,-0.41965 -0.31975,-0.42901 0.0999,-0.0999 0.44073,0.34564 0.58088,0.56292 0.36312,0.56292 -0.0549,0 -0.2633,-0.20836 -0.46302,-0.46302 z m -29.22785,-0.66146 -0.50402,-0.59532 0.59531,0.50403 c 0.55944,0.47366 0.71576,0.6866 0.50403,0.6866 -0.0502,0 -0.3181,-0.26789 -0.59532,-0.59531 z m 31.6091,0.13229 c -0.32911,-0.41964 -0.31975,-0.429 0.0999,-0.0999 0.25466,0.19972 0.46302,0.40808 0.46302,0.46303 0,0.21776 -0.21728,0.0776 -0.56292,-0.36313 z m -51.29542,-0.003 c 0,-0.11052 0.26789,-0.36551 0.59532,-0.56665 0.59319,-0.36441 0.59352,-0.36369 0.0913,0.20094 -0.53924,0.60624 -0.6866,0.68472 -0.6866,0.36571 z m 36.97111,-0.36106 c 0.17948,-0.18082 0.39297,-0.26212 0.47444,-0.18065 0.0815,0.0815 -0.0654,0.2294 -0.32632,0.32876 -0.37709,0.14359 -0.40748,0.1132 -0.14812,-0.14811 z m -18.71486,-0.78456 c -0.56985,-0.46611 -0.58105,-0.50174 -0.0809,-0.25728 0.31932,0.15607 0.65377,0.40219 0.74322,0.54693 0.23881,0.38639 0.0784,0.31626 -0.66234,-0.28965 z m -16.93333,0.18235 c 0,-0.19772 2.38523,-1.56584 2.51088,-1.44019 0.0582,0.0582 -0.48301,0.43667 -1.20258,0.84116 -0.71956,0.40448 -1.3083,0.67405 -1.3083,0.59903 z m 6.56497,-0.33945 c 0.191,-0.0764 0.4192,-0.067 0.50712,0.0209 0.0879,0.0879 -0.0684,0.15045 -0.34726,0.13896 -0.30823,-0.0127 -0.37092,-0.0754 -0.15986,-0.15985 z m 5.55625,0 c 0.191,-0.0764 0.4192,-0.067 0.50712,0.0209 0.0879,0.0879 -0.0683,0.15045 -0.34726,0.13896 -0.30823,-0.0127 -0.37092,-0.0754 -0.15986,-0.15985 z m 31.22084,0 c 0.19099,-0.0764 0.4192,-0.067 0.50712,0.0209 0.0879,0.0879 -0.0684,0.15045 -0.34727,0.13896 -0.30823,-0.0127 -0.37092,-0.0754 -0.15985,-0.15985 z m -34.80925,-0.27658 c 0.54571,-0.0571 1.43867,-0.0571 1.98438,0 0.5457,0.0571 0.0992,0.10378 -0.99219,0.10378 -1.09141,0 -1.53789,-0.0467 -0.99219,-0.10378 z m 23.74636,0.063 c 0,-0.18105 1.62002,-0.98423 1.74105,-0.86319 0.0574,0.0574 -0.31084,0.30238 -0.81833,0.54439 -0.5075,0.24201 -0.92272,0.38547 -0.92272,0.3188 z m 7.87135,-0.0616 c 0.47294,-0.0587 1.24685,-0.0587 1.71979,0 0.47295,0.0587 0.086,0.10671 -0.85989,0.10671 -0.94589,0 -1.33284,-0.048 -0.8599,-0.10671 z m 3.72582,-0.96082 c -0.53379,-0.16665 -1.05326,-0.3859 -1.15438,-0.48724 -0.27171,-0.27229 1.01268,-0.15964 1.38572,0.12154 0.17553,0.13231 0.44342,0.16375 0.59532,0.0699 0.15189,-0.0939 0.27617,0.0149 0.27617,0.24181 0,0.22687 -0.0298,0.4 -0.0661,0.38474 -0.0364,-0.0153 -0.50288,-0.16408 -1.03668,-0.33072 z m -35.60308,-0.61864 c 0.25744,-0.0671 0.61462,-0.0627 0.79375,0.01 0.17914,0.0725 -0.0315,0.12736 -0.46805,0.12197 -0.43656,-0.005 -0.58313,-0.0647 -0.3257,-0.13178 z m 31.48039,9.7e-4 c 0.25466,-0.0666 0.67138,-0.0666 0.92604,0 0.25466,0.0666 0.0463,0.121 -0.46302,0.121 -0.50933,0 -0.71769,-0.0544 -0.46302,-0.121 z"
         id="path1727" />
      <path
         style="fill:#000000;stroke-width:0.264583"
         d="m 382.11504,798.90938 c 0,-0.14552 0.23813,-0.26458 0.52917,-0.26458 0.29104,0 0.52916,0.11906 0.52916,0.26458 0,0.14552 -0.23812,0.26459 -0.52916,0.26459 -0.29104,0 -0.52917,-0.11907 -0.52917,-0.26459 z m -2.24896,-0.97005 c -0.48321,-0.38723 -0.48604,-0.40908 -0.0326,-0.2516 0.27311,0.0949 0.66006,0.0367 0.8599,-0.1291 0.26594,-0.22071 0.36334,-0.22193 0.36334,-0.005 0,0.16334 0.17859,0.29698 0.39687,0.29698 0.21828,0 0.39688,0.11906 0.39688,0.26458 0,0.41677 -1.39945,0.29244 -1.98438,-0.1763 z m -0.75212,-0.94818 c 0.067,-0.10914 -0.1431,-0.19843 -0.46699,-0.19843 -1.11394,0 -0.3104,-0.27692 1.09445,-0.37718 1.60038,-0.1142 2.10904,0.0135 2.10904,0.52947 0,0.21092 -0.1639,0.29737 -0.39536,0.20855 -0.21744,-0.0834 -0.3224,-0.26974 -0.23325,-0.414 0.092,-0.14894 -0.0515,-0.21593 -0.33225,-0.155 -0.27189,0.059 -0.47038,0.23167 -0.44108,0.38368 0.0293,0.15202 -0.28642,0.26401 -0.7016,0.24887 -0.41517,-0.0151 -0.70001,-0.11682 -0.63296,-0.22596 z m -1.72852,-1.08483 c -0.22255,-0.26815 -0.18737,-0.57594 0.14104,-1.23425 0.42354,-0.84901 0.41854,-0.89238 -0.15639,-1.35793 -0.32665,-0.2645 -0.54661,-0.62278 -0.48882,-0.79616 0.0578,-0.17339 0.37906,0.0695 0.71392,0.53976 0.33485,0.47027 0.53734,0.92651 0.44997,1.01389 -0.0874,0.0874 -0.0263,0.31864 0.13582,0.51393 0.21676,0.26117 0.21615,0.35507 -0.002,0.35507 -0.16334,0 -0.29698,0.1318 -0.29698,0.29289 0,0.16109 0.17478,0.22583 0.3884,0.14385 0.60438,-0.23192 0.74821,0.29651 0.16557,0.60832 -0.65923,0.35281 -0.69372,0.3502 -1.05023,-0.0794 z m -0.78487,-1.23027 c 0,-0.3638 0.06,-0.51263 0.13345,-0.33073 0.0734,0.1819 0.0734,0.47956 0,0.66146 -0.0734,0.1819 -0.13345,0.0331 -0.13345,-0.33073 z m -0.44849,-0.71761 c 0.0943,-0.32193 0.0504,-0.81149 -0.0976,-1.08793 -0.30152,-0.5634 0.28828,-1.67364 0.68065,-1.28127 0.12081,0.12081 0.0166,0.36813 -0.23156,0.54959 -0.41106,0.30058 -0.41405,0.36711 -0.0335,0.7476 0.38049,0.3805 0.3773,0.47282 -0.0359,1.0375 -0.44563,0.609 -0.45056,0.60961 -0.2821,0.0345 z m -1.26696,-1.61886 c -0.86951,-1.8024 -0.98863,-2.16145 -0.7171,-2.16145 0.13114,0 0.32332,0.26744 0.42707,0.5943 0.10374,0.32686 0.34536,0.71382 0.53693,0.8599 0.33791,0.25767 0.77749,1.98539 0.50513,1.98539 -0.0745,0 -0.41291,-0.57516 -0.75203,-1.27814 z m 0.50499,-1.59677 c -0.11397,-0.18442 -0.13577,-0.40675 -0.0484,-0.49409 0.23679,-0.23679 0.49497,0.11147 0.36708,0.49516 -0.0896,0.26886 -0.15194,0.26865 -0.31864,-10e-4 z m 4.74056,-3.73968 c -0.0899,-0.14552 0.0291,-0.26458 0.26458,-0.26458 0.23546,0 0.35452,0.11906 0.26458,0.26458 -0.0899,0.14552 -0.209,0.26459 -0.26458,0.26459 -0.0556,0 -0.17465,-0.11907 -0.26458,-0.26459 z m 0.92604,-0.52916 c -0.36611,-0.28638 -0.50289,-0.52003 -0.30632,-0.52329 0.19533,-0.003 0.65787,0.23224 1.02787,0.52329 0.37868,0.29786 0.51257,0.52659 0.30632,0.52328 -0.20153,-0.003 -0.66407,-0.23871 -1.02787,-0.52328 z m -2.62185,-0.8765 c -0.69052,-1.42642 -0.69584,-2.19352 -0.0229,-3.29729 0.58792,-0.96425 1.43321,-1.38246 2.79425,-1.38246 0.86847,0 1.27189,-0.53813 0.67841,-0.90492 -0.39468,-0.24393 -0.55752,-1.67975 -0.27849,-2.45549 0.84528,-2.35001 4.47833,-2.39483 5.35733,-0.0661 0.28115,0.74484 0.70782,1.06318 0.70782,0.52809 0,-0.37602 1.22872,-1.53396 1.83036,-1.72492 0.63884,-0.20276 2.02236,0.47254 2.39513,1.16908 0.14984,0.27997 0.27243,0.81451 0.27243,1.18788 0,0.79707 0.0728,0.81673 0.93418,0.25232 0.91854,-0.60185 2.32849,-0.30448 2.72952,0.57567 0.46,1.0096 0.37531,1.487 -0.43117,2.43055 -0.63423,0.74201 -0.90404,0.8599 -1.96814,0.8599 -0.67824,0 -1.30675,0.11906 -1.39668,0.26458 -0.0899,0.14552 -0.57322,0.26459 -1.07395,0.26459 -0.50074,0 -0.91043,0.0893 -0.91043,0.19843 0,0.19957 -0.49444,0.2546 -3.175,0.35336 -1.3294,0.049 -1.35997,0.063 -0.35363,0.16188 1.52387,0.14977 1.6989,0.76566 0.27199,0.95705 -0.64669,0.0867 -1.16979,0.0325 -1.2714,-0.13196 -0.10655,-0.17242 -0.29058,-0.09 -0.48077,0.21543 -0.28095,0.45113 -0.29377,0.44226 -0.14537,-0.10055 0.0895,-0.32742 0.0914,-0.59531 0.004,-0.59531 -0.0873,0 -0.26632,0.26789 -0.39793,0.59531 -0.20193,0.50237 -0.2419,0.42482 -0.25606,-0.49677 -0.0193,-1.25706 -0.33899,-1.60132 -1.92661,-2.07471 -1.01612,-0.30297 -1.20683,-0.28559 -1.85053,0.16868 -0.96772,0.68292 -1.2539,2.14499 -0.57054,2.9149 0.49053,0.55265 0.48866,0.556 -0.23546,0.42253 -0.56998,-0.10505 -0.66862,-0.0607 -0.45018,0.20254 0.17447,0.21022 0.18437,0.39602 0.0263,0.49371 -0.13939,0.0861 -0.50236,-0.35755 -0.8066,-0.98602 z m 9.83174,-2.20915 c -0.1819,-0.0734 -0.47955,-0.0734 -0.66146,0 -0.1819,0.0734 -0.0331,0.13345 0.33073,0.13345 0.36381,0 0.51263,-0.06 0.33073,-0.13345 z m 6.61167,-1.53656 c 0.0687,-0.35939 0.023,-0.59049 -0.10145,-0.51355 -0.21922,0.13549 -0.32964,1.16701 -0.12492,1.16701 0.0558,0 0.15766,-0.29406 0.22637,-0.65346 z m -12.08608,3.85385 c -0.10066,-0.16288 0.002,-0.28998 0.23328,-0.28998 0.22687,0 0.41249,-0.13294 0.41249,-0.29544 0,-0.18139 -0.22982,-0.22848 -0.59532,-0.12199 -1.83406,0.53436 -2.28728,0.5034 -2.5975,-0.17746 -0.61962,-1.35993 0.81803,-2.56672 2.363,-1.98356 0.64687,0.24416 0.83471,0.50147 0.97582,1.33672 0.12635,0.74786 0.0657,1.1434 -0.2189,1.42802 -0.27053,0.27053 -0.44971,0.30296 -0.57287,0.10369 z m 12.94889,-2.67123 c -0.0899,-0.14552 -0.0374,-0.26458 0.11668,-0.26458 0.15411,0 0.2802,0.11906 0.2802,0.26458 0,0.14552 -0.0525,0.26459 -0.11668,0.26459 -0.0642,0 -0.19026,-0.11907 -0.2802,-0.26459 z M 352.64947,768.8563 c -2.45614,-0.5945 -4.59937,-1.87784 -6.79584,-4.06926 -3.08494,-3.07785 -4.48442,-6.39624 -4.48442,-10.63322 0,-5.42732 3.34961,-10.8218 8.21977,-13.23777 1.08168,-0.53659 2.26434,-1.04138 2.62814,-1.12175 0.43809,-0.0968 0.34874,-0.005 -0.26458,0.27149 -2.82434,1.27368 -5.65556,3.92056 -6.96098,6.50776 -1.07044,2.12148 -1.49897,3.99841 -1.50255,6.58104 -0.0103,7.46795 5.46997,13.3423 12.9882,13.92206 5.53489,0.42682 10.77075,-2.4045 13.54696,-7.3256 1.30091,-2.30599 1.23585,-1.78 -0.12636,1.02145 -1.99101,4.09463 -6.00837,7.32144 -10.21923,8.20827 -1.87505,0.39489 -5.12087,0.33741 -7.02911,-0.12447 z m 38.41179,-1.87766 c 0.191,-0.0764 0.4192,-0.067 0.50712,0.0209 0.0879,0.0879 -0.0684,0.15045 -0.34726,0.13896 -0.30823,-0.0127 -0.37092,-0.0754 -0.15986,-0.15985 z m -36.59518,-0.78756 c -2.49992,-0.53451 -4.66409,-1.74081 -6.60475,-3.68148 -1.66154,-1.66153 -3.1834,-4.27998 -3.46726,-5.9656 -0.11452,-0.68004 0.007,-0.52451 0.50857,0.64986 1.33506,3.12711 3.48131,5.34931 6.53967,6.77109 4.07229,1.89313 9.13832,1.48959 12.78338,-1.01828 3.62249,-2.49233 6.03872,-7.45076 5.61587,-11.52451 -0.49818,-4.79958 -3.08323,-8.61026 -7.26518,-10.70978 -1.6261,-0.81637 -1.1606,-0.99517 0.53786,-0.20659 8.93309,4.14755 10.89767,15.23731 3.92493,22.15568 -1.99661,1.98103 -3.8767,3.01417 -6.49408,3.5686 -2.27372,0.48163 -3.68643,0.47257 -6.07901,-0.039 z m 22.32354,-1.61138 c -0.3291,-0.41965 -0.31975,-0.42901 0.0999,-0.0999 0.44073,0.34564 0.58089,0.56292 0.36312,0.56292 -0.0549,0 -0.2633,-0.20836 -0.46302,-0.46302 z m -25.76714,-1.36142 c -2.04195,-1.17127 -4.00642,-3.08695 -5.01497,-4.8904 -4.10668,-7.34343 -0.26762,-16.14212 7.98055,-18.29049 6.20863,-1.61715 13.13062,2.29395 14.75436,8.33658 0.0978,0.3638 -0.1926,-0.0529 -0.64524,-0.92605 -2.46277,-4.75051 -8.07201,-7.38495 -13.20465,-6.20169 -3.22426,0.74332 -6.57504,3.39679 -8.05814,6.38121 -2.58974,5.21131 -0.82107,11.58487 4.16721,15.0169 0.64822,0.44598 1.29892,0.81088 1.44602,0.81088 0.14709,0 0.34102,0.11906 0.43096,0.26458 0.30136,0.48761 -0.51734,0.2664 -1.8561,-0.50152 z m 48.55506,-0.92129 c 0,-0.0549 0.20836,-0.2633 0.46302,-0.46302 0.41965,-0.32911 0.429,-0.31975 0.0999,0.0999 -0.34565,0.44073 -0.56292,0.58089 -0.56292,0.36313 z m -39.562,-1.20988 c 0.57017,-1.10259 0.50088,-2.75591 -0.1701,-4.05858 -0.31557,-0.61267 -0.83117,-1.87176 -1.14578,-2.79798 l -0.57201,-1.68404 -1.03704,1.4134 c -0.90053,1.22737 -1.03523,1.59455 -1.02339,2.78973 0.0122,1.23338 -0.0347,1.35046 -0.45169,1.12729 -0.25593,-0.13697 -0.58731,-0.45594 -0.7364,-0.70881 -0.73763,-1.25111 -1.14936,2.32286 -0.42711,3.70741 0.55361,1.06126 -0.0654,0.95702 -1.27125,-0.21407 -1.37546,-1.33583 -1.81886,-2.53894 -1.70067,-4.61458 0.12015,-2.11018 0.81892,-3.56977 3.20811,-6.7011 1.65413,-2.16793 1.80228,-2.50597 2.13275,-4.86641 0.0452,-0.32302 -0.0196,-0.52435 -0.14414,-0.44741 -0.1245,0.077 -0.22636,0.0236 -0.22636,-0.11866 0,-0.1422 -0.0708,-0.47665 -0.15725,-0.74321 -0.11574,-0.35671 -0.0905,-0.39138 0.0957,-0.13134 0.13914,0.19433 0.33149,0.33866 0.42744,0.32072 0.84513,-0.15797 2.08847,2.01835 2.12199,3.71431 0.0141,0.71331 0.0664,1.29766 0.1162,1.29856 0.0498,8.9e-4 0.39328,-0.2365 0.76328,-0.52754 0.86687,-0.68188 1.80026,-0.72262 1.5154,-0.0661 -0.56462,1.3012 -0.43464,2.17481 0.64809,4.35577 1.41336,2.84692 1.82134,4.73644 1.37043,6.34693 -0.39129,1.39755 -1.33062,2.50304 -2.5651,3.01883 -1.19623,0.49982 -1.23301,0.48012 -0.77112,-0.41307 z m 42.27692,-3.32021 c 0.15628,-0.5092 0.32456,-0.8854 0.37395,-0.83601 0.16628,0.16628 -0.24247,1.76183 -0.45134,1.76183 -0.11371,0 -0.0789,-0.41662 0.0774,-0.92582 z m 0.21639,-2.93269 c 0.0127,-0.30822 0.0754,-0.37092 0.15985,-0.15985 0.0764,0.19099 0.067,0.4192 -0.0209,0.50712 -0.0879,0.0879 -0.15045,-0.0684 -0.13896,-0.34727 z m -27.72647,-1.83004 c 0.002,-0.7276 0.0534,-0.99385 0.11419,-0.59167 0.0608,0.40218 0.0592,0.9975 -0.004,1.32292 -0.0628,0.32542 -0.11257,-0.004 -0.11059,-0.73125 z m 26.42444,0.1323 c 0,-0.36381 0.06,-0.51263 0.13345,-0.33073 0.0734,0.1819 0.0734,0.47955 0,0.66146 -0.0734,0.1819 -0.13345,0.0331 -0.13345,-0.33073 z m -0.0209,-2.00643 c 0.0127,-0.30822 0.0754,-0.37092 0.15985,-0.15985 0.0764,0.191 0.067,0.4192 -0.0209,0.50712 -0.0879,0.0879 -0.15046,-0.0684 -0.13897,-0.34727 z m -11.88537,-0.63941 c 0,-0.3638 0.06,-0.51263 0.13345,-0.33073 0.0734,0.18191 0.0734,0.47956 0,0.66146 -0.0734,0.1819 -0.13345,0.0331 -0.13345,-0.33073 z m 11.62078,-0.94809 c 0.0127,-0.30822 0.0754,-0.37092 0.15985,-0.15985 0.0764,0.191 0.067,0.4192 -0.0209,0.50712 -0.0879,0.0879 -0.15045,-0.0684 -0.13896,-0.34727 z m -13.51464,-2.3268 c 0,-0.0549 0.20836,-0.2633 0.46302,-0.46302 0.41964,-0.32911 0.429,-0.31975 0.0999,0.0999 -0.34564,0.44073 -0.56291,0.58089 -0.56291,0.36313 z m 10.46234,-3.05682 c -0.0837,-0.13547 -0.0511,-0.30883 0.0726,-0.38524 0.12364,-0.0764 0.2248,0.0344 0.2248,0.2463 0,0.44613 -0.0834,0.48511 -0.29738,0.13894 z m -19.19359,-0.11818 c 0,-0.0549 0.20836,-0.2633 0.46302,-0.46302 0.41964,-0.32911 0.429,-0.31975 0.0999,0.0999 -0.34564,0.44073 -0.56291,0.58089 -0.56291,0.36313 z m 14.2875,-3.57304 c 0,-0.14552 0.11906,-0.33817 0.26458,-0.42811 0.14552,-0.0899 0.26458,-0.0445 0.26458,0.10106 0,0.14552 -0.11906,0.33817 -0.26458,0.42811 -0.14552,0.0899 -0.26458,0.0445 -0.26458,-0.10106 z m -9.92188,-0.5604 c 0.29104,-0.12506 0.70776,-0.22739 0.92604,-0.22739 0.25016,0 0.20126,0.0841 -0.13229,0.22739 -0.29104,0.12506 -0.70776,0.22739 -0.92604,0.22739 -0.25016,0 -0.20125,-0.0841 0.13229,-0.22739 z m 7.22643,-0.18074 c 0.191,-0.0764 0.4192,-0.067 0.50712,0.0209 0.0879,0.0879 -0.0684,0.15045 -0.34726,0.13896 -0.30823,-0.0127 -0.37092,-0.0754 -0.15986,-0.15985 z"
         id="path1725" />
      <path
         style="fill:#000000;stroke-width:0.264583"
         d="m 352.8183,800.11671 c -2.56606,-0.62178 -4.82742,-1.94875 -6.97849,-4.09497 -3.73339,-3.72496 -5.23255,-8.60227 -4.17096,-13.56965 0.55895,-2.61546 2.55184,-6.26346 3.20215,-5.86155 0.1886,0.11656 0.23236,0.0245 0.12335,-0.25963 -0.0929,-0.24215 -0.0607,-0.44028 0.0717,-0.44028 0.54855,0 0.51853,0.58218 -0.0922,1.78732 -1.57355,3.10525 -1.97398,6.75401 -1.11091,10.12288 1.67544,6.53991 8.07238,11.07707 14.78592,10.48723 2.0698,-0.18185 4.8721,-0.94858 5.87955,-1.60868 0.74472,-0.48796 1.02096,-0.53217 0.76802,-0.1229 -0.12401,0.20065 0.0169,0.23296 0.44741,0.10255 0.72035,-0.21822 0.57338,-0.0537 -0.95906,1.07385 -1.33184,0.97991 -3.31591,1.92502 -5.02708,2.39465 -1.62351,0.44557 -5.07822,0.44018 -6.93945,-0.0108 z m 1.11862,-2.90624 c -2.10015,-0.52546 -3.78209,-1.45367 -5.47626,-3.02217 -1.9119,-1.77009 -2.86376,-3.12548 -3.61289,-5.14457 -0.7729,-2.08314 -0.70952,-2.54729 0.0842,-0.6167 0.91248,2.21943 2.63634,4.30116 4.76161,5.75012 2.42483,1.65319 4.27705,2.16498 8.00745,2.21254 1.6337,0.0208 3.05304,0.12054 3.15409,0.22159 0.10104,0.10104 -0.40219,0.12149 -1.11829,0.0455 -0.93358,-0.0991 -1.15227,-0.0673 -0.77284,0.11256 0.45693,0.21658 0.46596,0.25335 0.0661,0.26941 -0.25466,0.0102 -0.46302,0.13766 -0.46302,0.28318 0,0.36604 -3.01158,0.29357 -4.6302,-0.11141 z m 5.09322,0.20077 c 0.18191,-0.0734 0.47956,-0.0734 0.66146,0 0.1819,0.0734 0.0331,0.13345 -0.33073,0.13345 -0.3638,0 -0.51263,-0.06 -0.33073,-0.13345 z m -5.76915,-2.06063 c -5.45501,-2.00967 -8.71691,-6.33168 -8.79606,-11.65477 -0.0427,-2.87079 0.4341,-4.56291 1.92259,-6.82326 1.46527,-2.22511 2.47602,-3.24021 2.94048,-2.95316 0.19444,0.12017 0.25733,0.0913 0.15652,-0.0718 -0.23942,-0.38739 1.56815,-1.56885 3.41348,-2.23112 2.35815,-0.84631 5.20576,-0.94523 7.46408,-0.25929 2.14181,0.65055 4.6679,2.25089 6.03735,3.82478 0.9883,1.13585 2.49114,3.97087 2.47947,4.67739 -0.004,0.21828 -0.35426,-0.31981 -0.77925,-1.19575 -0.95051,-1.95909 -3.01298,-4.05538 -5.06717,-5.15025 -7.89648,-4.20878 -17.38415,1.4137 -17.42347,10.32531 -0.008,1.71953 0.55348,4.05015 1.35168,5.61475 0.92678,1.81664 3.54494,4.21849 5.7856,5.30759 2.01338,0.97863 2.22324,1.21901 0.5147,0.58958 z m 1.20509,-2.49249 c -3.36431,-1.53666 -4.79469,-5.30451 -3.20481,-8.44198 0.62977,-1.24279 1.13752,-1.89844 0.81076,-1.04692 -0.072,0.18769 0.36764,0.65744 1.00049,1.06893 0.93814,0.61001 1.30787,0.70568 2.18731,0.56597 1.37045,-0.2177 1.98964,-0.8398 2.16933,-2.17951 0.20101,-1.49862 -0.0197,-2.12931 -1.19967,-3.42825 -0.9724,-1.07044 -1.62473,-1.50227 -1.19907,-0.79375 0.13254,0.22062 0.0482,0.2086 -0.25341,-0.0361 -0.41982,-0.34062 -0.38402,-0.49181 0.50109,-2.11667 1.52007,-2.79048 1.43969,-2.7873 3.00264,-0.11884 2.38946,4.07957 4.56661,8.65936 4.70649,9.90041 0.28217,2.5034 -1.13414,5.08503 -3.50449,6.38792 -1.58058,0.86878 -3.44322,0.95744 -5.01666,0.23877 z m 16.01534,-6.71488 c -0.004,-0.25466 -0.12711,-0.46302 -0.27263,-0.46302 -0.15207,0 -0.26458,-0.81608 -0.26458,-1.91907 0,-5.19386 -2.84031,-9.60298 -7.79585,-12.10182 -1.71823,-0.86642 -1.61805,-1.059 0.18372,-0.3532 5.19677,2.0357 8.76033,7.08509 8.70539,12.33513 -0.0119,1.13414 -0.14002,2.26524 -0.28479,2.51354 -0.24633,0.4225 -0.26373,0.42176 -0.27126,-0.0116 z m 15.00706,-21.80492 c 0.1819,-0.0734 0.47956,-0.0734 0.66146,0 0.1819,0.0734 0.0331,0.13345 -0.33073,0.13345 -0.3638,0 -0.51263,-0.0601 -0.33073,-0.13345 z"
         id="path1723" />
      <path
         style="fill:#000000;stroke-width:0.264583"
         d="m 384.17156,768.86463 c -4.1407,-1.00374 -7.9299,-4.15228 -9.85355,-8.18754 -2.52491,-5.29654 -1.806,-11.1909 1.94342,-15.93428 1.15469,-1.46079 3.77054,-3.46071 5.4229,-4.14602 1.51168,-0.62696 1.52262,-0.51572 0.0338,0.34398 -3.35146,1.93532 -5.84534,5.58832 -6.66888,9.76849 -0.39588,2.00944 -0.39749,2.3944 -0.019,4.52967 0.57911,3.26718 1.73257,5.55593 3.88949,7.71767 6.56082,6.57551 17.62058,5.23474 22.31142,-2.7048 1.26394,-2.13928 1.26394,-1.85783 0,0.75526 -1.79193,3.7047 -5.61202,6.79011 -9.73727,7.8646 -1.89146,0.49267 -5.27438,0.48941 -7.32236,-0.007 z m 2.4414,-2.50362 c -4.27713,-0.74347 -8.39289,-3.9246 -10.03526,-7.75637 -0.86307,-2.01362 -0.62637,-2.07186 0.42316,-0.10412 4.08736,7.66328 14.81876,9.00132 20.81129,2.59483 2.4115,-2.5781 3.8774,-6.79479 3.50535,-10.08328 -0.21278,-1.88072 -1.38793,-4.83953 -2.58311,-6.50378 -0.88382,-1.23071 -3.53523,-3.40771 -4.68365,-3.84563 -0.3476,-0.13255 -0.56801,-0.30499 -0.48979,-0.38321 0.0782,-0.0782 0.85778,0.219 1.73237,0.66049 5.26222,2.65637 8.33137,8.87098 7.12544,14.42807 -0.65172,3.0032 -1.85508,5.3032 -3.74673,7.16116 -3.30214,3.24333 -7.59583,4.60767 -12.05907,3.83184 z m -3.63166,-2.94633 c -5.74459,-2.87112 -8.34966,-8.91598 -6.53891,-15.17301 1.10852,-3.83051 5.26146,-7.45225 9.57193,-8.34758 3.97059,-0.82474 8.43463,0.65604 11.52318,3.82238 1.04542,1.07176 2.85134,4.39421 2.81515,5.1792 -0.0103,0.22239 -0.1821,-0.0407 -0.38187,-0.58452 -0.87193,-2.37375 -3.20924,-4.84313 -5.77174,-6.09786 -8.21503,-4.0225 -17.7409,2.37626 -17.04027,11.44636 0.33071,4.28114 2.65455,7.68013 6.70893,9.81285 1.9731,1.03792 1.20582,0.98787 -0.8864,-0.0578 z m 2.83791,-0.72994 c 0,-0.14989 0.70675,-2.15445 1.57056,-4.45456 0.89022,-2.37043 1.63117,-4.80929 1.71046,-5.63005 0.0769,-0.79642 0.0771,-1.20991 2.7e-4,-0.91887 -0.42874,1.62558 -1.72775,5.47251 -2.23359,6.61458 l -0.58593,1.32292 -0.64285,-1.38368 c -0.82288,-1.77117 -1.2721,-4.18938 -1.02396,-5.5121 0.16313,-0.86952 0.24326,-0.96791 0.50113,-0.61525 0.25161,0.34409 0.30877,0.2242 0.317,-0.6648 0.0144,-1.55262 0.78593,-2.93411 2.58616,-4.63061 0.86438,-0.81459 1.77816,-1.93319 2.03061,-2.48579 l 0.459,-1.00473 0.93876,2.19535 c 0.51631,1.20745 1.08244,2.73114 1.25804,3.38598 0.44737,1.66821 0.3448,3.98777 -0.23603,5.33786 -0.69162,1.60761 -2.42704,3.71371 -4.1023,4.97855 -1.1431,0.86304 -1.49024,1.3105 -1.75763,2.26551 -0.3081,1.10065 -0.7897,1.83223 -0.7897,1.19969 z m 3.61481,-12.52484 c -0.0734,-0.1819 -0.13345,-0.0331 -0.13345,0.33073 0,0.36381 0.06,0.51263 0.13345,0.33073 0.0734,-0.1819 0.0734,-0.47955 0,-0.66146 z"
         id="path1721" />
    </g>
    <path
       style="fill:#0c0c0c;stroke-width:0.264583"
       d="m 88.025576,91.655134 c -4.85511,-0.97731 -10.75607,-3.974618 -14.42313,-7.326098 -0.79853,-0.729821 -1.45187,-1.542992 -1.45187,-1.807051 0,-0.912699 5.1548,-4.805141 8.80112,-6.64577 2.38282,-1.202841 6.0909,-2.32341 8.8358,-2.670061 4.18149,-0.528138 9.4752,0.497702 13.778634,2.670061 3.64632,1.840629 8.80112,5.733071 8.80112,6.64577 0,0.605239 -2.35413,2.770671 -4.69302,4.316761 -6.55451,4.33282 -13.541904,6.0456 -19.648654,4.816388 z m 7.3123,-1.964838 c 2.78256,-1.26352 4.59395,-3.966371 4.59395,-6.85478 0,-2.208292 -0.37611,-3.405161 -1.56382,-4.976641 -1.41899,-1.877459 -3.71218,-3.005719 -6.10908,-3.005719 -2.39692,0 -4.69012,1.12826 -6.10911,3.005719 -1.18771,1.57148 -1.56382,2.768349 -1.56382,4.976641 0,2.888409 1.81139,5.59126 4.59396,6.85478 1.4992,0.68077 4.65872,0.68077 6.15792,0 z m -4.39221,-2.439601 c -2.02557,-0.599329 -3.44925,-2.49377 -3.44925,-4.589719 v -1.020901 l 0.62351,0.585759 c 0.34294,0.322162 1.03414,0.652362 1.536,0.733832 2.14256,0.347679 3.50889,-2.462191 1.95355,-4.01752 -0.35718,-0.357172 -0.80367,-0.65123 -0.99218,-0.65345 -0.2445,-0.003 -0.22899,-0.0776 0.0541,-0.26054 0.57688,-0.372801 2.52702,-0.321342 3.51836,0.0929 1.16489,0.48672 2.50286,2.074 2.71888,3.225488 0.71088,3.789291 -2.46916,6.93796 -5.963,5.90418 z m -6.75063,0.311211 c -1.96531,-2.92045 -1.92132,-6.924681 0.11129,-10.12906 0.43845,-0.691232 0.67294,-1.2568 0.52108,-1.2568 -1.07294,0 -7.71318,3.868859 -10.02548,5.841219 -0.57372,0.48935 -0.60489,0.5978 -0.24861,0.864849 0.22402,0.16795 0.93592,0.738032 1.58198,1.266791 2.18695,1.79007 7.47929,4.68271 8.63124,4.717611 0.17207,0.005 -0.0851,-0.581822 -0.5715,-1.30461 z m 18.721864,-0.0172 c 2.15784,-1.07722 4.98632,-2.909909 6.51672,-4.22243 l 0.90283,-0.77428 -0.63824,-0.5452 c -2.28863,-1.9549 -8.9388,-5.82686 -10.007794,-5.82686 -0.15186,0 0.0826,0.565549 0.521094,1.256781 2.04092,3.217529 2.07694,7.20811 0.0917,10.158188 l -0.903934,1.34321 0.729304,-0.18074 c 0.40112,-0.0994 1.65586,-0.643339 2.78833,-1.208669 z"
       id="path1803" />
    <text
       xml:space="preserve"
       style="font-size:4.9389px;line-height:1.25;font-family:sans-serif;stroke-width:0.264583"
       x="5.6290565"
       y="115.0036"
       id="text1858-12"><tspan
         sodipodi:role="line"
         id="tspan1856-2"
         x="5.6290565"
         y="115.0036"
         style="stroke-width:0.264583">Ochrona przed</tspan><tspan
         sodipodi:role="line"
         x="5.6290565"
         y="121.17722"
         style="stroke-width:0.264583"
         id="tspan2019">żywiołami</tspan></text>
    <text
       xml:space="preserve"
       style="font-size:4.9389px;line-height:1.25;font-family:sans-serif;stroke-width:0.264583"
       x="70.228928"
       y="115.21872"
       id="text1858-3-3"><tspan
         sodipodi:role="line"
         id="tspan1856-4-1"
         x="70.228928"
         y="115.21872"
         style="stroke-width:0.264583">Duże przeszklenia</tspan></text>
    <text
       xml:space="preserve"
       style="font-size:4.9389px;line-height:1.25;font-family:sans-serif;stroke-width:0.264583"
       x="141.22301"
       y="115.17298"
       id="text1858-0-4"><tspan
         sodipodi:role="line"
         x="141.22301"
         y="115.17298"
         style="stroke-width:0.264583"
         id="tspan1886-4">Komfort</tspan><tspan
         sodipodi:role="line"
         x="141.22301"
         y="121.3466"
         style="stroke-width:0.264583"
         id="tspan3647">+100m2</tspan></text>
  </g>
</svg>
