<?xml version="1.0" encoding="UTF-8" standalone="no"?>
<svg
   xmlns:dc="http://purl.org/dc/elements/1.1/"
   xmlns:cc="http://creativecommons.org/ns#"
   xmlns:rdf="http://www.w3.org/1999/02/22-rdf-syntax-ns#"
   xmlns:svg="http://www.w3.org/2000/svg"
   xmlns="http://www.w3.org/2000/svg"
   xmlns:sodipodi="http://sodipodi.sourceforge.net/DTD/sodipodi-0.dtd"
   xmlns:inkscape="http://www.inkscape.org/namespaces/inkscape"
   width="600"
   height="600"
   viewBox="0 0 158.75 158.75001"
   version="1.1"
   id="svg112240"
   inkscape:version="1.0.1 (3bc2e813f5, 2020-09-07)"
   sodipodi:docname="QHouseInterrior.svg">
  <defs
     id="defs112234">
    <inkscape:perspective
       sodipodi:type="inkscape:persp3d"
       inkscape:vp_x="160.23072 : -33.665872 : 1"
       inkscape:vp_y="0 : 1168.3738 : 0"
       inkscape:vp_z="233.45025 : -33.665872 : 1"
       inkscape:persp3d-origin="196.84048 : -110.94894 : 1"
       id="perspective963" />
  </defs>
  <sodipodi:namedview
     id="base"
     pagecolor="#ffffff"
     bordercolor="#666666"
     borderopacity="1.0"
     inkscape:pageopacity="0.0"
     inkscape:pageshadow="2"
     inkscape:zoom="0.90509668"
     inkscape:cx="394.16012"
     inkscape:cy="306.38314"
     inkscape:document-units="mm"
     inkscape:current-layer="layer1"
     inkscape:document-rotation="0"
     showgrid="false"
     units="px"
     height="5000px"
     inkscape:window-width="1920"
     inkscape:window-height="1137"
     inkscape:window-x="-8"
     inkscape:window-y="-8"
     inkscape:window-maximized="1"
     inkscape:snap-global="false" />
  <metadata
     id="metadata112237">
    <rdf:RDF>
      <cc:Work
         rdf:about="">
        <dc:format>image/svg+xml</dc:format>
        <dc:type
           rdf:resource="http://purl.org/dc/dcmitype/StillImage" />
        <dc:title></dc:title>
      </cc:Work>
    </rdf:RDF>
  </metadata>
  <g
     inkscape:label="Layer 1"
     inkscape:groupmode="layer"
     id="layer1">
    <path
       style="fill:#ff6600;stroke-width:1.06577"
       d="M 19.914017,153.99042 C 9.0620276,140.53946 3.5507286,126.41763 2.3140117,108.8932 0.00339083,76.151442 19.256983,45.048536 49.688213,32.363315 74.02764,22.217449 104.57146,25.999747 125.21944,41.716488 c 15.12526,11.512989 25.53077,27.341732 29.28665,44.55055 4.91319,22.511432 1.26096,42.424612 -11.2694,61.444502 -5.06679,7.69091 -8.67747,11.57088 -9.7602,10.48816 -0.36436,-0.36435 1.50168,-3.06951 4.14674,-6.01145 5.69318,-6.33218 12.79577,-20.20758 15.30766,-29.90458 2.38722,-9.21568 2.38625,-27.026823 -0.002,-36.236284 C 146.29141,60.45188 128.07436,40.758549 103.04156,32.11725 93.576649,28.849968 79.806148,27.403535 79.781219,29.674017 c -0.01386,1.264059 -0.157755,1.262661 -0.963086,-0.0094 -2.273251,-3.590569 -24.765448,1.410741 -36.209848,8.051535 -16.661227,9.667934 -29.1489,24.789281 -35.0725624,42.469435 -3.003584,8.964691 -3.571291,13.130317 -3.494877,25.644153 0.05318,8.70945 0.638067,12.77005 2.856442,19.83112 3.2945274,10.48644 8.4277904,20.09281 14.3041444,26.76869 2.333088,2.65036 4.241837,5.10492 4.241837,5.4546 0,1.75575 -2.248993,0.17194 -5.529122,-3.89375 z m 73.472172,-0.34861 c -1.15503,-1.16463 -0.98525,-15.13085 0.1928,-15.85891 0.54567,-0.33725 1.22541,-0.2357 1.51055,0.22565 0.83165,1.34564 -0.82192,16.52202 -1.70335,15.63326 z m 24.779221,-8.50692 c 0,-5.0994 0.39116,-7.81444 1.06577,-7.39751 0.58617,0.36228 1.06577,3.98757 1.06577,8.0562 0,4.22116 -0.45762,7.39751 -1.06577,7.39751 -0.61652,0 -1.06577,-3.39591 -1.06577,-8.0562 z M 89.790011,135.02971 c -1.83135,-0.55771 -3.942775,-1.75269 -4.692056,-2.65552 -1.206594,-1.45386 -0.825963,-1.54571 3.329732,-0.80358 5.779242,1.03206 30.944173,1.10505 36.398803,0.10561 4.69538,-0.86035 5.22343,0.31581 1.06577,2.37385 -3.55108,1.75778 -31.093021,2.50517 -36.102249,0.97967 z m -1.466248,-5.1582 c -8.832255,-1.89075 -13.027245,-6.45678 -13.633596,-14.83945 -0.336112,-4.64667 -0.04338,-6.49026 1.193699,-7.51691 1.378631,-1.14417 2.108685,-0.83315 4.595358,1.95771 3.48558,3.91197 8.899239,11.90506 8.905751,13.14908 0.0021,0.47913 -0.954635,0.56671 -2.126985,0.19462 -3.546883,-1.12574 -2.385638,1.30156 1.224808,2.56017 5.339921,1.86151 33.379112,1.51776 37.195952,-0.456 3.58658,-1.85469 4.19243,-3.11333 1.01284,-2.10417 -2.83141,0.89865 -2.68552,-0.0707 0.96232,-6.39464 4.12117,-7.14447 8.22358,-10.95721 9.9414,-9.2394 2.08601,2.08602 1.44446,12.68047 -0.96789,15.98338 -4.29029,5.87411 -8.77979,7.06406 -27.52109,7.29448 -9.378796,0.11532 -18.730953,-0.14968 -20.782567,-0.58887 z m -48.884442,-5.61266 c -1.249971,-0.4624 -2.272675,-1.57557 -2.272675,-2.47373 0,-1.28537 1.36126,-1.633 6.394639,-1.633 h 6.39464 l -0.0778,-3.99665 c -0.04284,-2.19815 -0.436626,-6.51616 -0.87517,-9.59558 -0.664041,-4.66277 -0.47283,-5.94728 1.143575,-7.68229 1.067521,-1.145845 1.940944,-2.689371 1.940944,-3.430059 0,-0.740688 1.098055,0.255802 2.440119,2.214422 2.127241,3.104507 2.343764,4.330557 1.688601,9.561887 -0.41335,3.30041 -0.792008,7.55944 -0.841471,9.46451 l -0.08993,3.46376 h 6.39464 c 5.033381,0 6.39464,0.34763 6.39464,1.633 0,2.46415 -3.419374,3.24717 -11.541387,2.64295 -4.034794,-0.30015 -9.020044,-0.27186 -11.07833,0.0629 -2.058299,0.33474 -4.765061,0.23029 -6.015033,-0.2321 z m 53.921778,-5.43894 c -1.41863,-3.07742 -4.35507,-7.70734 -6.525422,-10.28871 -5.186287,-6.16846 -4.796246,-8.43724 2.020973,-11.755298 10.426669,-5.074837 37.79714,-2.918338 41.09169,3.237588 1.24161,2.31996 1.23052,2.34399 -5.0169,10.85938 -2.49148,3.39594 -5.12943,7.83222 -5.8621,9.8584 l -1.33214,3.68395 H 106.83882 95.940429 Z M 61.173221,69.038178 C 59.990735,67.124883 68.103603,59.47716 72.72065,58.1528 c 2.426873,-0.696126 4.652293,-1.458002 4.94538,-1.693058 0.293088,-0.235057 0.808539,-6.023643 1.145451,-12.863526 l 0.612564,-12.436151 0.203083,11.190619 c 0.111703,6.15484 0.619086,11.847297 1.127535,12.649903 0.508437,0.802606 3.480879,2.481199 6.605428,3.730207 5.167338,2.065591 10.555628,7.385585 10.555628,10.42183 0,1.269514 -35.956384,1.157516 -36.742498,-0.114446 z"
       id="path2405" />
  </g>
</svg>
