<?xml version="1.0" encoding="UTF-8" standalone="no"?>
<svg
   xmlns:dc="http://purl.org/dc/elements/1.1/"
   xmlns:cc="http://creativecommons.org/ns#"
   xmlns:rdf="http://www.w3.org/1999/02/22-rdf-syntax-ns#"
   xmlns:svg="http://www.w3.org/2000/svg"
   xmlns="http://www.w3.org/2000/svg"
   xmlns:sodipodi="http://sodipodi.sourceforge.net/DTD/sodipodi-0.dtd"
   xmlns:inkscape="http://www.inkscape.org/namespaces/inkscape"
   width="700"
   height="500"
   viewBox="0 0 185.20833 132.29167"
   version="1.1"
   id="svg8"
   inkscape:version="1.0.1 (3bc2e813f5, 2020-09-07)"
   sodipodi:docname="QHouseStrenght1en.svg">
  <defs
     id="defs2" />
  <sodipodi:namedview
     id="base"
     pagecolor="#ffffff"
     bordercolor="#666666"
     borderopacity="1.0"
     inkscape:pageopacity="0.0"
     inkscape:pageshadow="2"
     inkscape:zoom="0.49497475"
     inkscape:cx="469.67605"
     inkscape:cy="477.34943"
     inkscape:document-units="mm"
     inkscape:current-layer="layer1"
     inkscape:document-rotation="0"
     showgrid="false"
     units="px"
     inkscape:snap-global="true"
     inkscape:window-width="1920"
     inkscape:window-height="1137"
     inkscape:window-x="-8"
     inkscape:window-y="-8"
     inkscape:window-maximized="1" />
  <metadata
     id="metadata5">
    <rdf:RDF>
      <cc:Work
         rdf:about="">
        <dc:format>image/svg+xml</dc:format>
        <dc:type
           rdf:resource="http://purl.org/dc/dcmitype/StillImage" />
        <dc:title></dc:title>
      </cc:Work>
    </rdf:RDF>
  </metadata>
  <g
     inkscape:label="Layer 1"
     inkscape:groupmode="layer"
     id="layer1">
    <path
       id="rect1065-9"
       style="fill:#ff6600;stroke:none;stroke-width:7.96528;stroke-miterlimit:4;stroke-dasharray:none;stroke-opacity:1"
       d="M 1.1328125 -1.0664062 L 1.1328125 181.60547 L 510.33594 181.60547 C 510.20092 181.50928 510.07972 181.38983 509.98242 181.23242 C 509.76434 180.87964 511.60507 179.79725 514.07227 178.82617 C 516.53947 177.85509 518.55859 177.19777 518.55859 177.36719 C 518.55859 177.53655 517.16769 178.62096 515.46875 179.77539 C 514.08449 180.71603 513.01122 181.30832 512.16602 181.60547 L 697.74023 181.60547 L 697.74023 133.34766 C 697.66463 133.5343 697.59616 133.71557 697.51172 133.91016 C 696.61329 135.9806 695.61788 139.33297 695.30078 141.35938 C 693.43729 153.26732 688.14516 164.70859 683.07031 167.80273 C 678.11448 170.82432 673.8348 170.0472 645.93164 161.06445 L 640.46875 159.30664 L 642.51172 153.00195 C 645.49271 143.80544 646.027 129.25364 643.7168 120.1875 C 641.56118 111.72766 638.74588 104.27312 637.02344 102.46289 C 636.2791 101.6806 635.55511 100.5387 635.41406 99.925781 C 634.70661 96.85236 626.81276 87.312268 620.89844 82.384766 C 616.77089 78.945951 615.86236 78.50988 614.74219 79.419922 C 613.62409 80.328256 613.50676 80.275567 613.95898 79.068359 C 614.54443 77.505434 612.61988 75.898927 606.28906 72.669922 C 603.08327 71.034815 587.065 65.741552 586.83203 66.240234 C 586.78743 66.336952 586.33031 67.348316 585.81641 68.486328 L 584.88281 70.554688 L 584.82617 68.330078 C 584.7759 66.326596 584.38408 66.045583 580.90234 65.523438 C 575.8439 64.764867 563.00752 65.683239 558.28516 67.140625 C 554.68996 68.250147 554.57039 68.394215 554.80469 71.285156 C 555.09987 74.930382 554.59676 75.065868 552.90625 71.796875 C 552.20005 70.431252 551.13259 69.314453 550.53516 69.314453 C 547.16514 69.314453 525.22807 82.434913 525.19141 84.472656 C 525.18763 84.844411 526.11003 86.36931 527.24805 87.861328 C 530.07324 91.565329 529.84585 92.146085 526.55078 89.632812 C 525.02839 88.471632 523.20783 87.521484 522.50586 87.521484 C 520.67075 87.521484 512.71059 97.619562 508.72266 105.00781 C 506.84846 108.48007 505.31641 111.52197 505.31641 111.76758 C 505.31641 112.01325 507.27224 113.36996 509.66211 114.7832 L 514.00586 117.35352 L 508.85352 116.81641 C 503.74567 116.28435 503.69146 116.30045 502.7832 118.66016 C 500.28293 125.15616 498.19609 142.97817 499.62305 145.64453 C 500.24225 146.80154 501.46707 147.11328 505.39453 147.11328 C 511.14841 147.11328 511.21103 148.12848 505.54688 149.55469 C 503.38294 150.09956 501.19672 150.89184 500.6875 151.31445 C 499.49381 152.30512 501.14718 162.22705 503.56445 168.58203 C 504.50642 171.05853 505.16494 173.1964 505.0293 173.33203 C 504.89361 173.46768 503.77849 171.44027 502.55078 168.82812 C 497.78703 158.69193 496.04912 150.929 495.59766 137.77734 C 495.32969 129.97621 495.5365 123.68279 496.16602 120.39844 C 501.57622 92.181762 518.20482 70.311834 544.11133 57.345703 C 551.35891 53.71829 551.06662 52.612861 542.85938 52.615234 C 536.88402 52.616996 531.23745 54.345175 524.61719 58.197266 C 522.71529 59.303896 520.95528 60.208984 520.70508 60.208984 C 520.03897 60.208984 526.77206 54.27993 530.14453 51.896484 C 542.24371 43.34553 559.97574 38.94977 577.89648 40.060547 C 587.68992 40.667573 589.88858 40.032331 593.25391 35.617188 C 596.23142 31.710837 596.16646 28.713972 593.0293 25.140625 L 590.5293 22.292969 L 596.54688 23.84375 C 602.96202 25.49681 606.47379 25.159058 610.2207 22.525391 C 611.77553 21.432534 612.08505 20.438113 612.10156 16.503906 C 612.12802 10.513086 613.20446 5.8669764 615.18164 3.21875 C 617.69616 -0.14914592 618.51367 0.16841503 618.51367 4.5175781 C 618.51367 12.630676 623.4734 19.301981 633.21094 24.28125 C 641.8108 28.678775 645.83274 32.284377 648.30859 37.822266 C 650.16362 41.971575 650.37115 43.561034 650.46484 54.292969 L 650.56836 66.171875 L 653.87891 68.972656 C 655.69969 70.513127 658.43703 72.013561 659.96094 72.306641 C 662.25919 72.748637 663.10492 72.462887 664.92578 70.638672 C 667.01197 68.548707 667.11813 68.039435 667.05078 60.392578 C 666.9733 51.592674 665.10864 45.337411 658.88281 32.974609 C 657.25678 29.745692 656.17313 27.103516 656.47266 27.103516 C 657.65278 27.103516 666.45718 37.132627 669.19141 41.591797 C 674.80185 50.741712 677.20436 52.553353 680.75391 50.308594 C 681.78417 49.657033 681.81598 48.955584 680.96094 45.757812 C 679.47229 40.192273 679.70828 39.606294 682.04883 43.050781 C 683.20328 44.749671 684.438 46.138672 684.79297 46.138672 C 685.14824 46.138672 686.31314 47.694103 687.38086 49.59375 C 692.39346 58.512422 689.15082 77.334324 679.35156 96.212891 C 677.69757 99.399346 675.65257 103.35005 674.80664 104.99414 C 673.53354 107.46868 673.40856 108.60869 674.08203 111.61523 C 675.58753 118.33652 681.97695 121.10846 686.94922 117.19727 C 689.33471 115.32085 689.32678 115.41357 687.76172 106.42383 C 687.46843 104.73961 687.62742 102.71662 688.11914 101.87109 C 688.89035 100.54459 689.00759 100.66918 689.03711 102.83398 C 689.06357 104.4557 690.36551 107.03781 692.80273 110.28125 C 695.53334 113.91516 696.90079 116.42622 697.74023 119.87695 L 697.74023 -1.0664062 L 1.1328125 -1.0664062 z M 560.60742 127.38281 C 561.23028 127.4326 561.8757 127.79949 562.94922 128.51562 C 565.7483 130.38289 568.40693 130.83738 575.60742 130.67969 C 581.59563 130.54858 584.01556 131.66521 585.98242 135.46875 C 586.85375 137.1537 588.54138 138.38322 591.58594 139.55078 C 593.98223 140.46977 601.90225 143.68956 609.18555 146.70508 C 616.46885 149.7206 624.37663 152.93202 626.75781 153.8418 C 629.13895 154.75159 631.30136 155.84379 631.56445 156.26953 C 631.82789 156.69526 631.92809 157.00638 631.78711 156.95898 C 631.64651 156.91166 629.67052 156.33068 627.39453 155.66992 C 625.11854 155.00918 619.34607 153.42178 614.56641 152.14062 C 609.78678 150.85946 601.42202 148.59392 595.97852 147.10742 C 586.89926 144.6281 585.75534 144.4882 582.15039 145.41211 C 577.27034 146.66283 575.15163 146.06245 571.77734 142.47656 C 570.32109 140.92903 568.4356 139.66406 567.58789 139.66406 C 566.74007 139.66406 565.21116 138.88563 564.19141 137.93555 C 563.11991 136.93731 561.78346 136.42122 561.02344 136.71289 C 560.30004 136.9905 558.80767 136.62738 557.70703 135.90625 C 554.94628 134.09733 555.32173 129.86983 558.39648 128.15234 C 559.38364 127.60094 559.98457 127.33302 560.60742 127.38281 z "
       transform="scale(0.26458333)" />
    <text
       xml:space="preserve"
       style="font-size:22.2511px;line-height:1.25;font-family:sans-serif;fill:#ffffff;stroke-width:1.19202;stroke:#ff6200;stroke-opacity:1;"
       x="9.4505796"
       y="48.889637"
       id="text1120"><tspan
         sodipodi:role="line"
         id="tspan1118"
         x="9.4505796"
         y="48.889637"
         style="font-style:normal;font-variant:normal;font-weight:bold;font-stretch:normal;font-family:sans-serif;-inkscape-font-specification:'sans-serif Bold';fill:#ffffff;stroke-width:1.19202;stroke:#ff6200;stroke-opacity:1;">Szybkość</tspan></text>
    <path
       style="fill:#080808;stroke-width:0.20773"
       d="m 12.510822,105.70992 0.05551,-5.24519 h 9.763324 9.763315 l 0.05551,5.24519 0.05551,5.24519 H 31.062392 29.9208 l -0.05645,-3.99881 -0.05645,-3.99881 -2.0773,-0.0607 c -3.309949,-0.0968 -3.01209,-0.50373 -3.01209,4.11542 v 3.94293 h -6.131607 -6.131616 z m 9.877347,-0.3116 -0.05849,-2.44083 h -2.804362 -2.804354 l -0.05849,2.44083 -0.05849,2.44083 h 2.921408 2.921408 z M 10.835238,96.220022 c 0.03808,-0.106675 1.711252,-1.455146 3.718165,-2.9966 2.006906,-1.541446 3.74307,-2.926446 3.858153,-3.077778 0.202444,-0.266219 0.474473,-0.970132 2.434389,-6.299328 0.504222,-1.37102 0.984214,-2.65635 1.06666,-2.856291 0.104067,-0.2524 0.05347,-0.363528 -0.165465,-0.363528 -0.173441,0 -0.56846,-0.300803 -0.877814,-0.668451 -0.520928,-0.619082 -0.554955,-0.773434 -0.460764,-2.089856 0.08452,-1.181295 0.196068,-1.519907 0.660366,-2.004528 0.477064,-0.497943 0.549256,-0.73128 0.494234,-1.597356 -0.05433,-0.854996 -0.134538,-1.024223 -0.51091,-1.07787 -0.516202,-0.07358 -0.521117,-0.09428 -1.03092,-4.339798 l -0.354153,-2.949325 0.552247,-0.724026 c 0.492358,-0.645517 0.552239,-0.905731 0.552239,-2.399729 0,-1.537215 0.03431,-1.675702 0.415463,-1.675702 0.367225,0 0.415526,0.138681 0.416036,1.194449 l 5.81e-4,1.194449 h 1.245903 1.245894 l -9.4e-5,-1.194449 c -7.8e-5,-0.923288 0.07066,-1.194449 0.311497,-1.194449 0.251648,0 0.311592,0.327807 0.311592,1.703885 0,1.623866 0.03023,1.735071 0.643643,2.367952 l 0.643635,0.664068 -0.487835,3.604292 c -0.458315,3.386117 -0.515645,3.608244 -0.947054,3.669599 -0.425238,0.06048 -0.463654,0.191105 -0.519327,1.765707 l -0.06014,1.700399 -0.719816,0.103865 c -0.870787,0.125648 -1.389069,0.886161 -1.177738,1.728169 0.165245,0.658395 0.466339,0.723777 0.651172,0.141403 0.190385,-0.599833 0.898047,-0.53031 1.057214,0.103865 0.158776,0.632605 0.583527,0.657282 1.517092,0.08814 l 0.704726,-0.429635 -0.12646,0.79394 c -0.076,0.477079 -0.336519,0.976499 -0.65279,1.251368 -0.28949,0.251587 -0.526346,0.545534 -0.526346,0.653217 0,0.107684 0.361219,1.117062 0.802693,2.243064 0.441483,1.126001 1.254963,3.200651 1.807729,4.610329 l 1.005042,2.563049 3.645189,2.799767 c 2.004856,1.539868 3.67635,2.887051 3.714428,2.993726 0.0424,0.118757 -4.777279,0.193964 -12.42919,0.193964 -7.651902,0 -12.471587,-0.07522 -12.42919,-0.193964 z m 15.547263,-8.686495 c -2.585493,-6.816706 -2.541864,-6.723122 -3.103533,-6.657148 -0.478767,0.05624 -0.649437,0.393501 -1.923384,3.800858 -0.768902,2.056529 -1.401789,3.857912 -1.406421,4.003071 -0.0047,0.14516 0.738431,-0.305716 1.651246,-1.001947 l 1.659661,-1.265873 1.804392,1.365473 c 0.99241,0.751012 1.832349,1.365476 1.866526,1.365476 0.03415,0 -0.212643,-0.72446 -0.548487,-1.60991 z M 23.507737,67.403432 c 0.431401,-0.390414 0.503114,-1.319455 0.130605,-1.691965 -0.413186,-0.413184 -1.356126,-0.296222 -1.712383,0.212406 -0.427373,0.610168 -0.407902,0.907899 0.09209,1.40789 0.505478,0.50548 0.98485,0.528543 1.489691,0.07167 z"
       id="path1478" />
    <path
       style="fill:#000000;stroke-width:0.264583"
       d="m 153.40164,110.85811 c -5.09068,-0.68016 -9.7661,-2.99468 -13.48651,-6.67637 -4.22736,-4.18337 -6.49128,-9.259543 -6.79863,-15.243943 -0.33527,-6.527974 1.72143,-12.265692 6.07711,-16.95373 7.93586,-8.541397 20.7263,-10.02755 30.39461,-3.531627 4.69768,3.156264 8.55857,8.852518 9.76019,14.399935 0.52326,2.415691 0.46088,7.532172 -0.12258,10.054112 -0.57282,2.47592 -2.03168,5.76159 -3.55263,8.001283 -2.99665,4.41277 -8.25386,8.09419 -13.34443,9.34458 -2.14643,0.52723 -7.03309,0.85882 -8.92713,0.60576 z m 7.92369,-4.49769 c 1.72121,-0.44587 5.38331,-2.1848 6.4369,-3.05653 l 0.73456,-0.60776 -13.58846,-13.580553 -13.58846,-13.580553 -1.08729,1.674301 c -4.39699,6.770875 -4.16041,15.428112 0.5988,21.911465 2.20205,2.99979 6.13493,5.81105 9.79213,6.99951 2.95747,0.96107 7.52319,1.06351 10.70182,0.24012 z m -7.8101,-1.00343 c -1.3221,-1.0424 -2.48638,-3.92749 -2.81864,-6.984603 -0.15578,-1.43331 -0.20065,-2.93509 -0.0997,-3.33728 0.18069,-0.71994 0.20648,-0.72838 1.66791,-0.54579 0.81641,0.10201 1.64431,0.24683 1.83978,0.32184 0.2837,0.10887 0.35539,-0.42973 0.35539,-2.67006 0,-1.54354 0.0952,-2.80643 0.21167,-2.80643 0.63346,0 0.84667,0.78788 0.84667,3.12869 v 2.49371 l 0.85989,-0.17577 c 0.47295,-0.0967 1.36591,-0.24681 1.98438,-0.33362 1.09328,-0.15347 1.1256,-0.13666 1.16502,0.60572 0.24674,4.647013 -0.80121,8.349433 -2.87984,10.174493 -1.08024,0.94846 -2.04298,0.98814 -3.13253,0.1291 z m -8.63453,-7.322933 c -0.41646,-0.6113 -0.43995,-0.61497 -0.80864,-0.12615 -0.40293,0.53421 -0.98917,0.38339 -0.98917,-0.25448 0,-0.59915 -0.45068,-0.44537 -0.62272,0.21249 -0.26712,1.02147 -0.92107,0.007 -1.12713,-1.74802 l -0.18209,-1.55114 0.83368,0.1831 c 0.85574,0.18796 1.06801,-0.0479 0.52856,-0.58739 -0.21781,-0.2178 -0.45307,-0.22593 -0.82216,-0.0284 -0.84156,0.45039 -1.1293,-0.12192 -1.05619,-2.10075 0.14618,-3.956 1.85885,-7.990317 3.39211,-7.990317 0.35389,0 0.64344,0.04511 0.64344,0.100236 0,0.05513 -0.41318,0.786386 -0.91817,1.625011 -1.39181,2.31132 -2.37507,6.36892 -1.79468,7.40602 0.19206,0.3432 0.29191,-0.0367 0.39193,-1.4911 0.15127,-2.1998 0.90724,-4.64905 1.98641,-6.435685 0.58134,-0.962457 0.87412,-1.204482 1.45706,-1.204482 0.40124,0 0.72953,0.06136 0.72953,0.136362 0,0.075 -0.40837,0.759608 -0.90749,1.521355 -1.15524,1.76308 -1.95107,4.52117 -2.06011,7.13967 -0.0752,1.80675 -0.0305,2.05053 0.37622,2.05053 0.38619,0 0.41946,-0.11089 0.20358,-0.67868 -0.66685,-1.75396 0.17208,-5.72704 1.79809,-8.51559 0.81834,-1.403431 1.07603,-1.653647 1.70302,-1.653647 0.40633,0 0.73878,0.07697 0.73878,0.171052 0,0.09408 -0.40759,0.785112 -0.90576,1.535635 -1.3794,2.07815 -2.09555,4.40933 -2.09702,6.82612 -7.4e-4,1.22071 -0.11079,2.05053 -0.27194,2.05053 -0.17332,0 -0.1667,0.104 0.0184,0.2891 0.20907,0.20907 0.44343,0.20649 0.84666,-0.009 0.30667,-0.16412 0.55757,-0.23172 0.55757,-0.15022 0,0.0815 1.44693,-1.466 3.2154,-3.43887 1.76847,-1.97286 3.33754,-3.54631 3.48682,-3.49655 0.14929,0.0498 0.39473,0.28594 0.54542,0.52483 0.30451,0.48275 0.36586,0.38877 -3.74191,5.73176 -1.34607,1.75084 -2.44739,3.35755 -2.44739,3.57048 0,0.61837 -0.5219,0.77156 -1.03784,0.30463 -0.44172,-0.39975 -0.50213,-0.3898 -0.85434,0.14065 l -0.37901,0.57082 z m 1.00862,-4.35541 c -0.6054,-1.57765 0.8384,-6.60511 2.57396,-8.962819 0.37372,-0.507688 0.40369,-0.503168 1.53528,0.231543 1.45543,0.944976 2.60933,2.012766 2.60933,2.414616 0,0.30885 -4.52506,4.39467 -5.08154,4.58828 -0.28378,0.0987 -0.17402,-2.23977 0.18486,-3.93852 0.0987,-0.46742 0.0153,-0.39217 -0.28439,0.25656 -0.25409,0.54997 -0.44883,1.77649 -0.48574,3.05935 -0.0602,2.0922 -0.22417,2.76951 -0.6705,2.76951 -0.12136,0 -0.29293,-0.18833 -0.38126,-0.41852 z m 26.75219,4.45342 c 1.11758,-1.74016 1.98773,-3.76889 2.58874,-6.03555 0.47579,-1.7944 0.56116,-6.932914 0.13599,-8.185809 l -0.26935,-0.79375 0.12597,0.859896 c 0.0766,0.522913 0.0125,0.859896 -0.1635,0.859896 -0.1592,0 -1.97193,-1.174216 -4.02828,-2.609367 -2.05635,-1.435152 -4.47838,-3.115445 -5.3823,-3.733984 l -1.64348,-1.124617 -1.71373,1.551171 c -0.94255,0.853145 -2.46517,2.529611 -3.3836,3.725482 -0.91843,1.19587 -1.78443,2.178136 -1.92444,2.182812 -0.14001,0.0047 -0.76509,-0.492537 -1.38906,-1.104919 l -1.1345,-1.113422 v -5.025544 -5.025545 l -0.78595,-0.810901 c -0.43228,-0.445996 -0.81923,-1.106508 -0.8599,-1.467805 -0.0732,-0.65008 -0.0499,-0.657697 2.24117,-0.73335 l 2.3151,-0.07645 v 0.795231 c 0,0.556058 -0.27852,1.073747 -0.92604,1.721273 l -0.92604,0.926042 v 4.566081 4.566081 l 3.51501,-3.655959 3.51501,-3.655958 1.31364,0.190463 c 1.20375,0.174532 2.42099,0.771634 5.5937,2.743927 2.44983,1.522916 4.9013,3.235455 4.79034,3.346414 -0.21133,0.211328 -4.78746,-1.898947 -6.90289,-3.183258 -1.136,-0.689679 -2.12545,-1.193963 -2.19878,-1.12063 -0.0733,0.07333 1.27292,1.002135 2.99167,2.064004 1.71875,1.06187 3.95115,2.44104 4.96087,3.064823 1.00973,0.623784 1.89204,1.077988 1.96068,1.009343 0.2592,-0.259205 -1.38277,-3.917157 -2.58337,-5.755188 -2.40021,-3.674531 -6.78581,-6.83586 -11.13505,-8.026624 -2.35118,-0.643723 -7.42506,-0.651885 -9.78958,-0.01575 -2.93221,0.78886 -7.27518,3.082709 -7.06104,3.729469 0.11673,0.352582 26.73143,26.863175 26.97422,26.868715 0.11095,0.003 0.6414,-0.680013 1.17877,-1.516753 z m -9.71487,-21.561045 c 0,-0.319015 -0.14735,-0.240529 -0.6866,0.365707 -0.50223,0.564634 -0.50191,0.565347 0.0913,0.200939 0.32742,-0.201139 0.59531,-0.45613 0.59531,-0.566646 z m -6.87917,-5.228022 0.5652,-0.79375 h -1.47322 c -0.81028,0 -1.47323,0.06522 -1.47323,0.144925 0,0.215911 1.36743,1.442575 1.60812,1.442575 0.11436,0 0.46227,-0.357188 0.77313,-0.79375 z"
       id="path1494" />
    <path
       style="fill:#000000;stroke-width:0.442256"
       d="m 76.874995,109.72622 c 0,-1.34883 0.161804,-1.53303 1.769037,-2.01458 l 1.769019,-0.53002 v -3.10238 -3.10237 l 2.54296,-1.125944 c 3.994163,-1.768451 4.951593,-1.782171 9.297243,-0.13339 4.468658,1.695544 4.864624,1.943054 5.049546,3.156274 0.09377,0.61565 0.80813,1.1534 2.263171,1.70378 3.177309,1.20185 3.463119,1.55978 3.312219,4.14809 l -0.13122,2.25055 -12.93599,0.11718 -12.936001,0.11717 z m 23.218455,-7.64289 c -6.324261,-2.496624 -11.880276,-4.552025 -12.346696,-4.567565 -0.466421,-0.015 -3.498909,0.97122 -6.738866,2.192821 -4.200472,1.583764 -6.221724,2.138044 -7.044028,1.931654 -0.634275,-0.15912 -0.953853,-0.41264 -0.710195,-0.56323 0.249123,-0.15395 0.583193,-3.771355 0.763299,-8.265275 0.257949,-6.43588 0.201418,-8.200553 -0.290426,-9.065653 -0.560845,-0.986481 -0.630882,-0.731122 -0.857757,3.127253 l -0.247034,4.20143 -0.08592,-4.64368 -0.08592,-4.643706 -1.748978,-1.990145 -1.748961,-1.990162 -0.08541,7.29724 -0.08541,7.297223 -0.39936,-7.947483 c -0.219654,-4.371122 -0.481815,-8.029945 -0.582591,-8.130704 -0.100793,-0.100793 -0.786634,0.06669 -1.524159,0.372214 l -1.34096,0.555446 -0.03878,6.248492 c -0.02123,3.436685 -0.193729,7.243585 -0.383162,8.459785 -0.244711,1.57117 -0.363489,-0.0291 -0.410275,-5.5282 -0.03627,-4.256733 -0.212082,-7.957026 -0.390784,-8.222915 -0.231105,-0.343831 -0.739932,-0.311554 -1.76225,0.111825 l -1.43734,0.595262 -0.0067,8.512168 c -0.005,5.65923 -0.150437,8.28982 -0.435481,7.84877 -0.235852,-0.36494 -0.43177,-4.26318 -0.435498,-8.66538 l -0.0067,-8.001998 4.754253,-2.229824 c 7.250368,-3.40054 14.218348,-5.976185 15.379302,-5.684805 0.55426,0.13907 2.470182,2.036797 4.257605,4.217077 1.787423,2.18028 3.36629,3.972534 3.508587,3.982797 0.142246,0.01003 1.708343,-1.774619 3.48007,-3.966416 1.80118,-2.228253 3.669404,-4.097547 4.237721,-4.240178 0.674675,-0.169341 3.593618,0.769401 8.681994,2.79214 7.18026,2.854321 7.65771,3.11578 7.54139,4.129607 -0.63194,5.507473 -0.64233,6.284262 -0.0794,5.936352 0.42856,-0.264853 0.49168,-0.139739 0.24779,0.491105 -0.6767,1.750373 -0.78054,3.200733 -0.29424,4.109403 0.33093,0.61831 0.34609,0.93854 0.0445,0.93854 -0.26009,0 -0.45781,1.05052 -0.45781,2.43242 0,1.46328 -0.19241,2.43239 -0.4829,2.43239 -0.29499,0 -0.44489,-0.81751 -0.3852,-2.10071 0.14007,-3.00991 0.0426,-3.73734 -0.45867,-3.42749 -0.26896,0.16615 -0.44225,3.46894 -0.44225,8.42897 0,6.425325 0.12286,8.155655 0.57885,8.155655 0.69027,0 2.38957,1.17625 2.07398,1.4356 -0.12118,0.0996 -5.39482,-1.8615 -11.71908,-4.35812 z m 8.08114,-6.290765 c 0.10431,-6.95282 0.0299,-8.03472 -0.55282,-8.03472 -0.51319,0 -0.67335,0.52598 -0.67335,2.21127 0,3.06415 -0.81031,2.78792 -0.97301,-0.33167 -0.0737,-1.41159 -0.32938,-2.4938 -0.57488,-2.43242 -0.24324,0.0609 -0.42236,0.30959 -0.39804,0.55282 0.0242,0.24324 0.074,3.83193 0.11049,7.97486 0.0648,7.369635 0.0879,7.541235 1.06141,7.931015 0.54729,0.21912 1.19408,0.34555 1.43732,0.28096 0.2686,-0.0714 0.48959,-3.27236 0.5628,-8.152115 z m -4.25606,-0.10982 c 0.15779,-3.5074 0.15545,-7.15536 -0.005,-8.10659 -0.25456,-1.50502 -0.13389,-1.8881 0.92918,-2.951223 1.0735,-1.073515 1.22167,-1.557019 1.22167,-3.986339 v -2.76466 l -1.08071,1.015298 c -1.61494,1.517155 -2.59614,3.859623 -2.2022,5.257401 0.18273,0.6483 0.27517,1.37773 0.20545,1.620973 -0.0697,0.24324 -0.2753,1.53684 -0.45681,2.87466 l -0.33004,2.43241 -0.0649,-2.43241 c -0.0356,-1.33782 -0.24705,-2.72055 -0.46985,-3.072723 -0.74339,-1.17504 -0.99474,1.406803 -0.83783,8.606593 0.13656,6.265425 0.23301,6.981805 1.01745,7.554885 0.47665,0.34821 1.0737,0.56466 1.32677,0.48097 0.27202,-0.0899 0.57749,-2.759314 0.74717,-6.529245 z m -26.269588,4.335385 c 0.406648,-0.314644 0.552822,-2.574055 0.552822,-8.544395 v -8.116649 l -1.207205,0.458983 c -0.663961,0.252433 -1.357458,0.695303 -1.541124,0.984123 -0.389949,0.61328 -0.470399,14.505786 -0.08976,15.497788 0.259403,0.67601 1.198547,0.56101 2.285235,-0.27985 z m 22.223385,-7.163065 v -8.170393 l -1.304805,-0.67474 c -0.71765,-0.371094 -1.414208,-0.674743 -1.547913,-0.674743 -0.133721,0 -0.243089,3.742886 -0.243089,8.317506 v 8.317491 l 1.216216,0.480584 c 0.668909,0.26432 1.365465,0.50176 1.547895,0.52764 0.182429,0.0259 0.331696,-3.629635 0.331696,-8.123345 z m -18.640773,5.91584 1.392777,-0.48552 v -8.36554 -8.365543 l -1.601917,0.669327 c -0.881035,0.368118 -1.677096,0.66931 -1.769013,0.66931 -0.281651,0 -0.185154,14.917376 0.101294,15.663926 0.31926,0.831973 0.15729,0.813503 1.876826,0.21404 z m 14.392019,-0.21404 c 0.147595,-0.38475 0.268446,-4.04238 0.268446,-8.12808 V 83.00025 l -1.34096,-0.555446 c -0.737525,-0.305487 -1.483825,-0.412965 -1.658465,-0.238827 -0.174624,0.174123 -0.383062,3.860848 -0.463178,8.192708 l -0.14559,7.87612 1.251317,0.45589 c 1.716383,0.625353 1.783996,0.619713 2.088513,-0.17383 z m -9.119745,-10.05718 c 0.08241,-5.655404 -0.02908,-8.260284 -0.35366,-8.260284 -1.153215,0 -3.145081,1.413136 -2.898298,2.05622 0.141243,0.368319 0.256963,4.037224 0.256963,8.153124 v 7.48344 l 1.437339,-0.5861 1.437324,-0.5861 z m 5.022984,0.87088 0.127035,-7.89571 -1.08729,-0.602048 C 88.37802,79.660955 88.37364,79.675999 88.37364,88.407015 v 8.16762 l 1.216198,0.6443 c 0.668926,0.35438 1.349786,0.51 1.51306,0.34582 0.163307,-0.16414 0.354028,-3.85155 0.423897,-8.19419 z m 18.959658,-2.27619 c 0,-0.36486 -0.18727,-0.66338 -0.41615,-0.66338 -0.55769,0 -0.9571,0.69062 -0.60376,1.04395 0.49807,0.49806 1.01991,0.30335 1.01991,-0.38057 z m -0.91661,-1.38641 c 0.66861,-0.850003 0.91661,-1.80725 0.91661,-3.538042 0,-1.305023 -0.14926,-2.372773 -0.33169,-2.372756 -0.57358,1.7e-5 -2.82479,3.088651 -3.15999,4.335485 -0.73833,2.746293 0.87677,3.734333 2.57507,1.575313 z m -3.50596,-0.161473 c 0,-0.24324 -0.19901,-0.44225 -0.44224,-0.44225 -0.24324,0 -0.44226,0.19901 -0.44226,0.44225 0,0.243243 0.19902,0.442253 0.44226,0.442253 0.24323,0 0.44224,-0.19901 0.44224,-0.442253 z m -3.9803,-1.795128 c 0,-0.228881 -0.19901,-0.416158 -0.44225,-0.416158 -0.24324,0 -0.44225,0.310284 -0.44225,0.689486 0,0.37922 0.19901,0.56649 0.44225,0.41616 0.24324,-0.15027 0.44225,-0.46059 0.44225,-0.689488 z M 76.809004,83.291947 c 0.766024,-0.267025 1.39276,-0.618195 1.39276,-0.780349 0,-0.520678 -4.447128,-5.810219 -4.884899,-5.810219 -0.232191,0 -0.422176,1.067733 -0.422176,2.372756 0,1.730808 0.248003,2.688037 0.916611,3.538055 1.043162,1.326152 1.103922,1.339942 2.997704,0.679757 z m 24.478316,-0.869023 c 0.65557,-0.878952 0.81503,-1.715414 0.71026,-3.725767 l -0.13506,-2.59236 -2.321839,2.839394 c -1.277025,1.561667 -2.321843,3.058596 -2.321843,3.326491 0,0.580803 1.73422,1.493386 2.60667,1.371666 0.339082,-0.0473 0.996912,-0.596047 1.461862,-1.219424 z m -2.071449,-4.027126 c 1.577249,-1.953521 2.867729,-3.823501 2.867729,-4.155481 0,-0.668942 -1.33693,-1.519244 -2.388705,-1.519244 -0.59023,0 -6.898681,7.302903 -6.898681,7.98617 0,0.395297 2.830786,1.662761 3.213296,1.438744 0.186258,-0.109151 1.629115,-1.796667 3.206361,-3.750189 z m -18.160244,3.099399 c 0.619532,-0.282286 1.126437,-0.632704 1.126437,-0.778711 0,-0.145923 -1.399674,-2.004704 -3.110408,-4.130442 -3.15511,-3.920516 -3.95749,-4.394124 -5.515045,-3.255218 -0.812342,0.594008 -0.812793,0.642616 -0.01722,1.879591 1.770792,2.753126 5.213069,6.79802 5.78523,6.79802 0.332482,0 1.11141,-0.230954 1.730953,-0.51324 z m 27.876183,-1.558174 c 1.73526,-2.272598 1.59769,-2.895824 -0.76719,-3.475624 l -1.2162,-0.298166 v 2.922602 c 0,1.607434 0.0904,2.922602 0.20086,2.922602 0.11049,0 0.91262,-0.932139 1.78253,-2.071414 z M 72.452438,77.793132 c 0,-1.810841 -0.179655,-2.515219 -0.691591,-2.711673 -0.764687,-0.293452 -2.846464,0.502108 -2.846464,1.087775 0,0.530891 2.774305,4.070184 3.190446,4.070184 0.191189,0 0.347609,-1.10083 0.347609,-2.446286 z m 13.04552,2.00442 1.162191,-0.441867 -1.427612,-1.987905 C 84.447358,76.274423 82.886008,74.353897 81.76288,73.099922 l -2.042055,-2.279936 -1.64404,0.542576 c -0.904226,0.298416 -1.64404,0.648215 -1.64404,0.777306 0,0.129042 1.432375,2.004303 3.183058,4.167132 3.224204,3.983265 3.756082,4.298882 5.882155,3.490552 z m 9.872697,-3.404853 c 1.746187,-2.115709 3.174903,-3.974406 3.174903,-4.130459 0,-0.363455 -2.064679,-1.310204 -2.857314,-1.310204 -0.332432,0 -1.870163,1.542378 -3.417171,3.427485 -4.408032,5.371445 -4.152239,4.904941 -2.952823,5.385185 2.229556,0.892725 2.790384,0.580268 6.052405,-3.372007 z m 9.556195,1.68078 c 1.32416,-1.910781 1.22328,-2.519849 -0.52766,-3.185549 -1.45424,-0.552905 -1.85754,0.03794 -1.86655,2.734807 -0.01,3.175787 0.44616,3.261787 2.39421,0.450742 z"
       id="path1526" />
    <text
       xml:space="preserve"
       style="font-size:4.9389px;line-height:1.25;font-family:sans-serif;stroke-width:0.264583"
       x="5.6126595"
       y="120.53854"
       id="text1858"><tspan
         sodipodi:role="line"
         id="tspan1856"
         x="5.6126595"
         y="120.53854"
         style="stroke-width:0.264583">Prefabrykacja</tspan></text>
    <text
       xml:space="preserve"
       style="font-size:4.9389px;line-height:1.25;font-family:sans-serif;stroke-width:0.264583"
       x="76.44912"
       y="120.56475"
       id="text1858-3"><tspan
         sodipodi:role="line"
         id="tspan1856-4"
         x="76.44912"
         y="120.56475"
         style="stroke-width:0.264583">Szkielet</tspan></text>
    <text
       xml:space="preserve"
       style="font-size:4.9389px;line-height:1.25;font-family:sans-serif;stroke-width:0.264583"
       x="141.39561"
       y="119.76294"
       id="text1858-0"><tspan
         sodipodi:role="line"
         id="tspan1856-0"
         x="141.39561"
         y="119.76294"
         style="stroke-width:0.264583">Lekkie </tspan><tspan
         sodipodi:role="line"
         x="141.39561"
         y="125.93656"
         style="stroke-width:0.264583"
         id="tspan1886">Fundamenty</tspan></text>
  </g>
</svg>
