<?xml version="1.0" encoding="UTF-8" standalone="no"?>
<svg
   xmlns:dc="http://purl.org/dc/elements/1.1/"
   xmlns:cc="http://creativecommons.org/ns#"
   xmlns:rdf="http://www.w3.org/1999/02/22-rdf-syntax-ns#"
   xmlns:svg="http://www.w3.org/2000/svg"
   xmlns="http://www.w3.org/2000/svg"
   xmlns:sodipodi="http://sodipodi.sourceforge.net/DTD/sodipodi-0.dtd"
   xmlns:inkscape="http://www.inkscape.org/namespaces/inkscape"
   width="700"
   height="500"
   viewBox="0 0 185.20833 132.29167"
   version="1.1"
   id="svg8"
   inkscape:version="1.0.1 (3bc2e813f5, 2020-09-07)"
   sodipodi:docname="QHouseStrenght7pl.svg">
  <defs
     id="defs2" />
  <sodipodi:namedview
     id="base"
     pagecolor="#ffffff"
     bordercolor="#666666"
     borderopacity="1.0"
     inkscape:pageopacity="0.0"
     inkscape:pageshadow="2"
     inkscape:zoom="0.49497475"
     inkscape:cx="453.40384"
     inkscape:cy="525.27856"
     inkscape:document-units="mm"
     inkscape:current-layer="layer1"
     inkscape:document-rotation="0"
     showgrid="false"
     units="px"
     inkscape:snap-global="true"
     inkscape:window-width="1920"
     inkscape:window-height="1137"
     inkscape:window-x="-8"
     inkscape:window-y="-8"
     inkscape:window-maximized="1" />
  <metadata
     id="metadata5">
    <rdf:RDF>
      <cc:Work
         rdf:about="">
        <dc:format>image/svg+xml</dc:format>
        <dc:type
           rdf:resource="http://purl.org/dc/dcmitype/StillImage" />
        <dc:title></dc:title>
      </cc:Work>
    </rdf:RDF>
  </metadata>
  <g
     inkscape:label="Layer 1"
     inkscape:groupmode="layer"
     id="layer1">
    <rect
       style="fill:#ff6600;stroke:none;stroke-width:2.10748;stroke-miterlimit:4;stroke-dasharray:none;stroke-opacity:1"
       id="rect1065-9-6-5-6-6"
       width="184.31049"
       height="48.33202"
       x="0.84362435"
       y="0.26722199" />
    <path
       style="fill:#ffffff;stroke-width:1.05614"
       d="m 152.65756,49.883069 c -1.23348,-1.433071 -2.01159,-4.64593 -2.36599,-9.769319 l -0.52807,-7.634002 -7.63399,-0.52805 c -8.84965,-0.612169 -11.90467,-2.506739 -11.90467,-7.382669 0,-5.238351 3.15504,-7.400741 10.82547,-7.419521 3.6305,-0.009 7.13789,-0.36534 7.7942,-0.79211 0.65631,-0.42678 1.38465,-4.22008 1.61854,-8.4296003 0.49565,-8.92051 2.10104,-11.2513 7.7496,-11.2513 5.64856,0 7.25395,2.33079 7.74959,11.2513 0.23389,4.2095203 0.96224,8.0028203 1.61855,8.4296003 0.65631,0.42677 4.1637,0.78322 7.7942,0.79211 7.57413,0.0185 10.82547,2.18323 10.82547,7.20732 0,5.569461 -2.14035,7.012361 -11.26589,7.59487 l -8.27277,0.52805 -0.52807,7.634002 c -0.63427,9.169267 -2.45435,11.904689 -7.92108,11.904689 -2.42044,0 -4.35834,-0.744929 -5.55509,-2.13537 z"
       id="path1028-7" />
    <text
       xml:space="preserve"
       style="font-size:25.1422px;line-height:1.25;font-family:sans-serif;fill:#ffffff;stroke:#ff6200;stroke-width:1.51704;stroke-opacity:1"
       x="3.2762568"
       y="49.707947"
       id="text1120-9-5-2-0"><tspan
         sodipodi:role="line"
         id="tspan1118-7-0-2-6"
         x="3.2762568"
         y="49.707947"
         style="font-style:normal;font-variant:normal;font-weight:bold;font-stretch:normal;font-size:25.1422px;font-family:sans-serif;-inkscape-font-specification:'sans-serif Bold';fill:#ffffff;stroke:#ff6200;stroke-width:1.51704;stroke-opacity:1">DODATKI</tspan></text>
    <path
       style="fill:#0c0c0c;stroke-width:0.264583"
       d="m 77.436205,102.488 c 0.001,-0.10914 0.24038,-1.56765 0.53204,-3.241143 0.29165,-1.67349 1.00512,-6.07881 1.58549,-9.78959 2.50747,-16.03216 3.44181,-21.848837 3.55946,-22.158847 0.0943,-0.2486 1.37589,-0.330732 5.16088,-0.330732 h 5.03539 v 1.984369 1.98438 h -3.17501 c -2.36211,0 -3.17571,0.0847 -3.17781,0.33073 -10e-4,0.18193 -0.23966,1.86534 -0.52915,3.741 -0.64625,4.18695 -0.65197,3.96023 0.0876,3.47567 0.33769,-0.22127 1.26487,-0.53303 2.06039,-0.69279 1.31612,-0.26434 1.62428,-0.22659 3.42092,0.41889 2.9848,1.07236 3.53222,1.08686 5.85502,0.15491 2.813285,-1.12873 4.333025,-1.10074 7.387715,0.13603 2.00178,0.81042 2.57013,0.93244 3.87326,0.83134 1.15812,-0.0898 3.90767,-0.86479 5.79734,-1.6339 0.0402,-0.0164 -0.59922,-4.51843 -0.83824,-5.90198 l -0.14856,-0.85987 h -3.03072 -3.03072 v -1.98441 -1.984337 h 4.88281 4.8828 l 0.15067,0.859869 c 0.0829,0.472938 0.56574,3.717388 1.07304,7.209888 0.5073,3.4925 1.45034,9.98141 2.09563,14.41979 0.6453,4.43839 1.35845,9.12718 1.58479,10.41956 0.22633,1.292363 0.41151,2.453223 0.41151,2.579693 0,0.1284 -10.04768,0.22995 -22.75417,0.22995 -12.514785,0 -22.753355,-0.0893 -22.752395,-0.19847 z m 40.653015,-4.233333 c -0.0697,-0.25466 -0.2633,-1.29646 -0.43024,-2.31511 -0.52524,-3.20503 -0.44732,-3.0427 -1.46049,-3.0427 -0.50237,0 -1.89908,0.36629 -3.10382,0.81396 -3.06965,1.1407 -4.62859,1.11051 -7.86676,-0.15237 -3.6068,-1.40669 -4.60024,-1.44333 -7.764385,-0.28657 -1.42605,0.52133 -2.94433,0.94789 -3.37395,0.94789 -0.42961,0 -1.81198,-0.35718 -3.07191,-0.79375 -2.70043,-0.93567 -3.55129,-0.97599 -5.4675,-0.25902 -1.79746,0.67249 -2.18679,1.12138 -2.40482,2.77256 -0.0961,0.72761 -0.23916,1.65034 -0.31797,2.05053 l -0.1433,0.72763 H 100.45 c 16.79183,0 17.75899,-0.0254 17.63922,-0.46305 z m -5.65837,-6.03703 c 0.90662,-0.37359 2.28108,-0.74821 3.05436,-0.83251 l 1.40597,-0.1533 -0.17717,-1.65438 c -0.35354,-3.30132 -0.41355,-3.4298 -1.59249,-3.40948 -0.574,0.0101 -1.9363,0.36656 -3.02733,0.79254 -2.77239,1.08249 -4.20509,1.03306 -7.40766,-0.25578 -3.06661,-1.23409 -4.27098,-1.29153 -6.614565,-0.31549 -2.74894,1.14486 -3.81102,1.16854 -6.64111,0.14806 -2.26786,-0.81777 -2.50583,-0.85362 -3.64721,-0.54961 -0.67158,0.17888 -1.71024,0.61113 -2.30811,0.96057 -0.94033,0.54961 -1.10806,0.78859 -1.24285,1.77061 -0.0857,0.62439 -0.23587,1.63526 -0.3337,2.24637 l -0.17789,1.11109 1.35743,-0.51578 c 1.99319,-0.75734 3.9152,-0.67238 6.28862,0.27797 1.09026,0.43657 2.32148,0.79375 2.73607,0.79375 0.41457,0 1.68548,-0.38692 2.82427,-0.85989 1.76601,-0.73345 2.38179,-0.85791 4.187175,-0.84635 1.83431,0.0119 2.41667,0.14287 4.36562,0.98292 2.84128,1.22468 4.54403,1.30033 6.95057,0.30869 z m -0.24604,-6.99359 c 1.09042,-0.43659 2.40175,-0.79386 2.91406,-0.79386 1.0458,0 1.03263,0.14015 0.32316,-3.43958 -0.27695,-1.39743 -0.31915,-1.45188 -1.06272,-1.37142 -0.42587,0.0461 -1.49655,0.38725 -2.37927,0.75816 -2.30665,0.96917 -4.20747,0.92205 -6.76434,-0.16771 -2.95331,-1.25871 -4.2258,-1.31654 -6.834255,-0.31063 -2.59257,0.99979 -3.47511,1.02519 -5.75891,0.16555 -2.2866,-0.86066 -3.85001,-0.85394 -5.61216,0.0241 -1.02286,0.50969 -1.41265,0.86611 -1.51919,1.38906 -0.0788,0.38687 -0.25693,1.13395 -0.39585,1.66016 -0.13889,0.5262 -0.25255,1.27274 -0.25255,1.65901 v 0.70229 l 1.12448,-0.5909 c 1.66187,-0.87331 4.08004,-0.8249 6.1174,0.12245 1.99783,0.92897 2.84378,0.90939 5.37199,-0.12424 2.853675,-1.16671 4.480315,-1.14213 7.494465,0.11333 1.23692,0.51524 2.48708,1.0013 2.77812,1.08017 0.90054,0.24402 2.38947,-0.0487 4.45557,-0.87603 z m -6.78357,-9.42774 c -0.10205,-0.10205 -0.18554,-0.93962 -0.18554,-1.86129 v -1.67566 l -2.71198,-0.0315 c -1.49159,-0.0172 -3.366825,-0.0567 -4.167185,-0.0876 -2.34707,-0.0906 -2.38125,-0.0638 -2.38125,1.86973 0,1.51257 -0.0553,1.68897 -0.52917,1.68897 -0.51581,0 -0.52915,-0.1764 -0.52915,-6.99426 0,-4.298467 0.10845,-7.281306 0.2814,-7.739056 0.57,-1.50863 2.45834,-2.99379 3.80649,-2.99379 0.50168,0 0.6746,0.137769 0.6746,0.537499 0,0.295621 -0.20836,0.600871 -0.46302,0.678341 -1.86227,0.5665 -3.24115,2.11667 -3.24115,3.643789 0,0.92543 0.40061,0.99573 5.159375,0.904772 l 3.96875,-0.0758 0.0714,-0.92606 c 0.1228,-1.59213 0.30804,-2.078389 1.1623,-3.05136 0.9648,-1.098849 2.03343,-1.71114 2.98647,-1.71114 0.54318,0 0.6746,0.128871 0.6746,0.661451 0,0.495149 -0.13942,0.661439 -0.55449,0.661439 -0.72153,0 -1.90295,0.70553 -2.37767,1.419911 -0.29209,0.439517 -0.40442,2.17442 -0.50742,7.837174 -0.11437,6.28727 -0.18782,7.28333 -0.54207,7.35131 -0.22538,0.0433 -0.49327,-0.005 -0.59531,-0.10686 z m -0.23571,-5.85208 -0.0821,-0.99217 h -4.49792 -4.497915 l -0.0821,0.99217 -0.0821,0.99221 h 4.662135 4.66216 z m -0.002,-3.704138 -0.0806,-1.256781 H 100.585 96.087085 l -0.0806,1.256781 -0.0805,1.256771 h 4.659185 4.65919 l -0.0806,-1.256771 z"
       id="path1771" />
    <path
       style="fill:#000000;stroke-width:0.264583"
       d="m 0.32893454,100.58565 c -0.40203,-0.44424 -0.44404,-1.634603 -0.44404,-12.581133 v -12.09047 l -0.93227004,-1.85121 c -0.6931,-1.37631 -0.86821,-1.97094 -0.68258,-2.31781 0.37329,-0.69747 26.9423605,-14.206298 27.9408905,-14.206298 1.0181,0 27.57096,13.515078 27.95212,14.227258 0.20066,0.37496 0.043,0.9086 -0.68258,2.31074 l -0.9435,1.82319 v 12.1435 c 0,11.50286 -0.0259,12.167003 -0.49213,12.588873 -0.42204,0.38196 -1.03433,0.4349 -4.29948,0.37174 l -3.80734,-0.0736 -0.0777,-2.075613 c -0.0488,-1.30257 0.0372,-2.21408 0.23083,-2.44739 0.19503,-0.23501 0.83209,-0.3718 1.73137,-0.3718 h 1.42282 l -0.002,-10.64947 -0.002,-10.64948 -2.84271,-1.45524 c -1.56346,-0.80039 -6.29615,-3.21913 -10.51705,-5.375007 l -7.67435,-3.919752 -7.80377,3.996529 c -4.29185,2.19811 -9.0239405,4.61423 -10.5155205,5.36917 l -2.71198,1.37263 v 10.65532 10.6553 h 1.42281 c 0.89928,0 1.53635,0.13679 1.73137,0.3718 0.19364,0.23331 0.27961,1.14482 0.23084,2.44739 l -0.0777,2.075613 -3.85544,0.0729 c -3.47309,0.0657 -3.89920996,0.0243 -4.29923996,-0.41773 z M 12.577605,97.217477 c -0.18516,-0.22313 -0.39102,-0.9714 -0.45746,-1.66288 -0.1023,-1.06469 -0.25322,-1.34396 -0.9858,-1.82417 -1.04168,-0.68284 -1.8854805,-2.33239 -2.2809105,-4.45897 -0.37458,-2.01444 -0.16376,-3.75116 0.6787,-5.59136 0.36933,-0.80672 0.6715105,-1.57443 0.6715105,-1.70612 0,-0.13163 -0.6562705,-0.21788 -1.4583805,-0.19166 -0.80211,0.0262 -1.54625,-0.0404 -1.65365,-0.14814 -0.33624,-0.33713 -0.13887,-2.85023 0.24285,-3.09213 0.52427,-0.33229 3.0782105,-0.28163 3.7464705,0.0743 0.31786,0.16932 0.70396,0.4787 0.85802,0.68755 0.21726,0.29453 0.38362,0.003 0.74152,-1.3 0.83038,-3.02282 2.7778,-5.264 5.38076,-6.19247 1.43785,-0.5129 14.86155,-0.5129 16.2994,0 2.62115,0.9349 4.39929,2.92637 5.28427,5.9181 0.43416,1.46769 0.63811,1.84522 0.84518,1.56455 0.15011,-0.20343 0.533,-0.50841 0.85085,-0.67773 0.66826,-0.35591 3.22221,-0.40656 3.74647,-0.0743 0.38173,0.2419 0.5791,2.755 0.24285,3.09213 -0.1074,0.10766 -0.85154,0.17433 -1.65365,0.14814 -0.80211,-0.0262 -1.45838,0.06 -1.45838,0.19166 0,0.13169 0.30218,0.8994 0.67151,1.70612 0.84247,1.8402 1.05328,3.57692 0.67871,5.59136 -0.40148,2.15908 -1.25708,3.81664 -2.28232,4.42155 -0.73944,0.43628 -0.87078,0.67914 -0.97957,1.81131 -0.18306,1.90514 -0.45718,2.11879 -2.71853,2.11879 -1.23327,0 -2.01971,-0.12065 -2.19964,-0.33745 -0.15403,-0.18555 -0.31744,-0.92972 -0.36313,-1.65365 l -0.0831,-1.31619 h -8.73125 -8.73125 l -0.0831,1.31619 c -0.0457,0.72393 -0.20909,1.4681 -0.36312,1.65365 -0.42359,0.51041 -4.0214,0.45535 -4.45589,-0.0682 z m 5.81251,-8.78864 c -0.009,-0.25466 -0.27774,-0.9988 -0.59811,-1.65365 l -0.58248,-1.19062 -2.35609,-0.0771 c -2.62893,-0.086 -2.78709,0.003 -2.79366,1.57681 -0.008,1.80705 -0.007,1.80758 3.33155,1.80758 2.70042,0 3.01278,-0.0482 2.99879,-0.46302 z m 12.45816,-0.66146 c 0.28073,-0.61846 0.51303,-1.39237 0.51623,-1.71979 l 0.006,-0.59532 h -5.15939 -5.15938 l 0.006,0.59532 c 0.003,0.32742 0.2355,1.10133 0.51623,1.71979 l 0.51042,1.12448 h 4.12691 4.12691 l 0.51042,-1.12448 z m 9.35727,0.70599 c 0.23081,-0.60151 0.1904,-2.29987 -0.0643,-2.70129 -0.157,-0.24749 -0.86673,-0.32041 -2.57432,-0.26459 l -2.35755,0.0771 -0.45117,0.95978 c -0.24815,0.5279 -0.52954,1.27204 -0.62532,1.65364 l -0.17415,0.69387 h 3.04309 c 2.53082,0 3.07011,-0.0705 3.20368,-0.41851 z m -3.44145,-9.04039 c -0.48645,-2.05126 -1.6155,-3.53349 -3.20247,-4.20421 -1.21966,-0.51546 -13.48172,-0.51546 -14.70137,0 -1.58698,0.67072 -2.71603,2.15295 -3.20248,4.20421 l -0.17254,0.72763 h 10.7257 10.72571 z"
       id="path1769" />
    <path
       style="fill:#000000;stroke-width:0.326946"
       d="m 150.77974,86.200437 v -13.19342 l 5.10433,-4.21646 c 2.80739,-2.319098 5.49243,-4.502908 5.96677,-4.852909 0.47434,-0.350038 1.6916,-1.343149 2.70503,-2.20689 1.01343,-0.86375 2.01258,-1.570479 2.22032,-1.570479 0.38749,0 2.03939,1.304549 10.92814,8.630278 l 5.11613,4.21646 v 13.19342 13.19337 H 166.8001 150.77974 Z m 15.66235,8.34723 c 0.3575,-0.66799 -0.91083,-6.25255 -1.6119,-7.09729 -0.28905,-0.3483 -1.10742,-0.48053 -2.97432,-0.48053 h -2.57554 v -1.77695 -1.77696 l 1.65654,1.61348 c 1.71447,1.66992 3.08075,2.10195 3.46671,1.09617 0.13523,-0.35243 -0.32854,-0.97846 -1.45457,-1.96348 -0.90921,-0.79533 -2.10296,-2.1772 -2.65278,-3.0708 -1.09313,-1.77655 -2.16414,-2.29476 -3.4921,-1.68971 -0.78462,0.3575 -0.79325,0.41119 -0.79325,4.92948 0,4.00552 0.0704,4.60901 0.57215,4.90122 0.47099,0.27434 0.48255,0.33501 0.0654,0.34321 -0.81822,0.0161 -1.33839,0.70372 -0.91668,1.21188 0.25381,0.3058 1.30968,0.43278 3.59888,0.43278 2.6689,0 3.27508,-0.0922 3.44055,-0.5234 0.11048,-0.2879 -2.3e-4,-0.6477 -0.246,-0.7996 -0.24577,-0.1519 -0.33832,-0.38471 -0.20567,-0.51737 0.43498,-0.43497 0.88134,0.37201 1.55959,2.81954 0.36735,1.32561 0.74217,2.53036 0.83292,2.67721 0.30077,0.48665 1.40606,0.27657 1.73008,-0.32888 z m 4.60831,-9.70298 c -0.29237,-1.2963 -0.044,-2.65407 0.99222,-5.42499 0.81659,-2.18358 0.6982,-3.77228 -0.35194,-4.72263 -0.65023,-0.58846 -0.65138,-0.58452 -0.1668,0.57526 0.52154,1.24819 0.52829,1.20337 -0.95112,6.31393 -0.52274,1.8057 -0.5281,2.07555 -0.0634,3.18773 0.63864,1.5285 0.87685,1.55964 0.54104,0.0707 z m -3.16757,-0.57211 c -0.0991,-0.95197 0.11937,-2.154 0.69405,-3.81717 0.46134,-1.3352 0.83879,-2.85054 0.83879,-3.36743 0,-0.88781 -0.80396,-2.86901 -1.16421,-2.86901 -0.0916,0 -0.0142,0.28456 0.17187,0.6324 0.52368,0.97851 0.40125,2.25081 -0.4831,5.01986 -0.87747,2.7476 -1.0077,4.16261 -0.47473,5.15845 0.49859,0.93163 0.57819,0.78722 0.41733,-0.7571 z m 9.46845,-0.0101 c -0.11665,-1.03478 0.0641,-1.92659 0.69407,-3.4231 1.07213,-2.54734 1.14254,-4.90665 0.17941,-6.01228 l -0.67235,-0.77186 0.38561,0.78926 c 0.49299,1.00904 0.20902,3.75732 -0.54114,5.23721 -0.72177,1.4238 -0.97549,3.96569 -0.48696,4.87855 0.53907,1.00721 0.61925,0.88046 0.44136,-0.69778 z m -3.10471,-0.31713 c -0.007,-0.78187 0.36236,-2.30778 0.8469,-3.48931 1.11906,-2.72871 1.12358,-4.28124 0.0161,-5.48347 -0.74047,-0.80377 -0.78096,-0.81729 -0.32694,-0.109 0.70831,1.10499 0.66385,1.61177 -0.44524,5.07411 -0.86131,2.68879 -0.94091,3.50085 -0.48903,4.98847 0.24367,0.80211 0.4123,0.38682 0.39832,-0.98083 z m -14.66302,-6.01085 c 0.88988,-1.13128 0.85551,-1.93292 -0.12488,-2.9133 -2.14394,-2.14392 -5.1756,0.83999 -3.10811,3.05921 0.9347,1.0033 2.38037,0.938 3.23299,-0.14591 z"
       id="path1787" />
    <text
       xml:space="preserve"
       style="font-size:4.9389px;line-height:1.25;font-family:sans-serif;stroke-width:0.264583"
       x="18.34251"
       y="112.48529"
       id="text1858-5"><tspan
         sodipodi:role="line"
         id="tspan1856-8"
         x="18.34251"
         y="112.48529"
         style="stroke-width:0.264583">Garaż,</tspan><tspan
         sodipodi:role="line"
         x="18.34251"
         y="118.65892"
         style="stroke-width:0.264583"
         id="tspan2041">wiata</tspan></text>
    <text
       xml:space="preserve"
       style="font-size:4.9389px;line-height:1.25;font-family:sans-serif;stroke-width:0.264583"
       x="92.386215"
       y="112.51147"
       id="text1858-3-1"><tspan
         sodipodi:role="line"
         id="tspan1856-4-33"
         x="92.386215"
         y="112.51147"
         style="stroke-width:0.264583">Basen</tspan></text>
    <text
       xml:space="preserve"
       style="font-size:4.9389px;line-height:1.25;font-family:sans-serif;stroke-width:0.264583"
       x="153.05638"
       y="111.97687"
       id="text1858-0-2"><tspan
         sodipodi:role="line"
         x="153.05638"
         y="111.97687"
         style="stroke-width:0.264583"
         id="tspan1886-8">Sauna,</tspan><tspan
         sodipodi:role="line"
         x="153.05638"
         y="118.1505"
         style="stroke-width:0.264583"
         id="tspan2045">Kuchnia</tspan><tspan
         sodipodi:role="line"
         x="153.05638"
         y="124.32411"
         style="stroke-width:0.264583"
         id="tspan2047">zewnętrzna</tspan></text>
  </g>
</svg>
