<?xml version="1.0" encoding="UTF-8" standalone="no"?>
<svg
   xmlns:dc="http://purl.org/dc/elements/1.1/"
   xmlns:cc="http://creativecommons.org/ns#"
   xmlns:rdf="http://www.w3.org/1999/02/22-rdf-syntax-ns#"
   xmlns:svg="http://www.w3.org/2000/svg"
   xmlns="http://www.w3.org/2000/svg"
   xmlns:sodipodi="http://sodipodi.sourceforge.net/DTD/sodipodi-0.dtd"
   xmlns:inkscape="http://www.inkscape.org/namespaces/inkscape"
   width="1920"
   height="2300"
   viewBox="0 0 508 608.54169"
   version="1.1"
   id="svg112240"
   sodipodi:docname="QHouseHome1pl.svg"
   inkscape:version="1.0.1 (3bc2e813f5, 2020-09-07)">
  <sodipodi:namedview
     pagecolor="#ffffff"
     bordercolor="#666666"
     borderopacity="1"
     objecttolerance="10"
     gridtolerance="10"
     guidetolerance="10"
     inkscape:pageopacity="0"
     inkscape:pageshadow="2"
     inkscape:window-width="1920"
     inkscape:window-height="1137"
     id="namedview118"
     showgrid="false"
     inkscape:zoom="0.11313708"
     inkscape:cx="2207.7463"
     inkscape:cy="-57.069819"
     inkscape:window-x="-8"
     inkscape:window-y="-8"
     inkscape:window-maximized="1"
     inkscape:current-layer="svg112240"
     inkscape:document-rotation="0" />
  <defs
     id="defs112234" />
  <metadata
     id="metadata112237">
    <rdf:RDF>
      <cc:Work
         rdf:about="">
        <dc:format>image/svg+xml</dc:format>
        <dc:type
           rdf:resource="http://purl.org/dc/dcmitype/StillImage" />
        <dc:title />
      </cc:Work>
    </rdf:RDF>
  </metadata>
  <path
     style="fill:#4d4d4d;stroke:none;stroke-width:0.721773"
     d="m 124.49307,134.09236 v 335.62432 h 2.88709 v 0.72176 h -2.88709 c 0.0869,2.6648 0.22615,4.16967 2.88709,5.0524 v 0.72181 l -2.88709,1.44351 3.60885,-2.16532 11.54838,-1.44354 -0.72178,2.16535 29.59268,3.60884 v 0.72181 h -16.60077 l 0.72178,1.44354 h -0.72178 c -5.83604,-2.30391 -13.07736,-1.63121 -19.48786,-2.16535 -1.8937,-0.15806 -6.23867,-1.01915 -7.57861,0.84235 -0.73793,1.02489 -0.36089,3.0271 -0.36089,4.21008 0,10.13513 10.28764,4.7103 17.08198,5.65364 1.2701,0.17685 -0.66093,0.92747 -0.48121,0.8423 v 0.72179 h 2.88709 l -0.72177,-1.44354 c 3.70767,-0.26202 8.99783,0.18907 11.54836,-2.88714 l 5.77418,-0.72173 -0.72177,1.44354 c 4.42685,-1.94373 6.9916,-0.1061 11.51993,-0.14724 11.4266,-0.10467 22.53598,0.74414 33.95175,1.52583 16.48168,1.12884 34.83852,3.18807 51.23503,0.56732 8.89873,-1.42264 17.32254,-5.01492 25.99465,-6.99831 v -0.72181 h -6.49597 v -0.72173 c 2.28082,-0.74131 5.83555,-1.76046 5.77419,-4.33068 l 1.44354,5.05241 c 2.3768,-1.84192 3.78714,-3.43128 3.60886,-6.49592 l 3.60887,-3.60889 -5.77419,2.88708 3.60889,-4.33062 -2.16532,0.72181 c 5.6493,-5.83917 4.33062,-12.57115 4.33062,-20.20967 l -2.1653,1.44354 -4.33065,-6.49594 -5.0524,-6.49597 c -3.30428,5.51651 -1.60668,10.98034 0,16.60078 h -0.72178 l -2.16533,-4.33063 h -0.72175 l 2.16532,6.49595 h -0.72178 l -0.72179,-2.88708 h -0.72175 v 5.77416 h -0.72179 l -0.72178,-2.88708 -2.1653,1.44354 c 0,-6.25343 -0.17468,-11.37153 -6.49597,-14.43546 l 1.44357,-5.77418 6.49594,-1.44354 -0.72178,2.88708 -4.33062,-0.72176 c 0.0808,3.35193 4.40642,10.72626 6.72835,4.28588 2.27431,-6.30973 -2.89213,-13.89483 1.93292,-19.44309 l -1.44354,8.66127 1.44354,3.60886 h 0.72178 l 4.33062,-7.93951 -0.72178,1.44354 2.16532,-0.72176 -1.44354,-10.82659 -2.16532,0.72176 c -1.58573,-4.38333 -1.44571,-7.60532 2.16532,-10.82659 l -2.16532,-7.93949 h -0.72176 c -0.0498,5.54392 -3.13251,9.256 -4.13216,14.43546 -1.08193,5.60239 -0.35367,11.67394 -1.52871,17.28213 -0.52475,2.50092 -2.19995,2.87409 -4.44397,2.92751 l 2.16533,-0.72178 v -0.72179 c -11.86017,-0.54348 -6.79117,-9.46965 -10.10482,-17.32253 h 1.44355 l -0.72177,-2.16533 h 5.05242 l -6.49597,-3.60886 v -0.72178 c 3.06321,-0.0368 4.71389,-0.28004 6.49597,-2.88708 l -5.7742,-2.88708 c 2.64023,0.0606 4.9124,0.76578 5.7742,-2.16533 -2.56014,-0.18767 -3.59299,-1.18586 -4.33065,-3.60886 h 0.72178 l 2.88708,2.88708 -1.44354,-1.44354 0.72176,-1.44354 -3.60885,-1.44354 -1.44355,2.88708 c -1.38652,-7.71718 1.84124,-8.48299 7.93951,-11.54835 l -0.72179,-3.60886 c -2.59405,0.36015 -5.85429,1.56408 -8.42668,0.63587 -2.84668,-1.02709 -3.925,-4.366 -7.42416,-4.03831 -2.16676,0.2028 -4.01378,1.91847 -5.83048,2.96937 -15.2128,8.79406 -9.97851,25.60415 -9.3549,40.13057 -6.72403,0.4908 -0.88561,5.19171 -2.20573,8.60134 -0.96429,2.49229 -4.41653,1.76908 -5.77418,3.84924 -1.32446,2.03033 0.11908,5.15921 -2.84667,5.59374 l -5.77419,7.93948 c -0.50235,-3.70919 -1.28259,-7.86805 -5.77418,-7.21773 l 4.4122,10.19794 -2.67056,7.1246 4.03254,10.82659 -17.32254,0.72181 v 4.33059 l -25.26205,0.51539 -48.35876,-7.01133 v -0.72178 l 32.47977,-1.44354 -0.72178,1.44354 h 23.8185 l 1.41511,-102.4917 0.75021,-41.86283 2.88709,-0.72178 h 0.72178 l 3.60886,0.72178 v -1.44354 h 6.49595 c 0.8784,-3.07332 3.11734,-5.32307 6.49596,-4.33064 l 1.44355,-4.33065 h 0.72176 l 1.44355,1.44357 v -5.05243 2.16532 h 0.72177 l 0.72178,-3.60887 2.16531,0.72179 2.8871,-5.05241 -1.44355,-2.16532 4.33063,1.44354 v -0.72178 l -1.44355,-0.72176 1.44355,-2.16532 2.88709,1.44354 -2.16531,-3.60887 4.33063,2.88711 h 0.72178 l -0.72178,-3.60886 5.05241,-0.72179 h 0.72177 l -0.72177,-2.88708 h 2.88709 l 0.72177,-3.60886 1.44355,1.44354 -0.72178,-5.0524 h -1.44354 l -2.16532,2.16532 -0.72177,5.0524 -2.88709,-0.72178 v 0.72178 l 1.44354,0.72176 -4.33063,0.72178 -0.72178,-2.8871 c 0.98018,-0.19632 11.26688,-1.95744 6.49596,-5.77416 l 2.88709,-2.88711 h 2.16532 c 1.05956,2.14294 3.03289,2.67417 3.60886,0 h -0.72177 l -0.72177,1.44354 h -0.72178 l -2.16532,-5.05241 2.8871,0.72179 -0.72178,-2.16533 -2.88709,1.44354 -0.72177,-0.72175 c 2.08015,-3.75034 2.41938,-3.66517 6.49595,-4.33065 v -0.72178 l -2.16531,0.72178 1.44354,-3.60886 -0.72177,-1.44354 2.88709,0.72175 0.72177,-3.60886 h -2.88709 v -0.72176 l 4.33064,0.72176 v -2.1653 l 1.44354,2.1653 2.88709,-0.72176 v -0.72178 l -2.16531,-0.72176 0.72177,-3.60886 5.77418,-1.44355 c 0,-2.52548 1.85279,-1.1736 3.60886,-0.72177 v -0.72178 l -1.44354,-2.16532 2.16532,-1.44354 1.44354,0.72177 h 0.72178 l -0.72178,-2.88709 5.77419,-1.44354 -0.72178,1.44354 h 0.72178 l 14.43546,-2.16531 v -0.72178 l -12.24201,-2.12562 -7.81462,0.65897 -6.64897,-10.80349 h -1.44355 v 4.33064 l 2.88709,2.88709 h -7.21772 v 2.88709 l -6.49596,-0.72178 v -0.72176 h 2.16532 c -1.26599,-2.89359 -2.5991,-4.08019 -5.77418,-4.33064 v -0.72177 l 10.82659,-5.05241 -1.44355,-0.72177 v -0.72178 l 5.77418,2.16532 c -1.01336,-3.52009 -7.50643,-12.53142 -4.33063,-15.15722 v -0.72178 c -3.54535,-1.09349 -4.43529,-3.6897 -4.33064,-7.21773 l 5.05241,-0.72177 5.05241,8.66128 h 7.21773 v 0.72177 h -6.49596 c 1.75103,5.37359 2.6684,7.91856 8.66127,7.9395 v 0.72177 h -5.0524 c 0.68784,4.55438 2.576,4.70884 5.77418,7.21772 7.90992,-1.3295 18.98911,-5.5793 25.98382,-2.16531 0,-6.01021 -3.34685,-19.34423 4.33062,-20.20964 0,-4.76153 -0.90437,-9.6501 5.0524,-10.10481 v 5.77418 h -0.72173 l -1.44359,-1.44355 c 4.89728,10.20153 2.16532,25.57168 2.16532,36.8104 v 82.2821 h 0.72181 c 0,-22.43487 -3.37214,-47.96179 0.72178,-70.01195 h 0.72176 v 46.19344 h 0.72178 l 0.72174,-99.60462 4.33067,0.72177 0.72173,-5.77418 h 0.72181 v 1.44354 h 0.72178 l 0.72176,-2.16531 c 5.61395,5.93874 7.96478,-0.25775 10.10481,-5.77419 l -2.88708,2.88709 h -5.05241 l 2.88708,-19.48786 2.16533,0.72177 1.9423,-11.54837 5.99718,-23.09672 h 0.72181 l 0.72176,7.9395 c 2.69293,-7e-5 3.66731,5.77425 0,5.77418 l 1.44354,7.21773 h -0.72179 l -0.72175,-1.44355 -2.1653,17.32255 h -0.72181 v -2.16532 h -0.72173 l -1.44354,6.49596 h 0.72173 l 0.72181,-4.33064 h 0.72173 l -2.16527,10.82659 77.22965,3.60887 c 3.18953,5.8919 3.46163,10.61944 1.44352,17.32254 h 4.33067 l -2.16532,3.60886 2.16532,2.88709 c -1.81742,1.30785 -2.57313,2.70881 -0.72178,4.33063 l 0.72178,4.33065 2.88708,0.72176 h 0.72178 v -2.16531 h 0.72176 l 2.16532,1.44355 -0.72178,-2.16532 c 6.42305,-0.45183 7.18889,-9.81828 7.21704,-15.15723 0.0888,-16.84032 0,-33.68354 0,-50.52409 -4.70019,0.93339 -9.93447,-0.20015 -14.43545,1.08987 -12.14314,3.48025 -18.85054,8.656 -30.31445,-1.08987 l 7.93948,3.60886 v -0.72177 l -5.77419,-3.60887 3.60887,1.44355 v -0.72177 l -5.05241,-5.05241 9.38305,3.60886 v -0.72177 l -5.77418,-4.33064 12.27013,2.88709 v -0.72177 l -8.66127,-4.33064 18.7661,2.16532 V 154.302 l -14.43543,-2.16532 v -1.44355 l 17.32254,0.72178 v -0.72178 l -11.5484,-0.72177 2.88713,-2.88709 10.82654,0.72178 v -0.72178 h -7.93946 l 1.44354,-2.88709 h 8.66127 v -0.72178 l -5.77416,-0.72177 v -1.44354 l 10.10481,-1.44355 v -0.72177 h -7.21773 V 138.423 l 10.82659,-2.88709 v -0.72177 l -62.79422,-0.72178 v 0.72178 h 10.1048 c -0.12848,2.94506 -0.26704,5.56668 -2.88708,7.21772 v 0.72177 c 2.15525,2.11061 3.83334,8.12536 -0.10392,9.6125 -4.87847,1.84226 -14.91907,1.12027 -20.04076,0.21221 -2.6756,-0.47428 -4.52983,-2.0629 -7.28266,-1.88521 l -0.72178,-5.77418 -2.88708,1.44355 1.44354,-12.27014 h -6.49597 l -1.44352,15.879 h -0.72178 v -8.66127 h -0.72181 l -0.72173,9.38304 -10.10481,-0.72177 v -2.16531 c -1.35046,0.22129 -7.35343,-0.0451 -5.0524,-2.16532 v -2.8871 l -2.16535,-0.72177 v -2.88709 l 7.93948,0.72177 1.44354,-2.8871 c -60.60585,-6.96722 -123.60686,-2.88708 -184.77312,-2.88708 m 194.15686,0 -0.72178,6.49596 h 1.44359 l -0.72181,-6.49596 m 14.43548,0 -2.88713,7.21773 4.33065,-7.21773 h -1.44352 m 81.31995,0.24058 0.48067,0.24062 -0.48067,-0.24062 m -50.28374,0.4812 -1.44354,7.21772 h -2.16532 v -7.21772 h 3.60886 m -62.79422,2.1653 0.72178,1.44356 -0.72178,-1.44356 m 8.66126,0 1.44354,1.44356 -1.44354,-1.44356 m 5.77419,0.72179 0.72176,0.72177 -0.72176,-0.72177 m 97.43929,0 0.72179,0.72177 -0.72179,-0.72177 m -106.82234,0.72177 -0.72181,0.72177 0.72181,-0.72177 m 104.65705,0 0.72175,0.72177 -0.72175,-0.72177 m -102.49173,0.72177 0.72176,0.72177 -0.72176,-0.72177 m 106.10059,0.72177 0.72176,0.72178 -0.72176,-0.72178 m -3.60886,1.44355 0.72175,0.72177 -0.72175,-0.72177 m -1.68389,0.96234 0.48067,0.24064 -0.48067,-0.24064 m -3.36852,0.4812 v 0.72177 h 2.1653 l -2.1653,-0.72177 m 7.2177,0 0.72179,0.72177 -0.72179,-0.72177 m -113.55863,1.20298 -0.24109,0.48114 0.24109,-0.48114 m 5.77418,-0.24064 0.48067,0.24064 -0.48067,-0.24064 m 55.8168,-0.24057 2.16535,8.66128 h -3.60887 l 1.44352,-8.66128 m 32.47982,1.44355 -1.44354,1.44355 1.44354,-1.44355 m 9.38303,15.15723 12.27013,0.72177 v -15.879 c -5.31948,2.59362 -9.78292,9.9002 -12.27013,15.15723 m -97.43935,-13.71368 0.72181,0.72177 -0.72181,-0.72177 m 19.48788,0 -0.72175,0.72177 0.72175,-0.72177 m 79.87642,0.24056 0.48072,0.24065 -0.48072,-0.24065 m -14.91684,0.48121 -0.72181,0.72178 0.72181,-0.72178 m -2.88713,0.72178 1.44359,0.72177 v 0.72177 l -1.44359,-1.44354 m 20.93142,0 0.72178,0.72177 -0.72178,-0.72177 m -92.38689,8.66127 c -1.46666,4.41811 -7.14124,2.61448 -10.8295,2.28564 -10.23689,-0.91261 -20.74807,-0.8421 -31.03335,-0.8421 v 0.72177 l 0.72178,3.60887 h -1.44354 l -2.16532,-5.05241 v 7.21773 l -2.88708,0.72177 -1.44354,-5.05241 h -0.72179 c -0.11186,3.41875 -0.85386,5.04916 -4.33063,5.77418 l -1.44355,-9.38304 h -1.44354 l 1.44354,8.66127 -5.05241,-2.16532 h -0.72177 l -4.33064,2.88709 -2.88709,-10.10482 h -0.72177 l 1.44355,9.38305 -5.05241,-2.16532 h -0.72178 c -4.30898,6.57246 -6.83807,-6.33572 -9.38304,-7.9395 l 2.88709,9.38305 c -3.36996,-0.25631 -4.67853,-1.56401 -6.49595,-4.33064 v 3.60886 c -4.65399,-0.98312 -7.25021,-4.93476 -5.05241,-9.38304 l -7.9395,0.72177 -0.72177,-2.16532 h -0.72178 l 1.44355,9.38305 c -1.37858,-0.41783 -2.40639,-0.71124 -0.72177,-1.44355 v -0.72177 c -1.68245,-0.2693 -4.38838,-0.92596 -2.88709,-2.88709 l -1.44355,-2.16532 h 2.88709 l -2.88709,-2.16532 c 5.91709,-4.42511 21.08443,-0.5484 28.14913,-0.0646 25.40062,1.73954 51.2466,3.60373 76.50793,3.67346 m 88.05627,-4.33064 0.72176,0.72177 -0.72176,-0.72177 m -195.60041,1.44355 2.88708,7.9395 -6.49596,-3.60887 c -0.91881,2.114 -1.30279,-0.13973 -1.44353,-1.44354 h 0.72177 v 1.44354 h 0.72176 l -0.72176,-2.88709 4.33064,-1.44354 m 191.26974,0 0.72181,0.72177 -0.72181,-0.72177 m -172.50366,0.72177 0.72177,2.88709 h 0.72177 l -1.44354,-2.88709 m 96.71757,0 v 4.33063 h 0.72176 l -0.72176,-4.33063 m 7.93946,0 -1.44354,2.16532 v 0.72177 l 2.88713,2.16532 h 0.72173 l 1.44354,-2.16532 c -1.49622,2.7794 -3.70194,3.95214 -6.49594,2.16532 l -2.88708,2.88709 4.33062,-4.33064 v -0.72177 l -2.16527,-2.16532 3.60881,-0.72177 m 43.30642,0 -0.72181,0.72177 0.72181,-0.72177 m -178.51847,1.20298 -0.24063,0.48113 0.24063,-0.48113 m 6.01475,-0.48121 -0.72177,0.72177 0.72177,-0.72177 m 2.64674,0.24057 0.4807,0.24064 -0.4807,-0.24064 m 1.6839,-0.24057 0.72177,0.72177 -0.72177,-0.72177 m 11.54835,0 h 2.16533 l 2.88708,7.9395 -1.44353,-2.16532 h -0.72178 v 2.16532 l -2.8871,-5.77418 v -2.16532 m 6.97739,0.24057 0.4807,0.24064 -0.4807,-0.24064 m 109.94978,0.4812 c 7.50499,2.34187 15.30954,1.98517 23.09675,2.17586 3.79003,0.0928 7.99508,0.15894 10.10481,3.59833 l -11.54835,2.16531 c 0.56658,3.46055 -1.10143,4.89009 -4.33067,5.77418 l 2.16535,-8.66127 h -0.72176 c -1.76257,4.56904 -2.54643,8.62151 -7.93951,9.38305 l 2.88711,-9.38305 h -2.88711 c -0.63952,4.26807 -1.70847,8.28942 -6.49594,8.66127 l 2.88705,-8.66127 h -4.33059 l 1.44354,2.16532 -3.60889,5.77418 -1.44354,-0.72177 1.44354,-2.16532 -2.16533,-0.72177 0.72179,-2.88709 h 0.72175 l 1.4436,1.44354 c 0.7167,-3.12888 0.79248,-5.48958 -2.16535,-7.21772 l 0.72175,-0.72178 m -132.80616,0.72178 v 1.44354 h -1.44355 l 1.44355,-1.44354 m 196.3222,0 0.72173,0.72177 -0.72173,-0.72177 m -201.37461,0.72177 0.72178,2.16532 -0.72178,-2.16532 m 67.84662,0 v 1.44354 h 1.44357 l -1.44357,-1.44354 m 131.12229,0.24057 0.48072,0.24064 -0.48072,-0.24064 m -204.02132,0.4812 -0.72177,0.72177 0.72177,-0.72177 m 27.42736,0 0.72178,0.72177 -0.72178,-0.72177 m 8.90162,0.4812 0.24108,0.48114 -0.24108,-0.48114 m 159.99323,-0.4812 v 0.72177 h 4.33062 l -4.33062,-0.72177 m -176.11257,0.72177 0.72177,0.72178 -0.72177,-0.72178 m -25.26205,0.72178 -0.72177,0.72177 0.72177,-0.72177 m 66.64344,0.4812 0.24107,0.48114 -0.24107,-0.48114 m 11.308,-0.4812 0.72178,0.72177 -0.72178,-0.72177 m 103.93529,0 -0.72178,0.72177 0.72178,-0.72177 m 3.60887,1.44354 -2.16533,-0.72177 2.16533,0.72177 m 9.1427,-0.4812 0.4807,0.24064 -0.4807,-0.24064 m -168.65448,0.4812 -0.72177,0.72178 0.72177,-0.72178 m 156.62467,0.24057 c 0.55798,0 0.11549,0.35937 -0.24032,0.24064 l 0.24032,-0.24064 m 14.43548,-0.24057 v 0.72178 h 2.88706 l -2.88706,-0.72178 m 6.49592,0 0.72181,0.72178 -0.72181,-0.72178 m 7.93954,0.72178 -0.72181,1.44354 0.72181,-1.44354 m -21.65321,0.72177 0.72181,0.72177 -0.72181,-0.72177 m -49.0805,0.72177 -0.72181,0.72177 0.72181,-0.72177 m 27.42734,0 0.72176,0.72177 -0.72176,-0.72177 m 23.57813,0.24057 0.48072,0.24064 -0.48072,-0.24064 m 17.56291,-0.24057 0.72179,0.72177 -0.72179,-0.72177 m -35.3669,0.72177 -0.72173,0.72178 0.72173,-0.72178 m 19.96932,0.24057 0.48072,0.24064 -0.48072,-0.24064 m 13.95404,-0.24057 0.72173,0.72178 -0.72173,-0.72178 m -25.26207,0.72178 v 1.44354 h -1.44354 l 1.44354,-1.44354 m 23.81853,0 0.72176,0.72177 -0.72176,-0.72177 m -30.31447,1.44354 -0.72176,0.72178 0.72176,-0.72178 m -38.49429,1.20298 -0.24111,0.48114 0.24111,-0.48114 m 43.54669,-0.4812 -0.72173,0.72177 0.72173,-0.72177 m -36.81042,0.96234 0.24037,0.24063 c -0.35586,0.11874 -0.79827,-0.24063 -0.24037,-0.24063 m -7.2177,1.20297 -0.72176,0.72177 0.72176,-0.72177 m -51.96766,1.44355 v 0.72177 h -4.33062 l 4.33062,-0.72177 m 43.30639,0.72177 -0.72178,0.72178 0.72178,-0.72178 m -110.43124,12.99192 4.33063,1.44354 v -0.72177 h -2.16531 v -0.72177 l 2.88709,1.44354 10.10482,-0.72177 v 2.88709 l -2.16533,2.16532 2.8871,1.44354 -7.21773,2.88709 6.49596,-1.44354 c -0.46194,2.71668 -0.0953,4.26907 2.88708,4.33064 v -0.72178 l -2.16531,-1.44354 0.72178,-0.72178 3.60886,2.16532 v 4.33064 l -48.29418,-1.66794 -11.61296,0.22439 12.27014,1.44355 1.44354,1.44355 v 0.72177 l -12.27013,-1.44355 1.44354,1.44355 v 0.72177 l -4.33063,0.72177 0.72177,-2.16531 -3.60886,0.72177 1.44354,0.72177 v 0.72177 l -10.82659,-2.88709 1.44355,-2.16532 -2.16532,-0.72177 v -0.72177 l 18.04432,-1.44355 -0.72178,-4.33063 c 4.32609,0.20815 8.41746,1.27587 11.54837,-2.16532 l -5.77419,-0.72177 0.72178,-2.16532 14.43545,0.72177 v 0.72177 h 3.60887 v -0.72177 l -1.44355,-1.44355 c 4.13626,0 10.87784,1.21057 13.71368,-2.16531 m 17.32254,0 -1.44354,1.44354 v -1.44354 h 1.44354 m 26.70559,0 -0.72177,0.72177 0.72177,-0.72177 m 15.87899,0.72177 v 0.72177 l -7.21771,1.44355 -2.8871,-2.16532 h 10.10481 m -96.71753,0.24057 c 0.55823,0 0.11563,0.3593 -0.24056,0.24064 l 0.24056,-0.24064 m 23.8185,0 c 0.55822,0 0.11556,0.3593 -0.24056,0.24064 l 0.24056,-0.24064 m 62.07245,-0.24057 v 0.72177 l -0.72177,1.44355 -2.88709,0.72177 v -0.72177 l 2.16532,-2.16532 h 1.44354 m 2.88709,0 0.72178,0.72177 -0.72178,-0.72177 m 13.71368,0 v 1.44354 h -1.44354 v -1.44354 h 1.44354 m -123.42312,0.72177 -0.72178,0.72177 0.72178,-0.72177 m 18.76609,0 -0.72178,0.72177 0.72178,-0.72177 m 7.21772,0 v 0.72177 h -2.16531 l 2.16531,-0.72177 m 77.95145,0 -0.72177,0.72177 0.72177,-0.72177 m 7.9395,0 0.72177,0.72177 -0.72177,-0.72177 m 7.21774,0 -0.72179,0.72177 0.72179,-0.72177 m 1.44354,0.24057 c 0.55792,0 0.11549,0.35929 -0.24035,0.24064 l 0.24035,-0.24064 m -129.91909,0.4812 -0.72177,0.72178 0.72177,-0.72178 m 31.758,0.24057 c 0.55822,0 0.11563,0.3593 -0.24057,0.24064 l 0.24057,-0.24064 m 67.12486,-0.24057 -0.72178,0.72178 0.72178,-0.72178 m 18.76609,0 -0.72178,0.72178 0.72178,-0.72178 m 50.28373,0.48121 -0.24107,0.48113 0.24107,-0.48113 m -91.66513,0.48113 0.4807,0.24064 -0.4807,-0.24064 m 2.16533,0 0.48069,0.24064 -0.48069,-0.24064 m 7.45807,1.92476 -2.88709,-2.16532 2.88709,2.16532 m 62.79421,-2.16532 -0.72175,0.72177 0.72175,-0.72177 m -129.91907,0.72177 v 0.72177 l -2.88709,1.44355 2.88709,-2.16532 m 16.60077,0 -2.16531,1.44355 v -0.72178 l 2.16531,-0.72177 m 7.21773,0 v 0.72177 h 2.16532 l -2.16532,-0.72177 m 5.77418,0 v 0.72177 h 2.16532 l -2.16532,-0.72177 m 11.54837,0 v 1.44355 h 1.44353 v -1.44355 h -1.44353 m 10.82658,0 0.72177,0.72177 -0.72177,-0.72177 m 35.36686,3.60886 h 0.72178 c 1.29269,-2.37903 5.82614,-1.85416 7.9395,-0.72177 v -1.44354 l 9.38304,1.44354 -2.88709,-0.72177 v 0.72177 l 2.16532,0.72177 v 0.72178 l -6.49596,-2.16532 4.33064,2.88709 -0.72177,2.16532 4.33064,-0.72178 v -2.16531 l 2.1653,0.72177 -1.44354,3.60886 15.15724,-1.44354 2.1653,0.72177 2.16532,1.44355 v 0.72177 h -21.65317 v -0.72177 h 2.16531 v -0.72178 l -11.54836,2.16532 0.72178,-2.16532 -0.72178,-1.44354 c -2.54064,-0.28626 -5.1715,-0.0609 -5.77418,-2.88709 h -0.72177 l -0.72177,3.60886 -2.8871,-2.88709 2.16532,-1.44355 -5.05241,0.72178 1.44355,5.77418 -2.88709,-3.60887 -2.16532,0.72178 2.16532,-2.16532 v -0.72177 h -3.60887 l 0.72178,-3.60887 9.38304,2.88709 m 5.05241,-3.36829 0.24035,0.24064 c -0.35583,0.11866 -0.79828,-0.24064 -0.24035,-0.24064 m 26.70558,-0.24057 h 8.66127 v 0.72177 l -7.93948,1.44355 -1.44354,-1.44355 0.72175,-0.72177 m 13.7137,0 0.72176,1.44355 -0.72176,-1.44355 m 28.87091,0 0.72181,0.72177 -0.72181,-0.72177 m -159.51177,0.72177 -1.44355,2.16532 1.44355,-2.16532 m 4.33063,0 0.72178,2.16532 1.44354,-2.16532 1.44355,2.88709 -1.44355,0.72178 h -2.88709 v 0.72177 c 2.42711,0 4.47766,-0.51672 5.05241,2.16532 h -0.72177 l -9.38305,-0.72178 v -2.16531 h 5.05241 l -2.16532,-1.44355 0.72178,-2.16532 h 2.16531 m 83.72563,0 -0.72177,0.72178 0.72177,-0.72178 m 25.98382,0 v 0.72178 l -5.0524,0.72177 v 0.72177 h 1.44354 v 0.72177 h -6.49595 c 2.47063,-3.80164 6.20869,-2.12677 10.10481,-2.88709 m -104.65704,0.72178 2.16532,1.44354 -2.88709,0.72177 0.72177,-2.16531 m 12.27014,0 v 0.72177 h 2.16532 l -2.16532,-0.72177 m 2.88709,0 v 0.72177 h 5.05241 l -5.05241,-0.72177 m -21.65318,0.72177 0.72177,0.72177 -0.72177,-0.72177 m 67.84663,0 2.16532,0.72177 -3.60887,1.44355 v -0.72178 h 2.16532 v -0.72177 h -1.44354 l 0.72177,-0.72177 m 19.48786,0 v 0.72177 l 2.16532,0.72177 -2.16532,-1.44354 m 25.26204,0.24057 0.24035,0.24064 c -0.35581,0.11865 -0.79827,-0.24064 -0.24035,-0.24064 m 43.30637,-0.24057 v 4.33063 h 0.72178 l -0.72178,-4.33063 m -134.97149,0.72177 -0.72178,2.16532 h 0.72178 v -2.16532 m 41.86281,0.72177 v 0.72178 l -2.16532,0.72177 v -2.16532 l 2.16532,0.72177 m 10.82659,-0.72177 0.72177,0.72177 -0.72177,-0.72177 m 2.16532,0 0.72177,0.72177 -0.72177,-0.72177 m 15.15723,0 0.72177,2.16532 -2.16532,-0.72177 0.72177,2.88709 h 0.72178 l 2.16531,-2.16532 -1.44354,2.16532 v 0.72177 l 3.60886,-2.88709 -4.33063,-2.16532 m -64.23777,0.72177 -0.72177,1.44355 0.72177,-1.44355 m 12.99191,0 v 2.88709 h 0.72177 l -0.72177,-2.88709 m 9.38304,0 0.72178,0.72178 -0.72178,-0.72178 m 61.35067,0.24057 0.24035,0.24064 c -0.35582,0.11866 -0.79828,-0.24064 -0.24035,-0.24064 m -65.92165,0.72177 0.48069,0.24064 -0.48069,-0.24064 m 6.25488,0.24064 0.24107,0.48114 -0.24107,-0.48114 m 31.51764,-0.4812 0.72178,0.72177 -0.72178,-0.72177 m 31.75799,0 -0.72175,0.72177 0.72175,-0.72177 m 2.16533,0 -0.72176,0.72177 0.72176,-0.72177 m -99.60463,0.72177 v 0.72177 h 2.16532 l -2.16532,-0.72177 m 5.53361,0.24057 0.48114,0.24063 -0.48114,-0.24063 m 41.38162,-0.24057 -0.72178,0.72177 0.72178,-0.72177 m 23.09672,0 0.72177,0.72177 -0.72177,-0.72177 m -66.64365,0.96234 0.48113,0.24064 -0.48113,-0.24064 m 4.5712,-0.24057 0.72177,0.72177 -0.72177,-0.72177 m 20.93141,0 0.72178,0.72177 -0.72178,-0.72177 m 25.26204,0 -0.72177,0.72177 0.72177,-0.72177 m 1.44354,0 -0.72177,0.72177 0.72177,-0.72177 m 16.60078,0 0.72177,0.72177 -0.72177,-0.72177 m 57.74183,0 v 0.72177 l -2.16532,1.44355 c -0.68641,-1.8092 0.47059,-1.95298 2.16532,-2.16532 m -142.18923,0.72177 -0.72178,0.72178 0.72178,-0.72178 m 3.60886,0 v 0.72178 l 3.60886,0.72177 -3.60886,-1.44355 m 14.43545,0 0.72178,0.72178 -0.72178,-0.72178 m 10.10482,0 0.72177,0.72178 -0.72177,-0.72178 m -8.4207,1.20298 0.24063,0.48114 -0.24063,-0.48114 m 3.36829,-0.4812 0.72178,0.72177 -0.72178,-0.72177 m 6.49595,0 v 1.44354 h 1.44355 v -1.44354 h -1.44355 m 18.76609,0 0.72178,0.72177 -0.72178,-0.72177 m 39.6975,2.88709 4.33064,-2.16532 -4.33064,2.16532 m 37.53217,-0.72177 -1.44354,-1.44355 -4.33062,0.72177 c 2.2447,-1.69609 4.10615,-1.58941 5.77416,0.72178 m 2.16532,-2.16532 v 0.72177 h -2.16532 l 2.16532,-0.72177 m -150.12871,1.44354 v 0.72178 h -5.77418 l 5.77418,-0.72178 m 31.27679,-0.24056 0.24064,0.48113 -0.24064,-0.48113 m 2.64653,-0.48121 0.72177,0.72177 -0.72177,-0.72177 m 23.09672,0 v 0.72177 l 2.16533,0.72178 -2.16533,-1.44355 m 122.70139,0 -1.44354,4.33064 1.44354,-4.33064 m -178.27788,0.72177 2.88709,0.72178 v 2.88709 l -2.88709,-0.72178 v -2.88709 m 41.86281,0 -0.72177,1.44355 0.72177,-1.44355 m 24.54028,0 0.72177,0.72178 -0.72177,-0.72178 m 25.26204,0 -0.72178,0.72178 0.72178,-0.72178 m 12.9919,0 -0.72177,0.72178 0.72177,-0.72178 m 56.29829,0 v 2.16532 h -0.72181 l 0.72181,-2.16532 m -145.7981,0.72178 0.72178,0.72177 -0.72178,-0.72177 m 3.60887,0 0.72177,0.72177 -0.72177,-0.72177 m 25.02147,0.24056 0.48114,0.24064 -0.48114,-0.24064 m 34.16388,2.64653 1.44355,-2.16532 c -1.89826,-0.2986 -2.47929,0.56724 -1.44355,2.16532 m 70.01196,-2.88709 5.77419,0.72177 v 0.72177 l -5.77419,1.44355 h 3.60884 v 0.72177 l -12.27013,2.88709 v 0.72177 h 2.88711 v 0.72178 c -8.67066,0.179 -28.1679,5.89688 -34.64509,-1.44355 l 2.88709,0.72177 2.88709,-1.44354 V 201.939 h -3.60887 -0.72177 c 1.45365,-2.79601 3.44069,-3.77675 6.49595,-4.33064 v 0.72177 l -3.60886,1.44355 v 0.72177 l 36.8104,-2.16532 -1.44354,-0.72177 0.72178,-0.72177 m 80.11676,0 c -2.36738,2.88968 -4.22306,3.74138 -7.93948,3.60886 l 3.60886,1.44355 -0.72178,2.16531 3.60886,1.44355 -2.16532,0.72177 c 3.56341,5.81099 0.15446,6.83086 -0.72176,12.27014 l 7.21776,0.72177 5.0524,-21.65318 -7.21775,2.16532 0.72181,-2.88709 h -1.4436 m -236.01966,0.72178 h 2.16532 c -0.716,1.24889 -2.93213,1.85741 -2.16532,0 m 3.60886,0 2.16532,0.72177 -2.16532,2.16532 v -2.88709 m 9.38305,0 v 1.44354 h -1.44355 v -1.44354 h 1.44355 m 25.26204,0 0.72177,0.72177 -0.72177,-0.72177 m 51.96763,0 -0.72177,0.72177 0.72177,-0.72177 m 25.26205,0 0.72177,0.72177 -0.72177,-0.72177 m 36.08863,0 v 0.72177 h -5.05241 l 5.05241,-0.72177 m -154.45936,0.72177 -0.72176,0.72177 0.72176,-0.72177 m 24.29971,0.24057 0.48114,0.24064 -0.48114,-0.24064 m 13.23248,0 c 0.55822,0 0.11563,0.3593 -0.24057,0.24064 l 0.24057,-0.24064 m 207.87057,-0.24057 -0.72181,0.72177 0.72181,-0.72177 m 19.48781,0 -0.72173,0.72177 0.72173,-0.72177 m -128.47553,0.72177 0.72178,0.72178 -0.72178,-0.72178 m 9.1427,0.24057 0.4807,0.24064 -0.4807,-0.24064 m -134.00937,0.72177 0.24057,0.24064 c -0.3562,0.11866 -0.79879,-0.24064 -0.24057,-0.24064 m 7.21773,-0.24056 0.72177,0.72177 -0.72177,-0.72177 m 2.88709,0 v 0.72177 l 2.88709,0.72177 -2.88709,-1.44354 m 108.2659,0 v 0.72177 h 5.77417 l -5.77417,-0.72177 m 22.37494,0.72177 v 0.72177 l 3.60887,-0.72177 h -3.60887 m 5.05241,-0.72177 1.44356,1.44354 -1.44356,-1.44354 m 49.80236,0 0.72173,0.72177 -0.72173,-0.72177 m 10.34516,0.4812 0.24108,0.48114 -0.24108,-0.48114 m -91.90551,0.24057 v 0.72177 h 2.16532 l -2.16532,-0.72177 m 16.60078,1.44355 2.16532,-1.44355 -2.16532,1.44355 m 83.72565,-1.44355 v 1.44355 l 1.44354,-1.44355 h -1.44354 m -209.3141,0.72177 -0.72177,0.72178 0.72177,-0.72178 m 124.14491,0 0.72175,0.72178 -0.72175,-0.72178 m 9.38302,0 0.72178,0.72178 -0.72178,-0.72178 m -137.13679,1.44355 v 0.72177 h -2.88709 l 2.88709,-0.72177 m 77.95145,0 v 4.33063 l -38.25396,-2.16531 v -0.72178 l 3.60886,-0.72177 v -0.72177 h -2.88708 l 16.60076,-0.0646 20.93142,0.0646 m 40.41926,-0.72177 0.72179,0.72177 -0.72179,-0.72177 m 32.4798,0 v 0.72177 h -3.60891 l 3.60891,-0.72177 m 103.21349,0 -0.72176,0.72177 0.72176,-0.72177 m -248.28982,0.72177 -0.72177,0.72177 0.72177,-0.72177 m 31.03622,0 -0.72177,0.72177 0.72177,-0.72177 m 10.10482,0 v 0.72177 l 2.88709,-0.72177 h -2.88709 m 72.89903,0 0.72179,0.72177 -0.72179,-0.72177 m 6.49595,0.72177 v 0.72177 l 3.60889,0.72178 -3.60889,-1.44355 m -75.3047,0.24057 0.48071,0.24064 -0.48071,-0.24064 m 57.98217,-0.24057 v 0.72177 h 2.16532 l -2.16532,-0.72177 m 22.37496,0 0.72176,0.72177 -0.72176,-0.72177 m 2.88708,0 0.72178,0.72177 -0.72178,-0.72177 m 1.44354,0 0.72178,0.72177 -0.72178,-0.72177 m 7.21773,0.72177 v 0.72178 h -2.1653 l 2.1653,-0.72178 m 4.33062,0 -0.72176,0.72178 0.72176,-0.72178 m -46.19343,0.72178 -0.72177,0.72177 0.72177,-0.72177 m 4.33064,0.96233 0.24035,0.24064 c -0.35584,0.11866 -0.79829,-0.24064 -0.24035,-0.24064 m 56.29827,-0.24056 -1.44354,4.33064 3.60886,2.16531 h 1.44354 c 0.51031,-3.44935 -0.3883,-5.14118 -3.60886,-6.49595 m -180.44317,0.72177 h 4.33063 v 0.72177 l -1.44355,1.44355 -2.88708,-2.16532 m -1.44355,0.72177 -0.72177,0.72178 0.72177,-0.72178 m 30.31445,0 v 0.72178 h -2.16532 v 0.72177 h 1.44355 v 0.72177 h -2.88709 v 0.72178 l 3.60886,0.72177 c 4.34868,-7.11235 24.97745,-3.66011 32.4792,-3.6067 22.34305,0.15879 44.75337,0.52184 67.12543,0.81993 11.31235,0.15086 22.9134,-1.11081 33.92332,1.34322 v 0.72178 l -3.60886,2.88709 h -6.49597 l -0.72176,-2.16532 -0.72178,2.16532 c -9.18816,-1.51645 -19.53044,0 -28.8709,0 -17.63147,0 -35.97171,-1.95312 -53.41118,-1.32446 -19.5783,0.70662 -40.97446,2.6056 -59.90713,-3.00618 l -0.72179,2.16532 h -0.72177 l -0.72177,-2.88709 22.37496,-0.72178 m -23.09673,0.72178 -0.72176,0.72177 0.72176,-0.72177 m 171.06011,0 c 0,2.42732 -0.51676,4.47788 2.16535,5.05241 l -0.72176,-5.05241 h -1.44359 m -170.33834,2.88709 -2.16531,-1.44355 2.16531,1.44355 m 12.27015,-1.44355 v 0.72178 h 2.16531 l -2.16531,-0.72178 m 5.05241,0 1.44354,1.44355 -1.44354,-1.44355 m 7.21772,0 0.72177,0.72178 -0.72177,-0.72178 m 153.01581,0 -0.72175,0.72178 0.72175,-0.72178 m -182.60849,0.72178 v 0.72177 h -2.88709 l 2.88709,-0.72177 m 10.10482,0.24034 0.24057,0.24108 c -0.3562,0.11837 -0.79879,-0.24108 -0.24057,-0.24108 m 2.16531,-0.24034 -0.72177,0.72177 0.72177,-0.72177 m 7.93951,0 0.72177,0.72177 -0.72177,-0.72177 m 153.97793,0.48142 0.24107,0.4807 -0.24107,-0.4807 m -13.95404,0.24035 -2.1653,2.16532 2.1653,-2.16532 m 36.81042,0.72177 8.66127,14.43545 h 0.72181 l 2.16527,-15.15722 -11.54835,0.72177 m -15.15721,1.44355 -0.72179,3.60885 h 10.82662 l -0.72181,2.16533 c -9.91788,-2.93113 -11.39171,1.3295 -11.54835,10.10482 l 12.27016,0.72177 v 2.88709 h 0.72173 l 0.72181,-18.04432 -10.82662,0.72177 -0.72175,-2.16531 m -69.2902,1.44354 -0.72178,0.72177 0.72178,-0.72177 m 2.88709,0 v 0.72177 h -2.16532 l 2.16532,-0.72177 m 1.44354,0 -0.72177,0.72177 0.72177,-0.72177 m -110.43123,0.72177 v 0.72177 h -6.49594 l 6.49594,-0.72177 m 42.5846,2.16532 -37.53218,-1.44355 c 7.33357,-3.07691 20.148,-0.72177 28.14914,-0.72177 3.38295,0 7.22552,-0.82643 9.38304,2.16532 m 2.64653,-1.6839 -0.24064,0.48071 0.24064,-0.48071 m 4.5712,-0.48142 v 2.88709 h -0.72177 l 0.72177,-2.88709 m 15.879,0.72177 -11.54837,1.44355 7.93951,6.49596 c 1.90764,7.06253 8.06797,8.66127 14.43545,8.66127 v 0.72177 h -7.21773 l 15.15723,18.04432 -5.77418,-0.72178 -20.20964,-19.48786 v -0.72178 h 2.16532 c -2.14872,-3.06247 -8.82295,-7.80308 -9.07506,-11.60321 -0.30084,-4.53417 11.43237,-3.33964 14.12747,-2.83224 m 36.08863,-0.72177 v 2.16532 h -32.47977 l 0.72178,-2.16532 h 31.75799 m 47.63701,1.44354 v 0.72178 h -36.81042 c 1.97838,-3.05093 6.08311,-2.16532 9.38305,-2.16532 8.96297,0 18.81949,-1.24216 27.42737,1.44354 m 116.92718,-1.44354 -0.72176,0.72177 0.72176,-0.72177 m -274.27363,1.44354 41.86281,26.7056 v 0.72177 c -14.84073,-5.62477 -29.00429,-18.36551 -42.5846,-26.70559 l 0.72179,-0.72178 m 56.29827,0 -0.72178,0.72178 0.72178,-0.72178 m -2.16532,1.6839 c 0.55821,0 0.11556,0.35944 -0.24057,0.24108 l 0.24057,-0.24108 m 63.51599,-0.24035 0.72177,0.72178 -0.72177,-0.72178 m 38.25394,0 c -1.65933,3.19457 -4.47786,4.4353 -7.93948,5.05241 v 0.72178 h 3.60886 v 0.72177 l -1.44354,0.72176 0.72176,2.16533 1.44354,2.16532 h -19.48785 v -0.72177 l 10.10482,-0.72178 -5.0524,-2.8871 0.72175,1.44355 h -0.72175 l -7.21774,-2.16531 v -0.72177 h 2.88709 v -0.72178 h -4.33063 v -1.44355 l 15.47409,0.69362 11.23148,-4.30248 m -115.48361,0.96212 c 0.55821,0 0.11555,0.35944 -0.24057,0.24107 l 0.24057,-0.24107 m 129.91909,-0.24034 -0.72176,0.72177 0.72176,-0.72177 m 103.93527,0.72177 -0.72176,0.72176 0.72176,-0.72176 m -41.14104,11.54836 5.0524,0.72177 3.60886,-2.88708 3.60887,-7.93951 c -5.93873,-1.69111 -9.23073,5.77202 -12.27013,10.10482 M 257.29924,220.70509 v 1.44355 h -3.60886 v -1.44355 h 3.60886 m 157.34647,0 0.72176,0.72177 -0.72176,-0.72177 m -233.1326,0.72177 v 0.72178 l -2.88709,0.72177 2.88709,-1.44355 m 117.40859,0.48143 -0.24106,0.48069 0.24106,-0.48069 m -106.1008,0.48069 0.48114,0.24108 -0.48114,-0.24108 m 54.37352,0.48143 0.72178,1.44355 h 0.72177 l 0.72177,-1.44355 h -2.16532 m 2.88709,0 0.72178,0.72178 -0.72178,-0.72178 m -25.98381,1.44355 -0.72178,2.88709 2.16533,-0.72178 -0.72178,5.05241 v 0.72178 l 8.66127,-5.77419 c 3.70125,-0.32191 6.64825,-0.53772 7.9395,3.60886 l -5.77418,1.44355 v 0.72178 h 7.21773 v 0.72177 c -6.42666,0 -18.95375,-2.42732 -23.8185,2.16531 h -0.72178 l 0.72178,-2.16531 -1.44354,0.72177 v -0.72177 l 2.88709,-0.72177 v -0.72178 h -2.88709 v -0.72177 l 2.16531,-3.60886 v -2.88709 l 0.72178,-0.72177 3.60886,0.72177 m 4.33063,-0.72177 -0.72177,0.72177 0.72177,-0.72177 m 70.73374,0 -0.72176,34.64508 h -0.72178 c 0,-10.03697 -2.47713,-25.30462 1.44354,-34.64508 m -63.51601,0.96212 0.24035,0.24106 c -0.35583,0.11838 -0.79828,-0.24106 -0.24035,-0.24106 m -39.6975,1.20319 0.72178,0.72177 -0.72178,-0.72177 m 78.67322,0 0.72179,0.72177 -0.72179,-0.72177 m -82.28208,0.72177 -0.72177,0.72178 0.72177,-0.72178 m 24.54028,0.72178 2.16531,2.16532 h -2.88709 l 0.72178,-2.16532 m 32.23941,0.24034 0.4807,0.24108 -0.4807,-0.24108 m 1.6839,-0.24034 0.72177,0.72177 -0.72177,-0.72177 m 57.02005,0 c -1.54313,1.74813 -2.72251,3.29777 -0.72176,5.05241 l 0.72176,-5.05241 m 83.72565,0 -2.16535,3.60886 c 2.91023,0 2.16535,4.25052 2.16535,6.49596 h 0.72178 l -0.72178,-10.10482 m -196.3222,2.16532 -2.16531,-1.44355 2.16531,1.44355 m 70.01194,-1.44355 0.72178,0.72178 -0.72178,-0.72178 m -44.02812,0.72178 0.72178,0.72177 -0.72178,-0.72177 m -22.37495,2.16531 2.88709,1.44355 v -0.72178 l -2.88709,-0.72177 m 189.10447,0 0.72178,0.72177 -0.72178,-0.72177 m -123.42316,1.44355 0.72176,1.44354 h -1.44354 l 0.72178,-1.44354 m 4.33062,0.72177 v 0.72177 h -2.16529 l 2.16529,-0.72177 m 6.49598,0 -0.72179,0.72177 0.72179,-0.72177 m 5.77416,0 v 0.72177 h -3.60884 l 3.60884,-0.72177 m -80.11676,0.72177 v 1.44354 h 1.44355 l -1.44355,-1.44354 m -8.66127,0.72177 7.21772,2.16532 v 0.72178 c -1.93073,-0.20282 -8.16433,-0.34213 -7.21772,-2.8871 m 10.8266,0 0.72177,0.72177 -0.72177,-0.72177 m 31.03621,0.96212 0.24035,0.24108 c -0.35583,0.11837 -0.79828,-0.24108 -0.24035,-0.24108 m 134.97151,0.48143 v 0.72177 h 2.16533 v -0.72177 h -2.16533 m -103.21351,0.24035 c 0.55793,0 0.1155,0.35944 -0.24034,0.24107 l 0.24034,-0.24107 m 5.05241,-0.24035 -1.44354,1.44355 v -1.44355 h 1.44354 m 54.85474,0 -1.44354,3.60886 2.88708,-3.60886 h -1.44354 m -121.97959,0.72177 0.72176,0.72178 -0.72176,-0.72178 m 163.12063,1.44355 v 0.72177 l 2.16532,2.16532 -2.16532,-0.72178 -1.44354,3.60887 h 0.72181 l 3.60881,-6.49595 -2.88708,0.72177 m 3.84924,-0.24035 0.24106,0.4807 -0.24106,-0.4807 m 20.9314,0.72177 0.24106,0.4807 -0.24106,-0.4807 m -77.47006,0.24035 v 5.05241 h -8.66129 v 8.66128 h 7.93954 c 1.82028,-3.7821 2.3732,-9.77786 0.72175,-13.71369 m -74.34258,0.72177 -0.72178,0.72177 0.72178,-0.72177 m 40.41927,2.16532 v 4.33064 h 3.60886 v 0.72177 c -1.85351,0.19488 -4.84671,1.75246 -1.44354,2.16531 v 0.72178 l -2.8871,2.8871 h 7.93951 l -0.72179,-12.99192 -6.49594,2.16532 m 74.3426,-2.16532 -4.33062,5.05241 5.0524,0.72177 -0.72178,-5.77418 m -131.36265,0.72177 5.05241,1.44355 v 0.72178 c -1.75246,-0.007 -5.96689,0.29448 -5.05241,-2.16533 m 35.36687,0 2.88709,4.33064 v -0.72177 l -2.88709,-3.60887 m -62.07245,0.72178 -0.72178,0.72177 0.72178,-0.72177 m 12.27013,0 0.72177,0.72177 -0.72177,-0.72177 m 23.8185,0.72177 v 0.72178 h -2.88709 l 2.88709,-0.72178 m 158.79002,-0.72177 -0.72181,1.44355 h 1.44359 l -0.72178,-1.44355 m -85.16919,0.72177 0.72178,0.72178 -0.72178,-0.72178 m 2.88708,0 0.72178,0.72178 -0.72178,-0.72178 m 58.46363,0 -0.72181,0.72178 0.72181,-0.72178 m -239.62859,0.96212 c 0.55821,0 0.11562,0.35944 -0.24058,0.24107 l 0.24058,-0.24107 m 133.52796,-0.24034 0.72177,0.72177 -0.72177,-0.72177 m 3.3685,0.24034 0.4807,0.24107 -0.4807,-0.24107 m 2.16533,0 0.48069,0.24107 -0.48069,-0.24107 m 3.12743,-0.24034 -0.72176,1.44354 h 1.44354 l -0.72178,-1.44354 m -70.01194,1.44354 -0.72178,0.72177 0.72178,-0.72177 m 3.60887,0.24035 c 0.55792,0 0.11548,0.35944 -0.24036,0.24107 l 0.24036,-0.24107 m 90.46192,0.24107 0.24109,0.48071 -0.24109,-0.48071 m -96.95788,2.40567 h -9.38304 c 2.16474,-2.84378 7.1563,-2.75356 9.38304,0 m 127.03201,-0.72177 1.44354,3.60886 h 0.72175 l -2.16529,-3.60886 m 18.7661,7.93949 4.33062,0.72178 c -0.69652,3.80952 -0.55073,6.44182 2.16532,9.38304 l 4.33065,-17.32254 c -5.64142,-0.37893 -8.51334,2.02746 -10.82659,7.21772 m -139.30215,-6.97737 0.24035,0.24108 c -0.35584,0.11836 -0.79828,-0.24108 -0.24035,-0.24108 m 18.04432,-0.24035 -0.72178,0.72178 0.72178,-0.72178 m 11.54835,0 v 0.72178 h -9.38304 l 9.38304,-0.72178 m 69.2902,0 v 2.16531 h 1.44354 v -2.16531 h -1.44354 m -88.77806,0.72178 0.72177,0.72177 -0.72177,-0.72177 m 47.637,0 2.88709,1.44353 v -0.72176 l -2.88709,-0.72177 m -77.95145,0.72177 -0.72177,0.72176 0.72177,-0.72176 m 18.04432,0 0.72177,1.44354 h -1.44355 l 0.72178,-1.44354 m 2.88708,0.72176 0.72178,1.44355 h -1.44354 l 0.72176,-1.44355 m 5.05241,0.72178 -0.72177,0.72177 0.72177,-0.72177 m 64.23776,0 0.72178,0.72177 L 273.9,249.576 m 14.43548,2.16532 v 0.72178 h 2.88708 l -2.88708,-0.72178 m -24.54029,0.96212 0.24035,0.24107 c -0.35584,0.11837 -0.79828,-0.24107 -0.24035,-0.24107 m 46.19347,0.48143 c -0.23892,3.12599 -1.03214,4.61645 -4.33067,4.33063 l 4.33067,2.16532 v -6.49595 m 38.97575,0 -0.72179,0.72176 0.72179,-0.72176 m -31.03626,0.72176 -0.72176,1.44355 h 1.44354 l -0.72178,-1.44355 m -51.24585,1.44355 v 1.44355 h 1.44354 l -1.44354,-1.44355 m 32.2394,4.09029 -0.24106,0.4807 0.24106,-0.4807 m 10.34518,0.96212 -2.1653,0.72178 2.88708,2.16532 -0.72178,-2.8871 m -57.02005,0.72178 0.72178,0.72177 -0.72178,-0.72177 m 96.71758,0 -0.72179,0.72177 0.72179,-0.72177 m -102.49176,0.72177 -0.72177,0.72177 0.72177,-0.72177 m 3.60886,0.72177 -0.72177,1.44354 h 1.44355 l -0.72178,-1.44354 m 55.57648,0.72178 0.72181,0.72176 -0.72181,-0.72176 m 38.25396,0 v 5.77416 h 0.72181 l -0.72181,-5.77416 m -101.04816,0.72176 -0.72178,0.72178 0.72178,-0.72178 m 2.16532,0 -1.44355,2.16532 1.44355,-2.16532 m 2.16531,0 0.72178,0.72178 -0.72178,-0.72178 m 84.4474,5.0524 10.10486,0.72178 c -0.0873,-7.34187 -8.68291,-7.68471 -10.10486,-0.72178 m -19.48783,-0.72176 0.72175,2.88711 h 0.72179 l -1.44354,-2.88711 m -81.56034,3.60887 -0.72177,0.72175 0.72177,-0.72175 m 5.77418,0.72175 -1.44354,3.60887 h -0.72178 l 2.16532,-3.60887 m 2.88709,1.44357 1.44355,1.44354 -1.44355,-1.44354 m -7.21772,0.72176 -0.72178,2.88708 1.44355,2.8871 h -0.72177 l -0.72178,-2.16532 v 2.88711 l -3.60886,-1.44354 -1.44354,4.33062 h -0.72177 l 0.72177,-2.16533 -2.16532,-2.16529 h 3.60886 l -0.72177,-2.16535 h 0.72177 l 2.16532,2.16535 0.72177,-5.05243 h 1.44355 m -6.49595,2.16532 -0.72178,0.72176 0.72178,-0.72176 m 10.82658,2.16532 0.72178,0.72179 -0.72178,-0.72179 m 2.40567,0.48144 0.24108,0.4807 -0.24108,-0.4807 m -12.51048,0.24035 0.72177,0.72175 -0.72177,-0.72175 m 0,1.44354 0.72177,0.72175 -0.72177,-0.72175 m 6.49595,0 -0.72177,0.72175 0.72177,-0.72175 m 83.00388,2.88708 7.93951,-0.72178 c -2.20504,-3.40027 -5.72153,-1.94083 -7.93951,0.72178 m -93.83046,-1.44354 -0.72178,0.72176 0.72178,-0.72176 m 10.10481,0.72176 -0.72178,4.33064 -2.16531,-0.72178 v 5.05243 h -0.72178 v -5.77419 h -0.72177 l -2.88709,5.77419 1.44355,-1.44354 0.72177,-3.60889 h -2.16532 c 0.41791,-1.37856 0.71095,-2.40639 1.44355,-0.72176 h 0.72177 l 1.44354,-2.16532 2.16532,1.44354 1.44355,-2.16532 m 3.60886,0 0.72177,0.72178 -0.72177,-0.72178 m -1.44355,1.44356 -0.72177,0.72176 0.72177,-0.72176 m -12.27012,0.72176 -0.72178,0.72178 0.72178,-0.72178 m 17.32253,0 v 2.16532 h 0.72178 l -0.72178,-2.16532 m -6.01453,1.68391 0.4807,0.24106 -0.4807,-0.24106 m 4.08957,2.40639 0.24107,0.48069 -0.24107,-0.48069 m -16.3597,1.44354 -0.24107,0.48069 0.24107,-0.48069 m 14.6758,-0.48141 0.72177,0.72176 -0.72177,-0.72176 m -11.54836,1.44354 -0.72178,0.72176 0.72178,-0.72176 m 1.92496,1.20319 -0.24106,0.4807 0.24106,-0.4807 m 6.01454,-0.48143 -0.72178,0.72178 0.72178,-0.72178 m -10.10481,0.72178 -0.72178,0.72176 0.72178,-0.72176 m 11.54835,0.72176 0.72177,0.72178 -0.72177,-0.72178 m -12.27013,0.72178 h 2.16531 l 0.72178,5.0524 -2.88709,-2.88708 1.44354,0.72179 V 297.213 l -2.16531,-1.44354 0.72177,-0.72178 m 4.33064,0.72178 0.72177,0.72176 -0.72177,-0.72176 m -5.05241,0.72176 -0.72178,0.72178 0.72178,-0.72178 m 10.82658,0 0.72178,0.72178 -0.72178,-0.72178 m -13.71367,1.44357 -0.72177,0.72175 0.72177,-0.72175 m 48.11842,0.24032 0.48069,0.24109 -0.48069,-0.24109 m -29.35234,0.48143 0.72178,0.72179 -0.72178,-0.72179 m -9.38304,1.44354 0.72177,0.72179 -0.72177,-0.72179 m 77.95147,34.6451 h 9.38302 l 2.16533,-6.49594 h 0.72178 v 5.0524 h 1.44354 v -8.66127 h 10.82662 l 2.88708,-19.48788 h -0.72181 l -3.60881,5.77419 -0.72181,-8.66127 c -14.55095,-4.30104 -16.04502,11.38452 -18.9819,21.65318 -1.06389,3.71785 -3.00185,6.92251 -3.39304,10.82659 m -86.61275,-32.47977 -1.44353,1.44354 1.44353,-1.44354 m -3.60886,0.72178 -0.72177,0.72176 0.72177,-0.72176 m -1.44354,1.44354 -0.72177,0.72176 0.72177,-0.72176 m 120.53603,0 -0.72173,13.71367 c 6.79911,-1.14977 6.57892,-11.41698 0.72173,-13.71367 m -118.37071,0.72176 -0.72178,0.72178 0.72178,-0.72178 m -0.72178,2.16532 v 2.16532 h -0.72177 l 0.72177,-2.16532 m 84.44742,0.72178 v 2.88709 h 0.72178 l -0.72178,-2.88709 m -86.61273,1.44354 -0.72177,0.72179 0.72177,-0.72179 m 3.60886,0 0.72178,0.72179 -0.72178,-0.72179 m -5.05241,2.16533 -0.72177,0.72176 0.72177,-0.72176 m 88.05628,0 0.72178,0.72176 -0.72178,-0.72176 m -86.61273,0.72176 0.72177,0.72178 -0.72177,-0.72178 m 86.61273,0.72178 v 6.49597 h 0.72178 l -0.72178,-6.49597 m 29.59267,0.72178 -0.72173,2.1653 h -0.72181 l 1.44354,-2.1653 m -121.97958,2.88708 -0.72178,0.72179 0.72178,-0.72179 m -1.44355,0.72179 -0.72178,0.72175 0.72178,-0.72175 m 4.33063,0.72175 0.72178,0.72179 -0.72178,-0.72179 m -7.93949,1.44357 -0.72178,0.72176 0.72178,-0.72176 m 2.88708,1.44354 1.44355,1.44354 -1.44355,-1.44354 m 94.79259,0.48141 0.24109,0.48069 -0.24109,-0.48069 m -97.67967,0.24035 v 2.16532 h 0.72177 l 0.72178,-2.16532 h -1.44355 m -3.60886,2.8871 0.72177,0.72176 -0.72177,-0.72176 m -2.16533,0.72176 -0.72177,2.88711 h 0.72177 l 1.44355,-2.16533 -1.44355,-0.72178 m -9.38304,2.16532 0.72177,0.72179 -0.72177,-0.72179 m 1.92475,0.24035 0.48113,0.24109 -0.48113,-0.24109 m 2.40588,-0.24035 0.72178,0.72179 -0.72178,-0.72179 m 156.62469,3.60887 c -2.74201,4.73268 -3.48041,10.48231 -2.88708,15.87899 l 3.60886,-9.38305 h 0.72179 c -0.55507,4.12277 -2.77165,8.28813 2.16529,10.10484 1.00833,-3.80881 4.49448,-20.06963 -2.92753,-20.04941 -2.52042,0.007 -3.26237,2.88419 -0.68133,3.44863 m 11.54838,-2.16533 -1.44352,4.33065 2.16527,0.72176 -0.72175,-5.05241 m -133.04656,0.96213 0.48071,0.24107 -0.48071,-0.24107 m 115.00224,4.81206 h 2.88705 l -0.72173,-4.33062 -2.16532,4.33062 m 8.66126,-3.60886 v 2.16532 h -0.72175 l 0.72175,-2.16532 m -162.39887,0.72178 v 1.44354 h 2.16532 v -1.44354 h -2.16532 m 109.70943,0 0.72181,0.72176 -0.72181,-0.72176 m 60.14755,3.36852 0.24106,0.48067 -0.24106,-0.48067 m -42.82499,0.24034 -0.72175,9.38303 h 0.72175 v -9.38303 m 34.40478,0.48141 -0.24109,0.4807 0.24109,-0.4807 m 2.40564,-0.48141 -0.72175,2.88708 h -0.72179 l 1.44354,-2.88708 m -33.92331,0.72176 v 10.10484 h 1.44354 v -10.10484 h -1.44354 m 44.74991,0.72178 -15.879,41.86283 c 5.1253,3.02204 7.83339,2.89068 13.71367,2.88708 v 0.72176 l -2.16527,0.72178 1.44352,0.72178 v 0.72176 l -7.93952,0.72178 v 0.72179 h 2.16533 v 0.72175 h -10.10481 v 0.72179 h 2.16532 v 0.72175 h -9.38307 l 7.07411,-20.9314 -1.2999,-18.04431 h -1.44354 l -2.88713,6.49594 -0.72173,-5.0524 h -0.72181 l -1.44354,19.48788 h -0.72179 l -0.72173,-3.60889 -2.88713,5.05241 2.16535,-0.72176 -3.60889,2.16532 v 0.72176 c 2.60993,0.81055 3.03435,1.76546 2.16535,4.33065 -1.77194,-2.45476 -3.72076,-2.09675 -6.49597,-1.44354 l 1.44354,2.88708 -2.88711,0.72178 -4.33062,8.66127 -5.77419,-6.49597 v -0.72176 l 5.05241,-3.60886 v 5.0524 l 5.77421,-7.21773 -4.33062,2.16533 -0.72181,-2.16533 c -4.14589,1.43923 -7.9561,5.54683 -7.21773,10.10484 l -4.33062,-2.16533 -0.72178,18.04432 v 0.72176 l 36.81042,2.88711 -1.44354,-7.93951 1.44354,-4.33065 10.82659,1.44356 -10.10486,16.60076 -7.21767,0.72178 v 0.72178 c 6.36746,0.0172 10.65839,1.03286 14.66064,6.2289 2.67486,3.47245 2.19488,7.5483 6.99251,8.92832 -4.55223,5.62549 -11.20336,10.58624 -18.76607,9.38305 l -12.99195,3.60886 3.60887,5.0524 4.33065,-0.72175 4.33062,4.33062 v 0.72178 l 15.15726,5.77419 1.44354,70.01192 -15.15721,1.4436 0.72176,-1.4436 -7.93949,2.88714 -5.0524,0.72173 h 5.0524 v 2.16532 c -2.33566,-0.21651 -4.60131,-1.38507 -5.0524,1.44354 l -11.5484,-0.72173 v 0.72173 h 3.60886 v 0.72181 l -15.87899,0.72173 -0.72176,-36.08861 h -2.16532 l -1.44355,8.66127 h -0.72178 v -44.02812 h -0.72176 l -0.72178,19.48783 h -0.72181 v -3.60887 h -0.72173 c 0,9.04672 2.74201,30.16002 -5.77421,35.36689 v -20.20962 h -0.72176 v 28.87088 l -1.36128,10.38847 -12.35168,0.43815 v 0.72173 l 2.1653,-0.72173 -6.49594,2.16535 0.72175,-2.16535 -23.81848,0.72173 c -1.26383,-1.70119 -2.63953,-1.32154 -2.8871,0.72181 l -10.82658,1.44351 v 0.72184 l 12.27013,2.16525 c 0,-2.96141 2.75717,0.33927 3.60886,1.44356 h 6.49596 l 0.72177,2.1653 -5.05241,2.16532 h -0.72177 c -1.66874,-1.25944 -2.87194,-1.64777 -4.33064,0 h -0.72177 c -2.31978,-2.61347 -13.89918,-1.39374 -16.60077,0.72181 h -0.72177 l -7.9395,-1.44354 v 0.72173 h 2.88709 v 0.72181 l -5.05241,1.44354 14.43545,-0.72178 v 0.72178 h -1.44355 v 0.72176 h 3.60887 l -0.72177,-1.44354 h 2.88709 v 0.72178 l -1.44355,0.72176 0.72177,0.72178 2.88709,-1.44354 c 0.50381,3.0235 5.97268,0.86683 7.93951,0 1.02275,1.82105 1.79216,1.05233 2.16531,-0.72178 h 0.72178 v 2.16532 H 372.7836 l -1.4428,-51.24585 -0.42587,-28.14915 -16.17562,-24.54026 18.25292,22.66148 12.78329,1.157 29.59269,0.72178 V 408.366 h -0.72178 v 4.33064 h -0.72176 V 408.366 h -0.72178 l -0.72179,6.49597 h -0.72175 v -3.60889 h -0.72179 l -2.16535,17.32256 h -0.72173 l 5.77437,-44.74991 h -0.72178 l -5.0524,36.08864 h -0.72176 l 4.33062,-33.92331 h -0.72176 l -7.93951,51.24585 h -0.72175 l 9.38302,-65.68133 h -0.72176 l -6.70959,43.30639 -4.83878,30.31445 c -5.1159,-0.018 -11.21706,-4.45551 -7.2177,-10.10484 v -0.72175 l -2.88711,1.44354 -1.44354,-0.72179 -1.44354,-4.33062 -5.0524,-2.16532 v -3.60887 l -4.33068,1.44355 0.72181,2.16532 -6.49594,0.72178 -1.44359,-3.60886 -2.16527,0.72176 3.43418,-13.70286 -3.46019,-8.67283 -1.41753,-17.32182 h -0.72181 l -0.72179,15.15724 h -2.16527 l -0.0743,-12.99191 4.40494,-10.10481 h -0.72176 l -3.60886,6.49594 2.16529,-12.27013 h -0.72175 l -0.72179,2.16533 h -0.72175 c 0,-6.48515 -2.90013,-17.06489 5.77416,-17.32257 v -0.72175 c -3.31653,-4.37756 -1.44354,-14.11068 -1.44354,-19.48789 l -5.05241,-0.72176 m 31.75799,1.44354 v 2.16533 l 1.44355,-2.16533 h -1.44355 m -64.95954,1.44355 0.72178,7.21772 h 0.72176 l -1.44354,-7.21772 m 36.81042,0 -0.72179,0.72178 0.72179,-0.72178 m -0.96211,1.92497 -0.24111,0.4807 0.24111,-0.4807 m 28.38945,-0.48143 1.44354,2.8871 h 8.66127 v 0.72176 h -2.88705 v 0.72178 l 13.71367,-0.72178 v -0.72176 l -20.93124,-2.8871 m -16.60076,1.44354 -0.72178,1.44356 h 1.44354 l -0.72176,-1.44356 m -85.16919,0.72178 0.72176,0.72178 -0.72176,-0.72178 m 72.65872,0.48143 -0.24109,0.4807 0.24109,-0.4807 m 50.76444,0.96211 0.72173,0.72178 -0.72173,-0.72178 m -92.38692,0.72178 0.72176,0.72179 -0.72176,-0.72179 m 40.90067,0.48144 -0.24107,0.48069 0.24107,-0.48069 m 49.32092,0.9621 v 0.72179 h 2.88706 l -2.88706,-0.72179 m -50.04265,1.2032 -0.24109,0.48072 0.24109,-0.48072 m -55.33615,0.96213 v 1.44354 h 1.44354 v -1.44354 h -1.44354 m 5.77413,0 v 6.49594 h 0.72181 l 0.72173,-6.49594 h -1.44354 m 4.33067,0 0.72176,10.82659 h 0.72178 v -10.82659 h -1.44354 m 5.05241,0 v 10.82659 h 0.72176 l -0.72176,-10.82659 m 6.49594,0 v 5.77418 h 1.44354 v -5.77418 h -1.44354 m 32.96119,1.20319 -0.24107,0.48069 0.24107,-0.48069 m 52.92979,0.24035 -0.72179,6.49597 h 0.72179 v -6.49597 m -53.65152,1.92497 -0.24107,0.4807 0.24107,-0.4807 m 8.90158,1.68389 3.60887,-2.16532 -3.60887,2.16532 m -9.38302,0 -1.44354,5.05243 h -0.72178 l 2.16532,-5.05243 m 8.66127,2.16532 h 2.16532 l -0.72178,-1.44354 -1.44354,1.44354 m 2.88708,-1.44354 v 2.16533 h 0.72178 l 0.72176,-2.16533 h -1.44354 m 39.93785,0.48141 0.24106,0.4807 -0.24106,-0.4807 m -115.72396,0.96213 v 9.38305 h 2.16532 v 58.46358 h 0.72176 v -59.90712 l -2.16535,0.72176 -0.72173,-8.66127 m 38.25393,0 0.72176,0.72179 -0.72176,-0.72179 m -77.2297,25.26205 13.71369,-5.0524 0.72179,2.88708 h 0.72175 l 2.16533,-6.49595 -0.72179,5.05241 c 6.63239,-5.85285 -0.24466,-13.95405 -6.49594,-16.60078 l 0.72176,-3.60887 c -13.97207,-2.25626 -15.35932,14.79995 -10.82659,23.81851 m 71.45551,-23.81851 -0.72175,2.16533 0.72175,-2.16533 m 41.14104,0 0.72179,0.72179 -0.72179,-0.72179 m 43.30634,0 -0.72173,3.60887 0.72173,-3.60887 m -146.51984,2.88711 -0.72179,0.72176 0.72179,-0.72176 m 111.15301,0.72176 v 1.44354 h 1.44355 v -1.44354 h -1.44355 m -65.6813,1.44354 v 2.8871 h 0.72173 l -0.72173,-2.8871 m 5.77416,0 v 8.66127 h 0.72178 l -0.72178,-8.66127 m -47.63701,5.77419 2.16532,3.60886 -2.88708,-2.88708 0.72176,-0.72178 m -5.77419,0.72178 -0.72175,0.72178 0.72175,-0.72178 m 111.8748,0.72178 v 10.10481 h 0.72176 c 0.41288,-3.24943 2.21083,-7.79444 -0.72176,-10.10481 m -151.57229,1.44352 0.72178,0.72178 -0.72178,-0.72178 m 140.02392,0 0.72178,0.72178 -0.72178,-0.72178 m -176.59376,1.92497 0.24064,0.4807 -0.24064,-0.4807 m 135.45272,-0.48141 v 0.72176 h 2.16532 l -2.16532,-0.72176 m 89.74016,1.20319 0.24106,0.4807 -0.24106,-0.4807 m 1.20322,1.68389 v 2.16533 h 0.72173 l -0.72173,-2.16533 m -103.93543,0.72179 v 5.0524 h 0.72176 l -0.72176,-5.0524 m 56.53863,0.48141 0.24106,0.48069 -0.24106,-0.48069 m -36.32899,2.40567 -2.88708,-2.16533 2.88708,2.16533 m 81.5603,-1.44354 v 2.16532 h 0.72176 l -0.72176,-2.16532 m -139.30214,1.44354 0.72175,2.16532 -0.72175,-2.16532 m 140.74568,0.72178 v 2.88708 h 0.72179 l -0.72179,-2.88708 m -2.16532,1.44354 v 2.88708 h 0.72178 l -0.72178,-2.88708 m -140.74569,0.72176 v 1.44356 l 1.44354,-1.44356 h -1.44354 m 53.4112,0 0.72176,5.77418 -3.60886,1.44357 c -0.13134,2.99101 -1.4486,3.88025 -4.33062,4.33062 v -0.72178 h 2.88708 c -1.11297,-4.34578 0.24831,-8.65693 4.33064,-10.82659 m 2.88708,0 3.60889,6.49597 -3.60889,0.72178 v -7.21775 m -73.62082,0.72178 v 0.72178 l -2.16532,0.72176 v -0.72176 l 2.16532,-0.72178 m 107.54411,1.44354 -0.72173,0.72178 0.72173,-0.72178 m -11.54832,0.72178 0.72178,0.72179 -0.72178,-0.72179 m -76.50792,0.72179 v 0.72175 l 2.16532,0.72179 -2.16532,-1.44354 m 43.30636,4.33062 -5.0524,-4.33062 c 3.17148,0.24177 4.54067,1.12307 5.0524,4.33062 m 35.36688,-2.16533 -0.72178,0.72179 0.72178,-0.72179 m 1.44354,0.24038 c 0.5579,0 0.11549,0.35943 -0.24037,0.24106 l 0.24037,-0.24106 m -6.73631,0.96282 -0.24107,0.48072 0.24107,-0.48072 m -20.69106,0.24037 -0.72178,0.72176 0.72178,-0.72176 m -75.06437,5.0524 0.72177,2.16533 h -4.33064 l 1.44355,-2.88711 -2.16532,-0.72178 1.44355,-1.44354 -1.44355,-1.44354 c 2.1646,0.2418 6.98604,1.681 4.33064,4.33064 m 57.74184,-4.33064 2.16532,8.66127 c -3.44143,-1.80587 -4.58401,-5.46455 -2.16532,-8.66127 m 18.76607,0.72178 0.72181,1.44354 -0.72181,-1.44354 m 7.21773,0 0.72176,1.44354 -0.72176,-1.44354 m -85.89096,2.1653 0.72177,0.72178 -0.72177,-0.72178 m 74.34259,1.44356 5.77418,2.88709 v 0.72178 l -6.49591,1.44354 0.72173,-5.05241 m -2.16527,2.16533 -1.44354,2.88708 -2.88714,-4.33065 4.33068,1.44357 m 8.66126,-1.44357 -0.72181,0.72178 0.72181,-0.72178 m -5.77418,0.72178 0.72175,0.72179 -0.72175,-0.72179 m -137.85862,1.44355 0.72177,0.72178 -0.72177,-0.72178 m 64.95954,0.72178 -0.72178,0.72176 0.72178,-0.72176 m 72.89908,3.60886 v 0.72176 h -5.77422 l 5.77422,-0.72176 m -63.75639,0.48141 -0.24107,0.4807 0.24107,-0.4807 m 1.44355,1.44354 -0.24107,0.4807 0.24107,-0.4807 m 42.34352,2.16533 0.24111,0.48069 -0.24111,-0.48069 m 46.6749,0.24034 v 0.72179 l -2.8871,0.72178 2.8871,-1.44357 m 1.44354,0.24035 c 0.5579,0 0.11549,0.35946 -0.24037,0.24109 l 0.24037,-0.24109 m -166.00774,0.48144 v 2.88708 h 0.72177 l -0.72177,-2.88708 m 75.06435,1.44354 h 4.33064 l -5.05241,0.72178 0.72177,-0.72178 m 151.09086,0.48143 0.24109,0.4807 -0.24109,-0.4807 m -225.91464,2.1653 0.24063,0.48072 -0.24063,-0.48072 m 227.83961,1.68391 -0.72178,0.72176 0.72178,-0.72176 m -228.08018,1.44354 v 3.60887 h 0.72177 l -0.72177,-3.60887 m 106.10057,2.88708 v 0.72179 l 2.88708,-1.44354 -2.88708,0.72175 m 119.81429,-0.72175 v 2.16532 h -0.72176 l 0.72176,-2.16532 m -223.99011,0.9621 0.48113,0.24109 -0.48113,-0.24109 m 105.61939,-0.24035 -0.72178,0.72179 0.72178,-0.72179 m -107.54414,1.44357 v 2.88708 h 0.72177 l -0.72177,-2.88708 m 221.58424,2.1653 v 4.33064 h -0.72178 l 0.72178,-4.33064 m -182.60852,2.16532 0.72178,0.72178 -0.72178,-0.72178 m 181.88674,3.60887 v 2.16532 h -0.72176 l 0.72176,-2.16532 m 1.44354,2.8871 v 2.88708 h -0.72175 l 0.72176,-2.88708 m -109.70943,0.72176 v 32.47977 h 0.72176 c 0.51033,-8.75437 2.65469,-24.43345 -0.72176,-32.47977 m 87.33446,0.72178 -0.72173,0.72176 0.72173,-0.72176 m 19.9693,0.48141 -0.24107,0.4807 0.24107,-0.4807 m -18.52576,2.40567 -0.72173,0.72179 0.72173,-0.72179 m -126.31022,1.44354 5.05242,1.44357 -1.44354,5.77416 -3.60888,-7.21773 m 144.35457,1.44357 v 2.1653 h -0.72179 l 0.72179,-2.1653 m -142.91102,0.72176 0.72179,0.72178 -0.72179,-0.72178 m 142.91102,2.16532 -0.72179,0.72176 0.72179,-0.72176 m -108.98767,2.1653 0.72173,0.72178 -0.72173,-0.72178 m 24.54029,0.72178 v 2.88711 l 1.44354,-2.88711 h -1.44354 m 83.48527,1.92498 -0.24109,0.48069 0.24109,-0.48069 m -121.73926,0.24034 v 1.44354 h 1.44354 l -1.44354,-1.44354 m -20.20965,0.72179 -5.77418,1.44354 5.77418,-1.44354 m 8.42093,0.48141 -0.24107,0.48069 0.24107,-0.48069 m 87.57486,-0.48141 -0.72173,0.72175 0.72173,-0.72175 m 4.33064,0 v 0.72175 h -2.8871 l 2.8871,-0.72175 m -107.54416,0.72175 v 0.72179 h -2.88709 l 2.88709,-0.72179 m 28.14914,2.16533 -2.16533,2.88708 2.16533,-2.88708 m -19.48786,1.44354 -0.72176,0.72178 0.72176,-0.72178 m 15.15723,0.24037 c 0.55793,0 0.11547,0.35944 -0.24037,0.24106 l 0.24037,-0.24106 m -5.77418,0.48141 v 3.60886 h 0.72175 l -0.72175,-3.60886 m -42.5846,0.96213 c 0.55793,0 0.11549,0.35944 -0.24035,0.24106 l 0.24035,-0.24106 m 51.24587,1.92495 1.44354,5.77419 h -0.72176 l -0.72178,-5.77419 m -8.42093,1.92498 0.24107,0.48069 -0.24107,-0.48069 m -42.10317,0.48069 c 0.55794,0 0.11549,0.35944 -0.24035,0.24109 l 0.24035,-0.24109 m 57.74182,-0.24034 -0.72175,0.72178 0.72175,-0.72178 m 7.21776,0 0.72173,0.72178 -0.72173,-0.72178 m -66.40312,0.72178 -0.72177,0.72176 0.72177,-0.72176 m 4.33063,0.72176 1.44355,2.8871 -1.44355,-2.8871 m 39.21608,0.48143 0.24107,0.4807 -0.24107,-0.4807 m 6.2556,-0.48143 2.88711,5.0524 -5.05241,-2.88708 2.1653,0.72178 v -2.8871 m 16.60081,0 v 2.8871 h 0.72173 l -0.72173,-2.8871 m -30.31448,13.71367 -1.44354,11.5484 h -0.72178 c -2.10109,-9.00994 1.60594,-16.56977 -4.33064,-24.54029 8.38122,1.53159 3.52009,7.84495 6.49596,12.99189 m 13.71367,-10.82657 0.72178,0.72176 -0.72178,-0.72176 m -44.99025,1.20319 -0.24108,0.4807 0.24108,-0.4807 m 41.14104,2.16533 -0.24106,0.48069 0.24106,-0.48069 m -41.62247,0.9621 -0.72177,0.72179 0.72177,-0.72179 m 62.07249,0 0.72173,0.72179 -0.72173,-0.72179 m 6.49594,0 -0.72176,2.16533 0.72176,-2.16533 m -48.35879,0.72179 v 2.88708 h -0.72177 l 0.72177,-2.88708 m 45.47171,1.44354 v 2.16532 h 0.72173 l -0.72173,-2.16532 m -3.60886,0.72178 0.72173,0.72176 -0.72173,-0.72176 m -108.26593,1.44354 0.72177,0.72176 -0.72177,-0.72176 m 103.93525,3.60889 2.88708,-2.88713 c -2.5601,-0.39479 -3.28189,0.32697 -2.88708,2.88713 m -2.16529,-2.88713 -0.72179,1.44354 h 1.44354 l -0.72175,-1.44354 m 84.4474,0.72178 0.72181,0.72176 -0.72181,-0.72176 m -119.81428,2.16535 -2.88709,7.21767 -2.88709,-2.16527 2.16532,0.72173 3.60886,-5.77413 m -22.6153,1.20317 -0.24107,0.48069 0.24107,-0.48069 m -10.58624,0.24037 c -1.34177,4.97226 -4.94342,4.33059 -9.38304,4.33059 1.74452,-3.85138 5.55043,-3.84341 9.38304,-4.33059 m 65.68131,3.60886 v 0.72173 h -2.88708 l 2.88708,-0.72173 m -116.2054,2.88706 -0.72177,0.72181 0.72177,-0.72181 m 104.65705,2.16535 v 0.72173 h -6.49597 l 6.49597,-0.72173 m -11.54837,0.72173 -0.72176,0.72181 0.72176,-0.72181 m 121.97958,0.72181 c -1.59221,3.3093 -2.28656,8.3884 2.88713,7.21773 l -0.72178,-2.16533 15.15721,1.44354 v 0.72179 l -2.88708,2.16527 6.49595,-3.60881 h 0.72178 l 4.33062,1.44354 c -1.06675,-2.91958 -1.1375,-6.1589 -4.33062,-7.21773 v 2.88708 h 0.72176 v -1.44354 h 0.72178 l -0.72178,2.88705 -13.71368,0.24977 -7.21775,-0.24977 -1.44354,-2.16527 v -0.72178 l 1.44354,-1.44354 h -1.44354 m 25.26207,0 v 3.60886 h 0.72176 l -0.72176,-3.60886 m -147.96341,0.72173 -0.72179,0.72181 0.72179,-0.72181 m 39.6975,1.44359 0.72178,0.72176 -0.72178,-0.72176 m -132.08442,1.68389 0.24057,0.24106 c -0.35619,0.11835 -0.79878,-0.24106 -0.24057,-0.24106 m 223.74955,-0.24035 0.72179,0.72173 -0.72179,-0.72173 m -7.93948,2.40565 0.24035,0.24106 c -0.35584,0.11837 -0.79828,-0.24106 -0.24035,-0.24106 m 23.09672,0 0.24032,0.24106 c -0.35581,0.11837 -0.79827,-0.24106 -0.24032,-0.24106 m -105.86026,4.57173 0.24111,0.48067 -0.24111,-0.48067 m -176.59348,1.20245 0.48118,0.24107 -0.48118,-0.24107 m 260.07875,-0.24034 -1.44354,2.16532 2.88713,0.72178 -1.44359,-2.8871 m -84.44738,1.44351 0.72178,0.72181 -0.72178,-0.72181 m -2.64671,4.0903 0.24107,0.48075 -0.24107,-0.48075 m -140.98607,4.57097 v 0.72181 h 5.05241 l -5.05241,-0.72181 m -15.15723,0 v 0.72181 h 5.05241 l -5.05241,-0.72181 m 7.21773,0 0.72177,0.72181 -0.72177,-0.72181 m 252.62047,0 -1.44354,2.88713 h 3.60886 l -2.16532,-2.88713 m -277.88251,2.88713 0.72177,2.16532 h -2.16532 v 12.27011 c 5.91411,-2.61787 10.86672,-0.64307 9.38305,6.496 3.87469,3.53017 -0.27608,7.15057 -3.60887,9.38299 -0.83156,-2.95849 -3.07643,-2.49152 -5.77418,-2.88705 v 13.71367 l 28.87091,-1.44354 -0.72177,1.44354 h 33.92331 l -0.72177,-2.16532 2.16532,1.44354 6.49595,-1.44354 -7.21773,-2.88711 -10.82659,1.44354 0.72177,-1.44354 -10.82658,0.72181 -3.60887,-1.44359 v 2.16532 h -0.72177 l -5.77418,-0.72173 v -0.72181 h 5.77418 v -0.72178 l -1.44355,-1.44351 5.05241,0.72175 h 0.72178 l 7.21772,-0.10681 15.15723,-1.33673 v -0.72176 h -5.05241 v -0.7218 h 2.16532 v -0.72174 l -4.33064,1.44354 v -1.44354 l -2.16532,1.44354 -0.72177,-2.88705 -2.88709,0.7217 -1.44355,2.16535 -6.49595,-2.16535 h -0.72177 c 4.07498,-6.86617 11.76128,-4.23246 18.04432,-5.77413 v -0.72181 h -7.93951 l 5.77419,-5.05238 H 147.5898 l 1.44354,-0.72181 v -0.72173 l -5.05241,1.44354 1.44355,-2.16535 v -0.72173 l -10.10483,-2.88713 v -0.72176 l 25.26205,0.72176 v 2.16532 l -2.88709,2.16535 4.33064,-0.72181 -0.72177,-2.16532 c 3.95762,-0.86537 0.0231,-2.84012 -2.16532,-2.88708 v -0.72173 c 5.21033,-0.89863 13.24308,0.664 17.32254,-2.88713 h -7.21772 v -1.44354 l 6.49595,-1.44354 h 0.72177 l 2.88709,0.72175 v -0.72175 c -1.70836,0 -2.18011,-1.36346 -0.72177,-2.16533 v -0.72176 h -4.33064 l 1.44355,-2.16532 -5.77418,1.44354 v 0.72178 h 3.60886 v 0.72176 l -16.60077,1.44354 -0.72177,-0.72176 0.72177,-1.44354 h -5.05241 v 0.72176 h 2.16532 v 0.72178 h -15.879 l 2.16532,-2.16532 -0.72177,-2.88708 -2.16532,2.1653 c -3.48284,-2.4143 -7.54464,-1.65571 -11.54836,-0.72176 m 17.32254,0 -2.16532,0.72176 v 0.72178 l 2.16532,-1.44354 m 34.64509,0 0.72177,0.72176 -0.72177,-0.72176 m -16.60077,1.44354 0.72177,0.72178 -0.72177,-0.72178 m -31.758,0.72178 -0.72177,0.72176 0.72177,-0.72176 m 18.04432,0 0.72177,0.72176 -0.72177,-0.72176 m 41.14104,0 0.72177,0.72176 -0.72177,-0.72176 m -52.68942,0.72176 -0.72177,0.72178 0.72177,-0.72178 m 46.19346,0.72178 v 0.72176 l 5.77419,-0.72176 h -5.77419 m -36.08863,1.68392 0.24057,0.24106 c -0.3562,0.11835 -0.79879,-0.24106 -0.24057,-0.24106 m 15.15723,0.48138 -1.44355,0.72179 1.44355,0.72178 v 0.72176 l -4.33064,2.16532 h -0.72177 l 0.72177,-2.88708 h -3.60886 v 0.72176 h 1.44354 v 0.72178 l -3.60886,-0.72178 -2.16532,1.44354 -0.72177,-2.88708 11.54836,-1.44354 1.44355,0.72175 m 7.21772,-0.72175 -0.72177,0.72175 0.72177,-0.72175 m 12.27014,1.44354 2.16532,-0.72179 -2.16532,0.72179 m -18.04432,-0.72179 3.60887,0.72179 v 0.72178 l -3.60887,-1.44357 m -18.04431,0.72179 -0.72178,0.72178 0.72178,-0.72178 m 38.97572,0 0.72177,0.72178 -0.72177,-0.72178 m -15.15723,0.72178 -0.72177,0.72176 0.72177,-0.72176 m 8.66127,0.72176 v 0.72178 c 1.41475,0.47133 1.84341,0.72176 0,0.72176 v 0.72178 l 7.21773,-0.72178 -7.21773,-1.44354 m 114.04009,-0.72176 -0.72178,0.72176 0.72178,-0.72176 m -165.28594,0.96213 0.24057,0.24106 c -0.3562,0.11838 -0.79878,-0.24106 -0.24057,-0.24106 m 60.38833,0.72173 0.48114,0.24111 -0.48114,-0.24111 m 5.05241,0 0.48114,0.24111 -0.48114,-0.24111 m 2.88709,0.72181 0.48114,0.24106 -0.48114,-0.24106 m -45.23111,1.20322 -0.72177,0.72173 0.72177,-0.72173 m 7.21773,0 -0.72178,0.72173 0.72178,-0.72173 m 7.9395,0 0.72177,0.72173 -0.72177,-0.72173 m 18.76609,0 0.72177,0.72173 -0.72177,-0.72173 m -48.35878,0.72173 -0.72176,0.72178 0.72176,-0.72178 m 10.10483,0.24037 0.24055,0.24107 c -0.35619,0.11837 -0.79878,-0.24107 -0.24055,-0.24107 m 31.03622,-0.24037 v 0.72178 h 5.05241 l -5.05241,-0.72178 m 226.39628,0.9621 0.48069,0.24112 -0.48069,-0.24112 m -4.0903,1.20322 v 0.72176 l 2.16535,2.16532 0.72178,-2.88708 h -2.88713 m -210.03584,0.72176 v 0.72178 h 2.16532 l -2.16532,-0.72178 m 224.95275,0.24035 0.48067,0.24109 -0.48067,-0.24109 m -258.87607,0.48143 v 0.72181 h 2.88709 l -2.88709,-0.72181 m 8.66127,1.44354 2.88709,-0.72173 -2.88709,0.72173 m -10.10481,-0.72173 0.72177,0.72173 -0.72177,-0.72173 m 200.65282,0 0.72178,0.72173 -0.72178,-0.72173 m -213.64473,0.72173 -3.60888,1.44354 3.60888,-1.44354 m 1.44354,0 2.16532,0.72181 v 0.72173 l -2.88709,-0.72173 0.72177,-0.72181 m -12.99192,0.72181 0.72179,0.72173 -0.72179,-0.72173 m 103.93528,0.72173 v 0.72181 h 4.33063 l -4.33063,-0.72181 m 9.38304,0 2.16532,1.4436 v -0.72179 l -2.16532,-0.72181 m -57.02004,0.72181 0.72178,0.72179 -0.72178,-0.72179 m 146.51989,0 0.72173,0.72179 -0.72173,-0.72179 m 13.71367,0 -0.72181,0.72179 0.72181,-0.72179 m -181.88674,0.72179 v 1.44354 h -1.44354 l 1.44354,-1.44354 m 158.06826,0 -0.72181,0.72173 v 0.72181 0.72173 h 6.49595 v -0.72173 l -4.3306,-1.44354 h -1.44354 m -163.84244,0.72173 -0.72177,0.72181 0.72177,-0.72181 m 2.16532,0 -0.72177,0.72181 0.72177,-0.72181 m 10.82659,0 v 0.72181 l -0.72177,1.44354 -2.16532,-2.16535 h 2.88709 m 73.62081,0 -2.16532,2.16535 v 0.72173 h 7.9395 l -5.77418,-2.88708 m 21.65317,0 -1.44354,2.16535 c 1.62473,-0.34142 2.25049,-0.62074 1.44354,-2.16535 m 56.29828,0 -0.72173,0.72181 0.72173,-0.72181 m 17.32254,0 h 0.72181 l 10.1048,0.72181 v 0.72173 l -10.82661,2.88713 -5.77414,-2.88713 5.77414,-1.44354 m -161.67708,0.72181 -0.72177,0.72173 0.72177,-0.72173 m 13.71368,0.72173 v 0.72181 l 2.8871,-0.72181 h -2.8871 m 59.18536,0 v 0.72181 l 2.16532,0.72173 1.44355,-1.44354 h -3.60887 m 16.60079,-0.72173 v 1.44354 h 1.44354 l -1.44354,-1.44354 m 15.15721,0.72173 v 0.72181 h 4.33065 l -4.33065,-0.72181 m 31.03623,-0.72173 0.72179,0.72173 -0.72179,-0.72173 m -145.79808,0.72173 v 0.72181 h -7.9395 l 7.9395,-0.72181 m 6.49595,0 -0.72177,0.72181 0.72177,-0.72181 m 58.46359,0 v 1.44354 h 4.33063 l -4.33063,-1.44354 m 7.9395,0 0.72177,0.72181 -0.72177,-0.72181 m 6.49595,0 -0.72177,0.72181 0.72177,-0.72181 m 12.75156,0.24037 0.4807,0.24106 -0.4807,-0.24106 m 1.68389,-0.24037 1.44355,1.44354 -1.44355,-1.44354 m -107.54412,0.72181 v 0.72173 h -3.60887 l 3.60887,-0.72173 m 2.88709,0 v 0.72173 h -2.16532 l 2.16532,-0.72173 m 66.16273,0.24034 0.48071,0.24109 -0.48071,-0.24109 m 101.04819,0 0.48072,0.24109 -0.48072,-0.24109 m 90.94337,0 0.48067,0.24109 -0.48067,-0.24109 m -237.94466,0.48139 v 0.72178 h -3.60886 l 3.60886,-0.72178 m 103.93527,0 -1.44354,0.72178 v 0.72181 l 1.44354,-1.44359 m 67.12487,0 -0.72176,0.72178 0.72176,-0.72178 m 6.49597,0 v 0.72178 h -2.16532 l 2.16532,-0.72178 m -207.14879,0.96215 c 0.55822,0 0.11563,0.35944 -0.24056,0.24107 l 0.24056,-0.24107 m 190.54799,0 c 0.55792,0 0.11549,0.35944 -0.24035,0.24107 l 0.24035,-0.24107 m 65.68133,0.48144 c -2.81924,4.01518 -0.63082,5.95606 3.60886,7.21768 -1.94302,3.71281 -4.60129,4.71826 -8.66129,5.05245 0,2.27288 -3.08192,2.41935 -5.05238,2.1653 l -7.21775,1.44354 v 0.72178 h 29.59269 v -15.87902 l -2.88708,0.72181 v 0.72173 h 2.16532 v 0.72181 h -2.88711 l 0.72179,1.44351 -9.38305,-4.33059 m -271.38655,0.72173 0.72178,0.72181 -0.72178,-0.72181 m 20.93142,0 -2.16532,1.44354 v -0.72173 l 2.16532,-0.72181 m 7.93949,0 -0.72177,0.72181 0.72177,-0.72181 m 15.879,0 -0.72177,2.16535 -2.16532,-0.72181 v 0.72181 h 5.77418 v -0.72181 l -2.88709,-1.44354 m 110.91265,0.24037 0.48069,0.24107 -0.48069,-0.24107 m -145.55774,0.48144 -0.72177,0.72173 0.72177,-0.72173 m 58.46359,0 v 0.72173 h 2.16532 l -2.16532,-0.72173 m 2.8871,0 0.72177,0.72173 -0.72177,-0.72173 m 121.25782,0 -0.72176,0.72173 0.72176,-0.72173 m 55.57652,0 0.72173,0.72173 -0.72173,-0.72173 m -214.36653,0.72173 v 1.44362 l -1.44354,-1.44362 h 1.44354 m 15.15723,0 v 0.72181 h 2.88709 l -2.88709,-0.72181 m 36.81041,0 0.72176,0.72181 -0.72176,-0.72181 m 18.76608,0 0.72178,0.72181 -0.72178,-0.72181 m 12.27014,0 -2.16532,1.44362 v -0.72181 l 2.16532,-0.72181 m 7.69915,0.48144 -0.24107,0.48072 0.24107,-0.48072 m 14.6758,-0.48144 v 0.72181 l -5.77419,0.72181 5.77419,-1.44362 m 7.93951,0 -0.72178,0.72181 0.72178,-0.72181 m 42.58458,0.24038 0.24037,0.24106 c -0.35586,0.11837 -0.79827,-0.24106 -0.24037,-0.24106 m -166.00772,0.48143 v 0.72181 h -2.88708 l 2.88708,-0.72181 m 15.87901,0 0.72177,0.72181 -0.72177,-0.72181 m 81.56031,0 -0.72178,0.72181 0.72178,-0.72181 m 6.49595,0.24035 0.24035,0.24109 c -0.35583,0.11837 -0.79828,-0.24109 -0.24035,-0.24109 m 29.59268,-0.24035 v 0.72181 h -3.60887 l 3.60887,-0.72181 m -153.01582,0.96213 0.24058,0.24101 c -0.3562,0.11838 -0.79879,-0.24101 -0.24058,-0.24101 m 33.92333,-0.24032 1.44355,2.16524 -1.44355,-2.16524 m 50.28374,0.24032 0.4807,0.24101 -0.4807,-0.24101 m 193.67544,0 0.24035,0.24101 c -0.35584,0.11838 -0.79828,-0.24101 -0.24035,-0.24101 m -238.185,0.48138 0.72177,0.72184 -0.72177,-0.72184 m 171.06015,0 -0.72178,0.72184 0.72178,-0.72184 m -181.16497,0.72184 v 0.7217 l -7.9395,1.44355 7.9395,-2.16525 m 103.21348,0.2403 c 0.55796,0 0.1155,0.35941 -0.24034,0.24108 l 0.24034,-0.24108 m 7.93952,-0.2403 v 0.7217 H 273.9 l 2.88711,-0.7217 m 1.44354,0.2403 c 0.55792,0 0.11549,0.35941 -0.24035,0.24108 l 0.24035,-0.24108 m -127.75376,0.4814 -1.44355,1.44355 v -1.44355 h 1.44355 m 224.47135,0 v 2.16535 h 0.72173 l -0.72173,-2.16535 m -243.47803,1.20322 -0.2406,0.48067 0.2406,-0.48067 m 89.7404,0.96213 -0.72177,2.88706 23.81849,-1.44351 v -0.72179 h -15.15722 v -0.72176 l 2.16531,-0.7218 -10.10481,0.7218 m 10.82659,-1.44354 0.72177,0.72174 -0.72177,-0.72174 m -75.78613,0.96208 c 0.55822,0 0.11563,0.35947 -0.24057,0.24109 l 0.24057,-0.24109 m 194.15688,-0.24034 -0.72179,0.7218 0.72179,-0.7218 m -197.04397,0.96218 0.24056,0.24103 c -0.35619,0.11838 -0.79878,-0.24103 -0.24056,-0.24103 m 12.99191,-0.24038 -0.72178,0.72176 0.72178,-0.72176 m 5.05241,0 -0.72178,0.72176 0.72178,-0.72176 m 29.59267,0 0.72178,0.72176 -0.72178,-0.72176 m 59.90713,0 v 1.44355 h -1.44354 l 1.44354,-1.44355 m 2.88709,0 6.49595,0.72176 c -0.59762,2.78749 -2.65322,1.90336 -5.05241,2.1653 l -2.1653,-2.1653 0.72176,-0.72176 m 5.0524,0 -0.72175,0.72176 0.72175,-0.72176 m 10.8266,0 v 0.72176 h -7.93949 l 7.93949,-0.72176 m 2.16532,0 -0.72178,0.72176 0.72178,-0.72176 m 2.16532,0 -0.72178,0.72176 0.72178,-0.72176 m 1.44354,0.24038 0.24035,0.24103 c -0.35584,0.11838 -0.79827,-0.24103 -0.24035,-0.24103 m -154.45934,0.48138 -0.72178,0.72179 0.72178,-0.72179 m 47.63699,0 -0.72177,0.72179 0.72177,-0.72179 m 83.72563,0 -0.72177,0.72179 0.72177,-0.72179 m 111.63443,0.24032 0.48072,0.24114 -0.48072,-0.24114 m -224.47153,0.96285 -0.24064,0.48075 0.24064,-0.48075 m 3.84943,-0.48138 -1.44355,2.16529 1.44355,-2.16529 m 5.77418,0 0.72177,1.44351 h -1.44354 l 0.72177,-1.44351 m -2.88709,0.72175 v 1.44354 h -1.44355 l 1.44355,-1.44354 m 12.99191,0 5.0524,1.44354 v -0.72178 l -5.0524,-0.72176 m 90.22158,0 2.16532,0.72176 v 0.72178 l -2.88709,-0.72178 0.72177,-0.72176 m 14.43544,0.24038 0.24035,0.24108 c -0.35582,0.11833 -0.79825,-0.24108 -0.24035,-0.24108 m 127.7538,-0.24038 0.72178,0.72176 -0.72178,-0.72176 m -256.95109,0.96213 0.24055,0.24104 c -0.35619,0.11843 -0.79878,-0.24104 -0.24055,-0.24104 m 2.16531,-0.24037 -0.72177,0.72178 0.72177,-0.72178 m 4.09007,0.48141 -0.24064,0.48075 0.24064,-0.48075 m 120.77661,0.24037 -0.72178,0.72181 0.72178,-0.72181 m -78.67322,2.16535 2.16531,-0.72181 -2.16531,0.72181 m 3.36829,-1.20322 0.48091,0.24109 -0.48091,-0.24109 m 8.90184,-0.24032 0.72177,0.72173 -0.72177,-0.72173 m 7.21773,0 0.72177,0.72173 -0.72177,-0.72173 m 38.25395,0 -1.44355,1.44354 1.44355,-1.44354 m -60.6289,0.72173 0.72176,0.72181 -0.72176,-0.72181 m 1.44354,0 0.72177,0.72181 -0.72177,-0.72181 m 16.60078,1.44357 v 0.72178 l 4.33063,1.44354 h 0.72177 l 5.77418,-1.44354 -0.72178,-2.16535 -10.1048,1.44357 m 25.26203,-1.44357 -0.72177,0.72181 0.72177,-0.72181 m 12.27014,0 v 0.72181 h -4.33064 l 4.33064,-0.72181 m 15.879,0 -1.44355,1.44357 v -1.44357 h 1.44355 m 132.80619,0 0.72178,0.72181 -0.72178,-0.72181 m -248.28982,0.72181 -0.72177,0.72176 0.72177,-0.72176 m 1.44355,0 -0.72178,0.72176 0.72178,-0.72176 m 5.77418,0 -0.72177,0.72176 0.72177,-0.72176 m 32.47977,0 v 0.72176 l -4.33064,0.72178 4.33064,-1.44354 m 9.38304,0 v 1.44354 h 1.44355 l -1.44355,-1.44354 m 2.16532,0 v 0.72176 h 2.88709 l -2.88709,-0.72176 m 177.55613,0.72176 0.72173,0.72178 -0.72173,-0.72178 m -174.66904,0.72178 0.72177,0.72176 -0.72177,-0.72176 m 42.58459,0 -0.72178,0.72176 0.72178,-0.72176 m 17.32254,0 -0.72177,0.72176 0.72177,-0.72176 m -49.80231,0.72176 0.72177,0.72178 z"
     id="path171" />
  <rect
     style="fill:#4d4d4d;stroke-width:0.199764"
     id="rect223"
     width="128.41946"
     height="415.64243"
     x="-0.90258431"
     y="134.09236" />
  <rect
     style="fill:#4d4d4d;stroke-width:0.196443"
     id="rect223-4"
     width="124.63971"
     height="414.13052"
     x="385.77478"
     y="134.25934" />
  <text
     xml:space="preserve"
     style="font-size:14.1111px;line-height:1.25;font-family:sans-serif;letter-spacing:0px;stroke-width:0.264583"
     x="18.660465"
     y="190.81854"
     id="text242"><tspan
       id="tspan240"
       x="18.660465"
       y="190.81854"
       style="font-size:14.1111px;fill:#ffffff;stroke-width:0.264583">Krok 1</tspan></text>
  <text
     xml:space="preserve"
     style="font-size:10.5833px;line-height:1.25;font-family:sans-serif;letter-spacing:0px;fill:#ff6600;stroke-width:0.264583"
     x="18.783649"
     y="210.00221"
     id="text246"><tspan
       id="tspan244"
       x="18.783649"
       y="210.00221"
       style="fill:#ff6600;stroke-width:0.264583">Personalizacja</tspan></text>
  <rect
     style="fill:#4d4d4d;stroke-width:0.233787"
     id="rect223-42"
     width="512.21851"
     height="142.72739"
     x="-0.90258431"
     y="-2.5874307" />
  <rect
     style="fill:#4d4d4d;stroke-width:0.153576"
     id="rect223-42-6"
     width="512.21851"
     height="61.590183"
     x="-1.8040125"
     y="547.45447" />
  <rect
     style="fill:#ffffff;stroke-width:0.264583"
     id="rect280"
     width="107.44235"
     height="1.0690781"
     x="12.903721"
     y="196.63873" />
  <path
     id="rect145"
     style="fill:#ff6600;stroke-width:0.158167"
     d="m 445.09497,173.26863 v 70.71842 h -266.2338 v 2.55605 h 279.95231 v -73.27447 z" />
  <rect
     style="fill:#ffffff;fill-opacity:0.879518;stroke-width:0.163327"
     id="rect155"
     width="288.14322"
     height="78.318626"
     x="156.95177"
     y="165.48317" />
  <text
     xml:space="preserve"
     style="font-size:14.1111px;line-height:1.25;font-family:sans-serif;letter-spacing:0px;white-space:pre;inline-size:45.2889;stroke-width:0.264583"
     x="22.359892"
     y="728.8559"
     id="text242-6"
     transform="translate(-3.6669991,-395.09601)"><tspan
       x="22.359892"
       y="728.8559"><tspan
         style="fill:#ffffff">Krok 2</tspan></tspan></text>
  <text
     xml:space="preserve"
     style="font-size:10.5833px;line-height:1.25;font-family:sans-serif;letter-spacing:0px;fill:#ff6600;stroke-width:0.264583"
     x="18.816074"
     y="352.94354"
     id="text246-9"><tspan
       id="tspan244-8"
       x="18.816074"
       y="352.94354"
       style="fill:#ff6600;stroke-width:0.264583">Zamwienie</tspan></text>
  <rect
     style="fill:#ffffff;stroke-width:0.264583"
     id="rect280-6"
     width="107.44235"
     height="1.0690781"
     x="12.936146"
     y="339.58008" />
  <path
     id="rect145-8"
     style="fill:#ff6600;stroke-width:0.163798"
     d="m 445.12743,310.89953 v 75.84363 H 178.8936 v 2.7413 h 279.95229 v -78.58493 z" />
  <rect
     style="fill:#ffffff;fill-opacity:0.879518;stroke-width:0.168046"
     id="rect155-3"
     width="288.14322"
     height="82.909912"
     x="156.98419"
     y="303.83328" />
  <text
     xml:space="preserve"
     style="font-size:14.1111px;line-height:1.25;font-family:sans-serif;letter-spacing:0px;stroke-width:0.264583"
     x="19.403324"
     y="486.7453"
     id="text242-6-5"><tspan
       id="tspan240-3-0"
       x="19.403324"
       y="486.7453"
       style="font-size:14.1111px;fill:#ffffff;stroke-width:0.264583">Krok 3</tspan></text>
  <text
     xml:space="preserve"
     style="font-size:10.5833px;line-height:1.25;font-family:sans-serif;letter-spacing:0px;fill:#ff6600;stroke-width:0.264583"
     x="19.526493"
     y="505.92899"
     id="text246-9-2"><tspan
       id="tspan244-8-7"
       x="19.526493"
       y="505.92899"
       style="fill:#ff6600;stroke-width:0.264583">Konstrukcja</tspan></text>
  <rect
     style="fill:#ffffff;stroke-width:0.264583"
     id="rect280-6-2"
     width="107.44235"
     height="1.0690781"
     x="13.646564"
     y="492.56549" />
  <path
     id="rect145-8-7"
     style="fill:#ff6600;stroke-width:0.163798"
     d="m 445.83786,463.88495 v 75.84363 H 179.60403 v 2.74129 h 279.95232 v -78.58492 z" />
  <rect
     style="fill:#ffffff;fill-opacity:0.879518;stroke-width:0.213819"
     id="rect155-3-9"
     width="288.14322"
     height="134.22798"
     x="157.6946"
     y="405.50064" />
  <rect
     style="fill:#ff6600;fill-opacity:1;stroke:none;stroke-width:0.56987;stroke-opacity:1"
     id="rect964-6-8-2"
     width="417.70337"
     height="2.227706"
     x="67.412476"
     y="44.619633" />
  <rect
     style="fill:#ffffff;fill-opacity:0.987952;stroke:none;stroke-width:0.56987;stroke-opacity:1"
     id="rect966-3-2-6"
     width="406.99304"
     height="2.227706"
     x="19.810993"
     y="49.631657" />
  <text
     xml:space="preserve"
     style="font-size:21.0109px;line-height:1.25;font-family:sans-serif;letter-spacing:0px;fill:#ffffff;stroke-width:0.393954"
     x="212.08102"
     y="33.203251"
     id="text242-4-7"><tspan
       id="tspan240-6-2"
       x="212.08102"
       y="33.203251"
       style="font-size:21.0109px;fill:#ffffff;stroke-width:0.393954">Q_House</tspan></text>
  <text
     xml:space="preserve"
     style="font-style:normal;font-weight:normal;font-size:8.46667px;line-height:1.15;font-family:sans-serif;white-space:pre;inline-size:415.079;fill:#ffffff;fill-opacity:1;stroke:none;stroke-width:0.264583"
     x="108.85714"
     y="1131.6608"
     id="text1123-30"
     transform="translate(-90.569039,-1067.2608)"><tspan
       x="108.85714"
       y="1131.6608"><tspan>Skupianmy si na oferowaniu cigej, wysokiej jakoci obsugi. Nasi pracownicy, podwykonawcy i </tspan></tspan><tspan
       x="108.85714"
       y="1141.3975"><tspan>partnerzy zostali s liderami w swoich dziedzinach dziki czemu masz pewno, e otrzymujesz </tspan></tspan><tspan
       x="108.85714"
       y="1151.1342"><tspan>najlepszy produkt. Dziki zastosowaniu powtarzalnego systemu QHouse jestemy zapewni </tspan></tspan><tspan
       x="108.85714"
       y="1160.8709"><tspan>wysok jako nawet przy duych ilociach zamwie.</tspan></tspan></text>
  <text
     xml:space="preserve"
     style="font-style:normal;font-weight:normal;font-size:8.46667px;line-height:1.25;font-family:sans-serif;white-space:pre;inline-size:267.6;fill:#000000;fill-opacity:1;stroke:none;stroke-width:0.264583"
     x="-308.42859"
     y="483.05359"
     id="text112163"
     transform="translate(473.33897,-268.47399)"><tspan
       x="-308.42859"
       y="483.05359"><tspan>Najpierw prosimy o okrelenie wymaga, lokalizacji, wielkoci </tspan></tspan><tspan
       x="-308.42859"
       y="493.63692"><tspan>domu, jego wykoczenia i dodatkw, takich jak gara czy </tspan></tspan><tspan
       x="-308.42859"
       y="504.22027"><tspan>basen.</tspan></tspan></text>
  <text
     xml:space="preserve"
     style="font-style:normal;font-weight:normal;font-size:8.46667px;line-height:1.25;font-family:sans-serif;white-space:pre;inline-size:277.018;fill:#000000;fill-opacity:1;stroke:none;stroke-width:0.264583"
     x="-212.42261"
     y="573.0119"
     id="text112167"
     transform="translate(378.26895,-232.11628)"><tspan
       x="-212.42261"
       y="573.0119"><tspan>Po drugie, sprawdzamy stan magazynowy, kontaktujemy si z </tspan></tspan><tspan
       x="-212.42261"
       y="583.59521"><tspan>naszymi dostawcami i wykonawcami i wracamy do Ciebie z </tspan></tspan><tspan
       x="-212.42261"
       y="594.17852"><tspan>dokadn dat, kiedy budynek mona postawi na miejscu. </tspan></tspan><tspan
       x="-212.42261"
       y="604.76183"><tspan>Zwykle moe to nastpi w cigu kilku tygodni, ale wszystko </tspan></tspan><tspan
       x="-212.42261"
       y="615.34514"><tspan>zaley od iloci zamwie.</tspan></tspan></text>
  <text
     xml:space="preserve"
     style="font-style:normal;font-weight:normal;font-size:8.46667px;line-height:1.25;font-family:sans-serif;white-space:pre;inline-size:280.927;fill:#000000;fill-opacity:1;stroke:none;stroke-width:0.264583"
     x="-314.4762"
     y="644.07141"
     id="text112171"
     transform="translate(478.55863,-172.72002)"><tspan
       x="-314.4762"
       y="644.07141"><tspan>Pakujemy wszystkie skadniki i wysyamy je na miejsce. </tspan></tspan><tspan
       x="-314.4762"
       y="654.65471"><tspan>Profesjonalni budowniczowie mog postawi konstrukcj w cigu </tspan></tspan><tspan
       x="-314.4762"
       y="665.23803"><tspan>kilku dni, a nastpnie otoczy j cianami i dachem. Nastpna </tspan></tspan><tspan
       x="-314.4762"
       y="675.82134"><tspan>kondygnacja, ciany wewntrzne i instalacja s na miejscu. </tspan></tspan><tspan
       x="-314.4762"
       y="686.40465"><tspan>Podczas gdy my kadziemy podan okadzin, nasi godni </tspan></tspan><tspan
       x="-314.4762"
       y="696.98797"><tspan>zaufania wykonawcy montuj wszystkie wiatry i drzwi, a take </tspan></tspan><tspan
       x="-314.4762"
       y="707.57128"><tspan>wszystkie dodatki wybrane podczas fazy 1.</tspan></tspan></text>
  <path
     style="fill:none;stroke:#000000;stroke-width:0.529167;stroke-linecap:butt;stroke-linejoin:miter;stroke-miterlimit:4;stroke-dasharray:2.11667, 0.529167;stroke-dashoffset:0;stroke-opacity:1"
     d="M 164.75184,458.07181 H 427.41261"
     id="path112173" />
  <path
     style="fill:none;stroke:#000000;stroke-width:0.529167;stroke-linecap:butt;stroke-linejoin:miter;stroke-miterlimit:4;stroke-dasharray:2.11667, 0.529167;stroke-dashoffset:0;stroke-opacity:1"
     d="M 166.14709,330.69336 H 428.80786"
     id="path112173-9" />
  <path
     style="fill:none;stroke:#000000;stroke-width:0.529167;stroke-linecap:butt;stroke-linejoin:miter;stroke-miterlimit:4;stroke-dasharray:2.11667, 0.529167;stroke-dashoffset:0;stroke-opacity:1"
     d="M 165.51442,205.18661 H 428.17521"
     id="path112173-3" />
  <text
     xml:space="preserve"
     style="font-size:21.0109px;line-height:1.25;font-family:sans-serif;letter-spacing:0px;white-space:pre;inline-size:258.605;fill:#000000;stroke-width:0.393954"
     x="180.32109"
     y="437.68463"
     id="text242-4-1"
     transform="translate(-2.4838436,-12.833192)"><tspan
       x="180.32109"
       y="437.68463"><tspan>Profesjonalny, szybki i </tspan></tspan><tspan
       x="180.32109"
       y="463.94824"><tspan>dyskretny monta</tspan></tspan></text>
  <text
     xml:space="preserve"
     style="font-size:21.0109px;line-height:1.25;font-family:sans-serif;letter-spacing:0px;fill:#000000;stroke-width:0.393954"
     x="165.61188"
     y="322.91916"
     id="text242-4-2"><tspan
       id="tspan240-6-0"
       x="165.61188"
       y="322.91916"
       style="font-size:21.0109px;fill:#000000;stroke-width:0.393954">Zajmiemy sie wszystkim</tspan></text>
  <text
     xml:space="preserve"
     style="font-size:21.0109px;line-height:1.25;font-family:sans-serif;letter-spacing:0px;fill:#000000;stroke-width:0.393954"
     x="169.49158"
     y="195.6205"
     id="text242-4-23">Twj dom, twoje reguy</text>
</svg>
