<?xml version="1.0" encoding="UTF-8" standalone="no"?>
<svg
   xmlns:dc="http://purl.org/dc/elements/1.1/"
   xmlns:cc="http://creativecommons.org/ns#"
   xmlns:rdf="http://www.w3.org/1999/02/22-rdf-syntax-ns#"
   xmlns:svg="http://www.w3.org/2000/svg"
   xmlns="http://www.w3.org/2000/svg"
   xmlns:sodipodi="http://sodipodi.sourceforge.net/DTD/sodipodi-0.dtd"
   xmlns:inkscape="http://www.inkscape.org/namespaces/inkscape"
   width="210mm"
   height="210mm"
   viewBox="0 0 210 210"
   version="1.1"
   id="svg8"
   inkscape:version="1.0.1 (3bc2e813f5, 2020-09-07)"
   sodipodi:docname="QHouse35AAxo.svg">
  <defs
     id="defs2" />
  <sodipodi:namedview
     id="base"
     pagecolor="#ffffff"
     bordercolor="#666666"
     borderopacity="1.0"
     inkscape:pageopacity="0.0"
     inkscape:pageshadow="2"
     inkscape:zoom="0.98994949"
     inkscape:cx="354.4935"
     inkscape:cy="347.18814"
     inkscape:document-units="mm"
     inkscape:current-layer="layer1"
     inkscape:document-rotation="0"
     showgrid="false"
     inkscape:window-width="1920"
     inkscape:window-height="1137"
     inkscape:window-x="-8"
     inkscape:window-y="-8"
     inkscape:window-maximized="1" />
  <metadata
     id="metadata5">
    <rdf:RDF>
      <cc:Work
         rdf:about="">
        <dc:format>image/svg+xml</dc:format>
        <dc:type
           rdf:resource="http://purl.org/dc/dcmitype/StillImage" />
        <dc:title></dc:title>
      </cc:Work>
    </rdf:RDF>
  </metadata>
  <g
     inkscape:label="Layer 1"
     inkscape:groupmode="layer"
     id="layer1">
    <path
       id="path1010"
       style="fill:#424242;stroke:none;stroke-width:0.999999"
       d="M 315.36523 109.04688 C 282.94142 109.15627 254.78614 125.70583 225.57227 139.14062 C 174.39027 162.67763 123.42326 187.42273 71.572266 209.42773 C 51.691066 217.86473 32.325164 227.54239 12.572266 236.27539 C 7.8950663 238.34339 -5.4245028 241.97714 -6.6875 247.49414 C -8.0386017 253.39614 -2.8182343 263.62574 -1.3027344 269.42773 C 3.934863 289.48074 9.4918551 309.49273 15.160156 329.42773 C 26.865099 370.59332 38.489974 411.84739 49.824219 453.16797 C 51.045807 453.17832 51.748124 453.25188 51.572266 453.42773 C 51.527873 453.47213 52.178706 454.16555 53.134766 455.14258 L 51.572266 449.42773 L 69.267578 467.51953 L 70.53125 472.04297 C 71.677953 473.14225 72.60353 474.03608 73.839844 475.21875 C 73.402707 473.2917 72.971527 471.3623 72.572266 469.42773 L 305.57227 691.42773 C 304.94685 691.69213 304.32388 691.99176 303.70117 692.2832 C 303.96301 692.52932 304.73393 693.2539 304.96875 693.47461 C 305.71955 693.19951 306.4546 693.06995 307.14648 693.18359 C 310.31448 693.70558 313.44326 698.29771 315.57227 700.42773 C 321.75126 706.6107 328.39024 712.25573 334.57227 718.42773 C 342.99627 726.83771 355.46325 733.91772 356.74023 746.42773 C 356.88924 747.8879 357.01934 749.36124 357.14453 750.83594 C 357.39111 747.07285 357.9888 743.54405 359.17383 740.4668 C 360.53582 736.93078 364.35028 734.44973 366.57227 731.42773 L 367.57227 731.42773 L 408.57227 770.51758 L 430.57227 789.42773 C 418.37524 772.85575 399.18528 759.9487 384.57227 745.42969 C 375.49824 736.4137 367.57325 732.01472 367.57227 718.42773 C 385.58527 735.01971 404.10926 751.26064 421.57227 768.43164 C 428.23826 774.98663 438.14027 787.97273 447.57227 789.42773 C 434.23726 770.54975 411.49926 755.10584 394.57227 739.33984 C 386.70325 732.00983 378.33528 720.98074 368.57227 716.42773 L 368.57227 714.42773 C 386.18529 705.43673 402.12326 688.58852 417.57227 676.22852 C 423.18226 671.74052 430.56037 662.76611 438.56836 665.99609 C 454.28038 672.33311 459.06029 697.13374 474.57227 704.42773 L 476.57227 669.42773 L 481.57227 669.42773 L 477.57227 719.42773 L 478.57227 719.42773 L 488.57227 611.42773 L 490.57227 611.42773 L 479.57227 718.42773 L 480.57227 718.42773 C 487.15428 696.16772 486.08636 668.59473 488.40234 645.42773 C 489.18236 637.62875 488.00558 625.44936 491.59961 618.44336 C 496.3936 609.09734 511.44927 601.12792 519.57227 594.62891 L 585.57227 541.82812 L 626.57227 508.82812 C 630.30527 505.84211 637.31528 497.68708 642.57227 498.87109 C 647.64927 500.0141 653.26629 505.55775 657.57227 508.42773 C 669.62628 516.46377 681.51826 524.72573 693.57227 532.76172 C 726.05927 554.41973 758.08526 576.76972 790.57227 598.42773 C 804.90325 607.9817 818.98727 620.05475 834.57227 627.42773 L 798.57227 664.42773 L 719.57227 744.42773 L 675.57227 789.42773 C 684.73928 786.85475 695.19026 774.06873 700.57227 766.42773 C 702.96626 768.08574 705.53606 770.0166 708.37305 767.93359 C 712.65506 764.78861 712.68725 757.70374 715.32227 753.42773 C 719.07428 747.33774 725.52724 741.5087 730.57227 736.42773 C 757.14529 709.66872 783.90626 683.09374 810.57227 656.42773 C 813.39028 653.60972 816.19428 649.95184 819.57227 647.79883 C 822.20527 646.12083 824.88019 647.72677 827.49219 646.47461 C 831.19219 644.70258 836.94139 632.62837 835.94141 628.56836 C 834.9554 624.56338 827.71226 621.57406 824.57227 619.41406 C 813.95928 612.11406 803.26727 604.94569 792.57227 597.76172 C 757.80828 574.41172 722.88924 551.14073 688.57227 527.13672 C 679.69227 520.92571 670.40623 515.29361 661.57227 509.01562 C 658.67125 506.95363 653.17873 504.45237 651.59375 501.15039 C 649.89274 497.60739 652.81228 491.04875 653.57227 487.42773 C 656.09325 475.41776 658.78016 463.34776 661.70117 451.42773 C 670.07419 417.24773 676.46941 382.58173 684.94141 348.42773 C 687.4094 338.47874 689.26217 328.38273 691.70117 318.42773 C 692.74719 314.15674 695.31495 307.99503 694.33594 303.58203 C 693.08197 297.93103 677.43126 292.27216 672.57227 289.66016 C 669.37054 287.93955 666.17914 286.18743 662.98438 284.44531 C 669.39075 288.2348 675.6294 292.19621 681.57227 296.42773 L 681.57227 297.42773 L 671.57227 302.42773 L 671.57227 301.42773 L 673.57227 300.42773 L 664.57227 296.42773 L 665.57227 298.42773 L 662.57227 297.42773 L 664.57227 295.42773 L 657.57227 292.42773 L 659.57227 294.42773 L 659.57227 295.42773 C 651.73126 306.20474 656.44224 341.51673 634.57227 337.42773 C 634.16823 346.46673 621.82628 348.9559 614.57227 348.00391 C 589.06926 344.65691 563.06828 345.20152 537.57227 341.85352 C 468.36726 332.76752 397.20829 330.21889 327.57227 325.33789 C 310.26728 324.12589 292.83927 322.90281 275.57227 321.25781 C 266.71526 320.41481 255.34627 317.5153 246.57227 319.5293 C 238.70527 321.33529 230.70226 327.67573 223.57227 331.42773 C 218.88027 323.00073 213.24473 313.86017 207.05273 306.45117 C 206.36033 305.6224 205.00767 304.45029 203.57227 303.66016 L 203.57227 304.42773 L 198.57227 305.42773 L 203.32227 303.52734 C 201.16635 302.41807 198.90055 302.26399 198.44336 305.54102 C 197.91336 309.34502 202.9579 314.44573 204.87891 317.42773 C 211.39591 327.54573 219.43027 337.55773 224.57227 348.42773 L 219.57227 350.42773 L 219.57227 351.42773 C 222.27827 350.66874 224.67573 349.73576 227.05273 351.80078 C 230.18274 354.51878 232.0224 359.03373 234.31641 362.42773 C 240.5144 371.59274 255.09326 385.86374 253.57227 397.42773 L 256.57227 395.42773 L 255.57227 399.42773 L 253.57227 402.42773 L 258.57227 401.42773 L 262.57227 441.42773 L 261.57227 441.42773 L 258.57227 435.42773 L 257.57227 435.42773 L 264.57227 448.42773 L 265.57227 448.42773 L 259.57227 401.42773 L 260.57227 401.42773 L 290.57227 446.42773 L 306.35742 472.07812 C 313.35316 473.07436 320.28405 474.61785 324.57227 475.14453 C 339.09254 476.92776 354.12626 477.77931 369.19336 478.74219 C 359.65045 477.70365 350.11439 476.55179 340.57227 475.59766 C 334.14824 474.95567 324.38683 475.92534 318.75586 472.44141 C 316.97639 471.33999 315.30898 469.74367 313.73047 467.86914 C 314.73347 469.70728 315.68759 471.55781 316.57227 473.42773 C 303.87426 470.65073 295.70129 450.62172 288.9043 440.42773 C 268.04929 409.14375 247.42526 377.70774 226.57227 346.42773 L 207.23828 317.42773 C 206.02028 315.59973 200.08645 308.71047 203.18945 306.60547 C 206.29745 304.49747 210.37227 312.62873 211.57227 314.42773 L 231.57227 344.42773 C 242.43129 360.71627 253.21421 377.05958 264.00977 393.39453 C 262.15121 390.09762 260.40726 386.77744 258.84961 383.42773 C 257.7346 381.03022 256.52691 376.12192 255.77539 370.86328 L 256.57227 379.42773 L 255.57227 379.42773 L 246.57227 341.42773 L 234.57227 347.42773 L 233.57227 346.42773 L 233.57227 344.42773 C 239.35627 340.88773 245.54627 335.88574 252.57227 336.42773 L 255.07227 363.30859 C 254.91401 358.88241 255.30001 354.96077 256.59961 352.95703 C 258.94761 349.33703 264.93026 347.21844 268.57227 345.14844 C 287.05126 334.64244 308.97225 340.80174 329.57227 342.42773 C 329.57227 351.2896 326.71744 356.6473 320.75 360.40234 C 324.97259 358.22818 329.04267 356.124 332.57227 354.03125 C 337.95726 350.83825 344.32327 345.7083 350.57227 344.6543 C 357.03585 343.56364 364.31305 343.71109 371.72461 344.37695 L 374.57227 343.42773 L 374.57227 344.42773 L 372.31445 344.42773 C 382.4174 345.37192 392.73876 347.25203 401.57227 348.29492 C 415.20427 349.90392 427.21926 348.58574 439.57227 355.42773 L 434.57227 351.42773 L 434.57227 350.42773 C 472.91126 357.54474 514.64325 357.60989 553.57227 360.33789 C 568.39523 361.37689 586.36427 360.22775 600.57227 364.42773 C 589.99129 374.64573 575.74027 382.79998 563.57227 391.08398 C 557.99225 394.88298 553.36929 399.61875 546.57227 396.42773 C 546.13426 404.42374 540.70428 405.7247 534.57227 409.42773 L 537.57227 410.42773 L 541.57227 406.42773 L 542.57227 409.42773 C 531.95327 413.75072 531.80325 417.67775 520.57227 411.42773 C 523.65224 407.71374 526.68326 405.79474 531.57227 406.42773 L 531.57227 405.42773 L 523.57227 407.42773 L 522.57227 407.42773 L 519.57227 405.42773 L 521.57227 407.42773 L 521.57227 408.42773 C 514.75128 417.80274 517.64623 429.22873 502.57227 431.42773 C 501.29524 437.18872 492.93923 440.04777 487.57227 439.42773 L 488.57227 442.42773 L 480.57227 440.42773 L 484.57227 444.42773 L 480.14844 444.67383 C 480.60135 444.89044 481.07116 445.13528 481.57227 445.42773 L 481.57227 447.42773 L 472.57227 448.42773 L 474.57227 453.42773 L 478.57227 453.42773 L 448.57227 475.14844 L 433.57227 484.55664 L 416.57227 483.42773 L 416.57227 482.42773 C 421.52607 479.05788 426.45112 475.64712 431.37109 472.22656 C 425.86895 475.69441 420.29845 478.79634 415.57227 481.42773 C 417.35807 478.39085 420.32218 475.35923 423.86523 472.43359 C 418.18337 475.86682 413.74419 479.54228 406.57227 477.42773 L 407.57227 480.42773 L 402.57227 478.42773 L 405.10742 481.80859 C 405.97746 481.91586 406.84146 482.04017 407.70898 482.1543 L 408.57227 480.42773 L 410.57227 482.42773 L 409.73633 482.42773 C 417.13417 483.45156 424.43743 484.72898 431.57227 486.42773 L 431.57227 487.42773 L 400.57227 507.91797 L 369.57227 505.59766 L 295.57227 497.42773 L 300.57227 502.42773 L 299.57227 499.42773 C 324.26528 501.37676 348.94026 504.6247 373.57227 507.26172 C 379.72025 507.91973 394.45927 506.72075 398.57227 511.42773 L 399.57227 511.42773 L 427.57227 491.42773 L 390.57227 529.42773 L 371.05859 548.42773 C 375.77486 544.36317 380.40172 540.59828 383.57227 537.42773 C 411.16826 509.83174 437.28526 479.95875 471.57227 460.42773 C 468.09608 465.36257 464.20667 469.98992 460.06055 474.42383 L 488.57227 448.42773 L 475.83789 462.375 C 480.28071 457.54853 485.15845 452.94764 490.57227 451.42773 C 492.27823 441.48376 511.99327 430.50373 520.57227 426.42773 L 521.57227 427.42773 L 522.57227 432.42773 C 518.40628 432.42773 520.52726 438.78172 521.57227 441.42773 C 517.40624 441.42773 519.52726 447.78172 520.57227 450.42773 C 516.40624 450.42773 518.52726 456.78172 519.57227 459.42773 L 515.57227 466.42773 L 518.57227 467.42773 L 518.57227 468.42773 L 514.57227 468.42773 L 514.57227 472.42773 L 510.57227 471.42773 L 512.57227 473.42773 L 509.57227 475.42773 C 509.57227 472.03274 507.55525 474.90874 506.57227 476.42773 L 508.57227 475.42773 L 505.57227 478.42773 L 503.57227 476.42773 L 503.57227 480.42773 L 499.57227 479.42773 L 501.57227 481.42773 L 498.57227 483.42773 C 498.57227 480.03274 496.55528 482.90874 495.57227 484.42773 L 497.57227 483.42773 L 494.57227 486.42773 L 492.57227 484.42773 L 492.57227 488.42773 L 488.57227 487.42773 L 490.57227 489.42773 L 487.57227 491.42773 C 487.57227 488.03274 485.55525 490.90874 484.57227 492.42773 L 486.57227 491.42773 L 483.57227 494.42773 L 481.57227 492.42773 L 481.57227 496.42773 L 477.57227 495.42773 L 479.57227 497.42773 L 476.57227 499.42773 C 476.57227 496.03274 474.55525 498.90874 473.57227 500.42773 L 475.57227 499.42773 L 472.57227 502.42773 L 470.57227 500.42773 C 470.59258 501.65801 470.41089 502.62121 470.05273 503.42773 L 466.57227 503.42773 L 466.57227 504.42773 L 469.98047 503.57617 C 469.20213 505.18539 467.68303 506.16512 465.57227 507.42773 C 465.57227 504.03274 463.55528 506.90874 462.57227 508.42773 L 464.57227 507.42773 L 461.57227 510.42773 L 459.57227 508.42773 C 459.59258 509.65803 459.41089 510.62121 459.05273 511.42773 L 455.57227 511.42773 L 455.57227 512.42773 L 458.98047 511.57617 C 458.20213 513.18539 456.683 514.16509 454.57227 515.42773 L 452.57227 513.42773 L 450.57227 518.42773 L 448.57227 516.42773 C 448.59258 517.65801 448.4109 518.62121 448.05273 519.42773 L 444.57227 519.42773 L 444.57227 520.42773 L 447.98047 519.57617 C 447.20212 521.18539 445.683 522.16512 443.57227 523.42773 L 441.57227 521.42773 L 439.57227 526.42773 L 439.57227 523.42773 L 438.57227 523.42773 L 435.57227 527.42773 L 433.57227 527.42773 L 433.57227 528.42773 L 435.11133 528.04297 L 432.57227 531.42773 L 430.57227 529.42773 L 428.57227 534.42773 L 428.57227 531.42773 L 427.57227 531.42773 L 424.57227 535.42773 L 422.57227 535.42773 L 422.57227 536.42773 L 424.11133 536.04297 L 421.57227 539.42773 L 419.57227 537.42773 L 417.57227 542.42773 L 417.57227 539.42773 L 416.57227 539.42773 L 413.57227 543.42773 L 411.57227 543.42773 L 411.57227 544.42773 L 413.11133 544.04297 L 410.57227 547.42773 L 408.57227 545.42773 L 406.57227 550.42773 L 406.57227 547.42773 L 405.57227 547.42773 L 402.57227 551.42773 L 400.57227 551.42773 L 400.57227 552.42773 L 402.11133 552.04297 L 399.57227 555.42773 L 397.57227 553.42773 L 395.57227 558.42773 L 395.57227 555.42773 L 394.57227 555.42773 L 391.57227 559.42773 L 389.57227 559.42773 L 389.57227 560.42773 L 391.11133 560.04297 L 388.57227 563.42773 L 386.57227 561.42773 L 384.57227 566.42773 L 384.57227 563.42773 L 383.57227 563.42773 L 377.57227 571.42773 L 375.57227 569.42773 L 373.57227 574.42773 L 371.57227 572.42773 C 372.51026 566.34674 377.1044 563.46979 381.14844 559.25781 C 389.96245 550.07681 398.90025 537.98175 410.57227 532.42773 L 419.57227 520.42773 L 443.57227 496.42773 L 453.57227 485.42773 L 391.57227 547.42773 C 381.91924 557.08076 369.57427 564.94375 369.57227 579.42773 C 381.31829 574.46174 392.29327 563.87651 402.57227 556.3125 C 422.83428 541.40253 443.17623 526.58052 463.57227 511.85352 C 475.61724 503.15652 487.57026 494.33607 499.57227 485.58008 C 505.57725 481.20006 513.49281 477.09197 518.25781 471.33594 C 524.64582 463.61894 523.36726 445.13674 524.40625 435.42773 C 524.98524 430.01972 524.31328 423.32773 529.57227 420.42773 L 525.73828 453.42773 L 523.25391 470.33789 L 509.57227 481.85352 L 479.57227 503.85352 L 408.57227 555.80273 L 365.57227 586.42773 L 366.59961 569.42773 L 380.57227 553.42773 L 364.17578 570.59766 L 364.57227 588.42773 C 399.46325 568.98275 431.28924 540.13111 463.57227 516.58008 C 482.05824 503.0951 506.99197 490.22117 522.29297 473.24414 C 535.96598 458.07315 518.67525 424.80472 538.57227 413.42773 L 532.57227 465.42773 C 545.36823 459.05473 557.11924 448.35471 568.57227 439.80273 C 586.76525 426.21771 605.22527 412.95806 623.57227 399.58008 C 637.96626 389.08505 658.72328 378.57074 669.57227 364.42773 L 586.57227 425.58008 L 533.57227 463.42773 C 536.47128 451.25577 537.12347 437.88173 538.52148 425.42773 C 539.11249 420.15873 538.58616 413.34073 543.57227 410.42773 L 542.66602 418.95312 C 543.52064 414.81623 544.71831 411.15893 546.42969 408.60352 C 553.7227 397.7105 572.80424 388.86229 583.57227 381.4043 C 593.35924 374.62629 603.15429 364.47073 615.57227 364.42773 L 615.57227 363.42773 L 610.57227 363.42773 L 610.57227 362.42773 L 621.57227 362.42773 L 621.57227 361.42773 L 613.57227 361.42773 C 618.91425 354.96373 625.71327 352.32674 633.57227 350.42773 L 630.57227 348.42773 L 649.57227 335.42773 L 649.57227 339.42773 L 650.57227 339.42773 C 650.57227 337.84174 650.92035 331.62873 652.57227 335.42773 C 656.24525 329.34573 666.15426 320.71074 673.57227 321.42773 L 673.57227 322.42773 L 670.57227 322.42773 L 670.57227 336.42773 L 667.57227 336.42773 L 667.57227 350.42773 L 660.57227 364.42773 L 662.57227 363.42773 L 662.57227 364.42773 L 658.57227 366.42773 L 658.57227 367.42773 L 649.57227 372.42773 L 651.57227 371.42773 L 651.57227 372.42773 L 647.57227 374.42773 L 647.57227 375.42773 L 638.57227 380.42773 L 640.57227 379.42773 L 640.57227 380.42773 L 636.57227 382.42773 L 636.57227 383.42773 L 627.57227 388.42773 L 629.57227 387.42773 L 629.57227 388.42773 L 625.57227 390.42773 L 625.57227 391.42773 L 616.57227 394.42773 L 618.57227 396.42773 L 614.57227 398.42773 L 614.57227 399.42773 L 605.57227 404.42773 L 607.57227 403.42773 L 607.57227 404.42773 L 603.57227 406.42773 L 603.57227 407.42773 L 598.57227 407.42773 L 599.57227 410.42773 L 596.57227 411.62695 L 596.57227 412.42773 L 592.57227 414.42773 L 592.57227 415.42773 L 587.57227 415.42773 L 588.57227 418.42773 L 585.23828 419.76172 L 582.57227 422.42773 C 582.57227 419.03372 580.55528 421.90874 579.57227 423.42773 L 581.57227 422.42773 L 581.57227 423.42773 L 579.57227 423.42773 L 576.57227 423.42773 L 577.57227 426.42773 L 574.23828 427.76172 L 571.57227 430.42773 C 571.57227 427.03274 569.55525 429.9087 568.57227 431.42773 L 570.57227 430.42773 L 570.57227 431.42773 L 568.57227 431.42773 L 565.57227 431.42773 L 566.57227 434.42773 L 563.23828 435.76172 L 560.57227 438.42773 C 560.57227 435.03274 558.55525 437.90874 557.57227 439.42773 L 559.57227 438.42773 L 559.57227 439.42773 L 557.57227 439.42773 L 554.57227 439.42773 L 554.57227 443.42773 L 553.57227 443.42773 C 553.57227 440.03274 551.55525 442.90874 550.57227 444.42773 L 552.57227 443.42773 L 549.57227 446.42773 C 549.57227 443.03274 547.55528 445.90874 546.57227 447.42773 L 548.57227 446.42773 L 548.57227 447.42773 L 546.57227 447.42773 L 543.57227 447.42773 L 543.57227 451.42773 L 542.57227 451.42773 L 540.57227 449.42773 C 540.58211 446.03053 540.60285 441.40901 540.80273 436.4707 L 538.57227 457.42773 C 567.31126 434.61976 598.01927 414.05949 627.57227 392.3125 C 639.39527 383.61248 654.19175 375.74791 664.34375 365.12891 C 676.19174 352.73491 667.18025 326.22373 679.57227 314.42773 L 677.57227 327.42773 L 678.57227 327.42773 C 679.50328 315.72874 683.36429 310.24273 693.57227 304.42773 L 679.99609 365.42773 L 649.57227 500.42773 L 641.57227 493.42773 L 640.57227 493.42773 L 640.57227 495.42773 L 639.57227 495.42773 L 640.57227 489.42773 L 641.57227 489.42773 L 641.57227 493.42773 L 642.57227 493.42773 L 641.57227 484.42773 L 642.57227 484.42773 L 642.57227 488.42773 L 643.57227 488.42773 L 644.57227 479.42773 L 643.57227 479.42773 L 643.57227 483.42773 L 642.57227 483.42773 L 643.57227 475.42773 L 644.57227 475.42773 L 644.57227 479.42773 L 645.57227 479.42773 L 646.57227 470.42773 L 645.57227 470.42773 L 645.57227 474.42773 L 644.57227 474.42773 L 645.57227 466.42773 L 646.57227 466.42773 L 646.57227 470.42773 L 647.57227 470.42773 L 646.57227 461.42773 L 647.57227 461.42773 L 647.57227 465.42773 L 648.57227 465.42773 L 649.57227 456.42773 L 648.57227 456.42773 L 648.57227 460.42773 L 647.57227 460.42773 L 648.57227 452.42773 L 649.57227 452.42773 L 649.57227 456.42773 L 650.57227 456.42773 L 651.57227 447.42773 L 650.57227 447.42773 L 650.57227 451.42773 L 649.57227 451.42773 L 651.57227 438.42773 L 652.57227 438.42773 L 652.57227 442.42773 L 653.57227 442.42773 L 654.57227 433.42773 L 653.57227 433.42773 L 653.57227 437.42773 L 652.57227 437.42773 L 654.57227 424.42773 L 655.57227 424.42773 L 654.57227 433.42773 L 655.57227 433.42773 L 657.57227 419.42773 L 656.57227 419.42773 L 656.57227 423.42773 L 655.57227 423.42773 L 659.57227 401.42773 L 660.57227 401.42773 L 659.57227 410.42773 L 660.57227 410.42773 L 662.57227 396.42773 L 661.57227 396.42773 L 661.57227 400.42773 L 660.57227 400.42773 L 661.57227 385.42773 L 664.57227 382.42773 L 664.57227 387.42773 L 665.57227 387.42773 L 666.57227 380.42773 C 653.38829 386.99372 641.37426 398.24166 629.57227 407.05469 C 608.66127 422.67067 587.46425 437.91069 566.57227 453.55469 C 557.15126 460.60868 535.95877 470.68151 531.13477 481.51953 C 527.74079 489.1445 528.35905 500.19475 527.28906 508.42773 C 524.69404 528.39974 522.74407 548.47576 519.99609 568.42773 C 518.57306 578.75975 520.18942 593.21472 510.57227 599.42773 L 522.57227 486.42773 C 483.61728 510.68675 447.35625 541.5847 410.57227 569.05469 C 400.29925 576.72569 389.96725 584.34855 379.57227 591.85352 C 375.18524 595.02254 368.22861 598.6446 365.59961 603.51758 C 361.4676 611.17558 364.91232 626.0927 365.48242 634.42773 C 366.9914 656.44972 366.57227 679.37173 366.57227 701.42773 C 366.57227 714.72373 370.26328 729.48373 357.57227 737.42773 C 357.57227 696.37572 354.76832 655.46573 354.57031 614.42773 C 354.5174 603.46072 353.62334 592.45371 353.57031 581.42773 C 353.55141 577.73873 352.06987 572.94972 353.21484 569.42773 C 354.14607 566.56162 356.03256 563.6248 358.45703 560.69922 L 352.57227 566.42773 C 352.60628 557.01372 358.21725 552.78275 364.57227 546.42773 C 374.49023 536.50972 386.49126 526.89973 394.57227 515.42773 L 352.57227 557.42773 L 351.57227 557.42773 L 346.57227 552.42773 L 351.57227 566.42773 L 350.57227 566.42773 L 348.31055 563.97266 C 349.19003 565.42027 349.97435 566.90184 350.63281 568.42773 C 355.84081 580.49675 351.7771 598.51373 352.66211 611.42773 C 355.49309 652.78174 356.57227 694.95672 356.57227 736.42773 C 333.06425 720.06272 313.51024 696.02259 292.57227 676.51758 C 245.82025 632.96759 200.32427 588.06952 153.57227 544.51953 C 128.05327 520.74751 102.29527 497.03369 77.572266 472.42969 C 68.641265 463.54167 55.247336 455.10283 48.710938 444.25781 C 44.785335 437.7458 43.625702 427.76474 41.6875 420.42773 C 38.0681 406.72574 34.124724 393.10671 30.419922 379.42773 C 18.651025 335.97372 3.6940686 292.50374 -5.4277344 248.42773 L 0.57226562 252.42773 L -3.4277344 247.42773 L 12.572266 248.60742 L 24.572266 255.42773 L 25.572266 255.42773 L 30.572266 262.42773 L 25.634766 252.74219 L 17.572266 244.42773 L 31.300781 238.10547 C 20.055972 242.48843 8.7206315 245.45844 -2.4277344 245.42773 C 15.581367 233.31374 38.842565 226.17714 58.572266 217.11914 C 102.19727 197.09114 146.22227 177.78683 189.57227 157.17383 C 204.45927 150.09443 219.64727 143.64574 234.57227 136.64844 C 247.04927 130.79904 257.64126 124.32824 271.57227 125.42773 L 271.57227 126.42773 C 249.31326 134.00724 227.94427 146.30734 206.57227 156.11914 L 85.572266 211.73828 C 75.867214 216.19394 65.637168 221.77884 55.154297 227.11914 L 160.57227 178.56836 L 211.57227 155.00391 L 231.57227 146.16992 L 271.57227 144.42773 L 271.57227 145.42773 C 249.37426 150.56573 226.31727 162.90105 207.57227 175.62305 C 202.53127 179.04505 192.60767 183.32991 189.63867 188.75391 C 184.98468 197.25491 197.22806 212.85847 191.53906 220.73047 C 190.47465 222.20333 188.87111 223.5898 186.92773 224.90234 C 190.51571 224.08252 193.84755 224.0702 196.57227 225.42773 L 193.57227 206.42773 C 216.89226 217.50873 238.08426 236.7437 259.57227 251.0957 C 266.56127 255.7637 277.00127 266.51028 285.57227 267.23828 C 293.91027 267.94728 306.32026 257.4315 313.57227 253.6875 C 338.15624 240.9975 362.04026 225.06073 387.57227 214.42773 C 387.57227 216.68067 387.92137 219.74699 388.0332 222.80273 L 388.57227 212.42773 L 385.57227 213.42773 L 386.57227 211.42773 L 385.57227 211.42773 C 378.05426 218.59673 366.75228 222.9375 357.57227 227.6875 C 342.81828 235.3225 328.10224 243.23506 313.57227 251.28906 C 306.42125 255.25306 293.93628 265.3515 285.57227 264.9375 C 277.99827 264.5625 268.62926 254.89544 262.57227 250.77344 C 244.20926 238.27743 225.77927 225.87044 207.57227 213.14844 C 199.89627 207.78444 189.0713 203.03549 191.9043 191.52148 C 193.6693 184.34548 208.57126 177.58144 214.57227 174.14844 C 237.71726 160.90644 265.37325 144.64944 292.57227 142.42773 C 292.44225 153.36144 278.95627 155.51378 270.57227 159.67578 C 260.09576 164.87659 249.21104 170.90425 238.14453 176.68164 C 249.30642 171.37261 260.40932 165.92103 271.57227 160.64844 C 278.99626 157.14244 287.08225 150.60604 295.57227 152.42773 L 293.57227 142.42773 C 299.03225 142.19333 313.45108 137.94823 317.83008 141.45703 C 319.68412 142.94269 320.63993 145.11901 320.88477 147.49219 L 321.57227 145.42773 L 321.57227 148.42773 L 320.94531 148.42773 C 321.10276 154.66039 316.64771 161.79068 310.57227 161.42773 L 310.57227 162.42773 L 315.57227 164.42773 C 320.01926 157.69774 327.95624 160.87173 334.57227 159.42773 L 333.57227 142.42773 C 362.33228 143.68123 390.70027 160.62674 419.57227 158.42773 L 419.57227 157.42773 L 377.57227 134.42773 C 386.07029 130.86183 395.28228 136.23326 402.57227 140.19727 C 420.68127 150.04476 438.67526 160.19973 456.57227 170.42773 C 506.25729 198.82274 556.41128 226.57604 606.57227 254.12305 C 617.42095 260.08133 628.76595 265.82093 640.0293 271.75586 C 629.83544 266.03497 619.6809 260.2464 609.57227 254.42773 C 553.35028 222.06573 496.18827 191.25303 439.57227 159.58203 C 416.56033 146.70886 394.05817 131.91618 369.90234 121.64258 C 375.87683 124.66252 381.49403 128.88374 387.57227 131.42773 L 387.57227 132.42773 C 378.69355 132.42773 369.68056 132.22581 360.60352 131.87109 C 365.13232 132.69218 369.51046 133.77998 373.57227 135.24023 C 384.93627 139.32573 396.15324 147.34103 406.57227 153.42773 L 406.57227 154.42773 C 385.82924 150.40513 365.20928 145.53691 344.57227 141.00391 C 335.43385 138.99668 326.25292 139.52608 323.62891 129.63086 C 321.93191 129.49446 320.23488 129.35737 318.53906 129.21289 C 320.94023 130.49351 322.52768 132.68244 322.57227 136.42773 L 242.57227 143.42773 C 258.50236 130.27842 279.56013 127.17031 299.37891 127.41406 C 287.62593 126.21767 275.97899 124.8693 264.57227 123.42773 C 285.79427 109.15264 308.70927 114.69654 332.57227 116.33984 C 342.53095 117.02564 353.90435 116.24801 363.55078 119.06055 C 351.43197 114.38547 338.86089 110.95704 325.57227 109.5625 C 322.12086 109.20029 318.71942 109.03556 315.36523 109.04688 z M 363.55078 119.06055 C 365.68222 119.88279 367.79749 120.74737 369.90234 121.64258 C 367.8453 120.6028 365.74827 119.70223 363.57227 119.06641 C 363.56517 119.06433 363.55787 119.06262 363.55078 119.06055 z M 299.37891 127.41406 C 305.74164 128.06176 312.13342 128.66713 318.53906 129.21289 C 314.15396 126.87417 307.04276 127.57736 301.57227 127.44336 C 300.84455 127.42553 300.11033 127.42306 299.37891 127.41406 z M 323.62891 129.63086 C 335.98333 130.62389 348.35387 131.39239 360.60352 131.87109 C 348.40995 129.66036 335.08159 129.42905 323.57227 129.42773 C 323.58989 129.49761 323.61064 129.56199 323.62891 129.63086 z M 640.0293 271.75586 C 647.65714 276.03668 655.31352 280.26236 662.98438 284.44531 C 655.5029 280.01988 647.78582 275.84296 640.0293 271.75586 z M 419.57227 158.42773 L 419.57227 159.42773 L 584.57227 252.28906 L 630.57227 278.2793 L 657.57227 292.42773 L 657.57227 291.42773 L 498.57227 202.00391 L 445.57227 172.12305 L 419.57227 158.42773 z M 334.57227 159.42773 L 334.57227 160.42773 L 487.57227 251.43945 L 570.57227 300.42773 L 545.57227 284.0293 L 492.57227 252.57812 L 387.57227 190.0293 L 334.57227 159.42773 z M 315.57227 164.42773 L 315.57227 165.42773 L 358.57227 191.42773 L 381.57227 204.42773 L 381.57227 206.42773 C 372.14426 209.14873 363.18827 215.45914 354.57227 220.11914 C 340.32927 227.82214 325.81526 235.03528 311.57227 242.73828 C 305.31227 246.12328 292.1541 256.72727 284.99609 255.94727 C 283.31612 255.76438 281.48567 255.08576 279.59375 254.12109 L 285.57227 257.75977 L 312.57227 244.67188 L 383.57227 206.42773 L 383.57227 204.42773 C 361.37426 192.61273 339.51727 172.00774 315.57227 164.42773 z M 279.59375 254.12109 L 274.83789 251.22656 C 276.44017 252.33621 278.03687 253.32726 279.59375 254.12109 z M 274.83789 251.22656 C 269.56144 247.57241 264.27889 242.73829 260.57227 240.14844 C 247.06226 230.70844 233.28527 221.57073 219.57227 212.42773 C 212.48226 207.70073 205.57326 201.46073 197.57227 198.42773 L 219.57227 214.45508 L 262.57227 243.76172 L 274.83789 251.22656 z M 197.57227 198.42773 C 198.01304 196.34399 200.21429 194.40273 203.09961 192.65039 C 200.2549 193.66736 197.41161 194.6098 194.57227 195.42773 L 194.57227 197.42773 L 197.57227 198.42773 z M 203.09961 192.65039 C 214.84375 188.45193 226.5939 182.71178 238.14453 176.68164 C 231.97906 179.61418 225.80059 182.51329 219.57227 185.28906 C 216.05288 186.85769 208.4033 189.42929 203.09961 192.65039 z M 310.57227 161.42773 L 310.57227 160.42773 L 295.57227 152.42773 L 295.57227 153.42773 L 310.57227 161.42773 z M 320.94531 148.42773 C 320.93736 148.11304 320.91665 147.80122 320.88477 147.49219 L 320.57227 148.42773 L 320.94531 148.42773 z M 388.0332 222.80273 L 387.7207 228.79688 C 388.06994 226.97577 388.1098 224.8957 388.0332 222.80273 z M 387.7207 228.79688 C 387.48556 230.02302 387.11864 231.13612 386.54297 232.03906 C 386.19123 232.59065 385.74564 233.11571 385.25391 233.62695 L 387.54297 232.21875 L 387.7207 228.79688 z M 385.25391 233.62695 L 374.54883 240.21484 C 378.58435 238.35758 382.73847 236.2422 385.25391 233.62695 z M 374.54883 240.21484 C 371.57717 241.58249 368.68017 242.81274 366.57227 244.00391 C 348.58829 254.16391 322.07424 262.76873 307.57227 277.42773 L 365.57227 245.73828 L 374.54883 240.21484 z M 196.57227 225.42773 L 196.57227 226.42773 L 239.57227 256.45312 L 261.57227 270.42773 L 261.57227 269.42773 C 240.31627 256.31074 219.91326 234.27774 196.57227 225.42773 z M 186.92773 224.90234 C 180.48199 226.37515 173.23804 230.4462 167.13867 233.96094 C 173.88507 231.4335 181.66263 228.45836 186.92773 224.90234 z M 167.13867 233.96094 C 163.43813 235.34729 160.02708 236.61099 157.57227 237.73828 C 135.41527 247.91128 113.37726 258.77278 91.572266 269.67578 C 81.362265 274.78078 69.023267 283.25474 57.572266 284.42773 L 63.572266 289.42773 L 61.572266 285.42773 C 94.779263 271.60273 127.38927 254.27364 159.57227 238.18164 C 161.69468 237.12043 164.30588 235.59333 167.13867 233.96094 z M 57.572266 284.42773 C 51.455168 276.42974 39.777965 266.53073 30.572266 262.42773 C 36.689366 270.42574 48.366569 280.32474 57.572266 284.42773 z M 55.154297 227.11914 L 31.300781 238.10547 C 39.337137 234.97309 47.314036 231.11321 55.154297 227.11914 z M 0.57226562 252.42773 C 13.682468 270.23973 37.571668 284.32381 54.572266 298.50781 C 93.164266 330.70782 131.94126 362.68781 170.57227 394.8418 L 225.57227 440.50781 C 234.52327 447.97684 243.96126 458.56775 254.57227 463.42773 C 240.56127 444.39177 214.86727 428.9999 196.57227 414.00391 C 157.36327 381.8639 118.91126 348.79836 79.572266 316.81836 C 62.072263 302.59136 44.916966 287.92576 27.572266 273.50977 C 19.259369 266.60077 10.397968 256.92873 0.57226562 252.42773 z M 254.57227 463.42773 L 271.57227 480.42773 L 262.57227 468.42773 C 269.59326 470.09972 280.33827 468.08265 285.57227 473.42773 C 289.18094 470.9136 295.81034 470.86103 302.8125 471.63086 C 293.45881 469.39408 285.15908 465.4766 277.64062 460.40039 C 280.18032 463.13985 282.26887 465.85491 283.57227 468.42773 L 278.57227 465.42773 L 281.57227 469.42773 C 272.13726 469.23271 262.64526 468.50674 254.57227 463.42773 z M 278.57227 465.42773 C 272.44527 457.10374 259.97426 446.73473 250.57227 442.42773 C 256.69927 450.75177 269.17027 461.12074 278.57227 465.42773 z M 250.57227 442.42773 L 244.57227 435.42773 C 248.92706 437.94219 254.7832 441.64647 260.68945 445.91406 C 245.63011 430.22808 233.79809 410.26815 221.9043 392.42773 C 212.8383 378.82873 201.56127 365.20274 194.57227 350.42773 L 199.57227 346.42773 C 177.75127 347.59573 164.05927 318.9422 144.57227 311.2832 C 124.73527 303.4872 98.063264 314.05973 79.572266 302.42773 L 90.572266 311.42773 L 88.572266 308.42773 C 102.29126 311.69373 118.46927 311.70367 132.57227 312.38867 C 140.19927 312.75967 148.26626 312.03973 148.57227 321.42773 L 96.572266 316.42773 L 101.57227 320.42773 L 112.57227 319.44727 L 149.57227 322.42773 L 157.57227 330.42773 L 149.57227 317.42773 C 162.51926 323.19673 174.54931 335.7359 185.57031 344.62891 C 189.98631 348.1919 195.46327 352.63973 191.57227 358.42773 L 195.57227 362.42773 C 183.65227 367.41673 174.92927 378.44771 162.57227 370.42773 C 166.85861 374.52915 170.42127 376.10887 173.74414 376.21094 L 196.57227 363.42773 L 196.57227 364.42773 L 173.9082 376.21289 C 181.2044 376.33068 187.37632 369.37056 197.57227 366.42773 L 198.57227 372.42773 C 190.66427 377.04773 182.29526 384.70471 173.57227 379.42773 L 184.57227 388.42773 L 180.57227 383.42773 L 199.57227 374.81055 L 210.57227 382.42773 L 190.57227 393.42773 C 191.63526 394.18533 193.30951 394.47187 195.24023 394.4082 L 211.35547 384.56055 C 211.35687 384.51477 211.36523 384.46974 211.36523 384.42383 C 211.36523 379.96686 203.52394 376.57589 201.08594 373.33789 C 197.80794 368.98489 195.41126 359.80774 194.57227 354.42773 L 195.57227 354.42773 L 249.57227 436.42773 L 232.57227 419.42773 C 230.11927 423.56571 227.38627 422.43474 223.57227 420.42773 L 234.57227 429.42773 L 231.57227 425.42773 L 250.57227 442.42773 z M 223.57227 420.42773 C 223.57227 418.08192 224.61605 417.36826 226.03711 417.38477 L 216.57227 414.42773 C 219.45427 412.66375 224.73915 410.69136 225.91016 407.23438 C 227.52016 402.48336 217.54827 394.99996 213.57227 394.25195 C 206.85427 392.98895 203.32827 400.04071 195.57227 397.42773 C 201.69927 405.75173 214.17026 416.12074 223.57227 420.42773 z M 226.03711 417.38477 L 232.57227 419.42773 C 230.88084 418.93807 228.06963 417.40837 226.03711 417.38477 z M 211.35547 384.56055 C 211.34435 384.92376 211.29213 385.28344 211.19727 385.63672 L 211.57227 385.42773 L 211.57227 384.42773 L 211.35547 384.56055 z M 211.19727 385.63672 L 195.41406 394.4043 C 201.43353 394.13848 209.92041 390.39175 211.19727 385.63672 z M 195.41406 394.4043 C 195.3549 394.40691 195.29891 394.40627 195.24023 394.4082 L 193.57227 395.42773 L 195.41406 394.4043 z M 173.9082 376.21289 C 173.85348 376.21201 173.79899 376.21262 173.74414 376.21094 L 171.57227 377.42773 L 173.9082 376.21289 z M 162.57227 370.42773 L 130.57227 343.00391 L 101.57227 320.42773 L 139.57227 352.85352 L 162.57227 370.42773 z M 157.57227 330.42773 C 164.88326 339.98074 180.55326 352.51674 191.57227 357.42773 C 184.19126 347.78274 168.67027 335.37373 157.57227 330.42773 z M 260.68945 445.91406 C 265.90553 451.34718 271.51053 456.26156 277.64062 460.40039 C 273.02331 455.41988 266.8443 450.36128 260.68945 445.91406 z M 302.8125 471.63086 C 304.04714 471.9261 305.30065 472.19166 306.57227 472.42773 L 306.35742 472.07812 C 305.17182 471.90929 303.98936 471.76025 302.8125 471.63086 z M 271.57227 480.42773 L 289.5332 501.42773 L 315.57227 528.42773 L 297.61133 507.42773 L 271.57227 480.42773 z M 315.57227 528.42773 C 318.95682 533.23253 323.49592 537.71472 328.23828 542.17773 L 315.57227 528.42773 z M 328.23828 542.17773 L 348.31055 563.97266 C 343.46816 556.00222 335.60744 549.11283 328.23828 542.17773 z M 346.57227 552.42773 L 327.61133 530.42773 L 300.57227 502.42773 L 319.5332 524.42773 L 346.57227 552.42773 z M 358.45703 560.69922 L 371.05859 548.42773 C 366.53747 552.32412 361.93932 556.49719 358.45703 560.69922 z M 662.57227 396.42773 L 663.57227 396.42773 L 663.57227 387.42773 L 662.57227 396.42773 z M 657.57227 419.42773 L 658.57227 419.42773 L 658.57227 410.42773 L 657.57227 419.42773 z M 651.57227 447.42773 L 652.57227 447.42773 L 651.57227 442.42773 L 651.57227 447.42773 z M 540.80273 436.4707 L 542.66602 418.95312 C 541.54011 424.40319 541.03811 430.65566 540.80273 436.4707 z M 563.23828 435.76172 L 563.57227 435.42773 L 561.57227 436.42773 L 563.23828 435.76172 z M 574.23828 427.76172 L 574.57227 427.42773 L 572.57227 428.42773 L 574.23828 427.76172 z M 585.23828 419.76172 L 585.57227 419.42773 L 583.57227 420.42773 L 585.23828 419.76172 z M 596.57227 411.62695 L 596.57227 411.42773 L 594.57227 412.42773 L 596.57227 411.62695 z M 633.57227 350.42773 L 633.57227 351.42773 L 636.57227 351.42773 L 633.57227 350.42773 z M 621.57227 362.42773 L 621.57227 363.42773 L 633.57227 363.42773 L 621.57227 362.42773 z M 669.57227 364.42773 L 670.57227 364.42773 C 671.42126 354.03973 680.37326 337.17074 676.57227 327.42773 L 669.57227 364.42773 z M 380.57227 553.42773 C 386.23128 549.44177 396.91328 541.27072 398.57227 534.42773 L 380.57227 553.42773 z M 453.57227 485.42773 C 463.05627 478.76072 463.46328 479.39873 473.57227 484.42773 C 465.84325 491.48275 450.92825 505.43573 440.57227 507.42773 L 435.57227 510.42773 L 413.57227 529.42773 C 439.93927 514.73376 464.02628 493.70966 488.57227 476.13867 C 489.44069 475.51691 490.84375 474.36216 492.44336 473.04102 C 486.05273 478.19127 478.86482 482.79008 474.57227 482.73047 C 470.52428 482.67567 466.11324 478.20875 463.57227 475.42773 L 453.57227 485.42773 z M 463.57227 475.42773 L 466.57227 474.42773 L 467.57227 471.42773 L 463.57227 475.42773 z M 467.57227 471.42773 C 469.74839 469.25161 472.05565 466.55895 474.48828 463.85156 L 467.57227 471.42773 z M 474.48828 463.85156 L 475.83789 462.375 C 475.38269 462.86951 474.93427 463.3552 474.48828 463.85156 z M 492.44336 473.04102 C 492.95474 472.62889 493.45589 472.21598 493.95508 471.79883 C 493.40694 472.25061 492.94288 472.62846 492.44336 473.04102 z M 493.95508 471.79883 C 500.46827 466.43053 510.0145 458.79143 513.57227 460.42773 L 514.57227 460.42773 L 514.57227 456.42773 C 504.05025 461.24773 502.28327 457.83972 492.57227 452.42773 L 504.57227 461.42773 C 502.68885 463.86826 498.62448 467.89681 493.95508 471.79883 z M 460.06055 474.42383 L 454.57227 479.42773 L 444.54492 489.45508 C 449.9255 484.60051 455.17497 479.64852 460.06055 474.42383 z M 444.54492 489.45508 C 428.66564 503.782 411.66094 517.26653 399.57227 534.42773 L 444.54492 489.45508 z M 295.57227 497.42773 C 290.13825 490.04473 279.91526 481.24974 271.57227 477.42773 C 277.00627 484.81074 287.22925 493.60572 295.57227 497.42773 z M 409.73633 482.42773 C 409.06148 482.33434 408.38547 482.24329 407.70898 482.1543 L 407.57227 482.42773 L 409.73633 482.42773 z M 405.10742 481.80859 C 401.83993 481.40574 398.55233 481.0588 395.25586 480.73828 C 397.79463 481.70778 401.11824 482.07605 405.57227 482.42773 L 405.10742 481.80859 z M 395.25586 480.73828 C 391.07381 479.14126 389.02336 475.91155 387.57227 468.42773 L 394.57227 472.42773 L 385.57227 466.42773 L 386.53906 479.96094 C 389.45243 480.19558 392.35739 480.45646 395.25586 480.73828 z M 386.53906 479.96094 C 380.76976 479.49628 374.98014 479.112 369.19336 478.74219 C 374.98268 479.37223 380.77397 479.9701 386.57227 480.42773 L 386.53906 479.96094 z M 423.86523 472.43359 C 424.4254 472.09512 424.98383 471.75565 425.57227 471.42773 C 425.5095 471.35101 425.44569 471.28528 425.38281 471.21094 C 424.86437 471.61628 424.36174 472.02361 423.86523 472.43359 z M 425.38281 471.21094 C 426.79662 470.10555 428.27252 469.01566 429.80664 467.95312 C 429.39678 468.09639 428.98788 468.24138 428.57227 468.36133 C 424.46328 469.54731 418.05127 465.07071 413.57227 464.42773 L 403.57227 476.42773 C 410.0236 469.90201 418.09292 462.59283 425.38281 471.21094 z M 413.57227 464.42773 L 413.57227 463.42773 L 407.57227 461.42773 L 404.57227 462.42773 L 404.57227 463.42773 L 406.57227 464.42773 L 401.57227 464.42773 L 401.57227 465.42773 L 403.57227 466.42773 L 398.57227 466.42773 L 398.57227 467.42773 L 400.57227 468.42773 L 388.57227 464.42773 L 388.57227 465.42773 L 402.57227 474.42773 L 402.57227 473.42773 L 398.57227 470.42773 L 413.57227 464.42773 z M 429.80664 467.95312 C 434.25064 466.39977 438.36534 463.50879 442.36719 460.13867 C 438.25258 462.5005 433.88074 465.13138 429.80664 467.95312 z M 442.36719 460.13867 C 446.1452 457.97005 449.7093 456.02335 452.57227 454.42773 C 449.84663 458.12016 446.07451 461.64343 441.83594 464.95117 C 446.40992 461.76156 450.98171 458.56844 455.57227 455.4043 C 460.89127 451.73732 465.78423 446.28875 472.57227 448.42773 L 470.57227 445.42773 C 470.76389 445.33353 470.93128 445.26303 471.11523 445.17578 L 466.57227 445.42773 L 466.57227 444.42773 C 471.34827 441.04974 474.67828 439.07772 480.57227 440.42773 L 480.57227 439.42773 C 465.11356 435.88722 454.23951 450.14051 442.36719 460.13867 z M 471.11523 445.17578 L 480.14844 444.67383 C 476.87457 443.10805 474.66578 443.49178 471.11523 445.17578 z M 441.83594 464.95117 C 438.3511 467.38128 434.85934 469.80139 431.37109 472.22656 C 434.97963 469.95221 438.54664 467.51811 441.83594 464.95117 z M 487.57227 439.42773 C 482.89525 433.76377 478.64624 432.5087 479.57227 424.42773 L 497.57227 436.42773 L 497.57227 435.42773 C 490.35325 430.51775 479.46625 426.11973 479.57227 416.42773 L 502.57227 431.42773 L 481.57227 416.42773 L 481.57227 414.42773 L 507.14648 398.97461 L 519.57227 405.42773 L 519.57227 404.42773 C 505.76826 395.11373 511.47527 390.62475 513.57227 376.42773 L 546.57227 396.42773 L 546.57227 395.42773 C 538.67729 390.10174 521.42126 373.94619 511.57227 375.24219 C 503.95924 376.24419 496.35227 389.36642 488.57227 386.90039 C 470.69926 381.23639 457.29625 362.14574 439.57227 355.42773 L 439.57227 356.42773 C 454.82723 366.71873 471.38528 381.91372 488.57227 388.42773 L 488.57227 390.42773 L 472.57227 400.42773 L 472.57227 401.42773 C 486.33224 396.21274 500.90925 384.39275 512.57227 375.42773 C 508.85427 393.38273 489.99584 393.73891 480.17383 406.75391 C 475.45282 413.01091 477.98328 426.82975 476.57227 434.42773 L 472.57227 430.42773 L 471.57227 430.42773 C 473.54227 436.47573 482.08825 437.38275 487.57227 439.42773 z M 372.31445 344.42773 C 372.11738 344.40932 371.9215 344.39464 371.72461 344.37695 L 371.57227 344.42773 L 372.31445 344.42773 z M 320.75 360.40234 C 319.31636 361.14051 317.8764 361.88131 316.41797 362.64062 C 318.01119 361.9578 319.45458 361.2175 320.75 360.40234 z M 316.41797 362.64062 C 314.92939 363.2786 313.3258 363.87265 311.57227 364.42773 L 310.57227 345.42773 L 306.57227 345.42773 C 304.54326 351.41074 293.66528 357.14174 287.57227 356.42773 C 285.48626 367.83174 285.71425 393.8927 292.57227 403.42773 L 293.57227 395.42773 C 302.79926 400.93674 299.21525 410.66675 302.57227 419.42773 L 303.57227 419.42773 L 303.57227 404.42773 L 304.57227 404.42773 L 306.57227 417.42773 L 305.57227 404.42773 C 309.34828 408.02172 309.53028 412.40973 309.57227 417.42773 L 313.57227 417.42773 L 312.57227 400.42773 L 317.57227 401.42773 L 321.57227 404.42773 L 324.57227 408.42773 C 322.10828 402.96976 316.44826 398.51272 310.57227 397.42773 L 306.57227 394.42773 L 302.57227 391.42773 L 299.57227 387.42773 L 300.57227 389.42773 L 299.57227 389.42773 L 295.57227 384.42773 L 296.57227 386.42773 L 295.57227 386.42773 L 290.57227 380.42773 C 292.52834 378.14439 294.91028 376.01718 297.55078 374.00391 C 295.95706 374.83892 294.28263 375.6283 292.57227 376.42773 C 290.01525 367.44173 300.58626 363.43773 307.57227 360.42773 C 307.52333 364.56099 306.02585 367.48349 303.70508 369.7793 C 307.75337 367.24406 312.10274 364.88731 316.41797 362.64062 z M 303.70508 369.7793 C 301.54514 371.13196 299.47682 372.53537 297.55078 374.00391 C 299.88296 372.78199 302.0174 371.44882 303.70508 369.7793 z M 255.07227 363.30859 C 255.15967 365.75326 255.41543 368.34453 255.77539 370.86328 L 255.07227 363.30859 z M 264.00977 393.39453 C 269.92173 403.88186 277.13728 414.11382 284.40039 424.1543 C 277.58476 413.91333 270.79253 403.65765 264.00977 393.39453 z M 284.40039 424.1543 C 285.34776 425.57779 286.28978 427.00501 287.23828 428.42773 C 292.19646 435.86526 297.78227 443.31955 303.06445 450.9375 C 302.3284 449.67963 301.60562 448.47965 300.9043 447.42773 C 295.79645 439.7656 290.08877 432.01787 284.40039 424.1543 z M 303.06445 450.9375 C 306.18429 456.26909 309.64686 463.01973 313.73047 467.86914 C 310.581 462.09732 306.9032 456.47374 303.06445 450.9375 z M 203.32227 303.52734 C 203.40607 303.57046 203.48892 303.61428 203.57227 303.66016 L 203.57227 303.42773 L 203.32227 303.52734 z M 357.14453 750.83594 C 356.68153 757.90186 357.49991 765.79973 358.31836 773.32227 C 358.12121 765.79751 357.77287 758.23744 357.14453 750.83594 z M 316.50977 109.95312 C 327.97556 110.20858 340.18002 114.08566 350.57227 115.42773 L 350.57227 116.42773 L 301.57227 112.42773 C 306.24008 110.46898 311.29804 109.83701 316.50977 109.95312 z M 324.57227 139.42773 L 328.57227 142.42773 L 328.57227 157.42773 C 322.06124 156.00673 321.67726 144.43423 324.57227 139.42773 z M 321.57227 140.42773 L 321.57227 143.42773 L 320.57227 143.42773 L 321.57227 140.42773 z M 241.57227 261.42773 L 238.57227 263.42773 L 241.57227 261.42773 z M 260.57227 263.42773 L 260.57227 265.42773 L 263.57227 265.42773 L 263.57227 263.42773 L 260.57227 263.42773 z M 304.57227 266.42773 L 303.57227 267.42773 L 306.57227 269.42773 L 304.57227 266.42773 z M 224.57227 268.42773 L 224.57227 271.42773 L 227.57227 271.42773 L 227.57227 268.42773 L 224.57227 268.42773 z M 284.57227 268.42773 L 286.57227 288.42773 L 304.57227 279.42773 L 304.57227 278.42773 L 287.57227 286.42773 L 284.57227 268.42773 z M 328.57227 268.42773 L 325.57227 270.42773 L 326.57227 271.42773 L 328.57227 268.42773 z M 350.57227 270.42773 L 347.57227 272.42773 L 348.57227 273.42773 L 350.57227 270.42773 z M 263.57227 272.42773 L 263.57227 273.42773 L 284.57227 286.42773 L 284.57227 285.42773 L 263.57227 272.42773 z M 372.57227 272.42773 L 369.57227 274.42773 L 372.57227 272.42773 z M 214.57227 275.42773 L 211.57227 277.42773 L 212.57227 278.42773 L 214.57227 275.42773 z M 395.57227 275.42773 L 391.57227 276.42773 L 395.57227 275.42773 z M 413.57227 276.42773 L 417.57227 277.42773 L 413.57227 276.42773 z M 436.57227 277.42773 L 439.57227 280.42773 L 438.57227 277.42773 L 436.57227 277.42773 z M 458.57227 279.42773 L 461.57227 282.42773 L 458.57227 279.42773 z M 480.57227 282.42773 L 480.57227 283.42773 L 484.57227 283.42773 L 480.57227 282.42773 z M 197.57227 283.42773 L 197.57227 285.42773 L 200.57227 285.42773 L 200.57227 283.42773 L 197.57227 283.42773 z M 503.57227 283.42773 L 504.57227 286.42773 L 505.57227 286.42773 L 506.57227 283.42773 L 503.57227 283.42773 z M 525.57227 286.42773 L 529.57227 287.42773 L 525.57227 286.42773 z M 574.57227 289.42773 L 570.57227 290.42773 L 570.57227 291.42773 L 574.57227 289.42773 z M 181.57227 291.42773 L 185.57227 293.42773 L 181.57227 291.42773 z M 593.57227 291.42773 L 597.57227 292.42773 L 593.57227 291.42773 z M 616.57227 293.42773 L 620.57227 294.42773 L 616.57227 293.42773 z M 640.57227 294.42773 L 639.57227 295.42773 L 642.57227 297.42773 L 640.57227 294.42773 z M 195.57227 298.42773 L 191.57227 299.42773 L 191.57227 300.42773 L 195.57227 298.42773 z M 660.57227 298.42773 C 671.64001 300.96762 668.44313 307.22942 667.63086 315.83984 L 666.57227 316.42773 L 655.57227 325.42773 L 660.57227 298.42773 z M 667.57227 298.42773 L 669.57227 299.42773 L 669.57227 300.42773 L 667.57227 298.42773 z M 684.18164 299.37891 C 686.61578 299.35455 689.25726 300.24598 692.57227 302.42773 C 687.01727 309.15273 681.65123 311.69573 673.57227 308.42773 L 675.57227 311.42773 L 668.70312 315.24414 L 669.57227 307.42773 L 673.57227 308.42773 L 671.57227 305.42773 C 676.64288 302.00711 680.12473 299.4195 684.18164 299.37891 z M 572.57227 300.42773 C 576.11327 305.94374 585.41428 310.47873 591.57227 312.42773 L 591.57227 311.42773 L 572.57227 300.42773 z M 593.57227 313.42773 L 593.57227 314.42773 L 612.57227 324.42773 L 612.57227 323.42773 L 593.57227 313.42773 z M 249.57227 321.42773 C 249.84526 334.66873 244.21227 338.82773 231.57227 343.42773 L 225.57227 334.42773 C 230.76327 328.37173 241.72227 322.82673 249.57227 321.42773 z M 250.57227 321.42773 C 262.12726 322.88774 280.53026 318.62173 280.57227 333.42773 L 281.57227 333.42773 L 281.57227 324.42773 L 384.57227 332.33789 L 543.57227 344.59766 L 620.57227 350.42773 L 620.57227 351.42773 L 606.57227 359.87891 L 574.57227 357.59766 L 510.57227 352.51953 L 340.57227 339.25781 L 251.57227 332.42773 L 250.57227 321.42773 z M 614.57227 325.42773 L 632.57227 337.42773 L 614.57227 325.42773 z M 664.57227 328.42773 L 665.57227 329.42773 L 664.57227 328.42773 z M 663.9043 333.0957 L 664.23828 333.76172 L 663.9043 333.0957 z M 261.57227 334.42773 L 261.57227 335.42773 L 258.57227 335.42773 L 261.57227 334.42773 z M 265.57227 334.42773 L 265.57227 335.42773 L 262.57227 335.42773 L 265.57227 334.42773 z M 274.57227 335.42773 L 274.57227 336.42773 L 271.57227 336.42773 L 274.57227 335.42773 z M 276.57227 335.76172 C 277.34527 335.76172 276.73128 336.25971 276.23828 336.0957 L 276.57227 335.76172 z M 215.57227 336.42773 L 209.57227 341.42773 L 215.57227 336.42773 z M 253.57227 336.42773 L 261.57227 336.42773 L 261.57227 337.42773 L 253.57227 341.42773 L 253.57227 336.42773 z M 286.57227 336.42773 L 286.57227 337.42773 L 283.57227 337.42773 L 286.57227 336.42773 z M 290.57227 336.42773 L 290.57227 337.42773 L 287.57227 337.42773 L 290.57227 336.42773 z M 651.57227 336.42773 L 651.57227 340.42773 L 652.57227 340.42773 L 651.57227 336.42773 z M 271.57227 337.42773 L 271.57227 338.42773 C 266.90726 341.17874 263.04427 344.15274 257.57227 342.42773 L 254.57227 347.42773 C 255.25227 338.81673 264.38927 337.44873 271.57227 337.42773 z M 299.57227 337.42773 L 299.57227 338.42773 L 296.57227 338.42773 L 299.57227 337.42773 z M 662.57227 337.42773 L 663.57227 338.42773 L 662.57227 337.42773 z M 301.57227 337.76172 C 302.34525 337.76172 301.73113 338.2597 301.23828 338.0957 L 301.57227 337.76172 z M 276.57227 338.42773 L 276.57227 339.42773 L 254.57227 351.42773 C 258.06326 345.27274 269.72327 339.66373 276.57227 338.42773 z M 311.57227 338.42773 L 311.57227 339.42773 L 308.57227 339.42773 L 311.57227 338.42773 z M 315.57227 338.42773 L 315.57227 339.42773 L 312.57227 339.42773 L 315.57227 338.42773 z M 324.57227 339.42773 L 324.57227 340.42773 L 321.57227 340.42773 L 324.57227 339.42773 z M 326.57227 339.76172 C 327.34525 339.76172 326.73113 340.2597 326.23828 340.0957 L 326.57227 339.76172 z M 336.57227 340.42773 L 336.57227 341.42773 L 333.57227 341.42773 L 336.57227 340.42773 z M 340.57227 340.42773 L 340.57227 341.42773 L 337.57227 341.42773 L 340.57227 340.42773 z M 648.57227 340.42773 L 648.57227 344.42773 L 649.57227 344.42773 L 648.57227 340.42773 z M 207.57227 341.42773 L 201.57227 346.42773 L 207.57227 341.42773 z M 349.57227 341.42773 L 349.57227 342.42773 L 346.57227 342.42773 L 349.57227 341.42773 z M 650.57227 341.42773 L 650.57227 345.42773 L 651.57227 345.42773 L 650.57227 341.42773 z M 351.57227 341.76172 C 352.34529 341.76172 351.73113 342.25971 351.23828 342.0957 L 351.57227 341.76172 z M 361.57227 342.42773 L 361.57227 343.42773 L 358.57227 343.42773 L 361.57227 342.42773 z M 365.57227 342.42773 L 365.57227 343.42773 L 362.57227 343.42773 L 365.57227 342.42773 z M 642.57227 342.42773 L 643.57227 343.42773 L 642.57227 342.42773 z M 661.57227 342.42773 L 662.57227 343.42773 L 661.57227 342.42773 z M 342.29102 343.35742 C 344.00492 343.34188 345.82601 343.42773 347.57227 343.42773 L 347.57227 344.42773 L 334.57227 351.42773 C 332.96202 344.37698 337.1493 343.40406 342.29102 343.35742 z M 376.57227 343.76172 C 377.34525 343.76172 376.73113 344.2597 376.23828 344.0957 L 376.57227 343.76172 z M 244.57227 344.42773 L 244.57227 354.42773 L 244.57227 358.42773 L 246.57227 364.42773 L 245.57227 364.42773 L 235.57227 348.42773 L 241.57227 346.42773 L 241.57227 352.42773 L 242.57227 352.42773 L 244.57227 344.42773 z M 244.57227 354.42773 L 242.57227 353.42773 L 241.57227 356.42773 L 244.57227 354.42773 z M 386.57227 344.42773 L 386.57227 345.42773 L 383.57227 345.42773 L 386.57227 344.42773 z M 390.57227 344.42773 L 390.57227 345.42773 L 387.57227 345.42773 L 390.57227 344.42773 z M 645.57227 344.42773 L 646.57227 345.42773 L 645.57227 344.42773 z M 399.57227 345.42773 L 399.57227 346.42773 L 396.57227 346.42773 L 399.57227 345.42773 z M 647.57227 345.42773 L 647.57227 350.42773 L 637.57227 350.42773 L 637.57227 351.42773 L 646.57227 354.42773 L 647.57227 354.42773 L 647.57227 352.42773 L 648.57227 352.42773 L 648.57227 355.42773 L 649.57227 355.42773 L 653.57227 353.42773 L 652.57227 350.42773 L 648.57227 351.42773 L 649.37305 349.42773 L 648.57227 349.42773 L 647.57227 345.42773 z M 649.37305 349.42773 L 649.57227 349.42773 L 649.57227 348.92773 L 649.37305 349.42773 z M 649.57227 348.92773 L 650.57227 346.42773 L 649.57227 346.42773 L 649.57227 348.92773 z M 401.57227 345.76172 C 402.34525 345.76172 401.73113 346.2597 401.23828 346.0957 L 401.57227 345.76172 z M 411.57227 346.42773 L 411.57227 347.42773 L 408.57227 347.42773 L 411.57227 346.42773 z M 415.57227 346.42773 L 415.57227 347.42773 L 412.57227 347.42773 L 415.57227 346.42773 z M 424.57227 347.42773 L 424.57227 348.42773 L 421.57227 348.42773 L 424.57227 347.42773 z M 660.57227 347.42773 L 661.57227 348.42773 L 660.57227 347.42773 z M 426.57227 347.76172 C 427.34529 347.76172 426.73113 348.25971 426.23828 348.0957 L 426.57227 347.76172 z M 436.57227 348.42773 L 436.57227 349.42773 L 433.57227 349.42773 L 436.57227 348.42773 z M 440.57227 348.42773 L 440.57227 349.42773 L 437.57227 349.42773 L 440.57227 348.42773 z M 402.57227 349.42773 L 402.57227 350.42773 L 409.41016 354.33398 C 408.75777 352.63137 406.76345 351.01799 402.57227 349.42773 z M 409.41016 354.33398 C 409.47654 354.50724 409.53293 354.68222 409.57227 354.85742 L 409.57227 354.42773 L 409.41016 354.33398 z M 409.57227 354.85742 L 409.57227 356.42773 C 388.59226 363.11373 367.25326 381.66192 348.57227 393.37891 C 341.85427 397.59191 332.62228 405.94074 324.57227 406.42773 L 326.57227 437.42773 L 327.57227 437.42773 L 327.57227 427.42773 L 328.57227 427.42773 L 328.57227 439.42773 L 329.57227 439.42773 L 329.57227 422.42773 L 330.57227 422.42773 L 330.57227 437.42773 L 331.57227 437.42773 L 333.57227 426.42773 C 343.07827 432.34772 349.57125 436.83373 349.57227 448.42773 L 351.57227 449.42773 C 356.95628 444.15473 351.82358 438.58052 354.17773 432.52148 C 355.55976 428.9665 363.79182 422.52869 367.42383 425.9707 C 370.05782 428.4667 369.60524 433.16472 370.57227 436.42773 L 372.57227 436.42773 L 374.57227 399.42773 C 386.06828 406.52372 388.99226 410.31476 392.57227 422.42773 C 398.70927 418.00176 392.91286 409.33182 397.17383 403.75781 C 403.6488 395.28884 411.86425 399.65475 409.57227 409.42773 L 411.57227 410.42773 C 418.52928 403.61472 414.02813 384.69472 414.66211 375.42773 C 414.97505 370.83873 416.92627 366.20473 411.57227 364.42773 L 401.57227 373.42773 C 401.60031 365.40943 410.66912 359.74235 409.57227 354.85742 z M 449.57227 349.42773 L 449.57227 350.42773 L 446.57227 350.42773 L 449.57227 349.42773 z M 453.57227 349.42773 L 453.57227 350.42773 L 450.57227 350.42773 L 453.57227 349.42773 z M 307.57227 350.42773 C 304.49225 355.89574 296.46727 359.69373 290.57227 361.42773 C 293.79628 356.15273 301.78226 352.26073 307.57227 350.42773 z M 461.57227 350.42773 L 461.57227 351.42773 L 458.57227 351.42773 L 461.57227 350.42773 z M 465.57227 350.42773 L 465.57227 351.42773 L 462.57227 351.42773 L 465.57227 350.42773 z M 474.57227 351.42773 L 474.57227 352.42773 L 471.57227 352.42773 L 474.57227 351.42773 z M 478.57227 351.42773 L 478.57227 352.42773 L 475.57227 352.42773 L 478.57227 351.42773 z M 202.57227 352.42773 L 210.57227 365.42773 L 209.57227 358.42773 L 209.57227 357.42773 L 202.57227 352.42773 z M 490.57227 352.42773 L 490.57227 353.42773 L 487.57227 353.42773 L 490.57227 352.42773 z M 659.57227 352.42773 L 660.57227 353.42773 L 659.57227 352.42773 z M 485.57227 352.76172 C 486.34525 352.76172 485.73113 353.25971 485.23828 353.0957 L 485.57227 352.76172 z M 217.57227 353.42773 L 211.57227 356.42773 L 217.57227 353.42773 z M 226.57227 353.42773 L 220.57227 356.42773 L 226.57227 353.42773 z M 499.57227 353.42773 L 499.57227 354.42773 L 496.57227 354.42773 L 499.57227 353.42773 z M 503.57227 353.42773 L 503.57227 354.42773 L 500.57227 354.42773 L 503.57227 353.42773 z M 515.57227 354.42773 L 515.57227 355.42773 L 509.57227 355.42773 L 515.57227 354.42773 z M 657.57227 354.42773 L 655.72461 355.76172 C 656.47868 355.56503 657.18423 355.40621 657.79492 355.32031 L 657.57227 354.42773 z M 657.79492 355.32031 L 658.57227 358.42773 C 660.65246 355.5676 659.73522 355.0474 657.79492 355.32031 z M 655.72461 355.76172 C 652.59872 356.57706 648.76652 357.93295 648.57227 356.42773 L 647.57227 356.42773 L 647.57227 360.42773 L 644.57227 363.42773 L 634.57227 363.42773 L 634.57227 364.42773 L 640.57227 364.42773 L 640.57227 365.42773 L 630.57227 365.42773 L 630.57227 366.42773 L 637.57227 366.42773 L 602.57227 392.42773 L 542.57227 435.42773 L 542.57227 436.42773 L 584.57227 407.13672 L 655.72461 355.76172 z M 524.57227 355.42773 L 524.57227 356.42773 L 521.57227 356.42773 L 524.57227 355.42773 z M 528.57227 355.42773 L 528.57227 356.42773 L 525.57227 356.42773 L 528.57227 355.42773 z M 645.57227 355.42773 L 645.57227 359.42773 L 646.57227 359.42773 L 645.57227 355.42773 z M 218.57227 356.42773 L 212.57227 360.42773 L 218.57227 356.42773 z M 307.57227 356.42773 C 304.60224 361.84173 297.24325 365.35173 291.57227 367.42773 C 294.61727 361.87573 301.89126 358.80573 307.57227 356.42773 z M 540.57227 356.42773 L 540.57227 357.42773 L 534.57227 357.42773 L 540.57227 356.42773 z M 549.57227 357.42773 L 549.57227 358.42773 L 546.57227 358.42773 L 549.57227 357.42773 z M 553.57227 357.42773 L 553.57227 358.42773 L 550.57227 358.42773 L 553.57227 357.42773 z M 565.57227 358.42773 L 565.57227 359.42773 L 559.57227 359.42773 L 565.57227 358.42773 z M 574.57227 359.42773 L 574.57227 360.42773 L 571.57227 360.42773 L 574.57227 359.42773 z M 578.57227 359.42773 L 578.57227 360.42773 L 575.57227 360.42773 L 578.57227 359.42773 z M 657.57227 359.42773 L 658.57227 360.42773 L 657.57227 359.42773 z M 590.57227 360.42773 L 590.57227 361.42773 L 584.57227 361.42773 L 590.57227 360.42773 z M 230.57227 361.42773 L 231.57227 362.42773 L 230.57227 361.42773 z M 599.57227 361.42773 L 599.57227 362.42773 L 596.57227 362.42773 L 599.57227 361.42773 z M 603.57227 361.42773 L 603.57227 362.42773 L 600.57227 362.42773 L 603.57227 361.42773 z M 654.57227 361.42773 L 653.57227 363.42773 L 654.57227 361.42773 z M 227.57227 363.42773 L 228.57227 364.42773 L 227.57227 363.42773 z M 651.57227 363.42773 L 650.57227 365.42773 L 651.57227 363.42773 z M 225.57227 364.42773 L 226.57227 365.42773 L 225.57227 364.42773 z M 617.57227 364.42773 L 617.57227 365.42773 L 628.57227 365.42773 L 617.57227 364.42773 z M 223.57227 365.42773 L 222.57227 367.42773 L 223.57227 365.42773 z M 290.57227 365.42773 L 290.57227 371.42773 L 289.57227 371.42773 L 290.57227 365.42773 z M 398.57227 366.42773 L 398.57227 375.42773 L 397.57227 375.42773 L 398.57227 366.42773 z M 647.57227 366.42773 L 646.57227 368.42773 L 647.57227 366.42773 z M 227.57227 367.42773 L 228.57227 368.42773 L 227.57227 367.42773 z M 213.57227 368.42773 L 220.57227 382.42773 L 221.57227 382.42773 L 216.57227 372.42773 L 220.57227 373.42773 L 213.57227 368.42773 z M 218.57227 368.42773 L 219.57227 369.42773 L 218.57227 368.42773 z M 396.57227 368.42773 L 396.57227 376.42773 C 387.77746 371.80097 381.49162 377.15878 376.02539 383.7832 L 393.57227 375.42773 L 391.57227 399.42773 C 385.23518 396.99004 378.22032 392.08909 373.66016 386.76172 C 370.53602 390.80733 367.60049 394.85746 364.5293 397.07031 C 362.31168 398.66816 357.91586 400.32852 354.3418 402.26562 C 346.79425 396.74299 337.84454 407.0282 330.57227 410.42773 C 333.97127 404.39372 342.78226 400.82431 348.57227 397.23633 C 363.40729 388.04232 379.96427 373.71973 396.57227 368.42773 z M 373.66016 386.76172 C 374.4377 385.75484 375.2173 384.76251 376.02539 383.7832 L 372.57227 385.42773 C 372.91504 385.87457 373.2817 386.31959 373.66016 386.76172 z M 640.57227 368.42773 L 641.57227 369.42773 L 640.57227 368.42773 z M 223.57227 369.42773 L 224.57227 370.42773 L 223.57227 369.42773 z M 412.57227 369.42773 C 409.42124 375.59473 401.47627 379.15274 395.57227 382.42773 C 397.63328 376.18472 407.02626 372.38073 412.57227 369.42773 z M 640.57227 371.42773 L 639.57227 373.42773 L 640.57227 371.42773 z M 520.57227 372.42773 L 520.57227 373.42773 L 533.57227 380.42773 L 533.57227 379.42773 L 520.57227 372.42773 z M 224.57227 373.42773 L 222.57227 374.42773 L 230.57227 378.42773 L 230.57227 377.42773 L 224.57227 373.42773 z M 636.57227 374.42773 L 635.57227 376.42773 L 636.57227 374.42773 z M 412.57227 375.42773 C 409.60326 381.23474 401.66725 385.48574 395.57227 387.42773 L 412.57227 375.42773 z M 633.57227 376.42773 L 632.57227 378.42773 L 633.57227 376.42773 z M 233.57227 379.42773 L 233.57227 380.42773 L 240.57227 383.42773 L 240.57227 382.42773 L 233.57227 379.42773 z M 629.57227 379.42773 L 628.57227 381.42773 L 629.57227 379.42773 z M 410.57227 380.42773 L 410.57227 385.42773 L 406.57227 382.42773 L 410.57227 380.42773 z M 535.57227 381.42773 L 553.57227 393.42773 L 553.57227 392.42773 L 535.57227 381.42773 z M 626.57227 381.42773 L 624.57227 384.42773 L 626.57227 381.42773 z M 242.57227 383.42773 L 248.62305 390.44336 L 244.57227 397.42773 L 250.57227 395.42773 C 250.51126 388.73574 248.78726 386.05674 242.57227 383.42773 z M 622.57227 384.42773 L 621.57227 386.42773 L 622.57227 384.42773 z M 405.89648 385.37891 C 408.13981 385.34286 409.93555 386.33357 409.93555 389.33789 C 409.93555 393.98089 399.04928 398.49972 395.57227 400.42773 C 395.57227 396.48372 394.65468 391.44244 397.88867 388.52344 C 399.38717 387.17118 403.0122 385.42525 405.89648 385.37891 z M 224.57227 386.42773 L 231.57227 399.42773 L 232.57227 399.42773 L 224.57227 386.42773 z M 618.57227 387.42773 L 617.57227 389.42773 L 618.57227 387.42773 z M 509.57227 388.42773 C 505.62825 400.41473 490.23628 408.48473 479.57227 414.42773 C 479.93208 403.36475 500.31824 392.80571 509.57227 388.42773 z M 615.57227 389.42773 L 614.57227 391.42773 L 615.57227 389.42773 z M 611.57227 392.42773 L 610.57227 394.42773 L 611.57227 392.42773 z M 375.57227 393.42773 L 391.57227 404.42773 L 391.57227 405.42773 L 374.57227 394.42773 L 375.57227 393.42773 z M 607.57227 395.42773 L 606.57227 397.42773 L 607.57227 395.42773 z M 370.57227 396.42773 C 367.45125 402.11774 359.40925 405.90974 353.57227 408.42773 C 356.67325 402.76075 364.64823 398.66975 370.57227 396.42773 z M 212.16016 397.31055 C 215.88251 397.29571 219.19758 399.44411 224.57227 403.42773 L 224.57227 404.42773 C 214.46127 411.11875 210.08427 410.38574 201.57227 401.42773 C 206.12402 398.64173 209.26499 397.32209 212.16016 397.31055 z M 604.57227 397.42773 L 603.57227 399.42773 L 604.57227 397.42773 z M 250.57227 398.42773 L 245.57227 411.42773 L 249.57227 411.42773 L 250.57227 407.42773 L 251.57227 407.42773 L 251.57227 412.42773 L 252.57227 412.42773 L 251.57227 406.42773 L 250.57227 406.42773 L 248.57227 410.42773 L 247.57227 410.42773 L 250.57227 398.42773 z M 549.57227 399.76172 L 549.9043 400.0957 C 549.4113 400.25973 548.79924 399.76172 549.57227 399.76172 z M 600.57227 400.42773 L 599.57227 402.42773 L 600.57227 400.42773 z M 372.57227 401.42773 L 372.57227 411.42773 L 371.57227 411.42773 L 372.57227 401.42773 z M 350.69531 401.75391 C 351.92543 401.74033 353.11712 401.91992 354.24609 402.31641 C 351.88691 403.60369 349.89274 405.01013 349.17383 406.61133 C 346.83082 411.83131 349.57227 421.65273 349.57227 427.42773 L 330.57227 413.42773 C 334.83829 408.41332 343.41492 401.83424 350.69531 401.75391 z M 235.57227 402.42773 L 242.57227 415.42773 L 243.57227 415.42773 L 235.57227 402.42773 z M 370.57227 402.42773 C 367.47124 408.09476 359.49626 412.18576 353.57227 414.42773 C 356.61025 408.88876 364.76226 404.62976 370.57227 402.42773 z M 470.57227 402.42773 L 470.57227 414.42773 L 471.57227 414.42773 L 470.57227 402.42773 z M 597.57227 402.42773 L 596.57227 404.42773 L 597.57227 402.42773 z M 557.57227 403.42773 L 558.57227 404.42773 L 557.57227 403.42773 z M 225.57227 405.42773 L 214.57227 412.42773 L 214.57227 411.42773 L 225.57227 405.42773 z M 560.57227 405.42773 L 561.57227 406.42773 L 560.57227 405.42773 z M 593.57227 405.42773 L 592.57227 407.42773 L 593.57227 405.42773 z M 302.57227 407.42773 L 302.57227 414.42773 L 301.57227 414.42773 L 302.57227 407.42773 z M 369.57227 407.42773 L 369.57227 412.42773 L 365.57227 410.42773 L 365.57227 408.42773 L 369.57227 407.42773 z M 563.57227 407.42773 L 564.57227 408.42773 L 563.57227 407.42773 z M 589.57227 408.42773 L 588.57227 410.42773 L 589.57227 408.42773 z M 329.57227 409.42773 L 329.57227 421.42773 L 328.57227 421.42773 L 329.57227 409.42773 z M 566.57227 409.42773 L 567.57227 410.42773 L 566.57227 409.42773 z M 312.57227 410.42773 L 312.57227 413.42773 L 311.57227 413.42773 L 312.57227 410.42773 z M 327.57227 410.42773 L 327.57227 417.42773 L 326.57227 417.42773 L 327.57227 410.42773 z M 586.57227 410.42773 L 585.57227 412.42773 L 586.57227 410.42773 z M 569.57227 411.42773 L 570.57227 412.42773 L 569.57227 411.42773 z M 365.13867 411.73242 C 367.41646 411.83043 369.10407 413.00215 368.65039 416.25977 C 367.9974 420.94676 357.30625 425.35674 353.57227 427.42773 C 353.57227 422.80673 352.70572 417.73245 356.71875 414.52344 C 358.30499 413.25556 362.21009 411.60641 365.13867 411.73242 z M 520.57227 412.42773 L 525.57227 415.42773 L 518.57227 421.42773 L 520.57227 412.42773 z M 352.57227 413.42773 L 352.57227 417.42773 L 351.57227 417.42773 L 352.57227 413.42773 z M 582.57227 413.42773 L 581.57227 415.42773 L 582.57227 413.42773 z M 245.9043 415.0957 L 246.23828 415.76172 L 245.9043 415.0957 z M 579.57227 415.42773 L 578.57227 417.42773 L 579.57227 415.42773 z M 469.57227 416.42773 L 469.57227 427.42773 L 470.57227 427.42773 L 469.57227 416.42773 z M 527.57227 416.42773 L 528.57227 419.42773 L 523.57227 420.42773 L 527.57227 416.42773 z M 252.57227 417.42773 L 252.57227 422.42773 L 253.57227 422.42773 L 252.57227 417.42773 z M 575.57227 418.42773 L 574.57227 420.42773 L 575.57227 418.42773 z M 246.57227 419.42773 L 253.57227 432.42773 L 254.57227 432.42773 L 254.57227 426.42773 L 253.57227 426.42773 L 252.57227 428.42773 L 246.57227 419.42773 z M 352.57227 420.42773 L 352.57227 426.42773 L 351.57227 426.42773 L 352.57227 420.42773 z M 571.57227 421.42773 L 570.57227 423.42773 L 571.57227 421.42773 z M 546.57227 423.42773 L 547.57227 424.42773 L 546.57227 423.42773 z M 568.57227 423.42773 L 567.57227 425.42773 L 568.57227 423.42773 z M 233.3457 423.60547 C 235.88169 423.62957 237.76626 425.95422 239.57227 428.42773 L 230.57227 424.42773 C 231.58402 423.84473 232.50038 423.59744 233.3457 423.60547 z M 372.57227 425.42773 L 372.57227 432.42773 L 371.57227 432.42773 L 372.57227 425.42773 z M 549.57227 425.42773 L 550.57227 426.42773 L 549.57227 425.42773 z M 564.57227 426.42773 L 563.57227 428.42773 L 564.57227 426.42773 z M 332.57227 428.42773 L 332.57227 431.42773 L 331.57227 431.42773 L 332.57227 428.42773 z M 561.57227 428.42773 L 560.57227 430.42773 L 561.57227 428.42773 z M 516.57227 429.42773 L 516.57227 432.42773 L 517.57227 432.42773 L 516.57227 429.42773 z M 557.57227 431.42773 L 556.57227 433.42773 L 557.57227 431.42773 z M 553.57227 434.42773 L 552.57227 436.42773 L 553.57227 434.42773 z M 508.57227 435.42773 L 509.57227 436.42773 L 508.57227 435.42773 z M 516.57227 436.42773 L 513.57227 437.42773 L 515.57227 441.42773 L 516.57227 441.42773 L 516.57227 436.42773 z M 550.57227 436.42773 L 549.57227 438.42773 L 550.57227 436.42773 z M 511.57227 437.42773 L 512.57227 438.42773 L 511.57227 437.42773 z M 546.57227 439.42773 L 545.57227 441.42773 L 546.57227 439.42773 z M 495.57227 440.42773 C 491.82426 445.50474 484.20428 452.42073 477.57227 451.42773 L 495.57227 440.42773 z M 543.57227 441.42773 L 541.57227 444.42773 L 543.57227 441.42773 z M 462.57227 443.42773 L 465.57227 445.42773 L 465.57227 446.42773 L 462.57227 443.42773 z M 461.57227 445.42773 L 461.57227 446.42773 L 457.57227 448.42773 L 461.57227 445.42773 z M 476.57227 445.42773 L 477.57227 446.42773 L 476.57227 445.42773 z M 496.57227 445.42773 L 497.57227 446.42773 L 496.57227 445.42773 z M 464.57227 447.42773 L 464.57227 448.42773 L 460.57227 450.42773 L 464.57227 447.42773 z M 500.57227 448.42773 L 501.57227 449.42773 L 500.57227 448.42773 z M 493.57227 449.42773 L 494.57227 450.42773 L 493.57227 449.42773 z M 503.57227 450.42773 L 504.57227 451.42773 L 503.57227 450.42773 z M 496.57227 451.42773 L 497.57227 452.42773 L 496.57227 451.42773 z M 507.57227 453.42773 L 508.57227 454.42773 L 507.57227 453.42773 z M 500.57227 454.42773 L 501.57227 455.42773 L 500.57227 454.42773 z M 510.57227 455.42773 L 511.57227 456.42773 L 510.57227 455.42773 z M 503.57227 456.42773 L 504.57227 457.42773 L 503.57227 456.42773 z M 510.57227 465.42773 L 509.57227 467.42773 L 510.57227 465.42773 z M 507.57227 467.42773 L 505.57227 470.42773 L 507.57227 467.42773 z M 548.57227 468.42773 C 544.35428 473.60973 536.85602 476.40534 533.75 482.44336 C 530.702 488.36735 531.20201 497.85873 530.41602 504.42773 C 528.38203 521.42472 526.48348 538.46574 524.14648 555.42773 C 522.80248 565.18772 517.44427 582.30675 521.57227 591.42773 L 518.57227 592.42773 L 527.41602 516.42773 L 532.13477 481.60156 L 548.57227 468.42773 z M 291.57227 469.42773 L 291.57227 470.42773 L 287.57227 470.42773 L 291.57227 469.42773 z M 503.57227 470.42773 L 502.57227 472.42773 L 503.57227 470.42773 z M 499.57227 473.42773 L 498.57227 475.42773 L 499.57227 473.42773 z M 496.57227 475.42773 L 495.57227 477.42773 L 496.57227 475.42773 z M 468.57227 476.42773 L 470.57227 478.42773 L 468.57227 476.42773 z M 405.23828 476.76172 L 405.9043 477.0957 L 405.23828 476.76172 z M 492.57227 478.42773 L 491.57227 480.42773 L 492.57227 478.42773 z M 472.57227 479.42773 L 474.57227 481.42773 L 472.57227 479.42773 z M 489.57227 480.42773 L 487.57227 483.42773 L 489.57227 480.42773 z M 485.57227 483.42773 L 484.57227 485.42773 L 485.57227 483.42773 z M 481.57227 486.42773 L 480.57227 488.42773 L 481.57227 486.42773 z M 478.57227 488.42773 L 477.57227 490.42773 L 478.57227 488.42773 z M 521.57227 488.42773 L 512.73828 566.42773 L 508.25391 600.38867 L 491.57227 614.42773 L 505.13672 601.25781 L 509.73828 565.42773 L 517.57227 494.42773 C 498.73227 507.96071 480.12925 521.8838 461.57227 535.80078 C 455.11426 540.64481 444.24026 545.63674 443.57227 554.42773 C 442.18583 553.76945 440.62815 553.61222 438.96289 553.81836 L 460.57227 575.42773 C 454.67424 567.04675 436.88783 555.5326 449.58984 545.80859 C 451.53781 544.31659 453.94326 542.31069 456.57227 542.5957 C 462.77126 543.26869 465.79024 550.43476 472.57227 550.42773 L 468.57227 548.42773 L 469.57227 542.42773 L 468.57227 542.42773 L 468.57227 546.42773 L 467.57227 546.42773 L 466.57227 538.42773 L 469.57227 538.42773 L 465.57227 535.42773 L 466.57227 547.42773 L 457.57227 539.42773 L 507.57227 503.42773 C 507.03028 529.68071 501.92811 556.27272 499.49609 582.42773 C 498.69211 591.07575 497.04827 603.69374 485.57227 603.42773 L 489.57227 610.42773 C 482.97427 607.21272 478.37006 599.80075 473.49609 594.42773 C 470.15443 590.74322 466.26094 586.88329 462.27734 582.90234 L 472.49609 594.42773 L 486.89453 612.42773 L 485.74023 629.42773 L 482.57227 665.42773 L 481.57227 665.42773 C 477.27725 652.70573 479.69415 640.60475 480.66016 627.42773 C 481.13615 620.92676 483.27726 614.21272 479.57227 608.42773 L 465.57227 622.42773 C 464.03898 620.52984 462.55991 618.27621 461.13086 615.8125 C 462.06666 618.11905 462.7308 620.43675 462.43945 622.38867 C 461.46944 628.88666 446.26828 638.22472 440.57227 640.42773 C 445.29826 620.57973 437.45925 595.23572 445.57227 576.42773 C 446.73922 580.70282 448.21806 584.91749 449.83398 589.09375 C 447.6221 582.29698 445.82838 575.72891 444.57227 570.42773 L 456.57227 582.42773 C 452.05728 575.99275 439.07625 567.01573 440.57227 558.42773 L 443.22461 561.41797 C 441.50364 558.92454 439.99016 556.3974 438.77148 553.83984 C 428.88944 555.22728 415.15621 569.61887 408.57227 574.55469 C 400.36328 580.70867 378.5257 591.18436 375.88867 601.44336 C 373.70868 609.92039 376.34763 619.86873 376.55664 628.42773 C 376.99764 646.40472 376.57227 664.4447 376.57227 682.42773 C 376.57227 694.35774 379.86224 707.14873 367.57227 713.42773 L 366.57227 634.42773 L 366.17383 604.51758 L 377.57227 594.54492 L 406.57227 573.05469 L 479.57227 519.05469 L 521.57227 488.42773 z M 438.77148 553.83984 C 438.83584 553.83081 438.89887 553.82628 438.96289 553.81836 L 438.57227 553.42773 C 438.63602 553.56525 438.70604 553.7025 438.77148 553.83984 z M 443.22461 561.41797 C 448.40535 568.9241 455.4769 576.10642 462.27734 582.90234 L 443.22461 561.41797 z M 456.57227 582.42773 C 460.81229 591.53273 471.38925 602.64774 479.57227 608.42773 C 475.33228 599.32274 464.75528 588.20875 456.57227 582.42773 z M 449.83398 589.09375 C 452.88186 598.45939 456.73747 608.23822 461.13086 615.8125 C 460.04635 613.13941 458.59279 610.48154 457.77148 608.42773 C 455.20863 602.02028 452.35285 595.60363 449.83398 589.09375 z M 485.57227 603.42773 C 481.05528 593.74073 469.29326 581.57472 460.57227 575.42773 C 465.08823 585.11474 476.85225 597.28075 485.57227 603.42773 z M 474.57227 491.42773 L 473.57227 493.42773 L 474.57227 491.42773 z M 470.57227 494.42773 L 469.57227 496.42773 L 470.57227 494.42773 z M 467.57227 496.42773 L 466.57227 498.42773 L 467.57227 496.42773 z M 516.57227 497.42773 L 504.57227 600.42773 L 500.57227 598.42773 L 503.57227 601.42773 L 503.57227 602.42773 L 491.57227 611.42773 L 489.57227 607.42773 C 492.48326 603.82872 497.30887 601.40586 499.54688 597.33984 C 502.71786 591.57984 502.04648 581.87372 502.64648 575.42773 C 504.07348 560.07673 506.22728 544.78675 507.57227 529.42773 C 508.37526 520.26174 506.75226 501.35973 516.57227 497.42773 z M 463.57227 499.42773 L 462.57227 501.42773 L 463.57227 499.42773 z M 460.57227 501.42773 L 459.57227 503.42773 L 460.57227 501.42773 z M 436.57227 504.42773 L 437.57227 505.42773 L 436.57227 504.42773 z M 456.57227 504.42773 L 455.57227 506.42773 L 456.57227 504.42773 z M 452.57227 507.42773 L 451.57227 509.42773 L 452.57227 507.42773 z M 449.57227 509.42773 L 448.57227 511.42773 L 449.57227 509.42773 z M 445.57227 512.42773 L 444.57227 514.42773 L 445.57227 512.42773 z M 442.57227 514.42773 L 440.57227 517.42773 L 442.57227 514.42773 z M 438.57227 517.42773 L 437.57227 519.42773 L 438.57227 517.42773 z M 489.57227 517.42773 L 493.57227 523.42773 L 488.57227 523.42773 L 488.57227 524.42773 L 493.57227 526.42773 L 494.57227 526.42773 C 494.20641 521.94775 493.51628 519.88775 489.57227 517.42773 z M 495.57227 519.42773 L 497.57227 521.42773 L 495.57227 519.42773 z M 434.57227 520.42773 L 433.57227 522.42773 L 434.57227 520.42773 z M 431.57227 522.42773 L 430.57227 524.42773 L 431.57227 522.42773 z M 482.57227 524.42773 L 483.57227 525.42773 L 482.57227 524.42773 z M 427.57227 525.42773 L 426.57227 527.42773 L 427.57227 525.42773 z M 484.57227 525.42773 L 482.57227 528.42773 L 484.57227 525.42773 z M 424.57227 527.42773 L 422.57227 530.42773 L 424.57227 527.42773 z M 480.57227 528.42773 L 478.57227 531.42773 L 480.57227 528.42773 z M 475.57227 529.42773 L 476.57227 530.42773 L 475.57227 529.42773 z M 420.57227 530.42773 L 419.57227 532.42773 L 420.57227 530.42773 z M 476.57227 531.42773 L 474.57227 534.42773 L 476.57227 531.42773 z M 471.57227 532.42773 L 472.57227 533.42773 L 471.57227 532.42773 z M 416.57227 533.42773 L 415.57227 535.42773 L 416.57227 533.42773 z M 472.57227 534.42773 L 470.57227 537.42773 L 472.57227 534.42773 z M 413.57227 535.42773 L 412.57227 537.42773 L 413.57227 535.42773 z M 409.57227 538.42773 L 408.57227 540.42773 L 409.57227 538.42773 z M 406.57227 540.42773 L 404.57227 543.42773 L 406.57227 540.42773 z M 402.57227 543.42773 L 401.57227 545.42773 L 402.57227 543.42773 z M 398.57227 546.42773 L 397.57227 548.42773 L 398.57227 546.42773 z M 395.57227 548.42773 L 394.57227 550.42773 L 395.57227 548.42773 z M 391.57227 551.42773 L 390.57227 553.42773 L 391.57227 551.42773 z M 388.57227 553.42773 L 386.57227 556.42773 L 388.57227 553.42773 z M 384.57227 556.42773 L 383.57227 558.42773 L 384.57227 556.42773 z M 435.57227 556.42773 L 430.57227 659.42773 C 424.86125 653.83471 428.2192 643.59674 428.5332 636.42773 C 429.36122 617.50674 430.57227 598.34975 430.57227 579.42773 C 430.57227 572.54276 429.02828 560.44174 435.57227 556.42773 z M 437.57227 557.42773 C 450.36827 590.65473 428.08827 630.82773 438.57227 664.42773 L 432.57227 663.42773 L 435.55664 594.42773 L 437.57227 557.42773 z M 430.57227 560.42773 C 426.05925 579.38275 427.57227 603.89173 427.57227 623.42773 C 427.57227 631.28673 428.85574 644.05787 425.96875 651.33984 C 423.94576 656.44085 416.70926 660.31891 412.57227 663.62891 C 401.53026 672.46291 390.1673 683.99774 377.57227 690.42773 L 377.57227 627.42773 L 378.17383 599.60156 L 392.57227 587.42773 L 430.57227 560.42773 z M 464.57227 564.42773 L 467.57227 566.42773 L 467.57227 565.42773 L 464.57227 564.42773 z M 449.57227 577.42773 L 450.57227 578.42773 L 449.57227 577.42773 z M 452.57227 585.42773 L 453.57227 586.42773 L 452.57227 585.42773 z M 453.57227 587.42773 L 454.57227 588.42773 L 453.57227 587.42773 z M 454.57227 590.42773 L 455.57227 591.42773 L 454.57227 590.42773 z M 457.57227 597.42773 L 458.57227 598.42773 L 457.57227 597.42773 z M 458.57227 600.42773 L 459.57227 601.42773 L 458.57227 600.42773 z M 370.57227 602.42773 L 371.57227 708.42773 L 373.57227 708.42773 L 372.57227 602.42773 L 370.57227 602.42773 z M 461.9043 608.0957 L 462.23828 608.76172 L 461.9043 608.0957 z M 462.57227 610.42773 L 463.57227 611.42773 L 462.57227 610.42773 z M 463.57227 612.42773 L 464.57227 613.42773 L 463.57227 612.42773 z M 480.57227 613.42773 L 477.57227 653.42773 L 476.57227 653.42773 L 469.57227 633.42773 L 472.57227 634.42773 L 470.57227 628.42773 L 470.57227 632.42773 L 469.57227 632.42773 L 468.57227 632.42773 C 468.65919 629.99474 466.49225 628.99271 466.57227 626.42773 C 466.72042 621.67974 477.04427 615.4697 480.57227 613.42773 z M 465.9043 618.0957 L 466.23828 618.76172 L 465.9043 618.0957 z M 477.57227 623.42773 L 478.57227 624.42773 L 477.57227 623.42773 z M 474.57227 625.42773 L 472.57227 628.42773 L 474.57227 625.42773 z M 464.57227 626.42773 C 471.37727 639.20571 476.57227 652.96972 476.57227 667.42773 L 469.57227 665.42773 C 456.60225 668.51572 433.22185 664.4868 441.17383 645.7168 C 444.23683 638.48879 457.92026 630.25473 464.57227 626.42773 z M 464.57227 633.42773 L 462.57227 636.42773 L 464.57227 633.42773 z M 833.57227 633.42773 L 832.57227 636.42773 L 831.57227 636.42773 L 833.57227 633.42773 z M 459.57227 637.42773 L 457.57227 640.42773 L 459.57227 637.42773 z M 828.57227 637.42773 L 830.57227 637.42773 L 831.57227 637.42773 L 829.57227 643.42773 L 827.57227 641.42773 L 826.57227 646.42773 L 822.57227 644.42773 L 828.57227 637.42773 z M 828.9043 640.0957 L 829.23828 640.76172 L 828.9043 640.0957 z M 474.57227 640.42773 L 475.57227 641.42773 L 474.57227 640.42773 z M 454.57227 641.42773 L 452.57227 644.42773 L 454.57227 641.42773 z M 475.9043 643.0957 L 476.23828 643.76172 L 475.9043 643.0957 z M 449.57227 645.42773 L 447.57227 648.42773 L 449.57227 645.42773 z M 444.57227 649.42773 L 442.57227 652.42773 L 444.57227 649.42773 z M 426.57227 654.42773 L 429.82031 663.22852 L 416.57227 675.22852 L 377.57227 705.42773 L 378.59961 692.59961 L 393.57227 679.7793 L 426.57227 654.42773 z M 478.57227 659.42773 L 481.57227 668.42773 C 477.44525 666.76875 476.91426 663.38475 478.57227 659.42773 z M 449.23828 663.76172 L 449.9043 664.0957 L 449.23828 663.76172 z M 457.57227 664.42773 L 457.57227 665.42773 L 460.57227 665.42773 L 457.57227 664.42773 z M 463.23828 664.76172 L 463.9043 665.0957 L 463.23828 664.76172 z M 473.23828 665.76172 L 473.9043 666.0957 L 473.23828 665.76172 z M 446.57227 666.42773 L 475.57227 668.42773 L 473.57227 697.42773 C 463.35824 691.97172 453.08624 675.95373 446.57227 666.42773 z M 794.57227 677.42773 L 798.57227 678.42773 L 798.57227 677.42773 L 794.57227 677.42773 z M 773.57227 699.42773 L 776.57227 702.42773 L 776.57227 701.42773 L 776.57227 700.42773 L 773.57227 699.42773 z M 339.57227 755.42773 L 341.57227 758.42773 L 339.57227 755.42773 z M 707.18945 760.98828 C 707.60873 761.01583 708.07114 761.15373 708.57227 761.42773 L 709.37305 761.42773 L 708.21484 763.35547 L 707.57227 761.42773 L 707.57227 764.42773 L 706.57227 764.42773 L 705.57227 768.42773 C 703.39438 766.046 704.25449 760.79542 707.18945 760.98828 z M 369.57227 767.42773 L 369.57227 769.42773 L 372.57227 769.42773 L 372.57227 767.42773 L 369.57227 767.42773 z M 358.31836 773.33008 C 358.46008 778.74185 358.52841 784.13229 358.57227 789.42773 L 359.57227 789.42773 C 359.57227 784.70543 358.94919 779.12804 358.31836 773.33008 z "
       transform="scale(0.26458333)" />
    <path
       style="fill:#00ff00;stroke:#000000;stroke-width:0.264583px;stroke-linecap:butt;stroke-linejoin:miter;stroke-opacity:1;fill-opacity:0.20080322"
       d="M 15.23244,75.255058 86.934526,41.652975 172.65953,92.717566 66.297023,85.044641 c 0,0 -14.816666,7.672917 -14.816666,7.672917 l -11.90625,-8.73125 -16.139583,-2.38125 z"
       id="path1012" />
    <path
       style="fill:#ff0000;stroke:#000000;stroke-width:0.264583px;stroke-linecap:butt;stroke-linejoin:miter;stroke-opacity:1;fill-opacity:0.24096386"
       d="m 77.14494,124.46755 c 0,0 33.60209,6.22723 37.57084,3.73803 3.96875,-2.4892 26.72291,-19.8776 26.72291,-19.8776 L 114.98036,92.982141 73.17619,89.542558 c 0,0 -5.820833,3.439583 -5.820833,3.439583 0,0 2.381247,25.664579 2.645833,25.664579 0.264583,0 7.14375,5.82083 7.14375,5.82083 z"
       id="path1014" />
  </g>
</svg>
