<?xml version="1.0" encoding="UTF-8" standalone="no"?>
<svg
   xmlns:dc="http://purl.org/dc/elements/1.1/"
   xmlns:cc="http://creativecommons.org/ns#"
   xmlns:rdf="http://www.w3.org/1999/02/22-rdf-syntax-ns#"
   xmlns:svg="http://www.w3.org/2000/svg"
   xmlns="http://www.w3.org/2000/svg"
   xmlns:sodipodi="http://sodipodi.sourceforge.net/DTD/sodipodi-0.dtd"
   xmlns:inkscape="http://www.inkscape.org/namespaces/inkscape"
   width="700"
   height="500"
   viewBox="0 0 185.20833 132.29167"
   version="1.1"
   id="svg8"
   inkscape:version="1.0.1 (3bc2e813f5, 2020-09-07)"
   sodipodi:docname="QHouseStrenght4pl.svg">
  <defs
     id="defs2" />
  <sodipodi:namedview
     id="base"
     pagecolor="#ffffff"
     bordercolor="#666666"
     borderopacity="1.0"
     inkscape:pageopacity="0.0"
     inkscape:pageshadow="2"
     inkscape:zoom="0.49497475"
     inkscape:cx="469.67605"
     inkscape:cy="351.53095"
     inkscape:document-units="mm"
     inkscape:current-layer="layer1"
     inkscape:document-rotation="0"
     showgrid="false"
     units="px"
     inkscape:snap-global="true"
     inkscape:window-width="1920"
     inkscape:window-height="1137"
     inkscape:window-x="-8"
     inkscape:window-y="-8"
     inkscape:window-maximized="1" />
  <metadata
     id="metadata5">
    <rdf:RDF>
      <cc:Work
         rdf:about="">
        <dc:format>image/svg+xml</dc:format>
        <dc:type
           rdf:resource="http://purl.org/dc/dcmitype/StillImage" />
        <dc:title></dc:title>
      </cc:Work>
    </rdf:RDF>
  </metadata>
  <g
     inkscape:label="Layer 1"
     inkscape:groupmode="layer"
     id="layer1">
    <rect
       style="fill:#ff6600;stroke:none;stroke-width:2.10748;stroke-miterlimit:4;stroke-dasharray:none;stroke-opacity:1"
       id="rect1065-9-6-5-0"
       width="184.31049"
       height="48.33202"
       x="1.6772678"
       y="1.0577879" />
    <path
       style="fill:#ffffff;stroke-width:0.208641"
       d="m 134.78132,49.636382 -0.99105,-0.0636 v -9.899018 -9.89901 h 4.40408 4.40408 l -0.1424,-0.57375 c -0.0783,-0.31557 -0.33671,-0.78195 -0.5742,-1.0364 -0.26808,-0.28723 -0.46848,-0.84455 -0.52858,-1.46997 -0.083,-0.86358 -0.0181,-1.10078 0.45409,-1.66201 0.80077,-0.95168 1.72714,-1.2047 2.8158,-0.76909 1.53935,0.61592 2.03238,2.52407 0.97644,3.77896 -0.27528,0.32716 -0.53347,0.82728 -0.57375,1.11139 l -0.0733,0.51654 4.22498,0.0565 4.22497,0.0565 v 4.16851 c 0,4.09913 -0.007,4.16848 -0.43932,4.16848 -0.24163,0 -0.71827,-0.23471 -1.05922,-0.5216 -1.30189,-1.09548 -3.54146,-0.41807 -4.08665,1.23613 -0.3501,1.06223 -0.15283,1.98417 0.59603,2.78543 1.02357,1.095218 2.59033,1.148428 3.80173,0.12909 0.33772,-0.28416 0.71959,-0.48149 0.84858,-0.43852 0.16313,0.0544 0.23453,1.340828 0.23453,4.225498 v 4.14732 l -8.76292,0.008 c -4.8196,0.005 -9.20889,-0.0206 -9.75396,-0.0555 z m 19.02141,-0.0408 c -0.009,-0.0574 -0.0329,-1.98207 -0.0521,-4.27714 l -0.0351,-4.172798 -0.53263,-0.0621 c -0.34192,-0.0398 -0.73435,0.12491 -1.09605,0.46011 -1.86831,1.731488 -4.7602,-0.0294 -4.08203,-2.48555 0.44658,-1.61739 2.62182,-2.32563 3.88311,-1.26433 0.33208,0.27942 0.84979,0.5698 1.15045,0.64526 0.50111,0.12578 0.55881,0.0725 0.69239,-0.63955 0.0801,-0.4272 0.0863,-1.47979 0.0136,-2.3391 -0.0726,-0.85929 -0.0713,-2.4901 0.003,-3.62403 l 0.13512,-2.06171 h 4.24577 4.24578 v 0.50559 c 0,0.27808 -0.25819,0.81246 -0.57376,1.18748 -0.45114,0.53615 -0.57377,0.89543 -0.57377,1.68114 0,0.83878 0.10364,1.10286 0.64541,1.64462 0.82361,0.82362 2.06029,1.0355 2.9559,0.50644 1.35018,-0.79756 1.71169,-2.50238 0.76838,-3.62344 -0.29336,-0.34865 -0.55156,-0.8957 -0.57377,-1.21571 l -0.0404,-0.58179 4.3293,-0.0564 4.3293,-0.0564 v 9.91468 9.914678 l -1.09536,0.0339 c -2.81572,0.0871 -18.7275,0.0584 -18.74262,-0.0339 z M 133.79027,19.760004 V 9.9538841 h 9.91045 9.91044 v 4.2771299 4.27714 h 0.53268 c 0.29296,0 0.87809,-0.23471 1.30028,-0.5216 2.65729,-1.80567 5.44221,1.41553 3.1798,3.67795 -0.79898,0.79896 -2.18664,0.84355 -3.07185,0.0987 -0.32714,-0.27527 -0.87421,-0.53348 -1.2157,-0.57375 l -0.62088,-0.0733 -0.0565,4.22499 -0.0565,4.22498 h -4.05188 c -2.5698,0 -4.10071,-0.0791 -4.18544,-0.21614 -0.0735,-0.11888 0.15572,-0.66696 0.5093,-1.21796 0.98458,-1.53434 0.7674,-2.77101 -0.68062,-3.87548 -0.8843,-0.67448 -1.92101,-0.6944 -2.87064,-0.0551 -1.38387,0.93157 -1.68189,2.47142 -0.75067,3.87858 1.00507,1.51876 1.08432,1.48614 -3.60949,1.48614 h -4.17283 z m 34.42577,9.03338 c -0.59293,-0.21577 -1.4405,-1.16499 -1.57109,-1.75956 -0.20113,-0.91572 0.25738,-1.97374 1.16788,-2.69486 1.06213,-0.84124 1.07435,-1.36668 0.0381,-1.63851 -4.72686,-1.23986 -7.22398,-1.92085 -7.36629,-2.0088 -0.0945,-0.0584 -0.0245,-0.59703 0.15552,-1.197 0.18,-0.59994 0.6734,-2.40517 1.09643,-4.01156 0.54888,-2.08428 0.86384,-2.93899 1.09978,-2.98442 0.18183,-0.035 0.75214,0.36391 1.26734,0.88649 0.87276,0.88529 1.01063,0.95017 2.01897,0.95017 0.91359,0 1.17564,-0.0934 1.68144,-0.5992 0.32956,-0.32954 0.66327,-0.85445 0.74156,-1.16642 0.227,-0.90442 -0.25779,-2.1591 -1.01908,-2.6374399 -0.67486,-0.42402 -1.04506,-0.43069 -3.32689,-0.0598 -0.72096,0.11716 -0.78152,0.0885 -0.77112,-0.36512 0.0185,-0.80309 1.99206,-7.76701 2.22306,-7.84403 0.11681,-0.0389 1.42228,0.25369 2.90104,0.65024 1.47876,0.39659 5.5053,1.47275 8.94788,2.39147 3.44258,0.91871 6.45724,1.74791 6.69926,1.84269 0.43812,0.17155 0.43846,0.17864 0.0786,1.63279 -0.40518,1.63727 -1.84045,6.9997399 -2.59671,9.7017999 -0.27299,0.97541 -0.84285,3.0879 -1.26635,4.69442 -0.4235,1.60655 -0.83165,2.98828 -0.90701,3.07054 -0.0754,0.0822 -1.73154,-0.28424 -3.68042,-0.81444 -4.15713,-1.13091 -4.7674,-1.19983 -4.86006,-0.54893 -0.0356,0.25043 0.0817,0.73869 0.2608,1.08501 0.84329,1.63073 -0.29229,3.57335 -2.07375,3.5475 -0.34425,-0.005 -0.76675,-0.0603 -0.93889,-0.12295 z"
       id="path1014-5" />
    <text
       xml:space="preserve"
       style="font-size:19.7556px;line-height:1.25;font-family:sans-serif;fill:#ffffff;stroke:#ff6200;stroke-width:1.19202;stroke-opacity:1"
       x="4.5741334"
       y="49.418312"
       id="text1120-9-5-2"><tspan
         sodipodi:role="line"
         id="tspan1118-7-0-2"
         x="4.5741334"
         y="49.418312"
         style="font-style:normal;font-variant:normal;font-weight:bold;font-stretch:normal;font-size:19.7556px;font-family:sans-serif;-inkscape-font-specification:'sans-serif Bold';fill:#ffffff;stroke:#ff6200;stroke-width:1.19202;stroke-opacity:1">ADAPTACJA</tspan></text>
    <path
       style="fill:#080808;stroke-width:0.264583"
       d="m 7.3041218,101.26585 c -2.02641,-1.987198 -2.49342,-2.588098 -2.43048,-3.127188 0.13415,-1.14914 1.07747,-0.99954 2.58413,0.40976 l 1.33023,1.24426 v -15.04135 -15.04138 l -1.28905,1.26968 c -1.45208,1.43023 -2.47439,1.60814 -2.63687,0.45887 -0.0704,-0.49813 0.40699,-1.13154 2.24344,-2.97654 1.2831,-1.28907 2.52599,-2.34376 2.76199,-2.34376 0.4787002,0 5.2704902,4.68482 5.2704902,5.15282 0,0.43132 -0.5677,0.9326 -1.05616,0.9326 -0.23164,0 -0.94699,-0.53578 -1.58967,-1.19065 -0.64268,-0.65482 -1.26279,-1.1906 -1.37801,-1.1906 -0.11522,0 -0.20949,6.81226 -0.20949,15.13835 v 15.138348 l 1.39738,-1.380018 c 0.76856,-0.75901 1.57818,-1.38004 1.79917,-1.38004 0.50569,0 1.03678,0.51803 1.03678,1.01129 0,0.40669 -4.05667,4.689868 -4.84556,5.116118 -0.4000202,0.21614 -0.8976202,-0.15029 -2.9883202,-2.20057 z m 10.1269402,2.24679 c -0.097,-0.097 -0.17639,-8.551248 -0.17639,-18.787188 v -18.61082 l 18.71927,0.0679 18.71926,0.0679 0.068,18.35923 c 0.0494,13.34206 -0.01371,18.457618 -0.23083,18.719268 -0.24674,0.29731 -3.489039,0.36005 -18.61085,0.36005 -10.07163,0 -18.39143,-0.0794 -18.48844,-0.1764 z m 7.74902,-2.32259 c 0.17451,-0.21027 0.27839,-0.65675 0.23084,-0.99219 -0.08,-0.564168 -0.23022,-0.615708 -2.00469,-0.687618 l -1.91823,-0.0777 v -3.16341 -3.16341 h 2.72521 c 1.76683,0 2.83685,-0.11168 3.042709,-0.3175 0.174622,-0.17465 0.3175,-1.00388 0.3175,-1.8428 0,-1.23719 -0.0967,-1.57699 -0.511789,-1.79914 -0.66186,-0.35422 -0.69722,-0.35001 -1.18911,0.14187 -0.22867,0.22868 -0.41577,0.70493 -0.41577,1.05834 0,0.62322 -0.0597,0.64256 -1.98437,0.64256 h -1.98438 v -4.10104 -4.10104 h 1.98438 c 1.92471,0 1.98437,0.0193 1.98437,0.64254 0,0.35343 0.1871,0.82968 0.41577,1.05834 0.49189,0.49188 0.52725,0.49612 1.18911,0.14189 0.415131,-0.22217 0.511789,-0.56197 0.511789,-1.79917 0,-0.83891 -0.142878,-1.66814 -0.3175,-1.84277 -0.205859,-0.20584 -1.275879,-0.3175 -3.042709,-0.3175 h -2.72521 v -5.15937 -5.15938 h 7.143749 7.14375 v 5.15938 5.15937 h -1.666869 c -1.719199,0 -2.301881,0.27893 -2.301881,1.10194 0,0.87215 0.9017,1.02997 5.456201,0.95501 3.86266,-0.0636 4.444799,-0.12993 4.700399,-0.53559 0.56759,-0.90085 -0.102319,-1.38073 -2.048279,-1.4673 l -1.758321,-0.0782 v -5.14729 -5.14728 h 6.223421 6.223431 l -0.0719,5.09323 -0.0718,5.09323 -1.70965,0.0802 c -1.82544,0.0857 -2.3914,0.35391 -2.3914,1.13348 0,0.71432 0.81602,1.03526 2.63221,1.03526 h 1.608669 l -0.0699,8.26823 -0.0699,8.26823 -8.268229,0.0699 -8.268232,0.0699 v -4.87969 c 0,-4.08326 -0.0679,-4.94749 -0.41579,-5.29542 -0.502158,-0.50218 -0.674248,-0.51388 -1.250069,-0.085 -0.383101,0.2853 -0.453631,1.00306 -0.513591,5.22552 l -0.0695,4.89479 -0.661461,0.0915 c -1.318051,0.18233 -1.81851,1.344458 -0.811141,1.883568 0.32815,0.17563 4.284102,0.2739 11.025521,0.2739 9.411851,0 10.564461,-0.0459 10.997599,-0.43789 0.45856,-0.415 0.483852,-1.271848 0.483852,-16.389158 v -15.95128 l -0.588031,-0.41188 c -0.516171,-0.36152 -2.505001,-0.41188 -16.271881,-0.41188 -15.331059,0 -15.695739,0.0119 -16.212999,0.52917 -0.51727,0.51726 -0.52917,0.88194 -0.52917,16.21301 0,13.76688 0.0503,15.755698 0.41188,16.271868 0.37553,0.53615 0.62951,0.58804 2.87802,0.58804 1.82759,0 2.54829,-0.099 2.78343,-0.38232 z m -5.49779,-39.609238 c -1.33519,-1.33138 -2.42762,-2.61913 -2.42762,-2.86165 0,-0.24255 1.12348,-1.54276 2.49662,-2.88933 2.22104,-2.1781 2.55691,-2.4161 3.04271,-2.15612 0.87621,0.46895 0.65134,1.33924 -0.70074,2.71196 l -1.24683,1.26584 h 15.041369 15.041362 l -1.226831,-1.31156 c -1.331791,-1.42381 -1.532911,-2.21015 -0.681789,-2.66568 0.48373,-0.25887 0.813729,-0.0293 2.933639,2.04123 1.313731,1.2831 2.505231,2.54839 2.64777,2.81178 0.215429,0.39809 -0.130789,0.87741 -2.051751,2.84046 -2.42516,2.47833 -3.058559,2.88314 -3.690519,2.35866 -0.65541,-0.54393 -0.434171,-1.11284 0.995849,-2.56082 l 1.380022,-1.39738 H 36.097182 c -8.326091,0 -15.13835,0.0943 -15.13835,0.20948 0,0.11522 0.53579,0.73533 1.19063,1.37802 0.65484,0.64268 1.19062,1.35803 1.19062,1.58967 0,0.48845 -0.50127,1.05614 -0.93258,1.05614 -0.16368,0 -1.39002,-1.08929 -2.72521,-2.4207 z"
       id="path1639" />
    <path
       style="fill:#000000;stroke-width:0.264583"
       d="m 73.147511,108.3788 c -0.459957,-0.45997 -0.459957,-44.148788 0,-44.608748 0.45996,-0.45997 44.148779,-0.45997 44.608749,0 0.45996,0.45996 0.45996,44.148778 0,44.608748 -0.45997,0.45996 -44.148789,0.45996 -44.608749,0 z M 110.1957,91.882192 c 1.75296,-0.42756 4.57939,-1.78673 4.76017,-2.28904 0.068,-0.18905 0.11278,-0.81997 0.0994,-1.40208 l -0.0243,-1.05831 -4.16719,-0.0729 -4.16719,-0.0729 v 1.72651 1.72651 l 2.18282,0.0262 2.18281,0.0262 -1.19063,0.38502 c -2.10481,0.68067 -4.80199,0.75293 -7.35326,0.19701 l -2.30402,-0.50207 2.24895,-0.13229 2.24896,-0.13229 0.0785,-1.6441 0.0785,-1.64409 -6.03166,-0.0848 c -5.66141,-0.0796 -6.14026,-0.12518 -7.80103,-0.74266 -0.97315,-0.36182 -1.8562,-0.74467 -1.96232,-0.85079 -0.10612,-0.10613 2.27336,-0.19297 5.28773,-0.19297 h 5.48068 l -0.0788,-1.65361 -0.0788,-1.65368 h -6.74687 -6.746877 l -0.0798,1.5371 -0.0798,1.53712 -0.84623,-0.0819 c -0.833609,-0.0807 -0.8474,-0.10457 -0.925568,-1.60324 l -0.0794,-1.52136 h -4.087809 c -2.24831,0 -4.09479,0.0893 -4.10328,0.19844 -0.008,0.10914 -0.0349,0.85328 -0.0587,1.65364 l -0.0433,1.45521 1.381641,0.08 c 0.759899,0.044 1.381638,0.17865 1.381638,0.2993 0,0.12065 -0.519149,0.35007 -1.153668,0.50985 -1.27604,0.32131 -2.00162,0.95621 -1.577491,1.38033 0.173829,0.17383 0.682289,0.0828 1.503429,-0.26918 1.935231,-0.82953 4.44994,-1.15856 7.688522,-1.00595 3.814033,0.17971 5.073073,0.61661 11.266293,3.90967 1.38245,0.73506 3.14579,1.52048 3.91852,1.74538 3.08234,0.89701 6.7783,0.97795 9.89925,0.21672 z m 4.80704,-7.15232 c 0.0883,-0.23019 0.1606,-0.81576 0.1606,-1.3013 0,-1.81136 0.3749,-1.71977 -7.03977,-1.71977 h -6.71856 v 1.71977 1.71979 h 6.71856 c 5.88238,0 6.73856,-0.0521 6.87917,-0.41849 z m -25.50398,-6.33283 v -1.72426 l -6.780069,0.0706 -6.780059,0.0706 0.01659,1.52135 c 0.009,0.83678 0.0241,1.58089 0.0332,1.65365 0.009,0.0728 3.05263,0.13229 6.763411,0.13229 h 6.746877 z m 15.34584,0 v -1.72426 l -6.81303,0.0706 -6.81302,0.0706 -0.0788,1.65365 -0.0788,1.65364 h 6.89179 6.8918 z m 10.18645,0.004 v -1.5875 l -4.16719,-0.0729 -4.16719,-0.0729 v 1.73323 1.73323 l 4.16719,-0.0729 4.16719,-0.0729 v -1.5875 z m -30.823958,-5.16611 v -1.59422 l -4.120259,0.0729 -4.120261,0.0729 -0.0708,1.52132 -0.0707,1.52136 h 4.191 4.191011 z m 15.610418,0.007 v -1.5875 h -6.87917 -6.879168 v 1.5875 1.5875 h 6.879168 6.87917 z m 15.29289,0.0661 -0.0794,-1.52136 -6.81302,-0.0706 -6.81302,-0.0706 v 1.59198 1.59197 h 6.89237 6.89237 z m -25.66516,-5.15938 -0.0788,-1.65364 h -6.746866 -6.74688 l 0.0525,1.5875 c 0.0289,0.87312 0.0586,1.61726 0.0661,1.65364 0.008,0.0364 3.05543,0.0661 6.773151,0.0661 h 6.759505 z m 15.34584,0 -0.0788,-1.65364 -5.15101,-0.0908 c -2.83305,-0.0499 -5.89891,-0.0106 -6.81302,0.0872 l -1.66201,0.17798 v 1.56644 1.56644 h 6.89179 6.8918 z m 10.23997,-0.0661 v -1.5875 l -4.16719,-0.0332 -4.16719,-0.0332 v 1.69354 1.69357 l 4.16719,-0.0729 4.16719,-0.0729 z"
       id="path1655" />
    <path
       style="fill:#020202;stroke-width:0.1182"
       d="m 168.94945,106.5486 c -0.22581,-0.19089 -0.25086,-0.38073 -0.32514,-2.46414 l -0.0805,-2.25729 -3.3684,-0.0827 c -4.59001,-0.11268 -5.68346,-0.32737 -7.76848,-1.52511 -0.84682,-0.486428 -2.75898,-2.240728 -3.29983,-3.027358 l -0.29186,-0.4245 1.47511,-2.95502 c 0.81131,-1.62526 1.5053,-2.94484 1.54219,-2.93238 0.0369,0.0124 0.35685,0.53697 0.71102,1.16565 1.26532,2.24599 2.29291,3.25408 3.78772,3.71578 0.69114,0.21347 1.09768,0.23767 3.99382,0.23767 h 3.22435 l 0.0866,-2.36725 c 0.0774,-2.11473 0.10957,-2.37953 0.30145,-2.48224 0.11814,-0.0632 0.30482,-0.11494 0.41486,-0.11494 0.11003,0 1.8954,1.68551 3.96749,3.74558 3.33415,3.31483 3.76743,3.78788 3.76743,4.11324 0,0.32525 -0.43401,0.7997 -3.76408,4.114768 -2.07025,2.06089 -3.84623,3.74708 -3.94663,3.74708 -0.1004,0 -0.29263,-0.0931 -0.42719,-0.20685 z m -31.55408,-5.02483 c -0.0916,-0.11031 -0.16578,-1.00127 -0.21499,-2.580588 l -0.0752,-2.41207 0.2811,-0.25779 c 0.27213,-0.24955 0.38487,-0.2591 3.53162,-0.29887 3.86755,-0.0489 4.1109,-0.10761 5.38588,-1.3003 1.25707,-1.17591 1.91125,-2.29917 3.79709,-6.51967 2.27344,-5.08797 3.28731,-6.8325 5.0306,-8.656 1.19443,-1.24942 1.85532,-1.7715 2.89616,-2.28791 1.93328,-0.95919 3.42673,-1.18459 7.86016,-1.18626 h 2.68906 l 0.0125,-1.15244 c 0.007,-0.63387 0.0468,-1.69969 0.0887,-2.36848 0.0792,-1.26521 0.15853,-1.43777 0.66286,-1.44168 0.14818,0 1.59084,1.35445 3.98927,3.74856 3.31445,3.30851 3.75714,3.79354 3.75714,4.11644 0,0.32311 -0.42616,0.78888 -3.63467,3.97245 -1.99907,1.98353 -3.75791,3.67208 -3.90855,3.75233 -0.22389,0.11927 -0.32311,0.11363 -0.54368,-0.0309 -0.33056,-0.21659 -0.42354,-0.92114 -0.42354,-3.2095 v -1.56181 l -2.24341,-0.0588 c -1.23388,-0.0324 -2.84671,-0.0214 -3.58407,0.0241 -1.67939,0.10404 -2.38676,0.39552 -3.38698,1.39576 -1.24535,1.24537 -1.9571,2.54161 -4.38157,7.97992 -2.79347,6.26599 -5.1611,8.885308 -9.2167,10.196468 -0.89899,0.29065 -8.14298,0.41006 -8.36881,0.13797 z m 11.2673,-15.045478 c -1.08217,-1.91461 -1.36538,-2.32238 -2.1795,-3.13812 -1.41751,-1.42033 -2.291,-1.6338 -6.71097,-1.64004 -2.20861,-0.003 -2.27353,-0.0101 -2.45266,-0.26591 -0.15098,-0.21556 -0.18401,-0.66879 -0.18401,-2.52537 0,-2.15027 0.0129,-2.27904 0.25929,-2.59231 l 0.25929,-0.32961 3.44122,0.0806 c 2.80092,0.0656 3.6209,0.1235 4.40679,0.3112 1.962,0.46863 3.68148,1.51085 5.2496,3.18196 1.19995,1.27876 1.2584,1.39959 0.95836,1.98152 -0.47281,0.91696 -2.12615,4.25381 -2.41645,4.87698 l -0.30018,0.64434 z"
       id="path1689" />
    <text
       xml:space="preserve"
       style="font-size:4.9389px;line-height:1.25;font-family:sans-serif;stroke-width:0.264583"
       x="9.2703161"
       y="116.38937"
       id="text1858-39"><tspan
         sodipodi:role="line"
         id="tspan1856-43"
         x="9.2703161"
         y="116.38937"
         style="stroke-width:0.264583">Wszystkie ściany </tspan><tspan
         sodipodi:role="line"
         x="9.2703161"
         y="122.563"
         style="stroke-width:0.264583"
         id="tspan1967">wewnętrzne są</tspan><tspan
         sodipodi:role="line"
         x="9.2703161"
         y="128.7366"
         style="stroke-width:0.264583"
         id="tspan1969">ścianami działowymi</tspan></text>
    <text
       xml:space="preserve"
       style="font-size:4.9389px;line-height:1.25;font-family:sans-serif;stroke-width:0.264583"
       x="76.899544"
       y="116.41561"
       id="text1858-3-2"><tspan
         sodipodi:role="line"
         id="tspan1856-4-3"
         x="76.899544"
         y="116.41561"
         style="stroke-width:0.264583">Różne materiały</tspan><tspan
         sodipodi:role="line"
         x="76.899544"
         y="122.58924"
         style="stroke-width:0.264583"
         id="tspan1971">wykończenia</tspan></text>
    <text
       xml:space="preserve"
       style="font-size:4.9389px;line-height:1.25;font-family:sans-serif;stroke-width:0.264583"
       x="128.21527"
       y="115.34652"
       id="text1858-0-0"><tspan
         sodipodi:role="line"
         x="128.21527"
         y="115.34652"
         style="stroke-width:0.264583"
         id="tspan1886-7">Różne rozmiary,</tspan><tspan
         sodipodi:role="line"
         x="128.21527"
         y="121.52015"
         style="stroke-width:0.264583"
         id="tspan1975">możliwość zmiany</tspan><tspan
         sodipodi:role="line"
         x="128.21527"
         y="127.69376"
         style="stroke-width:0.264583"
         id="tspan1977">matriałów w przyszłości</tspan></text>
  </g>
</svg>
