<?xml version="1.0" encoding="UTF-8" standalone="no"?>
<svg
   xmlns:dc="http://purl.org/dc/elements/1.1/"
   xmlns:cc="http://creativecommons.org/ns#"
   xmlns:rdf="http://www.w3.org/1999/02/22-rdf-syntax-ns#"
   xmlns:svg="http://www.w3.org/2000/svg"
   xmlns="http://www.w3.org/2000/svg"
   xmlns:sodipodi="http://sodipodi.sourceforge.net/DTD/sodipodi-0.dtd"
   xmlns:inkscape="http://www.inkscape.org/namespaces/inkscape"
   width="600"
   height="600"
   viewBox="0 0 158.75 158.75001"
   version="1.1"
   id="svg112240"
   inkscape:version="1.0.1 (3bc2e813f5, 2020-09-07)"
   sodipodi:docname="QHouseArchitect.svg">
  <defs
     id="defs112234">
    <inkscape:perspective
       sodipodi:type="inkscape:persp3d"
       inkscape:vp_x="160.23072 : -33.665872 : 1"
       inkscape:vp_y="0 : 1168.3738 : 0"
       inkscape:vp_z="233.45025 : -33.665872 : 1"
       inkscape:persp3d-origin="196.84048 : -110.94894 : 1"
       id="perspective963" />
  </defs>
  <sodipodi:namedview
     id="base"
     pagecolor="#ffffff"
     bordercolor="#666666"
     borderopacity="1.0"
     inkscape:pageopacity="0.0"
     inkscape:pageshadow="2"
     inkscape:zoom="0.90509668"
     inkscape:cx="394.16012"
     inkscape:cy="306.38314"
     inkscape:document-units="mm"
     inkscape:current-layer="layer1"
     inkscape:document-rotation="0"
     showgrid="false"
     units="px"
     height="5000px"
     inkscape:window-width="1920"
     inkscape:window-height="1137"
     inkscape:window-x="-8"
     inkscape:window-y="-8"
     inkscape:window-maximized="1"
     inkscape:snap-global="false" />
  <metadata
     id="metadata112237">
    <rdf:RDF>
      <cc:Work
         rdf:about="">
        <dc:format>image/svg+xml</dc:format>
        <dc:type
           rdf:resource="http://purl.org/dc/dcmitype/StillImage" />
        <dc:title></dc:title>
      </cc:Work>
    </rdf:RDF>
  </metadata>
  <g
     inkscape:label="Layer 1"
     inkscape:groupmode="layer"
     id="layer1">
    <path
       style="fill:#ff6600;stroke-width:0.481596"
       d="m 70.391955,158.79719 c -2.093038,-0.65899 -4.055093,-2.28553 -4.896903,-4.05954 -0.70462,-1.48487 -0.781778,-6.26247 -0.781778,-48.40993 0,-25.719352 -0.18315,-46.762452 -0.406999,-46.762452 -1.061471,0 -3.099102,9.602919 -4.036454,19.023053 -0.142704,1.434487 -0.17565,1.413809 -4.623525,-2.902465 l -4.479765,-4.347273 1.008449,-4.948559 c 1.863873,-9.146175 3.859056,-13.592503 7.941853,-17.69854 3.1052,-3.122891 6.050531,-4.537306 9.448311,-4.537306 h 1.790719 l 0.602125,4.213968 c 1.03679,7.256028 1.161073,7.811119 1.667819,7.449425 0.848435,-0.605583 5.535357,-6.239519 5.535357,-6.653796 0,-0.218886 -0.90754,-1.322686 -2.016734,-2.452889 -1.109216,-1.130205 -1.896728,-2.174949 -1.750019,-2.321654 0.146708,-0.146709 2.842163,-0.205428 5.989913,-0.13049 l 5.72319,0.136242 -2.04679,2.22104 c -1.12572,1.221573 -2.04678,2.374949 -2.04678,2.563059 0,0.477909 5.41702,7.015016 5.81305,7.015016 0.17783,0 0.62225,-2.654808 0.98753,-5.899559 l 0.66416,-5.899556 2.30545,-0.14751 c 2.59733,-0.166184 6.26607,1.263768 8.849956,3.449431 4.94535,4.18319 8.59127,14.100901 9.77582,26.592397 0.59799,6.306161 0.62415,21.256193 0.0424,24.271256 -0.80799,4.187982 -4.74397,5.711712 -7.76999,3.007962 l -1.50018,-1.3404 -0.12304,-13.227877 c -0.0883,-9.488374 -0.33656,-14.38513 -0.87822,-17.321452 -0.89046,-4.827006 -2.408686,-9.922802 -2.905626,-9.752321 -0.19301,0.06625 -0.34678,20.762825 -0.34169,45.99245 0.005,29.84784 -0.16291,46.4891 -0.48377,47.63844 -0.57948,2.07614 -3.03491,4.39452 -5.52453,5.21616 -3.44161,1.13585 -7.76548,-1.62333 -8.8902,-5.67309 -0.31559,-1.13634 -0.49839,-11.95761 -0.5001,-29.60322 l -0.002,-27.812215 h -1.44479 -1.44479 v 28.674185 c 0,27.57286 -0.0364,28.74556 -0.94822,30.53284 -1.549959,3.03816 -5.3618,4.8311 -8.30258,3.90518 z M 53.045002,102.06851 c -1.038919,-0.64424 -2.298011,-2.729887 -2.298011,-3.806612 0,-0.482846 1.211857,0.0055 3.947355,1.588804 3.762185,2.178298 3.632314,2.057088 2.781039,2.595448 -1.085189,0.68629 -2.974327,0.52528 -4.430383,-0.37764 z M 48.579798,94.676255 C 41.692973,90.69175 33.486025,85.984094 30.342128,84.21478 c -3.787377,-2.131462 -5.859282,-3.593415 -6.14034,-4.332656 -0.58931,-1.549997 -0.495133,-3.44232 0.256121,-5.14658 0.62788,-1.424348 0.633669,-1.413864 0.408691,0.741334 -0.262401,2.513596 0.197602,3.101523 2.808233,3.589302 1.539276,0.287593 1.871227,0.155446 3.010112,-1.198024 0.704038,-0.836694 1.411844,-2.046349 1.572932,-2.688136 0.322668,-1.285648 -0.163818,-3.864699 -0.639347,-3.389188 -0.164547,0.164547 -0.792864,-0.02403 -1.396117,-0.419339 -1.103118,-0.722804 -2.525155,-0.526732 -3.186673,0.439343 -0.23963,0.349953 -0.356214,0.326418 -0.361201,-0.07299 -0.0091,-0.75413 2.497305,-2.060584 3.941876,-2.054413 0.609132,0.0018 3.599768,1.726375 6.645866,3.830625 3.046098,2.104232 7.216319,4.973624 9.267164,6.376403 2.050845,1.402797 5.130398,3.525777 6.843431,4.717721 1.713051,1.191962 4.315273,2.992875 5.782724,4.002052 l 2.668095,1.834878 v 5.75036 c 0,3.162646 -0.162544,5.744658 -0.361183,5.737798 -0.198676,-0.007 -5.995889,-3.272528 -12.882714,-7.257015 z M 55.451024,84.247071 C 52.080547,81.929383 45.41111,77.347195 40.630045,74.064416 c -8.058492,-5.533137 -8.6138,-6.008084 -7.609938,-6.508568 1.43547,-0.715651 3.355442,-3.616842 3.178809,-4.803325 -0.231348,-1.55402 -1.344605,-1.523714 -1.344605,0.03659 0,0.75777 -0.353612,1.882603 -0.785801,2.499653 -0.743846,1.061982 -5.060011,3.41196 -6.285302,3.422098 -0.842282,0.0073 -1.160473,-1.481503 -0.668216,-3.125677 0.311055,-1.03892 0.444203,-1.167444 0.473964,-0.457527 0.108484,2.587405 2.800115,2.851881 5.146325,0.50569 1.260966,-1.260967 1.637422,-2.039524 1.637422,-3.386295 0,-2.052265 -0.905644,-2.614891 -2.960585,-1.839246 -1.787898,0.67486 -1.761596,0.345894 0.04714,-0.589419 2.820902,-1.458732 4.090751,-1.031693 8.115774,2.729327 3.920835,3.663657 19.292408,18.192311 21.151731,19.991858 0.856335,0.828795 1.096984,1.59472 1.096984,3.491576 0,1.336414 -0.05497,2.429866 -0.122318,2.429866 -0.06717,0 -2.879949,-1.896291 -6.250426,-4.213978 z M 28.957005,77.074182 c 0.799744,-1.021372 1.678176,-2.507189 1.952081,-3.301837 0.473927,-1.374911 0.499756,-1.38656 0.53423,-0.240795 0.04532,1.508169 -1.497611,4.092316 -2.887703,4.836271 -0.899127,0.48119 -0.840571,0.292489 0.401392,-1.293639 z M 74.968664,38.131664 C 70.61371,35.932055 67.81922,31.779393 67.516465,27.057507 l -0.154354,-2.407982 13.605103,-0.127906 13.6051,-0.127906 -0.0127,2.535883 c -0.0204,3.820929 -2.29307,7.74474 -5.93027,10.238689 -2.67714,1.835654 -3.01546,1.936397 -6.98315,2.079344 -3.71524,0.133858 -4.442939,0.0122 -6.676624,-1.115978 z M 65.470079,22.207143 c -1.024194,-1.024182 -0.956355,-1.484048 0.391836,-2.656277 0.685799,-0.596307 1.273508,-1.779687 1.45855,-2.936948 0.399535,-2.498519 1.354361,-4.311256 3.552406,-6.7442186 1.726721,-1.9112862 1.777451,-1.9315124 2.041253,-0.8140256 0.194089,0.8222166 0.604527,1.1459602 1.452798,1.1459602 1.018551,0 1.202975,-0.2500999 1.331754,-1.8059853 0.144889,-1.750866 0.206485,-1.8059873 2.017698,-1.8059873 1.81123,0 1.87281,0.055116 2.01772,1.8059873 0.1296,1.5654615 0.30982,1.8059853 1.35347,1.8059853 1.04363,0 1.22389,-0.2405238 1.35345,-1.8059853 0.14143,-1.7079146 0.23943,-1.8059873 1.80599,-1.8059873 1.50384,0 1.65652,0.1277239 1.65652,1.3858199 0,2.5401787 2.44772,3.2637047 3.29477,0.973907 0.36057,-0.9746897 0.4801,-0.9182488 2.12478,1.003187 2.12859,2.4867827 3.27608,4.8231837 3.61694,7.3643657 0.17401,1.297528 0.53654,1.994942 1.11569,2.146393 1.76293,0.461013 1.62748,2.71769 -0.19238,3.205773 -0.57766,0.154918 -7.48216,0.284637 -15.34336,0.288254 -12.357471,0.0056 -14.395575,-0.09591 -15.049885,-0.750218 z"
       id="path2421" />
  </g>
</svg>
