<?xml version="1.0" encoding="UTF-8" standalone="no"?>
<svg
   xmlns:dc="http://purl.org/dc/elements/1.1/"
   xmlns:cc="http://creativecommons.org/ns#"
   xmlns:rdf="http://www.w3.org/1999/02/22-rdf-syntax-ns#"
   xmlns:svg="http://www.w3.org/2000/svg"
   xmlns="http://www.w3.org/2000/svg"
   xmlns:sodipodi="http://sodipodi.sourceforge.net/DTD/sodipodi-0.dtd"
   xmlns:inkscape="http://www.inkscape.org/namespaces/inkscape"
   width="200mm"
   height="200mm"
   viewBox="0 0 200 200"
   version="1.1"
   id="svg3075"
   inkscape:version="1.0.1 (3bc2e813f5, 2020-09-07)"
   sodipodi:docname="QHouseEcoHeatPump.svg">
  <defs
     id="defs3069" />
  <sodipodi:namedview
     id="base"
     pagecolor="#ffffff"
     bordercolor="#666666"
     borderopacity="1.0"
     inkscape:pageopacity="0.0"
     inkscape:pageshadow="2"
     inkscape:zoom="0.24748737"
     inkscape:cx="875.7504"
     inkscape:cy="-342.01339"
     inkscape:document-units="mm"
     inkscape:current-layer="layer1"
     inkscape:document-rotation="0"
     showgrid="false"
     inkscape:window-width="1920"
     inkscape:window-height="1137"
     inkscape:window-x="-8"
     inkscape:window-y="-8"
     inkscape:window-maximized="1" />
  <metadata
     id="metadata3072">
    <rdf:RDF>
      <cc:Work
         rdf:about="">
        <dc:format>image/svg+xml</dc:format>
        <dc:type
           rdf:resource="http://purl.org/dc/dcmitype/StillImage" />
        <dc:title></dc:title>
      </cc:Work>
    </rdf:RDF>
  </metadata>
  <g
     inkscape:label="Layer 1"
     inkscape:groupmode="layer"
     id="layer1">
    <rect
       style="fill:#ffffff;stroke:#000000;stroke-width:0.5;stroke-miterlimit:4;stroke-dasharray:none;stroke-dashoffset:0;stroke-opacity:1"
       id="rect4456"
       width="167.82143"
       height="167.82143"
       x="16.252977"
       y="16.252975"
       sodipodi:insensitive="true" />
    <text
       xml:space="preserve"
       style="font-style:normal;font-weight:normal;font-size:16.7981px;line-height:1.25;font-family:sans-serif;fill:#000000;fill-opacity:1;stroke:none;stroke-width:0.419954"
       x="21.413927"
       y="39.877586"
       id="text110188-1"><tspan
         sodipodi:role="line"
         x="21.413927"
         y="39.877586"
         style="fill:#000000;stroke-width:0.419954"
         id="tspan6793">Pompa Ciepła</tspan></text>
    <text
       xml:space="preserve"
       style="font-style:normal;font-weight:normal;font-size:5.64444px;line-height:1.15;font-family:sans-serif;white-space:pre;inline-size:67.0362;fill:#4d4d4d;fill-opacity:1;stroke:none;stroke-width:0.264583"
       x="108.85714"
       y="1131.6608"
       id="text1123-3-0-86"
       transform="matrix(1.3835679,0,0,1.3835679,-128.67364,-1506.0586)"><tspan
         x="108.85714"
         y="1131.6608"><tspan>Wszystkie nasze domy
</tspan></tspan><tspan
         x="108.85714"
         y="1138.1518"><tspan>wysposażone są w </tspan></tspan><tspan
         x="108.85714"
         y="1144.6429"><tspan>pompy ciepła. </tspan></tspan><tspan
         x="108.85714"
         y="1151.134"><tspan>Nowoczesne pompy </tspan></tspan><tspan
         x="108.85714"
         y="1157.6251"><tspan>ciepła działąja </tspan></tspan><tspan
         x="108.85714"
         y="1164.1162"><tspan>najefektywnie do </tspan></tspan><tspan
         x="108.85714"
         y="1170.6073"><tspan>temperatur -5 stopnii </tspan></tspan><tspan
         x="108.85714"
         y="1177.0984"><tspan>Celcjusza, poniżej tej </tspan></tspan><tspan
         x="108.85714"
         y="1183.5895"><tspan>temeperatury wzrasta </tspan></tspan><tspan
         x="108.85714"
         y="1190.0806"><tspan>zużycie energii. </tspan></tspan><tspan
         x="108.85714"
         y="1196.5716"><tspan>Uśredniając </tspan></tspan><tspan
         x="108.85714"
         y="1203.0627"><tspan>temperatuiry w naszym </tspan></tspan><tspan
         x="108.85714"
         y="1209.5538"><tspan>klimacie, pompy ciepła </tspan></tspan><tspan
         x="108.85714"
         y="1216.0449"><tspan>są dobrym wyborem.</tspan></tspan></text>
    <g
       id="g110790"
       transform="matrix(1.0229925,0,0,1.0229925,645.02014,-2465.7449)">
      <path
         style="fill:#666666;stroke-width:0.264583"
         d="m -498.07835,2598.0043 c -0.36381,-0.2379 -0.98613,-0.7275 -1.38295,-1.0881 l -0.7215,-0.6557 -3.02115,0.348 c -3.0849,0.3553 -5.24615,0.2443 -5.90612,-0.3034 -0.20321,-0.1687 -1.28679,-1.43 -2.40794,-2.8031 -1.12116,-1.373 -2.39566,-2.9243 -2.83222,-3.4473 -0.73266,-0.8778 -0.79251,-1.1049 -0.77762,-2.9513 0.009,-1.1002 0.0405,-13.871 0.0703,-28.3795 0.0306,-14.906 0.15579,-26.4419 0.28781,-26.5235 0.12851,-0.08 1.20721,-0.2079 2.39712,-0.2854 2.03076,-0.1323 2.23527,-0.096 3.3342,0.5944 0.82118,0.5157 1.13793,0.8761 1.06083,1.207 -0.0673,0.2889 0.1376,0.6338 0.52905,0.8903 0.35142,0.2302 0.63895,0.5819 0.63895,0.7815 0,0.6955 1.61056,1.0778 4.23333,1.0048 4.88379,-0.136 10.21107,-0.3684 12.21964,-0.5332 2.57303,-0.2112 4.97828,0.064 4.97828,0.5696 0,0.6227 -0.81013,0.8374 -3.83646,1.0166 -3.28266,0.1943 -4.16583,0.3668 -4.02594,0.7865 0.15343,0.4603 1.73734,0.6697 2.60056,0.3439 0.98035,-0.37 1.3725,0.076 1.18702,1.349 -0.10194,0.6999 -0.036,0.8599 0.35421,0.8599 0.2637,0 0.85153,0.074 1.30628,0.1654 0.75881,0.1517 0.82683,0.108 0.82683,-0.5323 0,-0.672 0.0414,-0.6912 1.12447,-0.522 0.61847,0.097 1.16417,0.2766 1.21268,0.4 0.14824,0.3771 2.07489,0.2497 2.41458,-0.1596 0.17524,-0.2111 0.87443,-0.4557 1.55375,-0.5436 2.17525,-0.2812 2.42577,-0.3772 2.42577,-0.9296 0,-0.7247 0.73731,-0.6623 0.84149,0.071 0.0788,0.5546 0.19301,0.5887 1.66954,0.4983 1.01354,-0.062 1.80662,-0.2713 2.1997,-0.5805 0.63155,-0.4968 1.29338,-0.4349 1.78755,0.1673 0.18687,0.2277 1.20308,0.3724 3.04271,0.4331 1.51917,0.05 2.96244,0.187 3.20727,0.304 0.34085,0.163 0.54958,0.011 0.89097,-0.6493 0.40996,-0.7927 0.4114,-0.8873 0.0179,-1.1751 -0.76998,-0.563 -0.47825,-0.916 0.75699,-0.916 1.1812,0 1.18396,0 0.87037,0.6904 -0.26502,0.5817 -0.24328,0.7426 0.13796,1.0214 0.24891,0.182 0.45256,0.5181 0.45256,0.7469 0,0.5215 0.90412,0.8289 1.48384,0.5044 0.32742,-0.1832 0.35459,-0.2945 0.10895,-0.4463 -0.23414,-0.1447 -0.12414,-0.3642 0.38669,-0.7715 l 0.71392,-0.5693 -0.46069,-0.9661 c -0.45673,-0.9577 -0.47796,-0.9675 -2.47118,-1.1392 -1.10577,-0.095 -2.42721,-0.2817 -2.93653,-0.4142 -0.50933,-0.1326 -2.05714,-0.2593 -3.43959,-0.2816 -2.17154,-0.035 -1.9382,-0.072 1.71499,-0.269 2.3257,-0.1256 5.06413,-0.3577 6.08542,-0.5158 1.02129,-0.158 3.70235,-0.3651 5.95792,-0.4601 3.61631,-0.1523 4.2142,-0.2431 5.05832,-0.7681 0.99596,-0.6193 2.97424,-0.819 3.27606,-0.3307 0.0914,0.148 1.33438,0.2646 2.81988,0.2646 2.61034,0 2.6692,-0.014 3.39783,-0.7937 0.8337,-0.8925 1.19223,-0.9868 1.4269,-0.3753 0.24933,0.6498 0.1811,54.9666 -0.0695,55.3619 -0.28576,0.4507 -1.56055,0.7195 -5.32611,1.1231 -1.67349,0.1793 -3.14971,0.4211 -3.28048,0.5373 -0.13693,0.1216 -0.0528,0.4935 0.19844,0.8769 0.96668,1.4754 0.32949,1.8712 -2.73375,1.6981 -1.52932,-0.086 -1.96354,-0.2193 -2.57586,-0.7884 -0.71579,-0.6651 -0.79965,-0.6786 -2.98544,-0.4787 -2.83177,0.259 -5.90328,0.6967 -7.27604,1.0369 -0.58208,0.1442 -1.71317,0.2679 -2.51354,0.2748 -0.80036,0.01 -1.93146,0.1266 -2.51354,0.2659 -0.58208,0.1393 -2.1299,0.3813 -3.43958,0.5378 -1.30969,0.1565 -3.9886,0.5098 -5.95313,0.7852 -1.96453,0.2754 -4.64344,0.6285 -5.95312,0.7848 -1.30969,0.1562 -2.97657,0.3922 -3.70417,0.5245 -0.7276,0.1322 -2.27542,0.38 -3.43958,0.5506 -1.16417,0.1705 -2.33313,0.4254 -2.5977,0.5663 -0.44406,0.2365 -0.44914,0.3048 -0.0661,0.8894 0.54934,0.8384 0.54791,0.843 -0.44501,1.4484 -1.06626,0.6501 -3.22159,0.6843 -4.16718,0.066 z m 1.7681,-0.4963 c 0.12912,-0.3365 0.4015,-0.3948 1.28102,-0.2743 l 1.11703,0.1531 -0.12742,-1.1305 c -0.12656,-1.1228 -0.12029,-1.1326 0.92418,-1.4455 0.57838,-0.1733 1.55639,-0.3151 2.17334,-0.3151 0.61696,0 1.82234,-0.1815 2.67863,-0.4034 0.85629,-0.2219 2.65941,-0.5198 4.00694,-0.662 6.11453,-0.6452 6.36449,-0.6971 6.45187,-1.3379 0.0182,-0.1334 0.048,-0.3616 0.0661,-0.5071 0.0515,-0.4116 0.75235,-0.3111 0.9225,0.1323 0.20328,0.5297 3.91954,0.5265 6.12203,-0.01 0.87313,-0.2108 2.24234,-0.3872 3.04271,-0.392 0.80036,0 2.28864,-0.1877 3.30729,-0.4064 2.03454,-0.4367 5.22347,-0.8681 8.41465,-1.1382 2.00202,-0.1695 2.08542,-0.1531 2.74917,0.54 0.86604,0.9043 2.1054,1.2107 2.65881,0.6573 0.31691,-0.317 0.53764,-0.3412 1.03627,-0.114 0.86647,0.3947 1.09592,0.072 1.17737,-1.6549 l 0.0686,-1.4552 -1.20602,0.076 c -1.0252,0.065 -1.22716,0 -1.34695,-0.463 -0.17724,-0.6777 -1.63471,-0.7647 -1.885,-0.1124 -0.12049,0.314 -0.38961,0.3908 -1.0205,0.2912 -1.39174,-0.2196 -3.29358,0.2829 -3.45858,0.9139 -0.22975,0.8786 -0.78544,0.413 -1.17908,-0.9879 -0.29409,-1.0466 -0.38374,-5.2622 -0.45258,-21.2812 -0.0472,-10.9868 -0.18558,-20.9881 -0.30747,-22.225 l -0.22164,-2.2489 -1.12997,-0.3576 c -0.98829,-0.3127 -1.21068,-0.3047 -1.77357,0.064 -0.38917,0.255 -0.71265,0.7898 -0.81825,1.3527 -0.22368,1.1923 -0.57532,1.4044 -0.90236,0.5442 -0.15224,-0.4004 -0.46414,-0.6774 -0.76283,-0.6774 -0.61607,0 -1.46021,1.209 -1.2417,1.7784 0.224,0.5838 -0.0841,1.3966 -0.52935,1.3966 -0.49178,0 -1.24285,-1.8157 -1.05714,-2.5556 0.29487,-1.1748 -0.59513,-1.8897 -1.37799,-1.1069 -0.23199,0.232 -0.3995,0.229 -0.69057,-0.013 -0.31833,-0.2642 -0.41469,-0.1805 -0.5614,0.4875 -0.20278,0.9232 -0.62236,1.0269 -1.23935,0.3063 -0.38788,-0.453 -0.38932,-0.5388 -0.0154,-0.9127 0.35245,-0.3525 0.35959,-0.4768 0.0489,-0.8512 -0.29525,-0.3558 -0.6153,-0.4016 -1.69706,-0.243 -0.73326,0.1075 -2.22616,0.2198 -3.31757,0.2495 -1.09141,0.03 -3.59172,0.2002 -5.55625,0.3788 -1.96453,0.1786 -4.49636,0.2451 -5.62628,0.1478 -1.66612,-0.1435 -2.1787,-0.096 -2.71198,0.2539 -0.81582,0.5345 -0.83525,1.0232 -0.0623,1.5653 0.50919,0.3571 0.5379,0.4569 0.19844,0.6897 -0.70019,0.4802 -1.05834,0.3107 -1.05834,-0.501 0,-0.6693 -0.13408,-0.8184 -0.93511,-1.0395 -0.91751,-0.2534 -5.17079,-0.1693 -6.47322,0.1279 l -0.66146,0.1509 0.72761,0.3826 c 0.82516,0.4338 0.89852,0.6882 0.33371,1.1569 -0.31541,0.2618 -0.60644,0.2419 -1.46057,-0.1 -0.58666,-0.2347 -1.39869,-0.4268 -1.80449,-0.4268 -1.57047,0 -1.56947,0 -1.87894,8.0698 -0.15617,4.0746 -0.42124,9.4919 -0.58904,12.0386 -0.34226,5.1942 -0.14551,19.8581 0.31594,23.5479 0.35738,2.8576 0.59551,3.4396 1.40742,3.4396 0.35977,0 0.80162,0.2511 1.01971,0.5796 0.33669,0.5071 0.48143,0.5437 1.15675,0.2929 1.56473,-0.5812 3.80384,-0.9426 5.00296,-0.8074 0.81615,0.092 1.50259,0 2.03083,-0.2591 0.58289,-0.2908 0.95453,-0.3268 1.3789,-0.1334 0.45062,0.2053 0.71887,0.153 1.19574,-0.2331 0.66403,-0.5377 2.7821,-0.6987 3.06972,-0.2333 0.25334,0.4099 0.96483,0.3127 1.32596,-0.1812 0.34647,-0.4738 2.66058,-0.8383 5.48326,-0.8635 0.83466,-0.01 2.02529,-0.1315 2.64584,-0.2757 1.8085,-0.42 9.09594,-1.3748 11.97619,-1.5692 2.20114,-0.1485 2.93393,-0.3179 4.35996,-1.0079 1.941,-0.9392 2.55065,-0.8029 2.27716,0.509 -0.0852,0.4085 -0.22678,1.0924 -0.31473,1.5199 l -0.15991,0.7773 -2.68436,0.1309 c -4.88013,0.238 -8.96569,0.6536 -9.25348,0.9414 -0.40418,0.4042 -2.46947,0.351 -3.16364,-0.081 -0.69271,-0.4316 -2.3728,-0.7199 -2.74467,-0.4711 -0.14365,0.096 -0.33374,0.3719 -0.42244,0.6128 -0.0887,0.2409 -0.52649,0.5183 -0.97289,0.6163 -0.44639,0.098 -0.81162,0.3335 -0.81162,0.5233 0,0.5989 -1.09622,0.6626 -2.55858,0.1486 -1.25365,-0.4406 -1.45622,-0.4518 -1.80788,-0.1001 -0.21783,0.2178 -0.39604,0.5066 -0.39604,0.6417 0,0.3863 -0.69462,0.287 -1.05834,-0.1512 -0.47346,-0.5705 -1.2552,-0.4886 -1.60678,0.1683 -0.27816,0.5198 -0.4558,0.5536 -2.20966,0.421 -1.72176,-0.1302 -1.9401,-0.091 -2.24587,0.3981 -0.31008,0.4965 -0.51441,0.5288 -2.41829,0.3819 -1.44062,-0.1111 -2.45897,-0.046 -3.31429,0.2113 -1.15069,0.3463 -1.28433,0.3349 -1.96401,-0.1677 l -0.72931,-0.5392 -1.28871,1.2367 c -1.23388,1.184 -1.26685,1.2526 -0.77511,1.6136 0.28247,0.2074 0.96289,0.377 1.51204,0.377 0.72452,0 1.07543,0.1439 1.279,0.5242 0.59414,1.1102 2.77017,1.7436 3.09368,0.9006 z m 43.86431,-9.3756 c -0.25141,-0.4067 0.093,-0.6692 0.43255,-0.3296 0.19002,0.19 0.19458,0.338 0.0139,0.4497 -0.14814,0.091 -0.34903,0.037 -0.44642,-0.1201 z m -43.92393,-43.1262 c -0.35699,-0.3945 -0.40252,-0.6056 -0.17886,-0.8293 0.3511,-0.3511 1.11621,0.1467 1.11621,0.7262 0,0.6041 -0.44011,0.6525 -0.93735,0.1031 z m 2.95709,0.052 c -0.55564,-0.6139 -0.55515,-1.1605 9.2e-4,-1.0506 0.48263,0.095 0.98922,1.1834 0.64889,1.3938 -0.11967,0.074 -0.41208,-0.081 -0.64981,-0.3432 z m -11.93445,51.0139 c 0.0939,-0.1519 0.0362,-0.4381 -0.12807,-0.6361 -0.16432,-0.198 -0.22278,-0.6627 -0.12992,-1.0327 0.0929,-0.37 0.0426,-1.066 -0.11174,-1.5467 -0.45368,-1.4131 -0.82963,-5.9947 -0.55184,-6.7253 0.23239,-0.6113 0.28681,-9.9832 0.14347,-24.708 -0.0675,-6.9366 -0.46407,-13.4908 -0.92045,-15.2135 -0.42608,-1.6084 -0.37194,-3.5582 0.10388,-3.7408 0.31756,-0.1219 0.39688,-0.7019 0.39688,-2.9021 0,-2.7244 -0.006,-2.7498 -0.63348,-2.7498 -0.34841,0 -1.02413,-0.365 -1.50159,-0.811 -0.47747,-0.446 -1.17467,-0.9855 -1.54934,-1.1988 -0.37467,-0.2134 -1.19649,-0.8009 -1.82626,-1.3057 -0.62978,-0.5048 -1.43345,-0.9179 -1.78594,-0.9179 -0.35249,0 -0.65641,0.03 -0.67537,0.066 -0.0489,0.094 -0.1992,27.459 -0.23767,43.2601 l -0.0324,13.296 2.95824,3.424 c 2.13881,2.4755 3.15208,3.4538 3.65799,3.5315 1.4206,0.2183 2.65762,0.1792 2.82358,-0.089 z m 62.56679,-8.4142 c 2.13067,-0.2632 2.93267,-0.4983 3.23111,-0.947 0.26393,-0.3968 -0.072,-13.193 -0.35436,-13.5004 -0.13263,-0.1444 -0.22961,1.0945 -0.22784,2.9104 0.003,3.2346 -0.67884,8.9841 -1.13611,9.5779 -0.14007,0.1819 -0.7507,0.3308 -1.35696,0.3308 -0.60626,0 -1.56935,0.2381 -2.14021,0.5291 -0.57087,0.2911 -1.16159,0.5319 -1.31272,0.5351 -0.15113,0 -0.57244,0.2492 -0.93624,0.5465 l -0.66146,0.5407 1.45521,-0.139 c 0.80036,-0.076 2.34817,-0.2493 3.43958,-0.3841 z m -4.29585,-1.8899 c -0.0417,-0.2166 -0.31261,-0.4372 -0.60198,-0.4903 -0.28937,-0.053 -0.71978,-0.268 -0.95646,-0.4775 -0.37648,-0.3333 -0.45097,-0.3272 -0.59531,0.049 -0.40632,1.0588 -0.20669,1.3127 1.03231,1.3127 0.91773,0 1.17957,-0.092 1.12144,-0.3939 z m -3.75555,-1.1727 c 0.22606,-0.9007 0.0433,-1.6084 -0.41527,-1.6084 -0.21429,0 -0.43156,0.2177 -0.48282,0.4839 -0.12808,0.6651 0.17282,1.765 0.48282,1.765 0.13998,0 0.32685,-0.2882 0.41527,-0.6405 z m 3.81807,-0.9664 c 0,-0.6299 -0.10363,-0.7932 -0.45999,-0.7245 -0.57343,0.1104 -0.77368,0.9993 -0.29365,1.3035 0.60281,0.382 0.75364,0.2661 0.75364,-0.579 z m -0.19332,-2.428 c 0.16171,-0.4635 -0.0703,-0.9938 -0.4303,-0.9834 -0.33287,0.01 -1.49305,0.9096 -1.49305,1.1581 0,0.3115 1.81113,0.147 1.92335,-0.1747 z m 3.56214,-22.9817 c 1.52003,-0.2976 1.77421,-0.5117 1.52814,-1.287 -0.21871,-0.6891 -1.32542,-0.8523 -4.09744,-0.6043 -2.15415,0.1927 -2.25367,0.2305 -2.50752,0.954 -0.53045,1.5117 0.84523,1.7657 5.07682,0.9373 z m -1.31279,-16.59 c 0.0576,-0.1728 -0.0838,-0.3142 -0.31419,-0.3142 -0.23041,0 -0.41893,0.1885 -0.41893,0.4189 0,0.4672 0.56959,0.3859 0.73312,-0.1047 z m -3.79267,-0.4516 c 0.71834,-0.2179 1.50947,-0.3316 1.75806,-0.2527 0.24859,0.079 0.65163,-0.056 0.89564,-0.3002 0.74568,-0.7457 0.0162,-1.1308 -2.23998,-1.1826 -1.90056,-0.044 -3.69045,0.4148 -4.08003,1.0451 -0.21468,0.3474 0.38942,0.7636 1.30191,0.897 0.43656,0.064 0.85328,0.1326 0.92604,0.1529 0.0728,0.02 0.72002,-0.1415 1.43836,-0.3595 z m -41.4408,-0.09 c 0.25959,-0.1646 0.16532,-0.3385 -0.37583,-0.693 -0.56458,-0.37 -0.91902,-0.4222 -1.62289,-0.2392 -1.27951,0.3326 -1.19318,0.7366 0.19699,0.9219 0.65485,0.087 1.25016,0.1748 1.32292,0.1944 0.0728,0.02 0.28822,-0.063 0.47881,-0.1841 z m 33.21209,-1.1612 c 0.0804,-0.3274 0.22806,-1.223 0.32814,-1.9903 0.10007,-0.7672 0.27458,-1.4522 0.38779,-1.5222 0.40327,-0.2492 1.05399,0.2076 1.18191,0.8297 0.0715,0.3478 0.19181,0.93 0.26734,1.2938 0.18446,0.8884 0.54435,0.8344 0.88136,-0.1323 0.15218,-0.4366 0.44691,-0.7938 0.65494,-0.7938 0.20803,0 0.53281,-0.1862 0.72173,-0.4139 0.22522,-0.2713 0.56596,-0.358 0.98956,-0.2517 0.41562,0.1043 0.81585,0.01 1.1221,-0.2687 0.36971,-0.3345 0.59527,-0.367 1.00982,-0.1451 0.29359,0.1571 0.96616,0.2857 1.49462,0.2857 0.52845,0 1.20103,-0.1286 1.49461,-0.2857 0.41847,-0.224 0.64334,-0.1865 1.04094,0.1733 0.47236,0.4275 0.54035,0.4289 0.99101,0.021 0.33203,-0.3005 0.96077,-0.4379 2.00377,-0.4379 1.30501,0 1.50736,-0.066 1.43108,-0.463 -0.11928,-0.6216 -3.11778,-0.9454 -6.69683,-0.7234 -1.45521,0.09 -4.66554,0.2454 -7.13406,0.3446 -4.41874,0.1775 -4.47711,0.1876 -3.77031,0.6495 0.56722,0.3706 0.71852,0.6761 0.72082,1.4552 0.004,1.3696 0.29085,2.9704 0.53219,2.9704 0.11071,0 0.26707,-0.2679 0.34747,-0.5953 z m 4.32024,-0.3485 c 0.22052,-0.5747 -0.33931,-1.1151 -0.74002,-0.7144 -0.33868,0.3387 -0.12887,1.1291 0.29971,1.1291 0.15466,0 0.3528,-0.1866 0.44031,-0.4147 z m 8.49399,-0.6518 c 0.0423,-0.2194 -0.0944,-0.6332 -0.3038,-0.9195 -0.37414,-0.5117 -0.39007,-0.512 -0.93583,-0.018 -0.52429,0.4745 -0.53021,0.5301 -0.10631,0.9985 0.51114,0.5648 1.23172,0.5322 1.34594,-0.061 z m -2.62826,-0.4883 c 0.28127,-0.1783 0.26299,-0.2582 -0.09,-0.3936 -0.52385,-0.2011 -0.99725,0.029 -0.78076,0.3791 0.18679,0.3023 0.41096,0.306 0.87078,0.014 z m -38.35437,0.3211 c -0.30782,-0.3729 -0.30772,-0.4585 7.9e-4,-0.5622 0.70024,-0.2355 1.40579,-1.1601 1.27293,-1.6682 -0.10427,-0.3983 0.009,-0.5047 0.53699,-0.5047 0.56483,0 0.61775,0.062 0.33961,0.397 -0.27845,0.3355 -0.20066,0.4228 0.50227,0.5633 1.56949,0.3139 1.26199,1.1443 -0.42672,1.1523 -0.57703,0 -0.94167,0.1743 -1.13379,0.5333 -0.34485,0.6443 -0.6156,0.6664 -1.09208,0.089 z m 11.67542,-1.1476 c 0,-0.1455 0.17859,-0.2646 0.39687,-0.2646 0.21828,0 0.39688,0.1191 0.39688,0.2646 0,0.1455 -0.1786,0.2646 -0.39688,0.2646 -0.21828,0 -0.39687,-0.1191 -0.39687,-0.2646 z m -2.3389,-0.328 c -0.41377,-0.4138 -0.38706,-0.7303 0.0616,-0.7303 0.41929,0 0.77588,0.7093 0.45598,0.907 -0.11587,0.072 -0.34879,-0.01 -0.51761,-0.1767 z"
         id="path110800" />
      <path
         style="fill:#ff6600;stroke-width:0.264583"
         d="m -498.40243,2597.5229 c -0.39652,-0.2152 -0.8472,-0.6271 -1.0015,-0.9155 -0.20357,-0.3803 -0.55448,-0.5242 -1.279,-0.5242 -0.54915,0 -1.22957,-0.1696 -1.51204,-0.377 -0.49174,-0.361 -0.45877,-0.4296 0.77511,-1.6136 l 1.28871,-1.2367 0.72931,0.5392 c 0.67968,0.5026 0.81332,0.514 1.96401,0.1677 0.85532,-0.2575 1.87367,-0.3224 3.31429,-0.2113 1.90388,0.1469 2.10821,0.1146 2.41829,-0.3819 0.30577,-0.4896 0.52411,-0.5283 2.24587,-0.3981 1.75386,0.1326 1.9315,0.099 2.20966,-0.421 0.35158,-0.6569 1.13332,-0.7388 1.60678,-0.1683 0.36372,0.4382 1.05834,0.5375 1.05834,0.1512 0,-0.1351 0.17821,-0.4239 0.39604,-0.6417 0.35166,-0.3517 0.55423,-0.3405 1.80788,0.1001 1.46236,0.514 2.55858,0.4503 2.55858,-0.1486 0,-0.1898 0.36523,-0.4252 0.81162,-0.5233 0.4464,-0.098 0.8842,-0.3754 0.97289,-0.6163 0.0887,-0.2409 0.27879,-0.5167 0.42244,-0.6128 0.37187,-0.2488 2.05196,0.04 2.74467,0.4711 0.69417,0.4325 2.75946,0.4857 3.16364,0.081 0.28779,-0.2878 4.37335,-0.7034 9.25348,-0.9414 l 2.68436,-0.1309 0.15991,-0.7773 c 0.0879,-0.4275 0.22957,-1.1114 0.31473,-1.5199 0.27349,-1.3119 -0.33616,-1.4482 -2.27716,-0.509 -1.42603,0.69 -2.15882,0.8594 -4.35996,1.0079 -2.88025,0.1944 -10.16769,1.1492 -11.97619,1.5692 -0.62055,0.1442 -1.81118,0.2682 -2.64584,0.2757 -2.82268,0.025 -5.13679,0.3897 -5.48326,0.8635 -0.36113,0.4939 -1.07262,0.5911 -1.32596,0.1812 -0.28762,-0.4654 -2.40569,-0.3044 -3.06972,0.2333 -0.47687,0.3861 -0.74512,0.4384 -1.19574,0.2331 -0.42437,-0.1934 -0.79601,-0.1574 -1.3789,0.1334 -0.52824,0.2635 -1.21468,0.3511 -2.03083,0.2591 -1.19912,-0.1352 -3.43823,0.2262 -5.00296,0.8074 -0.67532,0.2508 -0.82006,0.2142 -1.15675,-0.2929 -0.21809,-0.3285 -0.65994,-0.5796 -1.01971,-0.5796 -0.81191,0 -1.05004,-0.582 -1.40742,-3.4396 -0.46145,-3.6898 -0.6582,-18.3537 -0.31594,-23.5479 0.1678,-2.5467 0.43287,-7.964 0.58904,-12.0386 0.30947,-8.0741 0.30847,-8.0698 1.87894,-8.0698 0.4058,0 1.21783,0.1921 1.80449,0.4268 0.85413,0.3418 1.14516,0.3617 1.46057,0.1 0.56481,-0.4687 0.49145,-0.7231 -0.33371,-1.1569 l -0.72761,-0.3826 0.66146,-0.1509 c 1.30243,-0.2972 5.55571,-0.3813 6.47322,-0.1279 0.80103,0.2211 0.93511,0.3702 0.93511,1.0395 0,0.8117 0.35815,0.9812 1.05834,0.501 0.33946,-0.2328 0.31075,-0.3326 -0.19844,-0.6897 -0.77299,-0.5421 -0.75356,-1.0308 0.0623,-1.5653 0.53328,-0.3495 1.04586,-0.3974 2.71198,-0.2539 1.12992,0.097 3.66175,0.031 5.62628,-0.1478 1.96453,-0.1786 4.46484,-0.3491 5.55625,-0.3788 1.09141,-0.03 2.58431,-0.142 3.31756,-0.2495 1.08176,-0.1586 1.40181,-0.1128 1.69706,0.243 0.31072,0.3744 0.30359,0.4987 -0.0489,0.8512 -0.37393,0.3739 -0.37249,0.4597 0.0154,0.9127 0.61698,0.7206 1.03656,0.6169 1.23934,-0.3063 0.14672,-0.668 0.24307,-0.7517 0.5614,-0.4875 0.29108,0.2416 0.45859,0.2446 0.69058,0.013 0.78286,-0.7828 1.67286,-0.068 1.37799,1.1069 -0.18571,0.7399 0.56536,2.5556 1.05714,2.5556 0.44527,0 0.75335,-0.8128 0.52934,-1.3966 -0.21849,-0.5694 0.62565,-1.7784 1.24172,-1.7784 0.29869,0 0.61059,0.277 0.76283,0.6774 0.32704,0.8602 0.67868,0.6481 0.90236,-0.5442 0.1056,-0.5629 0.42908,-1.0977 0.81825,-1.3527 0.56289,-0.3688 0.78528,-0.3768 1.77357,-0.064 l 1.12997,0.3576 0.22164,2.2489 c 0.12189,1.2369 0.26026,11.2382 0.30747,22.225 0.0688,16.019 0.15849,20.2346 0.45258,21.2812 0.39364,1.4009 0.94933,1.8665 1.17908,0.9879 0.165,-0.631 2.06684,-1.1335 3.45858,-0.9139 0.63089,0.1 0.90001,0.023 1.0205,-0.2912 0.25029,-0.6523 1.70776,-0.5653 1.885,0.1124 0.11979,0.4581 0.32175,0.5276 1.34695,0.463 l 1.20602,-0.076 -0.0686,1.4552 c -0.0815,1.7271 -0.3109,2.0496 -1.17737,1.6549 -0.49863,-0.2272 -0.71936,-0.203 -1.03627,0.114 -0.55341,0.5534 -1.79277,0.247 -2.65881,-0.6573 -0.66375,-0.6931 -0.74715,-0.7095 -2.74917,-0.54 -3.19118,0.2701 -6.38011,0.7015 -8.41465,1.1382 -1.01865,0.2187 -2.50693,0.4016 -3.30729,0.4064 -0.80037,0 -2.16958,0.1812 -3.04271,0.392 -2.20249,0.5318 -5.91875,0.535 -6.12203,0.01 -0.17015,-0.4434 -0.87105,-0.5439 -0.9225,-0.1323 -0.15373,1.2299 0.16436,1.1398 -6.51802,1.845 -1.34753,0.1422 -3.15065,0.4401 -4.00694,0.662 -0.85629,0.2219 -2.06167,0.4034 -2.67863,0.4034 -0.61695,0 -1.59496,0.1418 -2.17334,0.3151 -1.04447,0.3129 -1.05074,0.3227 -0.92418,1.4455 l 0.12742,1.1305 -1.11703,-0.1531 c -0.87952,-0.1205 -1.1519,-0.062 -1.28102,0.2743 -0.20256,0.5278 -1.13476,0.5345 -2.09218,0.015 z m 1.04137,-0.6244 c 0.26033,-0.2792 0.88088,-0.5471 1.379,-0.5953 1.32961,-0.1287 1.30629,-0.6552 -0.0356,-0.8032 -1.86236,-0.2054 -3.11905,0.035 -3.11905,0.5972 0,0.2668 0.26462,0.6705 0.58804,0.8971 0.72045,0.5046 0.62026,0.5127 1.18759,-0.096 z m 46.77541,-6.6361 c 0.26339,-0.291 0.70849,-0.5292 0.9891,-0.5292 0.28985,0 0.46319,-0.1428 0.40133,-0.3307 -0.11946,-0.3629 -2.30377,-0.59 -3.29112,-0.3422 -0.72304,0.1815 -0.77894,0.58 -0.17497,1.2474 0.57439,0.6347 1.47813,0.615 2.07566,-0.045 z m -37.24591,-1.4989 c 0.0556,-0.1696 -0.1391,-0.3845 -0.43265,-0.4777 -0.63021,-0.2 -1.69929,0.2985 -1.46235,0.6819 0.21904,0.3544 1.76651,0.1876 1.895,-0.2042 z m 35.81817,-0.9607 c -0.33959,-0.3396 -0.68396,-0.077 -0.43255,0.3296 0.0974,0.1576 0.29828,0.2116 0.44642,0.1201 0.18071,-0.1117 0.17615,-0.2597 -0.0139,-0.4497 z m -28.61678,-1.4948 c 0.39225,-0.3923 0.73758,-0.4787 1.45009,-0.3631 0.6101,0.099 1.14531,0.014 1.53954,-0.2442 0.33238,-0.2178 0.96645,-0.4755 1.40906,-0.5727 0.51123,-0.1123 0.98381,-0.4799 1.29573,-1.008 0.47227,-0.7995 0.49907,-0.8094 0.70258,-0.2592 0.19933,0.5388 1.02565,0.5759 1.02565,0.046 0,-0.1175 0.58246,-0.572 1.29436,-1.01 0.71191,-0.4381 1.68433,-1.2817 2.16095,-1.8748 0.47662,-0.5931 0.99753,-1.0783 1.15758,-1.0783 0.76744,0 3.02684,-2.4476 3.95456,-4.284 0.5373,-1.0636 1.24045,-2.41 1.56254,-2.9921 1.78667,-3.2288 2.33045,-5.4748 2.35853,-9.7415 0.02,-3.043 -0.072,-3.837 -0.72173,-6.2276 -0.40957,-1.5069 -1.01765,-3.1143 -1.3513,-3.5718 -0.33364,-0.4576 -1.01429,-1.6059 -1.51256,-2.5518 -0.57941,-1.0999 -1.46499,-2.2186 -2.45703,-3.1037 -0.85311,-0.7612 -1.9083,-1.7125 -2.34486,-2.1141 -0.88546,-0.8144 -4.13043,-2.1881 -5.1726,-2.1896 -0.37108,-5e-4 -0.8019,-0.1281 -0.95737,-0.2836 -0.87285,-0.8729 -7.37015,-0.6829 -9.48045,0.2771 -0.58208,0.2649 -1.47505,0.554 -1.98437,0.6427 -1.12709,0.1961 -3.04353,1.1142 -4.19271,2.0087 -3.04457,2.3697 -4.13654,3.3597 -5.04892,4.5773 -0.56702,0.7567 -1.31837,1.6735 -1.66966,2.0373 -0.83307,0.8627 -3.00067,4.8621 -3.52965,6.5125 -1.3094,4.0852 -1.53742,8.9736 -0.61894,13.2697 0.44806,2.0958 0.82973,3.0544 2.05052,5.15 0.97216,1.6689 1.66052,2.5766 1.95621,2.5797 0.25093,0 0.65599,0.3917 0.90014,0.8646 0.61592,1.1931 2.38351,2.772 3.80301,3.397 0.65484,0.2883 1.41224,0.6484 1.68311,0.8002 0.27087,0.1517 1.39123,0.5693 2.48969,0.9279 1.54311,0.5037 2.16295,0.5941 2.72617,0.3978 0.40093,-0.1398 0.80825,-0.1745 0.90515,-0.077 0.0969,0.097 0.97023,0.2474 1.94072,0.3337 0.9705,0.086 1.85383,0.1755 1.96297,0.1984 0.10914,0.023 0.43012,-0.1901 0.71329,-0.4732 z m 8.15025,0.3324 c -0.25466,-0.067 -0.67138,-0.067 -0.92604,0 -0.25466,0.067 -0.0463,0.121 0.46302,0.121 0.50932,0 0.71768,-0.054 0.46302,-0.121 z m 12.76615,-17.4653 c 0,-0.5321 -0.0765,-0.6379 -0.29972,-0.4147 -0.16484,0.1649 -0.22811,0.4864 -0.14059,0.7144 0.2422,0.6312 0.44031,0.4964 0.44031,-0.2997 z m 0.26458,-13.5731 c 0,-0.294 -0.17639,-0.5292 -0.39687,-0.5292 -0.22049,0 -0.39688,0.2352 -0.39688,0.5292 0,0.294 0.17639,0.5292 0.39688,0.5292 0.22048,0 0.39687,-0.2352 0.39687,-0.5292 z m -35.98333,-10.6989 c 0,-0.5795 -0.76511,-1.0773 -1.11621,-0.7262 -0.22366,0.2237 -0.17813,0.4348 0.17886,0.8293 0.49724,0.5494 0.93735,0.501 0.93735,-0.1031 z m 2.67048,-0.2236 c -0.23387,-0.6335 -1.08298,-0.9696 -1.08298,-0.4287 0,0.451 0.81375,1.3159 1.08205,1.1501 0.11967,-0.074 0.12009,-0.3986 9.3e-4,-0.7214 z m -15.40877,51.4815 c -0.50591,-0.078 -1.51918,-1.056 -3.65799,-3.5315 l -2.95824,-3.424 0.0324,-13.296 c 0.0385,-15.8011 0.18881,-43.1664 0.23767,-43.2601 0.019,-0.036 0.32288,-0.066 0.67537,-0.066 0.35249,0 1.15616,0.4131 1.78594,0.9179 0.62977,0.5048 1.45159,1.0923 1.82626,1.3057 0.37467,0.2133 1.07187,0.7528 1.54934,1.1988 0.47746,0.446 1.15318,0.811 1.50159,0.811 0.62761,0 0.63348,0.025 0.63348,2.7498 0,2.2002 -0.0793,2.7802 -0.39688,2.9021 -0.47582,0.1826 -0.52996,2.1324 -0.10388,3.7408 0.45638,1.7227 0.85292,8.2769 0.92045,15.2135 0.14334,14.7248 0.0889,24.0967 -0.14347,24.708 -0.27779,0.7306 0.0982,5.3122 0.55184,6.7253 0.15432,0.4807 0.20461,1.1767 0.11174,1.5467 -0.0929,0.37 -0.0344,0.8347 0.12992,1.0327 0.65648,0.791 -0.40685,1.0772 -2.69551,0.7255 z m -3.65375,-5.3468 c -0.33991,-0.6351 -0.80588,-0.7323 -0.80588,-0.1681 0,0.3581 0.81257,1.0086 1.01142,0.8097 0.0494,-0.049 -0.0431,-0.3381 -0.20554,-0.6416 z m 1.93878,-0.4238 c 0.34008,-0.3401 0.38469,-1.237 0.29281,-5.887 -0.0596,-3.0172 -0.10738,-5.6049 -0.10614,-5.7504 0.001,-0.1455 0.0438,-2.8007 0.0946,-5.9004 l 0.0923,-5.6359 -0.64467,-0.7661 c -0.35457,-0.4214 -0.8478,-0.8326 -1.09607,-0.9137 -0.24828,-0.081 -0.72039,-0.5638 -1.04915,-1.0725 -0.59189,-0.9159 -1.44098,-1.2145 -1.80022,-0.6333 -0.0991,0.1604 -0.20484,5.2864 -0.2349,11.3911 -0.0431,8.7453 0.0192,11.2419 0.29353,11.7707 0.25447,0.4905 0.27294,0.8117 0.0686,1.1935 -0.20201,0.3774 -0.19209,0.6277 0.0358,0.9023 0.44468,0.5358 0.77972,0.4717 0.77972,-0.1492 0,-0.294 0.17639,-0.5292 0.39687,-0.5292 0.21828,0 0.39688,0.092 0.39688,0.2043 0,0.3065 1.59163,2.177 1.85244,2.177 0.12454,0 0.40697,-0.1806 0.62763,-0.4012 z m 0.20873,-27.2365 c 0.21057,-0.4621 0.21856,-1.0428 0.0276,-2.0084 -0.14772,-0.7471 -0.18548,-1.7345 -0.0839,-2.1942 0.10157,-0.4597 0.14123,-2.205 0.0881,-3.8785 -0.0531,-1.6735 -0.0745,-3.3403 -0.0476,-3.7041 0.0269,-0.3639 0.0387,-1.0187 0.0261,-1.4553 -0.0126,-0.4365 -0.0343,-2.7829 -0.0482,-5.2142 l -0.0253,-4.4205 -0.68707,-0.5404 c -0.3779,-0.2973 -0.80266,-0.5405 -0.94393,-0.5405 -0.14127,0 -0.6106,-0.2976 -1.04296,-0.6614 -1.08258,-0.911 -1.71799,-0.8609 -1.94066,0.1529 -0.0984,0.448 -0.095,1.2516 0.007,1.786 0.20982,1.0937 0.23733,14.2087 0.0305,14.5434 -0.0733,0.1186 -0.0396,0.631 0.0749,1.1387 0.11451,0.5077 0.1099,1.1888 -0.0102,1.5136 -0.33911,0.9167 0.0298,2.8392 0.66186,3.4494 1.66817,1.6103 2.9797,2.6837 3.27913,2.6837 0.18581,0 0.47114,-0.2926 0.63405,-0.6502 z m 62.66328,24.4859 c 0.3638,-0.2973 0.78511,-0.5433 0.93624,-0.5465 0.15113,0 0.74185,-0.244 1.31272,-0.5351 0.57086,-0.291 1.53395,-0.5291 2.14021,-0.5291 0.60626,0 1.21689,-0.1489 1.35696,-0.3308 0.45727,-0.5938 1.13926,-6.3433 1.13611,-9.5779 -0.002,-1.8159 0.0952,-3.0548 0.22784,-2.9104 0.28241,0.3074 0.61829,13.1036 0.35436,13.5004 -0.37961,0.5708 -1.91082,0.8763 -6.67069,1.3311 l -1.45521,0.139 z m -2.38125,-1.9198 c 0,-0.2428 0.0742,-0.6349 0.16498,-0.8713 0.14434,-0.3762 0.21883,-0.3823 0.59531,-0.049 0.23668,0.2095 0.66709,0.4244 0.95646,0.4775 0.28937,0.053 0.56026,0.2737 0.60198,0.4903 0.0581,0.3019 -0.20371,0.3939 -1.12144,0.3939 -0.94153,0 -1.19729,-0.094 -1.19729,-0.4414 z m -2.26735,-1.1252 c -0.22606,-0.9007 -0.0433,-1.6084 0.41526,-1.6084 0.2143,0 0.43157,0.2177 0.48283,0.4839 0.12808,0.6651 -0.17282,1.765 -0.48283,1.765 -0.13997,0 -0.32684,-0.2882 -0.41526,-0.6405 z m 3.89496,-0.3874 c -0.48003,-0.3042 -0.27978,-1.1931 0.29365,-1.3035 0.35636,-0.069 0.45999,0.095 0.45999,0.7245 0,0.8451 -0.15083,0.961 -0.75364,0.579 z m -1.36303,-2.8323 c 0,-0.2485 1.16018,-1.1484 1.49305,-1.1581 0.35996,-0.01 0.59201,0.5199 0.4303,0.9834 -0.11222,0.3217 -1.92335,0.4862 -1.92335,0.1747 z m 0.66748,-22.9514 c -0.43734,-0.3252 -0.47979,-0.5126 -0.25881,-1.1423 0.25385,-0.7235 0.35337,-0.7613 2.50752,-0.954 2.77202,-0.248 3.87873,-0.085 4.09744,0.6043 0.24607,0.7753 -0.008,0.9894 -1.52814,1.287 -2.83134,0.5542 -4.26632,0.6153 -4.81801,0.205 z m 3.18411,-0.7365 c 1.50784,-0.3796 1.50889,-0.7623 0.002,-0.7623 -1.37641,0 -2.63235,0.4153 -2.39879,0.7933 0.21308,0.3447 0.94212,0.3353 2.39669,-0.031 z m -5.83596,-16.3035 c -2.94492,-0.4306 -0.66939,-2.0214 2.77812,-1.9421 2.25624,0.052 2.98566,0.4369 2.23998,1.1826 -0.24401,0.244 -0.64705,0.3791 -0.89564,0.3002 -0.24859,-0.079 -1.03972,0.035 -1.75806,0.2527 -0.71834,0.218 -1.3656,0.3797 -1.43836,0.3595 -0.0728,-0.02 -0.48948,-0.089 -0.92604,-0.1529 z"
         id="path110798" />
      <path
         style="fill:#949494;stroke-width:0.264583"
         d="m -498.54865,2596.9943 c -0.32342,-0.2266 -0.58804,-0.6303 -0.58804,-0.8971 0,-0.562 1.25669,-0.8026 3.11905,-0.5972 1.34187,0.148 1.36519,0.6745 0.0356,0.8032 -0.49812,0.048 -1.11867,0.3161 -1.379,0.5953 -0.56733,0.6085 -0.46714,0.6004 -1.18759,0.096 z m 0.86717,-0.6501 c 0,-0.5671 -0.76879,-0.4852 -0.8803,0.094 -0.0681,0.3536 0.0397,0.4613 0.39325,0.3932 0.26788,-0.052 0.48705,-0.2707 0.48705,-0.487 z m -14.48814,-5.0565 c -0.48742,-0.2727 -0.63828,-1.0253 -0.20554,-1.0253 0.26254,0 0.91686,1.0327 0.75614,1.1934 -0.0494,0.049 -0.29715,-0.026 -0.5506,-0.1681 z m 0.61678,-1.4825 c -0.44716,-0.5424 -0.81301,-1.0782 -0.81301,-1.1906 0,-0.1123 -0.1786,-0.2043 -0.39688,-0.2043 -0.22048,0 -0.39687,0.2352 -0.39687,0.5292 0,0.6209 -0.33504,0.685 -0.77972,0.1492 -0.22787,-0.2746 -0.23779,-0.5249 -0.0358,-0.9023 0.20431,-0.3818 0.18584,-0.703 -0.0686,-1.1935 -0.27434,-0.5288 -0.3366,-3.0254 -0.29353,-11.7707 0.0301,-6.1047 0.13577,-11.2307 0.2349,-11.3911 0.35924,-0.5812 1.20833,-0.2826 1.80022,0.6333 0.32876,0.5087 0.80087,0.9913 1.04915,1.0725 0.24827,0.081 0.7415,0.4923 1.09607,0.9137 l 0.64467,0.7661 -0.0923,5.6359 c -0.0508,3.0997 -0.0933,5.7549 -0.0946,5.9004 -10e-4,0.1455 0.0465,2.7332 0.10614,5.7504 0.0919,4.65 0.0473,5.5469 -0.29281,5.887 -0.57824,0.5782 -0.76099,0.5141 -1.66706,-0.5852 z m 1.56824,-1.1335 c 0,-0.5666 -0.13965,-1.3367 -0.31033,-1.7113 -0.23737,-0.521 -0.23737,-0.754 0,-0.9914 0.39964,-0.3997 0.39964,-2.1003 0,-2.9774 -0.23737,-0.5209 -0.23737,-0.754 0,-0.9914 0.80604,-0.806 0.0919,-3.5119 -1.07046,-4.0559 -0.50868,-0.238 -1.44174,-1.9762 -1.05384,-1.9631 0.10212,0 0.52863,0.4699 0.94781,1.0367 0.45083,0.6096 0.91015,0.9738 1.12448,0.8915 0.45313,-0.1739 0.48635,-2.1666 0.052,-3.1198 -0.23737,-0.521 -0.23737,-0.7541 0,-0.9915 0.39078,-0.3907 0.4039,-2.1811 0.0212,-2.8961 -0.20907,-0.3906 -0.20907,-0.6202 0,-0.8293 0.159,-0.159 0.2891,-0.9241 0.2891,-1.7003 0,-1.3242 -0.0554,-1.4439 -0.89885,-1.9415 -0.49437,-0.2917 -1.17898,-0.9417 -1.52136,-1.4445 -0.34238,-0.5028 -0.83086,-0.9149 -1.08552,-0.9159 -0.37363,0 -0.46302,0.2314 -0.46302,1.2062 0,0.6644 0.13009,1.4511 0.28909,1.7482 0.20907,0.3906 0.20907,0.6202 0,0.8292 -0.39045,0.3905 -0.36715,2.4467 0.035,3.0907 0.25575,0.4095 0.25575,0.5873 0,0.8431 -0.39164,0.3916 -0.42736,2.1768 -0.0574,2.8681 0.19325,0.361 0.15136,0.7402 -0.15209,1.3765 -0.37809,0.7929 -0.3795,0.9923 -0.0145,2.0518 0.27924,0.8104 0.32082,1.2741 0.13441,1.4987 -0.14845,0.1789 -0.26486,1.1368 -0.25869,2.1289 0.006,0.992 -0.0122,2.3781 -0.0409,3.0803 -0.0486,1.1917 0.0268,1.3536 1.13095,2.4302 0.65066,0.6344 1.46075,1.5193 1.8002,1.9665 0.75764,0.9982 1.10262,0.8364 1.10262,-0.5172 z m -2.09198,-3.7439 c -0.38719,-1.1107 -0.17011,-1.2703 0.35268,-0.2594 0.48009,0.9284 0.50727,1.0961 0.17768,1.0961 -0.13129,0 -0.36995,-0.3765 -0.53036,-0.8367 z m 0.0888,-3.785 c -0.23532,-0.3592 -0.38039,-0.7954 -0.32239,-0.9694 0.058,-0.174 0.36284,0.1198 0.67741,0.653 0.63389,1.0743 0.3231,1.3513 -0.35502,0.3164 z m -0.22758,-8.1213 c -0.77055,-1.5446 0.0654,-1.211 0.93651,0.3737 0.19012,0.3459 0.15665,0.463 -0.1323,0.463 -0.21275,0 -0.57464,-0.3765 -0.80421,-0.8367 z m 0.10751,-3.8107 c -0.43648,-1.148 -0.28597,-1.343 0.39522,-0.5119 0.76109,0.9285 0.81971,1.1906 0.26624,1.1906 -0.22188,0 -0.51954,-0.3054 -0.66146,-0.6787 z m 59.44651,21.0969 c -0.60397,-0.6674 -0.54807,-1.0659 0.17497,-1.2474 0.98735,-0.2478 3.17166,-0.021 3.29112,0.3422 0.0619,0.1879 -0.11148,0.3307 -0.40133,0.3307 -0.28061,0 -0.72571,0.2382 -0.9891,0.5292 -0.59753,0.6603 -1.50127,0.68 -2.07566,0.045 z m 1.56219,-0.8137 c -0.22191,-0.359 -0.68474,-0.3653 -1.20632,-0.016 -0.3433,0.2298 -0.32706,0.3188 0.12026,0.66 0.44566,0.34 0.56882,0.3428 0.8912,0.02 0.20574,-0.2057 0.29343,-0.5046 0.19486,-0.664 z m -38.62744,-0.5263 c -0.23694,-0.3834 0.83214,-0.8819 1.46235,-0.6819 0.29355,0.093 0.48825,0.3081 0.43265,0.4777 -0.12849,0.3918 -1.67596,0.5586 -1.895,0.2042 z m 6.42013,-2.3849 c -0.97049,-0.086 -1.84381,-0.2364 -1.94072,-0.3337 -0.0969,-0.097 -0.50422,-0.062 -0.90515,0.077 -0.56322,0.1963 -1.18306,0.1059 -2.72617,-0.3978 -1.09846,-0.3586 -2.21882,-0.7762 -2.48969,-0.9279 -0.27087,-0.1518 -1.02827,-0.5119 -1.68311,-0.8002 -1.4195,-0.625 -3.18709,-2.2039 -3.80301,-3.397 -0.24415,-0.4729 -0.64921,-0.862 -0.90014,-0.8646 -0.29569,0 -0.98405,-0.9108 -1.95621,-2.5797 -1.22079,-2.0956 -1.60246,-3.0542 -2.05052,-5.15 -0.91848,-4.2961 -0.69046,-9.1845 0.61894,-13.2697 0.52898,-1.6504 2.69658,-5.6498 3.52965,-6.5125 0.35129,-0.3638 1.10264,-1.2806 1.66966,-2.0373 0.91238,-1.2176 2.00435,-2.2076 5.04892,-4.5773 1.14918,-0.8945 3.06562,-1.8126 4.19271,-2.0087 0.50932,-0.089 1.40229,-0.3778 1.98437,-0.6427 2.1103,-0.96 8.6076,-1.15 9.48045,-0.2771 0.15547,0.1555 0.58629,0.2831 0.95737,0.2836 1.04217,0 4.28714,1.3752 5.1726,2.1896 0.43656,0.4016 1.49175,1.3529 2.34486,2.1141 0.99204,0.8851 1.87762,2.0038 2.45703,3.1037 0.49827,0.9459 1.17892,2.0942 1.51256,2.5518 0.33365,0.4575 0.94173,2.0649 1.3513,3.5718 0.64974,2.3906 0.74175,3.1846 0.72173,6.2276 -0.0281,4.2667 -0.57186,6.5127 -2.35853,9.7415 -0.32209,0.5821 -1.02524,1.9285 -1.56254,2.9921 -0.92772,1.8364 -3.18712,4.284 -3.95456,4.284 -0.16005,0 -0.68096,0.4852 -1.15758,1.0783 -0.47662,0.5931 -1.44904,1.4367 -2.16095,1.8748 -0.7119,0.438 -1.29436,0.8925 -1.29436,1.01 0,0.5299 -0.82632,0.4928 -1.02565,-0.046 -0.20351,-0.5502 -0.23031,-0.5403 -0.70258,0.2592 -0.31192,0.5281 -0.7845,0.8957 -1.29573,1.008 -0.44261,0.097 -1.07668,0.3549 -1.40906,0.5727 -0.39423,0.2583 -0.92944,0.3432 -1.53954,0.2442 -0.71251,-0.1156 -1.05784,-0.029 -1.45009,0.3631 -0.28317,0.2831 -0.60415,0.4961 -0.71329,0.4732 -0.10914,-0.023 -0.99247,-0.1122 -1.96297,-0.1984 z m -2.86275,-1.6175 c 0.15737,-0.2941 0.21724,-0.6461 0.13303,-0.7824 -0.21108,-0.3415 -0.7415,-7.2378 -0.6847,-8.9022 0.0349,-1.0241 -0.0565,-1.395 -0.37397,-1.5169 -0.26232,-0.1006 -0.48129,0.011 -0.58272,0.2973 -0.0894,0.2522 -0.34399,0.6698 -0.56582,0.9279 -0.3121,0.3631 -0.4517,0.393 -0.61719,0.1323 -0.34252,-0.5397 -0.25486,-2.3018 0.15955,-3.2075 0.20984,-0.4585 0.4182,-1.1313 0.46302,-1.4951 0.0694,-0.5633 0.2094,-0.6557 0.94312,-0.6223 1.12907,0.051 1.29125,-0.5762 0.88824,-3.4369 -0.40605,-2.8824 -0.40548,-2.6735 -0.0137,-5.0091 0.27885,-1.6623 0.2813,-2.3054 0.0128,-3.3532 -0.19874,-0.7754 -0.25929,-1.7829 -0.15066,-2.5072 0.17797,-1.1868 0.16721,-1.2109 -0.54078,-1.2109 -0.62606,0 -0.69836,0.079 -0.54233,0.5953 0.43585,1.4413 0.4658,2.7339 0.0709,3.0616 -0.33218,0.2757 -0.44115,0.1997 -0.67476,-0.4704 -0.23972,-0.6877 -0.36267,-0.7681 -0.88114,-0.5763 -0.87251,0.3228 -1.53565,2.7496 -1.54017,5.6364 -0.004,2.511 0.13077,3.1305 0.68079,3.1305 0.19975,0 0.60731,0.4785 0.90567,1.0633 l 0.54249,1.0634 -0.79576,0.1591 c -1.34439,0.2689 -1.47193,0.6502 -1.4396,4.3038 0.0356,4.0185 0.31574,5.4694 1.04316,5.4018 0.61794,-0.057 0.90231,0.3455 0.90768,1.2863 0.003,0.5791 -0.1301,0.7255 -0.72355,0.7937 -0.64407,0.074 -0.74644,0.2204 -0.89171,1.2744 -0.0902,0.6548 -0.24647,1.5478 -0.34715,1.9844 -0.24829,1.0766 0.31513,1.7722 1.74515,2.1547 1.78294,0.4768 2.54578,0.4301 2.87007,-0.1758 z m 5.47295,-0.038 c 0.18973,-0.1574 0.34496,-0.4503 0.34496,-0.6507 0,-0.5529 0.47092,-0.4357 0.66146,0.1647 0.0924,0.291 0.30875,0.529 0.48085,0.5289 0.52634,-2e-4 3.4656,-1.4765 3.83943,-1.9283 0.27405,-0.3311 0.35309,-2.112 0.35858,-8.0801 0.004,-4.2104 -0.0711,-7.9015 -0.16663,-8.2025 -0.0955,-0.301 -0.40571,-0.6209 -0.68931,-0.7109 -0.34739,-0.1102 -0.51563,-0.4024 -0.51563,-0.8954 0,-1.0104 -0.26179,-1.1783 -0.90641,-0.5811 -0.30184,0.2796 -0.83713,0.5486 -1.18953,0.5977 -0.85381,0.1191 -1.03032,0.7439 -0.26655,0.9437 0.58894,0.154 0.59042,0.1627 0.0609,0.3586 -0.59119,0.2187 -0.83537,1.0278 -1.05128,3.4834 -0.16643,1.8929 -0.56128,1.9834 -0.66825,0.1531 -0.12854,-2.1993 -0.64547,-1.8589 -0.85684,0.5642 -0.10205,1.1698 -0.30016,2.127 -0.44025,2.127 -0.38512,0 -0.49282,-0.4753 -0.59951,-2.6458 -0.0536,-1.0914 -0.17286,-1.9546 -0.26493,-1.9183 -0.0921,0.036 -0.45655,0.066 -0.80996,0.066 -1.36005,0 -1.4727,0.4262 -1.49084,5.6413 -0.009,2.6453 -0.11168,6.1194 -0.22772,7.7201 -0.11605,1.6008 -0.11385,3.101 0.005,3.3339 0.17585,0.345 0.5711,0.4043 2.13172,0.3201 1.05373,-0.057 2.07109,-0.2323 2.26081,-0.3898 z m 0.32076,-2.3513 c -0.0522,-1.9683 -0.062,-5.2163 -0.02,-6.5882 0.0337,-1.101 0.11739,-1.3688 0.35376,-1.1324 0.38769,0.3877 0.34665,7.9772 -0.0453,8.3691 -0.17603,0.176 -0.27239,-0.041 -0.28851,-0.6485 z m -11.8881,-1.5082 c 0.0441,-4.0252 0.0481,-4.8986 0.0471,-10.1203 -10e-4,-6.4713 0.10356,-8.7144 0.44807,-9.583 0.21528,-0.5427 0.19409,-0.9976 -0.0863,-1.8521 -0.20441,-0.6229 -0.50439,-1.6449 -0.66663,-2.2711 -0.18929,-0.7305 -0.48761,-1.2097 -0.83259,-1.3373 -0.48411,-0.1791 -0.4958,-0.2336 -0.11748,-0.5476 0.23108,-0.1918 0.42014,-0.6079 0.42014,-0.9248 0,-0.3169 0.14576,-0.7219 0.32392,-0.9001 0.19982,-0.1998 0.349,-1.2942 0.38939,-2.8566 l 0.0655,-2.5326 -0.72011,0.4669 c -0.91095,0.5907 -2.95834,2.6442 -3.00215,3.0112 -0.0939,0.787 -0.26792,4.3995 -0.3128,6.4948 -0.0296,1.38 -0.19624,2.6358 -0.39639,2.9866 -0.18996,0.3329 -0.2675,0.8507 -0.17231,1.1506 0.0952,0.2999 0.0786,1.0991 -0.0367,1.7759 -0.20782,1.219 -0.21194,1.2093 -0.43325,-1.0183 -0.12288,-1.2369 -0.23468,-3.7121 -0.24844,-5.5004 -0.0174,-2.2596 -0.11514,-3.2248 -0.32048,-3.1643 -0.36759,0.1085 -2.35836,4.0179 -2.90198,5.6989 -1.35392,4.1866 -1.17828,11.0471 0.37295,14.5673 0.81095,1.8403 2.38575,4.2924 2.65125,4.1284 0.13407,-0.083 0.24376,-1.8518 0.24376,-3.9309 0,-2.0791 0.0877,-4.8998 0.1949,-6.2682 l 0.19489,-2.4881 0.17106,1.7198 c 0.0941,0.9459 0.18497,4.004 0.20198,6.7958 0.017,2.7918 0.1384,5.3517 0.26977,5.6886 0.44653,1.1451 3.03315,3.3869 3.91119,3.3896 0.21843,8e-4 0.32216,-0.7818 0.34183,-2.5787 z m -1.35113,-9.988 c -0.0912,-0.1455 -0.11422,-1.5147 -0.051,-3.0427 0.0632,-1.528 0.10595,-3.2162 0.0951,-3.7516 -0.0109,-0.5354 0.10153,-1.0484 0.24981,-1.1401 0.33809,-0.2089 0.32425,-0.326 0.3907,3.3042 0.0306,1.6735 -0.0322,3.1618 -0.13964,3.3073 -0.10744,0.1455 -0.23666,0.5622 -0.28716,0.926 -0.0505,0.3638 -0.16648,0.5424 -0.25773,0.3969 z m 21.79854,9.9936 c 0.90824,-0.8337 1.85389,-1.9648 2.10143,-2.5136 0.27042,-0.5994 0.63394,-0.9977 0.91066,-0.9977 0.67314,0 2.33546,-1.9014 3.12925,-3.5794 0.83212,-1.7589 1.30393,-4.1221 1.09003,-5.4597 -0.16499,-1.0318 0.24663,-1.645 0.65974,-0.9828 0.32976,0.5286 1.08642,-0.014 1.36395,-0.9786 0.29,-1.0075 0.19148,-8.9857 -0.12471,-10.1 -0.26348,-0.9286 -0.45028,-1.0359 -0.94379,-0.5424 -0.17463,0.1746 -0.32118,0.2044 -0.32568,0.066 -0.0586,-1.8039 -0.63727,-4.3332 -1.28477,-5.6159 -0.78895,-1.5629 -2.73552,-3.6114 -3.26426,-3.4351 -0.30329,0.1011 -0.34009,9.6359 -0.0559,14.4882 0.10606,1.811 0.043,2.8089 -0.22556,3.5702 l -0.37275,1.0566 -0.44379,-0.8582 c -0.53052,-1.0259 -0.78242,-1.0559 -1.87399,-0.2233 -0.56734,0.4327 -1.05215,0.5927 -1.52291,0.5028 -0.50493,-0.097 -0.76617,0.01 -0.97163,0.393 -0.17874,0.334 -0.28898,3.3919 -0.3029,8.4021 -0.0212,7.6286 0.0364,8.2779 0.73781,8.3194 0.0376,0 0.81155,-0.678 1.71979,-1.5117 z m 7.41226,-16.1073 c -0.36298,-0.8883 -0.19575,-4.6734 0.24328,-5.5061 l 0.40697,-0.7718 0.17336,1.6979 c 0.15616,1.5295 -0.14554,4.6075 -0.48488,4.9468 -0.0737,0.074 -0.22616,-0.091 -0.33873,-0.3668 z m -16.53933,0.334 c 0.25908,-0.2569 0.27652,-0.8878 0.0777,-2.8098 -0.14103,-1.3632 -0.18739,-2.5902 -0.10302,-2.7267 0.34996,-0.5663 0.48433,-3.3459 0.47254,-9.7747 -0.007,-3.7419 -0.0982,-6.8892 -0.20285,-6.9939 -0.5316,-0.5316 -0.67958,0.879 -0.74659,7.1166 -0.0403,3.7471 -0.16772,6.813 -0.28324,6.813 -0.11553,0 -0.21005,-0.2419 -0.21005,-0.5375 0,-0.5933 -0.83213,-1.0671 -0.99837,-0.5684 -0.15105,0.4531 -0.85371,0.3834 -0.85371,-0.085 0,-0.7618 -0.44779,-0.389 -0.75187,0.626 -0.33205,1.1082 -0.408,2.7561 -0.13942,3.0247 0.0919,0.092 0.41603,-0.01 0.72033,-0.2205 0.77223,-0.5409 1.10337,-0.4868 1.59275,0.2601 0.5411,0.8258 0.34668,1.31 -0.79693,1.9848 -0.869,0.5127 -1.6832,1.8647 -1.6832,2.7951 0,0.2295 0.30611,0.7235 0.68025,1.0976 0.59156,0.5916 0.82437,0.6574 1.78593,0.5049 0.60814,-0.096 1.25604,-0.3244 1.43978,-0.5066 z m -2.05387,-1.9015 c 0,-0.4884 0.63281,-0.7715 1.22042,-0.5461 0.34554,0.1326 0.36454,0.2386 0.0999,0.5575 -0.42735,0.5149 -1.32031,0.5072 -1.32031,-0.011 z m 7.47042,-0.2258 c 0.10692,-0.1623 0.21227,-1.9024 0.23413,-3.8669 0.0524,-4.7072 0.24329,-13.6901 0.31138,-14.6506 0.0386,-0.545 -0.13772,-0.9045 -0.62317,-1.2707 -0.78547,-0.5925 -3.51839,-0.9724 -3.79348,-0.5273 -0.23979,0.388 -0.26629,15.8637 -0.0287,16.7744 0.1306,0.5007 0.54591,0.9013 1.35168,1.3037 1.2433,0.6209 1.31984,0.7583 0.88022,1.5798 -0.56465,1.055 0.99978,1.6718 1.66795,0.6576 z m 2.72098,-2.9742 c 0.35788,-0.4489 0.92338,-0.7545 1.59744,-0.8635 l 1.04345,-0.1686 0.17601,-2.2454 c 0.4011,-5.1172 0.52148,-10.5473 0.24526,-11.0634 -0.28726,-0.5368 -1.99083,-1.4752 -3.42418,-1.8863 -1.13005,-0.3241 -1.4884,0.1545 -1.11703,1.4919 0.16036,0.5775 0.28241,3.6736 0.28492,7.228 0.004,5.8991 0.14069,8.2021 0.48626,8.2021 0.0846,0 0.40318,-0.3127 0.70787,-0.6948 z m -16.27682,-6.0521 c 0.18577,-0.2239 0.76255,-0.3969 1.32292,-0.3969 0.55769,0 1.13716,-0.1731 1.32093,-0.3945 0.4498,-0.542 0.78242,-4.8939 0.41979,-5.4925 -0.31127,-0.5138 -2.37688,-0.6675 -2.66677,-0.1984 -0.0899,0.1455 -0.27555,0.2646 -0.41249,0.2646 -0.13693,0 -0.24896,-0.1191 -0.24896,-0.2646 0,-0.1455 0.18233,-0.2646 0.40517,-0.2646 0.22285,0 0.47811,-0.19 0.56725,-0.4223 0.1195,-0.3114 0.37047,-0.3807 0.95561,-0.2637 1.0617,0.2124 1.51155,-0.223 1.51155,-1.4631 0,-0.9145 -0.0709,-1.0259 -0.65331,-1.0259 -0.75001,0 -2.75656,0.9714 -3.25561,1.576 -0.24494,0.2968 -0.32169,1.4567 -0.28087,4.2448 0.0685,4.6778 0.17591,5.1119 1.01479,4.1011 z m 5.3821,-0.7933 c 0.52185,-0.2181 1.07217,-0.627 1.22294,-0.9087 0.35551,-0.6643 0.34921,-3.0441 -0.0115,-4.3431 -0.27678,-0.9967 -0.30292,-1.0141 -1.25469,-0.8356 -0.53462,0.1003 -1.05978,0.3203 -1.16702,0.4888 -0.36555,0.5745 -0.19165,5.995 0.19232,5.995 0.038,0 0.49609,-0.1784 1.01793,-0.3964 z m 1.13635,-7.4269 c 0.35071,-0.5352 0.3934,-0.8863 0.20108,-1.6536 -0.22218,-0.8866 -0.32178,-0.9706 -1.10788,-0.9343 -1.2389,0.057 -1.6429,0.5053 -1.6429,1.8226 0,1.2003 0.18348,1.3892 1.38296,1.424 0.497,0.014 0.86005,-0.1906 1.16674,-0.6587 z m 9.15811,40.7138 c 0.25466,-0.067 0.67138,-0.067 0.92604,0 0.25466,0.067 0.0463,0.121 -0.46302,0.121 -0.50932,0 -0.71768,-0.054 -0.46302,-0.121 z m 13.25188,-17.1656 c -0.0875,-0.228 -0.0242,-0.5495 0.14059,-0.7144 0.22324,-0.2232 0.29972,-0.1174 0.29972,0.4147 0,0.7961 -0.19811,0.9309 -0.44031,0.2997 z m -51.68404,-6.7409 c -0.65406,-0.5886 -1.44251,-1.3147 -1.75211,-1.6135 -0.63209,-0.6102 -1.00097,-2.5327 -0.66186,-3.4494 0.12014,-0.3248 0.12475,-1.0059 0.0102,-1.5136 -0.11451,-0.5077 -0.14822,-1.0201 -0.0749,-1.1387 0.20682,-0.3347 0.17931,-13.4497 -0.0305,-14.5434 -0.1025,-0.5344 -0.10588,-1.338 -0.007,-1.786 0.22267,-1.0138 0.85808,-1.0639 1.94066,-0.1529 0.43236,0.3638 0.90169,0.6614 1.04296,0.6614 0.14127,0 0.56603,0.2432 0.94393,0.5405 l 0.68707,0.5404 0.0253,4.4205 c 0.0139,2.4313 0.0356,4.7777 0.0482,5.2142 0.0126,0.4366 8.2e-4,1.0914 -0.0261,1.4553 -0.0269,0.3638 -0.006,2.0306 0.0476,3.7041 0.0531,1.6735 0.0134,3.4188 -0.0881,3.8785 -0.10157,0.4597 -0.0638,1.4471 0.0839,2.1942 0.28689,1.4509 -0.0137,2.6586 -0.66168,2.6586 -0.18581,0 -0.87297,-0.4816 -1.52702,-1.0702 z m 1.85352,-0.8068 c 0,-1.2156 -0.64255,-2.3564 -1.32722,-2.3564 -0.59228,0 -1.68968,-1.755 -1.26248,-2.019 0.27969,-0.1729 0.79839,0.3302 1.41596,1.3734 0.50553,0.8539 1.17374,0.2807 1.17374,-1.007 0,-1.2863 -0.58333,-2.3161 -1.31194,-2.3161 -0.50633,0 -1.66102,-1.5369 -1.4325,-1.9066 0.24612,-0.3982 0.85709,-0.2088 1.02415,0.3175 0.52991,1.6696 1.72029,1.4652 1.72029,-0.2954 0,-1.0661 -0.70207,-2.0843 -1.4372,-2.0843 -0.20837,0 -0.63319,-0.3572 -0.94405,-0.7937 -0.31086,-0.4366 -0.79522,-0.7938 -1.07635,-0.7938 -0.41894,0 -0.51115,0.1887 -0.51115,1.0459 0,0.5753 0.13964,1.3524 0.31032,1.727 0.23737,0.521 0.23737,0.754 0,0.9914 -0.37818,0.3782 -0.41373,2.4906 -0.0457,2.718 0.3656,0.226 0.33301,1.1237 -0.0454,1.2499 -0.54131,0.1804 -0.28675,2.3483 0.35609,3.0326 0.3164,0.3368 0.69489,0.6123 0.84109,0.6123 0.14621,0 0.65659,0.4266 1.13419,0.9481 1.02523,1.1192 1.41817,0.9963 1.41817,-0.4438 z m 0,-11.8988 c 0,-1.3274 -0.38759,-2.0992 -1.05418,-2.0992 -0.44463,0 -1.85624,-1.4778 -1.85624,-1.9432 0,-0.4549 1.04709,-0.098 1.43088,0.488 0.23837,0.3638 0.66878,0.6614 0.95647,0.6614 0.44638,0 0.52307,-0.1812 0.52307,-1.2359 0,-1.3027 -0.53231,-2.2056 -1.29778,-2.2013 -0.23211,0 -0.73235,-0.3752 -1.11165,-0.8366 -0.94355,-1.1479 -1.55932,-0.8973 -1.55932,0.6348 0,0.627 0.1764,1.3919 0.39201,1.6997 0.34629,0.4944 0.34629,0.5976 0,0.885 -0.49032,0.407 -0.50572,2.3376 -0.0237,2.9725 0.19331,0.2547 0.59814,0.4631 0.89961,0.4631 0.30704,0 0.79672,0.3491 1.11333,0.7937 0.31086,0.4366 0.79521,0.7938 1.07635,0.7938 0.42133,0 0.51115,-0.1891 0.51115,-1.0758 z m 0,-8.0977 c 0,-1.3128 -0.53207,-2.2036 -1.31621,-2.2036 -0.24225,0 -0.69926,-0.2977 -1.01558,-0.6615 -0.66975,-0.7703 -1.62349,-0.8839 -1.665,-0.1984 -0.11501,1.8995 0.42553,2.9766 1.49382,2.9766 0.3374,0 0.77559,0.2832 1.02343,0.6614 0.23837,0.3638 0.66878,0.6615 0.95647,0.6615 0.44638,0 0.52307,-0.1812 0.52307,-1.236 z m 62.30906,15.7876 c -0.23357,-0.378 1.02238,-0.7933 2.39878,-0.7933 1.5068,0 1.50575,0.3827 -0.002,0.7623 -1.45458,0.3663 -2.18362,0.3757 -2.39669,0.031 z m -12.5674,-2.1162 c 0,-0.294 0.17639,-0.5292 0.39688,-0.5292 0.22048,0 0.39687,0.2352 0.39687,0.5292 0,0.294 -0.17639,0.5292 -0.39687,0.5292 -0.22049,0 -0.39688,-0.2352 -0.39688,-0.5292 z"
         id="path110796" />
      <path
         style="fill:#7e7e7e;stroke-width:0.264583"
         d="m -498.56178,2596.438 c 0.0516,-0.2679 0.27076,-0.4871 0.48705,-0.4871 0.56714,0 0.48522,0.7688 -0.0938,0.8803 -0.35359,0.068 -0.46134,-0.04 -0.39325,-0.3932 z m 47.03614,-6.2481 c 0.41294,-0.5477 0.22028,-0.857 -0.38828,-0.6235 -0.24731,0.095 -0.34649,0.3022 -0.23718,0.4957 0.14268,0.2526 0.0995,0.2504 -0.17946,-0.01 -0.31284,-0.291 -0.30879,-0.3787 0.0273,-0.5912 0.93662,-0.5922 1.69061,0.042 0.90348,0.7599 -0.45007,0.4105 -0.45788,0.4086 -0.12589,-0.032 z m -59.53732,-0.9197 -0.64144,-0.7276 0.68109,0.5977 c 0.3746,0.3288 0.78064,0.5074 0.90232,0.3969 0.12167,-0.1105 0.13558,-0.052 0.0309,0.1299 -0.25052,0.4353 -0.23289,0.4425 -0.97287,-0.3969 z m -1.70938,-2.0315 c -0.58737,-0.5925 -0.75945,-0.8094 -0.3824,-0.482 0.37705,0.3274 0.81513,0.5953 0.97349,0.5953 0.25544,0 0.73278,0.7968 0.54923,0.9168 -0.0398,0.026 -0.55295,-0.4375 -1.14032,-1.0301 z m 2.08967,-0.5482 c -0.0838,-0.2183 -0.36495,-0.3968 -0.62485,-0.3968 -0.2599,0 -0.54482,-0.1884 -0.63315,-0.4186 -0.23799,-0.6202 -0.18736,-0.8272 0.0937,-0.3829 0.45237,0.7153 0.58438,0.068 0.15534,-0.7615 -0.49544,-0.958 -0.77885,-1.0732 -0.54867,-0.223 0.14884,0.5498 0.13069,0.5448 -0.23738,-0.066 -0.52192,-0.8663 -0.51345,-1.0604 0.0457,-1.0488 0.27916,0.01 0.67315,0.4523 0.99219,1.1245 0.35085,0.7392 0.68832,1.102 1.00147,1.0766 0.37311,-0.03 0.40857,0.039 0.16884,0.3274 -0.16691,0.2011 -0.23436,0.5457 -0.14988,0.7659 0.0845,0.2201 0.094,0.4002 0.0213,0.4002 -0.0728,0 -0.20082,-0.1786 -0.28458,-0.3969 z m -3.47388,-1.9843 c 0,-0.5094 0.0545,-0.7177 0.121,-0.4631 0.0665,0.2547 0.0665,0.6714 0,0.9261 -0.0666,0.2546 -0.121,0.046 -0.121,-0.463 z m 25.1173,0.4349 c -1.43002,-0.3825 -1.99344,-1.0781 -1.74515,-2.1547 0.10068,-0.4366 0.2569,-1.3296 0.34715,-1.9844 0.14527,-1.054 0.24764,-1.2003 0.89171,-1.2744 0.59345,-0.068 0.72686,-0.2146 0.72355,-0.7937 -0.005,-0.9408 -0.28974,-1.3438 -0.90768,-1.2863 -0.72742,0.068 -1.00761,-1.3833 -1.04316,-5.4018 -0.0323,-3.6536 0.0952,-4.0349 1.4396,-4.3038 l 0.79576,-0.1591 -0.54249,-1.0634 c -0.29836,-0.5848 -0.70592,-1.0633 -0.90567,-1.0633 -0.55002,0 -0.68473,-0.6195 -0.6808,-3.1305 0.005,-2.8868 0.66767,-5.3136 1.54017,-5.6364 0.51848,-0.1918 0.64143,-0.1114 0.88115,0.5763 0.2336,0.6701 0.34257,0.7461 0.67476,0.4704 0.39486,-0.3277 0.36491,-1.6203 -0.0709,-3.0616 -0.15602,-0.516 -0.0837,-0.5953 0.54234,-0.5953 0.70798,0 0.71874,0.024 0.54077,1.2109 -0.10862,0.7243 -0.0481,1.7318 0.15066,2.5072 0.26853,1.0478 0.26608,1.6909 -0.0128,3.3532 -0.39179,2.3356 -0.39236,2.1267 0.0137,5.0091 0.40302,2.8607 0.24084,3.4883 -0.88824,3.4369 -0.73371,-0.033 -0.87371,0.059 -0.94311,0.6223 -0.0448,0.3638 -0.25319,1.0366 -0.46302,1.4951 -0.41442,0.9057 -0.50207,2.6678 -0.15956,3.2075 0.1655,0.2607 0.30509,0.2308 0.61719,-0.1323 0.22183,-0.2581 0.47645,-0.6757 0.56582,-0.9279 0.10143,-0.2862 0.3204,-0.3979 0.58272,-0.2973 0.31746,0.1219 0.40892,0.4928 0.37397,1.5169 -0.0568,1.6644 0.47363,8.5607 0.68471,8.9022 0.0842,0.1363 0.0243,0.4883 -0.13303,0.7824 -0.3243,0.6059 -1.08713,0.6526 -2.87008,0.1758 z m 2.2846,-0.6111 c 0.11228,-0.7564 -0.41361,-1.0794 -1.931,-1.1861 -1.19783,-0.084 -1.33079,-0.038 -1.40624,0.493 -0.065,0.457 0.0806,0.6222 0.66146,0.7508 0.40963,0.091 1.04244,0.2635 1.40624,0.3841 0.88545,0.2937 1.17533,0.1928 1.26954,-0.4418 z m -2.59933,-13.9322 c 0.40104,-1.5126 0.41895,-1.8282 0.11047,-1.9466 -0.93523,-0.3588 -1.16193,0.1048 -1.16193,2.3765 0,2.1033 0.29653,3.3239 0.48485,1.9958 0.0484,-0.3413 0.30336,-1.4328 0.56661,-2.4257 z m 2.65271,-3.3647 c 0,-0.1513 -0.2454,-0.7561 -0.54533,-1.344 -0.29993,-0.588 -0.52488,-1.3274 -0.49988,-1.6432 0.0878,-1.109 -0.0167,-1.5002 -0.40069,-1.5002 -0.65954,0 -0.96336,0.9006 -0.51822,1.5362 0.25318,0.3614 0.32818,0.8137 0.21182,1.2773 -0.148,0.5897 -0.0432,0.8273 0.58765,1.3321 0.838,0.6705 1.16465,0.7664 1.16465,0.3418 z m -2.38125,-6.3485 c 0.34352,-0.2299 0.32782,-0.3183 -0.11672,-0.6574 -0.72409,-0.5525 -0.94161,-0.4902 -0.94161,0.2696 0,0.6931 0.38897,0.8357 1.05833,0.3878 z m 3.99376,24.1127 c -0.11873,-0.2329 -0.12093,-1.7331 -0.005,-3.3339 0.11604,-1.6007 0.21851,-5.0748 0.22772,-7.7201 0.0181,-5.2151 0.1308,-5.6413 1.49085,-5.6413 0.35341,0 0.71789,-0.03 0.80996,-0.066 0.0921,-0.036 0.21129,0.8269 0.26493,1.9183 0.10669,2.1705 0.21439,2.6458 0.59951,2.6458 0.14009,0 0.3382,-0.9572 0.44025,-2.127 0.21137,-2.4231 0.7283,-2.7635 0.85684,-0.5642 0.10697,1.8303 0.50182,1.7398 0.66825,-0.1531 0.21591,-2.4556 0.46009,-3.2647 1.05128,-3.4834 0.52947,-0.1959 0.52799,-0.2046 -0.0609,-0.3586 -0.76377,-0.1998 -0.58726,-0.8246 0.26655,-0.9437 0.3524,-0.049 0.88769,-0.3181 1.18953,-0.5977 0.64462,-0.5972 0.90641,-0.4293 0.90641,0.5811 0,0.493 0.16824,0.7852 0.51563,0.8954 0.2836,0.09 0.59379,0.4099 0.68931,0.7109 0.0955,0.301 0.17051,3.9921 0.16663,8.2025 -0.006,5.9681 -0.0845,7.749 -0.35858,8.0801 -0.37383,0.4518 -3.31309,1.928 -3.83943,1.9283 -0.1721,1e-4 -0.38848,-0.2379 -0.48085,-0.5289 -0.19054,-0.6004 -0.66146,-0.7176 -0.66146,-0.1647 0,0.6676 -0.67248,0.9361 -2.60577,1.0405 -1.56062,0.084 -1.95588,0.025 -2.13172,-0.3201 z m 4.16498,-0.3967 c 0.49629,-0.3067 0.35677,-0.6827 -0.35353,-0.9528 -0.71556,-0.272 -0.89972,-0.7937 -0.2802,-0.7937 0.5741,0 0.73423,-0.4449 0.37005,-1.028 -0.23297,-0.373 -0.24842,-0.6944 -0.0546,-1.1352 0.24947,-0.5675 0.13969,-1.7927 -0.16755,-1.8701 -0.43921,-0.1107 -1.85209,0.6345 -1.85209,0.9768 0,0.3881 -0.28395,0.518 -0.95797,0.4382 -0.28731,-0.034 -0.69895,4.0995 -0.45124,4.531 0.13649,0.2378 3.32209,0.097 3.74712,-0.1662 z m -2.07332,-2.2757 c 0,-0.1455 0.24515,-0.2646 0.54478,-0.2646 0.29963,0 0.47119,0.1191 0.38126,0.2646 -0.0899,0.1455 -0.33509,0.2646 -0.54479,0.2646 -0.20969,0 -0.38125,-0.1191 -0.38125,-0.2646 z m 5.68854,1.4481 c 0.7276,-0.3665 1.47174,-0.865 1.65364,-1.1078 0.24632,-0.3288 0.33073,-2.3448 0.33073,-7.8991 0,-5.6435 -0.0804,-7.5244 -0.33073,-7.7318 -0.22938,-0.1902 -0.77011,-0.1752 -1.76457,0.049 -1.33118,0.3 -1.45988,0.3978 -1.79757,1.3663 -0.27395,0.7856 -0.32443,1.9248 -0.20452,4.615 0.18826,4.2234 0.167,9.5135 -0.0396,9.8477 -0.23342,0.3777 0.14642,1.5295 0.50398,1.5283 0.17913,-6e-4 0.921,-0.301 1.64861,-0.6675 z m -2.46882,-4.7101 c 0.0311,-2.6783 -0.0516,-3.9945 -0.26432,-4.2072 -0.33631,-0.3363 -0.41609,0.6539 -0.37796,4.6911 0.0357,3.7748 0.0523,3.9584 0.3327,3.678 0.14768,-0.1477 0.28429,-1.9842 0.30958,-4.1619 z m -3.07682,-7.6031 c 0.0958,-0.1549 0.0974,-0.6907 0.004,-1.1906 -0.21473,-1.1446 -0.94027,-1.2502 -0.94027,-0.1368 0,1.3453 0.49341,2.0446 0.93665,1.3274 z m -30.90538,11.6365 c 0.10516,-0.4022 0.20122,-0.4593 0.35464,-0.2111 0.22771,0.3684 0.0857,0.7626 -0.27467,0.7626 -0.12331,0 -0.1593,-0.2482 -0.08,-0.5515 z m 20.04685,0.062 c -1.06804,-0.6559 -2.51028,-2.1482 -2.80386,-2.9011 -0.13137,-0.3369 -0.25276,-2.8968 -0.26977,-5.6886 -0.017,-2.7918 -0.1079,-5.8499 -0.20198,-6.7958 l -0.17106,-1.7198 -0.19489,2.4881 c -0.10719,1.3684 -0.1949,4.1891 -0.1949,6.2682 0,2.0791 -0.10969,3.848 -0.24376,3.9309 -0.2655,0.164 -1.8403,-2.2881 -2.65125,-4.1284 -1.55123,-3.5202 -1.72687,-10.3807 -0.37295,-14.5673 0.54362,-1.681 2.53439,-5.5904 2.90198,-5.6989 0.20534,-0.061 0.3031,0.9047 0.32048,3.1643 0.0138,1.7883 0.12556,4.2635 0.24844,5.5004 0.22131,2.2276 0.22543,2.2373 0.43325,1.0183 0.11539,-0.6768 0.13193,-1.476 0.0367,-1.7759 -0.0952,-0.2999 -0.0177,-0.8177 0.17231,-1.1506 0.20015,-0.3508 0.36683,-1.6066 0.39639,-2.9866 0.0449,-2.0953 0.21886,-5.7078 0.3128,-6.4948 0.0438,-0.367 2.0912,-2.4205 3.00215,-3.0112 l 0.72011,-0.4669 -0.0655,2.5326 c -0.0404,1.5624 -0.18957,2.6568 -0.38939,2.8566 -0.17816,0.1782 -0.32392,0.5832 -0.32392,0.9001 0,0.3169 -0.18906,0.733 -0.42014,0.9248 -0.37832,0.314 -0.36663,0.3685 0.11748,0.5476 0.34498,0.1276 0.6433,0.6068 0.83259,1.3373 0.16224,0.6262 0.46222,1.6482 0.66663,2.2711 0.28037,0.8545 0.30156,1.3094 0.0863,1.8521 -0.34451,0.8686 -0.44939,3.1117 -0.44807,9.583 5.6e-4,2.6922 -0.003,5.4901 -0.009,6.2177 -0.0544,7.2616 0.0293,6.9243 -1.48732,5.9928 z m -10e-4,-1.102 c -0.10672,-0.3362 0.056,-0.8976 0.44056,-1.5198 0.60585,-0.9803 0.95105,-2.9741 0.51492,-2.9741 -0.12538,0 -0.37856,0.1815 -0.56264,0.4033 -0.77419,0.9328 -0.81872,0.4795 -0.92195,-9.3856 -0.0773,-7.3838 -0.12389,-8.0852 -0.55869,-8.4031 -0.74577,-0.5453 -1.66703,0.7464 -1.64339,2.3042 0.01,0.6548 0.007,2.7384 -0.007,4.6302 -0.0636,8.7921 0.0887,13.4481 0.44375,13.5664 0.19267,0.064 0.71782,0.5206 1.16699,1.0142 0.91953,1.0105 1.37953,1.1592 1.12725,0.3643 z m -4.07413,-10.91 c 0.0141,-3.82 0.003,-7.4216 -0.0241,-8.0037 -0.0516,-1.0995 -0.42475,-1.8165 -0.81859,-1.5731 -0.12535,0.077 -0.36463,-0.4021 -0.53173,-1.0657 -0.32298,-1.2827 -0.70202,-1.7324 -1.02278,-1.2134 -0.10765,0.1742 -0.4684,1.6912 -0.80167,3.3711 -0.67513,3.4031 -0.63245,6.1287 0.1515,9.6772 0.40284,1.8234 2.31832,5.7529 2.80431,5.7529 0.11957,0 0.22894,-3.1254 0.24304,-6.9453 z m 4.71832,-1.3891 c 0.10744,-0.1455 0.17028,-1.6338 0.13964,-3.3073 -0.0665,-3.6302 -0.0526,-3.5131 -0.3907,-3.3042 -0.14828,0.092 -0.26069,0.6047 -0.24981,1.1401 0.0109,0.5354 -0.0319,2.2236 -0.0951,3.7516 -0.10526,2.5462 0.0901,4.2207 0.30878,2.6458 0.0505,-0.3638 0.17972,-0.7805 0.28716,-0.926 z m -17.61286,12.9646 c -0.0838,-0.2183 -0.35857,-0.3969 -0.61069,-0.3969 -0.25211,0 -0.59656,-0.3033 -0.76544,-0.6739 -0.42913,-0.9419 -0.3825,-1.1391 0.10482,-0.4433 0.67105,0.958 0.94109,0.6692 0.3349,-0.3582 -0.3678,-0.6234 -0.62504,-0.8382 -0.75391,-0.6297 -0.1403,0.227 -0.26993,0.1837 -0.45837,-0.153 -0.17284,-0.3088 -0.42254,-0.4082 -0.72979,-0.2903 -0.38836,0.1491 -0.41233,0.1133 -0.14227,-0.2121 0.17864,-0.2152 0.24618,-0.5454 0.1501,-0.7336 -0.0961,-0.1883 -0.004,-0.134 0.20483,0.1207 0.20873,0.2546 0.60451,0.4673 0.87951,0.4726 0.32281,0.01 0.68753,0.4047 1.02917,1.1245 0.35085,0.7391 0.68832,1.1019 1.00147,1.0765 0.37311,-0.03 0.40857,0.039 0.16884,0.3274 -0.16691,0.2011 -0.23436,0.5458 -0.14988,0.7659 0.0845,0.2201 0.094,0.4003 0.0213,0.4003 -0.0728,0 -0.20082,-0.1786 -0.28458,-0.3969 z m 36.73265,-0.3596 c -0.44517,-0.2824 -0.46462,-15.6691 -0.0208,-16.4983 0.20546,-0.3839 0.4667,-0.4896 0.97164,-0.393 0.47076,0.09 0.95557,-0.07 1.52291,-0.5028 1.09156,-0.8326 1.34347,-0.8026 1.87399,0.2233 l 0.44378,0.8582 0.37276,-1.0566 c 0.26857,-0.7613 0.33161,-1.7592 0.22556,-3.5702 -0.28417,-4.8523 -0.24737,-14.3871 0.0559,-14.4882 0.52874,-0.1763 2.47531,1.8722 3.26425,3.4351 0.6475,1.2827 1.22616,3.812 1.28478,5.6159 0.005,0.1383 0.15105,0.1085 0.32567,-0.066 0.49351,-0.4935 0.68032,-0.3862 0.9438,0.5424 0.31619,1.1143 0.4147,9.0925 0.12471,10.1 -0.27754,0.9643 -1.03419,1.5072 -1.36396,0.9786 -0.4131,-0.6622 -0.82472,-0.049 -0.65973,0.9828 0.21389,1.3376 -0.25791,3.7008 -1.09003,5.4597 -0.79379,1.678 -2.45611,3.5794 -3.12925,3.5794 -0.27672,0 -0.64024,0.3983 -0.91066,0.9977 -0.34559,0.7661 -3.45986,4.0467 -3.82122,4.0253 -0.0376,0 -0.22397,-0.1027 -0.41407,-0.2232 z m 2.29758,-1.9637 c 0.89007,-0.8437 1.38297,-1.5486 1.4802,-2.1167 0.0802,-0.4684 0.17418,-3.5306 0.20889,-6.8048 0.0621,-5.858 0.0543,-5.9544 -0.4892,-6.0321 -0.30377,-0.043 -0.70531,0.1055 -0.89229,0.3308 -0.19639,0.2366 -0.75932,0.4096 -1.33284,0.4096 -0.90034,0 -1.00827,0.077 -1.15823,0.8268 -0.2179,1.0896 -0.21459,14.6462 0.004,14.8644 0.24256,0.2426 0.67166,-0.048 2.17983,-1.478 z m 4.94641,-5.2778 c 0.0862,-0.2718 -8e-4,-0.6842 -0.1937,-0.9165 -0.30598,-0.3686 -0.27998,-0.3999 0.20459,-0.2461 0.92359,0.2931 1.46186,-1.6041 1.59308,-5.6151 0.13329,-4.0743 0.0361,-4.2836 -1.87662,-4.0427 -1.27615,0.1607 -1.31792,0.194 -1.53761,1.2236 -0.16637,0.7797 -0.12526,10.6732 0.0465,11.1865 0.0761,0.2274 1.63219,-1.1752 1.76377,-1.5897 z m 3.037,-11.479 c 0.14415,-0.8566 0.18408,-2.3215 0.0887,-3.2553 l -0.17336,-1.6979 -0.40697,0.7718 c -0.62851,1.192 -0.54207,6.5105 0.0954,5.8729 0.0737,-0.074 0.25199,-0.8349 0.39614,-1.6915 z m -2.8344,-4.8562 c 0.46009,0.025 0.96727,0.033 1.12705,0.018 0.41605,-0.038 0.69712,-5.3182 0.36258,-6.811 -0.32129,-1.4337 -2.53131,-4.5929 -3.21293,-4.5929 -0.33589,0 -0.25861,2.4997 0.088,2.8463 0.23199,0.232 0.22481,0.4044 -0.0296,0.711 -0.18473,0.2226 -0.25684,0.6107 -0.16024,0.8624 0.0966,0.2518 0.17131,1.9941 0.16601,3.8718 -0.01,3.4895 0.12251,4.3001 0.57128,3.4982 0.16422,-0.2935 0.54129,-0.4335 1.08786,-0.4041 z m -44.14263,20.0998 c -0.0899,-0.1455 -0.38188,-0.2646 -0.64877,-0.2646 -0.26688,0 -0.55751,-0.1883 -0.64584,-0.4185 -0.24484,-0.638 -0.19339,-0.7784 0.1569,-0.4281 0.38297,0.3829 1.10412,0.4266 0.87312,0.053 -0.0905,-0.1465 0.10231,-0.2646 0.43183,-0.2646 0.57347,0 0.57684,0.014 0.0917,0.3682 -0.42788,0.3129 -0.4505,0.4323 -0.15046,0.7938 0.19422,0.234 0.28605,0.4255 0.20406,0.4255 -0.082,0 -0.22265,-0.1191 -0.31259,-0.2646 z m -1.96096,-2.3032 c -0.28261,-0.6203 -0.26195,-0.7656 0.15178,-1.0682 0.42392,-0.3099 0.50002,-0.2713 0.66267,0.3369 0.10106,0.3779 0.32593,0.8878 0.49971,1.1332 0.17377,0.2454 0.009,0.1187 -0.36583,-0.2815 -0.81102,-0.8655 -1.10381,-0.9396 -0.69504,-0.1758 0.16244,0.3035 0.2455,0.6017 0.18458,0.6626 -0.0609,0.061 -0.25795,-0.2123 -0.43787,-0.6072 z m -0.98751,-1.245 c 0.0209,-0.3489 0.12735,-0.5792 0.23649,-0.5118 0.27418,0.1693 0.24933,0.8223 -0.038,0.9999 -0.13007,0.08 -0.21936,-0.1392 -0.19844,-0.4881 z m 3.12941,-0.2871 c -0.16912,-0.3712 -0.52465,-0.6626 -0.80842,-0.6626 -0.27859,0 -0.56989,-0.1651 -0.64734,-0.3669 -0.10063,-0.2623 0.0131,-0.3267 0.3986,-0.2259 0.46273,0.121 0.50028,0.07 0.26417,-0.3607 -0.53754,-0.9799 -1.06715,-1.5565 -1.25611,-1.3676 -0.10539,0.1054 -0.0386,0.376 0.14837,0.6013 0.18699,0.2253 0.28351,0.4661 0.21449,0.5352 -0.069,0.069 -0.28876,-0.1796 -0.48829,-0.5524 -0.23507,-0.4392 -0.5246,-0.6356 -0.82244,-0.5577 -0.36886,0.096 -0.4061,0.034 -0.18854,-0.3139 0.14977,-0.2398 0.61349,-0.4341 1.03603,-0.4341 0.61207,0 0.79566,0.1399 0.91871,0.7002 0.19564,0.8907 1.03344,1.67 1.49618,1.3916 0.25987,-0.1564 0.25427,-0.094 -0.0222,0.2465 -0.29583,0.3645 -0.30706,0.5928 -0.0562,1.1433 0.17236,0.3783 0.26874,0.7325 0.21417,0.787 -0.0546,0.055 -0.23507,-0.1989 -0.40111,-0.5633 z m 0,-3.9688 c -0.16604,-0.3644 -0.46846,-0.6625 -0.67204,-0.6625 -0.20358,0 -0.5106,-0.1693 -0.68225,-0.3761 -0.25609,-0.3086 -0.21442,-0.3505 0.23219,-0.2337 0.71917,0.188 0.67368,-0.1425 -0.15277,-1.11 l -0.67803,-0.7938 0.15922,0.7938 0.15922,0.7937 -0.41937,-0.7528 c -0.30346,-0.5447 -0.56383,-0.715 -0.94201,-0.6161 -0.41997,0.1098 -0.46321,0.065 -0.22015,-0.2278 0.16636,-0.2005 0.22387,-0.5185 0.12779,-0.7068 -0.0961,-0.1883 -0.004,-0.134 0.20483,0.1207 0.20873,0.2547 0.60451,0.4638 0.87951,0.4647 0.28089,0 0.70389,0.3599 0.96527,0.8191 0.2559,0.4496 0.70489,0.8801 0.99776,0.9567 0.4053,0.106 0.46358,0.2223 0.24398,0.4869 -0.20892,0.2517 -0.20454,0.5045 0.0159,0.9164 0.16741,0.3128 0.25454,0.6185 0.19363,0.6795 -0.0609,0.061 -0.2466,-0.1875 -0.41264,-0.5519 z m -1.51474,-4.9135 c -0.28044,-0.4537 -0.0293,-0.4983 0.52489,-0.093 0.42917,0.3138 0.44249,0.3752 0.0813,0.3752 -0.2375,0 -0.51031,-0.127 -0.60623,-0.2822 z m 27.81092,-0.8656 c -0.37414,-0.3741 -0.68025,-0.8681 -0.68025,-1.0976 0,-0.9304 0.8142,-2.2824 1.6832,-2.7951 1.14361,-0.6748 1.33803,-1.159 0.79693,-1.9848 -0.48938,-0.7469 -0.82052,-0.801 -1.59275,-0.2601 -0.3043,0.2132 -0.62845,0.3124 -0.72033,0.2205 -0.26858,-0.2686 -0.19263,-1.9165 0.13942,-3.0247 0.30408,-1.015 0.75187,-1.3878 0.75187,-0.626 0,0.4681 0.70266,0.5378 0.85371,0.085 0.16624,-0.4987 0.99837,-0.025 0.99837,0.5684 0,0.2956 0.0945,0.5375 0.21005,0.5375 0.11552,0 0.24298,-3.0659 0.28324,-6.813 0.067,-6.2376 0.21499,-7.6482 0.74659,-7.1166 0.1047,0.1047 0.19598,3.252 0.20285,6.9939 0.0118,6.4288 -0.12258,9.2084 -0.47254,9.7747 -0.0844,0.1365 -0.038,1.3635 0.10302,2.7267 0.29497,2.851 0.2072,3.0429 -1.51745,3.3164 -0.96156,0.1525 -1.19437,0.087 -1.78593,-0.5049 z m 2.49215,-1.8918 c 0.26465,-0.3189 0.24565,-0.4249 -0.0999,-0.5575 -0.58761,-0.2254 -1.22042,0.058 -1.22042,0.5461 0,0.5186 0.89296,0.5263 1.32031,0.011 z m 4.51951,0.02 c -0.23397,-0.2819 -0.24404,-0.5284 -0.0374,-0.9146 0.43962,-0.8215 0.36308,-0.9589 -0.88022,-1.5798 -0.80577,-0.4024 -1.22108,-0.803 -1.35168,-1.3037 -0.27462,-1.0527 -0.19171,-16.5105 0.0901,-16.7923 0.1311,-0.1311 0.70055,-0.1908 1.26543,-0.1325 l 1.02705,0.1058 -1.11181,0.044 -1.11181,0.044 0.0323,7.7962 c 0.0178,4.288 0.11912,7.9367 0.22521,8.1084 0.25353,0.4102 1.04004,0.099 1.04004,-0.4114 0,-0.2191 0.35719,-0.5831 0.79375,-0.8088 0.43656,-0.2258 0.79448,-0.5563 0.79538,-0.7344 7.9e-4,-0.1782 0.18474,-0.6751 0.40854,-1.1043 0.33162,-0.636 0.39328,-1.673 0.33324,-5.6045 -0.0405,-2.6533 0.0138,-4.9116 0.12063,-5.0185 0.41102,-0.411 0.16969,-1.1868 -0.44146,-1.4192 -0.34967,-0.1329 -0.71388,-0.3681 -0.80937,-0.5226 -0.30118,-0.4873 0.54998,-0.3045 1.28907,0.2768 0.64796,0.5097 0.69325,0.6632 0.52558,1.7814 -0.10092,0.673 -0.20802,3.3093 -0.238,5.8584 -0.03,2.5491 -0.0737,6.2421 -0.0971,8.2067 -0.0234,1.9645 -0.13003,3.7046 -0.23695,3.8669 -0.34303,0.5207 -1.28811,0.6697 -1.6306,0.257 z m -35.14061,-1.8583 c -0.81689,-0.4518 -1.65546,-1.2363 -1.65546,-1.5486 0,-0.1426 0.24676,0.054 0.54837,0.4379 0.3016,0.3834 0.76511,0.6971 1.03002,0.6971 0.26491,0 0.55019,0.1786 0.63395,0.3969 0.0838,0.2183 0.12627,0.3852 0.0945,0.3709 -0.0318,-0.014 -0.32492,-0.1736 -0.65134,-0.3542 z m 38.46644,-1.6703 c -0.0902,-0.5457 -0.16597,-3.7902 -0.16838,-7.2099 -0.002,-3.5544 -0.12456,-6.6505 -0.28492,-7.228 -0.37137,-1.3374 -0.013,-1.816 1.11703,-1.4919 1.43335,0.4111 3.13692,1.3495 3.42418,1.8863 0.27622,0.5161 0.15584,5.9462 -0.24526,11.0634 l -0.17601,2.2454 -1.04345,0.1686 c -0.67406,0.109 -1.23956,0.4146 -1.59744,0.8635 -0.30469,0.3821 -0.62324,0.6948 -0.70787,0.6948 -0.0846,0 -0.22768,-0.4465 -0.31788,-0.9922 z m 1.68226,-8.5328 c 0,-0.4566 0.18586,-0.595 0.79375,-0.591 0.0728,5e-4 0.41194,0.086 0.75373,0.1897 0.54045,0.1643 0.59888,0.1179 0.44836,-0.3564 -0.0952,-0.2999 -0.0612,-0.7581 0.0755,-1.0183 0.13673,-0.2602 0.17309,-1.2378 0.0808,-2.1724 -0.166,-1.6812 -0.18023,-1.706 -1.32451,-2.3102 -0.6362,-0.3359 -1.46963,-0.6427 -1.85209,-0.6818 -0.76587,-0.078 -0.73082,-0.2889 -0.50466,3.0321 0.075,1.1004 0.26301,1.6857 0.6865,2.1365 0.4529,0.4821 0.54573,0.8086 0.41527,1.4609 -0.10908,0.5454 -0.0636,0.84 0.12966,0.84 0.16371,0 0.29765,-0.2381 0.29765,-0.5291 z m -39.95208,8.333 c 0,-0.2015 0.24921,-0.2745 0.66537,-0.195 0.94833,0.1813 1.00581,0.4559 0.10237,0.4891 -0.4424,0.016 -0.76774,-0.1084 -0.76774,-0.2941 z m 0.7731,-0.9749 -0.32093,-0.6113 0.58382,0.5187 c 0.5005,0.4446 0.62214,0.4635 0.85239,0.1323 0.23314,-0.3354 0.25429,-0.334 0.16036,0.01 -0.17483,0.6412 -0.9282,0.6116 -1.27564,-0.05 z m -1.40465,-0.3382 c -0.23531,-0.3591 -0.57643,-0.6167 -0.75804,-0.5725 -0.18161,0.044 -0.2409,0.03 -0.13176,-0.031 0.10914,-0.061 0.19843,-0.2942 0.19843,-0.5182 0,-0.328 0.0755,-0.3445 0.38842,-0.085 0.21363,0.1773 0.36693,0.4002 0.34066,0.4954 -0.0263,0.095 0.1008,0.4409 0.28235,0.7684 0.44374,0.8002 0.21505,0.759 -0.32006,-0.058 z m 2.08676,-2.2574 c -0.0899,-0.1456 -0.45415,-0.2646 -0.80937,-0.2646 -0.35521,0 -0.64584,-0.1026 -0.64584,-0.2279 0,-0.3392 1.25967,-0.035 1.61182,0.3895 0.16778,0.2021 0.23797,0.3675 0.15598,0.3675 -0.082,0 -0.22265,-0.119 -0.31259,-0.2645 z m -0.39688,-1.0874 c -0.34309,-0.2468 -0.3385,-0.267 0.0339,-0.1489 0.23693,0.075 0.58837,0 0.78099,-0.1735 0.29022,-0.2569 0.29019,-0.2307 -1.6e-4,0.153 -0.1927,0.2546 -0.36555,0.4612 -0.38411,0.459 -0.0186,0 -0.21235,-0.1326 -0.43063,-0.2896 z m 21.11255,-0.8309 c -0.0609,-0.1819 -0.14269,-2.0571 -0.18174,-4.1672 -0.0666,-3.5966 -0.036,-3.8736 0.48962,-4.4317 0.30833,-0.3275 0.70479,-0.5935 0.88103,-0.5913 0.21815,0 0.20405,0.078 -0.0442,0.235 -0.56316,0.3567 -0.13632,0.7552 1.01776,0.9502 1.26541,0.2138 1.76405,-0.01 1.29496,-0.5715 -0.26023,-0.3136 -0.25596,-0.4371 0.0211,-0.6083 0.19118,-0.1182 0.2658,-0.3472 0.16581,-0.509 -0.1,-0.1618 -0.0557,-0.2942 0.0984,-0.2942 0.40981,0 0.34274,2 -0.0788,2.3498 -0.19987,0.1659 -0.71074,0.2276 -1.15255,0.1392 -0.58514,-0.117 -0.83611,-0.048 -0.95561,0.2637 -0.0891,0.2323 -0.3444,0.4223 -0.56725,0.4223 -0.22284,0 -0.40517,0.1191 -0.40517,0.2646 0,0.1455 0.11203,0.2646 0.24896,0.2646 0.13694,0 0.32256,-0.1191 0.41249,-0.2646 0.28989,-0.4691 2.3555,-0.3154 2.66677,0.1984 0.36263,0.5986 0.03,4.9505 -0.41979,5.4925 -0.18377,0.2214 -0.76324,0.3945 -1.32093,0.3945 -0.56037,0 -1.13715,0.173 -1.32292,0.3969 -0.40132,0.4835 -0.7003,0.5069 -0.84787,0.066 z m 3.63007,-4.5111 c 0.0661,-0.8608 -5.3e-4,-1.5565 -0.15851,-1.6541 -0.55734,-0.3445 -1.55607,0.1491 -1.73368,0.8568 -0.14026,0.5588 -0.032,0.8269 0.52842,1.309 0.38765,0.3334 0.68923,0.7 0.67019,0.8146 -0.0844,0.5077 0.0454,0.6936 0.30381,0.4352 0.15167,-0.1517 0.32707,-0.9443 0.38977,-1.7615 z m -27.33635,4.1176 c 0.14943,-0.18 0.19371,-0.5305 0.0984,-0.7789 -0.16077,-0.4189 -0.13651,-0.4183 0.33582,0.01 0.45577,0.4124 0.55129,0.4185 0.91173,0.058 0.36045,-0.3605 0.41918,-0.3595 0.56062,0.01 0.24424,0.6365 0.18683,1.0882 -0.0839,0.6606 -0.13332,-0.2106 -0.42309,-0.2967 -0.67417,-0.2003 -0.24219,0.093 -0.38464,0.2591 -0.31655,0.3693 0.0681,0.1101 -0.15237,0.2003 -0.4899,0.2003 -0.45759,0 -0.54459,-0.083 -0.34201,-0.3274 z m 28.68966,-0.6648 c -0.2259,-0.8429 -0.19771,-5.0319 0.0363,-5.3997 0.10725,-0.1685 0.63241,-0.3885 1.16702,-0.4888 0.95177,-0.1785 0.97792,-0.1611 1.25469,0.8356 0.3607,1.299 0.367,3.6788 0.0115,4.3431 -0.15077,0.2817 -0.70109,0.6906 -1.22294,0.9087 -1.17149,0.4894 -1.05723,0.5077 -1.24659,-0.1989 z m 1.54901,-0.5597 c 0.37954,-0.2775 0.51619,-0.7836 0.58982,-2.1846 0.10938,-2.0813 -0.2634,-2.9258 -1.16517,-2.6396 -0.41915,0.1331 -0.576,0.4787 -0.70515,1.5538 -0.41041,3.4166 -0.0786,4.2642 1.2805,3.2704 z m -28.76902,-0.9199 c -0.11089,-0.4241 -0.0487,-0.4503 0.47818,-0.2016 0.40855,0.1928 0.50457,0.3501 0.29505,0.4833 -0.47842,0.3043 -0.63488,0.2473 -0.77323,-0.2817 z m 0.48056,-1.497 c -0.38848,-0.5093 -0.59296,-0.926 -0.45441,-0.926 0.13855,0 0.49778,0.4167 0.79829,0.926 0.30051,0.5093 0.505,0.9261 0.45441,0.9261 -0.0506,0 -0.40981,-0.4168 -0.79829,-0.9261 z m 0.57728,-1.9093 c -0.40027,-0.061 -0.86404,-0.3702 -1.03069,-0.6879 -0.29342,-0.5595 -0.28649,-0.5632 0.21937,-0.1148 0.2873,0.2547 0.71431,0.4631 0.94893,0.4631 0.23461,0 0.50015,0.119 0.59009,0.2646 0.0899,0.1455 0.12673,0.2467 0.0818,0.2249 -0.045,-0.022 -0.40923,-0.089 -0.80946,-0.1499 z m -0.23209,-1.5964 c -0.32852,-0.4189 -0.31933,-0.4287 0.0965,-0.1027 0.2528,0.1982 0.63976,0.2912 0.85989,0.2067 0.22014,-0.084 0.40025,-0.038 0.40025,0.1027 0,0.4323 -0.97165,0.2842 -1.35667,-0.2067 z m -1.4357,-0.089 c -0.0978,-0.1582 -0.41342,-0.226 -0.70143,-0.1507 -0.48261,0.1262 -0.49092,0.1008 -0.10604,-0.3245 0.28385,-0.3137 0.33403,-0.562 0.15664,-0.7754 -0.18881,-0.2271 -0.17318,-0.2407 0.0565,-0.049 0.17462,0.1456 0.58432,0.2646 0.91043,0.2646 0.32611,0 0.65588,0.1019 0.73282,0.2264 0.077,0.1245 -0.15415,0.1701 -0.51355,0.1014 -0.70188,-0.1341 -0.84966,0.1639 -0.33595,0.6776 0.17462,0.1747 0.24118,0.3175 0.14791,0.3175 -0.0933,0 -0.24959,-0.1294 -0.34736,-0.2876 z m 27.99393,-0.1522 c -0.47085,-0.19 -0.42476,-2.3278 0.0589,-2.7291 0.21426,-0.1778 0.77826,-0.3412 1.25332,-0.3631 0.7861,-0.036 0.8857,0.048 1.10788,0.9343 0.42466,1.6944 -0.81948,2.8038 -2.42005,2.1579 z m 1.88992,-0.7724 c 0.0883,-0.2302 0.1606,-0.6919 0.1606,-1.026 0,-1.6576 -1.92585,-1.2305 -2.06649,0.4584 -0.0803,0.9639 -0.0616,0.9861 0.83159,0.9861 0.5891,0 0.97075,-0.1487 1.0743,-0.4185 z m -27.56676,-1.181 c -0.17763,-0.2845 -0.60687,-0.5172 -0.95387,-0.5172 -0.35732,0 -0.70734,-0.2008 -0.80718,-0.463 -0.14134,-0.3713 -0.11024,-0.3975 0.1569,-0.1323 0.18325,0.1819 0.52904,0.3307 0.76842,0.3307 0.44555,0 1.49129,0.9663 1.27732,1.1802 -0.0653,0.065 -0.26397,-0.114 -0.44159,-0.3984 z m 22.55241,0.1359 c 0.28247,-0.2137 0.69919,-0.3878 0.92604,-0.3869 0.22685,9e-4 0.0714,0.1795 -0.3454,0.3969 -0.95939,0.5004 -1.24883,0.4954 -0.58064,-0.01 z m -23.42104,-1.9099 c -0.29806,-0.3939 -0.295,-0.4136 0.0205,-0.1322 0.7175,0.6398 1.0588,0.3796 1.0588,-0.807 0,-1.2027 -0.34688,-1.7727 -1.07885,-1.7727 -0.24412,0 -0.60152,-0.2084 -0.79422,-0.4631 -0.29806,-0.3939 -0.295,-0.4136 0.0205,-0.1322 0.20399,0.1819 0.56675,0.3307 0.80613,0.3307 0.77921,0 1.31101,0.8939 1.31101,2.2036 0,1.0327 -0.0817,1.236 -0.49677,1.236 -0.27323,0 -0.65444,-0.2084 -0.84714,-0.4631 z m -2.62079,-0.01 c -0.007,-0.5658 0.8008,-0.6906 1.27323,-0.1967 0.41839,0.4374 0.40962,0.443 -0.16088,0.1023 -0.51706,-0.3087 -0.6395,-0.3035 -0.85584,0.037 -0.17608,0.2768 -0.25369,0.2943 -0.25651,0.058 z m 1.54481,-0.7738 c -0.38506,-0.059 -0.92084,-0.3688 -1.19063,-0.688 l -0.49053,-0.5804 0.58662,0.4962 c 0.33331,0.2819 0.81148,0.4373 1.10739,0.3599 0.30486,-0.08 0.57927,0.016 0.66185,0.2315 0.0776,0.2022 0.11505,0.3498 0.0832,0.328 -0.0318,-0.022 -0.37289,-0.088 -0.75794,-0.1472 z"
         id="path110794" />
      <path
         style="fill:#727272;stroke-width:0.264583"
         d="m -452.1743,2589.996 c -0.0906,-0.1466 0.0266,-0.3399 0.26038,-0.4296 0.50658,-0.1944 0.78891,0.02 0.5454,0.4138 -0.2197,0.3555 -0.59132,0.3628 -0.80578,0.016 z m -58.79977,-0.8662 c -0.29547,-0.323 -0.61845,-0.8551 -0.71775,-1.1825 -0.0993,-0.3274 -0.31482,-0.5953 -0.47895,-0.5953 -0.16413,0 -0.63236,-0.3199 -1.0405,-0.711 -0.58274,-0.5583 -0.74208,-0.9499 -0.74208,-1.8237 0,-0.7564 0.13009,-1.1628 0.40612,-1.2687 0.36345,-0.1395 0.36187,-0.2415 -0.015,-0.9703 -0.53291,-1.0305 -0.42754,-2.7306 0.17632,-2.8449 0.30137,-0.057 0.62085,0.3286 1.03935,1.2546 0.38344,0.8484 0.76932,1.3369 1.05608,1.3369 0.57323,0 1.36649,1.6344 1.25645,2.5887 -0.1236,1.0721 -0.79923,0.8816 -1.40576,-0.3963 -0.33293,-0.7014 -0.70905,-1.1184 -1.01424,-1.1245 -0.26679,-0.01 -0.44538,0.08 -0.39687,0.1901 0.0485,0.1098 0.31273,0.7647 0.58716,1.4552 0.31321,0.7882 0.66134,1.2556 0.93514,1.2556 0.578,0 1.34402,1.3338 1.34402,2.3403 0,1.0546 -0.32786,1.2189 -0.98947,0.4958 z m 22.94988,-4.158 c -0.3638,-0.1206 -0.99661,-0.2935 -1.40624,-0.3841 -0.58089,-0.1286 -0.72644,-0.2938 -0.66146,-0.7508 0.0754,-0.5306 0.20841,-0.5772 1.40624,-0.493 1.51739,0.1067 2.04328,0.4297 1.931,1.1861 -0.0942,0.6346 -0.38409,0.7355 -1.26954,0.4418 z m 3.35329,-0.205 c -0.24771,-0.4315 0.16393,-4.565 0.45124,-4.531 0.67402,0.08 0.95797,-0.05 0.95797,-0.4382 0,-0.3423 1.41288,-1.0875 1.85209,-0.9768 0.30724,0.077 0.41702,1.3026 0.16755,1.8701 -0.19383,0.4408 -0.17838,0.7622 0.0546,1.1352 0.36418,0.5831 0.20405,1.028 -0.37005,1.028 -0.61952,0 -0.43536,0.5217 0.2802,0.7937 0.7103,0.2701 0.84982,0.6461 0.35353,0.9528 -0.42503,0.2627 -3.61063,0.404 -3.74712,0.1662 z m 2.59984,-2.4419 c 0.0899,-0.1455 -0.0816,-0.2646 -0.38126,-0.2646 -0.29963,0 -0.54478,0.1191 -0.54478,0.2646 0,0.1455 0.17156,0.2646 0.38125,0.2646 0.2097,0 0.45485,-0.1191 0.54479,-0.2646 z m 2.62596,1.4702 c -0.0892,-0.3555 -0.0965,-0.7528 -0.0161,-0.8829 0.20658,-0.3342 0.22784,-5.6243 0.0396,-9.8477 -0.11992,-2.6902 -0.0694,-3.8294 0.20452,-4.615 0.33768,-0.9685 0.46639,-1.0663 1.79757,-1.3663 0.99445,-0.2241 1.53519,-0.2391 1.76457,-0.049 0.25028,0.2074 0.33073,2.0883 0.33073,7.7318 0,5.5543 -0.0844,7.5703 -0.33073,7.8991 -0.35719,0.4767 -2.76927,1.7735 -3.30225,1.7753 -0.17913,5e-4 -0.3987,-0.2898 -0.48793,-0.6454 z m -15.39615,-2.1031 c -0.44917,-0.4936 -0.97432,-0.95 -1.16699,-1.0142 -0.35503,-0.1183 -0.50732,-4.7743 -0.44375,-13.5664 0.0137,-1.8918 0.0167,-3.9754 0.007,-4.6302 -0.0236,-1.5578 0.89762,-2.8495 1.64339,-2.3042 0.4348,0.3179 0.48143,1.0193 0.55869,8.4031 0.10323,9.8651 0.14776,10.3184 0.92195,9.3856 0.18408,-0.2218 0.43726,-0.4033 0.56264,-0.4033 0.43613,0 0.0909,1.9938 -0.51492,2.9741 -0.38455,0.6222 -0.54728,1.1836 -0.44056,1.5198 0.25228,0.7949 -0.20771,0.6462 -1.12725,-0.3643 z m 21.00897,0.1845 c -0.21822,-0.2182 -0.22153,-13.7748 -0.004,-14.8644 0.14995,-0.7497 0.25789,-0.8268 1.15823,-0.8268 0.57352,0 1.13645,-0.173 1.33283,-0.4096 0.18699,-0.2253 0.58852,-0.3742 0.8923,-0.3308 0.54349,0.078 0.55131,0.1741 0.4892,6.0321 -0.0347,3.2742 -0.12872,6.3364 -0.20889,6.8048 -0.19195,1.1215 -3.18936,4.0654 -3.66004,3.5947 z m -37.46634,-0.9213 c -0.29485,-0.4836 -0.53653,-1.0281 -0.53708,-1.21 -5.4e-4,-0.1819 -0.28508,-0.3307 -0.6323,-0.3307 -1.17985,0 -2.00619,-2.8681 -1.03166,-3.5807 0.42762,-0.3127 0.42622,-0.3828 -0.0242,-1.2198 -0.55819,-1.0372 -0.49074,-2.4344 0.12313,-2.5506 0.26967,-0.051 0.64885,0.3512 1.05788,1.1222 0.37962,0.7156 0.82232,1.2018 1.09424,1.2018 0.57084,0 1.26402,1.2986 1.26402,2.3681 0,1.5195 -1.35361,0.7942 -1.82796,-0.9794 -0.14181,-0.5303 -0.22602,-0.5668 -0.62822,-0.2727 -0.43969,0.3215 -0.43317,0.4136 0.12233,1.7285 0.39497,0.9348 0.74061,1.3888 1.05734,1.3888 0.67455,0 1.32722,1.1389 1.22852,2.1437 -0.11499,1.1707 -0.62206,1.2471 -1.26603,0.1908 z m 11.96829,-4.7819 c -1.22193,-2.1668 -1.84522,-4.5772 -2.09557,-8.1042 -0.13374,-1.8842 -0.0463,-2.962 0.43892,-5.4076 0.33327,-1.6799 0.69402,-3.1969 0.80167,-3.3711 0.32076,-0.519 0.6998,-0.069 1.02278,1.2134 0.1671,0.6636 0.40638,1.1432 0.53173,1.0657 0.39384,-0.2434 0.76695,0.4736 0.81859,1.5731 0.14253,3.0345 -0.032,14.949 -0.21896,14.949 -0.11957,0 -0.70419,-0.8632 -1.29916,-1.9183 z m 30.86053,0.5371 c -0.17175,-0.5133 -0.21286,-10.4068 -0.0465,-11.1865 0.21969,-1.0296 0.26146,-1.0629 1.53761,-1.2236 1.91276,-0.2409 2.00991,-0.032 1.87662,4.0427 -0.13122,4.011 -0.66949,5.9082 -1.59308,5.6151 -0.48457,-0.1538 -0.51057,-0.1225 -0.20459,0.2461 0.47276,0.5697 0.20073,1.2894 -0.7542,1.9954 -0.4351,0.3217 -0.80224,0.5516 -0.81587,0.5108 z m -42.63798,-3.5733 c -0.2327,-0.2582 -0.50027,-0.7788 -0.59458,-1.1569 -0.1367,-0.5479 -0.29772,-0.6632 -0.79367,-0.5684 -0.48958,0.094 -0.71447,-0.059 -1.05526,-0.7185 -0.54094,-1.0461 -0.44174,-2.4867 0.17934,-2.6043 0.30197,-0.057 0.63059,0.2707 1.003,1.0007 0.30464,0.5971 0.82809,1.1899 1.16322,1.3174 0.69349,0.2636 1.30717,1.5222 1.17667,2.4131 -0.11404,0.7787 -0.54773,0.906 -1.07872,0.3169 z m 20.90078,0.3053 c -0.10914,-0.1108 -0.19844,-1.1975 -0.19844,-2.4147 0,-2.2717 0.2267,-2.7353 1.16193,-2.3765 0.30848,0.1184 0.29057,0.434 -0.11047,1.9466 -0.26325,0.9929 -0.51823,2.0844 -0.56661,2.4257 -0.0484,0.3412 -0.17727,0.5297 -0.28641,0.4189 z m 6.57675,-2.1193 c -0.3084,-0.8037 -0.17594,-1.9628 0.22428,-1.9628 0.41845,0 0.84537,1.6245 0.55177,2.0995 -0.25113,0.4064 -0.5906,0.3465 -0.77605,-0.1367 z m -27.65807,-2.3953 c -0.3016,-0.3835 -0.54837,-0.8002 -0.54837,-0.9261 0,-0.1259 -0.27198,-0.2289 -0.60441,-0.2289 -0.38656,0 -0.76802,-0.277 -1.05833,-0.7684 -0.44428,-0.7521 -0.61812,-2.4188 -0.28684,-2.7501 0.31316,-0.3131 1.08587,0.3232 1.53063,1.2604 0.27796,0.5858 0.63126,0.9352 0.94553,0.9352 0.71269,0 1.32551,1.0058 1.32551,2.1755 0,1.2068 -0.50092,1.323 -1.30372,0.3024 z m 23.4224,-2.0365 c -0.63082,-0.5048 -0.73565,-0.7424 -0.58765,-1.3321 0.11636,-0.4636 0.0414,-0.9159 -0.21182,-1.2773 -0.44514,-0.6356 -0.14132,-1.5362 0.51822,-1.5362 0.38401,0 0.48848,0.3912 0.40069,1.5002 -0.025,0.3158 0.19995,1.0552 0.49988,1.6432 0.8854,1.7355 0.69076,2.0504 -0.61932,1.0022 z m -23.4224,-4.5781 c -0.3016,-0.3834 -0.54837,-0.8002 -0.54837,-0.9261 0,-0.1259 -0.22948,-0.2289 -0.50996,-0.2289 -1.16759,0 -2.24065,-2.8751 -1.21933,-3.267 0.4322,-0.1658 1.46471,1.0971 1.46471,1.7916 0,0.3182 0.16118,0.3867 0.63161,0.2687 1.04047,-0.2612 1.8322,1.3172 1.32446,2.6403 -0.22715,0.5919 -0.51316,0.5222 -1.14312,-0.2786 z m 21.14747,-1.8164 c 0,-0.7598 0.21752,-0.8221 0.94161,-0.2696 0.44454,0.3391 0.46024,0.4275 0.11672,0.6574 -0.66936,0.4479 -1.05833,0.3053 -1.05833,-0.3878 z m 22.13343,-1.1248 c -0.0906,-0.1466 -0.16046,-1.8029 -0.15515,-3.6806 0.005,-1.8777 -0.0694,-3.62 -0.16601,-3.8718 -0.0966,-0.2517 -0.0245,-0.6398 0.16024,-0.8624 0.25442,-0.3066 0.2616,-0.479 0.0296,-0.711 -0.34661,-0.3466 -0.42389,-2.8463 -0.088,-2.8463 0.68162,0 2.89164,3.1592 3.21293,4.5929 0.33454,1.4928 0.0535,6.7726 -0.36258,6.811 -0.15978,0.015 -0.66696,0.01 -1.12705,-0.018 -0.54657,-0.029 -0.92364,0.1106 -1.08786,0.4041 -0.14694,0.2625 -0.31979,0.3383 -0.41613,0.1824 z m -43.2809,-1.0276 c -0.3016,-0.3834 -0.54837,-0.8081 -0.54837,-0.9438 0,-0.1357 -0.22616,-0.175 -0.50257,-0.087 -0.7624,0.242 -1.66059,-1.0392 -1.56082,-2.2264 0.10482,-1.2471 0.91498,-1.2934 1.51012,-0.086 0.28097,0.5699 0.61399,0.8558 1.00129,0.8599 1.017,0.01 1.7093,1.5485 1.24347,2.7625 -0.22715,0.5919 -0.51316,0.5222 -1.14312,-0.2787 z m 32.19702,0.3664 c -0.0658,-0.1819 -0.13295,-3.8133 -0.14934,-8.0698 l -0.0298,-7.739 h 1.16375 c 0.64006,0 1.24188,0.1264 1.33736,0.2809 0.0955,0.1545 0.4597,0.3897 0.80937,0.5226 0.61115,0.2324 0.85248,1.0082 0.44146,1.4192 -0.10686,0.1069 -0.16114,2.3652 -0.12063,5.0185 0.06,3.9315 -0.002,4.9685 -0.33324,5.6045 -0.2238,0.4292 -0.40764,0.9261 -0.40854,1.1043 -8e-4,0.1781 -0.34368,0.5008 -0.76175,0.717 -0.41807,0.2162 -0.82364,0.6359 -0.90127,0.9328 -0.15513,0.5932 -0.85781,0.7335 -1.04739,0.209 z m -31.88081,-3.8263 c -0.17933,-0.064 -0.45264,-0.5874 -0.60736,-1.1619 -0.26139,-0.9708 -0.3122,-1.0138 -0.71778,-0.6083 -0.40557,0.4056 -0.47964,0.3863 -1.04629,-0.2725 -0.7009,-0.8148 -0.83449,-2.3887 -0.22267,-2.6234 0.41915,-0.1609 1.46494,0.9727 1.46494,1.5878 0,0.254 0.1937,0.3177 0.63161,0.2078 0.47057,-0.1181 0.74042,0 1.05834,0.4507 0.76532,1.0926 0.37939,2.7579 -0.56079,2.4198 z m 26.29931,-2.1047 c -0.22035,-0.2204 -0.22271,-1.6487 -0.006,-3.4553 0.12915,-1.0751 0.286,-1.4207 0.70515,-1.5538 0.90177,-0.2862 1.27455,0.5583 1.16517,2.6396 -0.0736,1.401 -0.21028,1.9071 -0.58982,2.1846 -0.53849,0.3938 -0.99909,0.4606 -1.2748,0.1849 z m 12.0963,-1.722 c 0.13046,-0.6523 0.0376,-0.9788 -0.41527,-1.4609 -0.42349,-0.4508 -0.61155,-1.0361 -0.6865,-2.1365 -0.22616,-3.321 -0.26121,-3.1104 0.50466,-3.0321 0.38246,0.039 1.21589,0.3459 1.85209,0.6818 1.14428,0.6042 1.15851,0.629 1.32451,2.3102 0.0923,0.9346 0.0559,1.9122 -0.0808,2.1724 -0.13674,0.2602 -0.17073,0.7184 -0.0755,1.0183 0.15052,0.4743 0.0921,0.5207 -0.44836,0.3564 -0.34179,-0.1039 -0.68097,-0.1893 -0.75373,-0.1897 -0.60789,0 -0.79375,0.1344 -0.79375,0.591 0,0.291 -0.13394,0.5291 -0.29765,0.5291 -0.19327,0 -0.23874,-0.2946 -0.12966,-0.84 z m -14.42069,0.4299 c -0.0172,-0.1382 -0.0157,-0.3451 0.003,-0.4596 0.0191,-0.1146 -0.28254,-0.4812 -0.67018,-0.8146 -0.56045,-0.4821 -0.66869,-0.7502 -0.52843,-1.309 0.17762,-0.7077 1.17634,-1.2013 1.73369,-0.8568 0.34058,0.2105 0.14933,3.035 -0.23127,3.4156 -0.16083,0.1608 -0.28882,0.171 -0.30709,0.024 z m -24.33779,-1.2968 c -0.4127,-0.6995 -0.69121,-0.9144 -1.04097,-0.8034 -0.76197,0.2418 -1.61739,-0.8712 -1.52347,-1.9823 0.11037,-1.3056 0.83641,-1.3786 1.55744,-0.1566 0.39572,0.6708 0.74387,0.9451 1.19943,0.9451 0.72313,0 1.23789,0.9697 1.10449,2.0807 -0.12109,1.0085 -0.67361,0.9729 -1.29692,-0.083 z m -0.11856,-3.9654 c -0.266,-0.406 -0.69098,-0.6777 -1.06003,-0.6777 -1.0473,0 -1.75322,-1.5212 -1.27918,-2.7565 0.25358,-0.6608 0.88171,-0.4899 1.37306,0.3736 0.28808,0.5063 0.66331,0.7927 1.03992,0.7937 0.75259,0 1.45923,1.0676 1.34824,2.0329 -0.11285,0.9814 -0.8525,1.1031 -1.42201,0.234 z m 23.18439,-0.116 c -0.35302,-0.099 -0.68263,-0.3018 -0.73248,-0.4513 -0.13143,-0.3943 2.36922,-1.4463 2.69502,-1.1338 0.17205,0.1651 0.13236,0.3321 -0.11528,0.4851 -0.29385,0.1816 -0.30854,0.3167 -0.0662,0.6086 0.56134,0.6764 -0.28417,0.9097 -1.78104,0.4914 z m 3.47014,-1.0186 c 0.14064,-1.6889 2.06649,-2.116 2.06649,-0.4584 0,1.1208 -0.27675,1.4445 -1.2349,1.4445 -0.89314,0 -0.91186,-0.022 -0.83159,-0.9861 z m -26.71084,-2.9173 c -0.30244,-0.4798 -0.6447,-0.7016 -1.00289,-0.6498 -0.84248,0.1217 -1.48964,-0.7843 -1.39199,-1.9488 0.10825,-1.2908 0.57585,-1.4183 1.46901,-0.4004 0.39428,0.4493 0.90467,0.817 1.1342,0.817 0.70574,0 1.05233,0.5838 1.05233,1.7727 0,1.3588 -0.54967,1.5372 -1.26066,0.4093 z"
         id="path110792" />
    </g>
  </g>
</svg>
