<svg height="512" viewBox="0 0 60 60" width="512" xmlns="http://www.w3.org/2000/svg"><g id="Page-1" fill="none" fill-rule="evenodd"><g id="028---Plans" fill="rgb(0,0,0)" fill-rule="nonzero"><path id="Shape" d="m52.21 0h-44.21c-4.41622192.00495988-7.99504012 3.58377808-8 8v6c0 1.1045695.8954305 2 2 2h12v4.508l-3.825-.48c-.90958965-.109397-1.82916747.0967578-2.605.584l-5.216 3.256c-1.46808108.9092647-2.35923231 2.515154-2.354 4.242v29.89c0 1.1045695.8954305 2 2 2h8c1.1045695 0 2-.8954305 2-2v-13.08l2-1.2v14.28c0 1.1045695.8954305 2 2 2h42c1.1045695 0 2-.8954305 2-2v-49.71c.0471393-4.40544503-3.390137-8.06334243-7.79-8.29zm-50.21 8c.00000005-3.31370846 2.68629154-5.99999991 6-5.99999991 3.3137085 0 6 2.68629145 6 5.99999991v6h-12zm0 50v-7h8v7zm8-9h-8.00001388l.00001388-20.89c-.00315369-1.0362227.5313228-1.9999459 1.412-2.546l5.226-3.264c.38693808-.2437007.8460914-.3464804 1.3-.291l4.065.51v5.742l-4.012 2.319c-.47421361.2780058-.63512861.886647-.36027453 1.3626943s.88241453.640996 1.36027453.3693057l10.809-6.242c.2516637-.1442221.5725631-.0579636.718.193.9875419 1.7112832.4010787 3.899104-1.31 4.887l-5.162 2.98c-.4730837.2733643-.6391748.8758342-.373 1.353 1.1513616 2.0451319.4601907 4.6353584-1.557 5.835l-6.064 3.637c-.30635524.1838131-.49137602.5171021-.48536678.8743201.00600923.357218.20213552.6840951.5145.8575.31236447.1734048.69351154.166993.99986678-.0168201l.919-.551zm14.382-35 3.723 7.447c.1184679.2374485.3264554.4180742.5781614.5021012.251706.0840271.5264889.0645647.7638386-.0541012.251-.126 5.8-2.957 6.483-7.895h2.07v12c0 .5522847.4477153 1 1 1h5c.5522847 0 1-.4477153 1-1s-.4477153-1-1-1h-4v-11h12v11h-2c-.5522847 0-1 .4477153-1 1s.4477153 1 1 1h2v6h-2c-.5522847 0-1 .4477153-1 1s.4477153 1 1 1h2v12h-9v-12h1c.5522847 0 1-.4477153 1-1s-.4477153-1-1-1h-5c-.5522847 0-1 .4477153-1 1s.4477153 1 1 1h2v12h-5v-4c0-1.1045695-.8954305-2-2-2h-12v-6h12c.5522847 0 1-.4477153 1-1s-.4477153-1-1-1h-11.994l.2-.118c1.2811789-.7392529 2.2161324-1.9572681 2.5991007-3.3859911.3829683-1.4287231.182567-2.9510694-.5571007-4.2320089-.333123-.5816836-.885156-1.0058812-1.533-1.178-.233625-.0584099-.4743646-.0833256-.715-.074v-10.012zm2.236 0h7.282c-.532 2.726-3.106 4.714-4.48 5.6zm-4.618 29h12v4h-12zm36 15h-42v-15.587c2.0273574-1.7150128 2.7616784-4.5171114 1.836-7.006l2.164-1.249v12.842c0 1.1045695.8954305 2 2 2h30c1.1045695 0 2-.8954305 2-2v-33c0-1.1045695-.8954305-2-2-2h-30c-1.1045695 0-2 .8954305-2 2v10.8l-4 2.31v-19.11c-.001299-2.29944305-.9949291-4.48644997-2.726-6h38.908c3.3091779.20382815 5.8723989 2.97499695 5.818 6.29z"/><path id="Shape" d="m20 4h-1c-.5522847 0-1 .44771525-1 1s.4477153 1 1 1h1c.5522847 0 1-.44771525 1-1s-.4477153-1-1-1z"/><path id="Shape" d="m39 4h-15c-.5522847 0-1 .44771525-1 1s.4477153 1 1 1h15c.5522847 0 1-.44771525 1-1s-.4477153-1-1-1z"/><path id="Shape" d="m8 53h-2c-.55228475 0-1 .4477153-1 1s.44771525 1 1 1h2c.55228475 0 1-.4477153 1-1s-.44771525-1-1-1z"/></g></g></svg>