<?xml version="1.0" encoding="UTF-8" standalone="no"?>
<svg
   xmlns:dc="http://purl.org/dc/elements/1.1/"
   xmlns:cc="http://creativecommons.org/ns#"
   xmlns:rdf="http://www.w3.org/1999/02/22-rdf-syntax-ns#"
   xmlns:svg="http://www.w3.org/2000/svg"
   xmlns="http://www.w3.org/2000/svg"
   xmlns:sodipodi="http://sodipodi.sourceforge.net/DTD/sodipodi-0.dtd"
   xmlns:inkscape="http://www.inkscape.org/namespaces/inkscape"
   width="700"
   height="500"
   viewBox="0 0 185.20833 132.29167"
   version="1.1"
   id="svg8"
   inkscape:version="1.0.1 (3bc2e813f5, 2020-09-07)"
   sodipodi:docname="QHouseStrenght8pl.svg">
  <defs
     id="defs2" />
  <sodipodi:namedview
     id="base"
     pagecolor="#ffffff"
     bordercolor="#666666"
     borderopacity="1.0"
     inkscape:pageopacity="0.0"
     inkscape:pageshadow="2"
     inkscape:zoom="0.7"
     inkscape:cx="362.69259"
     inkscape:cy="613.28661"
     inkscape:document-units="mm"
     inkscape:current-layer="layer1"
     inkscape:document-rotation="0"
     showgrid="false"
     units="px"
     inkscape:snap-global="true"
     inkscape:window-width="1920"
     inkscape:window-height="1137"
     inkscape:window-x="-8"
     inkscape:window-y="-8"
     inkscape:window-maximized="1" />
  <metadata
     id="metadata5">
    <rdf:RDF>
      <cc:Work
         rdf:about="">
        <dc:format>image/svg+xml</dc:format>
        <dc:type
           rdf:resource="http://purl.org/dc/dcmitype/StillImage" />
        <dc:title />
      </cc:Work>
    </rdf:RDF>
  </metadata>
  <g
     inkscape:label="Layer 1"
     inkscape:groupmode="layer"
     id="layer1">
    <rect
       style="fill:#ff6600;stroke:none;stroke-width:2.10748;stroke-miterlimit:4;stroke-dasharray:none;stroke-opacity:1"
       id="rect1065-9-6-5-64"
       width="184.31049"
       height="48.33202"
       x="0.85455912"
       y="1.1869947" />
    <path
       style="fill:#ffffff;stroke-width:0.2974"
       d="m 128.58252,49.405562 c -0.75608,-0.69058 -0.93351,-1.0451 -0.78154,-1.56141 0.30441,-1.03428 46.52115,-47.14023047 47.48626,-47.37240047 0.6224,-0.14968 0.97339,-0.0225 1.56136,0.56532997 1.27535,1.27535 1.03349,1.78772 -2.56671,5.43669 -1.82884,1.85364 -3.26752,3.42506 -3.19707,3.49202 0.0705,0.067001 1.23618,0.9411505 2.59046,1.9425705 3.21466,2.3771 6.77702,5.79912 9.31497,8.9479 2.03563,2.52558 2.03752,2.52962 2.04468,4.41827 0.006,1.87428 -0.009,1.91098 -1.88509,4.31231 -2.5609,3.27774 -7.21605,7.68152 -10.45786,9.89314 -6.4903,4.42789 -12.55755,6.40427 -19.76919,6.4398 -4.40081,0.022 -7.67811,-0.54382 -11.94454,-2.06102 l -2.98038,-1.05989 -3.78999,3.75009 c -2.08449,2.06251 -3.98285,3.75 -4.21859,3.75 -0.23574,0 -0.86878,-0.40206 -1.40677,-0.8934 z m 27.8814,-7.89178 c 5.63678,-1.32871 10.5672,-6.19371 12.07174,-11.91162 0.96282,-3.65911 0.46905,-8.40277 -1.2374,-11.88778 -1.41088,-2.88142 -1.37433,-2.88409 -4.57542,0.33375 -2.2465,2.25822 -2.72203,2.88126 -2.36749,3.10197 0.49732,0.30962 1.5292,0.12481 2.75715,-0.49384 0.78196,-0.39397 0.83889,-0.37404 1.18084,0.41351 0.20987,0.48329 0.36291,2.24957 0.36803,4.24749 0.007,3.10319 -0.0656,3.57865 -0.79301,5.13096 -1.11791,2.38548 -3.47239,4.77819 -5.8569,5.95209 -1.86032,0.91586 -2.11736,0.96169 -5.3908,0.96169 -3.27156,0 -3.53003,-0.046 -5.35946,-0.95449 l -1.92213,-0.95448 -1.56647,1.54418 -1.56645,1.54417 0.67425,0.52339 c 3.18368,2.47129 9.02271,3.5241 13.58352,2.44901 z m -29.92998,-7.1569 c -2.1149,-2.10931 -4.47018,-4.68481 -5.23396,-5.72333 -1.19845,-1.62952 -1.38869,-2.08388 -1.38869,-3.31653 0,-1.31114 0.1672,-1.64428 2.03746,-4.05982 3.91825,-5.06055 10.12608,-10.3369 15.11286,-12.8451505 7.37939,-3.71176 15.29556,-4.68606 23.26075,-2.86289 l 2.19507,0.50241 -1.92298,1.923 -1.92298,1.92296 -1.61038,-0.44355 c -2.65701,-0.73183 -4.4726,-0.82335 -7.1317,-0.35946 -3.7267,0.65016 -6.81612,2.2805505 -9.28928,4.9022505 -4.05827,4.30197 -5.51629,9.70913 -4.19018,15.53956 l 0.47899,2.10596 -3.27487,3.27488 -3.27486,3.2749 z m 13.9527,-9.35426 c 0.0941,-2.82017 0.20218,-3.33772 1.06109,-5.08241 1.17362,-2.38395 3.57954,-4.74268 5.94671,-5.83007 1.30061,-0.59742 2.32026,-0.81555 4.25248,-0.90958 1.39789,-0.068 2.77221,-0.0751 3.054,-0.0159 0.36401,0.0767 -1.64921,2.26044 -6.95336,7.54287 l -7.46574,7.435 0.10479,-3.13997 z"
       id="path1020-2" />
    <text
       xml:space="preserve"
       style="font-size:15.8722px;line-height:1.25;font-family:sans-serif;fill:#ffffff;stroke:#ff6200;stroke-width:0.957715;stroke-opacity:1"
       x="1.3868467"
       y="29.255064"
       id="text1120-9-5-2-0-8"><tspan
         sodipodi:role="line"
         id="tspan1118-7-0-2-6-5"
         x="1.3868467"
         y="29.255064"
         style="font-style:normal;font-variant:normal;font-weight:bold;font-stretch:normal;font-size:15.8722px;font-family:sans-serif;-inkscape-font-specification:'sans-serif Bold';fill:#ffffff;stroke:#ff6200;stroke-width:0.957715;stroke-opacity:1">0 UKRYTYCH </tspan><tspan
         sodipodi:role="line"
         x="1.3868467"
         y="49.095322"
         style="font-style:normal;font-variant:normal;font-weight:bold;font-stretch:normal;font-size:15.8722px;font-family:sans-serif;-inkscape-font-specification:'sans-serif Bold';fill:#ffffff;stroke:#ff6200;stroke-width:0.957715;stroke-opacity:1"
         id="tspan1422">KOSZTÓW</tspan></text>
    <path
       style="fill:#040404;stroke-width:0.237543"
       d="m 6.0456499,83.076804 c -0.508613,-0.508604 -0.69435,-0.921691 -0.69435,-1.544047 0,-0.8082 -0.039503,-0.849696 -0.809071,-0.849696 -0.7511448,0 -0.8361845,-0.0799 -1.1877183,-1.111199 C 3.0430815,78.657793 2.9758632,77.266238 2.9758632,71.732887 V 65.005218 H 24.829828 46.683803 v 6.651203 6.65123 h -2.019118 c -1.860764,0 -2.019127,0.03771 -2.019127,0.475062 0,0.449673 0.158363,0.475089 2.955273,0.475089 2.989119,0 3.542712,-0.157366 2.972141,-0.844821 -0.287188,-0.346102 -0.220149,-4.68159 0.162601,-10.516028 l 0.145354,-2.21552 1.217472,0.155975 c 1.817561,0.232808 2.872099,0.544228 3.502535,1.034329 0.310998,0.241867 1.132028,0.57417 1.824492,0.73845 0.856556,0.203172 1.378564,0.481149 1.632983,0.86943 0.514134,0.784677 0.688981,2.596439 0.317543,3.29052 -0.328963,0.614643 -0.142077,3.097708 0.251456,3.340994 0.121499,0.07542 0.220922,1.565575 0.220922,3.312354 0,3.804601 -0.06419,3.922401 -2.136586,3.922401 -1.227742,0 -1.473219,0.0835 -2.102649,0.712602 -1.070448,1.070421 -2.932262,0.935311 -3.791322,-0.275184 -0.277681,-0.391361 -0.682598,-0.437418 -3.841805,-0.437418 h -3.531409 l -0.712629,0.712602 c -0.588598,0.588563 -0.905944,0.712657 -1.823317,0.712657 -0.927796,0 -1.220281,-0.117343 -1.77637,-0.712657 -0.530241,-0.567607 -0.86381,-0.712602 -1.639339,-0.712602 h -0.973638 v -1.544055 -1.544029 h 0.71263 c 0.558216,0 0.712629,-0.104656 0.712629,-0.483115 0,-0.460024 -0.122101,-0.479857 -2.553587,-0.415673 l -2.553579,0.06733 -0.07155,1.108425 -0.07156,1.108415 h -6.223311 c -8.868456,0 -9.242022,0.0091 -9.070946,0.284675 0.25388,0.410735 -0.360817,1.862478 -1.002278,2.367069 -1.504821,1.183723 -3.87023,0.09865 -3.87023,-1.775302 0,-0.796169 -0.05028,-0.859473 -0.627526,-0.790325 -0.524801,0.06285 -0.641219,0.211244 -0.711166,0.906555 -0.1991144,1.979165 -2.726746,2.85988 -4.1430713,1.443501 z m 2.6719353,-0.648967 c 0.5329434,-0.482253 0.5651383,-1.580111 0.06114,-2.084154 -0.8391922,-0.839147 -2.4772383,-0.170842 -2.4772383,1.010744 0,1.270666 1.474395,1.925621 2.416116,1.07341 z M 7.2516384,81.421152 c 0,-0.574871 0.5942991,-0.810544 0.9532577,-0.378073 0.3489033,0.420458 0.1067036,0.827673 -0.4921922,0.827673 -0.2940117,0 -0.4610655,-0.162861 -0.4610655,-0.4496 z m 7.6420606,1.006685 c 0.540889,-0.48948 0.56047,-1.449292 0.0413,-2.023014 -0.815688,-0.901284 -2.457379,-0.266871 -2.457379,0.949604 0,1.270666 1.474386,1.925621 2.416107,1.07341 z m -1.598795,-0.817339 c -0.08852,-0.143208 0.01212,-0.433351 0.223517,-0.64481 0.3542,-0.354146 0.414649,-0.354146 0.768849,0 0.211432,0.211459 0.312013,0.501602 0.223526,0.64481 -0.208003,0.336486 -1.007898,0.336486 -1.215892,0 z m 27.793159,0.682508 c 0.203379,-0.290349 0.369777,-0.7179 0.369777,-0.950125 0,-0.612596 -0.854913,-1.372405 -1.544028,-1.372405 -0.713285,0 -1.544029,0.766821 -1.544029,1.425259 0,1.26114 2.000803,1.921652 2.71828,0.897271 z m -1.655769,-0.670101 c -0.218102,-0.352943 0.332025,-0.936711 0.73643,-0.781571 0.52068,0.199868 0.422254,1.029418 -0.122119,1.029418 -0.253592,0 -0.530025,-0.111498 -0.614311,-0.247847 z m 13.468311,0.804932 c 0.901329,-0.815723 0.266943,-2.457361 -0.949586,-2.457361 -1.270621,0 -1.925648,1.47436 -1.073401,2.416098 0.489498,0.540889 1.449274,0.560461 2.022987,0.0413 z M 51.355418,81.53185 c -0.155185,-0.404369 0.428574,-0.954514 0.781464,-0.736474 0.136376,0.08439 0.247945,0.360727 0.247945,0.614373 0,0.544337 -0.829603,0.642745 -1.029409,0.122101 z M 20.554053,79.614139 c 0,-0.237567 -0.23754,-0.356337 -0.712629,-0.356337 -0.475089,0 -0.712629,0.11877 -0.712629,0.356337 0,0.237567 0.23754,0.356337 0.712629,0.356337 0.475089,0 0.712629,-0.11877 0.712629,-0.356337 z m 9.26418,0 c 0,-0.38802 -1.297672,-0.517393 -1.523559,-0.151907 -0.197794,0.320065 0.117136,0.508244 0.850523,0.508244 0.439895,0 0.673036,-0.123447 0.673036,-0.356337 z m -0.155472,-1.128346 c -0.143882,-0.2328 -10.234613,-0.2328 -10.378494,0 -0.0606,0.09806 2.274604,0.178204 5.189242,0.178204 2.914647,0 5.249808,-0.0799 5.189252,-0.178204 z m 26.954918,-5.759759 c -0.05405,-0.848862 -0.219189,-1.664253 -0.366976,-1.812022 -0.147787,-0.147877 -1.030101,-0.323208 -1.960707,-0.389816 l -1.691995,-0.121051 0.07156,1.5174 0.07155,1.517454 1.544029,0.392419 c 2.525612,0.641937 2.446093,0.679537 2.332504,-1.104384 z m -4.707932,-0.950861 v -1.306488 h -0.950178 -0.95016 v 1.076669 c 0,0.894389 0.09042,1.112905 0.534469,1.291379 1.190699,0.478626 1.365869,0.342537 1.365869,-1.06156 z"
       id="path1819" />
    <text
       xml:space="preserve"
       style="font-size:4.9389px;line-height:1.25;font-family:sans-serif;stroke-width:0.264583"
       x="9.4846706"
       y="95.861435"
       id="text1858-31"><tspan
         sodipodi:role="line"
         id="tspan1856-03"
         x="9.4846706"
         y="95.861435"
         style="stroke-width:0.264583">Koszt uzależniony </tspan><tspan
         sodipodi:role="line"
         x="9.4846706"
         y="102.03506"
         style="stroke-width:0.264583"
         id="tspan2087">od lokalizacji</tspan></text>
    <g
       id="g2081"
       transform="matrix(0.5764798,0,0,0.5764798,103.65241,-567.74626)"
       style="fill:#000000">
      <path
         style="fill:#000000;stroke-width:0.264583"
         d="m 127.68633,1143.6047 c 0.56839,-0.5821 1.09297,-1.0583 1.16573,-1.0583 0.0728,0 -0.33276,0.4762 -0.90115,1.0583 -0.56839,0.5821 -1.09296,1.0583 -1.16573,1.0583 -0.0728,0 0.33276,-0.4762 0.90115,-1.0583 z m -12.74019,-5.887 c -3.51238,-3.5289 -6.5178,-6.6762 -6.67871,-6.9941 -0.16091,-0.3178 -0.29256,-0.9191 -0.29256,-1.3361 0,-0.417 -0.13416,-0.8924 -0.29813,-1.0564 -0.53431,-0.5343 -0.018,-1.4981 1.66872,-3.115 l 1.65609,-1.5875 -1.64563,1.7631 c -1.54748,1.6579 -1.99148,2.6222 -1.38105,2.9994 0.14552,0.09 0.26458,0.5216 0.26458,0.9591 0,0.4375 0.13166,1.0556 0.29257,1.3734 0.16091,0.3179 3.16632,3.4652 6.6787,6.9941 3.51238,3.5289 6.32661,6.4162 6.25385,6.4162 -0.0728,0 -3.00606,-2.8873 -6.51843,-6.4162 z m 7.71756,-4.932 -6.34556,-6.5112 6.16385,6.0854 c 5.03654,4.9725 7.21946,7.2782 6.60271,6.9743 -0.0415,-0.021 -2.93095,-2.9673 -6.421,-6.5485 z m -49.415394,4.0079 c 1.055026,-0.05 2.781432,-0.05 3.836458,0 1.055026,0.05 0.191823,0.091 -1.918229,0.091 -2.110052,0 -2.973255,-0.041 -1.918229,-0.091 z m 18.943225,-0.095 c -5.017553,-0.5015 -11.196975,-2.6635 -11.746911,-4.1099 -0.558991,-1.4703 -0.176482,-4.4474 0.695168,-5.4105 0.413298,-0.4567 0.513128,-0.4169 2.190826,0.874 1.894868,1.4579 4.51502,2.7783 7.049463,3.5525 1.175388,0.359 2.446068,0.4853 4.894792,0.4866 3.723476,0 5.266761,-0.305 8.176571,-1.6268 1.07737,-0.4894 1.97864,-0.8584 2.00281,-0.8202 0.0242,0.038 0.19274,0.5873 0.3746,1.22 0.18234,0.6343 0.79714,1.6564 1.37063,2.2785 0.57199,0.6205 1.03997,1.1991 1.03997,1.2856 0,0.087 -0.96611,0.4625 -2.14691,0.8355 -4.16867,1.3169 -9.536661,1.8709 -13.901009,1.4347 z m -22.250517,-0.1556 c 0.254661,-0.067 0.67138,-0.067 0.926042,0 0.254661,0.067 0.0463,0.121 -0.463021,0.121 -0.509323,0 -0.717682,-0.054 -0.463021,-0.121 z m 9.525,0 c 0.254662,-0.067 0.671381,-0.067 0.926042,0 0.254662,0.067 0.0463,0.121 -0.463021,0.121 -0.509323,0 -0.717682,-0.054 -0.463021,-0.121 z m -10.699089,-0.2629 c 0.190997,-0.076 0.4192,-0.067 0.507119,0.021 0.08792,0.088 -0.06835,0.1504 -0.347266,0.1389 -0.308225,-0.013 -0.370919,-0.075 -0.159853,-0.1598 z m 10.131758,-1.3806 c -0.451952,-0.4222 -0.818111,-0.9282 -0.813685,-1.1245 0.0046,-0.2023 0.13535,-0.1277 0.302007,0.1723 0.16168,0.291 0.604544,0.7928 0.984142,1.115 0.379599,0.3221 0.613475,0.59 0.519723,0.5953 -0.09375,0.01 -0.540235,-0.3359 -0.992187,-0.7581 z m -15.241523,0.097 c -0.661622,-0.3187 -0.683644,-0.3554 -0.132292,-0.2206 0.749697,0.1832 1.592394,0.6127 1.190625,0.6068 -0.145521,0 -0.621771,-0.1759 -1.058333,-0.3862 z m -1.86766,-0.799 c -0.484268,-0.388 -0.475826,-0.3935 0.147868,-0.097 0.809898,0.3857 0.959998,0.508 0.623833,0.508 -0.141961,0 -0.489226,-0.1852 -0.771701,-0.4115 z m 60.93341,-4.8165 c -2.87267,-2.8754 -5.22304,-5.3202 -5.22304,-5.433 0,-0.1128 2.36918,2.21 5.26485,5.1618 l 5.26484,5.3669 0.88672,-0.3228 c 0.79864,-0.2907 0.8357,-0.2841 0.37313,0.066 -0.28248,0.2139 -0.70031,0.389 -0.92853,0.389 -0.22821,0 -2.7653,-2.3526 -5.63797,-5.228 z m -62.671375,3.7066 c -0.329107,-0.4196 -0.319749,-0.429 0.09989,-0.1 0.254662,0.1997 0.463021,0.4081 0.463021,0.463 0,0.2178 -0.217272,0.078 -0.562916,-0.3631 z m 17.822218,-0.5953 c 0,-0.5093 0.05445,-0.7177 0.121,-0.463 0.06655,0.2546 0.06655,0.6713 0,0.926 -0.06655,0.2547 -0.121,0.046 -0.121,-0.463 z m -0.275929,-1.5875 c -0.0059,-0.3638 0.08452,-1.1973 0.201039,-1.8521 0.158867,-0.8928 0.216324,-0.9921 0.229724,-0.3969 0.0098,0.4366 -0.08064,1.27 -0.20104,1.8521 -0.137025,0.6625 -0.222954,0.8109 -0.229723,0.3969 z m -18.020818,-1.4773 c 0.0127,-0.3082 0.07539,-0.3709 0.159852,-0.1598 0.07643,0.191 0.06703,0.4192 -0.02089,0.5071 -0.08792,0.088 -0.150453,-0.068 -0.138964,-0.3473 z m 34.713658,0.2241 c 0.695616,-0.055 1.767179,-0.054 2.38125,0 0.614075,0.055 0.04493,0.1003 -1.264753,0.1 -1.309688,-8e-4 -1.81211,-0.046 -1.116497,-0.1009 z m -4.042878,-0.5687 c -1.509969,-0.4882 -3.704167,-1.5306 -3.704167,-1.7598 0,-0.072 0.608653,0.177 1.352561,0.554 0.743907,0.377 2.202423,0.9082 3.241146,1.1805 1.038722,0.2723 1.590929,0.4953 1.227127,0.4955 -0.363803,2e-4 -1.316303,-0.2114 -2.116667,-0.4702 z m 8.008681,0.3156 c 0.257432,-0.067 0.614619,-0.063 0.79375,0.01 0.179131,0.072 -0.03149,0.1274 -0.468056,0.122 -0.436562,-0.01 -0.583126,-0.065 -0.325694,-0.1318 z m 2.829923,-0.7437 c 0.94076,-0.3492 1.75264,-0.5928 1.80419,-0.5413 0.12446,0.1245 -2.78276,1.2077 -3.193864,1.19 -0.176443,-0.01 0.448904,-0.2995 1.389674,-0.6487 z m 2.12598,-0.7362 c 0,-0.06 0.617,-0.4933 1.3711,-0.962 0.75411,-0.4688 1.23714,-0.6909 1.0734,-0.4937 -0.31187,0.3758 -2.4445,1.6457 -2.4445,1.4557 z m -42.597919,-0.9826 c 0.31086,-0.4365 0.624731,-0.7937 0.697492,-0.7937 0.07276,0 -0.122049,0.3572 -0.432909,0.7937 -0.31086,0.4366 -0.624731,0.7938 -0.697491,0.7938 -0.07276,0 0.122048,-0.3572 0.432908,-0.7938 z m 33.932814,0.601 c 0.545703,-0.057 1.438672,-0.057 1.984375,0 0.545703,0.057 0.09922,0.1038 -0.992187,0.1038 -1.091407,0 -1.537891,-0.047 -0.992188,-0.1038 z m -2.248958,-0.247 c 0.181901,-0.073 0.479557,-0.073 0.661458,0 0.181901,0.073 0.03307,0.1334 -0.330729,0.1334 -0.363802,0 -0.51263,-0.06 -0.330729,-0.1334 z m 6.416146,-0.1683 c 2.205567,-0.6547 2.517827,-0.7113 1.589047,-0.2881 -0.50847,0.2317 -1.341908,0.4708 -1.852083,0.5314 -0.815602,0.097 -0.783846,0.067 0.263036,-0.2433 z m -13.266002,-0.466 -0.624624,-0.5448 0.727604,0.443 c 0.400183,0.2436 0.727605,0.4888 0.727605,0.5449 0,0.2066 -0.221057,0.089 -0.830585,-0.4431 z m 4.931626,0.1576 c -1.021836,-0.4679 -0.546549,-0.4748 0.661459,-0.01 0.509323,0.1962 0.747448,0.3603 0.529167,0.3649 -0.218282,0 -0.754063,-0.1554 -1.190626,-0.3553 z m -12.038542,-0.065 c 0,-0.1519 0.20836,-0.4396 0.463021,-0.6394 0.428296,-0.3359 0.433911,-0.3234 0.07487,0.1661 -0.213484,0.291 -0.421844,0.5788 -0.463021,0.6394 -0.04118,0.061 -0.07487,-0.014 -0.07487,-0.1661 z m 51.295415,-0.5395 c -0.3291,-0.4196 -0.31974,-0.429 0.0999,-0.1 0.25466,0.1998 0.46302,0.4081 0.46302,0.4631 0,0.2177 -0.21727,0.078 -0.56292,-0.3632 z m -67.818164,-0.3529 c 0.181355,-0.2934 1.716527,-1.1139 1.844597,-0.9858 0.04914,0.049 -0.380028,0.3464 -0.953698,0.6607 -0.573671,0.3142 -0.974576,0.4605 -0.890899,0.3251 z m 53.237574,-0.6464 c -1.00302,-0.9326 -1.04926,-1.2877 -0.0586,-0.45 0.55623,0.4704 1.32074,1.3888 1.14544,1.376 -0.0542,0 -0.54327,-0.4206 -1.08684,-0.926 z m -32.317767,-0.9308 c -0.814425,-0.8797 -1.607729,-1.862 -1.762897,-2.1828 -0.169894,-0.3513 -0.04189,-0.2677 0.32177,0.2103 0.33214,0.4366 1.189421,1.4189 1.905069,2.1828 0.715647,0.764 1.237199,1.3891 1.159005,1.3891 -0.0782,0 -0.808521,-0.7197 -1.622947,-1.5994 z m 20.879047,0.7733 c 0.71644,-0.4543 2.01854,-1.5557 2.89356,-2.4474 1.25032,-1.2742 1.38611,-1.3664 0.63425,-0.4307 -0.99909,1.2434 -4.00783,3.7042 -4.529,3.7042 -0.16579,0 0.28475,-0.3717 1.00119,-0.8261 z m 4.21444,-0.7614 c 2.09032,-2.301 2.16748,-2.3744 1.53003,-1.4552 -0.30276,0.4366 -1.1224,1.3295 -1.82142,1.9844 -1.12964,1.0582 -1.09724,0.9994 0.29139,-0.5292 z m -28.432393,0.894 c 0.303617,-0.4876 0.271643,-0.6783 -0.243943,-1.4552 l -0.593357,-0.894 0.68201,0.7937 c 0.798011,0.9288 0.844143,1.2586 0.245257,1.7536 -0.399343,0.33 -0.407542,0.312 -0.08997,-0.1981 z m 6.869355,-0.6485 -0.916048,-0.8128 0.992187,0.7119 c 0.876798,0.6292 1.162095,0.9137 0.916049,0.9137 -0.04188,0 -0.488363,-0.3657 -0.992188,-0.8128 z m 41.549578,0.5483 c -0.23847,-0.1542 -0.2711,-0.2581 -0.0818,-0.2606 0.17331,0 0.3887,0.115 0.47864,0.2606 0.20301,0.3284 0.11142,0.3284 -0.39688,0 z m -35.057292,-0.2911 c -1.427057,-0.3209 -3.308626,-1.0345 -3.301567,-1.2522 0.0031,-0.097 0.38884,-0.3551 0.857089,-0.5734 0.468246,-0.2183 1.02476,-0.7117 1.236692,-1.0965 0.35797,-0.6499 0.327104,-0.8096 -0.434684,-2.2489 -0.451009,-0.8522 -0.973151,-2.0852 -1.160312,-2.74 -0.187164,-0.6549 -0.605137,-1.5151 -0.928833,-1.9115 -0.323694,-0.3965 -0.733608,-1.1605 -0.910916,-1.6977 -0.272094,-0.8245 -0.25985,-1.0226 0.0785,-1.27 0.316881,-0.2317 0.372748,-0.6863 0.266623,-2.1695 -0.315857,-4.4145 2.026486,-6.9742 6.382028,-6.9742 1.558166,0 5.287472,1.464 6.398612,2.512 1.09621,1.0338 1.39571,2.2107 1.49262,5.865 0.0723,2.7265 0.0341,3.0005 -0.49814,3.5719 -0.31705,0.3403 -0.71985,1.2141 -0.89513,1.9417 -0.17527,0.7276 -0.67796,2.0101 -1.11708,2.8499 -0.925756,1.7706 -0.792022,2.48 0.63069,3.3452 l 0.83093,0.5053 -0.81217,0.42 c -2.089101,1.0803 -5.625739,1.4825 -8.114949,0.9229 z m -28.44271,-0.2381 c 0.218281,-0.1411 0.515937,-0.2565 0.661458,-0.2565 0.145521,0 0.08599,0.1154 -0.132291,0.2565 -0.218282,0.141 -0.515938,0.2565 -0.661459,0.2565 -0.145521,0 -0.08599,-0.1155 0.132292,-0.2565 z m 62.044792,0 c -0.34891,-0.15 -0.39398,-0.2324 -0.13229,-0.242 0.21828,-0.01 0.57547,0.1009 0.79375,0.242 0.48365,0.3125 0.0659,0.3125 -0.66146,0 z m -14.25332,-0.4739 c -0.0712,-0.1151 0.27902,-0.1616 0.77813,-0.1033 0.49912,0.058 0.90748,0.1524 0.90748,0.2093 0,0.1991 -1.55758,0.1012 -1.68561,-0.106 z m -28.108663,-1.4935 c -0.539566,-0.6455 -1.208305,-1.5682 -1.486087,-2.0505 -0.433546,-0.7527 -0.436991,-0.7849 -0.02433,-0.2272 0.264402,0.3573 0.993288,1.28 1.619746,2.0505 0.626459,0.7705 1.078869,1.4008 1.005357,1.4008 -0.07351,0 -0.575123,-0.5281 -1.114689,-1.1736 z m -13.901503,0.102 c 0.798868,-0.487 0.876861,-0.6417 0.78888,-1.5642 -0.0537,-0.5631 -0.0061,-0.9673 0.105674,-0.8982 0.111819,0.069 0.203307,0.5267 0.203307,1.0169 0,0.6477 -0.190518,1.0411 -0.69714,1.4396 -0.383427,0.3016 -0.829911,0.5479 -0.992187,0.5474 -0.162277,-6e-4 0.103883,-0.2442 0.591466,-0.5415 z m 50.290016,-0.2309 c -0.91063,-0.9107 -0.96351,-1.415 -0.24424,-2.3294 0.29105,-0.37 0.52917,-0.5768 0.52917,-0.4595 0,0.1173 -0.1927,0.4262 -0.42823,0.6865 -0.60963,0.6736 -0.26801,1.7233 0.76606,2.3538 0.46904,0.286 0.69481,0.5204 0.50171,0.521 -0.19309,5e-4 -0.69911,-0.3471 -1.12447,-0.7724 z m -4.87444,-0.038 c -0.43657,-0.2797 -0.67469,-0.5083 -0.52917,-0.5081 0.14552,2e-4 0.62177,0.2369 1.05833,0.526 0.43656,0.2891 0.67469,0.5178 0.52917,0.5081 -0.14552,-0.01 -0.62177,-0.2464 -1.05833,-0.526 z m -38.012662,-1.4503 c -0.445992,-0.9531 -0.765388,-1.7784 -0.709768,-1.834 0.05562,-0.056 0.476763,0.7241 0.935874,1.7328 0.45911,1.0087 0.778506,1.834 0.709768,1.834 -0.06874,0 -0.489882,-0.7798 -0.935874,-1.7328 z m 36.243252,0.7583 c 0.191,-0.076 0.4192,-0.067 0.50712,0.021 0.0879,0.088 -0.0683,0.1504 -0.34726,0.139 -0.30823,-0.013 -0.37092,-0.075 -0.15986,-0.1599 z m -0.7244,-0.3484 c -0.001,-0.3813 0.74543,-1.896 0.76464,-1.5517 0.005,0.092 -0.16456,0.5686 -0.37715,1.0583 -0.21258,0.4896 -0.38695,0.7117 -0.38749,0.4934 z m -33.077272,-0.9594 c -0.311328,-0.5277 -0.522859,-1.0026 -0.470066,-1.0554 0.05279,-0.053 0.362905,0.379 0.689139,0.9594 0.740986,1.3184 0.551229,1.4016 -0.219073,0.096 z m 31.152312,-0.88 c 0.3828,-0.8661 0.74217,-1.5285 0.7986,-1.4721 0.12316,0.1232 -1.19143,3.0469 -1.36998,3.0469 -0.0685,0 0.18858,-0.7086 0.57138,-1.5748 z m -2.14412,-0.4063 c 0.24201,-0.5074 0.48699,-0.8757 0.5444,-0.8183 0.12103,0.121 -0.68215,1.7411 -0.8632,1.7411 -0.0667,0 0.0768,-0.4153 0.3188,-0.9228 z m -38.691746,0.376 c -0.09592,-0.1552 -0.117656,-0.3389 -0.0483,-0.4083 0.06935,-0.069 0.196603,0.058 0.282773,0.2822 0.178908,0.4662 0.02642,0.5482 -0.234472,0.1261 z m 11.404974,-0.434 c -0.143585,-0.3771 -0.113194,-0.4075 0.148112,-0.1481 0.180821,0.1795 0.262115,0.3929 0.180654,0.4744 -0.08146,0.082 -0.229407,-0.065 -0.328766,-0.3263 z m 32.137972,0.3193 c 0,-0.1455 0.11541,-0.4432 0.25648,-0.6614 0.14106,-0.2183 0.25648,-0.2779 0.25648,-0.1323 0,0.1455 -0.11542,0.4431 -0.25648,0.6614 -0.14107,0.2183 -0.25648,0.2778 -0.25648,0.1323 z m -34.76813,-0.804 c -0.255317,-0.6653 -0.179999,-0.837 0.131904,-0.3006 0.154434,0.2655 0.225054,0.5386 0.156932,0.6067 -0.06812,0.068 -0.198098,-0.07 -0.288836,-0.3061 z m 2.116667,-0.5291 c -0.255318,-0.6654 -0.179999,-0.8371 0.131904,-0.3007 0.154434,0.2656 0.225054,0.5386 0.156932,0.6067 -0.06812,0.068 -0.198098,-0.07 -0.288836,-0.306 z m 28.451643,-0.2544 c -7.9e-4,-0.1455 0.15912,-0.6813 0.35526,-1.1906 0.19613,-0.5093 0.3603,-0.7475 0.36481,-0.5292 0.004,0.2183 -0.15536,0.7541 -0.35526,1.1906 -0.1999,0.4366 -0.36406,0.6747 -0.36481,0.5292 z m -40.371681,-0.8126 c -0.09732,-0.3878 -0.125918,-0.7561 -0.06355,-0.8184 0.06237,-0.062 0.193017,0.2038 0.290336,0.5916 0.09732,0.3877 0.125918,0.756 0.06355,0.8184 -0.06237,0.062 -0.193017,-0.2039 -0.290336,-0.5916 z m 9.394698,0.2614 c 0.01269,-0.3082 0.07539,-0.3709 0.159852,-0.1599 0.07643,0.191 0.06703,0.4192 -0.02089,0.5072 -0.08792,0.088 -0.150453,-0.068 -0.138964,-0.3473 z m 42.973463,-0.8642 c 0.12026,-0.8196 1.45565,-2.8165 1.45565,-2.1768 0,0.1567 -0.23353,0.5184 -0.51896,0.8039 -0.28542,0.2854 -0.64221,0.9105 -0.79285,1.389 l -0.2739,0.8701 z m -43.238047,-0.1941 c 0.01269,-0.3083 0.07539,-0.371 0.159853,-0.1599 0.07643,0.191 0.06703,0.4192 -0.02089,0.5071 -0.08792,0.088 -0.150453,-0.068 -0.138963,-0.3472 z m 2.116667,-0.2646 c 0.01269,-0.3082 0.07539,-0.3709 0.159853,-0.1599 0.07643,0.191 0.06703,0.4192 -0.02089,0.5071 -0.08792,0.088 -0.150453,-0.068 -0.138965,-0.3472 z m -4.716665,-0.7717 c 0.0029,-0.5821 0.05712,-0.7891 0.120406,-0.46 0.06329,0.3292 0.06088,0.8054 -0.0053,1.0584 -0.06622,0.2529 -0.118003,-0.016 -0.115067,-0.5984 z m 39.133385,0.3968 c 0,-0.3638 0.0601,-0.5126 0.13346,-0.3307 0.0734,0.1819 0.0734,0.4796 0,0.6615 -0.0734,0.1819 -0.13346,0.033 -0.13346,-0.3308 z m -46.717213,-0.7022 c -0.376738,-0.5545 -0.684534,-1.1293 -0.68399,-1.2774 5.56e-4,-0.1481 0.253652,0.1474 0.562463,0.6567 0.308811,0.5094 0.691871,1.0089 0.851245,1.1101 0.159373,0.1013 0.214505,0.2593 0.122516,0.3513 -0.09199,0.092 -0.475496,-0.2863 -0.852234,-0.8407 z m 44.345773,0.3054 c 0.005,-0.4366 0.0647,-0.5832 0.13177,-0.3257 0.0671,0.2574 0.0627,0.6146 -0.01,0.7937 -0.0725,0.1792 -0.12736,-0.032 -0.12197,-0.468 z m -34.395838,-0.2646 c 0.0054,-0.4366 0.06469,-0.5831 0.131774,-0.3257 0.06708,0.2574 0.06267,0.6146 -0.0098,0.7937 -0.07248,0.1792 -0.127363,-0.031 -0.121971,-0.468 z m 32.269368,0.1323 c 0,-0.3638 0.06,-0.5126 0.13345,-0.3307 0.0734,0.1819 0.0734,0.4795 0,0.6614 -0.0734,0.1819 -0.13345,0.033 -0.13345,-0.3307 z m -30.152701,-0.3969 c 0.0054,-0.4366 0.06469,-0.5831 0.131774,-0.3257 0.06708,0.2574 0.06267,0.6146 -0.0098,0.7938 -0.07248,0.1791 -0.127363,-0.031 -0.121971,-0.4681 z m 34.970051,-2.6458 c 8e-4,-1.4552 0.0451,-2.0168 0.0987,-1.2479 0.0536,0.7688 0.053,1.9595 -0.001,2.6458 -0.0543,0.6864 -0.0982,0.057 -0.0975,-1.3979 z m -4.50063,0 c -7.9e-4,-1.3097 0.0439,-1.8789 0.0994,-1.2648 0.0555,0.6141 0.0561,1.6857 0.002,2.3813 -0.0547,0.6956 -0.10008,0.1932 -0.10089,-1.1165 z m 2.11813,-0.1323 c 0,-1.3825 0.0446,-1.948 0.0991,-1.2568 0.0545,0.6912 0.0545,1.8223 0,2.5136 -0.0545,0.6912 -0.0991,0.1256 -0.0991,-1.2568 z m -37.386384,0.1102 c 0.0084,-1.152 0.110346,-2.5708 0.226576,-3.1529 0.129331,-0.6477 0.160742,0.1222 0.08096,1.9844 -0.151416,3.5338 -0.329681,4.2112 -0.307532,1.1685 z m 2.458452,-0.1102 c 0,-1.2369 0.04558,-1.743 0.10128,-1.1245 0.0557,0.6185 0.0557,1.6305 0,2.249 -0.0557,0.6184 -0.10128,0.1124 -0.10128,-1.1245 z m 2.111038,0.1323 c 0.0012,-1.0187 0.049,-1.403 0.106272,-0.854 0.05728,0.5489 0.05631,1.3824 -0.0021,1.8521 -0.05845,0.4697 -0.105312,0.02 -0.104138,-0.9981 z m 43.082044,1.1906 c 0,-0.3638 0.0601,-0.5126 0.13345,-0.3307 0.0734,0.1819 0.0734,0.4795 0,0.6614 -0.0734,0.1819 -0.13345,0.033 -0.13345,-0.3307 z m -55.838173,-0.4306 c -0.01688,-0.3096 0.177667,-0.7263 0.432329,-0.9261 0.402694,-0.3158 0.42364,-0.3114 0.160763,0.034 -0.166242,0.2183 -0.36079,0.635 -0.432329,0.926 -0.123543,0.5026 -0.131612,0.5009 -0.160763,-0.034 z m 55.708203,-0.8041 c -0.097,-0.097 -0.17639,-1.0838 -0.17639,-2.1929 0,-2.4054 -0.68646,-4.0383 -2.08965,-4.9708 -0.49446,-0.3286 -0.77149,-0.5974 -0.61561,-0.5974 0.47458,0 1.90374,1.3354 2.36971,2.2143 0.27185,0.5127 0.49506,1.761 0.58581,3.276 0.0806,1.3461 0.13669,2.4474 0.12456,2.4473 -0.0121,-10e-5 -0.10142,-0.08 -0.19843,-0.1765 z m -55.117279,-2.734 c 0,-1.237 0.04558,-1.743 0.10128,-1.1245 0.0557,0.6184 0.0557,1.6305 0,2.2489 -0.0557,0.6185 -0.10128,0.1125 -0.10128,-1.1244 z m 12.394548,-0.1323 c 0.0054,-0.4366 0.06469,-0.5832 0.131774,-0.3257 0.06708,0.2574 0.06267,0.6146 -0.0098,0.7937 -0.07248,0.1791 -0.127363,-0.032 -0.121971,-0.468 z m -2.110569,-0.1323 c -0.0027,-0.3638 0.0904,-0.9591 0.206905,-1.323 0.165995,-0.5183 0.210769,-0.5469 0.206906,-0.1322 -0.0027,0.291 -0.09582,0.8863 -0.206906,1.3229 -0.181422,0.713 -0.202477,0.7264 -0.206905,0.1323 z m 32.26327,0 c 0,-0.3638 0.06,-0.5127 0.13345,-0.3308 0.0734,0.1819 0.0734,0.4796 0,0.6615 -0.0734,0.1819 -0.13345,0.033 -0.13345,-0.3307 z m 2.11666,-0.2646 c 0,-0.3638 0.0601,-0.5126 0.13346,-0.3307 0.0734,0.1819 0.0734,0.4795 0,0.6614 -0.0734,0.1819 -0.13346,0.033 -0.13346,-0.3307 z m 2.36037,-0.4189 c 0.0127,-0.3083 0.0754,-0.371 0.15985,-0.1599 0.0764,0.191 0.067,0.4192 -0.0209,0.5071 -0.0879,0.088 -0.15045,-0.068 -0.13896,-0.3472 z m -4.7625,-0.5292 c 0.0127,-0.3082 0.0754,-0.3709 0.15985,-0.1599 0.0764,0.191 0.067,0.4192 -0.0209,0.5072 -0.0879,0.088 -0.15045,-0.068 -0.13896,-0.3473 z m 4.49791,-0.7938 c 0.0127,-0.3082 0.0754,-0.3709 0.15985,-0.1598 0.0764,0.191 0.067,0.4192 -0.0209,0.5071 -0.0879,0.088 -0.15046,-0.068 -0.13897,-0.3473 z m -33.879452,0.022 c 0,-0.1455 0.115416,-0.4432 0.256481,-0.6615 0.141064,-0.2182 0.25648,-0.2778 0.25648,-0.1323 0,0.1456 -0.115416,0.4432 -0.25648,0.6615 -0.141065,0.2183 -0.256481,0.2778 -0.256481,0.1323 z m -12.7,-0.2646 c 0,-0.1455 0.115416,-0.4432 0.25648,-0.6614 0.141064,-0.2183 0.25648,-0.2779 0.25648,-0.1323 0,0.1455 -0.115416,0.4431 -0.25648,0.6614 -0.141064,0.2183 -0.25648,0.2778 -0.25648,0.1323 z m 43.933622,-0.2866 c 0.0127,-0.3082 0.0754,-0.3709 0.15985,-0.1599 0.0764,0.191 0.067,0.4192 -0.0209,0.5071 -0.0879,0.088 -0.15045,-0.068 -0.13896,-0.3472 z m -3.18887,-1.894 c -0.49929,-0.963 -1.61326,-2.5332 -2.47549,-3.4893 l -1.5677,-1.7384 1.68736,1.7225 c 1.45043,1.4806 3.65502,4.8647 3.36083,5.1589 -0.0535,0.053 -0.50572,-0.6907 -1.005,-1.6537 z m -27.523688,1.1532 c 0,-0.2839 0.787236,-1.7507 0.939631,-1.7507 0.07276,0 -0.0645,0.3869 -0.305027,0.8599 -0.491129,0.9657 -0.634604,1.1671 -0.634604,0.8908 z m 29.521988,-1.927 c -0.56478,-1.0971 -1.3306,-2.3694 -1.70183,-2.8274 l -0.67497,-0.8328 0.66208,0.5918 c 0.64155,0.5735 3.03977,4.765 2.84039,4.9644 -0.0543,0.054 -0.5609,-0.7988 -1.12567,-1.896 z m -41.82117,1.1602 c 0.255536,-0.4047 0.531166,-0.6693 0.61251,-0.5879 0.08134,0.081 -0.127731,0.4124 -0.464612,0.7358 l -0.61251,0.588 z m 10.182515,0.2403 c 0,-0.2858 1.050981,-2.2825 1.20138,-2.2825 0.07276,0 -0.122888,0.506 -0.434775,1.1244 -0.613347,1.2163 -0.766605,1.4478 -0.766605,1.1581 z m -2.373147,-0.5628 c 0,-0.1455 0.115416,-0.4431 0.256481,-0.6614 0.141064,-0.2183 0.25648,-0.2778 0.25648,-0.1323 0,0.1455 -0.115416,0.4432 -0.25648,0.6615 -0.141065,0.2182 -0.256481,0.2778 -0.256481,0.1322 z m 36.811962,-0.5405 c -0.3818,-0.8379 -0.38972,-1.1792 -0.0274,-1.1792 0.15411,0 0.20813,0.1166 0.12005,0.2591 -0.0881,0.1425 -0.0259,0.5099 0.13812,0.8164 0.16403,0.3065 0.24841,0.6071 0.1875,0.668 -0.0609,0.061 -0.24915,-0.193 -0.41831,-0.5643 z m -31.007469,-0.843 c 0.157057,-0.3244 0.907771,-1.228 1.668252,-2.0081 1.099723,-1.1279 1.165198,-1.1697 0.319935,-0.2039 -0.584517,0.6679 -1.335231,1.5715 -1.668252,2.008 -0.378485,0.4962 -0.498433,0.5727 -0.319935,0.204 z m -10.376659,-0.2469 c 0.181901,-0.073 0.479558,-0.073 0.661459,0 0.181901,0.073 0.03307,0.1335 -0.330729,0.1335 -0.363802,0 -0.512631,-0.06 -0.33073,-0.1335 z m 3.175001,0 c 0.181901,-0.073 0.479557,-0.073 0.661458,0 0.181901,0.073 0.03307,0.1335 -0.330729,0.1335 -0.363802,0 -0.51263,-0.06 -0.330729,-0.1335 z m 41.026957,-0.01 c 0.19099,-0.076 0.4192,-0.067 0.50712,0.021 0.0879,0.088 -0.0684,0.1504 -0.34727,0.1389 -0.30823,-0.013 -0.37092,-0.075 -0.15985,-0.1598 z m -42.614457,-0.2591 c 0.181901,-0.073 0.479557,-0.073 0.661458,0 0.181901,0.073 0.03307,0.1335 -0.330729,0.1335 -0.363802,0 -0.512631,-0.06 -0.330729,-0.1335 z m 40.745837,0 c 0.1819,-0.073 0.47956,-0.073 0.66146,0 0.1819,0.073 0.0331,0.1335 -0.33073,0.1335 -0.36381,0 -0.51263,-0.06 -0.33073,-0.1335 z m -33.796637,-0.5565 c 0.357778,-0.7558 2.435481,-3.1057 3.530839,-3.9933 0.456994,-0.3703 -0.0056,0.2139 -1.027929,1.2983 -1.022355,1.0843 -2.067591,2.2692 -2.322747,2.633 -0.399381,0.5694 -0.424445,0.5781 -0.180163,0.062 z m 25.980107,-3.619 c -0.91573,-0.7726 -2.34448,-1.786 -3.175,-2.252 -0.83052,-0.4659 -1.27191,-0.7725 -0.98087,-0.6812 0.98182,0.3078 3.2218,1.785 4.65818,3.0719 1.9077,1.7092 1.58091,1.6189 -0.50231,-0.1387 z m -20.692328,1.0759 c 0,-0.055 0.20836,-0.2633 0.463021,-0.4631 0.419645,-0.3291 0.429003,-0.3197 0.0999,0.1 -0.345644,0.4408 -0.562917,0.5809 -0.562917,0.3632 z m 1.058334,-0.8076 c 0,-0.073 0.238125,-0.2597 0.529166,-0.4155 0.291042,-0.1557 0.529167,-0.2236 0.529167,-0.1509 0,0.073 -0.238125,0.2598 -0.529167,0.4155 -0.291041,0.1558 -0.529166,0.2237 -0.529166,0.1509 z m 14.419794,-1.102 c -0.72761,-0.3534 -1.02526,-0.5666 -0.66146,-0.4737 0.77523,0.198 2.11667,0.8537 2.11667,1.0347 0,0.1567 0.10929,0.1988 -1.45521,-0.561 z m 7.26581,-0.7128 c -0.806,-0.7584 -1.16318,-1.143 -0.79375,-0.8548 0.36943,0.2882 1.05483,0.8734 1.52312,1.3004 0.94372,0.8607 0.86883,0.9203 1.53872,-1.2246 0.19391,-0.6209 0.36054,-0.9418 0.37027,-0.7131 0.0241,0.5661 -0.78336,2.894 -0.99935,2.8811 -0.0955,-0.01 -0.83302,-0.6307 -1.63901,-1.389 z m -28.388382,0.9584 c -0.09701,-0.097 -0.174566,-0.3054 -0.172338,-0.4631 0.0022,-0.1576 0.106829,-0.1244 0.232445,0.074 0.1758,0.2775 0.67751,0 2.178761,-1.2243 1.072702,-0.8717 2.248024,-1.7209 2.611826,-1.8873 0.563708,-0.2577 0.586582,-0.2527 0.154766,0.034 -0.27868,0.1849 -1.434265,1.0803 -2.567966,1.9898 -2.197874,1.7632 -2.169011,1.7457 -2.437494,1.4773 z m 8.219721,-0.1211 c 0.179478,-0.1808 0.39297,-0.2621 0.474433,-0.1806 0.08146,0.081 -0.06538,0.2294 -0.326319,0.3287 -0.377084,0.1436 -0.407474,0.1132 -0.148114,-0.1481 z m -3.141744,-0.5836 c 0.423084,-0.5098 2.954501,-1.8462 3.141969,-1.6587 0.08719,0.087 0.04238,0.1585 -0.09957,0.1585 -0.141954,0 -0.950436,0.4169 -1.796627,0.9265 -0.84619,0.5095 -1.406786,0.7677 -1.245769,0.5737 z m 4.667509,-0.026 c 1.452441,-0.7064 3.631216,-1.0132 6.216531,-0.8754 1.383097,0.074 2.812376,0.2701 3.176178,0.4365 l 0.661457,0.3026 -0.661457,-0.16 c -0.363802,-0.088 -1.852838,-0.2248 -3.308969,-0.3039 -2.498273,-0.1357 -3.534429,-2e-4 -6.348323,0.83 -0.291042,0.086 -0.171979,-0.018 0.264583,-0.2298 z m -10.420451,-0.9709 c -0.162346,-0.4657 -0.286785,-0.9778 -0.276531,-1.138 0.01025,-0.1602 0.189321,0.1746 0.397927,0.744 0.208606,0.5694 0.333045,1.0815 0.276531,1.138 -0.05651,0.057 -0.235581,-0.2783 -0.397927,-0.744 z m 9.891284,-1.1742 c 0.436563,-0.1999 0.972344,-0.3598 1.190625,-0.3553 0.218282,0 -0.01984,0.1687 -0.529166,0.3648 -1.208008,0.4652 -1.683295,0.4584 -0.661459,-0.01 z m 11.244793,0.1063 c -0.3638,-0.1466 -1.375834,-0.4248 -2.248959,-0.6181 -0.873125,-0.1934 -1.344623,-0.3635 -1.047776,-0.3781 0.6537,-0.032 3.458225,0.679 4.057045,1.0288 0.56188,0.3283 0.0843,0.3078 -0.76031,-0.033 z m 5.22352,-0.2063 c -1.08735,-0.6971 -1.238,-0.9425 -0.27936,-0.4552 0.46371,0.2358 0.91723,0.5486 1.0078,0.6952 0.21217,0.3432 0.14877,0.3224 -0.72844,-0.24 z m 5.36371,-0.2703 c -0.002,-0.2089 0.24417,-0.6439 0.54737,-0.9666 0.67729,-0.7209 1.09599,-2.4132 0.75481,-3.0507 -0.13626,-0.2546 -0.2276,-1.3339 -0.20298,-2.3985 l 0.0448,-1.9356 0.21602,2.249 c 0.31104,3.2382 0.27202,3.9947 -0.24338,4.7177 -0.25247,0.3541 -0.60612,0.8961 -0.78588,1.2042 -0.20246,0.3471 -0.32831,0.4158 -0.33073,0.1805 z m -32.873114,-1.0066 c -0.828111,-1.071 -1.213093,-2.6048 -0.766021,-3.0519 0.172949,-0.1729 0.297737,-1.2217 0.297737,-2.5022 0,-1.3944 0.151003,-2.5661 0.410911,-3.1883 0.427497,-1.0234 1.620492,-2.4389 2.055522,-2.4389 0.13792,0 -0.07791,0.2586 -0.479616,0.5745 -1.226554,0.9649 -1.709856,2.4173 -1.716423,5.1582 -0.0038,1.5865 -0.110938,2.4604 -0.309786,2.5266 -0.488308,0.1628 -0.02447,1.943 0.744301,2.8566 0.376119,0.447 0.639272,0.8548 0.584784,0.9062 -0.05449,0.051 -0.424122,-0.327 -0.821409,-0.8408 z m 12.959321,0.8143 c 0.181901,-0.073 0.479557,-0.073 0.661458,0 0.181901,0.073 0.03307,0.1335 -0.330729,0.1335 -0.363802,0 -0.51263,-0.06 -0.330729,-0.1335 z m 1.322916,-0.2645 c 0.181901,-0.073 0.479558,-0.073 0.661459,0 0.181901,0.073 0.03307,0.1334 -0.330729,0.1334 -0.363803,0 -0.512631,-0.06 -0.33073,-0.1334 z m -4.960937,-1.1477 c 0.218281,-0.1411 0.515937,-0.2565 0.661458,-0.2565 0.145521,0 0.08599,0.1154 -0.132292,0.2565 -0.218281,0.141 -0.515937,0.2564 -0.661458,0.2564 -0.145521,0 -0.08599,-0.1154 0.132292,-0.2564 z m 1.322916,-0.5014 c 0.218282,-0.1342 0.873125,-0.3136 1.455209,-0.3986 0.749358,-0.1095 0.865224,-0.091 0.396875,0.065 -1.214488,0.4036 -2.277198,0.5949 -1.852084,0.3335 z m 11.112498,-0.1808 -1.190622,-0.3656 1.058332,0.1512 c 0.58208,0.083 1.23693,0.2557 1.45521,0.3835 0.55018,0.3222 0.0818,0.2623 -1.32292,-0.1691 z m -8.169886,-0.552 c 0.3639,-0.097 0.416988,-0.4842 0.349522,-2.549 l -0.07955,-2.4345 0.214363,2.3812 c 0.233548,2.5944 0.199845,2.7931 -0.466003,2.7474 -0.396131,-0.027 -0.398235,-0.044 -0.01833,-0.1451 z m 6.268196,0 c 0.190995,-0.076 0.419198,-0.067 0.507119,0.021 0.08792,0.088 -0.06835,0.1504 -0.347266,0.1389 -0.308226,-0.013 -0.370919,-0.075 -0.159853,-0.1598 z m -0.321651,-1.1389 c 0.17993,-0.1814 0.246327,-1.0168 0.174739,-2.1985 -0.0635,-1.0482 -0.01551,-2.1659 0.106677,-2.4838 0.1437,-0.374 0.222136,0.3491 0.222136,2.0476 0,2.0905 -0.08089,2.6564 -0.396875,2.7765 -0.288806,0.1098 -0.317854,0.071 -0.106677,-0.1418 z m -5.957851,-4.1488 c -0.01148,-0.17 -0.08941,-0.5272 -0.173159,-0.7938 -0.14474,-0.4607 -0.137274,-0.4613 0.151019,-0.012 0.166806,0.2602 0.244729,0.6174 0.173156,0.7938 -0.09392,0.2315 -0.13594,0.2348 -0.151016,0.012 z m 6.594684,-1.6084 c -0.0012,-0.4107 1.814818,-2.4482 2.182148,-2.4482 0.14821,0 -0.0577,0.2574 -0.45751,0.5719 -0.39984,0.3145 -0.951231,0.9396 -1.225313,1.389 -0.274085,0.4495 -0.498782,0.6688 -0.499325,0.4873 z m 12.699008,-0.5961 c -0.15576,-0.291 -0.22367,-0.5292 -0.15091,-0.5292 0.0728,0 0.25974,0.2382 0.4155,0.5292 0.15576,0.2911 0.22367,0.5292 0.15091,0.5292 -0.0728,0 -0.25974,-0.2381 -0.4155,-0.5292 z m -20.253875,-0.021 c -0.09723,-0.1573 -0.550739,-0.5141 -1.007804,-0.7928 -0.457065,-0.2787 -0.684077,-0.5072 -0.504473,-0.5077 0.338601,0 2.195415,1.565 1.871874,1.5787 -0.100552,0 -0.262371,-0.1209 -0.359597,-0.2782 z m 17.740335,-1.4431 c -0.66162,-0.3187 -0.68364,-0.3554 -0.13229,-0.2206 0.7497,0.1832 1.59239,0.6127 1.19063,0.6068 -0.14553,0 -0.62178,-0.1759 -1.05834,-0.3862 z m -20.622249,-0.098 c -0.08155,-0.132 0.09002,-0.1776 0.38126,-0.1014 0.617799,0.1615 0.695893,0.3413 0.148272,0.3413 -0.209693,0 -0.447982,-0.108 -0.529532,-0.2399 z"
         id="path2085" />
      <path
         style="fill:#000000;stroke-width:0.264583"
         d="m 115.39072,1138.0078 c -3.56113,-3.6194 -6.62277,-6.847 -6.80365,-7.1726 -0.18088,-0.3256 -0.33309,-0.9719 -0.33824,-1.4363 -0.005,-0.4643 -0.12844,-0.9178 -0.27396,-1.0078 -0.61361,-0.3792 -0.16793,-1.337 1.36486,-2.9333 1.53907,-1.6028 2.36395,-2.0346 2.73618,-1.4323 0.0899,0.1455 0.57287,0.2646 1.07319,0.2646 1.10725,0 0.98598,-0.1071 9.11327,8.0488 3.41974,3.4317 6.43619,6.6531 6.70321,7.1585 0.67322,1.2743 0.38145,2.3228 -1.0816,3.8869 l -1.1961,1.2787 -2.41119,-0.037 -2.41119,-0.037 z m -46.263705,-1.7056 c -3.529054,-0.5918 -8.156651,-2.346 -9.05835,-3.4337 -0.261533,-0.3155 -0.371713,-1.0691 -0.352895,-2.4136 0.02417,-1.7266 0.120272,-2.0849 0.822733,-3.0677 1.010057,-1.4131 3.540606,-2.7323 6.902987,-3.5987 3.847126,-0.9913 4.485441,-1.878 3.095479,-4.3 -0.363448,-0.6334 -0.855388,-1.8361 -1.093199,-2.6729 -0.237811,-0.8367 -0.513832,-1.5213 -0.61338,-1.5213 -0.299985,0 -1.336772,-2.0166 -1.336772,-2.6001 0,-0.299 0.119063,-0.6173 0.264583,-0.7072 0.145521,-0.09 0.264584,-1.2135 0.264584,-2.4969 0,-2.5625 0.333911,-3.6643 1.477391,-4.8747 1.327121,-1.4047 3.832905,-2.0099 6.247098,-1.5087 l 1.437602,0.2984 -0.608617,1.8669 c -0.944616,2.8975 -1.236155,5.0847 -1.052105,7.8932 0.258664,3.947 1.370016,7.1133 3.873425,11.0355 0.326241,0.5111 0.29372,0.6662 -0.305316,1.4552 -0.993057,1.3081 -1.377183,2.7495 -1.363533,5.1165 0.01623,2.8153 0.464886,3.8365 2.11011,4.8028 l 1.28082,0.7523 -1.190625,0.1794 c -2.029462,0.3058 -8.487625,0.1834 -10.80202,-0.2047 z m 52.800295,-8.027 c -5.93362,-6.0153 -6.69621,-6.6222 -8.33004,-6.6295 -0.45558,0 -0.42373,-0.2105 0.30674,-2.0082 1.85462,-4.5642 1.92851,-10.3343 0.19084,-14.9015 -0.29928,-0.7866 -0.47268,-1.5458 -0.38535,-1.6871 0.46672,-0.7552 6.12989,0.8404 7.59285,2.1392 0.95832,0.8508 1.47722,2.4471 1.48338,4.5631 0.003,1.0987 0.11902,2.1109 0.25739,2.2492 0.36726,0.3673 -0.10663,2.1794 -0.74863,2.8628 -0.29768,0.3169 -0.67948,1.2281 -0.84844,2.0249 -0.31875,1.5033 -1.09506,3.2751 -1.56115,3.5632 -0.43127,0.2665 -0.3107,1.0678 0.2722,1.8088 0.33074,0.4205 1.07531,0.8404 1.91823,1.0818 4.8506,1.3893 6.02774,1.8139 7.01723,2.5306 l 1.10731,0.8022 v 3.4311 3.4311 l -0.78061,0.4037 c -0.42934,0.222 -0.94365,0.4037 -1.14292,0.4037 -0.19926,0 -3.05633,-2.7311 -6.34903,-6.0691 z m -30.828749,0.7898 c -10.787563,-2.9232 -16.10737,-14.9442 -11.128956,-25.1478 1.493029,-3.0601 4.731776,-6.3532 7.632347,-7.7605 3.712713,-1.8014 7.279678,-2.368 10.593021,-1.6828 5.819317,1.2035 9.924277,4.1942 12.455467,9.0746 1.72606,3.3281 1.95776,4.3695 1.93627,8.7031 -0.0174,3.5155 -0.0611,3.8125 -0.858,5.8321 -0.46179,1.1704 -1.20343,2.7017 -1.64807,3.4029 -2.01628,3.1793 -5.34951,5.8377 -8.98494,7.1657 -2.738085,1.0003 -7.15558,1.1826 -9.997139,0.4127 z m 7.038666,-1.5908 c 3.792583,-0.7192 7.717943,-3.3006 9.920143,-6.5236 5.04476,-7.3833 3.0647,-17.4303 -4.39271,-22.289 -2.85026,-1.857 -4.296911,-2.253 -8.257499,-2.2601 -3.971962,-0.01 -5.308664,0.3756 -8.384985,2.4012 -9.927139,6.5366 -9.172383,21.5722 1.357887,27.0507 3.23255,1.6817 6.539378,2.2311 9.757164,1.6208 z m 10.234513,-31.04 c -2.17995,-1.8673 -6.3372,-3.9646 -8.797391,-4.4383 -1.090261,-0.2099 -1.653646,-0.4447 -1.653646,-0.6892 0,-0.2039 0.168735,-0.4355 0.374967,-0.5146 0.294325,-0.1129 0.344628,-0.5521 0.233903,-2.0422 -0.186963,-2.516 0.235349,-3.9954 1.502097,-5.2622 l 1.00178,-1.0018 h 3.3774 c 2.80534,0 3.64408,0.097 4.95189,0.5741 2.25653,0.8228 2.90373,1.8704 3.14085,5.0839 0.0979,1.3265 0.20927,2.5904 0.24755,2.8087 0.16685,0.9515 -0.057,1.8641 -0.62771,2.5594 -0.33767,0.4113 -0.82752,1.5529 -1.08855,2.5369 -0.26103,0.9839 -0.5503,1.8301 -0.64282,1.8803 -0.0925,0.05 -1.00167,-0.6225 -2.02032,-1.495 z m -28.460207,-0.3884 c -0.324396,-0.9822 -0.865147,-2.1168 -1.201668,-2.5213 -0.711217,-0.8548 -1.139101,-2.6237 -0.672305,-2.7793 0.198848,-0.066 0.305985,-0.9401 0.309786,-2.5266 0.0066,-2.7409 0.489869,-4.1933 1.716423,-5.1582 0.669492,-0.5266 1.034896,-0.5745 4.38325,-0.5745 2.009078,0 3.716951,0.1037 3.79527,0.2304 0.07832,0.1268 0.485444,0.2991 0.904716,0.3829 2.059366,0.4119 3.084719,2.3769 3.29759,6.3195 l 0.12432,2.3026 -1.491293,0.3013 c -2.292797,0.4633 -6.263933,2.4583 -8.426882,4.2336 -1.055843,0.8665 -1.971393,1.5756 -2.034555,1.5756 -0.06316,0 -0.380255,-0.8037 -0.704652,-1.786 z"
         id="path2083" />
    </g>
    <text
       xml:space="preserve"
       style="font-size:4.9389px;line-height:1.25;font-family:sans-serif;stroke-width:0.264583"
       x="135.72722"
       y="98.223511"
       id="text1858-31-2"><tspan
         sodipodi:role="line"
         id="tspan1856-03-1"
         x="135.72722"
         y="98.223511"
         style="stroke-width:0.264583">Koszt uzależniony </tspan><tspan
         sodipodi:role="line"
         x="135.72722"
         y="104.39714"
         style="stroke-width:0.264583"
         id="tspan2087-1">od Twoich życzeń</tspan></text>
    <text
       xml:space="preserve"
       style="font-size:4.9389px;line-height:1.25;font-family:sans-serif;stroke-width:0.264583"
       x="72.820267"
       y="97.699989"
       id="text1858-31-2-3"><tspan
         sodipodi:role="line"
         x="72.820267"
         y="97.699989"
         style="stroke-width:0.264583"
         id="tspan2087-1-4">Zawarte w cenie:</tspan><tspan
         sodipodi:role="line"
         x="72.820267"
         y="103.87361"
         style="stroke-width:0.264583"
         id="tspan868">Panele Słoneczne</tspan><tspan
         sodipodi:role="line"
         x="72.820267"
         y="110.04724"
         style="stroke-width:0.264583"
         id="tspan870">Rekuperacja</tspan><tspan
         sodipodi:role="line"
         x="72.820267"
         y="116.22086"
         style="stroke-width:0.264583"
         id="tspan872">Ogrzewanie podłogowe</tspan><tspan
         sodipodi:role="line"
         x="72.820267"
         y="122.39449"
         style="stroke-width:0.264583"
         id="tspan876">Aluminiowe okna</tspan><tspan
         sodipodi:role="line"
         x="72.820267"
         y="128.56812"
         style="stroke-width:0.264583"
         id="tspan880">i wiele więcej</tspan></text>
    <path
       style="fill:#000000;stroke-width:0.178653"
       d="m 96.576168,88.244942 c -0.736949,-0.19541 -1.960457,-0.668628 -2.718917,-1.051583 -1.30313,-0.657979 -1.426015,-0.686379 -2.233165,-0.516148 -1.465881,0.309158 -6.366685,0.244094 -8.149523,-0.108191 -2.52075,-0.498094 -4.006212,-1.19949 -4.534083,-2.14087 -0.164539,-0.293432 -0.218516,-3.544135 -0.223317,-13.449229 -0.0061,-13.001151 -0.0047,-13.064493 0.368598,-13.538906 0.521457,-0.662917 1.851265,-1.295866 3.6907,-1.756646 1.347244,-0.337492 2.05311,-0.39128 5.13502,-0.39128 3.098832,0 3.783915,0.0528 5.161712,0.397613 2.479582,0.620606 4.035796,1.666787 4.03822,2.714729 5.33e-4,0.229975 0.551748,0.267984 3.886377,0.267984 4.32189,0 5.67126,0.202972 7.68709,1.15631 1.80432,0.853309 1.82479,0.919056 1.82558,5.862952 5.4e-4,3.723969 0.036,4.230395 0.33785,4.823641 1.13458,2.23037 1.55935,5.66464 1.01208,8.182696 -0.96398,4.435419 -4.08813,7.879061 -8.49539,9.364198 -1.71209,0.576934 -4.971375,0.664665 -6.788832,0.18273 z m 5.581872,-1.601586 c 5.90945,-1.511384 9.47487,-7.359517 8.00079,-13.123158 -0.93976,-3.674413 -3.48102,-6.480629 -7.03034,-7.763314 -1.10639,-0.399841 -1.57576,-0.464069 -3.425883,-0.468808 -1.799606,-0.0047 -2.357553,0.06448 -3.474768,0.430361 -3.233276,1.058821 -5.930531,3.761788 -6.99426,7.009067 -0.358099,1.093162 -0.427924,1.662722 -0.423346,3.45294 0.0047,1.850124 0.06896,2.319486 0.468809,3.425883 0.254823,0.705118 0.840061,1.848747 1.300524,2.541379 2.497125,3.756217 7.251618,5.602269 11.578474,4.49565 z m -3.159913,-3.445857 c -0.15297,-0.218382 -0.27812,-0.499761 -0.27812,-0.625293 0,-0.125524 -0.123799,-0.228226 -0.275097,-0.228226 -0.442053,0 -1.560698,-0.639519 -2.080762,-1.18955 -1.045089,-1.10531 -1.199391,-2.09463 -0.374299,-2.399852 0.415994,-0.153884 1.122279,0.247639 1.122279,0.638013 0,0.322164 1.029046,1.34351 1.353648,1.34351 0.204464,0 0.254231,-0.38467 0.254231,-1.96519 0,-1.655719 -0.04364,-1.965182 -0.276848,-1.965182 -0.378306,0 -1.330923,-0.496486 -1.839711,-0.958827 C 95.52582,74.867657 95.198856,73.10243 95.85637,71.8136 c 0.439843,-0.862161 1.511422,-1.76144 2.268079,-1.903392 0.451523,-0.0847 0.599518,-0.219198 0.688868,-0.626049 0.19932,-0.907542 1.514573,-0.867934 1.514573,0.04564 0,0.187571 0.14069,0.386249 0.31265,0.441503 1.87257,0.60174 3.08176,1.783418 3.08176,3.011639 0,0.921913 -1.26289,0.910501 -1.61461,-0.01458 -0.22291,-0.586305 -1.0325,-1.322185 -1.45462,-1.322185 -0.31275,0 -0.33358,0.139103 -0.28656,1.913527 l 0.0507,1.913534 0.58159,0.118618 c 1.2394,0.252776 2.40909,1.444029 2.75465,2.805418 0.38983,1.53584 -0.68946,3.29865 -2.41265,3.940581 -0.59032,0.219914 -0.94664,0.464224 -0.98748,0.677088 -0.16021,0.83516 -0.893273,1.042116 -1.355203,0.382603 z m 2.671783,-3.211108 c 0.50934,-0.605319 0.56138,-1.185891 0.17351,-1.935938 -0.2735,-0.528904 -1.19646,-1.146931 -1.40355,-0.939846 -0.13855,0.138543 -0.14988,3.349394 -0.0123,3.486964 0.20178,0.201778 0.8101,-0.09749 1.24234,-0.61118 z m -2.949903,-6.75373 c 0,-1.907755 -0.08997,-2.067506 -0.827689,-1.469919 -0.735774,0.596001 -0.99539,1.627259 -0.597048,2.37158 0.168004,0.313919 0.972101,0.86071 1.290746,0.877718 0.07366,0.0041 0.133991,-0.796786 0.133991,-1.779379 z m -9.339837,12.031952 1.468697,-0.114336 -0.682518,-0.822526 c -0.375385,-0.452387 -0.898313,-1.152143 -1.16207,-1.555016 l -0.479545,-0.732498 -1.868827,-0.114342 c -1.96313,-0.120116 -4.580464,-0.616204 -5.684221,-1.07739 l -0.65297,-0.272825 v 1.595133 1.595131 l 0.68066,0.347254 c 0.977429,0.498641 2.748147,0.924236 4.500282,1.081644 2.166412,0.194627 2.255968,0.196241 3.880512,0.06977 z M 87.6405,80.155481 c -0.0014,-0.02458 -0.150622,-0.76821 -0.33105,-1.652546 l -0.328038,-1.60788 -1.500154,-0.10913 c -1.517805,-0.110407 -3.491063,-0.537176 -4.57195,-0.9888 l -0.590592,-0.246768 v 1.606652 1.606643 l 0.68066,0.347249 c 0.68056,0.347194 2.328893,0.821891 3.339036,0.961582 0.605515,0.08374 3.3067,0.151634 3.302088,0.083 z m -0.340246,-6.342424 c 0.155126,-0.761384 0.344615,-1.525023 0.421084,-1.696976 0.125558,-0.282318 0.0091,-0.31265 -1.200233,-0.31265 -1.512768,0 -3.715177,-0.3756 -5.202049,-0.887158 l -1.00034,-0.344168 v 1.608143 1.608143 l 0.942783,0.431624 c 1.063399,0.486838 3.302945,0.937908 4.774119,0.961575 l 0.982595,0.0158 z m 1.620425,-4.28745 c 0.227174,-0.368478 0.821824,-1.152319 1.321443,-1.741873 l 0.908394,-1.071919 -2.80163,0.05996 c -2.984469,0.06388 -4.857841,-0.171959 -6.87224,-0.865017 -0.56937,-0.19589 -1.062825,-0.356161 -1.096573,-0.356161 -0.03376,0 -0.06137,0.67089 -0.06137,1.490863 0,1.208646 0.06084,1.545941 0.321508,1.781832 0.777407,0.703544 3.659876,1.331104 6.229425,1.356257 l 1.637975,0.016 z m 19.982571,-3.817224 c 0,-1.64204 -0.0285,-1.7978 -0.31264,-1.702796 -0.17195,0.05753 -0.97941,0.291298 -1.79433,0.519511 l -1.48171,0.414939 0.72162,0.405575 c 0.39689,0.22306 1.18425,0.799446 1.74968,1.280848 0.56542,0.481395 1.04815,0.878427 1.07272,0.882282 0.0246,0.0041 0.0447,-0.806306 0.0447,-1.800359 z M 92.896939,64.673735 c 0.776819,-0.205349 1.661155,-0.518384 1.965189,-0.695644 0.544211,-0.317274 0.553596,-0.346741 0.604745,-1.898787 0.04767,-1.447629 0.0258,-1.567859 -0.267983,-1.470668 -2.703042,0.894262 -3.59523,1.048862 -6.572798,1.138944 -3.248042,0.09826 -5.020893,-0.110811 -7.149446,-0.843141 -0.56937,-0.195889 -1.065957,-0.356167 -1.103528,-0.356167 -0.03754,0 -0.04511,0.70114 -0.01668,1.558088 l 0.05166,1.558089 0.695813,0.389753 c 0.587797,0.329247 1.931853,0.674402 4.038502,1.037093 0.245646,0.04227 1.773134,0.04963 3.394411,0.01634 2.272234,-0.04666 3.271459,-0.146105 4.360172,-0.433906 z m 10.914691,-1.267998 c 3.10074,-0.340779 5.38854,-1.123183 4.92333,-1.683735 -0.36841,-0.443913 -1.91696,-0.98408 -3.60678,-1.258133 -1.6954,-0.274959 -5.398533,-0.339855 -7.033455,-0.123263 l -0.893271,0.11834 -0.05192,1.370801 -0.05192,1.370803 1.034516,0.112897 c 0.568997,0.06213 1.195307,0.137733 1.391837,0.168084 0.808543,0.12489 2.778573,0.09006 4.287683,-0.07579 z M 92.467138,59.739885 c 1.621864,-0.373319 2.858458,-0.925261 2.858458,-1.275844 0,-0.142095 -0.350327,-0.41332 -0.778495,-0.60272 -2.762974,-1.222191 -8.948853,-1.391349 -12.346681,-0.337619 -1.399154,0.433899 -1.971705,0.82501 -1.695294,1.158065 0.322743,0.388882 2.087978,0.978353 3.742158,1.249626 2.009916,0.329617 6.400217,0.227328 8.219854,-0.191508 z"
       id="path896" />
  </g>
</svg>
