<?xml version="1.0" encoding="UTF-8" standalone="no"?>
<svg
   xmlns:dc="http://purl.org/dc/elements/1.1/"
   xmlns:cc="http://creativecommons.org/ns#"
   xmlns:rdf="http://www.w3.org/1999/02/22-rdf-syntax-ns#"
   xmlns:svg="http://www.w3.org/2000/svg"
   xmlns="http://www.w3.org/2000/svg"
   xmlns:sodipodi="http://sodipodi.sourceforge.net/DTD/sodipodi-0.dtd"
   xmlns:inkscape="http://www.inkscape.org/namespaces/inkscape"
   width="200mm"
   height="200mm"
   viewBox="0 0 200 200"
   version="1.1"
   id="svg8"
   inkscape:version="1.0.1 (3bc2e813f5, 2020-09-07)"
   sodipodi:docname="QHouseGalerrypl.svg">
  <defs
     id="defs2" />
  <sodipodi:namedview
     id="base"
     pagecolor="#ffffff"
     bordercolor="#666666"
     borderopacity="1.0"
     inkscape:pageopacity="0.0"
     inkscape:pageshadow="2"
     inkscape:zoom="0.35"
     inkscape:cx="254.52758"
     inkscape:cy="502.0721"
     inkscape:document-units="mm"
     inkscape:current-layer="layer1"
     inkscape:document-rotation="0"
     showgrid="false"
     inkscape:window-width="1346"
     inkscape:window-height="967"
     inkscape:window-x="26"
     inkscape:window-y="26"
     inkscape:window-maximized="0" />
  <metadata
     id="metadata5">
    <rdf:RDF>
      <cc:Work
         rdf:about="">
        <dc:format>image/svg+xml</dc:format>
        <dc:type
           rdf:resource="http://purl.org/dc/dcmitype/StillImage" />
        <dc:title></dc:title>
      </cc:Work>
    </rdf:RDF>
  </metadata>
  <g
     inkscape:label="Layer 1"
     inkscape:groupmode="layer"
     id="layer1">
    <rect
       style="fill:#4d4d4d;stroke:none;stroke-width:0.436181"
       id="rect875"
       width="180.68629"
       height="175.15099"
       x="12.300647"
       y="11.956007" />
    <rect
       style="fill:#ff6600;stroke:none;stroke-width:0.449443"
       id="rect877"
       width="180.35675"
       height="174.29683"
       x="10.769992"
       y="11.05577" />
    <path
       style="fill:#ffffff;stroke-width:0.504631"
       d="m 44.824202,121.05832 -1.238641,-1.23863 V 81.674144 43.528586 l 1.238641,-1.238636 c 0.987771,-0.987775 1.754318,-1.238638 3.784736,-1.238638 h 2.546095 v -2.546089 c 0,-3.550952 1.472425,-5.023382 5.023376,-5.023382 h 2.546095 v -2.546089 c 0,-2.030421 0.250868,-2.796971 1.238641,-3.784745 l 1.238641,-1.238637 h 46.724274 46.72429 l 1.23864,1.238637 1.23863,1.238637 v 38.145558 38.145538 l -1.23863,1.23864 c -0.98778,0.98779 -1.75433,1.23866 -3.78474,1.23866 h -2.5461 v 2.54608 c 0,3.55095 -1.4724,5.02339 -5.02338,5.02339 h -2.54608 v 2.54608 c 0,2.03042 -0.25087,2.79698 -1.23864,3.78473 l -1.23864,1.23865 H 92.787123 46.062844 Z M 145.23273,110.40208 c 0.70583,-0.70582 0.79301,-4.68169 0.79301,-36.167561 0,-32.208249 -0.0748,-35.457186 -0.83515,-36.297413 -0.79691,-0.880568 -2.84678,-0.922852 -44.74632,-0.922852 -40.151616,0 -43.990147,0.07153 -44.833977,0.835174 -0.507562,0.459328 -0.922841,1.367664 -0.922841,2.018519 v 1.183365 h 42.411975 42.411983 l 1.23864,1.238638 1.23864,1.238636 v 33.833262 33.833222 h 1.22553 c 0.67404,0 1.58238,-0.35683 2.01851,-0.79299 z m 7.43966,-7.61164 c 0.87728,-0.79394 0.92282,-2.57897 0.92282,-36.167561 0,-32.169018 -0.0747,-35.415036 -0.83515,-36.255245 -0.79691,-0.880567 -2.84679,-0.922851 -44.74631,-0.922851 -40.151625,0 -43.990157,0.07153 -44.833986,0.835174 -0.507562,0.459328 -0.922841,1.367664 -0.922841,2.018519 v 1.183365 h 42.411977 42.41198 l 1.23864,1.238637 1.23863,1.238637 V 69.792377 103.6256 h 1.09569 c 0.60262,0 1.51096,-0.37581 2.01855,-0.83516 z m -31.6259,-22.101172 c 3.50862,-4.064655 4.82865,-5.261428 5.80326,-5.261428 0.97748,0 2.28434,1.194045 5.80326,5.302302 2.49793,2.91627 4.82554,5.541701 5.17247,5.834257 0.50301,0.424195 0.63079,-3.613434 0.63079,-19.931354 0,-17.930192 -0.0982,-20.561497 -0.793,-21.256316 -0.70875,-0.708759 -5.46159,-0.793004 -44.746299,-0.793004 -40.190857,0 -44.032307,0.07153 -44.876149,0.835175 -0.865339,0.783105 -0.922841,2.119451 -0.922841,21.446831 0,11.336421 0.170586,20.611677 0.379086,20.611677 0.208498,0 7.296196,-6.131276 15.750441,-13.625048 9.558133,-8.472258 15.76034,-13.620699 16.399909,-13.613547 0.623834,0.0076 7.481876,5.758081 17.429073,14.615893 l 16.40053,14.604393 1.51389,-1.754211 c 0.83264,-0.96481 3.55766,-4.121836 6.05558,-7.01562 z m -11.54632,-9.882072 c -2.77597,-0.831149 -5.35884,-4.264938 -5.35884,-7.124257 0,-0.615151 0.4781,-2.106082 1.06245,-3.313193 1.96868,-4.066753 7.23999,-5.377638 10.96331,-2.726401 1.95796,1.394194 3.35167,4.93929 2.89623,7.366977 -0.44916,2.394212 -2.95428,5.161716 -5.24935,5.799163 -2.12072,0.589041 -2.33922,0.588926 -4.3138,-0.0019 z"
       id="path879" />
    <text
       xml:space="preserve"
       style="font-size:23.9292px;line-height:1.25;font-family:sans-serif;stroke-width:1.28192"
       x="49.47913"
       y="166.67754"
       id="text883"><tspan
         sodipodi:role="line"
         id="tspan881"
         x="49.47913"
         y="166.67754"
         style="fill:#ffffff;stroke-width:1.28192">GALERIA</tspan></text>
  </g>
</svg>
