<?xml version="1.0" encoding="UTF-8" standalone="no"?>
<svg
   xmlns:dc="http://purl.org/dc/elements/1.1/"
   xmlns:cc="http://creativecommons.org/ns#"
   xmlns:rdf="http://www.w3.org/1999/02/22-rdf-syntax-ns#"
   xmlns:svg="http://www.w3.org/2000/svg"
   xmlns="http://www.w3.org/2000/svg"
   xmlns:sodipodi="http://sodipodi.sourceforge.net/DTD/sodipodi-0.dtd"
   xmlns:inkscape="http://www.inkscape.org/namespaces/inkscape"
   width="200mm"
   height="200mm"
   viewBox="0 0 200 200"
   version="1.1"
   id="svg8"
   sodipodi:docname="QHousePlanypl.svg"
   inkscape:version="1.0.1 (3bc2e813f5, 2020-09-07)">
  <defs
     id="defs2" />
  <sodipodi:namedview
     id="base"
     pagecolor="#ffffff"
     bordercolor="#666666"
     borderopacity="1.0"
     inkscape:pageopacity="0.0"
     inkscape:pageshadow="2"
     inkscape:zoom="0.35"
     inkscape:cx="71.235477"
     inkscape:cy="380.43254"
     inkscape:document-units="mm"
     inkscape:current-layer="layer1"
     inkscape:document-rotation="0"
     showgrid="false"
     inkscape:window-width="1346"
     inkscape:window-height="967"
     inkscape:window-x="26"
     inkscape:window-y="26"
     inkscape:window-maximized="0" />
  <metadata
     id="metadata5">
    <rdf:RDF>
      <cc:Work
         rdf:about="">
        <dc:format>image/svg+xml</dc:format>
        <dc:type
           rdf:resource="http://purl.org/dc/dcmitype/StillImage" />
        <dc:title></dc:title>
      </cc:Work>
    </rdf:RDF>
  </metadata>
  <g
     inkscape:label="Layer 1"
     inkscape:groupmode="layer"
     id="layer1">
    <rect
       style="fill:#4d4d4d;stroke:none;stroke-width:0.436181"
       id="rect875"
       width="180.68629"
       height="175.15099"
       x="12.300647"
       y="11.956007" />
    <rect
       style="fill:#ff6600;stroke:none;stroke-width:0.449443"
       id="rect877"
       width="180.35675"
       height="174.29683"
       x="10.769992"
       y="11.05577" />
    <text
       xml:space="preserve"
       style="font-size:23.9292px;line-height:1.25;font-family:sans-serif;stroke-width:1.28192"
       x="49.47913"
       y="166.67754"
       id="text883"><tspan
         sodipodi:role="line"
         x="49.47913"
         y="166.67754"
         style="fill:#ffffff;stroke-width:1.28192"
         id="tspan900">RYSUNKI</tspan></text>
    <path
       style="fill:#ffffff;stroke-width:0.610093"
       d="m 59.261242,120.99367 v -8.23543 l 36.453115,-0.15726 36.453123,-0.15726 0.15726,-37.063193 0.15726,-37.06321 h 5.18107 c 4.19866,0 5.18106,-0.173516 5.18106,-0.915141 0,-0.755355 -1.11851,-0.91514 -6.40598,-0.91514 h -6.40601 v 33.860071 33.860223 l -38.283393,-0.001 c -42.26727,-7.8e-4 -40.807974,0.12793 -43.730873,-3.85661 -1.242371,-1.693613 -1.263557,-2.293833 -1.263557,-35.798283 0,-33.50445 0.02121,-34.104663 1.263557,-35.79828 2.839636,-3.871032 7.972383,-4.791114 11.74432,-2.105259 1.597142,1.137265 2.292788,2.311839 3.388323,5.721084 0.322068,1.002257 2.756198,1.067665 39.732443,1.067665 36.97624,0 39.41036,-0.06542 39.73245,-1.067665 1.09554,-3.409245 1.79117,-4.583819 3.38831,-5.721084 3.77193,-2.685855 8.90468,-1.765773 11.74433,2.105259 1.24229,1.693502 1.26355,2.294755 1.26355,35.71733 0,31.4508 -0.0805,34.11774 -1.07615,35.637263 -1.47643,2.2533 -3.60762,3.53848 -6.5144,3.92835 l -2.45123,0.32878 -0.16487,12.27574 -0.16487,12.27572 -44.68938,0.15657 -44.689384,0.15657 z m 87.710918,-10.9822 c 0.0892,-9.39093 0.0138,-17.463433 -0.16925,-17.938903 -0.26469,-0.68978 -0.50942,-0.62978 -1.2107,0.29681 -0.48342,0.63872 -0.88769,1.64176 -0.89836,2.22898 -0.0115,0.58721 -0.42837,1.06766 -0.92818,1.06766 -0.78893,0 -0.92978,-3.56125 -1.06769,-26.99666 l -0.15887,-26.996653 -4.11812,-0.180388 -4.11814,-0.180388 v 2.129775 c 0,2.102521 0.0364,2.132156 2.85026,2.315729 4.07038,0.265553 4.28248,1.711186 0.25104,1.711186 h -3.1013 v 2.440375 c 0,2.304799 0.10169,2.440375 1.83028,2.440375 1.2202,0 1.83028,0.305048 1.83028,0.915141 0,0.610095 -0.61008,0.915141 -1.83028,0.915141 -1.68501,0 -1.83028,0.169481 -1.83028,2.135329 v 2.13533 h 3.05048 c 2.30478,0 3.05045,0.223692 3.05045,0.915141 0,0.691439 -0.74567,0.91514 -3.05045,0.91514 h -3.05048 v 2.135327 c 0,1.96586 0.14527,2.13533 1.83028,2.13533 1.2202,0 1.83028,0.30505 1.83028,0.91514 0,0.61009 -0.61008,0.91514 -1.83028,0.91514 -1.68501,0 -1.83028,0.16948 -1.83028,2.13533 v 2.13533 h 3.05048 c 2.30478,0 3.05045,0.22369 3.05045,0.91514 0,0.69144 -0.74567,0.91514 -3.05045,0.91514 h -3.05048 v 2.44038 c 0,2.3048 0.10169,2.44037 1.83028,2.44037 1.2202,0 1.83028,0.30505 1.83028,0.91514 0,0.6101 -0.61008,0.91514 -1.83028,0.91514 -1.68501,0 -1.83028,0.16949 -1.83028,2.13533 v 2.13533 h 3.05048 c 2.30478,0 3.05045,0.2237 3.05045,0.91514 0,0.69144 -0.74567,0.91515 -3.05045,0.91515 h -3.05048 v 2.13532 c 0,1.96586 0.14527,2.13533 1.83028,2.13533 1.2202,0 1.83028,0.30505 1.83028,0.91514 0,0.6101 -0.61008,0.91514 -1.83028,0.91514 -1.67948,0 -1.83028,0.1732 -1.83028,2.10191 0,2.06932 0.0443,2.10478 2.85026,2.28785 3.91296,0.25528 4.19806,1.58563 0.3919,1.82868 -2.91498,0.18613 -2.93855,0.20481 -3.12648,2.475403 -0.18101,2.18661 -0.10676,2.28785 1.67778,2.28785 1.25291,0 1.8671,0.30104 1.8671,0.91515 0,0.61009 -0.61008,0.91514 -1.83028,0.91514 -1.68501,0 -1.83028,0.16948 -1.83028,2.13533 v 2.13533 h 3.05048 c 2.30478,0 3.05045,0.22367 3.05045,0.91513 0,0.68987 -0.74136,0.91515 -3.01181,0.91515 -2.95199,0 -3.01561,0.0394 -3.20298,1.9828 -0.1681,1.74348 -0.43051,2.00587 -2.174,2.17399 -1.94342,0.18747 -1.9828,0.25099 -1.9828,3.20299 0,2.27045 -0.22526,3.01181 -0.91514,3.01181 -0.6929,0 -0.91514,-0.74976 -0.91514,-3.08731 v -3.08728 l -2.28785,0.18932 c -2.08739,0.17271 -2.28979,0.3497 -2.30991,2.01961 -0.0312,2.58714 -1.74788,2.45619 -1.99941,-0.15265 -0.17501,-1.81527 -0.36831,-1.98279 -2.28785,-1.98279 h -2.09667 v 3.05046 c 0,2.3048 -0.22369,3.05047 -0.91514,3.05047 -0.69144,0 -0.91514,-0.74567 -0.91514,-3.05047 v -3.0503 h -2.13533 c -2.03364,0 -2.13533,0.10169 -2.13533,2.13533 0,1.49134 -0.27599,2.13532 -0.91514,2.13532 -0.63915,0 -0.91514,-0.64398 -0.91514,-2.13532 0,-2.03364 -0.10169,-2.13533 -2.13533,-2.13533 h -2.13533 v 3.05046 c 0,2.3048 -0.22369,3.05048 -0.91514,3.05048 -0.6929,0 -0.91514,-0.74976 -0.91514,-3.08731 v -3.0873 l -2.28785,0.18931 c -2.088713,0.17294 -2.304503,0.36196 -2.479033,2.17218 -0.27094,2.81006 -1.94415,2.67879 -1.94415,-0.15242 0,-2.03364 -0.10169,-2.13533 -2.13533,-2.13533 h -2.13533 v 3.05046 c 0,2.3048 -0.22369,3.05047 -0.91514,3.05047 -0.69144,0 -0.91514,-0.74567 -0.91514,-3.05047 v -3.05053 h -2.13533 c -2.03365,0 -2.13533,0.10169 -2.13533,2.13533 0,1.49134 -0.27599,2.13532 -0.91514,2.13532 -0.63915,0 -0.91514,-0.64398 -0.91514,-2.13532 0,-2.03364 -0.10169,-2.13533 -2.13533,-2.13533 h -2.135329 v 3.05046 c 0,2.25341 -0.230379,3.05048 -0.881713,3.05048 -0.61904,0 -0.937109,-0.86334 -1.067665,-2.89795 -0.184146,-2.86979 -0.206698,-2.89794 -2.321279,-2.89794 -1.971339,0 -2.150223,0.15518 -2.329269,2.01982 -0.244687,2.54838 -1.565188,2.26724 -1.827519,-0.38904 -0.173978,-1.76176 -0.37971,-1.93583 -2.287852,-1.93583 h -2.096676 v 3.05046 c 0,2.3048 -0.223692,3.05048 -0.915141,3.05048 -0.691439,0 -0.915141,-0.74568 -0.915141,-3.05048 v -3.05046 h -2.135327 -2.135329 v 6.41011 6.4101 l 42.859103,-0.15657 42.8591,-0.15657 z M 80.004435,96.276117 c 0,-0.39271 6.303752,-0.6101 17.691072,-0.6101 h 17.691083 l 4.56853,-2.28785 c 2.5127,-1.25832 4.57251,-2.4907 4.57736,-2.73862 0.005,-0.24791 -2.18143,-1.55199 -4.85839,-2.89794 l -4.86722,-2.44719 H 97.405657 c -11.19409,0 -17.401222,-0.21762 -17.401222,-0.61009 0,-0.33555 -1.356507,-0.61009 -3.014462,-0.61009 -1.657958,0 -3.184142,0.27454 -3.391525,0.61009 -0.207389,0.33555 -1.733566,0.61009 -3.391522,0.61009 h -3.014464 v 5.1858 5.1858 h 3.050471 c 1.677757,0 3.05047,0.27454 3.05047,0.6101 0,0.33555 1.509981,0.61009 3.355516,0.61009 1.845535,0 3.355516,-0.27454 3.355516,-0.61009 z m -4.270657,-5.7959 c 0,-3.11826 0.195537,-3.96561 0.915141,-3.96561 0.719599,0 0.915141,0.84735 0.915141,3.96561 0,3.11826 -0.195538,3.96561 -0.915141,3.96561 -0.719599,0 -0.915141,-0.84735 -0.915141,-3.96561 z m -5.694209,2.94879 c -0.223692,-0.2237 -0.40673,-1.59641 -0.40673,-3.05047 0,-2.53076 0.07822,-2.64374 1.830282,-2.64374 1.789609,0 1.830282,0.0678 1.830282,3.05047 0,2.789 -0.122027,3.05047 -1.423552,3.05047 -0.782955,0 -1.606583,-0.18302 -1.830282,-0.40673 z m 9.964866,-0.50841 c 0,-0.82054 2.012837,-0.91492 16.473052,-0.77242 10.467093,0.10314 16.473063,0.38476 16.473063,0.77242 0,0.38766 -6.00597,0.66928 -16.473063,0.77242 -14.460215,0.1425 -16.473052,0.0481 -16.473052,-0.77242 z m 35.385445,-2.13533 c 0,-2.01337 0.70687,-2.24038 3.00761,-0.9659 l 1.48236,0.82115 -1.90963,0.98752 c -2.52139,1.30386 -2.58034,1.2846 -2.58034,-0.84277 z m -35.385445,-2.13533 c 0,-0.82053 2.012837,-0.91491 16.473052,-0.77242 10.467093,0.10314 16.473063,0.38476 16.473063,0.77242 0,0.38766 -6.00597,0.66928 -16.473063,0.77242 -14.460215,0.1425 -16.473052,0.0481 -16.473052,-0.77242 z M 61.091524,60.632426 V 31.089679 l -1.562013,-1.856345 c -1.985863,-2.360066 -4.906274,-2.980287 -7.563342,-1.606262 -3.64962,1.88729 -3.686618,2.223974 -3.686618,33.549045 0,29.97982 -0.04372,29.53685 2.709507,27.45442 1.666846,-1.26074 5.785445,-1.11441 7.967136,0.28306 1.006656,0.64481 1.898918,1.19245 1.982806,1.21698 0.08389,0.0245 0.152533,-13.24964 0.152533,-29.498151 z m 90.024756,27.104651 c 1.36196,-0.001 3.00923,0.4008 3.66057,0.89346 2.75323,2.08243 2.70951,2.5254 2.70951,-27.45442 0,-31.325071 -0.0369,-31.661755 -3.6866,-33.549045 -2.65707,-1.374025 -5.5775,-0.753804 -7.56336,1.606262 l -1.56202,1.856345 v 29.53378 29.533778 l 1.98282,-1.20894 c 1.11392,-0.67916 3.06795,-1.20994 4.45908,-1.21122 z m -33.3993,-7.47593 c 0.14029,-0.73872 -0.18698,-1.06767 -1.06218,-1.06767 -1.24661,0 -1.26492,-0.22417 -1.26492,-15.48623 0,-15.231473 0.0212,-15.49177 1.28447,-15.822139 2.36999,-0.619766 0.88635,-1.934066 -2.40008,-2.126154 -2.77685,-0.16231 -3.15504,-0.04284 -3.15504,0.99651 0,0.667823 0.53015,1.319553 1.22019,1.500001 1.17862,0.308216 1.22018,0.832178 1.22018,15.380622 0,14.54844 -0.0416,15.0724 -1.22018,15.38062 -1.21969,0.31895 -1.60542,1.41846 -0.78534,2.23855 0.23917,0.23917 1.67805,0.35356 3.19751,0.2542 2.05812,-0.13459 2.81435,-0.45292 2.96539,-1.24831 z m -16.01963,-3.64871 7.5916,-4.41133 v -8.86077 -8.860763 l -7.46563,-4.268107 c -4.106093,-2.347458 -7.745043,-4.343898 -8.086563,-4.436534 -0.34151,-0.09263 -4.05145,1.829258 -8.24429,4.270876 l -7.62336,4.439301 -0.154124,8.846147 -0.154124,8.84614 7.475258,4.37033 c 4.11138,2.40367 7.83399,4.39411 8.27244,4.42318 0.43846,0.0291 4.21342,-1.93224 8.388793,-4.35847 z m -15.726453,-2.20135 -5.930357,-3.45387 -0.01799,-6.92153 -0.01799,-6.921531 2.592899,1.485146 c 1.426098,0.816833 4.171518,2.373055 6.100938,3.458265 l 3.50804,1.97312 v 6.9713 c 0,3.83422 -0.0686,6.94693 -0.15253,6.91714 -0.0839,-0.0298 -2.82119,-1.6084 -6.08289,-3.50804 z m 8.67579,-3.299 v -6.88588 l 3.203,-1.8866 c 1.761644,-1.03763 4.507063,-2.637845 6.100933,-3.556027 l 2.89795,-1.669424 -6.1e-4,6.921531 -6.1e-4,6.92153 -2.89733,1.65902 c -1.59354,0.91246 -4.338689,2.49663 -6.100333,3.52038 l -3.203,1.86136 z m -6.71103,-12.11999 c -2.85219,-1.692407 -5.41619,-3.299863 -5.697778,-3.572129 -0.281588,-0.272263 2.139538,-2.055523 5.380278,-3.962798 l 5.89225,-3.467777 4.38123,2.585244 c 2.409673,1.421882 5.137843,3.035696 6.062603,3.586254 l 1.68138,1.001012 -6.006579,3.474473 c -3.303614,1.910962 -6.119304,3.465101 -6.257084,3.453651 -0.13777,-0.0115 -2.58411,-1.405525 -5.4363,-3.09793 z M 80.004435,42.892893 c 0,-0.785729 1.898069,-0.915141 13.422062,-0.915141 11.524003,0 13.422073,0.129405 13.422073,0.915141 0,0.516179 0.54585,0.915141 1.25207,0.915141 1.12506,0 1.23337,-0.320046 1.06767,-3.15504 -0.19208,-3.286436 -1.50639,-4.770068 -2.12616,-2.400084 -0.32859,1.256527 -0.62628,1.284464 -13.686803,1.284464 -13.10157,0 -13.350912,-0.02361 -13.350912,-1.264922 0,-0.875282 -0.328879,-1.202399 -1.067665,-1.061948 -0.825164,0.156868 -1.109549,0.929172 -1.25207,3.400249 -0.165976,2.877593 -0.05921,3.197281 1.067663,3.197281 0.706225,0 1.252072,-0.398962 1.252072,-0.915141 z"
       id="path898" />
  </g>
</svg>
