<?xml version="1.0" encoding="UTF-8" standalone="no"?>
<svg
   xmlns:dc="http://purl.org/dc/elements/1.1/"
   xmlns:cc="http://creativecommons.org/ns#"
   xmlns:rdf="http://www.w3.org/1999/02/22-rdf-syntax-ns#"
   xmlns:svg="http://www.w3.org/2000/svg"
   xmlns="http://www.w3.org/2000/svg"
   xmlns:sodipodi="http://sodipodi.sourceforge.net/DTD/sodipodi-0.dtd"
   xmlns:inkscape="http://www.inkscape.org/namespaces/inkscape"
   width="700"
   height="500"
   viewBox="0 0 185.20833 132.29167"
   version="1.1"
   id="svg8"
   inkscape:version="1.0.1 (3bc2e813f5, 2020-09-07)"
   sodipodi:docname="QHouseStrenght5pl.svg">
  <defs
     id="defs2" />
  <sodipodi:namedview
     id="base"
     pagecolor="#ffffff"
     bordercolor="#666666"
     borderopacity="1.0"
     inkscape:pageopacity="0.0"
     inkscape:pageshadow="2"
     inkscape:zoom="0.49497475"
     inkscape:cx="469.67605"
     inkscape:cy="337.59719"
     inkscape:document-units="mm"
     inkscape:current-layer="layer1"
     inkscape:document-rotation="0"
     showgrid="false"
     units="px"
     inkscape:snap-global="true"
     inkscape:window-width="1920"
     inkscape:window-height="1137"
     inkscape:window-x="-8"
     inkscape:window-y="-8"
     inkscape:window-maximized="1" />
  <metadata
     id="metadata5">
    <rdf:RDF>
      <cc:Work
         rdf:about="">
        <dc:format>image/svg+xml</dc:format>
        <dc:type
           rdf:resource="http://purl.org/dc/dcmitype/StillImage" />
        <dc:title></dc:title>
      </cc:Work>
    </rdf:RDF>
  </metadata>
  <g
     inkscape:label="Layer 1"
     inkscape:groupmode="layer"
     id="layer1">
    <rect
       style="fill:#ff6600;stroke:none;stroke-width:2.10748;stroke-miterlimit:4;stroke-dasharray:none;stroke-opacity:1"
       id="rect1065-9-6-5-3"
       width="184.31049"
       height="48.33202"
       x="0.056800835"
       y="0.60999668" />
    <path
       style="fill:#ffffff;stroke-width:0.273333"
       d="M 184.3673,27.835782 V 6.2618345 h -2.1123 c -4.80682,0 -9.54095,2.30693 -15.58194,7.5930905 -3.05942,2.67711 -5.02509,4.73903 -10.09666,10.590978 -3.95277,4.560981 -5.64565,6.189121 -9.58822,9.221481 -4.56453,3.51068 -7.59446,5.481029 -11.47791,7.463949 -3.25385,1.661451 -5.45095,2.358631 -8.68667,2.75635 -2.47076,0.303691 -3.9345,0.705511 -5.44323,1.494261 -0.98011,0.512418 -3.53236,2.806858 -3.90482,3.510438 -0.26746,0.505251 0.51,0.51734 33.30894,0.51734 h 33.58281 z m -59.26289,9.62456 v -4.254259 l 1.03798,-0.535329 c 1.34291,-0.692602 2.92889,-2.478881 3.64142,-4.101282 0.8735,-1.988899 0.97491,-5.512419 0.21713,-7.544547 -0.81117,-2.1753 -2.03812,-3.69451 -3.78494,-4.68662 -3.85341,-2.18842 -8.29642,-0.11091 -10.09904,4.72231 -0.74424,1.995458 -0.63559,5.537208 0.23034,7.508857 0.71253,1.622401 2.29851,3.40868 3.64143,4.101282 l 1.03796,0.535329 v 4.254259 4.254212 h 2.03887 2.03885 z m 18.21382,-8.109288 v -3.294251 l 1.01944,-0.43053 c 2.98172,-1.25916 4.48087,-4.745468 3.50297,-8.146238 -0.5957,-2.07158 -2.46966,-3.87678 -4.47605,-4.31178 -2.34598,-0.50864 -3.96185,-0.008 -5.6671,1.75416 -0.86421,0.89326 -1.51916,1.8624 -1.69754,2.51182 -0.90479,3.29422 0.50681,6.661098 3.38283,8.068628 l 1.21697,0.59561 v 3.273401 3.273398 h 1.35925 1.35923 z"
       id="path1016-7" />
    <text
       xml:space="preserve"
       style="font-size:13.8627px;line-height:1.25;font-family:sans-serif;fill:#ffffff;stroke:#ff6200;stroke-width:0.836454;stroke-opacity:1"
       x="4.5681686"
       y="32.527172"
       id="text1120-9-5-2-3"><tspan
         sodipodi:role="line"
         id="tspan1118-7-0-2-3"
         x="4.5681686"
         y="32.527172"
         style="font-style:normal;font-variant:normal;font-weight:bold;font-stretch:normal;font-size:13.8627px;font-family:sans-serif;-inkscape-font-specification:'sans-serif Bold';fill:#ffffff;stroke:#ff6200;stroke-width:0.836454;stroke-opacity:1"
         rotate="0 0 0 0 0 0 0 0 0 0 0">WYMAGAJĄCE</tspan><tspan
         sodipodi:role="line"
         x="4.5681686"
         y="49.855549"
         style="font-style:normal;font-variant:normal;font-weight:bold;font-stretch:normal;font-size:13.8627px;font-family:sans-serif;-inkscape-font-specification:'sans-serif Bold';fill:#ffffff;stroke:#ff6200;stroke-width:0.836454;stroke-opacity:1"
         rotate="0 0 0 0 0 0 0 0 0 0 0 0 0 0 0 0 0 0"
         id="tspan1462">DZIAŁKI</tspan></text>
    <path
       style="fill:#040404;stroke-width:0.264583"
       d="m 4.7677639,106.08983 c -0.56651,-0.5665 -0.77339,-1.02653 -0.77339,-1.71982 0,-0.90019 -0.044,-0.94636 -0.90117,-0.94636 -0.83665,0 -0.93137,-0.0886 -1.32292,-1.23775 -0.34688,-1.01806 -0.42175,-2.568027 -0.42175,-8.731255 v -7.493503 h 24.3416701 24.34168 v 7.408331 7.408317 h -2.24896 c -2.07258,0 -2.24897,0.0415 -2.24897,0.52919 0,0.50078 0.17639,0.52917 3.29168,0.52917 3.32938,0 3.94599,-0.17526 3.31047,-0.94107 -0.31988,-0.38543 -0.24521,-5.214466 0.18111,-11.713085 l 0.16189,-2.467661 1.35607,0.17367 c 2.02446,0.259289 3.19904,0.60619 3.90123,1.152179 0.34641,0.269351 1.2609,0.639421 2.03219,0.82243 0.95406,0.226301 1.53549,0.53589 1.81887,0.968381 0.57266,0.873969 0.76741,2.892081 0.3537,3.66514 -0.36642,0.68461 -0.15827,3.45035 0.28008,3.72123 0.13532,0.0836 0.24605,1.743919 0.24605,3.689436 0,4.2377 -0.0715,4.36893 -2.3798,4.36893 -1.36749,0 -1.64091,0.0927 -2.34199,0.79375 -1.1923,1.19229 -3.26605,1.04172 -4.2229,-0.30657 -0.30929,-0.43582 -0.7603,-0.48718 -4.27913,-0.48718 h -3.9334 l -0.79375,0.79375 c -0.65559,0.65561 -1.00907,0.79375 -2.03087,0.79375 -1.03341,0 -1.35919,-0.1307 -1.97858,-0.79375 -0.5906,-0.63225 -0.96214,-0.79375 -1.82595,-0.79375 h -1.08447 v -1.71979 -1.71979 h 0.79375 c 0.62176,0 0.79375,-0.11663 0.79375,-0.53811 0,-0.51242 -0.136,-0.53454 -2.84427,-0.46302 l -2.84427,0.0751 -0.0797,1.23462 -0.0797,1.23463 -6.93172,-0.003 c -9.87798,-0.004 -10.29407,0.009 -10.10352,0.31707 0.28278,0.45755 -0.40189,2.0745 -1.11637,2.63652 -1.67612,1.31842 -4.31079,0.10986 -4.31079,-1.97746 0,-0.88676 -0.056,-0.95727 -0.69896,-0.88025 -0.5845401,0.07 -0.7142101,0.2353 -0.7921201,1.00976 -0.22178,2.20445 -3.03714,3.1854 -4.61469,1.60785 z m 2.97609,-0.72282 c 0.59361,-0.53721 0.62947,-1.75995 0.0681,-2.32137 -0.93472,-0.93472 -2.75923,-0.19029 -2.75923,1.1258 0,1.41523 1.64223,2.14482 2.69115,1.19557 z m -1.63282,-1.1213 c 0,-0.64029 0.66195,-0.90281 1.06177,-0.42103 0.38862,0.46826 0.11885,0.92186 -0.54822,0.92186 -0.32748,0 -0.51355,-0.18145 -0.51355,-0.50083 z m 8.5119801,1.1213 c 0.60246,-0.5452 0.62427,-1.61427 0.046,-2.25324 -0.90854,-1.00394 -2.73711,-0.29734 -2.73711,1.05767 0,1.41523 1.64222,2.14482 2.69114,1.19557 z m -1.78079,-0.9104 c -0.0986,-0.15949 0.0135,-0.48268 0.24896,-0.71816 0.39452,-0.39452 0.46185,-0.39452 0.85637,0 0.2355,0.23548 0.34753,0.55867 0.24897,0.71816 -0.23168,0.37483 -1.12263,0.37483 -1.3543,0 z m 30.95694,0.76025 c 0.22653,-0.32345 0.41188,-0.7997 0.41188,-1.05833 0,-0.68228 -0.95224,-1.52863 -1.7198,-1.52863 -0.79448,0 -1.71979,0.8541 -1.71979,1.5875 0,1.40478 2.22856,2.1404 3.02771,0.99946 z m -1.84425,-0.74647 c -0.24293,-0.39306 0.36982,-1.0433 0.82027,-0.8704 0.57994,0.22252 0.47031,1.14655 -0.13603,1.14655 -0.28246,0 -0.59036,-0.12425 -0.68424,-0.27615 z m 15.00144,0.89662 c 1.00395,-0.90855 0.29734,-2.73711 -1.05767,-2.73711 -1.41526,0 -2.14485,1.64224 -1.19559,2.69113 0.54522,0.60248 1.61425,0.62428 2.25326,0.046 z m -1.72107,-0.99795 c -0.17285,-0.45048 0.47736,-1.06323 0.87042,-0.82029 0.1519,0.0939 0.27617,0.40177 0.27617,0.68424 0,0.60632 -0.92404,0.71599 -1.14659,0.13605 z m -34.30758,-2.13604 c 0,-0.26458 -0.26458,-0.39687 -0.79375,-0.39687 -0.52917,0 -0.79375,0.13229 -0.79375,0.39687 0,0.26456 0.26458,0.39688 0.79375,0.39688 0.52917,0 0.79375,-0.13232 0.79375,-0.39688 z m 10.31875,0 c 0,-0.43217 -1.44539,-0.57631 -1.69699,-0.16917 -0.22031,0.35642 0.13047,0.56605 0.94735,0.56605 0.48996,0 0.74964,-0.13748 0.74964,-0.39688 z m -0.17317,-1.25677 c -0.16026,-0.25929 -11.39965,-0.25929 -11.55991,0 -0.0675,0.10914 2.53353,0.19844 5.77995,0.19844 3.24643,0 5.84741,-0.0893 5.77996,-0.19844 z m 30.02328,-6.415406 c -0.0602,-0.945491 -0.24414,-1.85375 -0.40875,-2.01835 -0.16461,-0.1646 -1.14736,-0.359989 -2.1839,-0.434131 l -1.8846,-0.134879 0.0797,1.690211 0.0797,1.690129 1.71979,0.437121 c 2.81311,0.71501 2.72454,0.75692 2.59802,-1.230101 z m -5.24385,-1.059079 v -1.455232 h -1.05834 -1.05833 v 1.199171 c 0,0.996291 0.10072,1.239649 0.59531,1.438431 1.32625,0.533109 1.52136,0.38145 1.52136,-1.18237 z"
       id="path1819-4" />
    <rect
       style="fill:#000000;stroke:none;stroke-width:1.5875;stroke-miterlimit:4;stroke-dasharray:none;stroke-opacity:1"
       id="rect1836"
       width="16.252975"
       height="31.372023"
       x="84.763"
       y="66.509865" />
    <rect
       style="fill:none;stroke:#000000;stroke-width:1.21728;stroke-miterlimit:4;stroke-dasharray:2.43457, 1.21728;stroke-dashoffset:0;stroke-opacity:1"
       id="rect1838"
       width="36.472305"
       height="54.384068"
       x="74.469749"
       y="55.313839" />
    <path
       style="fill:#000000;stroke-width:0.264583"
       d="m 174.37605,109.57468 c -0.50932,-0.27884 -1.12475,-0.51197 -1.36762,-0.51805 -0.81881,-0.0206 -2.04223,-0.92533 -2.60483,-1.92633 -0.30741,-0.54697 -0.78952,-1.11789 -1.07136,-1.26873 -0.28184,-0.15084 -0.51244,-0.42217 -0.51244,-0.60296 0,-0.18076 -0.18053,-0.58642 -0.40118,-0.90143 l -0.40117,-0.57277 -1.60263,1.06447 c -0.88411,0.58727 -1.92128,1.55903 -2.31338,2.16757 -1.4933,2.31746 -2.99992,3.31695 -1.61006,1.0681 0.70497,-1.14065 0.33156,-1.12977 -1.19423,0.0349 -1.43979,1.099 -1.63046,1.14745 -1.05408,0.26779 0.23721,-0.36203 1.10061,-1.04119 1.91865,-1.50921 1.7107,-0.9788 4.60759,-3.184 5.58132,-4.24871 0.89483,-0.97845 1.41639,-0.91892 2.8984,0.33076 0.83378,0.70302 1.51587,1.05992 2.03185,1.06315 0.42719,0.003 1.30065,0.35978 1.94101,0.79375 0.64036,0.43389 1.27478,0.78888 1.40981,0.78888 0.33324,0 4.10291,3.40508 4.27969,3.86577 0.19718,0.51385 0.0988,0.47329 -1.03296,-0.42616 -1.19228,-0.9475 -1.55085,-1.00145 -1.31893,-0.19841 0.14899,0.51583 0.082,0.4894 -0.50182,-0.19847 -0.37057,-0.43653 -0.67804,-0.86484 -0.68328,-0.95178 -0.0157,-0.26133 -3.71368,-2.11746 -3.71368,-1.86402 0,0.12893 0.77075,1.04005 1.71278,2.02475 0.94202,0.9847 1.64937,1.89294 1.57188,2.01832 -0.22305,0.36087 -0.95866,0.24792 -1.96174,-0.30125 z m -18.41206,-0.81404 c 0.37674,-0.44773 0.68498,-0.92816 0.68498,-1.06765 0,-0.41127 -0.86037,-1.62999 -1.758,-2.49015 -0.67219,-0.64418 -0.87179,-1.09612 -1.02476,-2.3205 -0.14154,-1.13279 -0.37776,-1.72154 -0.92643,-2.30887 -0.40505,-0.4336 -0.86728,-0.788375 -1.02718,-0.788375 -0.6962,0 -2.4774,2.258595 -3.46215,4.390105 -0.63485,1.37414 -1.15869,2.19588 -1.33165,2.08899 -0.18518,-0.11446 -0.19579,-0.28387 -0.0303,-0.48337 0.14018,-0.16896 0.56819,-1.14062 0.95114,-2.15929 0.39933,-1.06217 1.07838,-2.247 1.59222,-2.7781 0.49277,-0.50933 0.97817,-1.260455 1.07867,-1.669205 l 0.18272,-0.743111 -1.66488,0.92276 c -2.7565,1.527766 -4.97923,3.991456 -5.40828,5.994486 -0.21216,0.99052 -0.76545,2.1136 -1.56068,3.16799 l -0.49889,0.66143 0.14648,-0.66143 c 0.0806,-0.36383 0.34066,-1.1861 0.578,-1.82737 0.23735,-0.64125 0.39593,-1.38557 0.35242,-1.65399 -0.0788,-0.48628 -0.41142,-0.24339 -3.25412,2.37627 -0.60926,0.56145 -2.26003,1.18653 -2.4903,0.94298 -0.0855,-0.0905 0.0681,-0.29943 0.34147,-0.46424 1.1319,-0.68257 3.58639,-2.86996 3.73075,-3.32486 0.0855,-0.26937 0.50439,-0.63431 0.93085,-0.811 0.42645,-0.17661 1.70845,-1.24923 2.84887,-2.38355 1.14042,-1.13428 2.6179,-2.318285 3.28329,-2.631025 0.66539,-0.312761 1.48379,-0.860322 1.81866,-1.216792 0.86484,-0.920589 1.32698,-0.81656 2.70433,0.608671 0.668,0.6912 1.71168,1.668809 2.31929,2.172416 0.6076,0.50359 1.20512,1.17968 1.32782,1.50242 0.1227,0.32271 0.88809,1.08881 1.70087,1.70246 1.31207,0.99065 1.55097,1.08241 2.13042,0.81841 0.72928,-0.33229 0.87653,-1.22452 0.24227,-1.46791 -0.56926,-0.21844 -1.34503,-2.13233 -1.55765,-3.842786 -0.1266,-1.018461 -0.40203,-1.702149 -0.95695,-2.375379 -0.42856,-0.51993 -0.7792,-1.248862 -0.7792,-1.619911 0,-0.370999 -0.20836,-0.96361 -0.46302,-1.316911 -0.25466,-0.353269 -0.82789,-1.354669 -1.27383,-2.225328 -0.44595,-0.870641 -0.92847,-1.622193 -1.07226,-1.670132 -0.24397,-0.0813 -2.24325,1.314532 -4.30051,3.002542 l -0.89192,0.731789 0.81411,0.276699 c 0.44776,0.152191 0.96818,0.43262 1.1565,0.62312 0.2809,0.284192 0.26213,0.31586 -0.10448,0.176321 -0.48534,-0.184679 -3.11862,0.291201 -4.10962,0.742709 -0.33798,0.154041 -1.15277,1.09704 -1.81063,2.09563 -0.65787,0.99854 -1.31116,1.74448 -1.45176,1.657591 -0.14061,-0.0869 -0.47268,-0.0891 -0.73794,-0.005 -0.6189,0.19643 -2.89772,3.045546 -3.86817,4.836196 -0.41231,0.76081 -0.97502,1.58721 -1.25046,1.83647 -0.48748,0.44117 -0.49001,0.43252 -0.095,-0.32491 0.22317,-0.42796 0.4065,-1.03933 0.4074,-1.35855 l 0.002,-0.58044 -1.25677,0.54469 c -1.32868,0.57587 -2.97656,1.95736 -2.97656,2.49539 0,0.1804 -0.21208,0.26475 -0.48569,0.19318 -0.28294,-0.074 -0.82696,0.16015 -1.30312,0.56081 -0.85401,0.71858 -2.36821,1.36776 -2.61491,1.12106 -0.0789,-0.0789 0.20747,-0.3248 0.6363,-0.54655 0.42881,-0.22174 2.26685,-1.88391 4.08451,-3.69369 1.81767,-1.80977 3.98055,-3.73912 4.80641,-4.287466 1.65943,-1.10181 1.90797,-1.623089 1.63662,-3.43263 -0.16185,-1.07926 -0.22569,-1.16236 -0.69852,-0.90932 -0.28622,0.15317 -0.84443,0.864211 -1.24047,1.580091 -0.4038,0.729859 -1.02006,1.4273 -1.40302,1.58777 -0.37563,0.157401 -1.12569,0.81584 -1.66682,1.463195 -0.54113,0.64739 -1.13579,1.17703 -1.32146,1.17703 -0.18567,0 -0.61394,0.29417 -0.95171,0.65371 -0.53736,0.572 -0.56792,0.71046 -0.24456,1.10786 0.3312,0.40704 0.31464,0.43178 -0.15959,0.23834 -1.832,-0.74729 -2.73429,-0.31319 -5.63789,2.71253 -1.20907,1.2599 -2.11968,2.08585 -2.02359,1.83545 0.14322,-0.37323 -0.0448,-0.33264 -1.04285,0.22518 -1.7089,0.95515 -1.51525,0.59256 0.3658,-0.68482 0.87084,-0.59137 2.03169,-1.56512 2.57969,-2.16384 1.54145,-1.68423 3.4879,-3.13066 4.21286,-3.13066 0.3771,0 1.04059,-0.36517 1.56228,-0.85989 0.49876,-0.47295 1.47303,-1.365735 2.16506,-1.983985 1.41117,-1.260739 2.8338,-2.62845 4.26412,-4.09956 1.10374,-1.135221 1.60031,-1.226791 2.3109,-0.426161 0.27722,0.312361 0.9712,0.909711 1.54217,1.327462 l 1.03815,0.759539 0.79414,-0.963451 c 0.43678,-0.529878 1.18185,-1.125429 1.65569,-1.323419 0.47383,-0.197962 1.37571,-0.962631 2.00416,-1.699231 0.62844,-0.7366 1.55935,-1.536279 2.06867,-1.777079 0.50933,-0.240822 1.61321,-1.13387 2.45309,-1.984611 l 1.52704,-1.54681 2.99471,2.989131 c 1.64709,1.64402 3.47276,3.64395 4.05705,4.444309 1.32727,1.81814 3.35787,3.706151 3.97732,3.698031 0.25791,-0.003 1.42143,-0.78904 2.58559,-1.745901 l 2.11667,-1.739749 0.52917,0.731131 c 1.0652,1.47174 3.74072,3.839628 5.10613,4.519024 0.79141,0.39381 1.81826,1.20566 2.35789,1.86421 0.52575,0.64161 1.74033,1.6256 2.69907,2.18665 1.29233,0.75628 2.06819,1.46391 2.99993,2.73608 0.69121,0.9438 1.25677,1.83049 1.25677,1.97046 0,0.14663 -0.58871,0.20103 -1.38906,0.12835 -1.59939,-0.14526 -3.27191,-1.03661 -4.70628,-2.50817 -0.53193,-0.54571 -1.04696,-0.99219 -1.14452,-0.99219 -0.0976,0 -0.69075,-0.53578 -1.3182,-1.19062 -0.73562,-0.76772 -1.36837,-1.19097 -1.78148,-1.19161 -0.85018,0 -2.11572,-0.79645 -2.90874,-1.82756 -0.35329,-0.45934 -0.95873,-1.18116 -1.34543,-1.60402 -0.38668,-0.422844 -0.78279,-1.131824 -0.88024,-1.575506 -0.0974,-0.44368 -0.27896,-0.869609 -0.40336,-0.946468 -0.12439,-0.0769 -1.01915,0.452969 -1.98837,1.177478 -0.96921,0.724511 -1.97119,1.383616 -2.22663,1.464676 -0.2577,0.0818 -0.61141,0.63797 -0.79461,1.24945 -0.3668,1.22425 -2.8903,4.04387 -4.61396,5.15538 -0.5648,0.36423 -1.67077,1.18663 -2.45769,1.82758 -1.71086,1.39354 -2.61329,1.596 -1.56599,0.35134 z m 9.90777,-0.57957 c 0.23897,-0.47543 0.60555,-1.30892 0.81461,-1.85211 0.33633,-0.87384 0.80919,-1.33387 0.81127,-0.7892 0.002,0.56663 -1.44966,3.50573 -1.73172,3.50573 -0.24023,0 -0.21175,-0.23257 0.10584,-0.86442 z m -14.06306,-1.45066 c -0.54868,-1.95892 -0.80973,-4.49908 -0.42258,-4.11189 0.15364,0.15362 0.37547,1.03746 0.49296,1.96411 0.1175,0.92662 0.29954,2.13122 0.40454,2.67695 0.28921,1.50307 0.006,1.18737 -0.47492,-0.52917 z m -18.42218,0.83786 c 0.0127,-0.30824 0.0754,-0.37092 0.15985,-0.15989 0.0764,0.19103 0.067,0.41923 -0.0209,0.50715 -0.0879,0.0879 -0.15045,-0.0684 -0.13896,-0.34726 z m 31.59379,-4.60817 c 0.31595,-1.09752 0.88758,-1.81925 1.9941,-2.51779 0.5784,-0.36512 1.05164,-0.777235 1.05164,-0.915795 0,-0.138591 0.24714,-0.38423 0.54919,-0.545891 0.51435,-0.27527 0.52852,-0.25487 0.22334,0.321419 -0.27211,0.51382 -0.61524,1.016787 -1.7684,2.592077 -0.0502,0.0685 -0.19121,-0.0371 -0.3134,-0.23487 -0.16595,-0.2685 -0.43785,-0.0657 -1.07453,0.80142 -0.62704,0.85402 -0.80202,0.986 -0.66194,0.49943 z m -9.98857,-4.762505 c -0.16679,-0.88429 -0.24941,-1.452301 -0.62539,-4.299482 -0.10169,-0.77007 -0.0638,-1.256768 0.0979,-1.256768 0.14511,0 0.32274,0.5226 0.39473,1.161309 0.0752,0.667301 0.41647,1.539661 0.80215,2.050521 0.55514,0.735409 1.51702,2.661759 1.51702,3.038208 0,0.055 -0.11906,0.100002 -0.26458,0.100002 -0.14552,0 -0.26458,-0.162542 -0.26458,-0.361191 0,-0.19867 -0.2679,-0.70321 -0.59532,-1.121201 l -0.59531,-0.76001 -0.14597,1.187341 -0.14598,1.18735 z"
       id="path1854" />
    <text
       xml:space="preserve"
       style="font-size:4.9389px;line-height:1.25;font-family:sans-serif;stroke-width:0.264583"
       x="4.1921921"
       y="118.1735"
       id="text1858-1"><tspan
         sodipodi:role="line"
         id="tspan1856-72"
         x="4.1921921"
         y="118.1735"
         style="stroke-width:0.264583">Prefabrykacja,</tspan><tspan
         sodipodi:role="line"
         x="4.1921921"
         y="124.34713"
         style="stroke-width:0.264583"
         id="tspan1999">Mały wpływ na działkę</tspan></text>
    <text
       xml:space="preserve"
       style="font-size:4.9389px;line-height:1.25;font-family:sans-serif;stroke-width:0.264583"
       x="79.037697"
       y="120.07054"
       id="text1858-3-4"><tspan
         sodipodi:role="line"
         id="tspan1856-4-0"
         x="79.037697"
         y="120.07054"
         style="stroke-width:0.264583">Małe działki</tspan></text>
    <text
       xml:space="preserve"
       style="font-size:4.9389px;line-height:1.25;font-family:sans-serif;stroke-width:0.264583"
       x="125.00803"
       y="120.07054"
       id="text1858-0-3"><tspan
         sodipodi:role="line"
         x="125.00803"
         y="120.07054"
         style="stroke-width:0.264583"
         id="tspan1886-98">Trudno dostępne działki</tspan></text>
  </g>
</svg>
