<?xml version="1.0" encoding="UTF-8" standalone="no"?>
<svg
   xmlns:dc="http://purl.org/dc/elements/1.1/"
   xmlns:cc="http://creativecommons.org/ns#"
   xmlns:rdf="http://www.w3.org/1999/02/22-rdf-syntax-ns#"
   xmlns:svg="http://www.w3.org/2000/svg"
   xmlns="http://www.w3.org/2000/svg"
   xmlns:sodipodi="http://sodipodi.sourceforge.net/DTD/sodipodi-0.dtd"
   xmlns:inkscape="http://www.inkscape.org/namespaces/inkscape"
   width="200mm"
   height="200mm"
   viewBox="0 0 200 200"
   version="1.1"
   id="svg8"
   sodipodi:docname="QHouseEcologypl.svg"
   inkscape:version="1.0.1 (3bc2e813f5, 2020-09-07)">
  <defs
     id="defs2" />
  <sodipodi:namedview
     id="base"
     pagecolor="#ffffff"
     bordercolor="#666666"
     borderopacity="1.0"
     inkscape:pageopacity="0.0"
     inkscape:pageshadow="2"
     inkscape:zoom="0.35"
     inkscape:cx="71.235477"
     inkscape:cy="380.43254"
     inkscape:document-units="mm"
     inkscape:current-layer="layer1"
     inkscape:document-rotation="0"
     showgrid="false"
     inkscape:window-width="1346"
     inkscape:window-height="967"
     inkscape:window-x="26"
     inkscape:window-y="26"
     inkscape:window-maximized="0" />
  <metadata
     id="metadata5">
    <rdf:RDF>
      <cc:Work
         rdf:about="">
        <dc:format>image/svg+xml</dc:format>
        <dc:type
           rdf:resource="http://purl.org/dc/dcmitype/StillImage" />
        <dc:title></dc:title>
      </cc:Work>
    </rdf:RDF>
  </metadata>
  <g
     inkscape:label="Layer 1"
     inkscape:groupmode="layer"
     id="layer1">
    <rect
       style="fill:#4d4d4d;stroke:none;stroke-width:0.436181"
       id="rect875"
       width="180.68629"
       height="175.15099"
       x="12.300647"
       y="11.956007" />
    <rect
       style="fill:#ff6600;stroke:none;stroke-width:0.449443"
       id="rect877"
       width="180.35675"
       height="174.29683"
       x="10.769992"
       y="11.05577" />
    <text
       xml:space="preserve"
       style="font-size:23.9292px;line-height:1.25;font-family:sans-serif;stroke-width:1.28192"
       x="43.431511"
       y="162.89778"
       id="text883"><tspan
         sodipodi:role="line"
         x="43.431511"
         y="162.89778"
         style="fill:#ffffff;stroke-width:1.28192"
         id="tspan900">EKOLOGIA</tspan></text>
    <path
       style="fill:#ffffff;stroke-width:0.442631"
       d="m 63.3292,122.36769 c -0.417447,-0.26485 -0.536025,-1.53786 -0.442624,-4.7515 l 0.127644,-4.38974 11.397743,-0.11811 11.397741,-0.11811 -0.0043,-7.84922 c -0.0057,-10.29355 0.07147,-10.127171 -8.718894,-18.804358 -3.63769,-3.590846 -6.99738,-6.552413 -7.466018,-6.581256 -1.595262,-0.09824 -2.1793,0.101943 -2.954555,1.011811 -1.577678,1.851886 -1.064606,2.866313 4.094359,8.095213 5.004793,5.072655 5.805189,6.523324 3.927918,7.119157 -0.775925,0.246255 -1.791044,-0.544627 -5.785245,-4.507144 -5.313962,-5.271837 -6.110045,-6.417 -6.110045,-8.789484 0,-4.131303 3.774929,-7.00586 7.773027,-5.919049 1.381894,0.375657 3.237715,1.955396 8.947104,7.616071 4.600627,4.561362 7.559524,7.864276 8.18867,9.140693 0.886605,1.798755 1.007232,2.861611 1.206419,10.629886 l 0.221316,8.63131 1.326453,0.15056 c 0.729551,0.0828 1.47344,0.3816 1.653087,0.66395 0.179649,0.28234 0.329684,2.23182 0.333412,4.33218 0.0074,4.12082 -0.477056,5.14002 -2.185135,4.59789 -0.798741,-0.25351 -0.906502,-0.65249 -0.906502,-3.35629 v -3.0686 H 77.621039 65.891315 v 2.78859 c 0,3.37935 -0.86474,4.55243 -2.562051,3.47555 z m 49.56944,-0.15591 c -0.58543,-0.58543 -0.74414,-7.74411 -0.19097,-8.6135 0.17966,-0.28234 0.92355,-0.58111 1.65309,-0.66393 l 1.32646,-0.15057 0.22131,-8.63132 c 0.19919,-7.768271 0.31982,-8.831127 1.20642,-10.629883 0.62915,-1.276417 3.58805,-4.579318 8.18867,-9.140692 5.70939,-5.660675 7.56522,-7.240414 8.94712,-7.616072 5.13687,-1.396378 9.29905,3.535469 7.15527,8.478387 -0.33976,0.783391 -2.80447,3.586971 -5.47713,6.230159 -4.00493,3.960777 -5.02486,4.753288 -5.8004,4.507132 -1.87728,-0.595833 -1.07689,-2.046503 3.92791,-7.119157 3.25178,-3.295879 4.86894,-5.261223 4.86894,-5.917284 0,-2.35291 -1.90542,-3.795435 -4.03345,-3.053611 -0.63853,0.222595 -4.23583,3.531569 -7.99401,7.353279 -5.40325,5.49458 -6.94374,7.329793 -7.36199,8.770441 -0.3186,1.097376 -0.52893,4.834801 -0.52893,9.398431 v 7.57656 l 11.39774,0.11811 11.39774,0.11811 0.12577,4.50237 c 0.11811,4.22877 0.0697,4.5201 -0.79586,4.79485 -1.58764,0.50389 -2.20701,-0.50563 -2.20701,-3.5972 v -2.82291 H 127.19561 115.4659 v 3.05107 c 0,2.37384 -0.1554,3.11069 -0.70015,3.31972 -0.98825,0.37924 -1.26419,0.34045 -1.86711,-0.26248 z M 63.353927,100.94036 C 57.075434,94.631752 54.606215,91.842352 53.85229,90.206556 52.862615,88.059283 52.83011,87.57455 52.70919,73.168266 52.59593,59.669588 52.65549,58.202031 53.373128,56.799754 c 2.427579,-4.74301 9.181637,-4.752091 11.698535,-0.01572 0.705846,1.328259 0.819588,2.595396 0.819588,9.130395 0,8.110775 -0.230263,8.989764 -2.191913,8.367162 -0.865276,-0.274628 -0.906498,-0.619468 -0.906498,-7.583276 0,-8.001798 -0.397522,-9.657001 -2.442518,-10.170262 -1.731203,-0.434503 -3.237598,0.163563 -3.967584,1.575212 -1.015807,1.964371 -0.983334,26.249633 0.03965,29.694613 0.651792,2.194801 1.437369,3.130722 9.328254,11.113557 7.784268,7.874995 8.569076,8.805595 8.125312,9.634765 -0.270145,0.50479 -0.839478,0.9178 -1.265157,0.9178 -0.425678,0 -4.591304,-3.83564 -9.256936,-8.52364 z m 67.579383,7.59229 c -0.45334,-0.84708 0.26569,-1.70195 7.94468,-9.445515 5.16257,-5.205994 8.74687,-9.18669 9.22484,-10.245078 0.68246,-1.511169 0.79934,-3.482795 0.92062,-15.530479 0.11984,-11.903509 0.0427,-13.98561 -0.56134,-15.153689 -1.22161,-2.362317 -4.55667,-2.393917 -5.76636,-0.05464 -0.52116,1.007827 -0.672,2.936991 -0.672,8.595058 0,6.963809 -0.0412,7.308649 -0.9065,7.583277 -1.9615,0.622553 -2.19196,-0.256745 -2.19122,-8.360272 4.4e-4,-6.334235 0.12797,-7.834538 0.7746,-9.121564 2.20587,-4.390508 8.37454,-4.823686 11.25151,-0.790105 1.03078,1.445185 1.03081,1.445696 1.03081,16.494685 0,13.715112 -0.0745,15.245657 -0.84118,17.262614 -0.6912,1.818514 -2.38382,3.771948 -9.49243,10.955108 -4.75819,4.80808 -9.00368,8.74195 -9.43442,8.74195 -0.43074,0 -1.00746,-0.4191 -1.28161,-0.93135 z M 101.39024,95.653917 c -0.39423,-0.394231 -0.53116,-4.808985 -0.53116,-17.125608 V 61.93384 l -4.193992,-4.268784 c -5.721236,-5.823255 -7.09309,-8.646162 -7.09309,-14.59568 0,-6.10331 1.330204,-8.743026 7.624541,-15.130474 2.594968,-2.633352 4.940261,-4.787912 5.211751,-4.787912 0.2715,0 2.61679,2.15456 5.21175,4.787912 6.29434,6.387448 7.62455,9.027164 7.62455,15.130474 0,5.949518 -1.37186,8.772425 -7.09309,14.59568 l -4.194,4.268784 v 16.594469 c 0,16.68823 -0.085,17.656759 -1.54921,17.656759 -0.26779,0 -0.72591,-0.23901 -1.01805,-0.531151 z m 1.01805,-62.101104 h 1.3279 l 0.22131,11.883226 0.22131,11.883225 2.77973,-2.895468 c 3.79115,-3.949013 5.18763,-7.005563 5.18763,-11.35442 0,-4.668334 -1.36502,-7.422496 -6.06555,-12.238232 l -3.63006,-3.719029 -3.434029,3.413888 c -1.955621,1.944156 -4.06088,4.569206 -4.890072,6.097451 -1.323996,2.440187 -1.455482,3.02477 -1.449834,6.445922 0.0053,3.2753 0.17035,4.075824 1.274127,6.183734 0.697357,1.331755 2.487217,3.691449 3.977469,5.243764 l 2.709549,2.82239 0.22131,-11.883225 0.22132,-11.883226 z M 86.457906,82.009129 c -5.559507,-1.763286 -8.464039,-6.056437 -8.926468,-13.194139 -0.173974,-2.685295 -0.08221,-4.207532 0.29626,-4.914716 0.530119,-0.990544 0.697202,-1.017612 5.039722,-0.816659 7.075712,0.327427 10.895504,2.543447 13.186758,7.650182 1.198718,2.671713 1.747748,10.392023 0.818637,11.511515 -0.814176,0.981031 -7.02092,0.840273 -10.414909,-0.236183 z M 94.12649,76.598657 C 93.695973,70.005702 90.556441,66.8561 83.784774,66.223748 l -2.844077,-0.265579 v 3.075508 c 0,6.818578 3.961252,10.526448 11.455954,10.723151 l 1.939389,0.05085 z m 13.90321,5.776329 c -0.93926,-0.939253 -0.67246,-7.910581 0.41387,-10.814043 2.07911,-5.556936 6.13126,-8.121545 13.40065,-8.481276 5.262,-0.260409 5.57642,-0.02961 5.5658,4.087031 -0.0141,5.47349 -2.01573,10.552575 -5.07965,12.889552 -2.25091,1.716843 -6.36838,2.849887 -10.35642,2.849887 -2.06445,0 -3.62297,-0.209871 -3.94425,-0.531151 z m 11.18497,-4.290238 c 3.14175,-1.772295 4.66122,-4.710931 4.66122,-9.014701 v -3.111878 l -2.84408,0.265579 c -6.79894,0.634896 -9.91091,3.776384 -10.34617,10.444307 l -0.214,3.27844 3.25814,-0.302791 c 2.36306,-0.219621 3.86986,-0.647916 5.48489,-1.558956 z"
       id="path904" />
  </g>
</svg>
