<?xml version="1.0" encoding="UTF-8" standalone="no"?>
<svg
   xmlns:dc="http://purl.org/dc/elements/1.1/"
   xmlns:cc="http://creativecommons.org/ns#"
   xmlns:rdf="http://www.w3.org/1999/02/22-rdf-syntax-ns#"
   xmlns:svg="http://www.w3.org/2000/svg"
   xmlns="http://www.w3.org/2000/svg"
   xmlns:sodipodi="http://sodipodi.sourceforge.net/DTD/sodipodi-0.dtd"
   xmlns:inkscape="http://www.inkscape.org/namespaces/inkscape"
   width="1920"
   height="1200"
   viewBox="0 0 508 317.50002"
   version="1.1"
   id="svg112240"
   inkscape:version="1.0.1 (3bc2e813f5, 2020-09-07)"
   sodipodi:docname="QHouseHome5pl.svg">
  <defs
     id="defs112234" />
  <sodipodi:namedview
     id="base"
     pagecolor="#ffffff"
     bordercolor="#666666"
     borderopacity="1.0"
     inkscape:pageopacity="0.0"
     inkscape:pageshadow="2"
     inkscape:zoom="0.45254834"
     inkscape:cx="889.80838"
     inkscape:cy="715.64868"
     inkscape:document-units="mm"
     inkscape:current-layer="layer1"
     inkscape:document-rotation="0"
     showgrid="false"
     units="px"
     height="5000px"
     inkscape:window-width="1920"
     inkscape:window-height="1137"
     inkscape:window-x="1912"
     inkscape:window-y="-8"
     inkscape:window-maximized="1" />
  <metadata
     id="metadata112237">
    <rdf:RDF>
      <cc:Work
         rdf:about="">
        <dc:format>image/svg+xml</dc:format>
        <dc:type
           rdf:resource="http://purl.org/dc/dcmitype/StillImage" />
        <dc:title></dc:title>
      </cc:Work>
    </rdf:RDF>
  </metadata>
  <g
     inkscape:label="Layer 1"
     inkscape:groupmode="layer"
     id="layer1">
    <rect
       style="fill:#ff6600;fill-opacity:0.714859;stroke:none;stroke-width:0.56987;stroke-opacity:1"
       id="rect964-6-8-7-8-7"
       width="417.70337"
       height="2.227706"
       x="63.56913"
       y="80.811333" />
    <rect
       style="fill:#000000;fill-opacity:0.714859;stroke:none;stroke-width:0.56987;stroke-opacity:1"
       id="rect966-3-2-3-8-0"
       width="406.99304"
       height="2.227706"
       x="15.967646"
       y="85.82354" />
    <text
       xml:space="preserve"
       style="font-size:21.0109px;line-height:1.25;font-family:sans-serif;letter-spacing:0px;fill:#000000;stroke-width:0.393954"
       x="144.73764"
       y="72.418755"
       id="text242-4-6-4-3"><tspan
         sodipodi:role="line"
         id="tspan240-6-4-5-4"
         x="144.73764"
         y="72.418755"
         style="font-size:21.0109px;fill:#000000;stroke-width:0.393954">Szybka Konstrukcja</tspan></text>
    <text
       xml:space="preserve"
       style="font-style:normal;font-weight:normal;font-size:10.5833px;line-height:1.25;font-family:sans-serif;white-space:pre;inline-size:415.079;fill:#000000;fill-opacity:1;stroke:none;stroke-width:0.264583"
       x="108.85714"
       y="1131.6608"
       id="text1123-3-0-0"
       transform="translate(-94.412396,-1031.0688)"><tspan
         x="108.85714"
         y="1131.6608"><tspan>Przygotowaliśmy efektywny system konstrukcji, który pozwala na szybki </tspan></tspan><tspan
         x="108.85714"
         y="1144.8899"><tspan>prace o wysokiej jakości.</tspan></tspan></text>
    <path
       style="fill:#000000;stroke-width:0.520581"
       d="m 93.744113,73.570483 c -0.90533,-0.9053 -0.767839,-2.7817 0.3658,-4.9923 1.3175,-2.5691 3.189137,-4.2602 6.458607,-5.8358 3.69109,-1.7787 4.11688,-3.129 2.02638,-6.4254 -0.89887,-1.4174 -1.72998,-3.5944 -1.93145,-5.0591 -0.30838,-2.2423 -0.50839,-2.5712 -1.56364,-2.5712 -0.66551,0 -1.58057,-0.1422 -2.03347,-0.3159 -1.018966,-0.391 -1.106487,-2.8075 -0.10168,-2.8075 0.45315,0 0.84873,-0.8467 1.06292,-2.275 0.18764,-1.2513 1.09272,-3.4 2.01129,-4.7749 0.91855,-1.3749 1.98608,-3.0668 2.37231,-3.7597 0.97046,-1.7413 3.63068,-2.7255 7.36681,-2.7255 3.7887,0 6.76756,1.0941 6.76756,2.4856 0,0.5373 0.61657,1.5449 1.37013,2.239 1.74335,1.6058 3.28888,4.9362 3.30366,7.1186 0.008,1.1672 0.25859,1.6919 0.80861,1.6919 1.25891,0 1.58594,1.616 0.48937,2.4179 -0.72402,0.5294 -3.2151,0.7055 -9.97561,0.7055 h -9.01068 v 1.5876 c 0,1.8763 1.32406,4.6425 2.68039,5.5999 1.258,0.8881 1.23855,3.2473 -0.0474,5.7683 -1.07519,2.1076 -2.71656,3.4427 -4.90886,3.9929 -1.34272,0.337 -5.012137,3.937 -5.012137,4.9172 0,0.3192 2.681827,0.5191 6.964077,0.5191 5.55526,0 7.0952,0.158 7.61216,0.7809 0.51702,0.6229 0.51702,0.9387 0,1.5618 -0.52395,0.6313 -2.16107,0.7808 -8.54921,0.7808 -5.4512,0 -8.094817,-0.1937 -8.525815,-0.6247 z m 24.883737,-28.4011 c 0,-1.0006 -1.09146,-4.0303 -1.89231,-5.2526 l -0.88721,-1.354 -0.60618,1.8084 c -0.40628,1.2118 -0.97885,1.8632 -1.73605,1.9749 -1.59531,0.2354 -1.89311,-1.0294 -0.91705,-3.8941 0.45819,-1.3445 0.83299,-2.6166 0.83299,-2.8267 0,-0.6122 -3.99163,-1.1149 -5.76324,-0.7258 -1.55452,0.3414 -1.60479,0.4343 -1.22166,2.2563 0.70427,3.3493 0.56479,4.9803 -0.44317,5.1809 -0.64799,0.1289 -1.15401,-0.3748 -1.70768,-1.6999 -0.43272,-1.0357 -0.98548,-1.7603 -1.22828,-1.6102 -0.7727,0.4776 -2.12988,3.7807 -2.12988,5.1837 v 1.353 h 8.84986 c 4.86741,0 8.84986,-0.1773 8.84986,-0.3939 z m -0.28157,27.8227 c -4.47668,-2.1342 -7.00654,-6.023 -7.00654,-10.7703 0,-5.9407 4.40297,-11.0743 10.43514,-12.1669 4.56602,-0.8269 10.97525,3.0729 12.76887,7.7696 3.73047,9.768 -6.81333,19.6414 -16.19747,15.1676 z m 10.04945,-3.3034 c 2.58182,-1.9126 3.76725,-4.2206 3.76725,-7.335 0,-5.6902 -3.37294,-9.2247 -8.80301,-9.2247 -4.74792,0 -7.93701,2.4809 -8.94272,6.9571 -0.90581,4.0315 1.31263,8.625 4.96568,10.282 2.26195,1.026 7.21457,0.6527 9.0128,-0.6794 z m -6.01972,-6.5298 c -0.37905,-0.3791 -0.62465,-2.2211 -0.62465,-4.6852 v -4.0606 h 1.56169 c 1.50572,0 1.56176,0.085 1.56176,2.361 0,2.2306 0.0602,2.3289 1.08381,1.7808 0.88046,-0.4712 1.21929,-0.4013 1.80553,0.3722 0.39687,0.5237 0.72487,1.0692 0.72882,1.2124 0.007,0.2417 -4.96981,3.6441 -5.33003,3.6441 -0.0892,0 -0.4433,-0.2811 -0.78693,-0.6247 z"
       id="path127-0" />
    <g
       id="g111729"
       transform="matrix(1.4661725,0,0,1.4661725,816.9318,-4376.9133)">
      <path
         style="fill:#b0b0b0;stroke-width:0.264583"
         d="m -507.44955,3189.5712 c -0.24391,-0.244 -0.3175,-8.8715 -0.3175,-37.223 v -36.9055 l 4.49007,-4.5167 4.49006,-4.5167 -4.49006,-4.5118 -4.49007,-4.5118 v -3.305 c 0,-2.2177 0.10445,-3.4094 0.3175,-3.6225 0.46017,-0.4601 46.79442,-0.4601 47.25459,0 0.21017,0.2102 0.3175,1.3473 0.3175,3.3639 v 3.0464 l 4.49791,4.5246 c 2.47386,2.4885 4.49792,4.6878 4.49792,4.8872 0,0.1994 -2.02406,2.3987 -4.49792,4.8872 l -4.49791,4.5246 v 36.7808 c 0,28.2545 -0.0736,36.8544 -0.3175,37.0983 -0.46017,0.4601 -46.79442,0.4601 -47.25459,0 z m 47.24229,-36.9802 0.0671,-36.9007 4.49699,-4.5237 c 2.47334,-2.488 4.49699,-4.6869 4.49699,-4.8863 0,-0.1994 -2.02003,-2.3946 -4.48896,-4.8782 l -4.48895,-4.5156 -0.0751,-3.1744 -0.0751,-3.1745 h -23.54792 -23.54791 l -0.0744,3.4158 -0.0744,3.4158 4.49829,4.52 4.49828,4.5201 -4.49006,4.5167 -4.49006,4.5167 v 36.9143 c 0,20.3029 0.08,36.9943 0.17781,37.0921 0.0978,0.098 10.72412,0.1474 23.61406,0.1102 l 23.43625,-0.068 z m 52.9244,37.1191 c -0.26073,-0.07 -0.51861,-0.4804 -0.60512,-0.9637 -0.0829,-0.4632 -0.11658,-17.1227 -0.0748,-37.0211 l 0.0759,-36.1789 4.62737,-4.6331 4.62738,-4.633 -4.62738,-4.633 -4.62737,-4.6331 v -3.1501 c 0,-1.7326 0.0992,-3.2493 0.22049,-3.3706 0.28774,-0.2877 46.8953,-0.2885 47.18402,-8e-4 0.12127,0.1209 0.25956,1.6793 0.30731,3.4632 l 0.0868,3.2434 4.47724,4.4714 c 2.46248,2.4593 4.47724,4.5932 4.47724,4.7419 0,0.1487 -2.02283,2.2906 -4.49519,4.7598 l -4.49519,4.4893 -0.0689,36.8269 c -0.0379,20.2548 -0.16806,36.926 -0.28929,37.0473 -0.22492,0.225 -45.97388,0.3952 -46.8006,0.1742 z m 46.47295,-0.5018 c 0.37397,-0.374 0.41578,-4.0913 0.41578,-36.966 v -36.5502 l 4.52102,-4.5478 c 3.87534,-3.8984 4.48237,-4.6177 4.25043,-5.0367 -0.14882,-0.2688 -2.18328,-2.3923 -4.52102,-4.719 l -4.25043,-4.2302 v -2.9608 c 0,-2.3388 -0.0873,-3.0481 -0.41578,-3.3765 -0.37155,-0.3716 -2.8457,-0.4158 -23.26443,-0.4158 -20.91249,0 -22.88578,0.037 -23.28675,0.4381 -0.366,0.366 -0.42353,0.9099 -0.34963,3.3051 l 0.0885,2.867 4.62738,4.6324 4.62737,4.6324 -4.62737,4.633 -4.62738,4.6331 -0.0689,36.6203 c -0.0623,33.0991 -0.0287,36.6606 0.34962,37.0388 0.37519,0.3752 2.78475,0.4186 23.26719,0.4186 20.41873,0 22.89288,-0.044 23.26443,-0.4158 z m 53.12078,0.3629 c -0.24392,-0.244 -0.3175,-8.9008 -0.3175,-37.3548 v -37.0373 l 4.4216,-4.4494 4.42161,-4.4494 -4.42161,-4.4494 -4.4216,-4.4494 v -3.3029 c 0,-2.2161 0.10447,-3.4073 0.3175,-3.6204 0.46014,-0.4601 46.52986,-0.4601 46.99,0 0.20852,0.2085 0.3175,1.3179 0.3175,3.2319 v 2.9143 l 4.63021,4.6562 c 2.54661,2.5609 4.6302,4.8198 4.6302,5.0197 0,0.1999 -2.08359,2.4588 -4.6302,5.0197 l -4.63021,4.6562 v 36.6487 c 0,28.1518 -0.0736,36.7224 -0.3175,36.9663 -0.46014,0.4601 -46.52986,0.4601 -46.99,0 z m 46.97769,-36.8481 0.0671,-36.7687 4.62928,-4.6553 c 2.54611,-2.5604 4.62928,-4.8189 4.62928,-5.0188 0,-0.1999 -2.07941,-2.4546 -4.62092,-5.0104 l -4.62095,-4.6469 -0.0754,-3.0427 -0.0754,-3.0427 h -23.41562 -23.41563 l -0.0743,3.4137 -0.0744,3.4137 4.42981,4.4577 4.42981,4.4576 -4.4216,4.4494 -4.42161,4.4494 v 37.0461 c 0,20.3753 0.08,37.1261 0.17782,37.2239 0.0978,0.098 10.66459,0.1474 23.48178,0.1102 l 23.30394,-0.068 z m 3.18273,36.987 c -0.26072,-0.07 -0.51858,-0.4804 -0.6051,-0.9637 -0.0829,-0.4632 -0.11658,-17.1227 -0.0748,-37.0211 l 0.0759,-36.1789 4.62737,-4.6331 4.62738,-4.633 -4.62738,-4.633 -4.62737,-4.6331 v -3.1501 c 0,-1.7326 0.0992,-3.2493 0.22047,-3.3706 0.28824,-0.2882 46.89581,-0.2882 47.18405,0 0.28823,0.2883 0.28829,98.754 5e-5,99.0424 -0.22492,0.225 -45.97381,0.3953 -46.80061,0.1742 z m 46.47298,-0.5018 c 0.37496,-0.375 0.41576,-5.2029 0.41576,-49.1936 0,-43.9907 -0.0408,-48.8186 -0.41576,-49.1936 -0.37156,-0.3716 -2.8457,-0.4158 -23.26444,-0.4158 -20.91249,0 -22.8858,0.037 -23.28675,0.4381 -0.366,0.366 -0.42355,0.9099 -0.34962,3.3051 l 0.0885,2.867 4.62738,4.6324 4.62737,4.6324 -4.62737,4.633 -4.62738,4.6331 -0.0689,36.6203 c -0.0623,33.0991 -0.0287,36.6606 0.34962,37.0388 0.37518,0.3752 2.78477,0.4186 23.2672,0.4186 20.41874,0 22.89288,-0.044 23.26444,-0.4158 z m -246.26267,0.2408 c -0.0978,-0.098 -0.17781,-16.7983 -0.17781,-37.1122 v -36.9345 l 4.36562,-4.3596 c 2.40109,-2.3978 4.36563,-4.5409 4.36563,-4.7625 0,-0.2216 -1.96721,-2.3661 -4.37157,-4.7655 l -4.37157,-4.3626 0.0721,-3.3073 0.0721,-3.3073 h 23.41562 23.41563 l 0.13229,3.2395 0.13229,3.2394 4.62737,4.6319 4.62738,4.6319 -4.62738,4.633 -4.62737,4.6331 -0.13229,36.9727 -0.13229,36.9727 -23.30396,0.068 c -12.81717,0.037 -23.38397,-0.012 -23.48177,-0.1102 z m 46.38885,-37.0485 v -36.6942 l 4.68673,-4.713 4.68672,-4.7131 -4.68672,-4.713 -4.68673,-4.7131 v -2.9598 -2.9599 h -23.01875 -23.01875 v 3.1118 3.1119 l 4.36563,4.3596 c 2.40109,2.3978 4.36562,4.5409 4.36562,4.7625 0,0.2216 -1.96453,2.3647 -4.36562,4.7625 l -4.36563,4.3596 v 36.8463 36.8462 h 23.01875 23.01875 z m -99.21875,-36.5815 c 0,-0.084 2.02407,-2.1733 4.49792,-4.644 2.47385,-2.4706 4.49792,-4.6138 4.49792,-4.7625 0,-0.1487 -2.02407,-2.2918 -4.49792,-4.7625 -2.47385,-2.4706 -4.49792,-4.5604 -4.49792,-4.644 0,-0.084 2.0836,1.9434 4.63021,4.5043 2.54662,2.561 4.63021,4.7669 4.63021,4.9022 0,0.1353 -2.08359,2.3413 -4.63021,4.9022 -2.54661,2.5609 -4.63021,4.5878 -4.63021,4.5043 z m 152.4,-0.2642 c 0,-0.084 1.96453,-2.1143 4.36563,-4.5121 2.40109,-2.3978 4.36562,-4.4814 4.36562,-4.6302 0,-0.1488 -1.96453,-2.2324 -4.36562,-4.6302 -2.4011,-2.3978 -4.36563,-4.4282 -4.36563,-4.512 0,-0.084 2.02406,1.8836 4.49792,4.3721 2.47385,2.4886 4.49791,4.6351 4.49791,4.7701 0,0.135 -2.02406,2.2816 -4.49791,4.7701 -2.47386,2.4885 -4.49792,4.456 -4.49792,4.3722 z m 47.36042,0 c 0,-0.084 1.96453,-2.1143 4.36562,-4.5121 2.4011,-2.3978 4.36563,-4.5409 4.36563,-4.7625 0,-0.2216 -1.96453,-2.3647 -4.36563,-4.7625 -2.40109,-2.3978 -4.36562,-4.4282 -4.36562,-4.512 0,-0.084 2.02406,1.8836 4.49791,4.3721 2.47386,2.4886 4.49792,4.6946 4.49792,4.9024 0,0.2078 -2.02406,2.4139 -4.49792,4.9024 -2.47385,2.4885 -4.49791,4.456 -4.49791,4.3722 z"
         id="path111741" />
      <path
         style="fill:#df9260;stroke-width:0.264583"
         d="m -557.19121,3189.3066 c -0.46192,-0.462 -0.46192,-98.1219 0,-98.5838 0.46012,-0.4601 46.26529,-0.4601 46.72541,0 0.21033,0.2103 0.3175,1.35 0.3175,3.3764 v 3.0588 l 4.49792,4.4921 c 2.47385,2.4707 4.49792,4.6138 4.49792,4.7625 0,0.1487 -2.02407,2.2919 -4.49792,4.7625 l -4.49792,4.4921 v 36.6609 c 0,28.1613 -0.0736,36.7346 -0.3175,36.9785 -0.46012,0.4601 -46.26529,0.4601 -46.72541,0 z m 46.51375,-36.9256 v -36.7138 l 4.49791,-4.4921 c 2.47386,-2.4706 4.49792,-4.6138 4.49792,-4.7625 0,-0.1487 -2.02406,-2.2918 -4.49792,-4.7625 l -4.49791,-4.4921 v -3.1117 -3.1118 h -23.15105 -23.15104 v 49.0802 49.0802 h 23.15104 23.15105 z m 153.24666,36.9256 c -0.24389,-0.2439 -0.3175,-8.8127 -0.3175,-36.9584 v -36.6409 l 4.49792,-4.5246 c 2.47385,-2.4885 4.49791,-4.6351 4.49791,-4.7701 0,-0.135 -2.02406,-2.2815 -4.49791,-4.7701 l -4.49792,-4.5246 v -3.0388 c 0,-2.0107 0.10742,-3.1462 0.3175,-3.3563 0.46013,-0.4601 46.26529,-0.4601 46.72542,0 0.21033,0.2103 0.3175,1.3501 0.3175,3.3765 v 3.0589 l 4.36562,4.3596 c 2.4011,2.3978 4.36563,4.5409 4.36563,4.7625 0,0.2216 -1.96453,2.3647 -4.36563,4.7625 l -4.36562,4.3596 v 36.7933 c 0,28.2643 -0.0736,36.867 -0.3175,37.1109 -0.46013,0.4601 -46.26529,0.4601 -46.72542,0 z m 46.51375,-37.0522 v -36.8404 l 4.56123,-4.5669 4.56123,-4.5668 -4.56123,-4.5668 -4.56123,-4.5668 v -3.1061 -3.1061 h -23.15104 -23.15104 v 3.1118 3.1117 l 4.49791,4.4921 c 2.47386,2.4707 4.49792,4.6138 4.49792,4.7625 0,0.1487 -2.02406,2.2919 -4.49792,4.7625 l -4.49791,4.4921 v 36.7138 36.7139 h 23.15104 23.15104 z"
         id="path111739" />
      <path
         style="fill:#979797;stroke-width:0.264583"
         d="m -407.34153,3189.2055 c -0.37828,-0.3782 -0.41189,-3.9397 -0.34962,-37.0388 l 0.0689,-36.6203 4.62738,-4.6331 4.62737,-4.633 -4.62737,-4.6324 -4.62738,-4.6324 -0.0885,-2.867 c -0.0739,-2.3952 -0.0164,-2.9391 0.34963,-3.3051 0.40097,-0.401 2.37426,-0.4381 23.28675,-0.4381 20.41873,0 22.89288,0.044 23.26443,0.4158 0.32844,0.3284 0.41578,1.0377 0.41578,3.3765 v 2.9608 l 4.25043,4.2302 c 2.33774,2.3267 4.3722,4.4502 4.52102,4.719 0.23194,0.419 -0.37509,1.1383 -4.25043,5.0367 l -4.52102,4.5478 v 36.5502 c 0,32.8747 -0.0418,36.592 -0.41578,36.966 -0.37155,0.3715 -2.8457,0.4158 -23.26443,0.4158 -20.48244,0 -22.892,-0.043 -23.26719,-0.4186 z m 46.41823,-36.8044 v -36.6938 l 4.49792,-4.5246 c 2.47385,-2.4885 4.49791,-4.6351 4.49791,-4.7701 0,-0.135 -2.02406,-2.2815 -4.49791,-4.7701 l -4.49792,-4.5246 v -3.0917 -3.0917 h -23.15104 -23.15104 v 2.9795 2.9794 l 4.49792,4.4921 c 2.47385,2.4707 4.49791,4.6733 4.49791,4.8948 0,0.2215 -2.02406,2.4242 -4.49791,4.8948 l -4.49792,4.4921 v 36.7138 36.7139 h 23.15104 23.15104 z m 103.33593,36.8044 c -0.37827,-0.3782 -0.4119,-3.9397 -0.34962,-37.0388 l 0.0689,-36.6203 4.62738,-4.6331 4.62737,-4.633 -4.62737,-4.6324 -4.62738,-4.6324 -0.0885,-2.867 c -0.0739,-2.3952 -0.0164,-2.9391 0.34962,-3.3051 0.40095,-0.401 2.37426,-0.4381 23.28675,-0.4381 20.41874,0 22.89288,0.044 23.26444,0.4158 0.37496,0.375 0.41576,5.2029 0.41576,49.1936 0,43.9907 -0.0408,48.8186 -0.41576,49.1936 -0.37156,0.3715 -2.8457,0.4158 -23.26444,0.4158 -20.48243,0 -22.89202,-0.043 -23.2672,-0.4186 z m 46.41824,-49.1908 v -49.0802 h -23.15104 -23.15105 v 2.9795 2.9794 l 4.49792,4.4921 c 2.47385,2.4707 4.49792,4.6733 4.49792,4.8948 0,0.2215 -2.02407,2.4242 -4.49792,4.8948 l -4.49792,4.4921 v 36.7138 36.7139 h 23.15105 23.15104 z m -245.79792,12.234 v -36.8463 l 4.36563,-4.3596 c 2.40109,-2.3978 4.36562,-4.5409 4.36562,-4.7625 0,-0.2216 -1.96453,-2.3647 -4.36562,-4.7625 l -4.36563,-4.3596 v -3.1119 -3.1118 h 23.01875 23.01875 v 2.9599 2.9598 l 4.68673,4.7131 4.68672,4.713 -4.68672,4.7131 -4.68673,4.713 v 36.6942 36.6943 h -23.01875 -23.01875 z m 200.68646,-40.9413 c 2.47065,-2.4739 4.5516,-4.4979 4.62436,-4.4979 0.0728,0 -1.88913,2.024 -4.35978,4.4979 -2.47065,2.4739 -4.5516,4.4979 -4.62436,4.4979 -0.0728,0 1.88913,-2.024 4.35978,-4.4979 z m -199.62812,-0.1323 c 2.39778,-2.4011 4.41914,-4.3656 4.4919,-4.3656 0.0728,0 -1.82953,1.9645 -4.22732,4.3656 -2.39779,2.4011 -4.41914,4.3656 -4.4919,4.3656 -0.0728,0 1.82953,-1.9645 4.22732,-4.3656 z m -47.0277,-0.3326 4.42793,-4.4337 -4.43084,-4.4951 -4.43085,-4.495 4.5641,4.4941 4.5641,4.4941 -4.42889,4.4346 c -2.43589,2.4391 -4.48842,4.4347 -4.56118,4.4347 -0.0728,0 1.86027,-1.9952 4.29563,-4.4337 z m 199.69028,-0.1304 4.36161,-4.4318 -4.36161,-4.4318 -4.3616,-4.4317 4.49591,4.4317 4.49592,4.4318 -4.49592,4.4318 -4.49591,4.4318 z m -152.66559,-9.3927 -4.36262,-4.4318 4.43177,4.3626 c 4.1173,4.0531 4.55141,4.501 4.36262,4.501 -0.038,0 -2.03233,-1.9943 -4.43177,-4.4318 z m 199.62822,-0.1323 -4.49501,-4.5641 4.56406,4.495 c 4.24027,4.1761 4.68366,4.6332 4.49501,4.6332 -0.038,0 -2.09182,-2.0539 -4.56406,-4.5641 z"
         id="path111737" />
      <path
         style="fill:#fd6500;stroke-width:0.264583"
         d="m -556.97955,3140.0147 v -49.0802 h 23.15104 23.15105 v 3.1118 3.1117 l 4.49791,4.4921 c 2.47386,2.4707 4.49792,4.6138 4.49792,4.7625 0,0.1487 -2.02406,2.2919 -4.49792,4.7625 l -4.49791,4.4921 v 36.7138 36.7139 h -23.15105 -23.15104 z m 199.76042,12.3663 v -36.7138 l 4.49791,-4.4921 c 2.47386,-2.4706 4.49792,-4.6138 4.49792,-4.7625 0,-0.1487 -2.02406,-2.2918 -4.49792,-4.7625 l -4.49791,-4.4921 v -3.1117 -3.1118 h 23.15104 23.15104 v 3.1061 3.1061 l 4.56123,4.5668 4.56123,4.5668 -4.56123,4.5668 -4.56123,4.5669 v 36.8404 36.8405 h -23.15104 -23.15104 z"
         id="path111735" />
      <path
         style="fill:#686868;stroke-width:0.264583"
         d="m -507.08944,3189.2055 c -0.37828,-0.3782 -0.4119,-3.9397 -0.34963,-37.0388 l 0.0689,-36.6203 4.56316,-4.5688 4.56316,-4.5687 -4.56316,-4.5625 -4.56316,-4.5624 -0.0879,-3.0018 c -0.0737,-2.5184 -0.0175,-3.0723 0.34963,-3.4393 0.40025,-0.4003 2.38522,-0.4376 23.2862,-0.4376 20.41874,0 22.89288,0.044 23.26444,0.4158 0.32843,0.3284 0.41577,1.0377 0.41577,3.3764 v 2.9607 l 4.36563,4.3596 c 2.40109,2.3978 4.36562,4.5409 4.36562,4.7625 0,0.2216 -1.96453,2.3647 -4.36562,4.7625 l -4.36563,4.3596 v 36.6951 c 0,33.0063 -0.0418,36.7368 -0.41577,37.1108 -0.37156,0.3715 -2.8457,0.4158 -23.26444,0.4158 -20.48243,0 -22.892,-0.043 -23.26718,-0.4186 z m 46.41823,-36.9367 v -36.8261 l 4.55417,-4.5812 4.55417,-4.5812 -4.55417,-4.5812 -4.55417,-4.5812 v -3.0917 -3.0917 h -23.15105 -23.15104 v 3.1118 3.1117 l 4.49792,4.4921 c 2.47385,2.4707 4.49792,4.6138 4.49792,4.7625 0,0.1487 -2.02407,2.2919 -4.49792,4.7625 l -4.49792,4.4921 v 36.7138 36.7139 h 23.15104 23.15105 z m 153.34219,36.9368 c -0.37828,-0.3783 -0.41189,-3.9517 -0.34962,-37.1711 l 0.0689,-36.7526 4.495,-4.5008 4.495,-4.5008 -4.495,-4.5001 -4.495,-4.5002 -0.0879,-2.9998 c -0.0737,-2.5165 -0.0174,-3.0703 0.34963,-3.4373 0.4002,-0.4002 2.37597,-0.4376 23.15391,-0.4376 20.29846,0 22.76062,0.044 23.13215,0.4158 0.3261,0.3261 0.41576,1.0257 0.41576,3.2441 v 2.8282 l 4.49792,4.4921 c 2.47385,2.4707 4.49792,4.6733 4.49792,4.8948 0,0.2215 -2.02407,2.4242 -4.49792,4.8948 l -4.49792,4.4921 v 36.5627 c 0,32.886 -0.0418,36.6044 -0.41576,36.9784 -0.37153,0.3715 -2.83369,0.4158 -23.13215,0.4158 -20.36159,0 -22.75975,-0.043 -23.13489,-0.4185 z m 46.15364,-36.805 v -36.6942 l 4.68672,-4.713 4.68672,-4.7131 -4.68672,-4.713 -4.68672,-4.7131 v -2.9598 -2.9599 h -23.01875 -23.01875 v 3.1118 3.1119 l 4.36562,4.3596 c 2.4011,2.3978 4.36563,4.5409 4.36563,4.7625 0,0.2216 -1.96453,2.3647 -4.36563,4.7625 l -4.36562,4.3596 v 36.8463 36.8462 h 23.01875 23.01875 z m -146.05,-0.02 v -36.7138 l 4.49792,-4.4921 c 2.47385,-2.4706 4.49791,-4.6733 4.49791,-4.8948 0,-0.2215 -2.02406,-2.4241 -4.49791,-4.8948 l -4.49792,-4.4921 v -2.9794 -2.9795 h 23.15104 23.15104 v 3.0917 3.0917 l 4.49792,4.5246 c 2.47385,2.4886 4.49791,4.6351 4.49791,4.7701 0,0.135 -2.02406,2.2816 -4.49791,4.7701 l -4.49792,4.5246 v 36.6938 36.6938 h -23.15104 -23.15104 z m 149.75416,0 v -36.7138 l 4.49792,-4.4921 c 2.47385,-2.4706 4.49792,-4.6733 4.49792,-4.8948 0,-0.2215 -2.02407,-2.4241 -4.49792,-4.8948 l -4.49792,-4.4921 v -2.9794 -2.9795 h 23.15105 23.15104 v 49.0802 49.0802 h -23.15104 -23.15105 z"
         id="path111733" />
      <path
         style="fill:#000000;stroke-width:0.264583"
         d="m -506.9733,3152.381 v -36.7138 l 4.49792,-4.4921 c 2.47385,-2.4706 4.49792,-4.6138 4.49792,-4.7625 0,-0.1487 -2.02407,-2.2918 -4.49792,-4.7625 l -4.49792,-4.4921 v -3.1117 -3.1118 h 23.15104 23.15105 v 3.0917 3.0917 l 4.55417,4.5812 4.55417,4.5812 -4.55417,4.5812 -4.55417,4.5812 v 36.8261 36.8261 h -23.15105 -23.15104 z m 199.76042,-0.1323 v -36.8463 l 4.36562,-4.3596 c 2.4011,-2.3978 4.36563,-4.5409 4.36563,-4.7625 0,-0.2216 -1.96453,-2.3647 -4.36563,-4.7625 l -4.36562,-4.3596 v -3.1119 -3.1118 h 23.01875 23.01875 v 2.9599 2.9598 l 4.68672,4.7131 4.68672,4.713 -4.68672,4.7131 -4.68672,4.713 v 36.6942 36.6943 h -23.01875 -23.01875 z"
         id="path111731" />
    </g>
    <path
       style="fill:#ffffff;stroke-width:0.208221"
       d="m 38.019617,208.09709 c -2.934362,-0.9685 -5.053955,-3.0872 -5.93951,-5.9367 -1.246402,-4.0108 0.658228,-8.4466 4.454671,-10.3749 5.278831,-2.6811 11.673443,0.5834 12.682561,6.4745 0.64389,3.7591 -1.451983,7.6748 -4.998172,9.3381 -1.226672,0.5754 -1.668206,0.6689 -3.388556,0.7178 -1.228813,0.035 -2.293602,-0.048 -2.810994,-0.2188 z m 5.422116,-2.4785 c 1.276739,-0.6521 2.691162,-2.1423 3.265371,-3.4405 0.643356,-1.4543 0.606746,-3.7662 -0.08324,-5.256 -1.442178,-3.114 -4.92692,-4.6578 -8.194188,-3.6301 -2.295615,0.722 -4.205171,3.0315 -4.575673,5.5339 -0.427299,2.886 1.584275,6.0915 4.477946,7.1357 1.398297,0.5046 3.760769,0.346 5.109782,-0.343 z m -4.632542,-1.4582 c -0.583615,-0.6385 -1.934794,-3.3127 -1.934794,-3.8294 0,-0.5302 0.83135,-1.3241 1.386649,-1.3241 0.232545,0 0.592397,0.1874 0.799679,0.4164 0.207283,0.2291 0.462452,0.4165 0.567042,0.4165 0.10459,0 0.600882,-0.8789 1.102881,-1.9532 0.501997,-1.0742 1.064491,-2.1049 1.24999,-2.2904 0.779574,-0.7796 2.187525,-0.1264 2.177963,1.0105 -0.0047,0.5208 -3.006323,7.1353 -3.471693,7.6495 -0.465342,0.5142 -1.361954,0.4685 -1.877717,-0.096 z m -22.691844,0.6612 c -1.025756,-0.5077 -1.803637,-1.4534 -2.13734,-2.5984 -0.174599,-0.5991 -0.222502,-5.7402 -0.176786,-18.9713 l 0.06272,-18.1494 0.633321,-0.901 c 0.348332,-0.4956 1.004232,-1.1111 1.457555,-1.3679 0.819088,-0.4639 0.88133,-0.4668 9.991016,-0.4702 h 9.166791 l 5.668986,5.6828 5.668984,5.6827 v 8.4763 c 0,7.4931 -0.03715,8.4763 -0.320622,8.4763 -0.407734,0 -2.024685,-0.8141 -2.226898,-1.1211 -0.08414,-0.1278 -0.154413,-3.2394 -0.156167,-6.9147 l -0.0031,-6.6823 -3.637809,-0.1316 c -4.679453,-0.1692 -5.671566,-0.5512 -6.58794,-2.5368 -0.325787,-0.7058 -0.385101,-1.3783 -0.388972,-4.4098 -0.0039,-3.0133 -0.05761,-3.63 -0.341376,-3.9138 -0.300233,-0.3002 -1.157174,-0.3301 -7.890838,-0.2751 -7.087861,0.057 -7.58106,0.086 -7.992052,0.4583 l -0.438024,0.3967 v 18.2589 c 0,17.4245 0.01739,18.2747 0.380787,18.6036 0.336866,0.3048 1.123255,0.3449 6.819249,0.3477 3.54116,0 6.532168,0.072 6.646688,0.1562 0.272547,0.2003 0.937001,1.6426 0.937001,2.0341 0,0.2622 -1.004491,0.3052 -7.131585,0.3051 -6.795577,-2e-4 -7.172666,-0.021 -8.003495,-0.4318 z m 26.0506,-31.6081 c 0.154734,-0.2504 -6.300316,-6.7349 -6.550411,-6.5803 -0.111175,0.068 -0.200687,1.2669 -0.200687,2.6864 0,2.3022 0.04517,2.6198 0.445202,3.1284 0.244861,0.3112 0.643088,0.6459 0.884941,0.7436 0.583734,0.2359 5.277001,0.2548 5.420955,0.022 z m -22.747855,24.895 c -0.620792,-0.6607 -0.595239,-1.6849 0.05832,-2.3385 0.558621,-0.5586 1.14156,-0.6436 1.845095,-0.2688 1.043675,0.5558 1.270711,1.6165 0.54381,2.5407 -0.576438,0.7327 -1.790392,0.7659 -2.447252,0.067 z m 6.123985,0.057 c -0.714538,-0.2137 -0.9472,-0.5218 -0.951552,-1.26 -0.0063,-1.0297 0.51034,-1.2296 3.176292,-1.2296 1.329854,0 2.461427,0.071 2.514602,0.1564 0.0532,0.086 0.0016,0.6387 -0.115199,1.228 -0.18973,0.9596 -0.2774,1.0846 -0.839184,1.197 -0.88396,0.1768 -3.063521,0.1239 -3.784959,-0.092 z m -0.560266,-7.9271 c -1.07196,-0.3934 -1.203015,-1.9308 -0.209911,-2.4622 0.270996,-0.1451 3.245051,-0.2209 8.66062,-0.2209 h 8.247901 l 0.511085,0.511 c 0.99904,0.9991 0.712965,1.1722 -2.046221,1.2387 -1.730275,0.042 -2.39481,0.1553 -3.557956,0.6083 -1.409139,0.5488 -1.501468,0.5568 -6.246643,0.5407 -2.648992,-0.01 -5.060492,-0.1061 -5.358875,-0.2156 z m -4.767124,-0.1254 c -1.560382,-0.56 -1.695073,-2.6329 -0.204827,-3.1524 1.093783,-0.3813 2.287039,0.4359 2.287039,1.5664 0,0.8916 -1.286545,1.8716 -2.082212,1.586 z m -0.35078,-8.5976 c -0.56494,-0.2276 -0.898548,-0.827 -0.898548,-1.6144 0,-1.4018 2.024904,-2.0714 2.899985,-0.9588 0.7269,0.9241 0.499865,1.9848 -0.54381,2.5407 -0.526332,0.2803 -0.826053,0.287 -1.457627,0.032 z m 4.625562,-0.4081 c -0.203851,-0.2253 -0.370636,-0.65 -0.370636,-0.9439 0,-0.2939 0.166785,-0.7186 0.370636,-0.9439 0.357052,-0.3945 0.68039,-0.4094 8.823385,-0.4064 4.649012,0 8.55585,0.072 8.681852,0.1562 0.407279,0.2719 0.734449,1.0947 0.601679,1.5131 -0.334759,1.0547 -0.153792,1.0345 -9.246347,1.0345 -8.177818,0 -8.503564,-0.015 -8.860569,-0.4096 z"
       id="path111855" />
    <path
       style="fill:#ffffff;stroke-width:0.189536"
       d="m 100.29687,200.92269 c -5.400557,-0.2718 -8.858678,-0.7191 -9.567517,-1.2374 -0.801609,-0.5861 0.470251,-1.4661 3.407582,-2.3577 1.042447,-0.3165 2.233779,-0.6784 2.647385,-0.8044 0.64673,-0.197 0.77542,-0.3286 0.91912,-0.9399 0.0923,-0.3927 0.28292,-0.7107 0.42592,-0.7107 0.14234,0 0.35388,-0.1777 0.47009,-0.3948 0.20279,-0.3789 0.22619,-0.3813 0.5814,-0.06 0.20355,0.1843 0.54991,0.6259 0.76966,0.9814 l 0.39954,0.6466 1.72662,-0.1264 c 0.94965,-0.07 1.87589,-0.1687 2.05831,-0.2203 0.30672,-0.087 0.33169,-0.5354 0.33169,-5.9569 0,-3.2246 -0.0554,-5.8629 -0.12326,-5.8629 -0.0678,0 -0.60038,0.2335 -1.18351,0.5188 -0.87279,0.4269 -1.31179,0.518 -2.48286,0.5145 -2.35751,-0.01 -4.295947,-1.1359 -5.413047,-3.1525 -0.508309,-0.9175 -0.55845,-1.1698 -0.55845,-2.8087 0,-1.5057 0.0728,-1.9483 0.444312,-2.7029 0.37678,-0.7651 0.412797,-0.9927 0.236918,-1.4971 -0.75252,-2.1588 0.548331,-4.2502 2.808127,-4.515 0.76707,-0.09 0.88038,-0.1733 1.29096,-0.9514 1.01811,-1.9293 2.40794,-2.8319 4.3709,-2.8388 1.28333,-0.01 2.33682,0.3401 3.02969,0.991 0.37854,0.3555 0.66089,0.4096 2.18225,0.4174 1.94571,0.01 2.6784,0.263 3.72579,1.287 1.28496,1.2564 1.75007,2.9426 1.342,4.8655 l -0.2377,1.1202 0.59706,0.7429 c 1.89855,2.3625 1.74068,5.5493 -0.37285,7.5264 -1.24902,1.1683 -2.05467,1.4959 -3.68593,1.4989 -1.06589,0 -1.51786,-0.096 -2.29874,-0.4984 -0.53459,-0.2754 -1.02501,-0.4477 -1.08984,-0.3829 -0.0648,0.064 -0.11785,2.6624 -0.11785,5.7723 v 5.6546 h 1.97895 c 1.37502,0 2.02575,-0.073 2.13229,-0.2369 0.0843,-0.1303 0.15334,-0.9758 0.15334,-1.879 0,-0.9031 0.0614,-1.7038 0.13638,-1.7791 0.075,-0.075 0.36334,0.3865 0.64076,1.0261 0.27742,0.6397 0.5769,1.1631 0.66552,1.1631 0.0886,0 0.1134,-0.4052 0.055,-0.9004 l -0.10611,-0.9003 0.58091,0.6161 c 0.31949,0.3388 0.66079,0.6159 0.75842,0.6159 0.0976,0 0.27602,-0.2985 0.39644,-0.6633 0.12041,-0.3649 0.28766,-0.6635 0.37167,-0.6635 0.21473,0 0.38084,0.7129 0.38388,1.6473 0.002,0.437 0.0823,0.8437 0.17975,0.9038 0.0974,0.06 0.50001,-0.2766 0.89463,-0.7488 0.39461,-0.4721 0.79701,-0.8318 0.89422,-0.7994 0.0972,0.032 0.35887,0.6089 0.58147,1.2812 l 0.40472,1.2224 1.60387,0.1242 c 0.88213,0.068 2.94991,0.2292 4.59506,0.3573 1.64516,0.1282 3.05247,0.1713 3.12735,0.096 0.0748,-0.075 0.11844,-0.684 0.0967,-1.3524 -0.0225,-0.696 0.0402,-1.215 0.14683,-1.215 0.10242,0 0.41868,0.3915 0.70279,0.87 0.89706,1.511 0.92722,1.5405 1.24235,1.2149 0.15131,-0.1564 0.55009,-1.0519 0.88616,-1.9902 0.33608,-0.9382 0.70128,-1.919 0.81155,-2.1796 l 0.20051,-0.4739 0.13447,0.5686 c 0.074,0.3128 0.14458,1.1324 0.15691,1.8215 0.0323,1.8023 0.22861,3.0117 0.48898,3.0117 0.12403,0 0.42582,-0.2132 0.67066,-0.4739 0.61694,-0.6566 0.94712,-0.6072 0.95027,0.1422 0.005,1.1974 0.18095,1.4451 1.52981,2.1539 1.30239,0.6844 1.71177,1.2009 1.32303,1.6693 -0.42092,0.5072 -3.89791,0.9381 -10.03822,1.2439 -4.39429,0.2189 -21.93661,0.2109 -26.36517,-0.012 z"
       id="path111853" />
    <path
       style="fill:#ffffff;stroke-width:0.264583"
       d="m 185.80449,209.05097 -0.64943,-0.6494 v -13.6501 -13.6501 l 0.64943,-0.6495 c 0.79367,-0.7936 1.69739,-0.8285 2.62218,-0.101 l 0.69714,0.5484 v 13.8522 13.8522 l -0.69714,0.5484 c -0.92479,0.7274 -1.82851,0.6926 -2.62218,-0.1011 z m -11.05947,-6.7136 c -0.24083,-0.2661 -0.43788,-0.7858 -0.43788,-1.1549 0,-0.6287 5.32167,-18.5731 6.24761,-21.0666 0.47521,-1.2798 1.29811,-1.7722 2.31526,-1.3854 0.65792,0.2501 0.96213,0.7679 0.96213,1.6377 0,0.2874 -1.43365,5.2485 -3.18588,11.0248 -2.31608,7.6349 -3.33538,10.6286 -3.73348,10.9652 -0.70806,0.5987 -1.61498,0.59 -2.16776,-0.021 z m 22.6592,0.033 c -0.5483,-0.5483 -7.0651,-21.687 -6.91753,-22.4385 0.0508,-0.2586 0.40544,-0.7037 0.78813,-0.9892 0.81501,-0.6079 1.64834,-0.4496 2.19436,0.4169 0.19939,0.3163 1.81821,5.379 3.59738,11.2503 l 3.23482,10.6751 -0.5217,0.702 c -0.64233,0.8642 -1.72059,1.0383 -2.37546,0.3834 z m -11.60646,-25.4833 c -2.18324,-0.3096 -3.02395,-0.9996 -3.02395,-2.4818 0,-0.427 -0.21565,-0.7808 -0.59532,-0.9765 -1.67554,-0.864 -1.78593,-1.1434 -1.78593,-4.5203 0,-1.7209 0.0527,-3.1289 0.11716,-3.1289 0.0644,0 0.55152,0.2563 1.08239,0.5695 2.76809,1.6332 7.96118,1.6868 11.01672,0.1137 0.67985,-0.35 1.30493,-0.5675 1.38909,-0.4834 0.0841,0.084 0.15298,1.3672 0.15298,2.8513 0,2.9763 -0.29501,3.6843 -1.87547,4.5016 -0.62172,0.3215 -0.77037,0.5721 -0.77037,1.2984 0,0.6543 -0.18796,1.0479 -0.6883,1.4415 -0.61083,0.4805 -1.12454,0.6319 -3.14816,0.9278 -0.29104,0.043 -1.13292,-0.01 -1.87084,-0.1129 z m -1.17187,-10.3363 c -1.66304,-0.2897 -3.67864,-1.2203 -4.07571,-1.8817 -0.48343,-0.8053 0.12272,-1.8745 1.42988,-2.5222 3.49253,-1.7307 10.354,-1.0851 11.79199,1.1096 0.4405,0.6722 0.43767,0.7308 -0.068,1.4138 -1.13694,1.5353 -5.67003,2.4744 -9.07813,1.8805 z"
       id="path111849" />
    <path
       style="fill:#ffffff;stroke-width:0.353166"
       d="m 252.76112,202.76942 c -11.08011,-1.0356 -13.97722,-1.412 -14.74473,-1.9152 l -0.95518,-0.6262 v -10.4278 c 0,-8.467 0.0973,-10.6159 0.51732,-11.4282 0.79107,-1.5297 15.60694,-13.2729 21.8168,-17.2922 4.33455,-2.8053 5.78035,-3.5687 6.75911,-3.5687 1.12692,0 2.00933,0.6977 9.29665,7.3508 l 8.05156,7.3508 0.0991,9.513 c 0.0545,5.2321 0.0163,9.8521 -0.085,10.2671 -0.10109,0.4148 -2.8794,3.3152 -6.17375,6.4452 l -5.98975,5.6912 -2.40141,-0.036 c -1.32077,-0.019 -8.60668,-0.6154 -16.19093,-1.3244 z m 17.49777,-5.8913 c 0,-3.7934 -0.11521,-5.1696 -0.44146,-5.2757 -0.24279,-0.079 -3.91551,-0.4676 -8.16157,-0.863 -6.20144,-0.5775 -7.87614,-0.6338 -8.51333,-0.2865 -1.96478,1.0712 -11.82013,8.245 -11.83109,8.6119 -0.008,0.2619 1.1033,0.502 3.07798,0.6654 1.69962,0.1406 7.61957,0.6897 13.15546,1.2203 5.5359,0.5304 10.66123,0.9859 11.38964,1.0121 l 1.32437,0.048 z m 6.10355,-0.5474 c 1.69334,-1.5698 3.0788,-3.0699 3.0788,-3.3335 0,-0.4942 -1.42328,-0.7801 -4.76777,-0.9583 l -1.76583,-0.093 -0.10067,3.6198 c -0.0554,1.991 0.0292,3.62 0.188,3.62 0.15874,0 1.67409,-1.2843 3.36744,-2.8541 z m -30.11457,-3.8592 5.99951,-4.2598 v -9.3465 c 0,-7.2431 -0.0994,-9.3457 -0.44146,-9.3437 -0.48813,0 -11.02464,8.4103 -12.00766,9.5813 -0.55177,0.6572 -0.61805,1.664 -0.61805,9.3873 0,7.5761 0.0663,8.6257 0.53407,8.4463 0.29376,-0.1115 3.23388,-2.1218 6.53359,-4.4649 z m 35.23138,-9.444 c 0.0711,-5.3214 -0.0106,-7.1517 -0.32194,-7.1517 -0.22967,0 -2.21951,1.3738 -4.4219,3.0531 l -4.00434,3.0531 v 3.6681 c 0,2.6118 0.12707,3.7154 0.44145,3.8318 0.62112,0.2302 6.26321,0.8045 7.32822,0.7458 l 0.88291,-0.049 z m -11.29651,2.492 0.10046,-3.6001 -7.45167,-6.8183 c -4.09842,-3.7501 -7.63995,-6.8184 -7.87009,-6.8184 -0.4794,0 -0.79085,18.4071 -0.32373,19.1326 0.25138,0.3903 12.52137,1.8683 14.56172,1.7538 0.87375,-0.049 0.88394,-0.087 0.98333,-3.6496 z m 6.22088,-9.1398 c 2.2534,-1.712 4.09712,-3.2958 4.09712,-3.5194 0,-0.3783 -12.91022,-12.361 -13.98489,-12.9803 -0.59059,-0.3402 -0.89907,-0.1792 -6.01813,3.1446 -2.23407,1.4505 -4.00324,2.8133 -3.93151,3.0285 0.29507,0.8853 14.59904,13.6861 15.15794,13.5651 0.32028,-0.069 2.42605,-1.5266 4.67947,-3.2385 z"
       id="path111847" />
    <path
       style="fill:#ffffff;stroke-width:0.0726242"
       d="m 311.53237,201.84329 c -0.12047,-0.032 -0.12708,-0.7476 -0.12708,-13.7507 v -13.7173 l 0.24786,-0.046 c 0.37431,-0.07 0.53941,0.015 1.11384,0.571 l 0.52652,0.5102 0.53232,-0.5162 c 0.81081,-0.7861 1.02955,-0.7861 1.84036,0 l 0.53229,0.5162 0.53234,-0.5162 c 0.81079,-0.7861 1.02955,-0.7861 1.84034,0 l 0.53231,0.5162 0.53232,-0.5162 c 0.81079,-0.7861 1.02954,-0.7861 1.84033,0 l 0.53235,0.5162 0.53228,-0.5162 c 0.81124,-0.7866 1.02937,-0.7863 1.84243,0 l 0.53441,0.5182 0.52443,-0.5209 c 0.57271,-0.5688 0.83507,-0.6815 1.21737,-0.5232 0.46363,0.1921 0.43278,-0.7857 0.43278,13.7178 0,10.0932 -0.0204,13.2629 -0.0868,13.4083 -0.18918,0.4151 0.15774,0.3981 -7.91647,0.389 -4.08619,-0.01 -7.48665,-0.023 -7.55655,-0.041 z m 14.08964,-13.095 c 0.0103,-6.4109 0.003,-11.6972 -0.0161,-11.7473 -0.0257,-0.067 -0.0964,-0.053 -0.27284,0.054 -0.45534,0.2777 -0.66389,0.1993 -1.41642,-0.5324 l -0.45196,-0.4394 -0.53424,0.518 c -0.81291,0.7882 -1.03109,0.7884 -1.8423,0 l -0.53231,-0.5162 -0.53232,0.5162 c -0.81079,0.7862 -1.02954,0.7862 -1.84033,0 l -0.53232,-0.5162 -0.53231,0.5162 c -0.81122,0.7866 -1.02937,0.7864 -1.84235,0 l -0.53433,-0.5181 -0.48821,0.4781 c -0.70665,0.6921 -0.92612,0.7707 -1.37961,0.4942 -0.13079,-0.08 -0.25334,-0.145 -0.27234,-0.145 -0.0545,0 -0.0403,23.4277 0.0143,23.4823 0.0269,0.027 2.95997,0.041 6.51806,0.03 l 6.46925,-0.019 z m -2.87279,10.2256 c -0.10057,-0.1006 -0.1261,-4.024 -0.0272,-4.1797 0.0576,-0.091 1.27323,-0.1616 1.35588,-0.079 0.0536,0.053 0.0522,4.1892 0,4.276 -0.0636,0.103 -1.22203,0.088 -1.3272,-0.017 z m -8.69553,-0.074 c -0.0199,-0.052 -0.0276,-1.0254 -0.0169,-2.1634 l 0.0193,-2.0688 h 0.68993 0.68995 v 2.1424 2.1424 l -0.67302,0.021 c -0.5008,0.015 -0.68228,0 -0.70924,-0.074 z m 2.90496,0 c -0.0198,-0.052 -0.0276,-1.0254 -0.0169,-2.1634 l 0.0193,-2.0688 h 0.68992 0.68993 v 2.1424 2.1424 l -0.67299,0.021 c -0.50081,0.015 -0.68228,0 -0.70925,-0.074 z m 2.934,-0.1471 c -0.0148,-0.09 -0.0103,-1.0621 0.01,-2.1605 l 0.0363,-1.9972 0.60619,-0.021 c 0.38446,-0.013 0.64346,0.01 0.7081,0.063 0.0829,0.069 0.10189,0.4543 0.10189,2.0669 0,1.0903 -0.0198,2.034 -0.0441,2.0972 -0.0358,0.093 -0.17045,0.1148 -0.71777,0.1148 -0.64235,0 -0.67492,-0.01 -0.70032,-0.1634 z m -1.46447,-7.0723 c -0.0281,-0.028 -0.051,-0.2064 -0.051,-0.3966 v -0.3457 l -0.41251,-0.1889 c -0.84161,-0.3852 -1.44682,-1.0898 -1.67121,-1.9454 -0.17889,-0.682 -0.15497,-0.7087 0.63577,-0.7087 0.62335,0 0.66518,0.01 0.70482,0.1611 0.023,0.089 0.12681,0.3256 0.23032,0.5266 0.15245,0.296 0.26281,0.4033 0.58139,0.5651 0.49221,0.25 0.84553,0.2542 1.31633,0.015 0.35306,-0.1789 0.64776,-0.5265 0.64831,-0.76479 2.1e-4,-0.077 -0.65706,-0.44331 -1.99953,-1.11631 -2.28304,-1.14429 -2.26288,-1.127 -2.18552,-1.8883 0.0982,-0.966 0.74954,-1.8584 1.67979,-2.3013 l 0.43574,-0.2075 0.0363,-0.3819 0.0363,-0.38189 h 0.68992 0.68993 l 0.0379,0.37689 c 0.0209,0.2072 0.0535,0.3902 0.0726,0.4068 0.019,0.016 0.21595,0.11161 0.43746,0.2114 0.77465,0.3492 1.36239,1.05741 1.56639,1.8875 0.17139,0.6974 0.1583,0.7123 -0.62484,0.7123 -0.64985,0 -0.65839,0 -0.73584,-0.1997 -0.2641,-0.6732 -0.35843,-0.8133 -0.67024,-0.9961 -0.49564,-0.29039 -0.9507,-0.3165 -1.41541,-0.081 -0.36801,0.1865 -0.66437,0.53 -0.66496,0.77091 -1.8e-4,0.073 0.68586,0.45659 2.00028,1.11769 2.28235,1.1479 2.26274,1.131 2.18374,1.88691 -0.10012,0.95789 -0.78248,1.89339 -1.67693,2.29889 l -0.46622,0.2115 -0.022,0.38221 -0.022,0.38239 -0.65715,0.02 c -0.36142,0.011 -0.68006,0 -0.70808,-0.03 z m 21.68789,10.0837 c -1.04701,-0.3752 -1.56154,-1.3425 -1.33315,-2.5063 0.1084,-0.5526 0.5928,-1.5358 1.17657,-2.388 0.36476,-0.5326 0.48342,-0.653 0.71046,-0.7211 0.44704,-0.1339 0.69858,0.037 1.21338,0.8271 0.64161,0.984 0.79645,1.2771 1.01007,1.912 0.3025,0.899 0.17796,1.6896 -0.3684,2.3389 -0.46787,0.556 -1.63208,0.8158 -2.40893,0.5374 z m 1.28868,-1.5352 c 0.15084,-0.1508 0.2118,-0.2822 0.21058,-0.4538 -0.003,-0.4507 -0.53385,-1.5126 -0.75583,-1.5126 -0.14047,0 -0.63267,1.0229 -0.67562,1.4041 -0.0336,0.2977 -0.0145,0.3548 0.18392,0.5533 0.30826,0.3083 0.73403,0.312 1.03695,0.01 z m -12.10191,0.1182 c -0.0209,-0.055 -0.0286,-0.3746 -0.0169,-0.7108 l 0.0214,-0.6112 h 0.68993 0.68993 v 0.6899 0.69 l -0.673,0.021 c -0.51784,0.016 -0.6818,0 -0.71123,-0.079 z m 2.905,0 c -0.0209,-0.055 -0.0286,-0.3746 -0.0169,-0.7108 l 0.0214,-0.6112 h 0.68993 0.68993 v 0.6899 0.69 l -0.673,0.021 c -0.51784,0.016 -0.6818,0 -0.71122,-0.079 z m 2.90496,0 c -0.0209,-0.055 -0.0286,-0.3746 -0.0169,-0.7108 l 0.0214,-0.6112 h 0.68993 0.68992 v 0.6899 0.69 l -0.67299,0.021 c -0.51787,0.016 -0.68183,0 -0.71123,-0.079 z m 3.24414,-5.8171 c -0.37037,-0.2054 -0.36579,-0.1479 -0.36854,-4.6048 -0.003,-4.4217 0,-4.4703 0.3397,-4.6355 0.0714,-0.035 1.15924,-0.08 2.41747,-0.1 l 2.28767,-0.036 0.0374,-1.1983 c 0.0206,-0.6591 0.0654,-1.257 0.0997,-1.3286 0.0343,-0.072 0.18971,-0.1951 0.34542,-0.2745 l 0.2831,-0.1445 -0.0196,-1.3957 -0.0198,-1.3958 h -0.68993 -0.68993 l -0.0363,0.3268 -0.0363,0.3268 h -0.68993 -0.68992 v -1.4162 -1.4161 h 0.68992 0.68993 l 0.0363,0.3268 0.0363,0.3268 h 3.5949 3.59492 l 0.0363,-0.3268 0.0363,-0.3268 h 0.68993 0.68995 v 1.4161 1.4162 h -0.68995 -0.68993 l -0.0363,-0.3268 -0.0363,-0.3268 h -0.68993 -0.68995 l -0.0196,1.3958 -0.0196,1.3957 0.28313,0.1445 c 0.15568,0.079 0.31112,0.203 0.34541,0.2745 0.0343,0.072 0.0792,0.6695 0.0997,1.3286 l 0.0374,1.1983 h 0.68993 0.68992 l 0.0374,-1.1983 c 0.0206,-0.6591 0.0654,-1.2568 0.0996,-1.3281 0.14439,-0.3015 0.39243,-0.3423 2.07804,-0.3423 1.74511,0 1.92662,0.034 2.09198,0.3974 0.0645,0.1416 0.0868,1.4369 0.0868,5.0494 0,3.6126 -0.0222,4.9078 -0.0868,5.0494 -0.16536,0.363 -0.34687,0.3975 -2.09198,0.3975 -1.68561,0 -1.93365,-0.041 -2.07804,-0.3423 -0.0342,-0.071 -0.079,-0.669 -0.0996,-1.3281 l -0.0374,-1.1983 h -3.2318 -3.23181 l -0.0363,1.9246 c -0.0201,1.0584 -0.0648,1.9829 -0.0996,2.0543 -0.15587,0.3197 -0.34427,0.3424 -2.81995,0.3397 -1.8074,0 -2.38557,-0.025 -2.51931,-0.099 z m 3.98634,-3.3121 c 0.0201,-1.0584 0.0647,-1.9826 0.0993,-2.0536 0.14528,-0.2977 0.23624,-0.3053 4.11286,-0.343 l 3.74018,-0.036 v -1.0532 -1.053 h -5.41052 -5.41051 l -0.019,3.1591 c -0.0103,1.7376 -0.003,3.2008 0.0164,3.2516 0.0274,0.071 0.35504,0.088 1.43513,0.073 l 1.3997,-0.02 z m 10.85736,-3.486 v -3.958 h -0.68992 -0.68993 l -0.019,3.8855 c -0.0103,2.1369 -0.003,3.9274 0.0169,3.9789 0.0265,0.069 0.21127,0.088 0.70882,0.073 l 0.673,-0.021 z m -5.80995,-3.268 v -0.69 h -1.41619 -1.41615 l -0.0214,0.6113 c -0.0116,0.3362 -0.004,0.6555 0.0164,0.7096 0.0304,0.079 0.313,0.095 1.43748,0.079 l 1.3997,-0.02 z m -0.72626,-3.6312 v -1.4162 h -0.68993 -0.6899 l -0.0198,1.3412 c -0.0109,0.7377 -0.004,1.3843 0.0169,1.4371 0.0276,0.072 0.20415,0.091 0.7098,0.075 l 0.67299,-0.021 z m -14.13497,10.784 c -0.10512,-0.057 -0.2195,-0.162 -0.25421,-0.2331 -0.0347,-0.071 -0.0794,-1.9758 -0.0994,-4.2326 l -0.0363,-4.1033 -1.1983,-0.037 c -0.65907,-0.02 -1.25671,-0.065 -1.3281,-0.1 -0.15494,-0.074 -0.34229,-0.4142 -0.34229,-0.6212 0,-0.1339 2.78855,-7.1909 3.01649,-7.6339 0.0525,-0.1021 0.18119,-0.2247 0.28591,-0.2723 0.26675,-0.1216 4.02214,-0.1216 4.28889,0 0.20807,0.095 0.39741,0.3993 0.39741,0.6392 0,0.084 -0.35949,0.9914 -0.79886,2.017 -0.43937,1.0257 -0.79886,1.9103 -0.79886,1.966 0,0.066 0.0564,0.09 0.16341,0.068 0.0899,-0.018 0.6231,-0.1263 1.18491,-0.2407 0.90551,-0.1843 1.0482,-0.1969 1.25619,-0.1107 0.24315,0.1007 0.44569,0.397 0.44569,0.652 0,0.1325 -0.8246,2.0625 -3.02779,7.0866 -2.30071,5.2464 -2.20681,5.0466 -2.42387,5.1589 -0.25585,0.1322 -0.48337,0.1312 -0.73094,0 z m 1.37584,-4.7381 c 0.33922,-0.7476 1.68391,-3.8153 1.68391,-3.8415 0,-0.039 0.85061,-1.9707 0.99552,-2.2609 0.0745,-0.1492 0.0933,-0.2637 0.0503,-0.3066 -0.0429,-0.043 -0.45535,0.012 -1.10456,0.1473 -0.56983,0.1186 -1.11982,0.2158 -1.22222,0.2158 -0.25236,0 -0.67998,-0.4317 -0.67998,-0.6864 0,-0.1059 0.39304,-1.1077 0.87345,-2.2261 0.48037,-1.1185 0.85428,-2.0646 0.83089,-2.1024 -0.0235,-0.038 -0.46601,-0.069 -0.98356,-0.069 h -0.94102 l -0.10564,0.236 c -0.42987,0.9604 -2.1421,5.3998 -2.11246,5.477 0.0283,0.074 0.25516,0.097 0.94384,0.097 0.54827,0 0.98195,0.034 1.0971,0.087 0.38484,0.1753 0.3974,0.2713 0.3974,3.0325 0,1.4 0.0271,2.5454 0.0602,2.5454 0.0331,0 0.13062,-0.1552 0.21672,-0.3449 z m -15.60068,-14.8041 c -0.94946,-0.1116 -2.34371,-0.7159 -3.15262,-1.3666 -0.93091,-0.7487 -1.61602,-1.7016 -2.09569,-2.9145 -0.35845,-0.9065 -0.44524,-1.4276 -0.44095,-2.6476 0.004,-1.3031 0.19119,-2.0996 0.74348,-3.1735 0.64751,-1.2592 1.52418,-2.1863 2.67769,-2.8319 3.5248,-1.9729 7.87196,-0.198 9.20549,3.7587 0.84569,2.5092 0.27493,5.2491 -1.48487,7.1284 -1.24862,1.3333 -2.66996,1.996 -4.39949,2.0513 -0.43937,0.014 -0.91326,0.012 -1.05304,-0.01 z m 2.16963,-1.6268 c 0.80201,-0.2551 1.45267,-0.6477 2.04587,-1.2345 2.59421,-2.5664 2.04467,-7.0516 -1.07903,-8.8067 -2.66702,-1.4986 -5.96027,-0.1766 -7.05498,2.8321 -0.46162,1.2686 -0.46037,2.6908 0.004,3.9726 0.4972,1.3742 1.64446,2.5944 2.91169,3.0971 0.95842,0.3802 2.2393,0.4365 3.17301,0.1394 z m -2.16635,-1.3098 c -0.84805,-0.1781 -1.60396,-0.8073 -1.89077,-1.5738 -0.21653,-0.5788 -0.26239,-1.3894 -0.11419,-2.0189 0.21034,-0.8936 0.97255,-2.3313 1.95196,-3.6822 0.49091,-0.677 0.90154,-0.7973 1.34684,-0.3946 0.55462,0.5016 1.71008,2.4225 2.13063,3.542 0.20175,0.5371 0.22844,0.6957 0.23053,1.37 0.003,0.6308 -0.027,0.8378 -0.16761,1.1983 -0.23379,0.5992 -0.82944,1.1923 -1.42089,1.4147 -0.49292,0.1854 -1.52741,0.2577 -2.0665,0.1445 z m 1.62607,-1.5654 c 0.53375,-0.2772 0.74436,-1.019 0.51583,-1.817 -0.20849,-0.7282 -1.15149,-2.425 -1.34778,-2.4252 -0.19913,-2e-4 -1.10705,1.6276 -1.33393,2.3916 -0.28053,0.9447 0.009,1.7493 0.70747,1.9628 0.37206,0.1137 1.13671,0.055 1.45841,-0.1122 z m 14.79175,3.7176 c -0.37719,-0.209 -0.36579,-0.011 -0.36854,-6.4133 -0.003,-4.4785 0.019,-6.0175 0.0842,-6.1603 0.19077,-0.4187 -0.35411,-0.3974 10.15445,-0.3974 6.45046,0 9.71362,0.024 9.80622,0.074 0.0763,0.041 0.1764,0.1446 0.22233,0.2304 0.1178,0.2201 0.0928,12.119 -0.0259,12.3797 -0.18584,0.4079 0.32793,0.3883 -10.09094,0.3855 -7.83579,0 -9.6402,-0.02 -9.78175,-0.099 z m 18.47492,-4.6192 v -3.2318 h -8.67859 -8.67863 l -0.019,3.1591 c -0.0106,1.7376 -0.004,3.2002 0.0161,3.2503 0.0278,0.072 1.80586,0.087 8.69757,0.073 l 8.66264,-0.018 z m -8.64666,0.9952 c -0.0209,-0.055 -0.0286,-0.3746 -0.0169,-0.7108 l 0.0212,-0.6112 h 0.68993 0.68993 v 0.6899 0.6899 l -0.67299,0.021 c -0.51785,0.016 -0.68184,0 -0.71123,-0.079 z m 2.90499,0 c -0.0209,-0.055 -0.0286,-0.3746 -0.0169,-0.7108 l 0.0214,-0.6112 h 0.68993 0.68993 v 0.6899 0.6899 l -0.673,0.021 c -0.51784,0.016 -0.6818,0 -0.71122,-0.079 z m 2.90497,0 c -0.0209,-0.055 -0.0286,-0.3746 -0.0169,-0.7108 l 0.0212,-0.6112 h 0.68996 0.68993 v 0.6899 0.6899 l -0.67303,0.021 c -0.51784,0.016 -0.6818,0 -0.71122,-0.079 z m 2.8367,-6.8051 v -1.0532 h -8.67859 -8.67863 l -0.0204,0.9768 c -0.0111,0.5373 -0.004,1.0195 0.0161,1.0716 0.0297,0.077 1.6297,0.091 8.699,0.076 l 8.66261,-0.018 z m -27.52902,0.2689 c -0.0209,-0.055 -0.0286,-0.3746 -0.0169,-0.7107 l 0.0214,-0.6114 h 0.68993 0.68992 v 0.69 0.69 l -0.67299,0.021 c -0.51787,0.016 -0.68183,0 -0.71123,-0.079 z m 2.90499,0 c -0.0209,-0.055 -0.0286,-0.3746 -0.0169,-0.7107 l 0.0214,-0.6114 h 0.68993 0.68993 v 0.69 0.69 l -0.673,0.021 c -0.51784,0.016 -0.6818,0 -0.71122,-0.079 z m 2.90497,0 c -0.0209,-0.055 -0.0286,-0.3746 -0.0169,-0.7107 l 0.0214,-0.6114 h 0.68993 0.68995 v 0.69 0.69 l -0.67302,0.021 c -0.51784,0.016 -0.68181,0 -0.71123,-0.079 z m -20.07629,-2.4477 c 0,-0.4527 0.0225,-0.8007 0.0498,-0.7733 0.0851,0.085 0.23855,0.5826 0.23855,0.7733 0,0.1907 -0.15348,0.6882 -0.23855,0.7733 -0.0273,0.027 -0.0498,-0.3206 -0.0498,-0.7733 z"
       id="path111841" />
    <path
       style="fill:#ffffff;stroke-width:0.227833"
       d="m 388.35837,181.26639 v -18.2267 h 18.22672 18.22673 v 18.2267 18.2268 h -18.22673 -18.22672 z m 30.87151,4.5669 c 0.75184,-0.2616 1.7771,-0.7074 2.27832,-0.9906 0.87183,-0.4927 0.91133,-0.564 0.91133,-1.6469 v -1.132 h -3.30358 -3.30359 l -0.0683,1.3101 -0.0684,1.3101 h 1.25101 c 1.27608,0 1.82107,0.2798 1.10569,0.5679 -1.26209,0.5081 -7.09059,0.2395 -6.54926,-0.3019 0.0824,-0.082 0.73126,-0.2014 1.44204,-0.2648 1.27598,-0.1137 1.29328,-0.1249 1.36609,-0.8871 0.0405,-0.4246 0.013,-1.0141 -0.0614,-1.3101 l -0.13504,-0.5381 h -4.77367 c -4.73659,0 -4.7839,-0.01 -6.09023,-0.6265 l -1.31654,-0.6266 3.98711,-0.1138 3.98709,-0.114 0.0684,-1.31 0.0683,-1.31 h -5.45499 c -6.02623,0 -5.73159,-0.078 -5.73159,1.4996 0,0.6694 -0.0764,0.7787 -0.5452,0.7787 -0.61794,0 -0.8218,-0.3736 -0.8218,-1.5057 v -0.7849 l -3.36055,0.063 -3.36055,0.063 v 1.2531 c 0,1.2472 0.004,1.2534 0.74046,1.3245 0.87471,0.084 0.97385,0.4309 0.18021,0.6301 -0.70522,0.177 -1.1839,0.7213 -0.89154,1.0136 0.13457,0.1346 0.63741,0.056 1.34594,-0.2109 1.73651,-0.6537 4.31442,-1.0085 6.12827,-0.8433 2.8516,0.2594 5.0155,1.0091 8.22561,2.8498 2.05819,1.1801 4.08233,1.9617 5.97387,2.3064 1.74418,0.318 5.23012,0.085 6.7764,-0.4529 z m 3.18965,-6.6173 v -1.2532 h -5.46801 -5.46801 l -0.0737,0.772 c -0.0405,0.4246 -0.0124,1.016 0.0624,1.3142 l 0.13608,0.5422 5.40567,-0.061 5.40568,-0.061 z m -20.89234,-3.0075 c 0.15036,-0.1503 0.27339,-0.6937 0.27339,-1.2075 0,-0.5138 -0.12303,-1.0571 -0.27339,-1.2075 -0.28893,-0.2889 -9.81089,-0.4111 -10.53008,-0.1351 -0.45442,0.1744 -0.52001,2.4933 -0.0756,2.6727 0.15663,0.063 2.54547,0.123 5.30854,0.1329 3.62456,0.013 5.09987,-0.058 5.29712,-0.2555 z m 12.53085,0 c 0.35412,-0.3541 0.35412,-2.0608 0,-2.415 -0.28893,-0.2889 -9.81088,-0.4111 -10.53007,-0.1351 -0.26504,0.1017 -0.36039,0.4534 -0.36039,1.329 0,0.6549 0.0684,1.2591 0.15189,1.3426 0.28935,0.2895 10.44261,0.1745 10.73857,-0.1215 z m 8.11503,0.1352 c 0.26676,-0.1024 0.36039,-0.4563 0.36039,-1.3627 0,-1.5095 0.0185,-1.5028 -3.87318,-1.4128 l -2.84792,0.067 -0.0706,1.1102 c -0.11343,1.784 -0.19667,1.7377 3.12055,1.7377 1.62269,0 3.11253,-0.062 3.31075,-0.1383 z m -24.74692,-5.5007 -0.0683,-1.3099 h -3.30362 -3.30359 l -0.0713,0.9942 c -0.11973,1.6688 -0.2122,1.6259 3.49303,1.6259 h 3.3221 z m 12.53087,0 -0.0684,-1.3099 -5.21158,-0.061 c -3.65281,-0.043 -5.30531,0.016 -5.52497,0.1988 -0.31824,0.264 -0.44201,2.0502 -0.16148,2.3307 0.0835,0.083 2.60051,0.1519 5.5933,0.1519 h 5.44139 z m 12.46251,-0.057 v -1.2531 l -5.21157,-0.061 c -3.65281,-0.043 -5.30532,0.016 -5.52498,0.1988 -0.32068,0.2661 -0.44109,2.0511 -0.15745,2.3347 0.0857,0.086 2.57198,0.1285 5.52497,0.095 l 5.36903,-0.061 z m -20.75725,-3.0944 c 0.19606,-0.511 0.16516,-1.7508 -0.0522,-2.0932 -0.14155,-0.223 -1.40301,-0.2751 -5.52146,-0.2279 l -5.33799,0.061 -0.0713,0.9943 c -0.12311,1.716 -0.42854,1.6258 5.50783,1.6258 4.65635,0 5.35448,-0.046 5.47516,-0.3604 z m 12.56768,-0.1778 c 0.0743,-0.2959 0.10187,-0.8855 0.0614,-1.3099 l -0.0737,-0.772 h -5.46801 -5.46801 l -0.0713,0.9943 c -0.12311,1.7161 -0.43069,1.6257 5.52786,1.6257 h 5.35692 z m 8.18957,-0.8289 v -1.253 h -3.30358 -3.30359 l -0.0713,0.9943 c -0.12104,1.6876 -0.21211,1.6458 3.42715,1.575 l 3.25139,-0.063 z"
       id="path111843" />
    <path
       style="fill:#ffffff;stroke-width:0.264583"
       d="m 477.09401,201.44919 c -0.3997,-0.2964 -0.45294,-1.2217 -0.51358,-8.9296 l -0.0677,-8.599 -8.57633,-0.07 c -5.79025,-0.047 -8.69112,-0.1651 -8.92969,-0.3631 -0.50845,-0.422 -0.50845,-8.237 0,-8.659 0.23857,-0.198 3.13944,-0.316 8.92969,-0.3631 l 8.57633,-0.07 0.0699,-8.5763 c 0.0472,-5.7903 0.16512,-8.6912 0.36314,-8.9297 0.42195,-0.5085 8.23703,-0.5085 8.65899,0 0.19799,0.2385 0.31596,3.1394 0.36314,8.9297 l 0.0699,8.5763 8.57634,0.07 c 5.79025,0.047 8.69111,0.1651 8.92969,0.3631 0.48627,0.4036 0.50612,7.8588 0.0225,8.5107 -0.29647,0.3997 -1.22177,0.453 -8.92969,0.5136 l -8.59896,0.068 -0.0699,8.5763 c -0.0472,5.7903 -0.16513,8.6912 -0.36312,8.9297 -0.40359,0.4863 -7.85886,0.5061 -8.51074,0.023 z"
       id="path111845" />
    <text
       xml:space="preserve"
       style="font-style:normal;font-weight:normal;font-size:7.05556px;line-height:1.25;font-family:sans-serif;fill:#ffffff;fill-opacity:1;stroke:none;stroke-width:0.264583"
       x="14.05805"
       y="218.48589"
       id="text110188-1-4-9"><tspan
         sodipodi:role="line"
         x="14.05805"
         y="218.48589"
         style="font-size:7.05556px;fill:#ffffff;stroke-width:0.264583"
         id="tspan111890">Przed</tspan><tspan
         sodipodi:role="line"
         x="14.05805"
         y="227.30533"
         style="font-size:7.05556px;fill:#ffffff;stroke-width:0.264583"
         id="tspan6007">Budową</tspan><tspan
         sodipodi:role="line"
         x="14.05805"
         y="236.12479"
         style="font-size:7.05556px;fill:#ffffff;stroke-width:0.264583"
         id="tspan6013" /><tspan
         sodipodi:role="line"
         x="14.05805"
         y="244.94423"
         style="font-size:5.64444px;fill:#ffffff;stroke-width:0.264583"
         id="tspan6023" /></text>
    <text
       xml:space="preserve"
       style="font-style:normal;font-weight:normal;font-size:7.05556px;line-height:1.25;font-family:sans-serif;fill:#ffffff;fill-opacity:1;stroke:none;stroke-width:0.264583"
       x="84.716019"
       y="218.43758"
       id="text110188-1-4-9-0"><tspan
         sodipodi:role="line"
         x="84.716019"
         y="218.43758"
         style="font-size:7.05556px;fill:#ffffff;stroke-width:0.264583"
         id="tspan111971">Przygotowanie</tspan><tspan
         sodipodi:role="line"
         x="84.716019"
         y="227.25702"
         style="font-size:7.05556px;fill:#ffffff;stroke-width:0.264583"
         id="tspan6011">Działki</tspan></text>
    <text
       xml:space="preserve"
       style="font-style:normal;font-weight:normal;font-size:7.05556px;line-height:1.25;font-family:sans-serif;fill:#ffffff;fill-opacity:1;stroke:none;stroke-width:0.264583"
       x="234.37064"
       y="218.4019"
       id="text110188-1-4-9-01"><tspan
         sodipodi:role="line"
         x="234.37064"
         y="218.4019"
         style="font-size:7.05556px;fill:#ffffff;stroke-width:0.264583"
         id="tspan111890-8">Konstrukcja</tspan></text>
    <text
       xml:space="preserve"
       style="font-style:normal;font-weight:normal;font-size:7.05556px;line-height:1.25;font-family:sans-serif;fill:#ffffff;fill-opacity:1;stroke:none;stroke-width:0.264583"
       x="160.46422"
       y="219.08681"
       id="text110188-1-4-9-5"><tspan
         sodipodi:role="line"
         x="160.46422"
         y="219.08681"
         style="font-size:7.05556px;fill:#ffffff;stroke-width:0.264583"
         id="tspan111890-5">Fundamenty</tspan></text>
    <text
       xml:space="preserve"
       style="font-style:normal;font-weight:normal;font-size:7.05556px;line-height:1.25;font-family:sans-serif;fill:#ffffff;fill-opacity:1;stroke:none;stroke-width:0.264583"
       x="309.5029"
       y="215.76497"
       id="text110188-1-4-9-2"><tspan
         sodipodi:role="line"
         x="309.5029"
         y="215.76497"
         style="font-size:7.05556px;fill:#ffffff;stroke-width:0.264583"
         id="tspan111890-7">Instalacje</tspan></text>
    <text
       xml:space="preserve"
       style="font-style:normal;font-weight:normal;font-size:7.05556px;line-height:1.25;font-family:sans-serif;fill:#ffffff;fill-opacity:1;stroke:none;stroke-width:0.264583"
       x="381.02448"
       y="216.29936"
       id="text110188-1-4-9-6"><tspan
         sodipodi:role="line"
         x="381.02448"
         y="216.29936"
         style="font-size:7.05556px;fill:#ffffff;stroke-width:0.264583"
         id="tspan111890-0">Wykończenie</tspan></text>
    <text
       xml:space="preserve"
       style="font-style:normal;font-weight:normal;font-size:7.05556px;line-height:1.25;font-family:sans-serif;fill:#ffffff;fill-opacity:1;stroke:none;stroke-width:0.264583"
       x="469.85141"
       y="216.29936"
       id="text110188-1-4-9-60"><tspan
         sodipodi:role="line"
         x="469.85141"
         y="216.29936"
         style="font-size:7.05556px;fill:#ffffff;stroke-width:0.264583"
         id="tspan111890-82">Dodatki</tspan></text>
    <text
       xml:space="preserve"
       style="font-size:4.9389px;line-height:1.25;font-family:sans-serif;fill:#ffffff;stroke-width:0.264583"
       x="13.642578"
       y="242.05241"
       id="text6041"><tspan
         sodipodi:role="line"
         id="tspan6039"
         x="13.642578"
         y="242.05241"
         style="fill:#ffffff;stroke-width:0.264583">- Ustalenia </tspan><tspan
         sodipodi:role="line"
         x="13.642578"
         y="248.22604"
         style="fill:#ffffff;stroke-width:0.264583"
         id="tspan6043">z Klientem</tspan><tspan
         sodipodi:role="line"
         x="13.642578"
         y="254.39966"
         style="fill:#ffffff;stroke-width:0.264583"
         id="tspan6045"></tspan><tspan
         sodipodi:role="line"
         x="13.642578"
         y="260.57327"
         style="fill:#ffffff;stroke-width:0.264583"
         id="tspan6047">- Pozwolenie</tspan><tspan
         sodipodi:role="line"
         x="13.642578"
         y="266.74689"
         style="fill:#ffffff;stroke-width:0.264583"
         id="tspan6049">na budowę</tspan></text>
    <text
       xml:space="preserve"
       style="font-size:4.9389px;line-height:1.25;font-family:sans-serif;fill:#ffffff;stroke-width:0.264583"
       x="82.406479"
       y="242.06047"
       id="text6041-9"><tspan
         sodipodi:role="line"
         x="82.406479"
         y="242.06047"
         style="fill:#ffffff;stroke-width:0.264583"
         id="tspan6043-1">- Przygotowanie</tspan><tspan
         sodipodi:role="line"
         x="82.406479"
         y="248.2341"
         style="fill:#ffffff;stroke-width:0.264583"
         id="tspan6098">  Przyłączy </tspan><tspan
         sodipodi:role="line"
         x="82.406479"
         y="254.40771"
         style="fill:#ffffff;stroke-width:0.264583"
         id="tspan6135" /><tspan
         sodipodi:role="line"
         x="82.406479"
         y="260.58136"
         style="fill:#ffffff;stroke-width:0.264583"
         id="tspan6137">- Oczyszczenie działki</tspan><tspan
         sodipodi:role="line"
         x="82.406479"
         y="266.75497"
         style="fill:#ffffff;stroke-width:0.264583"
         id="tspan6045-5" /><tspan
         sodipodi:role="line"
         x="82.406479"
         y="272.92859"
         style="fill:#ffffff;stroke-width:0.264583"
         id="tspan6049-2" /></text>
    <text
       xml:space="preserve"
       style="font-size:4.9389px;line-height:1.25;font-family:sans-serif;fill:#ffffff;stroke-width:0.264583"
       x="161.03665"
       y="233.71355"
       id="text6041-9-5"><tspan
         sodipodi:role="line"
         x="161.03665"
         y="233.71355"
         style="fill:#ffffff;stroke-width:0.264583"
         id="tspan6098-0">- Przygotowanie </tspan><tspan
         sodipodi:role="line"
         x="161.03665"
         y="239.88718"
         style="fill:#ffffff;stroke-width:0.264583"
         id="tspan6262">prefabrykatów </tspan><tspan
         sodipodi:role="line"
         x="161.03665"
         y="246.06079"
         style="fill:#ffffff;stroke-width:0.264583"
         id="tspan6264">poza działką</tspan><tspan
         sodipodi:role="line"
         x="161.03665"
         y="252.23442"
         style="fill:#ffffff;stroke-width:0.264583"
         id="tspan6266"></tspan><tspan
         sodipodi:role="line"
         x="161.03665"
         y="258.40802"
         style="fill:#ffffff;stroke-width:0.264583"
         id="tspan6268">- Przywiezienie</tspan><tspan
         sodipodi:role="line"
         x="161.03665"
         y="264.58167"
         style="fill:#ffffff;stroke-width:0.264583"
         id="tspan6270">prefabrykatów</tspan><tspan
         sodipodi:role="line"
         x="161.03665"
         y="270.75528"
         style="fill:#ffffff;stroke-width:0.264583"
         id="tspan6272" /><tspan
         sodipodi:role="line"
         x="161.03665"
         y="276.92889"
         style="fill:#ffffff;stroke-width:0.264583"
         id="tspan6260">- Montaż </tspan><tspan
         sodipodi:role="line"
         x="161.03665"
         y="283.10254"
         style="fill:#ffffff;stroke-width:0.264583"
         id="tspan6133">fundamentów </tspan><tspan
         sodipodi:role="line"
         x="161.03665"
         y="289.27615"
         style="fill:#ffffff;stroke-width:0.264583"
         id="tspan6131">(około 1 dzień)</tspan><tspan
         sodipodi:role="line"
         x="161.03665"
         y="295.44977"
         style="fill:#ffffff;stroke-width:0.264583"
         id="tspan6045-5-2" /><tspan
         sodipodi:role="line"
         x="161.03665"
         y="301.62341"
         style="fill:#ffffff;stroke-width:0.264583"
         id="tspan6049-2-2" /></text>
    <text
       xml:space="preserve"
       style="font-size:4.9389px;line-height:1.25;font-family:sans-serif;fill:#ffffff;stroke-width:0.264583"
       x="232.61108"
       y="238.87636"
       id="text6041-9-5-2"><tspan
         sodipodi:role="line"
         x="232.61108"
         y="238.87636"
         style="fill:#ffffff;stroke-width:0.264583"
         id="tspan6049-2-2-5">- Przygotowanie </tspan><tspan
         sodipodi:role="line"
         x="232.61108"
         y="245.04999"
         style="fill:#ffffff;stroke-width:0.264583"
         id="tspan6183">prefabrykatów </tspan><tspan
         sodipodi:role="line"
         x="232.61108"
         y="251.2236"
         style="fill:#ffffff;stroke-width:0.264583"
         id="tspan6185">poza działką</tspan><tspan
         sodipodi:role="line"
         x="232.61108"
         y="257.39725"
         style="fill:#ffffff;stroke-width:0.264583"
         id="tspan6187" /><tspan
         sodipodi:role="line"
         x="232.61108"
         y="263.57086"
         style="fill:#ffffff;stroke-width:0.264583"
         id="tspan6189">- Przywiezienie</tspan><tspan
         sodipodi:role="line"
         x="232.61108"
         y="269.74448"
         style="fill:#ffffff;stroke-width:0.264583"
         id="tspan6191">prefabrykatów</tspan><tspan
         sodipodi:role="line"
         x="232.61108"
         y="275.91812"
         style="fill:#ffffff;stroke-width:0.264583"
         id="tspan6193" /><tspan
         sodipodi:role="line"
         x="232.61108"
         y="282.09174"
         style="fill:#ffffff;stroke-width:0.264583"
         id="tspan6195">- Montaż </tspan><tspan
         sodipodi:role="line"
         x="232.61108"
         y="288.26535"
         style="fill:#ffffff;stroke-width:0.264583"
         id="tspan6197">konstrukcji</tspan></text>
    <text
       xml:space="preserve"
       style="font-size:4.9389px;line-height:1.25;font-family:sans-serif;fill:#ffffff;stroke-width:0.264583"
       x="301.34451"
       y="237.32397"
       id="text6041-9-5-2-7"><tspan
         sodipodi:role="line"
         x="301.34451"
         y="237.32397"
         style="fill:#ffffff;stroke-width:0.264583"
         id="tspan6185-0">- Montaż elektryki</tspan><tspan
         sodipodi:role="line"
         x="301.34451"
         y="243.4976"
         style="fill:#ffffff;stroke-width:0.264583"
         id="tspan6187-0" /><tspan
         sodipodi:role="line"
         x="301.34451"
         y="249.67122"
         style="fill:#ffffff;stroke-width:0.264583"
         id="tspan6191-6">- Montaż wod/kan</tspan><tspan
         sodipodi:role="line"
         x="301.34451"
         y="255.84486"
         style="fill:#ffffff;stroke-width:0.264583"
         id="tspan6193-2" /><tspan
         sodipodi:role="line"
         x="301.34451"
         y="262.01846"
         style="fill:#ffffff;stroke-width:0.264583"
         id="tspan6197-9">- Montaż c.o.</tspan><tspan
         sodipodi:role="line"
         x="301.34451"
         y="268.19208"
         style="fill:#ffffff;stroke-width:0.264583"
         id="tspan6250" /><tspan
         sodipodi:role="line"
         x="301.34451"
         y="274.36572"
         style="fill:#ffffff;stroke-width:0.264583"
         id="tspan6252">- Montaż paneli</tspan><tspan
         sodipodi:role="line"
         x="301.34451"
         y="280.53934"
         style="fill:#ffffff;stroke-width:0.264583"
         id="tspan6254">  słonecznych</tspan><tspan
         sodipodi:role="line"
         x="301.34451"
         y="286.71295"
         style="fill:#ffffff;stroke-width:0.264583"
         id="tspan6256" /><tspan
         sodipodi:role="line"
         x="301.34451"
         y="292.8866"
         style="fill:#ffffff;stroke-width:0.264583"
         id="tspan6258">- Montaż Rekuperacji</tspan></text>
    <text
       xml:space="preserve"
       style="font-size:4.9389px;line-height:1.25;font-family:sans-serif;fill:#ffffff;stroke-width:0.264583"
       x="375.40665"
       y="235.27068"
       id="text6041-9-5-2-7-0"><tspan
         sodipodi:role="line"
         x="375.40665"
         y="235.27068"
         style="fill:#ffffff;stroke-width:0.264583"
         id="tspan6185-0-7">- Montaż wybranych </tspan><tspan
         sodipodi:role="line"
         x="375.40665"
         y="241.44431"
         style="fill:#ffffff;stroke-width:0.264583"
         id="tspan6354">materiałów </tspan><tspan
         sodipodi:role="line"
         x="375.40665"
         y="247.61792"
         style="fill:#ffffff;stroke-width:0.264583"
         id="tspan6356">wykonczeniowych</tspan><tspan
         sodipodi:role="line"
         x="375.40665"
         y="253.79155"
         style="fill:#ffffff;stroke-width:0.264583"
         id="tspan6187-0-1" /><tspan
         sodipodi:role="line"
         x="375.40665"
         y="259.96518"
         style="fill:#ffffff;stroke-width:0.264583"
         id="tspan6358" /></text>
    <text
       xml:space="preserve"
       style="font-size:4.9389px;line-height:1.25;font-family:sans-serif;fill:#ffffff;stroke-width:0.264583"
       x="448.48727"
       y="235.38097"
       id="text6041-9-5-2-7-0-9"><tspan
         sodipodi:role="line"
         x="448.48727"
         y="235.38097"
         style="fill:#ffffff;stroke-width:0.264583"
         id="tspan6185-0-7-2">- Montaż wybranych </tspan><tspan
         sodipodi:role="line"
         x="448.48727"
         y="241.5546"
         style="fill:#ffffff;stroke-width:0.264583"
         id="tspan6356-9">dodatków</tspan><tspan
         sodipodi:role="line"
         x="448.48727"
         y="247.72821"
         style="fill:#ffffff;stroke-width:0.264583"
         id="tspan6394">np. Sauny, Garażu itp.</tspan><tspan
         sodipodi:role="line"
         x="448.48727"
         y="253.90184"
         style="fill:#ffffff;stroke-width:0.264583"
         id="tspan6187-0-1-3" /><tspan
         sodipodi:role="line"
         x="448.48727"
         y="260.07547"
         style="fill:#ffffff;stroke-width:0.264583"
         id="tspan6358-4" /></text>
  </g>
</svg>
