<?xml version="1.0" encoding="UTF-8" standalone="no"?>
<svg
   xmlns:dc="http://purl.org/dc/elements/1.1/"
   xmlns:cc="http://creativecommons.org/ns#"
   xmlns:rdf="http://www.w3.org/1999/02/22-rdf-syntax-ns#"
   xmlns:svg="http://www.w3.org/2000/svg"
   xmlns="http://www.w3.org/2000/svg"
   xmlns:sodipodi="http://sodipodi.sourceforge.net/DTD/sodipodi-0.dtd"
   xmlns:inkscape="http://www.inkscape.org/namespaces/inkscape"
   width="700"
   height="500"
   viewBox="0 0 185.20833 132.29167"
   version="1.1"
   id="svg8"
   inkscape:version="1.0.1 (3bc2e813f5, 2020-09-07)"
   sodipodi:docname="QHouseStrenght2en.svg">
  <defs
     id="defs2" />
  <sodipodi:namedview
     id="base"
     pagecolor="#ffffff"
     bordercolor="#666666"
     borderopacity="1.0"
     inkscape:pageopacity="0.0"
     inkscape:pageshadow="2"
     inkscape:zoom="0.49497475"
     inkscape:cx="469.67605"
     inkscape:cy="491.90775"
     inkscape:document-units="mm"
     inkscape:current-layer="layer1"
     inkscape:document-rotation="0"
     showgrid="false"
     units="px"
     inkscape:snap-global="true"
     inkscape:window-width="1920"
     inkscape:window-height="1137"
     inkscape:window-x="-8"
     inkscape:window-y="-8"
     inkscape:window-maximized="1" />
  <metadata
     id="metadata5">
    <rdf:RDF>
      <cc:Work
         rdf:about="">
        <dc:format>image/svg+xml</dc:format>
        <dc:type
           rdf:resource="http://purl.org/dc/dcmitype/StillImage" />
        <dc:title></dc:title>
      </cc:Work>
    </rdf:RDF>
  </metadata>
  <g
     inkscape:label="Layer 1"
     inkscape:groupmode="layer"
     id="layer1">
    <rect
       style="fill:#ff6600;stroke:none;stroke-width:2.10748;stroke-miterlimit:4;stroke-dasharray:none;stroke-opacity:1"
       id="rect1065-9-6"
       width="184.31049"
       height="48.33202"
       x="1.0982246"
       y="0.808357" />
    <path
       style="fill:#ffffff;stroke-width:0.197905"
       d="m 146.41558,49.332248 c -0.22476,-0.68724 -0.71496,-2.3466 -1.08939,-3.68744 -0.37442,-1.34084 -0.7169,-2.47407 -0.76112,-2.51827 -0.0442,-0.0442 -1.85637,0.2644 -4.02703,0.68578 -2.17064,0.42138 -3.97567,0.7389 -4.01116,0.70557 -0.0474,-0.0445 8.6038,-13.62164 9.00441,-14.13126 0.14069,-0.17898 0.25782,0.16399 0.63662,1.86403 0.21677,0.97283 0.53021,1.86829 0.69652,1.98988 0.1663,0.12162 1.07185,0.3826 2.01233,0.57996 l 1.70995,0.35885 0.69791,1.10822 c 1.04694,1.66249 1.41092,1.99879 2.16327,1.99879 0.36198,0 0.65817,0.0495 0.65817,0.11017 0,0.093 -7.06256,11.94246 -7.22576,12.12319 -0.0308,0.0342 -0.23995,-0.50018 -0.46472,-1.18743 z m 23.17476,-4.81326 c -1.98546,-3.30887 -3.60994,-6.06481 -3.60994,-6.12436 0,-0.0594 0.30423,-0.10831 0.67605,-0.10831 0.71299,0 1.1161,-0.39676 2.33343,-2.29678 0.49956,-0.77968 0.5894,-0.82692 2.22518,-1.17021 0.93753,-0.19675 1.84068,-0.45721 2.00699,-0.57883 0.1663,-0.1216 0.47973,-1.01706 0.69651,-1.98989 0.3788,-1.70003 0.49592,-2.04301 0.63663,-1.86403 0.40059,0.50963 9.05187,14.08669 9.00441,14.13127 -0.0354,0.0333 -1.84053,-0.2842 -4.01117,-0.70558 -2.17066,-0.42139 -3.97966,-0.73316 -4.02,-0.69281 -0.0402,0.0402 -0.51126,1.60128 -1.04649,3.46876 -0.53522,1.86751 -1.04256,3.5195 -1.12742,3.67112 -0.10516,0.18782 -1.3047,-1.64157 -3.76418,-5.74039 z m -11.13695,-7.05583 -1.45401,-1.02112 -1.87833,0.36934 c -1.26483,0.24868 -1.90123,0.30056 -1.94849,0.15882 -0.0386,-0.11581 -0.50774,-0.83159 -1.04255,-1.59068 l -0.97237,-1.38017 -1.71037,-0.26606 c -1.94899,-0.30319 -1.87433,-0.21972 -2.2619,-2.52888 l -0.24198,-1.44162 -1.51473,-1.01247 c -0.83313,-0.55687 -1.54661,-1.03838 -1.58557,-1.07004 -0.039,-0.0317 0.10788,-0.87041 0.32612,-1.8639 l 0.39693,-1.80639 -1.06147,-1.54092 -1.06147,-1.54095 1.06741,-1.56248 1.06739,-1.56252 -0.37998,-1.58326 c -0.20898,-0.87079 -0.38067,-1.68334 -0.38151,-1.80567 -5.3e-4,-0.12235 0.70128,-0.68386 1.56028,-1.24781 l 1.56184,-1.02538 0.33292,-1.84894 0.3329,-1.8489305 0.92541,-0.13539 c 2.66474,-0.38986 2.64906,-0.3812 3.79174,-2.0955 0.74668,-1.12018 1.14365,-1.54948 1.36861,-1.48 0.17431,0.0539 0.97626,0.23539 1.78215,0.40348 l 1.46525,0.30565 1.43672,-0.99322 c 0.7902,-0.54627 1.54121,-0.99321 1.66891,-0.99321 0.1277,0 0.87869,0.44694 1.6689,0.99321 l 1.43672,0.99322 1.46526,-0.30565 c 0.80588,-0.16809 1.60784,-0.34967 1.78213,-0.40348 0.22497,-0.0694 0.62193,0.35982 1.36863,1.48 1.14268,1.7143 1.12699,1.70564 3.79173,2.0955 l 0.92542,0.13539 0.33291,1.8489305 0.3329,1.84894 1.56183,1.02538 c 0.85902,0.56395 1.56115,1.12546 1.56029,1.24781 -5.3e-4,0.12233 -0.17251,0.93488 -0.38152,1.80567 l -0.37998,1.58326 1.0674,1.56252 1.06741,1.56248 -1.06148,1.54095 -1.06147,1.54092 0.39694,1.80639 c 0.21832,0.99349 0.36507,1.83226 0.32613,1.8639 -0.039,0.0316 -0.75245,0.51317 -1.58556,1.07004 l -1.51475,1.01247 -0.24197,1.44162 c -0.38759,2.30916 -0.31292,2.22569 -2.2619,2.52888 l -1.71039,0.26606 -0.97237,1.38017 c -0.53481,0.75909 -1.00396,1.47489 -1.04255,1.59068 -0.0473,0.14174 -0.68365,0.0898 -1.9485,-0.15882 l -1.87832,-0.36934 -1.454,1.02112 c -0.79972,0.56162 -1.51512,1.0211 -1.58984,1.0211 -0.0747,0 -0.79015,-0.45948 -1.58985,-1.0211 z m 5.8429,-3.9046 c 5.10337,-1.84742 8.59331,-6.41515 8.94715,-11.71028 0.34261,-5.12705 -2.16871,-9.82768 -6.64809,-12.4437705 -3.90484,-2.28056 -9.20541,-2.26943 -13.15872,0.0276 -1.73687,1.0092005 -3.93225,3.1961005 -4.92666,4.9076305 -2.65837,4.57553 -2.19204,10.64294 1.14448,14.89081 1.61495,2.05604 4.41023,3.88607 7.02439,4.59875 1.66148,0.45295 6.04908,0.297 7.61745,-0.27076 z m -6.78084,-1.90625 c -0.68276,-0.1483 -1.86668,-0.60735 -2.63091,-1.02013 -3.61786,-1.95408 -5.74502,-5.50416 -5.78193,-9.64961 -0.0177,-1.98995 0.30898,-3.40486 1.16922,-5.06382 1.28538,-2.47888 3.52933,-4.44327 6.13207,-5.36814 1.46903,-0.522 4.19878,-0.6989905 5.85908,-0.37988 3.8681,0.74345 7.35267,4.0056 8.36508,7.83116 0.40568,1.53289 0.40723,4.41124 0.002,5.93629 -0.72508,2.73702 -3.15266,5.59799 -5.8383,6.88057 -2.35406,1.12423 -4.70126,1.39307 -7.27754,0.83356 z m 3.00717,-6.18035 c 1.10667,-1.17013 3.20804,-3.40808 4.66974,-4.97324 l 2.65761,-2.84575 -1.14192,-1.06289 c -0.62804,-0.58457 -1.22194,-1.06288 -1.31975,-1.06288 -0.0979,0 -1.71593,1.64756 -3.5958,3.66125 -1.87988,2.01369 -3.47639,3.66125 -3.5478,3.66125 -0.0715,0 -0.9205,-0.71443 -1.88686,-1.5876 l -1.75702,-1.58761 -1.13816,1.23725 -1.13817,1.23728 0.54445,0.53906 c 0.69086,0.68403 5.46688,4.88979 5.56683,4.90213 0.0412,0.004 0.98021,-0.94814 2.08685,-2.11825 z"
       id="path1010-1" />
    <text
       xml:space="preserve"
       style="font-size:22.2511px;line-height:1.25;font-family:sans-serif;fill:#ffffff;stroke:#ff6200;stroke-width:1.19202;stroke-opacity:1"
       x="31.876495"
       y="49.694984"
       id="text1120-9"><tspan
         sodipodi:role="line"
         id="tspan1118-7"
         x="31.876495"
         y="49.694984"
         style="font-style:normal;font-variant:normal;font-weight:bold;font-stretch:normal;font-family:sans-serif;-inkscape-font-specification:'sans-serif Bold';fill:#ffffff;stroke:#ff6200;stroke-width:1.19202;stroke-opacity:1">Jakość</tspan></text>
    <path
       style="fill:#080808;stroke-width:0.20773"
       d="m 17.487985,108.53476 0.0555,-5.24519 h 9.763322 9.763318 l 0.0555,5.24519 0.0555,5.24519 h -1.1416 -1.1416 l -0.0565,-3.99881 -0.0564,-3.99881 -2.077299,-0.0607 c -3.30994,-0.0968 -3.012091,-0.50373 -3.012091,4.11542 v 3.94293 h -6.131599 -6.13162 z m 9.87734,-0.3116 -0.0585,-2.44083 h -2.804361 -2.804349 l -0.0585,2.44083 -0.0585,2.44083 h 2.921399 2.92141 z m -11.55293,-9.178302 c 0.0381,-0.10667 1.71125,-1.45515 3.71817,-2.9966 2.0069,-1.54144 3.743071,-2.92645 3.858151,-3.07778 0.202438,-0.26621 0.47447,-0.97013 2.434389,-6.29933 0.504219,-1.37102 0.984211,-2.65635 1.06666,-2.85629 0.104071,-0.2524 0.0535,-0.36352 -0.16547,-0.36352 -0.17344,0 -0.56846,-0.30081 -0.877808,-0.66846 -0.520931,-0.61908 -0.554961,-0.77343 -0.460762,-2.08985 0.0845,-1.1813 0.196059,-1.51991 0.660361,-2.00453 0.47707,-0.49794 0.549259,-0.73128 0.494239,-1.59735 -0.0543,-0.855 -0.134538,-1.02423 -0.510911,-1.07787 -0.51621,-0.0736 -0.521118,-0.0943 -1.03092,-4.3398 l -0.354158,-2.94933 0.552249,-0.72402 c 0.492361,-0.64552 0.552241,-0.90573 0.552241,-2.39973 0,-1.53722 0.0343,-1.6757 0.41546,-1.6757 0.367231,0 0.41553,0.13868 0.416038,1.19445 l 5.29e-4,1.19445 h 1.2459 1.245899 l -9.8e-5,-1.19445 c -8.2e-5,-0.92329 0.0707,-1.19445 0.311499,-1.19445 0.251651,0 0.311589,0.3278 0.311589,1.70388 0,1.62387 0.0302,1.73507 0.643642,2.36795 l 0.643638,0.66407 -0.487839,3.60429 c -0.458311,3.38612 -0.515641,3.60825 -0.947052,3.6696 -0.425238,0.0605 -0.463648,0.19111 -0.519329,1.76571 l -0.0601,1.7004 -0.71981,0.10386 c -0.870789,0.12565 -1.38907,0.88616 -1.17774,1.72817 0.165241,0.6584 0.466342,0.72378 0.651172,0.1414 0.190389,-0.59983 0.898048,-0.53031 1.057209,0.10387 0.158779,0.6326 0.58353,0.65728 1.517099,0.0881 l 0.704721,-0.42964 -0.126461,0.79394 c -0.076,0.47708 -0.336521,0.9765 -0.65279,1.25137 -0.289489,0.25159 -0.526339,0.54554 -0.526339,0.65322 0,0.10768 0.36122,1.11706 0.802691,2.24306 0.441478,1.126 1.254958,3.20065 1.807728,4.61033 l 1.005041,2.56305 3.645189,2.79977 c 2.004861,1.53987 3.676351,2.88705 3.714429,2.99372 0.0424,0.11876 -4.777279,0.19397 -12.429188,0.19397 -7.65191,0 -12.471591,-0.0752 -12.429191,-0.19397 z m 15.54727,-8.68649 c -2.5855,-6.81671 -2.541871,-6.72313 -3.103539,-6.65715 -0.478761,0.0562 -0.64943,0.3935 -1.92338,3.80086 -0.768901,2.05652 -1.401792,3.85791 -1.406419,4.00307 -0.005,0.14516 0.738428,-0.30572 1.651238,-1.00195 l 1.65966,-1.26587 1.8044,1.36547 c 0.992409,0.75101 1.83235,1.36548 1.866521,1.36548 0.0342,0 -0.21264,-0.72446 -0.548481,-1.60991 z m -2.874769,-20.1301 c 0.4314,-0.39041 0.503118,-1.31945 0.130609,-1.69196 -0.41319,-0.41319 -1.35613,-0.29622 -1.712389,0.2124 -0.427371,0.61017 -0.4079,0.9079 0.0921,1.40789 0.505481,0.50548 0.98485,0.52855 1.489691,0.0717 z"
       id="path1478-4" />
    <path
       style="fill:#060606;stroke-width:0.210273"
       d="m 70.98865,108.73325 c -3.064735,-2.55799 -5.600176,-4.73043 -5.634302,-4.82764 -0.03409,-0.0972 1.621774,-1.5937 3.679788,-3.32551 2.058014,-1.731812 4.539414,-3.824382 5.514236,-4.650142 0.974821,-0.82577 1.847901,-1.50139 1.940177,-1.50139 0.09228,0 0.193622,1.67957 0.225205,3.73237 l 0.05738,3.732352 h 10.723954 c 12.264838,0 11.545668,0.10192 13.792862,-1.954802 1.57681,-1.44315 2.33818,-3.10035 2.49417,-5.42879 l 0.11431,-1.7062 1.1565,-0.99125 c 1.69457,-1.45244 1.84796,-1.5103 2.14486,-0.80908 0.13664,0.32269 0.28634,1.55841 0.33269,2.74605 0.0684,1.75392 0.002,2.42849 -0.3512,3.59293 -1.16802,3.845472 -3.86279,6.531822 -8.014004,7.988952 -0.79656,0.27961 -2.642493,0.34996 -11.670188,0.44476 l -10.723954,0.11262 -0.105135,3.74784 -0.105135,3.74783 z M 65.601352,97.028808 c -0.175606,-0.42027 -0.373327,-1.40878 -0.439378,-2.19668 -0.472643,-5.63761 3.919273,-11.18106 9.628823,-12.15344 0.887807,-0.1512 4.939898,-0.23571 11.302201,-0.23571 h 9.918215 v -3.66737 c 0,-2.01706 0.071,-3.71024 0.1577,-3.76261 0.15991,-0.0966 11.379567,9.10655 11.397567,9.34904 0.02,0.26902 -11.150997,9.45048 -11.349217,9.32797 -0.12146,-0.0751 -0.20605,-1.59273 -0.20605,-3.69691 v -3.56957 l -10.671394,0.0599 -10.671379,0.0599 -1.156507,0.56623 c -1.532286,0.75021 -2.555922,1.69456 -3.43857,3.17225 -0.767873,1.28551 -1.276217,3.40151 -1.077293,4.48425 0.100756,0.54846 -0.03362,0.7285 -1.35682,1.81782 -0.80776,0.665 -1.524897,1.20908 -1.593641,1.20908 -0.06874,0 -0.268661,-0.34386 -0.444257,-0.76414 z"
       id="path1559" />
    <path
       style="fill:#1f1f1f;stroke-width:0.209718"
       d="m 128.92867,92.447788 0.0534,-21.65338 25.66794,-0.0533 c 18.79438,-0.039 25.74418,0.01 25.95259,0.18297 0.23627,0.19608 0.28465,3.82886 0.28465,21.37491 0,11.626262 -0.0573,21.287952 -0.1273,21.470402 -0.11513,0.30002 -2.60147,0.33173 -26.006,0.33173 h -25.8787 z m 25.48272,0 0.0534,-20.91936 h -12.47922 -12.47923 v 20.83198 c 0,11.457592 0.0636,20.895642 0.14147,20.973442 0.0778,0.0778 5.66941,0.11714 12.42579,0.0874 l 12.28431,-0.0541 z m -23.29531,19.418242 c -0.0779,-0.0779 -0.14168,-8.85545 -0.14168,-19.505622 v -19.36395 h 11.01128 11.01127 l -0.0535,19.45133 -0.0535,19.451332 -10.81607,0.0543 c -5.94885,0.0299 -10.87984,-0.009 -10.95776,-0.0874 z m 21.24954,-19.470682 v -18.76974 h -10.38103 -10.38104 v 18.76974 18.769762 h 10.38104 10.38103 z m -4.26426,2.27195 c -0.0769,-0.0769 -0.13981,-0.31283 -0.13981,-0.5243 0,-0.24466 -0.15252,-0.38447 -0.41943,-0.38447 -0.37643,0 -0.41944,-0.13982 -0.41944,-1.36318 0,-1.22335 0.043,-1.36316 0.41944,-1.36316 0.27537,0 0.41943,-0.13981 0.41943,-0.40706 0,-0.80388 0.48735,-0.7243 1.30806,0.21359 1.3063,1.49284 1.30448,1.47653 0.31242,2.78581 -0.84858,1.11993 -1.17419,1.34925 -1.48067,1.04277 z m 31.94702,-2.16708 v -20.97179 h -12.4782 -12.47822 v 20.83198 c 0,11.457592 0.0629,20.894892 0.13981,20.971782 0.0769,0.0769 5.69209,0.13982 12.47822,0.13982 h 12.33839 z m -23.34672,19.365812 c -0.0779,-0.0779 -0.14168,-8.85545 -0.14168,-19.505622 v -19.36395 h 11.01128 11.01127 l -0.0535,19.45133 -0.0535,19.451332 -10.81609,0.0543 c -5.94884,0.0299 -10.87983,-0.009 -10.95776,-0.0874 z m 21.24955,-19.470682 v -18.76974 h -10.27618 -10.27618 v 18.76974 18.769762 h 10.27618 10.27618 z m -17.91968,1.2387 -0.95557,-1.17306 0.40444,-0.55711 c 1.37622,-1.89577 2.11281,-2.34667 2.11281,-1.29333 0,0.24734 0.17449,0.41725 0.47187,0.45949 0.41807,0.0594 0.47904,0.20462 0.53479,1.27409 0.0587,1.12691 0.0274,1.22057 -0.47186,1.4104 -0.33022,0.12555 -0.5348,0.36577 -0.5348,0.62796 0,0.73869 -0.57459,0.46331 -1.56168,-0.74844 z"
       id="path1575" />
    <text
       xml:space="preserve"
       style="font-size:4.9389px;line-height:1.25;font-family:sans-serif;stroke-width:0.264583"
       x="10.33939"
       y="120.11324"
       id="text1858-00"><tspan
         sodipodi:role="line"
         id="tspan1856-7"
         x="10.33939"
         y="120.11324"
         style="stroke-width:0.264583">Prefabrykacja</tspan></text>
    <text
       xml:space="preserve"
       style="font-size:4.9389px;line-height:1.25;font-family:sans-serif;stroke-width:0.264583"
       x="72.355972"
       y="119.87218"
       id="text1858-3-5"><tspan
         sodipodi:role="line"
         id="tspan1856-4-4"
         x="72.355972"
         y="119.87218"
         style="stroke-width:0.264583">Powtarzalność</tspan></text>
    <text
       xml:space="preserve"
       style="font-size:4.9389px;line-height:1.25;font-family:sans-serif;stroke-width:0.264583"
       x="140.5097"
       y="120.67399"
       id="text1858-0-6"><tspan
         sodipodi:role="line"
         x="140.5097"
         y="120.67399"
         style="stroke-width:0.264583"
         id="tspan1886-6">Alluminiowe</tspan><tspan
         sodipodi:role="line"
         x="140.5097"
         y="126.84761"
         style="stroke-width:0.264583"
         id="tspan1923">Okna</tspan></text>
  </g>
</svg>
