<?xml version="1.0" encoding="UTF-8" standalone="no"?>
<svg
   xmlns:dc="http://purl.org/dc/elements/1.1/"
   xmlns:cc="http://creativecommons.org/ns#"
   xmlns:rdf="http://www.w3.org/1999/02/22-rdf-syntax-ns#"
   xmlns:svg="http://www.w3.org/2000/svg"
   xmlns="http://www.w3.org/2000/svg"
   xmlns:sodipodi="http://sodipodi.sourceforge.net/DTD/sodipodi-0.dtd"
   xmlns:inkscape="http://www.inkscape.org/namespaces/inkscape"
   width="210mm"
   height="180mm"
   viewBox="0 0 210 180"
   version="1.1"
   id="svg8"
   inkscape:version="1.0.2 (e86c8708, 2021-01-15)"
   sodipodi:docname="QHouse70BAxoCalosc.svg">
  <defs
     id="defs2" />
  <sodipodi:namedview
     id="base"
     pagecolor="#ffffff"
     bordercolor="#666666"
     borderopacity="1.0"
     inkscape:pageopacity="0.0"
     inkscape:pageshadow="2"
     inkscape:zoom="0.39254674"
     inkscape:cx="177.50407"
     inkscape:cy="347.99992"
     inkscape:document-units="mm"
     inkscape:current-layer="layer1"
     inkscape:document-rotation="0"
     showgrid="false"
     inkscape:window-width="1440"
     inkscape:window-height="785"
     inkscape:window-x="0"
     inkscape:window-y="25"
     inkscape:window-maximized="1" />
  <metadata
     id="metadata5">
    <rdf:RDF>
      <cc:Work
         rdf:about="">
        <dc:format>image/svg+xml</dc:format>
        <dc:type
           rdf:resource="http://purl.org/dc/dcmitype/StillImage" />
        <dc:title></dc:title>
      </cc:Work>
    </rdf:RDF>
  </metadata>
  <g
     inkscape:label="Layer 1"
     inkscape:groupmode="layer"
     id="layer1">
    <path
       style="fill:#000000;stroke-width:0.1548"
       d="m 22.276441,161.18438 -0.03839,-10.12232 -10.350793,-1.68255 -10.350791,-1.68255 -0.044948,-1.37668 c -0.032159,-0.98498 0.012634,-1.41974 0.1574292,-1.52802 0.1113076,-0.0832 3.5849251,-1.37174 7.7191498,-2.86335 l 7.516771,-2.71202 0.03983,-24.71652 0.03983,-24.716509 15.11128,-7.528874 c 8.311204,-4.140879 15.236312,-7.528873 15.389131,-7.528873 0.152816,0 1.92476,-0.826172 3.93765,-1.835939 l 3.659802,-1.835941 48.460758,-16.125459 c 26.65342,-8.869003 48.55771,-16.12546 48.67619,-16.12546 0.1185,0 0.41334,0.164583 0.65521,0.365741 0.41075,0.341609 0.46939,0.350926 0.88884,0.141202 0.247,-0.123497 0.5397,-0.190917 0.65047,-0.149822 0.11075,0.04109 0.42808,-0.05859 0.70517,-0.221516 0.27709,-0.162928 0.6937,-0.317772 0.92578,-0.344097 0.23208,-0.02632 0.6588,-0.166477 0.94824,-0.311448 0.28945,-0.144971 0.5639,-0.22722 0.60987,-0.182774 0.046,0.04445 0.35535,-0.05325 0.68752,-0.217099 0.33218,-0.16385 0.71587,-0.297909 0.85264,-0.297909 0.13677,0 0.52772,-0.137638 0.86876,-0.305861 l 0.62008,-0.30586 14.95914,12.338303 c 8.22753,6.786067 14.95914,12.365272 14.95914,12.398234 0,0.374825 -2.6827,-1.754532 -15.0695,-11.961195 -7.94666,-6.548019 -14.60064,-12.037439 -14.78663,-12.198711 -0.31783,-0.275615 -0.36756,-0.278514 -0.82806,-0.04827 l -0.4899,0.244954 14.50163,11.960992 c 13.88786,11.45473 14.53261,11.964683 15.23284,12.048213 0.40215,0.04797 0.96143,0.08362 1.24284,0.07922 l 0.51164,-0.008 v 21.335731 21.335737 l 6.88753,1.11394 c 3.78814,0.61266 7.29487,1.18173 7.79274,1.2646 l 0.90522,0.15066 v 0.79968 c 0,0.43982 -0.0436,1.10756 -0.097,1.48386 l -0.097,0.68419 -4.35039,1.31971 c -2.3927,0.72584 -5.79372,1.75798 -7.55781,2.29365 -1.76409,0.53567 -3.14553,0.91866 -3.06987,0.8511 0.0757,-0.0676 2.3337,-0.78651 5.01787,-1.59766 2.68417,-0.81114 5.99112,-1.81509 7.34881,-2.231 l 2.46849,-0.7562 0.0504,-1.33649 0.0504,-1.33649 -1.41687,0.42581 c -0.77927,0.2342 -5.45492,1.65337 -10.39032,3.15373 l -8.97347,2.72791 -0.0455,1.30929 c -0.025,0.72011 0.0104,1.30908 0.0787,1.30881 0.10681,-4.6e-4 4.73267,-1.38036 5.39807,-1.61031 0.14995,-0.0518 0.17868,-0.0305 0.0787,0.0584 -0.0866,0.077 -1.37948,0.5056 -2.87309,0.95241 l -2.71565,0.8124 v 26.05592 26.05593 l -4.25558,1.40936 c -2.34058,0.77514 -4.2827,1.38299 -4.31584,1.35076 -0.0331,-0.0322 1.79332,-0.67279 4.05879,-1.42347 2.26549,-0.75069 4.01279,-1.38446 3.88291,-1.40837 -0.12988,-0.0239 -14.89632,-2.43376 -32.81432,-5.3552 l -32.57816,-5.31172 -4.10262,1.36191 c -2.25645,0.74905 -4.03187,1.30013 -3.9454,1.22462 0.0865,-0.0755 1.91004,-0.71244 4.05237,-1.4154 l 3.89516,-1.27812 0.001,-9.09486 c 6.3e-4,-5.00217 -0.0289,-9.09486 -0.0658,-9.09486 -0.0369,0 -6.89093,2.27188 -15.23127,5.04862 -8.340344,2.77674 -15.288763,5.04135 -15.440933,5.03247 -0.261543,-0.0153 -0.276427,0.57548 -0.272189,10.80394 0.0025,5.95105 -0.03243,10.85577 -0.07754,10.89939 -0.04516,0.0436 -0.08207,-0.37733 -0.08207,-0.93545 0,-0.80054 -0.04985,-1.01477 -0.236144,-1.01477 -0.129879,0 -0.236144,-0.0663 -0.236144,-0.14744 0,-0.0811 0.106265,-0.10801 0.236144,-0.0598 0.208403,0.0773 0.236144,-1.0667 0.236144,-9.73836 v -9.82597 l -0.890506,0.29623 c -0.489778,0.16293 -1.087019,0.29623 -1.327199,0.29623 -0.327804,0 -0.449237,0.0824 -0.486999,0.33057 -0.08248,0.54195 -1.197227,0.81704 -2.563631,0.63263 l -1.107547,-0.14948 -5.402751,1.95248 c -2.971514,1.07386 -5.486445,1.95053 -5.588736,1.94815 -0.240514,-0.006 16.06019,-5.91872 16.580223,-6.01452 0.256705,-0.0473 0.201959,0.003 -0.157429,0.14561 -0.425313,0.16836 -0.473138,0.22075 -0.209663,0.22969 0.187737,0.006 0.453687,0.0533 0.591002,0.10421 0.227206,0.0843 0.246063,-1.54075 0.209662,-18.06782 l -0.04,-18.16046 -0.983933,-0.17204 -0.983932,-0.17205 -0.0017,16.29913 c -9.44e-4,8.96452 -0.05409,16.57311 -0.118072,16.90799 -0.06399,0.33487 -0.152084,-10.38489 -0.195772,-23.82169 l -0.07944,-24.430554 -0.03864,24.383514 c -0.02165,13.66564 0.02143,24.4194 0.09801,24.46517 0.07515,0.0449 0.583321,-0.0876 1.129258,-0.29447 0.545938,-0.20686 1.019828,-0.3498 1.053088,-0.31764 0.07288,0.0705 0.347796,-0.0306 -13.535822,4.97648 l -11.138115,4.01694 v 1.32953 1.32952 l 1.259433,-0.45281 c 0.692689,-0.24905 1.826179,-0.65831 2.518867,-0.90947 3.212259,-1.1647 3.846231,-1.37902 3.699586,-1.25072 -0.08659,0.0758 -1.807175,0.73118 -3.823531,1.4565 l -3.666103,1.31875 -3.339496,-0.5364 c -1.836723,-0.29502 -3.533638,-0.57484 -3.770922,-0.62182 l -0.431425,-0.0854 -0.0424,7.43226 -0.04239,7.43227 -0.03783,-7.41759 -0.03782,-7.4176 -0.354215,-0.0792 c -0.479879,-0.10733 -32.068286,-5.25411 -32.247136,-5.25411 -0.0821,0 -0.159176,4.24053 -0.183295,10.08426 l -0.04162,10.08426 z M 185.17761,142.37554 v -25.96296 l -0.35422,0.0993 c -0.19481,0.0546 -0.8324,0.24395 -1.41686,0.42076 -1.06227,0.32136 -1.06264,0.32168 -1.06264,0.88857 0,0.52148 -0.0475,0.58173 -0.59036,0.74909 -0.3247,0.10009 -0.80289,0.27543 -1.06265,0.38964 -0.25976,0.1142 -1.21614,0.43567 -2.1253,0.71438 -0.90915,0.2787 -14.60014,4.81323 -30.4244,10.07674 l -28.7714,9.57001 0.0406,9.13207 0.0406,9.13208 32.74527,5.35947 c 18.0099,2.94772 32.7984,5.36721 32.86334,5.37665 0.0649,0.009 0.11807,-11.66616 0.11807,-25.94578 z m -55.76929,12.77163 c 0.10823,-0.0422 0.28534,-0.0422 0.39357,0 0.10824,0.0422 0.0197,0.0768 -0.19678,0.0768 -0.21647,0 -0.30502,-0.0345 -0.19679,-0.0768 z m 6.76946,-0.30443 c 0.10823,-0.0422 0.28534,-0.0422 0.39357,0 0.10823,0.0422 0.0197,0.0768 -0.19679,0.0768 -0.21646,0 -0.30502,-0.0345 -0.19678,-0.0768 z m -5.65761,-0.91646 c 0.11364,-0.044 0.24942,-0.0386 0.30174,0.012 0.0523,0.0506 -0.0407,0.0866 -0.20663,0.0799 -0.1834,-0.007 -0.2207,-0.0434 -0.0951,-0.092 z m 26.92039,-6.08861 c 0.11364,-0.044 0.24943,-0.0386 0.30174,0.012 0.0523,0.0506 -0.0407,0.0866 -0.20663,0.0799 -0.1834,-0.007 -0.2207,-0.0434 -0.0951,-0.092 z m 15.74291,-7.15412 c 0.11365,-0.044 0.24944,-0.0386 0.30175,0.012 0.0523,0.0506 -0.0407,0.0866 -0.20663,0.0799 -0.1834,-0.007 -0.2207,-0.0434 -0.0951,-0.092 z m 6.76946,-0.30443 c 0.11365,-0.044 0.24943,-0.0386 0.30174,0.012 0.0523,0.0506 -0.0407,0.0866 -0.20662,0.0799 -0.18341,-0.007 -0.2207,-0.0434 -0.0951,-0.092 z m -5.71553,-0.95978 c -0.0552,-0.0863 0.008,-0.1118 0.14814,-0.0598 0.27273,0.10119 0.32262,0.21029 0.0962,0.21029 -0.0815,0 -0.19141,-0.0677 -0.24431,-0.15047 z M 62.697705,156.33726 v -1.19396 l -3.607901,-0.59135 c -1.984344,-0.32524 -3.574635,-0.64338 -3.533979,-0.70699 0.04066,-0.0636 -0.03429,-0.0755 -0.166549,-0.0264 -0.323273,0.11994 -9.226418,-1.33202 -9.126469,-1.48838 0.04324,-0.0677 -0.03076,-0.0824 -0.164443,-0.0328 -0.303297,0.11253 -13.945891,-2.09533 -13.852271,-2.24179 0.03752,-0.0587 -0.05807,-0.0748 -0.212407,-0.0358 -0.468397,0.11844 -22.8953037,-3.59333 -23.3217643,-3.85986 -0.2413757,-0.15086 -0.7753537,-0.24463 -1.4561288,-0.2557 -0.5912405,-0.01 -1.0750237,-0.064 -1.0750738,-0.12085 -1.554e-4,-0.17629 -1.6733212,-0.44938 -2.1075868,-0.344 -0.2375326,0.0576 -0.4113713,0.0357 -0.4113713,-0.052 0,-0.0835 -0.2656617,-0.19599 -0.5903594,-0.25003 -0.3246977,-0.054 -0.7757941,-0.13361 -1.0024365,-0.17682 l -0.412077,-0.0786 -0.027257,1.33954 -0.027257,1.33955 30.4295939,4.97185 c 16.736276,2.73452 30.482725,4.97779 30.547664,4.98505 0.06494,0.007 0.118072,-0.52408 0.118072,-1.18075 z m 8.089184,-4.47574 c 7.586386,-2.74784 8.53948,-3.15879 7.326,-3.15879 -0.167927,0 -0.319139,0.11825 -0.340631,0.26637 -0.02126,0.14651 -0.07492,-10.89861 -0.119251,-24.54471 l -0.08061,-24.811082 0.0011,24.863462 0.0013,24.86346 -1.102004,-0.0929 -1.102005,-0.093 -7.288031,2.64762 c -4.008418,1.45619 -7.319793,2.67832 -7.358612,2.71585 -0.03882,0.0375 0.159122,0.0454 0.439864,0.0175 0.417323,-0.0415 0.453002,-0.0245 0.195582,0.093 -0.227685,0.10397 -0.09693,0.12459 0.472288,0.0745 0.61051,-0.0537 0.716491,-0.0338 0.472287,0.0888 l -0.314858,0.15812 0.314858,-0.0649 c 0.173172,-0.0357 3.990413,-1.39622 8.482757,-3.02337 z m -2.775949,-0.24084 7.438529,-2.68323 v -0.51059 c 0,-0.28082 -0.06276,-0.48775 -0.139474,-0.45984 -0.07671,0.0279 -3.826945,1.38281 -8.333851,3.0109 -4.506908,1.62809 -8.162359,3.01025 -8.123223,3.07147 0.03913,0.0612 -0.05387,0.13886 -0.206683,0.17251 -0.15281,0.0336 0.07638,0.0398 0.50931,0.0136 0.633398,-0.0383 0.710272,-0.0194 0.393573,0.0966 -0.305226,0.11176 -0.234549,0.12477 0.314859,0.058 0.389637,-0.0474 4.055769,-1.29359 8.14696,-2.76937 z m -9.949524,2.43134 c 0.08226,-0.0717 4.028219,-1.52724 8.768805,-3.23443 l 8.619248,-3.10398 v -0.51113 c 0,-0.3461 -0.06353,-0.4877 -0.196786,-0.43859 -0.108233,0.0399 -4.44414,1.60552 -9.635347,3.47918 l -9.438561,3.40665 0.937385,0.16571 c 0.708329,0.12521 0.841212,0.18524 0.543811,0.24564 -0.318989,0.0648 -0.332415,0.0839 -0.07084,0.10068 0.177501,0.0114 0.390031,-0.038 0.472288,-0.10973 z m -1.149233,-0.12257 c -0.108233,-0.0422 -0.285341,-0.0422 -0.393573,0 -0.108233,0.0422 -0.01968,0.0768 0.196786,0.0768 0.216465,0 0.305019,-0.0345 0.196787,-0.0768 z m 8.735652,-3.91026 9.798301,-3.52358 0.0017,-0.51099 c 0.0011,-0.34537 -0.06211,-0.48814 -0.195119,-0.44049 -11.116281,3.98197 -21.169312,7.67117 -21.11888,7.75007 0.03662,0.0573 -0.05826,0.13609 -0.210848,0.17513 -0.152585,0.039 0.07679,0.043 0.509718,0.009 0.596726,-0.0472 0.710979,-0.0256 0.472288,0.0892 -0.240115,0.11546 -0.165369,0.13053 0.314858,0.0635 0.346344,-0.0484 5.038952,-1.67355 10.428016,-3.61152 z m -12.309295,3.27495 c 0.08226,-0.07 5.089591,-1.90229 11.12741,-4.07176 8.772513,-3.15209 10.978421,-3.99801 10.980685,-4.21087 0.0018,-0.16884 -0.126862,-0.27486 -0.351382,-0.28955 -0.194818,-0.0127 -0.462139,-0.0299 -0.594048,-0.038 -0.131908,-0.008 -5.36444,1.83453 -11.62785,4.09493 -8.106548,2.92556 -11.258241,4.12596 -10.93764,4.16587 0.400788,0.0499 0.415709,0.0698 0.13552,0.18067 -0.197991,0.0784 -0.02269,0.0989 0.472288,0.0553 0.570901,-0.0503 0.700648,-0.0297 0.472287,0.075 -0.228376,0.10466 -0.247834,0.14723 -0.07084,0.15499 0.134209,0.006 0.311316,-0.0466 0.393573,-0.11656 z m 9.044307,-4.55013 c 6.190902,-2.22481 11.315781,-4.09576 11.388621,-4.15766 0.07284,-0.0619 -0.295958,-0.16061 -0.819545,-0.21936 l -0.951979,-0.10683 -11.326043,4.08592 c -6.229323,2.24726 -11.296871,4.13211 -11.261218,4.18856 0.03565,0.0565 -0.06002,0.13458 -0.212604,0.17361 -0.152585,0.039 0.07679,0.043 0.509718,0.009 0.596726,-0.0472 0.710979,-0.0256 0.472288,0.0892 -0.241385,0.11607 -0.167909,0.13175 0.314858,0.0672 0.346345,-0.0463 5.695001,-1.90453 11.885904,-4.12934 z m -13.494014,3.70878 c 0.191772,-0.11415 5.369235,-2.01494 11.505474,-4.22398 6.136238,-2.20904 11.05661,-4.03588 10.934159,-4.05965 -0.12245,-0.0238 -1.34212,0.36536 -2.710377,0.86474 -2.436802,0.88938 -2.929229,0.9761 -2.929229,0.51584 0,-0.12557 -0.08855,-0.19711 -0.196787,-0.15897 -5.489707,1.93454 -18.66019,6.74367 -18.77343,6.855 -0.10578,0.104 -0.09197,0.119 0.0421,0.0457 0.109739,-0.06 0.605641,-0.058 1.102004,0.004 0.733267,0.0921 0.828684,0.13408 0.508902,0.22377 -0.263081,0.0738 -0.300392,0.11542 -0.112533,0.12556 0.154572,0.008 0.437944,-0.0782 0.629717,-0.19237 z m -1.264972,-0.0455 c -0.108233,-0.0422 -0.285341,-0.0422 -0.393573,0 -0.108233,0.0422 -0.01968,0.0768 0.196786,0.0768 0.216465,0 0.305019,-0.0345 0.196787,-0.0768 z m 8.418965,-3.82365 9.639042,-3.45798 0.0035,-0.51099 c 0.0023,-0.34396 -0.06082,-0.48914 -0.19329,-0.44416 -3.711731,1.26029 -20.708545,7.5046 -20.655058,7.58828 0.04172,0.0653 -0.04916,0.14622 -0.201974,0.17987 -0.15281,0.0336 0.07638,0.0398 0.50931,0.0136 0.63867,-0.0386 0.712909,-0.02 0.393573,0.0986 -0.325297,0.12082 -0.284333,0.1327 0.236144,0.0685 0.346344,-0.0428 4.967286,-1.63383 10.268758,-3.53572 z m -11.958986,3.15352 c 0.150352,-0.0891 5.055277,-1.88905 10.899835,-3.9998 9.424941,-3.4038 10.632169,-3.87606 10.676869,-4.17674 0.03064,-0.20608 -0.04992,-0.37623 -0.205427,-0.43393 -0.256029,-0.095 -23.152424,8.0655 -23.45935,8.36114 -0.104758,0.10091 -0.09067,0.11515 0.0421,0.0426 0.109739,-0.06 0.605641,-0.058 1.102004,0.004 0.733268,0.0921 0.828684,0.13408 0.508903,0.22377 -0.256687,0.072 -0.297009,0.11567 -0.115936,0.12556 0.1527,0.008 0.400651,-0.0578 0.551002,-0.1469 z m -1.182855,-0.0909 c -0.108232,-0.0422 -0.28534,-0.0422 -0.393573,0 -0.108232,0.0422 -0.01968,0.0768 0.196787,0.0768 0.216465,0 0.305019,-0.0346 0.196786,-0.0768 z m 9.799967,-4.31712 c 5.974437,-2.15623 11.110565,-4.02117 11.413616,-4.14432 l 0.551002,-0.2239 -1.02329,-0.11045 -1.023289,-0.11045 -11.2882,4.0729 c -6.208512,2.2401 -11.255217,4.12451 -11.214903,4.18758 0.04031,0.0631 -0.05154,0.14661 -0.20413,0.18564 -0.152585,0.039 0.07679,0.043 0.509718,0.009 0.596725,-0.0472 0.710978,-0.0256 0.472287,0.0892 -0.238327,0.11461 -0.161796,0.12881 0.314858,0.0585 0.346345,-0.0511 5.517893,-1.85714 11.492331,-4.01337 z m -13.056835,3.52902 c 0.340962,-0.15403 5.554327,-2.05482 11.585256,-4.22397 6.03093,-2.16916 10.949124,-3.96057 10.929321,-3.9809 -0.0198,-0.0203 -0.420155,-0.10742 -0.889671,-0.19352 l -0.853665,-0.15653 -11.492519,4.15111 c -8.441279,3.049 -11.367127,4.16599 -11.02023,4.20717 0.414032,0.0491 0.433451,0.0714 0.157429,0.18068 -0.197991,0.0784 -0.02269,0.0989 0.472287,0.0553 0.570902,-0.0503 0.700648,-0.0297 0.472288,0.075 -0.173172,0.0794 -0.23961,0.14911 -0.147642,0.15499 0.09197,0.006 0.446184,-0.11532 0.787146,-0.26935 z m 44.149099,-0.31127 v -0.4391 l -0.905218,0.32296 c -0.876441,0.31269 -0.890204,0.32607 -0.43293,0.42109 0.259758,0.054 0.667106,0.10624 0.905218,0.11615 0.37654,0.0157 0.43293,-0.0392 0.43293,-0.4211 z m 1.037915,0.19363 c 0.307128,-0.0745 0.378947,-0.1898 0.378947,-0.60821 0,-0.59936 0.0428,-0.58161 -0.689206,-0.28589 -0.481121,0.19437 -0.570227,0.30395 -0.570227,0.70126 0,0.36823 0.05467,0.4506 0.250769,0.37784 0.137924,-0.0512 0.421296,-0.13442 0.629717,-0.185 z m -36.540865,-4.27447 c 6.146141,-2.21577 11.276308,-4.08361 11.400367,-4.15074 0.142976,-0.0774 -0.137118,-0.16275 -0.764972,-0.2332 l -0.990538,-0.11116 -11.307863,4.08424 c -6.219323,2.24634 -11.228767,4.13151 -11.132098,4.18927 0.109635,0.0655 0.06251,0.12978 -0.125257,0.17081 -0.165562,0.0362 0.01777,0.0418 0.40741,0.0126 0.547729,-0.0411 0.637008,-0.0192 0.393573,0.0967 -0.237539,0.11304 -0.160219,0.12777 0.314858,0.06 0.346344,-0.0494 5.658378,-1.90273 11.80452,-4.11851 z m -13.733028,3.81028 c -0.108232,-0.0422 -0.28534,-0.0422 -0.393573,0 -0.108232,0.0422 -0.01968,0.0768 0.196787,0.0768 0.216465,0 0.305019,-0.0345 0.196786,-0.0768 z m 11.764908,-4.32088 11.253264,-4.06616 -0.899675,-0.18059 -0.899673,-0.18058 -11.455595,4.13402 c -6.300575,2.2737 -11.561857,4.19175 -11.691736,4.26233 -0.144575,0.0786 0.03856,0.10364 0.472287,0.0647 0.549605,-0.0494 0.620194,-0.0333 0.314859,0.0716 -0.264111,0.0908 -0.05697,0.10659 0.629717,0.048 0.823083,-0.0702 3.22498,-0.88278 12.276552,-4.15339 z m -2.909516,-0.17696 c 6.061024,-2.18353 11.197151,-4.03945 11.413616,-4.12426 l 0.393573,-0.1542 -0.472288,-0.1099 c -0.259758,-0.0604 -0.720238,-0.11863 -1.023289,-0.12932 -0.653358,-0.023 -23.215231,8.06525 -22.946148,8.22605 0.100837,0.0602 0.04753,0.12764 -0.131064,0.16569 -0.165562,0.0353 0.05319,0.0427 0.486124,0.0166 0.638669,-0.0386 0.712908,-0.02 0.393573,0.0986 -0.322201,0.11967 -0.279379,0.13119 0.236143,0.0635 0.346345,-0.0455 5.588736,-1.86921 11.64976,-4.05274 z m -13.502832,3.74561 c -0.05231,-0.0506 -0.188096,-0.056 -0.30174,-0.012 -0.125586,0.0486 -0.08828,0.0847 0.09511,0.092 0.165956,0.007 0.258938,-0.0294 0.206626,-0.0799 z m 56.58188,-0.0603 c 0.08462,0 0.114172,-0.0621 0.06568,-0.13792 -0.111763,-0.17485 -0.717566,-0.0297 -0.717566,0.17196 0,0.0829 0.112058,0.10917 0.24902,0.0584 0.13696,-0.0508 0.318249,-0.0924 0.402863,-0.0924 z m -45.011995,-4.23012 c 6.210107,-2.23207 11.204548,-4.10216 11.098758,-4.15576 -0.105791,-0.0536 -0.498048,-0.14238 -0.871681,-0.1973 -0.621356,-0.0913 -1.655903,0.25263 -12.122047,4.03035 -6.293493,2.27161 -11.495782,4.17729 -11.560642,4.23483 -0.06486,0.0575 0.147668,0.084 0.472287,0.0588 0.460271,-0.0358 0.520895,-0.0149 0.275358,0.0945 -0.21834,0.0973 -0.04943,0.11775 0.551002,0.0666 0.616085,-0.0525 4.123011,-1.24444 12.156965,-4.13204 z M 89.264352,124.4745 c 0.03974,-24.70367 0.03915,-24.75665 -0.275501,-24.677092 -0.313855,0.07936 -0.31533,0.195408 -0.31533,24.808112 0,23.46891 0.01403,24.72578 0.275501,24.67709 0.260839,-0.0486 0.27762,-1.36875 0.31533,-24.80811 z m -50.113957,20.38915 c 6.239257,-2.25451 11.367937,-4.12217 11.397066,-4.15033 0.02913,-0.0282 -0.40576,-0.0987 -0.966419,-0.15676 l -1.01938,-0.10555 -11.333967,4.08781 c -6.23368,2.24829 -11.260591,4.13224 -11.170913,4.18654 0.09238,0.0559 0.03373,0.1312 -0.135298,0.17361 -0.164093,0.0412 0.05586,0.0469 0.488794,0.0126 0.596726,-0.0472 0.710979,-0.0256 0.472288,0.0892 -0.238395,0.11463 -0.164465,0.1284 0.304433,0.0567 0.340611,-0.0521 5.724139,-1.93931 11.963396,-4.19383 z m 38.188224,-20.43926 c 0,-23.455 -0.01426,-24.735061 -0.275501,-24.73665 -0.151525,-9.13e-4 -0.541163,-0.04413 -0.86586,-0.09602 l -0.59036,-0.09435 v 24.74478 24.74479 l 0.43293,0.0634 c 0.238112,0.0349 0.627749,0.0737 0.865861,0.0862 l 0.43293,0.0228 z m 10.980662,-2.47349 c -0.02302,-5.00218 -0.04186,-0.90949 -0.04186,9.09486 0,10.00435 0.01884,14.09703 0.04186,9.09486 0.02302,-5.00217 0.02302,-13.18755 0,-18.18972 z m 1.259448,-9.88199 c -0.02267,-6.85058 -0.04122,-1.29061 -0.04122,12.35548 -3e-6,13.6461 0.01854,19.25112 0.04121,12.45561 0.02267,-6.79552 0.02267,-17.96051 6e-6,-24.81109 z m 1.2988,36.57209 1.02329,-0.36111 0.03983,-24.67578 c 0.02191,-13.57167 -0.01747,-24.67577 -0.0875,-24.67577 -0.07003,0 -0.566148,0.143281 -1.102478,0.318404 l -0.975143,0.318405 v 24.721001 c 0,13.59656 0.01771,24.71987 0.03936,24.71848 0.02165,-0.001 0.499838,-0.16502 1.062647,-0.36363 z m -65.445645,0.007 c 0.191772,-0.11408 5.361638,-2.01171 11.488588,-4.21695 6.126952,-2.20525 11.05055,-4.05491 10.941329,-4.11036 -0.10922,-0.0555 -0.496373,-0.14454 -0.860338,-0.19796 -0.597874,-0.0878 -1.745276,0.29396 -11.885904,3.95419 -6.173281,2.22823 -11.401256,4.14282 -11.617721,4.25463 -0.375949,0.1942 -0.365376,0.20013 0.236144,0.13247 0.477977,-0.0538 0.553847,-0.0358 0.314858,0.0746 -0.229771,0.10611 -0.102138,0.12668 0.472288,0.0761 0.570901,-0.0503 0.700648,-0.0297 0.472287,0.075 -0.173172,0.0794 -0.223812,0.14911 -0.112533,0.15499 0.111279,0.006 0.35923,-0.0826 0.551002,-0.19671 z m 54.740461,-0.41556 c -0.725568,-0.19865 -0.942839,-0.15349 -0.983224,0.20438 -0.02126,0.18837 -0.07471,-10.8225 -0.118781,-24.4686 L 78.99021,99.157133 78.95156,123.9048 c -0.02126,13.61121 0.0024,24.78732 0.05251,24.8358 0.05014,0.0485 0.422063,-0.0218 0.826503,-0.15614 0.680126,-0.22592 0.705791,-0.25236 0.341772,-0.35202 z M 78.755482,123.97065 V 99.23857 l -0.393573,-0.07901 c -0.216465,-0.04345 -0.579642,-0.116735 -0.807058,-0.162847 -0.31297,-0.06346 -0.392776,-0.03166 -0.328295,0.130809 0.0542,0.136577 -0.01396,0.208594 -0.187408,0.198002 C 76.889219,99.31637 70.122994,93.829129 62.003093,87.131658 53.883192,80.434186 47.193256,74.954437 47.136569,74.954437 c -0.188654,0 -29.749267,14.763817 -29.68636,14.826621 0.03401,0.03396 0.328287,0.103253 0.653942,0.153986 0.549991,0.08568 0.595572,0.13271 0.640958,0.661281 0.02687,0.31297 0.08177,0.569037 0.122002,0.569037 0.04023,0 0.570208,-0.242029 1.177734,-0.537841 0.607527,-0.295813 1.183448,-0.49072 1.279828,-0.433128 0.104634,0.06252 0.131113,0.03569 0.06572,-0.06661 -0.135388,-0.211805 3.300539,-1.912119 3.555752,-1.759612 0.09605,0.05739 0.131756,0.03728 0.07936,-0.0447 -0.121063,-0.189397 1.268081,-0.85194 1.498084,-0.714498 0.101005,0.06036 0.126474,0.03206 0.06197,-0.06885 -0.135388,-0.211804 3.300539,-1.912119 3.555752,-1.759611 0.09605,0.05739 0.131756,0.03728 0.07935,-0.0447 -0.121063,-0.189397 1.268081,-0.85194 1.498084,-0.714499 0.101005,0.06036 0.126474,0.03206 0.06197,-0.06885 -0.135388,-0.211805 3.300539,-1.912119 3.555752,-1.759611 0.09605,0.05739 0.131296,0.03656 0.07833,-0.0463 -0.121372,-0.18988 0.953795,-0.698393 1.184788,-0.560359 0.100481,0.06004 0.125802,0.03153 0.06143,-0.06918 -0.135388,-0.211805 3.300539,-1.912119 3.555752,-1.759612 0.09605,0.05739 0.131755,0.03728 0.07935,-0.0447 -0.121063,-0.189396 1.268081,-0.851939 1.498084,-0.714498 0.101005,0.06036 0.126474,0.03206 0.06197,-0.06885 -0.135388,-0.211805 3.300539,-1.912119 3.555752,-1.759612 0.09605,0.05739 0.132053,0.03774 0.08001,-0.04367 -0.124058,-0.194082 1.585668,-1.003161 1.821745,-0.86209 0.0999,0.0597 6.435394,5.266832 14.078875,11.571413 7.643481,6.304579 13.93316,11.462876 13.977065,11.462876 0.0439,0 0.07983,-0.20218 0.07983,-0.449285 v -0.449282 l 1.141362,0.04236 1.141361,0.04236 0.03983,24.522967 0.03983,24.52298 0.432455,0.0634 c 0.237849,0.0349 0.450164,0.0736 0.471811,0.0862 0.02165,0.0125 0.03936,-11.10663 0.03936,-24.70927 z m -44.369944,20.15971 c 6.248165,-2.25609 11.389934,-4.13063 11.426154,-4.16565 0.03622,-0.035 -0.389704,-0.11084 -0.946498,-0.1685 l -1.012351,-0.10482 -11.283265,4.07585 c -6.299108,2.27542 -11.20079,4.12513 -11.096556,4.18742 0.125831,0.0752 0.08856,0.13247 -0.114314,0.17569 -0.165562,0.0353 0.05319,0.0427 0.486124,0.0166 0.63867,-0.0386 0.712908,-0.02 0.393573,0.0986 -0.331732,0.12321 -0.300835,0.13366 0.196629,0.0665 0.324612,-0.0438 5.702338,-1.92559 11.950504,-4.18168 z m 47.788397,3.5731 c -0.01855,-0.0134 -0.334809,-0.0615 -0.7028,-0.10692 -0.622051,-0.0768 -0.669074,-0.0574 -0.669074,0.2762 v 0.35877 l 0.7028,-0.25185 c 0.386539,-0.13852 0.687623,-0.26281 0.669074,-0.2762 z m 10.08109,-36.54784 c -0.02267,-6.85058 -0.04122,-1.29061 -0.04122,12.35548 -3e-6,13.6461 0.01854,19.25112 0.04121,12.4556 0.02267,-6.79551 0.02267,-17.9605 6e-6,-24.81108 z M 20.464047,148.0019 c -0.05231,-0.0506 -0.188096,-0.056 -0.30174,-0.012 -0.125586,0.0486 -0.08828,0.0847 0.09511,0.092 0.165956,0.007 0.258938,-0.0294 0.206626,-0.0799 z m 59.865727,-24.64301 c 0,-24.083837 -0.0078,-24.734981 -0.29518,-24.734981 -0.162349,0 -0.534275,-0.0447 -0.826503,-0.09935 -0.51975,-0.09718 -0.525322,-0.09278 -0.255823,0.202254 0.259944,0.28457 0.275501,1.682077 0.275501,24.747637 v 24.44603 l 0.354216,0.066 c 0.194819,0.0363 0.44277,0.0753 0.551002,0.0867 0.15671,0.0165 0.196787,-5.01669 0.196787,-24.71425 z m 0.275491,-12.35549 c -0.02267,-6.85058 -0.04122,-1.29061 -0.04122,12.35549 -3e-6,13.6461 0.01854,19.25112 0.04121,12.4556 0.02267,-6.79552 0.02267,-17.96051 6e-6,-24.81109 z m 14.326066,36.29385 1.771078,-0.605 V 121.98449 97.276728 l -2.125294,0.686914 -2.125294,0.686913 v 24.731915 24.73191 l 0.354216,-0.10606 c 0.194818,-0.0583 1.1512,-0.37832 2.125294,-0.71107 z m -62.820256,-3.58256 c 6.165951,-2.2223 11.179692,-4.08924 11.141648,-4.14875 -0.03804,-0.0595 -0.413785,-0.15242 -0.834982,-0.20644 -0.724126,-0.0929 -1.383427,0.12478 -12.111618,3.99852 -6.240192,2.25321 -11.476063,4.16757 -11.635268,4.25412 -0.223121,0.12131 -0.127098,0.14279 0.418966,0.0937 0.555568,-0.0499 0.623506,-0.034 0.314858,0.0737 -0.276233,0.0964 -0.111955,0.11327 0.551003,0.0565 0.718595,-0.0615 3.626655,-1.04755 12.155393,-4.12143 z m -2.294043,-0.38911 c 10.399283,-3.75249 11.408512,-4.14609 10.876267,-4.2417 -0.322675,-0.058 -0.815773,-0.10933 -1.095772,-0.11416 -0.636072,-0.011 -23.095525,8.07558 -22.844926,8.22533 0.115309,0.0689 0.07285,0.13352 -0.119439,0.18177 -0.164093,0.0412 0.05586,0.0491 0.488794,0.0175 0.631973,-0.046 0.70956,-0.0284 0.393573,0.0895 -0.324431,0.12101 -0.285345,0.13198 0.22249,0.0624 0.338835,-0.0464 5.774391,-1.94572 12.079013,-4.22069 z m 53.165359,4.1446 c 0.588083,-0.19822 0.509216,-0.44182 -0.143042,-0.44182 -0.358043,0 -0.462996,0.069 -0.462996,0.30443 0,0.35679 -0.02683,0.3507 0.606038,0.13739 z M 81.904066,122.8463 V 98.207604 L 81.11692,98.057121 c -0.804223,-0.153749 -0.970745,-0.07446 -0.551002,0.262358 0.208108,0.166994 0.236143,3.086211 0.236143,24.588721 0,19.37695 0.04051,24.41502 0.196787,24.476 0.108232,0.0422 0.356183,0.0822 0.551002,0.0888 l 0.354216,0.012 z m 0.275488,-12.38765 c -0.02267,-6.80212 -0.04122,-1.23675 -0.04122,12.36748 0,13.60424 0.01855,19.16961 0.04122,12.36749 0.02267,-6.80212 0.02267,-17.93286 0,-24.73497 z m -66.280953,36.78218 c -0.05231,-0.0506 -0.188097,-0.056 -0.30174,-0.012 -0.125586,0.0486 -0.08828,0.0847 0.09511,0.092 0.165956,0.007 0.258938,-0.0294 0.206626,-0.08 z m 10.469678,-3.90905 c 5.604994,-2.01608 10.174289,-3.68166 10.153992,-3.70128 -0.0203,-0.0196 -0.843874,0.17458 -1.830169,0.43156 -1.427511,0.37195 -1.852551,0.43145 -2.083944,0.29173 -0.241865,-0.14604 -1.814705,0.37476 -9.365914,3.10125 -4.991379,1.80222 -9.189647,3.33901 -9.329483,3.41508 -0.170433,0.0927 -0.02071,0.11573 0.454185,0.0698 0.518614,-0.0502 0.624068,-0.0304 0.393572,0.0739 -0.219569,0.0993 -0.05281,0.11839 0.551003,0.063 0.59969,-0.055 3.998592,-1.20624 11.056758,-3.74502 z m 58.438061,3.455 c 0.265349,-0.11173 0.402755,-0.20583 0.305345,-0.20911 -0.09741,-0.003 -0.398492,-0.0488 -0.669074,-0.10109 -0.422488,-0.0817 -0.491966,-0.0513 -0.491966,0.21564 0,0.17092 -0.08855,0.35009 -0.196787,0.39816 -0.397699,0.1766 0.585823,-0.1071 1.052482,-0.3036 z M 83.360763,97.700098 c -0.0652,-0.05652 -0.42805,-0.147889 -0.806328,-0.203032 -0.545415,-0.07951 -0.67072,-0.05728 -0.60537,0.107385 0.0486,0.122466 -0.0217,0.207644 -0.171391,0.207644 -0.184101,0 -26.886251,-21.837088 -29.572303,-24.184305 -0.320663,-0.280213 -0.364162,-0.282489 -0.841133,-0.04401 -0.276639,0.138318 -0.478687,0.269818 -0.448994,0.292221 0.02969,0.02241 6.571555,5.411483 14.537472,11.975729 15.70287,12.939817 14.51867,12.065581 16.333278,12.058042 l 0.590359,-0.0025 v 24.474768 24.47477 l 0.511645,0.0477 0.511645,0.0477 0.03983,-24.57469 c 0.02191,-13.51608 -0.01351,-24.620937 -0.07871,-24.677462 z m -60.335212,45.617282 9.367036,-3.37582 0.05035,-0.50351 c 0.03737,-0.37373 -0.0073,-0.4903 -0.173371,-0.45225 -0.935383,0.21432 -20.368698,7.37117 -20.233943,7.4517 0.10654,0.0637 0.05839,0.13214 -0.125337,0.17824 -0.164093,0.0412 0.05586,0.0469 0.488794,0.0126 0.605317,-0.0478 0.714413,-0.0265 0.472287,0.0924 -0.249152,0.12234 -0.199872,0.1356 0.236144,0.0635 0.303051,-0.0501 4.766169,-1.6102 9.918039,-3.46691 z M 83.753849,110.014 c -0.02267,-6.80872 -0.04123,-1.283 -0.04123,12.27938 -3e-6,13.56238 0.01855,19.13315 0.04122,12.37949 0.02268,-6.75366 0.02268,-17.85015 6e-6,-24.65887 z m -72.578124,36.46575 c -0.05231,-0.0506 -0.188096,-0.056 -0.301739,-0.012 -0.125586,0.0486 -0.08828,0.0847 0.09511,0.092 0.165955,0.007 0.258937,-0.0294 0.206625,-0.0799 z m 85.802172,-36.9344 c -0.02267,-6.80212 -0.04122,-1.23675 -0.04122,12.36749 0,13.60424 0.01855,19.16961 0.04122,12.36749 0.02267,-6.80212 0.02267,-17.93286 0,-24.73498 z m 11.020053,33.40888 3.03051,-1.00095 v -24.70899 c 0,-13.58995 -0.0259,-24.708991 -0.0575,-24.708991 -0.0652,0 -13.096238,4.330652 -13.520782,4.49341 -0.260802,0.09998 -0.275502,1.42401 -0.275502,24.815881 v 24.71025 l 3.896374,-1.29983 c 2.143,-0.71491 5.2601,-1.75026 6.92688,-2.30078 z m -85.995689,-0.4904 10.390326,-3.75316 0.04933,-0.48372 c 0.02713,-0.26605 -0.0015,-0.48372 -0.06357,-0.48372 -0.222613,0 -22.6618775,8.12694 -22.9479349,8.31117 -0.2498263,0.16089 -0.1925523,0.17937 0.3935737,0.12699 0.5462022,-0.0488 0.6057652,-0.0333 0.2923732,0.0761 -0.2714367,0.0947 -0.100447,0.10979 0.551002,0.0485 0.699606,-0.0659 3.639245,-1.0623 11.334901,-3.8421 z m 63.050388,-20.7032 c 0,-19.62473 -0.04017,-24.659216 -0.196786,-24.660549 -0.108233,-9.13e-4 -0.480159,-0.04547 -0.826503,-0.099 -0.617927,-0.09551 -0.624558,-0.09169 -0.354216,0.203929 0.259938,0.28424 0.275501,1.677973 0.275501,24.67118 v 24.36992 l 0.354216,0.066 c 0.194818,0.0363 0.442769,0.0753 0.551002,0.0867 0.156708,0.0165 0.196786,-5.00147 0.196786,-24.63814 z M 8.9553811,145.99374 c -0.1056643,-0.16531 4.2909579,-1.73434 4.5036639,-1.60723 0.09317,0.0557 0.125696,0.0329 0.07228,-0.0507 -0.113138,-0.177 0.969874,-0.53577 1.200783,-0.39778 0.08568,0.0512 0.112071,0.0247 0.05865,-0.0589 -0.113138,-0.177 0.969874,-0.53577 1.200784,-0.39778 0.08568,0.0512 0.11207,0.0247 0.05865,-0.0589 -0.113138,-0.177 0.969874,-0.53577 1.200783,-0.39779 0.08568,0.0512 0.112071,0.0247 0.05865,-0.0589 -0.113138,-0.177 0.969874,-0.53577 1.200784,-0.39778 0.08568,0.0512 0.11207,0.0247 0.05865,-0.0589 -0.114955,-0.17983 0.967851,-0.53331 1.215816,-0.39689 0.09395,0.0517 0.117895,0.0375 0.05322,-0.0315 -0.150911,-0.16095 6.463487,-2.54693 6.688255,-2.41262 0.0928,0.0555 0.125018,0.0325 0.0716,-0.0511 -0.113138,-0.17699 0.969874,-0.53576 1.200783,-0.39778 0.08568,0.0512 0.112071,0.0247 0.05865,-0.0589 -0.113138,-0.177 0.969874,-0.53577 1.200783,-0.39778 0.08568,0.0512 0.112071,0.0247 0.05865,-0.0589 -0.113138,-0.17699 0.969874,-0.53576 1.200783,-0.39778 0.08568,0.0512 0.112071,0.0247 0.05865,-0.0589 -0.114292,-0.17881 0.966084,-0.53333 1.215816,-0.39897 0.119144,0.0641 0.12123,0.0395 0.0069,-0.0813 -0.313375,-0.33114 -1.667414,-0.4718 -2.352389,-0.24438 -0.347754,0.11546 -5.53321,1.97615 -11.523237,4.13486 L 6.8323863,145.58207 7.771139,145.752 c 0.5163141,0.0934 0.9836445,0.21332 1.0385122,0.26637 0.1411097,0.13644 0.2382522,0.11986 0.1457399,-0.0249 z M 66.161147,132.26348 c 0,-8.92996 -0.05366,-13.54716 -0.157429,-13.54716 -0.17766,0 -0.229804,26.82139 -0.05248,26.99284 0.05772,0.0558 0.128566,0.10148 0.157429,0.10148 0.02886,0 0.05248,-6.09622 0.05248,-13.54716 z m 3.342211,12.30575 c 1.668519,-0.59905 3.095349,-1.14159 3.170732,-1.20564 0.115739,-0.0983 -0.913697,-1.96719 -1.083602,-1.96719 -0.03184,0 -1.070928,0.37673 -2.309094,0.83718 -1.238167,0.46045 -2.305058,0.83718 -2.370871,0.83718 -0.06581,0 -0.119659,-2.2221 -0.119659,-4.93801 0,-3.12782 -0.05771,-4.9725 -0.157429,-5.03209 -0.08659,-0.0517 -0.156345,-0.17565 -0.155019,-0.27536 0.0014,-0.10892 0.06332,-0.0901 0.155019,0.047 0.107092,0.16023 0.152607,-0.0668 0.152607,-0.76108 0,-0.74749 -0.04153,-0.93357 -0.169869,-0.76107 -0.13317,0.17899 -0.141151,0.16255 -0.03695,-0.0761 0.07311,-0.16744 0.154148,-2.87306 0.180091,-6.0125 l 0.04717,-5.70807 2.746976,-0.98646 c 2.645611,-0.95006 2.753372,-1.0052 2.920317,-1.4943 0.09534,-0.27931 0.205855,-0.4764 0.245591,-0.43798 0.03974,0.0384 -0.03817,0.32536 -0.17312,0.63764 -0.21493,0.49737 -0.245366,2.00898 -0.245366,12.18611 0,10.59902 -0.0226,11.63055 -0.257588,11.7577 -0.227796,0.12326 -0.195931,0.23905 0.275501,1.00115 l 0.533089,0.86178 0.04023,-13.18282 c 0.02213,-7.25055 -0.0133,-13.27346 -0.07872,-13.38424 -0.09216,-0.15606 -0.818139,0.0516 -3.223992,0.92207 -1.74014,0.62963 -3.227989,1.08514 -3.384727,1.03625 -0.196192,-0.0612 -0.220149,-0.0457 -0.08026,0.0518 0.158368,0.11045 0.199408,2.91813 0.199339,13.63763 -4.9e-5,7.4242 0.03276,13.49854 0.07292,13.49854 0.04015,0 1.438155,-0.49013 3.106675,-1.08919 z m -51.821711,-3.17387 c 6.259458,-2.26097 11.409537,-4.1386 11.44462,-4.17252 0.03508,-0.0339 -0.391772,-0.10885 -0.948566,-0.1665 l -1.012352,-0.10482 -11.279432,4.07446 c -6.2036877,2.24096 -11.2476396,4.1052 -11.2087812,4.14278 0.085468,0.0826 1.0092673,0.30018 1.3667978,0.32187 0.1412833,0.009 5.3782534,-1.83431 11.6377134,-4.09527 z m -6.384571,1.0203 7.241743,-2.62047 0.03983,-24.84767 c 0.03882,-24.221771 0.03238,-24.847665 -0.255822,-24.847665 -0.162608,0 -0.517036,-0.04281 -0.787617,-0.09513 l -0.491966,-0.09513 v 24.747105 24.74711 l 0.590359,0.0955 c 0.817884,0.13227 0.973841,0.19663 0.510606,0.21074 -0.217037,0.007 -0.6292,-0.053 -0.915918,-0.13254 -0.468358,-0.12987 -1.219763,0.10839 -7.398133,2.34583 -3.7822542,1.36971 -7.0893557,2.57685 -7.3491139,2.68254 l -0.4722875,0.19217 0.5510021,0.10574 c 0.3030512,0.0582 0.7635316,0.11173 1.0232897,0.11906 0.2597582,0.007 3.7310717,-1.16589 7.7140296,-2.60715 z m 63.932756,1.91586 c -0.234456,-0.0581 -0.25229,-0.10139 -0.08327,-0.20239 0.364419,-0.21776 0.05595,-0.32394 -1.014453,-0.34919 -1.538331,-0.0363 -1.696449,0.28484 -0.232443,0.47207 1.271268,0.16259 1.791262,0.19367 1.33017,0.0795 z m -2.435376,-0.56983 c 0.36312,-0.15243 0.430695,-0.22208 0.214861,-0.22146 -0.396667,0.001 -1.356484,0.41444 -1.002007,0.43146 0.141584,0.007 0.495799,-0.0877 0.787146,-0.21 z m 2.655013,-4.49631 c 0,-2.34411 -0.0228,-4.26203 -0.05067,-4.26203 -0.14281,0 -1.618163,0.51065 -1.715271,0.59369 -0.06211,0.0531 -0.120393,1.8078 -0.12951,3.89931 l -0.01657,3.80274 0.523082,0.0941 c 0.287696,0.0518 0.717901,0.10314 0.956013,0.11416 l 0.43293,0.02 z m -2.046579,-9.58956 c 0,-8.82848 -0.05367,-13.39494 -0.15743,-13.39494 -0.10376,0 -0.157429,4.56646 -0.157429,13.39494 0,8.82849 0.05367,13.39494 0.157429,13.39494 0.10376,0 0.15743,-4.56645 0.15743,-13.39494 z m -7.758222,12.94993 c 0.01774,-0.22769 -0.114081,-0.31516 -0.592795,-0.39336 -0.658457,-0.10756 -1.567022,0.0222 -1.567022,0.22381 0,0.0673 0.478191,0.18952 1.062647,0.27166 0.584456,0.0822 1.065282,0.15865 1.068503,0.17002 0.0032,0.0114 0.01612,-0.11109 0.02867,-0.27213 z m 3.352615,-0.90084 c 0.0018,-0.18831 0.03492,-0.20287 0.130435,-0.0573 0.101016,0.15392 0.317071,0.12512 1.024155,-0.1365 0.775879,-0.28708 0.882945,-0.37453 0.797857,-0.65172 -0.09493,-0.30926 -0.0905,-0.3103 0.130272,-0.0305 0.473065,0.59952 0.591167,0.14529 0.591167,-2.27364 v -2.34659 l -0.393573,0.14468 c -0.216465,0.0796 -0.393573,0.11043 -0.393573,0.0686 0,-0.0418 0.178964,-0.14189 0.397697,-0.2223 l 0.397698,-0.1462 -0.01329,-8.79803 c -0.0073,-4.83892 -0.07375,-8.89262 -0.147642,-9.00822 -0.108637,-0.16996 -0.558855,-0.0548 -2.352272,0.60172 l -2.217924,0.8119 0.0048,5.18782 c 0.0026,2.85329 0.06269,5.08506 0.133454,4.95949 0.07077,-0.12558 1.071454,-2.47234 2.223747,-5.21503 1.152295,-2.74269 2.120288,-4.96233 2.151095,-4.93255 0.03081,0.0298 -0.972034,2.49222 -2.228536,5.47206 l -2.284546,5.41791 v 1.4043 1.4043 l 2.225946,3.6662 c 2.494458,4.10844 2.449378,4.03109 2.225364,3.81841 -0.08818,-0.0837 -1.030253,-1.59065 -2.093493,-3.34873 -1.063241,-1.75809 -2.028406,-3.33121 -2.144811,-3.49583 -0.179448,-0.25378 -0.210309,0.35851 -0.202863,4.02499 0.0048,2.37836 0.04103,4.37474 0.08044,4.4364 0.03941,0.0617 0.495635,-0.0263 1.013827,-0.19552 0.641672,-0.20952 0.942935,-0.38814 0.944577,-0.56004 z m -0.852323,-0.20125 c 0.04007,-0.0627 0.176846,-0.0754 0.303953,-0.0282 0.320502,0.11891 0.288695,0.19066 -0.07285,0.16433 -0.167174,-0.0122 -0.27117,-0.0734 -0.231102,-0.13611 z m 2.259559,-1.51024 c -0.09665,-0.17461 -0.14607,-0.34614 -0.109826,-0.38118 0.03624,-0.035 0.146729,0.10782 0.245523,0.31747 0.216949,0.46038 0.111317,0.50998 -0.135697,0.0637 z m -0.622501,-1.05247 c -0.09268,-0.16744 -0.133086,-0.30443 -0.08979,-0.30443 0.04329,0 0.154543,0.13699 0.247222,0.30443 0.09268,0.16744 0.133085,0.30443 0.08979,0.30443 -0.04329,0 -0.154543,-0.13699 -0.247222,-0.30443 z m -0.629716,-1.06551 c -0.09268,-0.16743 -0.133086,-0.30443 -0.08979,-0.30443 0.04329,0 0.154543,0.137 0.247222,0.30443 0.09268,0.16744 0.133086,0.30444 0.08979,0.30444 -0.04329,0 -0.154544,-0.137 -0.247222,-0.30444 z m -0.591726,-0.68461 c 0.06419,-0.0685 0.03638,-0.21814 -0.06179,-0.33251 -0.09817,-0.11438 -0.148009,-0.23743 -0.110747,-0.27346 0.03726,-0.036 0.152173,0.0652 0.255355,0.22494 0.146077,0.22616 0.144758,0.31426 -0.006,0.39802 -0.10646,0.0592 -0.141044,0.0515 -0.07686,-0.017 z m -0.674924,-1.30722 c -0.09665,-0.17461 -0.146069,-0.34614 -0.109826,-0.38118 0.03624,-0.035 0.146729,0.10782 0.245523,0.31746 0.216949,0.46039 0.111317,0.50998 -0.135697,0.0637 z m -0.629717,-1.06551 c -0.09665,-0.1746 -0.146069,-0.34614 -0.109826,-0.38118 0.03624,-0.035 0.146729,0.10782 0.245524,0.31747 0.216948,0.46038 0.111316,0.50998 -0.135698,0.0637 z m -0.138472,-6.07557 c -6.29e-4,-0.21936 0.443541,-1.09075 0.454968,-0.89271 0.0031,0.0532 -0.09791,0.32716 -0.224403,0.60886 -0.12649,0.28169 -0.230244,0.40943 -0.230565,0.28385 z m 0.629717,-1.52215 c -6.3e-4,-0.21936 0.443541,-1.09076 0.454967,-0.89272 0.0031,0.0532 -0.09791,0.32717 -0.224402,0.60886 -0.12649,0.2817 -0.230244,0.40943 -0.230565,0.28386 z m 0.703776,-1.71242 c 0.05886,-0.18837 0.171823,-0.40942 0.25103,-0.49123 0.07921,-0.0818 0.06431,0.0723 -0.03309,0.34249 -0.199362,0.55295 -0.383514,0.67863 -0.217936,0.14874 z m 0.629717,-1.52216 c 0.05886,-0.18836 0.171823,-0.40942 0.25103,-0.49122 0.07921,-0.0818 0.06431,0.0723 -0.0331,0.34248 -0.199362,0.55295 -0.383513,0.67864 -0.217935,0.14874 z m 0.629717,-1.52215 c 0.05886,-0.18837 0.171823,-0.40942 0.25103,-0.49122 0.07921,-0.0818 0.06431,0.0723 -0.0331,0.34248 -0.199362,0.55295 -0.383513,0.67863 -0.217935,0.14874 z m 0.556345,-1.18863 c -0.0068,-0.13051 0.09774,-0.37024 0.2324,-0.53275 0.240911,-0.29074 0.24251,-0.2906 0.09999,0.009 -0.07966,0.16744 -0.184243,0.40718 -0.232401,0.53276 -0.07563,0.19723 -0.08925,0.19601 -0.09999,-0.009 z m 0.629717,-1.52215 c -0.0068,-0.13051 0.09774,-0.37025 0.2324,-0.53275 0.240911,-0.29075 0.24251,-0.2906 0.09999,0.009 -0.07966,0.16744 -0.184242,0.40718 -0.2324,0.53275 -0.07563,0.19724 -0.08925,0.19602 -0.09999,-0.009 z m -7.490316,22.47861 0.472288,-0.1967 -0.98438,-0.16945 c -0.781225,-0.13447 -1.08815,-0.12726 -1.487195,0.035 l -0.502815,0.20442 0.857479,0.15051 c 1.142204,0.20048 1.104909,0.20102 1.644623,-0.0238 z m 2.282724,-0.53856 c 0,-0.51901 0.317194,-0.42867 -3.778301,-1.07607 -1.601842,-0.2532 -3.072613,-0.49562 -3.268379,-0.5387 l -0.355938,-0.0783 0.04108,-13.16331 0.04108,-13.16332 -0.354216,2e-5 -0.354216,1e-5 v 13.54716 c 0,7.45093 0.01771,13.55065 0.03936,13.55493 0.06939,0.0137 7.748795,1.32472 7.871459,1.3438 0.06494,0.0101 0.118072,-0.18169 0.118072,-0.42619 z m -4.762233,0.1964 c 0.194818,-0.0505 0.354215,-0.1394 0.354215,-0.1976 0,-0.0923 -3.723186,-0.72034 -3.938664,-0.66442 -0.04491,0.0116 -0.292859,0.0613 -0.551002,0.11041 -0.422174,0.0802 -0.413968,0.0686 0.08165,-0.116 l 0.551002,-0.20521 0.0402,-13.64775 0.0402,-13.64775 -0.355056,-0.002 c -0.195282,-0.001 -0.514455,-0.0434 -0.709274,-0.0939 l -0.354216,-0.0918 v 13.93958 13.93958 l 0.598382,0.1558 c 0.723351,0.18832 1.545483,0.24076 2.077914,0.13254 0.216466,-0.044 0.30502,-0.0507 0.196787,-0.0149 -0.793567,0.26242 1.051917,0.64079 1.967865,0.40346 z m 52.155793,-0.64854 c 0.99168,-0.32574 1.92704,-0.64131 2.07856,-0.70125 0.26079,-0.10318 0.2755,-1.4288 0.2755,-24.82199 v -24.713 l -2.12529,0.70955 -2.1253,0.709548 v 24.704702 c 0,13.58759 0.021,24.7047 0.0467,24.7047 0.0257,0 0.8581,-0.26652 1.84979,-0.59226 z m -57.15417,-13.9443 c 0,-7.74395 0.05313,-14.07956 0.118072,-14.07913 0.06494,4.6e-4 4.457214,0.70882 9.760609,1.57421 l 9.642538,1.57343 v -3.60172 -3.60172 l -9.563823,-1.55437 c -5.260103,-0.8549 -9.652377,-1.5522 -9.760609,-1.54954 -0.155625,0.004 -0.196787,-2.25083 -0.196787,-10.778874 0,-10.59038 -0.0056,-10.788631 -0.314858,-11.059198 -0.314753,-0.275414 -0.314859,-0.265864 -0.314859,28.440662 0,28.61469 0.0011,28.71617 0.314859,28.71617 0.31259,0 0.314858,-0.10148 0.314858,-14.07992 z M 55.141104,112.4755 c 0,-19.077647 -0.05303,-28.768686 -0.157429,-28.768686 -0.103505,0 -0.157429,3.780012 -0.157429,11.035606 0,6.06958 -0.04655,11.03561 -0.103439,11.03561 -0.16941,0 -26.392294,-4.27373 -26.777594,-4.36414 l -0.354216,-0.0831 v -6.123127 -6.123128 l 10.25261,-5.34952 c 6.510396,-3.396938 10.329896,-5.307699 10.464351,-5.234948 0.136254,0.07373 -3.159482,1.87263 -9.244553,5.045933 -5.200963,2.712249 -9.493613,5.025393 -9.539225,5.140317 -0.04561,0.114925 -0.04382,0.246772 0.004,0.292993 0.109363,0.105737 19.788061,-9.691173 19.788061,-9.851353 0,-0.06474 -0.194818,-0.258507 -0.43293,-0.430594 -0.238111,-0.172086 -0.503773,-0.374072 -0.590359,-0.448856 -0.09483,-0.08191 -0.394315,-0.02013 -0.753189,0.155379 -0.327667,0.160241 -0.675117,0.243926 -0.772111,0.185965 -0.115413,-0.06897 -0.131823,-0.03572 -0.04749,0.09622 0.09435,0.147604 0.05651,0.174755 -0.141282,0.101369 -0.182054,-0.06755 -0.23339,-0.04273 -0.157429,0.07611 0.07596,0.118837 0.02462,0.143654 -0.157429,0.07611 -0.182055,-0.06755 -0.233391,-0.04273 -0.157429,0.07611 0.07596,0.118837 0.02462,0.143655 -0.15743,0.07611 -0.182054,-0.06755 -0.23339,-0.04273 -0.157429,0.07611 0.07596,0.118838 0.02462,0.143655 -0.157429,0.07611 -0.15602,-0.05789 -0.230705,-0.03853 -0.176784,0.04583 0.121273,0.189724 -3.342371,1.871508 -3.571899,1.73435 -0.11365,-0.06791 -0.129631,-0.03395 -0.04576,0.09725 0.09435,0.147604 0.05651,0.174755 -0.141282,0.101369 -0.182054,-0.06755 -0.23339,-0.04273 -0.157429,0.07611 0.07596,0.118837 0.02462,0.143654 -0.157429,0.07611 -0.182054,-0.06755 -0.23339,-0.04273 -0.157429,0.07611 0.07596,0.118837 0.02462,0.143655 -0.157429,0.07611 -0.182055,-0.06755 -0.233391,-0.04273 -0.15743,0.07611 0.07596,0.118838 0.02462,0.143655 -0.157429,0.07611 -0.182054,-0.06755 -0.23339,-0.04273 -0.157429,0.07611 0.07596,0.118838 0.02462,0.143655 -0.157429,0.07611 -0.15602,-0.05789 -0.230705,-0.03853 -0.176784,0.04583 0.121273,0.189724 -3.342371,1.871507 -3.571899,1.734349 -0.09943,-0.05942 -0.130649,-0.03555 -0.07249,0.05543 0.122606,0.191809 -0.326754,0.386718 -0.564305,0.244766 -0.106409,-0.06359 -0.120524,-0.02656 -0.03868,0.101481 0.09435,0.147604 0.05651,0.174755 -0.141281,0.101369 -0.182055,-0.06755 -0.233391,-0.04273 -0.15743,0.07611 0.07596,0.118837 0.02462,0.143654 -0.157429,0.07611 -0.182054,-0.06755 -0.23339,-0.04273 -0.157429,0.07611 0.07596,0.118837 0.02462,0.143654 -0.157429,0.07611 -0.15602,-0.05789 -0.230705,-0.03852 -0.176784,0.04583 0.121273,0.189724 -3.342371,1.871508 -3.571899,1.73435 -0.09661,-0.05773 -0.130804,-0.03579 -0.07653,0.04912 0.12185,0.190626 -0.639865,0.543877 -0.87272,0.404731 -0.108873,-0.06506 -0.123642,-0.0291 -0.04109,0.10004 0.09435,0.147605 0.05651,0.174755 -0.141282,0.101369 -0.157753,-0.05853 -0.230854,-0.03876 -0.175703,0.04752 0.05194,0.08126 -0.653026,0.507179 -1.566599,0.946482 l -1.661043,0.798731 0.03984,24.053133 0.03984,24.05313 0.354216,0.0486 0.354215,0.0486 v -14.0905 c 0,-13.31999 0.01507,-14.09021 0.275501,-14.08538 0.151526,0.003 6.261746,0.98366 13.578267,2.17968 l 13.302766,2.17457 0.04017,14.10735 c 0.0221,7.75904 0.07523,14.10735 0.118072,14.10735 0.04284,0 0.0779,-12.94591 0.0779,-28.76868 z m -0.314858,28.39401 c 0,-0.41224 -1.942478,-0.72845 -2.91244,-0.4741 -0.43899,0.11511 -0.450943,0.10794 -0.169537,-0.10173 0.281173,-0.20948 0.240676,-0.23306 -0.568205,-0.33077 -0.861595,-0.10409 -1.70241,-0.004 -1.70241,0.20361 0,0.10065 3.674855,0.72039 4.014444,0.67701 0.08659,-0.0111 0.334537,-0.0524 0.551002,-0.092 0.216465,-0.0395 0.304152,-0.0424 0.19486,-0.006 -0.284722,0.0937 -0.07551,0.34682 0.286719,0.34682 0.168062,0 0.305567,-0.1001 0.305567,-0.22245 z m 10.769996,-0.0224 c -0.314316,-0.12579 -6.282247,-1.09925 -6.34886,-1.03559 -0.125009,0.11948 0.07887,0.16483 2.820606,0.62744 2.479793,0.41842 3.990596,0.5932 3.528254,0.40815 z m 0.09262,-1.42145 v -1.20962 l -2.348715,0.79065 c -1.291791,0.43486 -2.327883,0.81079 -2.302425,0.83541 0.05893,0.057 4.007446,0.75988 4.375639,0.77893 0.240507,0.0125 0.275501,-0.13939 0.275501,-1.19537 z M 32.943589,126.78373 c 0,-8.92996 -0.05366,-13.54716 -0.157429,-13.54716 -0.103774,0 -0.157429,4.6172 -0.157429,13.54716 0,8.92996 0.05365,13.54716 0.157429,13.54716 0.103774,0 0.157429,-4.6172 0.157429,-13.54716 z m 2.180687,13.01295 c 0.87199,-0.22238 1.67673,-0.35342 1.788311,-0.29119 0.112866,0.0629 0.147195,0.0541 0.07737,-0.0199 -0.06919,-0.0734 0.566523,-0.31451 1.416862,-0.53747 0.848303,-0.22242 1.852462,-0.48675 2.231466,-0.58738 0.511243,-0.13576 0.643298,-0.22727 0.511645,-0.35456 -0.0976,-0.0944 -0.17637,-0.2435 -0.175044,-0.33141 0.0013,-0.0879 0.07108,-0.0571 0.155019,0.0685 0.09916,0.14836 0.152607,-4.40929 0.152607,-13.0144 0,-8.60512 -0.05344,-13.16277 -0.152607,-13.01441 -0.211224,0.31602 -0.196856,0.0512 0.01831,-0.33752 0.145872,-0.26353 0.134893,-0.30234 -0.06459,-0.22833 -0.132184,0.049 -1.610421,0.44143 -3.28497,0.87197 -1.67455,0.43054 -3.416563,0.88514 -3.871139,1.01022 l -0.826504,0.22742 0.0063,6.5725 c 0.0057,5.9141 0.02983,6.53058 0.24117,6.15392 0.369628,-0.65876 0.425434,-0.48832 0.06424,0.19622 l -0.324397,0.61481 0.334854,0.48875 c 0.328081,0.47887 0.32821,0.48148 0.0063,0.1294 l -0.328514,-0.35934 v 6.65451 c 0,5.61976 0.03404,6.64188 0.218912,6.57329 0.1204,-0.0447 0.932357,-0.26317 1.804346,-0.48556 z M 33.888164,125.93765 V 114.1616 l 0.669074,-0.17152 c 0.367991,-0.0943 1.824858,-0.47371 3.237484,-0.84305 1.412625,-0.36934 2.635107,-0.67153 2.716625,-0.67153 0.09174,0 0.132847,4.48075 0.107886,11.75863 l -0.04033,11.75862 -1.259434,0.32185 c -0.692688,0.17701 -2.198105,0.56422 -3.34537,0.86047 l -2.085937,0.53863 z m 3.403645,10.5531 c 1.071921,-0.27027 1.948948,-0.53402 1.948948,-0.58612 0,-0.0521 -1.083215,-1.5605 -2.407145,-3.35203 -2.281229,-3.08693 -3.038463,-4.16583 -2.350345,-3.34876 0.180083,0.21384 0.332779,0.29208 0.368395,0.18877 0.03512,-0.10186 0.148694,-0.0404 0.268718,0.14542 0.114341,0.17703 0.131819,0.2764 0.03884,0.22084 -0.24158,-0.14436 -0.209067,0.0208 0.09136,0.46414 0.14653,0.21623 0.303793,0.31639 0.359625,0.22904 0.05734,-0.0897 0.184908,-0.0226 0.30222,0.15906 0.111649,0.17286 0.126925,0.26883 0.03395,0.21327 -0.24158,-0.14436 -0.209067,0.0208 0.09136,0.46414 0.14653,0.21623 0.303792,0.31638 0.359625,0.22904 0.05734,-0.0897 0.184908,-0.0226 0.30222,0.15906 0.111648,0.17286 0.126925,0.26883 0.03395,0.21327 -0.24158,-0.14436 -0.209067,0.0208 0.09136,0.46414 0.14653,0.21622 0.303792,0.31638 0.359625,0.22904 0.05734,-0.0897 0.184908,-0.0226 0.30222,0.15906 0.111648,0.17285 0.126925,0.26882 0.03395,0.21326 -0.24158,-0.14436 -0.209067,0.0208 0.09136,0.46414 0.14653,0.21623 0.303792,0.31639 0.359625,0.22904 0.05734,-0.0897 0.184908,-0.0226 0.30222,0.15906 0.111648,0.17286 0.126925,0.26883 0.03395,0.21327 -0.274416,-0.16398 -0.187101,0.11603 0.163962,0.52581 0.213484,0.24919 0.29549,0.28859 0.237585,0.11416 -0.125435,-0.37785 -0.02041,-0.33029 0.293487,0.1329 0.148818,0.21961 0.192388,0.35256 0.09682,0.29545 -0.278581,-0.16647 -0.1943,0.11031 0.159253,0.523 0.272852,0.31848 0.310725,0.33089 0.232257,0.0761 -0.08678,-0.28176 -0.07792,-0.28477 0.118984,-0.0404 0.117006,0.14521 0.258867,0.21941 0.315245,0.1649 0.05638,-0.0545 0.102241,-5.00234 0.101917,-10.99518 l -6.3e-4,-10.89608 -0.31427,0.49838 c -0.304809,0.48344 -0.314228,0.77199 -0.314228,9.62762 0,5.98468 -0.05423,9.12923 -0.157429,9.12923 -0.130755,0 -0.293437,-16.41351 -0.178024,-17.9614 0.03596,-0.48223 -0.329053,0.14431 -2.85527,4.90109 -1.053655,1.98399 -1.941102,3.58273 -1.972106,3.55275 -0.031,-0.03 1.050561,-2.1225 2.403476,-4.65005 2.282887,-4.26495 2.456465,-4.64713 2.412813,-5.31258 l -0.04703,-0.71703 -2.440152,0.63169 -2.440153,0.63169 -0.02873,5.23795 c -0.02498,4.55473 -4.3e-5,5.18831 0.191207,4.85741 0.289369,-0.50067 0.295819,-0.25812 0.0075,0.28101 -0.310705,0.58094 -0.360729,12.13175 -0.05306,12.25166 0.444526,0.17325 1.198206,0.0769 3.050606,-0.39021 z m -2.447913,-13.13186 c 0,-0.0837 0.101245,-0.32346 0.224987,-0.53276 0.123743,-0.20929 0.224987,-0.31204 0.224987,-0.22832 0,0.0837 -0.101244,0.32346 -0.224987,0.53276 -0.123742,0.20929 -0.224987,0.31204 -0.224987,0.22832 z m 0.854704,-1.75048 c 0.134326,-0.25115 0.279651,-0.45664 0.322944,-0.45664 0.04329,0 -0.03119,0.20549 -0.165515,0.45664 -0.134326,0.25116 -0.279651,0.45665 -0.322944,0.45665 -0.04329,0 0.03119,-0.20549 0.165515,-0.45665 z m 0.692594,-1.29383 c 0.265381,-0.49649 0.48338,-0.77174 0.482213,-0.60886 -6.29e-4,0.0837 -0.145955,0.32346 -0.323013,0.53276 -0.213823,0.25275 -0.267281,0.27831 -0.1592,0.0761 z m 0.881698,-1.59826 c 0.134326,-0.25115 0.279651,-0.45664 0.322944,-0.45664 0.04329,0 -0.03119,0.20549 -0.165515,0.45664 -0.134326,0.25116 -0.279651,0.45665 -0.322944,0.45665 -0.04329,0 0.03119,-0.20549 0.165515,-0.45665 z m 0.787146,-1.52215 c 0.134326,-0.25116 0.279651,-0.45665 0.322944,-0.45665 0.04329,0 -0.03119,0.20549 -0.165515,0.45665 -0.134327,0.25116 -0.279651,0.45665 -0.322944,0.45665 -0.04329,0 0.03119,-0.20549 0.165515,-0.45665 z m 0.555824,-0.9894 c 0,-0.0837 0.06867,-0.25496 0.152607,-0.38054 0.08393,-0.12557 0.152607,-0.15982 0.152607,-0.0761 0,0.0837 -0.06867,0.25496 -0.152607,0.38053 -0.08394,0.12558 -0.152607,0.15983 -0.152607,0.0761 z m 1.40963,-2.78161 c -0.0013,-0.14448 -0.06425,-0.35709 -0.139828,-0.47246 -0.256818,-0.39204 -0.461627,-0.0187 -0.453765,0.82712 l 0.0078,0.84317 0.294084,-0.46756 c 0.161746,-0.25716 0.293,-0.58578 0.291674,-0.73027 z m -0.465055,0.19395 c 0,-0.0837 0.06867,-0.25496 0.152607,-0.38054 0.08394,-0.12557 0.152607,-0.15982 0.152607,-0.0761 0,0.0837 -0.06867,0.25496 -0.152607,0.38053 -0.08393,0.12558 -0.152607,0.15983 -0.152607,0.0761 z m 0.782324,23.21283 c -0.09268,-0.16744 -0.133086,-0.30443 -0.08979,-0.30443 0.04329,0 0.154544,0.13699 0.247222,0.30443 0.09268,0.16743 0.133086,0.30443 0.08979,0.30443 -0.04329,0 -0.154544,-0.137 -0.247222,-0.30443 z m 14.483485,3.06888 v -0.43206 l -5.942952,-0.96327 c -3.268623,-0.5298 -6.13777,-0.99387 -6.375882,-1.03126 l -0.43293,-0.068 v -13.07324 -13.07323 h 0.341097 c 0.489222,0 0.306501,-0.0947 -0.380454,-0.19721 l -0.59036,-0.0881 v 13.59995 13.59994 l 1.141362,0.18353 c 0.627749,0.10095 3.514606,0.57875 6.415239,1.06179 2.900633,0.48304 5.397853,0.88611 5.549379,0.89572 0.201922,0.0128 0.275501,-0.0979 0.275501,-0.41459 z m 60.885724,-36.59429 c -0.0227,-6.802121 -0.0412,-1.23675 -0.0412,12.36749 0,13.60424 0.0186,19.16961 0.0412,12.36749 0.0227,-6.80212 0.0227,-17.93286 0,-24.73498 z m 13.65699,32.54252 4.72288,-1.56542 0.0398,-24.74574 0.0398,-24.745743 -1.06312,0.355286 c -0.58472,0.195406 -4.46359,1.488504 -8.61972,2.873547 -4.15613,1.385044 -7.78684,2.597792 -8.06825,2.694997 l -0.51164,0.176735 v 24.713728 24.71372 l 4.36866,-1.45284 c 2.40276,-0.79907 6.49395,-2.15729 9.09153,-3.01827 z m -80.048784,4.12332 0.512388,-0.20831 -0.965987,-0.16452 c -0.685215,-0.1167 -1.105773,-0.11741 -1.446924,-0.002 -0.264516,0.0892 -0.524551,0.11993 -0.577855,0.0684 -0.0533,-0.0515 0.02116,-0.0937 0.165465,-0.0937 0.14431,0 0.262382,-0.0618 0.262382,-0.13727 0,-0.20718 -1.754004,-0.36021 -2.204009,-0.19229 -0.513615,0.19165 -0.357165,0.24443 1.810436,0.61076 0.952447,0.16097 1.776721,0.30054 1.831719,0.31017 0.055,0.01 0.330571,-0.0762 0.612385,-0.19081 z m 9.914087,-13.05218 c 0,-12.05305 -0.01543,-12.76917 -0.275501,-12.7835 -0.187723,-0.0103 -0.150104,-0.0565 0.118072,-0.14484 l 0.393573,-0.12967 -0.393573,0.0307 -0.393573,0.0307 -0.04024,12.96232 c -0.04007,12.90895 -0.03894,12.962 0.275501,12.88249 0.312869,-0.0791 0.31574,-0.19596 0.31574,-12.84816 z M 18.89302,103.38064 c -0.02269,-6.676546 -0.04125,-1.21392 -0.04125,12.13916 0,13.35309 0.01856,18.81571 0.04125,12.13917 0.02269,-6.67654 0.02269,-17.60179 0,-24.27833 z m 44.355687,35.51629 2.361438,-0.80806 0.0405,-9.82858 c 0.03977,-9.65058 0.04616,-9.83032 0.352806,-9.92442 0.171768,-0.0527 0.394729,-0.0466 0.495468,0.0136 0.121833,0.0728 0.140417,0.0426 0.05551,-0.0903 -0.0951,-0.14878 -0.04103,-0.1778 0.212037,-0.11382 0.186831,0.0472 0.303144,0.0287 0.258475,-0.0412 -0.109832,-0.17182 0.503699,-0.34866 0.733415,-0.21139 0.121833,0.0728 0.140418,0.0426 0.05551,-0.0903 -0.0951,-0.14879 -0.04103,-0.17781 0.212036,-0.11382 0.186831,0.0472 0.303144,0.0287 0.258476,-0.0412 -0.109833,-0.17183 0.503699,-0.34867 0.733415,-0.2114 0.121833,0.0728 0.140417,0.0426 0.05551,-0.0903 -0.0951,-0.14878 -0.04103,-0.17781 0.212037,-0.11382 0.186831,0.0472 0.303144,0.0287 0.258475,-0.0412 -0.109832,-0.17183 0.503699,-0.34866 0.733415,-0.21139 0.121833,0.0728 0.140418,0.0426 0.05551,-0.0903 -0.0951,-0.14879 -0.04103,-0.17781 0.212036,-0.11383 0.186831,0.0472 0.303144,0.0287 0.258475,-0.0412 -0.09575,-0.14978 0.489805,-0.35696 0.682853,-0.2416 0.07293,0.0436 0.132601,-0.0205 0.132601,-0.14239 0,-0.1219 -0.14759,-0.22645 -0.327979,-0.23233 -0.322671,-0.0105 -0.322884,-0.0128 -0.01311,-0.14262 0.210609,-0.0882 0.05424,-0.10898 -0.472287,-0.0626 -0.574403,0.0506 -0.702048,0.03 -0.472288,-0.0761 0.22976,-0.1061 0.102115,-0.12667 -0.472287,-0.0761 -0.592375,0.0521 -0.709238,0.0318 -0.472288,-0.0821 0.251613,-0.12099 0.20418,-0.13644 -0.236144,-0.0769 -0.304907,0.0412 -2.554913,-0.25919 -5.037734,-0.67264 -2.467702,-0.41093 -4.315527,-0.7543 -4.106277,-0.76306 0.209249,-0.009 0.336524,-0.0584 0.282833,-0.11031 -0.05369,-0.0519 -0.27803,-0.0506 -0.498527,0.003 l -0.400909,0.0973 v 12.68171 c 0,6.97494 0.04723,12.72737 0.104954,12.78318 0.276966,0.26779 1.601029,0.0124 3.752061,-0.72362 z m -43.778189,0.58049 c 0.35176,-0.13051 0.309512,-0.36425 -0.06584,-0.36425 -0.174921,0 -0.314858,0.10147 -0.314858,0.22832 0,0.25619 0.02883,0.26648 0.380697,0.13593 z m 25.126782,-0.26813 0.512388,-0.20831 -0.965987,-0.16452 c -0.685215,-0.1167 -1.105773,-0.1174 -1.446924,-0.002 -0.264515,0.0892 -0.52455,0.11994 -0.577854,0.0684 -0.0533,-0.0515 0.02116,-0.0937 0.165464,-0.0937 0.144311,0 0.262383,-0.0607 0.262383,-0.13494 0,-0.15563 -1.25218,-0.36526 -1.586317,-0.26557 -0.862823,0.25744 -0.772783,0.30873 1.114029,0.63468 1.082326,0.18697 1.977443,0.34776 1.989148,0.35731 0.0117,0.01 0.251856,-0.0764 0.53367,-0.19093 z m 10.228946,-0.0591 c 0,-0.0633 -2.674328,-0.55209 -5.942952,-1.08613 l -5.942952,-0.97097 0.04112,-12.84157 c 0.03789,-11.83323 0.06159,-12.84157 0.30174,-12.84157 0.143339,0 0.224705,-0.0347 0.18081,-0.0772 -0.04389,-0.0424 -0.303652,-0.0339 -0.577241,0.019 l -0.497432,0.0962 v 12.82666 12.82666 l 0.432931,0.11293 c 0.31491,0.0821 10.964508,1.90502 11.885903,2.0345 0.06494,0.009 0.118072,-0.0352 0.118072,-0.0986 z M 20.191825,114.91608 V 90.718983 l -0.551002,0.314332 -0.551002,0.314332 v 23.796063 23.79607 l 0.354216,0.066 c 0.194818,0.0363 0.442769,0.0753 0.551002,0.0867 0.156694,0.0165 0.196786,-4.90911 0.196786,-24.17636 z m 0.27549,-11.9801 c -0.02269,-6.683137 -0.04126,-1.26015 -0.04126,12.05107 -4e-6,13.31122 0.01856,18.77924 0.04126,12.15115 0.0227,-6.62809 0.0227,-17.51909 4e-6,-24.20222 z m 0.878748,35.87043 c 0.245341,-0.003 -0.229897,-0.29675 -0.485164,-0.29977 -0.108232,-0.001 -0.196786,0.10774 -0.196786,0.24227 0,0.16052 0.08561,0.21285 0.24902,0.15222 0.13696,-0.0508 0.331779,-0.0934 0.43293,-0.0947 z m 33.480183,-12.70765 c 0,-6.99048 -0.05313,-12.71076 -0.118072,-12.71173 -0.06494,-9.1e-4 -1.357827,-0.20566 -2.873083,-0.45489 -1.515256,-0.24922 -2.808143,-0.45392 -2.873082,-0.45489 -0.06494,-9.1e-4 -0.118072,3.97511 -0.118072,8.83572 0,5.85288 -0.05317,8.80569 -0.157429,8.74339 -0.102019,-0.061 -0.157429,-3.19457 -0.157429,-8.90299 0,-8.26276 0.01708,-8.81302 0.275501,-8.87507 0.151525,-0.0364 0.06297,-0.0392 -0.196787,-0.006 -0.711312,0.0903 -2.891522,-0.27583 -2.510164,-0.42152 0.175664,-0.0671 -0.02934,-0.0874 -0.48099,-0.0477 -0.574403,0.0506 -0.702048,0.03 -0.472288,-0.0761 0.22976,-0.1061 0.102115,-0.12667 -0.472287,-0.0761 -0.610511,0.0537 -0.716492,0.0338 -0.472288,-0.0888 0.282998,-0.14212 0.275033,-0.15031 -0.07872,-0.081 -0.216465,0.0424 -0.517548,0.0781 -0.669074,0.0792 -0.260166,0.002 -0.275501,0.70958 -0.275501,12.71205 0,6.99048 0.05313,12.71334 0.118072,12.71745 0.06494,0.004 2.491317,0.40823 5.39195,0.89803 2.900632,0.48981 5.468696,0.89743 5.706808,0.90582 l 0.43293,0.0153 z M 21.766117,114.38065 V 90.256996 l -0.551002,0.254052 -0.551002,0.254052 v 23.78233 c 0,22.52185 0.01459,23.78603 0.275501,23.85195 0.151526,0.0383 0.399477,0.0776 0.551002,0.0873 0.2613,0.0168 0.275501,-1.22584 0.275501,-24.106 z m 0.27549,-12.05353 c -0.02269,-6.683138 -0.04126,-1.26016 -0.04126,12.05107 -3e-6,13.31122 0.01856,18.77924 0.04126,12.15115 0.0227,-6.62809 0.0227,-17.51909 4e-6,-24.20222 z m 0.983944,35.84128 c 0.129879,-0.0399 0.0059,-0.10583 -0.275501,-0.14642 -0.421383,-0.0608 -0.511645,-0.0238 -0.511645,0.20961 0,0.22064 0.06103,0.25308 0.275501,0.14642 0.151525,-0.0753 0.381766,-0.16967 0.511645,-0.20961 z m 0.314858,-24.32297 c 0,-13.2275 -0.03894,-24.050005 -0.08653,-24.050005 -0.04759,0 -0.295544,0.104504 -0.551003,0.232231 l -0.464469,0.232232 v 23.716302 c 0,13.04396 0.04723,23.76197 0.104953,23.81778 0.05772,0.0558 0.305674,0.10147 0.551002,0.10147 h 0.446049 z m 0.275487,-12.06305 c -0.0227,-6.634687 -0.04127,-1.20631 -0.04127,12.06305 0,13.26937 0.01857,18.69775 0.04127,12.06306 0.0227,-6.63468 0.0227,-17.49143 0,-24.12611 z m 0.916976,35.79026 c 0.04705,-0.0736 -0.09574,-0.13384 -0.317311,-0.13384 -0.24123,0 -0.402864,0.0859 -0.402864,0.21407 0,0.22842 0.562976,0.1657 0.720175,-0.0802 z m 0.381829,-24.2575 V 89.191489 l -0.551002,0.254052 -0.551002,0.254052 v 23.783387 23.78338 l 0.43293,0.0634 c 0.238111,0.0349 0.486062,0.0737 0.551002,0.0862 0.06494,0.0125 0.118072,-10.83284 0.118072,-24.10085 z m 0.275487,-11.98941 c -0.0227,-6.634682 -0.04127,-1.20631 -0.04127,12.06306 0,13.26936 0.01857,18.69774 0.04127,12.06306 0.0227,-6.63468 0.0227,-17.49144 0,-24.12612 z m 7.251605,35.84901 c -0.06982,-0.35054 -1.012561,-0.49427 -1.713966,-0.26133 l -0.539248,0.1791 0.86586,0.15506 c 1.307435,0.23414 1.447037,0.22682 1.387354,-0.0728 z m -6.372854,-0.0427 c 0.24534,-0.003 -0.229897,-0.29675 -0.485164,-0.29977 -0.108233,-0.001 -0.196787,0.10774 -0.196787,0.24228 0,0.16051 0.08561,0.21284 0.24902,0.15221 0.136961,-0.0508 0.331779,-0.0934 0.432931,-0.0947 z m 4.321673,-0.3021 c 0.175468,0 0.20389,-0.0489 0.09152,-0.1576 -0.192645,-0.18626 -1.386013,-0.24065 -1.946557,-0.0887 -0.216465,0.0587 -0.127911,-0.006 0.196787,-0.14422 l 0.590359,-0.25089 V 122.60056 109.0126 l -0.491966,-0.0951 c -0.270582,-0.0523 -0.589376,-0.0951 -0.708431,-0.0951 -0.182091,0 -0.216466,2.2113 -0.216466,13.9248 v 13.92479 l 0.354216,0.0832 c 0.907893,0.21315 1.775952,0.30663 1.823554,0.19639 0.02886,-0.0668 0.167007,-0.12153 0.306987,-0.12153 z m -3.901619,-24.05001 c 0,-13.227508 -0.03894,-24.050012 -0.08653,-24.050012 -0.04759,0 -0.295543,0.104505 -0.551002,0.232232 l -0.46447,0.232231 v 23.730509 c 0,22.47249 0.01461,23.7342 0.275502,23.80012 0.151525,0.0383 0.399476,0.0776 0.551002,0.0873 0.261296,0.0168 0.275501,-1.22233 0.275501,-24.03235 z m 0.275487,-12.06306 c -0.0227,-6.634683 -0.04127,-1.206307 -0.04127,12.06306 0,13.26936 0.01857,18.69774 0.04127,12.06306 0.0227,-6.63469 0.0227,-17.49144 0,-24.12612 z m 4.238514,8.61384 c -0.02923,-0.0283 -0.383829,-0.11112 -0.787997,-0.18412 l -0.73485,-0.13274 v 13.59672 13.59671 l 0.59036,0.0955 c 0.324697,0.0525 0.661202,0.1127 0.747788,0.13375 0.1439,0.035 0.327894,-26.96733 0.184699,-27.10579 z m -0.89313,13.03878 c 0,-8.62553 0.0537,-13.09051 0.157429,-13.09051 0.103732,0 0.157429,4.46498 0.157429,13.09051 0,8.62553 -0.0537,13.09051 -0.157429,13.09051 -0.103732,0 -0.157429,-4.46498 -0.157429,-13.09051 z m 2.399824,2.39739 0.04033,-11.75863 0.421169,0.005 c 0.231641,0.003 0.38051,-0.0585 0.330817,-0.13624 -0.05101,-0.0798 0.08913,-0.10817 0.321856,-0.0652 0.25535,0.0472 0.374699,0.0175 0.31364,-0.078 -0.06041,-0.0945 0.03292,-0.12096 0.241125,-0.0683 0.215438,0.0545 0.302262,0.0273 0.237364,-0.0742 -0.06566,-0.10272 0.04538,-0.13278 0.309875,-0.0839 0.252233,0.0466 0.374427,0.0171 0.314859,-0.0761 -0.05957,-0.0932 0.06263,-0.12273 0.314858,-0.0761 0.252233,0.0466 0.374427,0.0171 0.314858,-0.0761 -0.05957,-0.0932 0.06263,-0.12273 0.314859,-0.0761 0.25535,0.0472 0.374699,0.0175 0.31364,-0.078 -0.06041,-0.0945 0.03292,-0.12096 0.241125,-0.0683 0.215438,0.0545 0.302262,0.0273 0.237363,-0.0742 -0.06566,-0.10272 0.04538,-0.13278 0.309876,-0.0839 0.252233,0.0466 0.374427,0.0171 0.314859,-0.0761 -0.05957,-0.0932 0.06263,-0.12272 0.314858,-0.0761 0.252233,0.0466 0.374426,0.0171 0.314858,-0.0761 -0.05957,-0.0932 0.06263,-0.12273 0.314859,-0.0761 0.25535,0.0472 0.374698,0.0175 0.313639,-0.078 -0.05903,-0.0923 0.02533,-0.12288 0.210304,-0.0761 0.259982,0.0657 0.299024,0.0132 0.246654,-0.33179 -0.06196,-0.40816 -0.07498,-0.41197 -3.078624,-0.90157 -1.659022,-0.27042 -3.175411,-0.52864 -3.369756,-0.57381 l -0.353351,-0.0821 -0.04022,13.3605 c -0.03216,10.68155 -0.08047,13.36839 -0.240942,13.39982 -0.110397,0.0216 -0.128108,0.004 -0.03936,-0.0381 0.108357,-0.052 0.161365,-4.44304 0.161365,-13.36724 0,-11.6728 -0.02873,-13.30053 -0.236143,-13.37748 -0.208807,-0.0775 -0.236144,1.46835 -0.236144,13.35329 0,7.39249 0.04723,13.48657 0.104953,13.54238 0.05772,0.0558 0.234395,0.10148 0.392602,0.10148 0.275748,0 0.289317,-0.48647 0.327977,-11.75863 z m -1.179781,-8.58869 c -0.02346,-3.75271 -0.04266,-0.72688 -0.04267,6.72405 -10e-6,7.45094 0.01918,10.52133 0.04265,6.8231 0.02347,-3.69823 0.02347,-9.79445 1.7e-5,-13.54715 z m 44.119562,9.54706 v -9.09795 l -0.944575,-0.14708 -0.944575,-0.14708 v 9.55345 9.55345 l 0.944575,-0.30843 0.944575,-0.30842 z M 134.44605,97.151814 c -0.0227,-6.85058 -0.0412,-1.290612 -0.0412,12.355486 -1e-5,13.6461 0.0185,19.25112 0.0412,12.4556 0.0227,-6.79552 0.0227,-17.9605 10e-6,-24.811086 z m 4.44738,10.803726 c 0,-19.72552 -0.0399,-24.724021 -0.19679,-24.669235 -0.10823,0.03779 -1.06461,0.36268 -2.12529,0.721981 l -1.92851,0.653277 v 24.702877 24.70287 l 2.1253,-0.68692 2.12529,-0.68691 z m 0.27549,-12.478094 c -0.0227,-6.850579 -0.0412,-1.290611 -0.0412,12.355484 0,13.6461 0.0186,19.25112 0.0412,12.4556 0.0227,-6.79551 0.0227,-17.9605 0,-24.811084 z m 13.69682,7.827714 0.0398,-24.735655 -3.1097,1.033207 c -1.71033,0.568264 -4.73909,1.575014 -6.73057,2.237222 l -3.62087,1.204015 -0.0398,24.738181 -0.0398,24.73818 6.73057,-2.23975 6.73057,-2.23975 z m 0.31437,-12.394171 c -0.0227,-6.85058 -0.0412,-1.290612 -0.0412,12.355481 0,13.6461 0.0185,19.25112 0.0412,12.45561 0.0227,-6.79552 0.0227,-17.96051 0,-24.811091 z m 2.5976,36.147421 1.84979,-0.61511 v -24.73326 c 0,-23.493691 -0.0138,-24.728048 -0.2755,-24.629121 -0.15152,0.05728 -1.10791,0.380943 -2.12529,0.719253 l -1.84979,0.615104 v 24.733264 c 0,23.49369 0.0138,24.72805 0.2755,24.62912 0.15152,-0.0573 1.1079,-0.38094 2.12529,-0.71925 z m 2.12528,-37.821789 c -0.0227,-6.85058 -0.0412,-1.290612 -0.0412,12.355489 0,13.64609 0.0186,19.25111 0.0412,12.4556 0.0227,-6.79552 0.0227,-17.960508 0,-24.811089 z m 10.03612,33.778739 3.62088,-1.20735 0.0398,-24.734425 0.0398,-24.734426 -6.73057,2.237083 -6.73057,2.237083 -0.0398,24.737875 -0.0398,24.73788 3.10969,-1.03319 c 1.71035,-0.56825 4.7391,-1.57649 6.73057,-2.24053 z m 3.97508,-38.345197 c -0.0227,-6.850579 -0.0412,-1.290611 -0.0412,12.355486 0,13.646101 0.0186,19.251121 0.0412,12.455601 0.0227,-6.79552 0.0227,-17.960505 0,-24.811087 z m 2.51888,36.180137 1.92851,-0.65328 V 95.494146 70.791274 l -2.1253,0.686914 -2.12529,0.686912 v 24.737941 c 0,19.725519 0.0399,24.724019 0.19678,24.669239 0.10824,-0.0378 1.06462,-0.36268 2.1253,-0.72198 z m 2.20399,-37.854504 c -0.0226,-6.85058 -0.0412,-1.290612 -0.0412,12.355485 0,13.646099 0.0185,19.251119 0.0412,12.455599 0.0227,-6.79551 0.0227,-17.960503 0,-24.811084 z m 5.51051,10.568664 0.0398,-24.729459 -2.63741,0.871983 -2.63741,0.871983 -0.0398,24.745741 -0.0398,24.745742 2.63741,-0.88827 2.63741,-0.88826 z m 1.7082,23.07902 1.32184,-0.39848 v -1.34293 -1.34293 l -1.14136,0.37735 c -0.62775,0.20754 -1.25649,0.34911 -1.3972,0.31458 -0.2212,-0.0543 -0.25957,0.13042 -0.28336,1.36406 -0.0151,0.78475 0.0188,1.42682 0.0754,1.42682 0.0566,0 0.69769,-0.17931 1.4247,-0.39847 z m -111.782718,-0.3496 c -0.04894,-0.0766 8e-6,-0.17391 0.108781,-0.21631 0.119309,-0.0465 0.08847,-0.0818 -0.07773,-0.0891 -0.278766,-0.0122 -0.362917,0.15715 -0.170548,0.34315 0.153281,0.1482 0.242865,0.12397 0.139501,-0.0377 z m -3.435674,-0.86604 c -0.05231,-0.0506 -0.188097,-0.056 -0.30174,-0.012 -0.125586,0.0486 -0.08828,0.0847 0.09511,0.092 0.165955,0.007 0.258938,-0.0294 0.206626,-0.0799 z m -0.862582,-0.16106 c -0.108232,-0.0422 -0.28534,-0.0422 -0.393573,0 -0.108232,0.0422 -0.01968,0.0768 0.196787,0.0768 0.216465,0 0.305019,-0.0345 0.196786,-0.0768 z m -0.944575,-0.15222 c -0.108232,-0.0422 -0.28534,-0.0422 -0.393573,0 -0.108232,0.0422 -0.01968,0.0768 0.196787,0.0768 0.216465,0 0.305019,-0.0345 0.196786,-0.0768 z m -0.944575,-0.15221 c -0.108232,-0.0422 -0.28534,-0.0422 -0.393573,0 -0.108232,0.0422 -0.01968,0.0768 0.196787,0.0768 0.216465,0 0.305019,-0.0345 0.196786,-0.0768 z m -0.944575,-0.15222 c -0.108233,-0.0422 -0.28534,-0.0422 -0.393573,0 -0.108233,0.0422 -0.01968,0.0768 0.196786,0.0768 0.216466,0 0.30502,-0.0345 0.196787,-0.0768 z m -0.944575,-0.15221 c -0.108233,-0.0422 -0.285341,-0.0422 -0.393573,0 -0.108233,0.0422 -0.01968,0.0768 0.196786,0.0768 0.216466,0 0.305019,-0.0345 0.196787,-0.0768 z m -0.944575,-0.15222 c -0.108233,-0.0422 -0.285341,-0.0422 -0.393573,0 -0.108233,0.0422 -0.01968,0.0768 0.196786,0.0768 0.216465,0 0.305019,-0.0346 0.196787,-0.0768 z m -0.944575,-0.15221 c -0.108233,-0.0422 -0.285341,-0.0422 -0.393573,0 -0.108233,0.0422 -0.01968,0.0768 0.196786,0.0768 0.216465,0 0.305019,-0.0346 0.196787,-0.0768 z m -0.944575,-0.15222 c -0.108233,-0.0422 -0.285341,-0.0422 -0.393573,0 -0.108233,0.0422 -0.01968,0.0768 0.196786,0.0768 0.216465,0 0.305019,-0.0345 0.196787,-0.0768 z m 122.298989,-0.22855 c 0.29431,-0.0974 0.58718,-0.25155 0.65079,-0.34249 0.11181,-0.15983 0.17684,-45.449371 0.0653,-45.449371 -0.0304,0 -0.27832,0.0752 -0.551,0.167106 l -0.49578,0.167105 v 22.43686 22.43686 l 0.51165,0.0244 0.51164,0.0244 -0.51164,0.0614 c -0.29392,0.0353 -0.51165,0.14905 -0.51165,0.26739 0,0.11329 -0.0885,0.24054 -0.19679,0.28277 -0.39494,0.15408 0.007,0.0959 0.52752,-0.0763 z m -0.80302,-22.664127 c 0,-15.087276 -0.0527,-22.657537 -0.15743,-22.594981 -0.218,0.130275 -0.218,45.284038 0,45.284038 0.10425,0 0.15743,-7.6645 0.15743,-22.689057 z m 0.27549,-11.357163 c -0.0228,-6.264518 -0.0414,-1.184001 -0.0414,11.290039 0,12.474041 0.0186,17.599551 0.0414,11.390031 0.0228,-6.20952 0.0228,-16.415553 0,-22.68007 z m 2.20084,33.33244 c 0.0307,-0.0891 -0.0534,-0.20254 -0.18694,-0.25209 -0.17017,-0.0631 -0.24281,0.003 -0.24281,0.22226 0,0.31316 0.32431,0.33567 0.42975,0.0298 z m -0.62655,-33.953244 c -0.0228,-6.25795 -0.0414,-1.137809 -0.0414,11.37809 0,12.515904 0.0186,17.636044 0.0414,11.378094 0.0228,-6.257953 0.0228,-16.498235 0,-22.756184 z m 1.35736,33.816784 c 0.0977,0.0216 0.12446,0.0105 0.0595,-0.0246 -0.0649,-0.0351 -0.11807,-11.17991 -0.11807,-24.766219 V 63.654233 l -0.59036,-0.09435 c -0.3247,-0.05189 -0.73205,-0.09282 -0.90522,-0.09096 -0.30123,0.0032 -0.29951,0.01577 0.0394,0.289101 0.26966,0.217513 0.35421,0.446843 0.35421,0.960745 0,0.481719 0.0902,0.75393 0.31486,0.950537 0.31226,0.273238 0.31486,0.468818 0.31486,23.769171 0,18.687043 0.0403,23.496123 0.19679,23.505683 0.15743,0.01 0.15743,0.0274 0,0.0888 -0.10824,0.0422 -0.19679,0.15327 -0.19679,0.24675 0,0.12469 0.0471,0.12448 0.17662,-7.6e-4 0.0971,-0.0939 0.25653,-0.15309 0.35422,-0.1315 z m -131.157706,-0.0116 c -0.108233,-0.0422 -0.28534,-0.0422 -0.393573,0 -0.108233,0.0422 -0.01968,0.0768 0.196787,0.0768 0.216465,0 0.305019,-0.0346 0.196786,-0.0768 z m -0.944575,-0.15221 c -0.108233,-0.0422 -0.285341,-0.0422 -0.393573,0 -0.108233,0.0422 -0.01968,0.0768 0.196786,0.0768 0.216466,0 0.305019,-0.0345 0.196787,-0.0768 z m 133.303161,-0.11717 0.551,-0.19482 -0.66907,-0.064 c -0.56089,-0.0537 -0.66908,-0.0203 -0.66908,0.2064 0,0.31194 0.0447,0.31492 0.78715,0.0524 z m -134.247736,-0.0351 c -0.108233,-0.0422 -0.285341,-0.0422 -0.393573,0 -0.108233,0.0422 -0.01968,0.0768 0.196786,0.0768 0.216465,0 0.305019,-0.0345 0.196787,-0.0768 z M 87.140286,99.270558 C 86.814653,98.996829 86.35271,98.631464 86.113747,98.458635 l -0.434479,-0.314234 0.04091,7.203599 0.04091,7.2036 0.944575,0.15664 0.944575,0.15664 0.04106,-6.54832 0.04106,-6.548313 z m 98.037324,-8.878957 c 0,-17.964782 -0.04,-22.527668 -0.19679,-22.477122 -0.15598,0.05027 -0.20517,4.683998 -0.23723,22.350272 -0.0223,12.257769 -0.007,22.372479 0.0344,22.477119 0.36397,0.92506 0.3996,-1.0672 0.3996,-22.350269 z m 0.9052,-14.485818 c -0.0227,-6.802119 -0.0412,-1.236749 -0.0412,12.367489 0,13.604238 0.0185,19.169608 0.0412,12.367488 0.0227,-6.802118 0.0227,-17.932858 0,-24.734977 z M 51.874449,112.67912 c -0.108233,-0.0422 -0.285341,-0.0422 -0.393573,0 -0.108233,0.0422 -0.01968,0.0768 0.196786,0.0768 0.216465,0 0.305019,-0.0345 0.196787,-0.0768 z m 36.444684,-9.52681 c -0.02518,-1.77901 -0.04579,-0.32345 -0.04579,3.23458 0,3.55803 0.02061,5.01359 0.04579,3.23457 0.02519,-1.77901 0.02519,-4.69013 0,-6.46915 z m -37.389259,9.37459 c -0.108233,-0.0422 -0.285341,-0.0422 -0.393573,0 -0.108233,0.0422 -0.01968,0.0768 0.196786,0.0768 0.216465,0 0.305019,-0.0345 0.196787,-0.0768 z M 188.8772,112.3103 c 0.27673,-0.10541 0.26397,-0.1211 -0.1052,-0.12958 -0.23103,-0.005 -0.53211,-0.0512 -0.66907,-0.10205 -0.1665,-0.0618 -0.26182,10e-4 -0.28767,0.19027 -0.0213,0.15547 -0.0747,-10.84808 -0.11878,-24.452314 l -0.0801,-24.734978 -0.0387,24.671555 c -0.0213,13.569357 0.007,24.715977 0.0634,24.770257 0.10395,0.10052 0.66786,0.003 1.23606,-0.21316 z m -138.891902,0.0644 c -0.108232,-0.0422 -0.28534,-0.0422 -0.393572,0 -0.108233,0.0422 -0.01968,0.0768 0.196786,0.0768 0.216465,0 0.305019,-0.0345 0.196786,-0.0768 z M 187.38162,87.823523 V 63.171551 l -0.59036,-0.0963 c -0.3247,-0.05296 -0.72506,-0.132467 -0.88968,-0.176678 -0.21535,-0.05783 -0.27476,-0.01852 -0.21179,0.140137 0.0536,0.1351 -0.009,0.220521 -0.16075,0.220521 -0.1798,0 -26.81391,-21.778415 -29.57896,-24.18639 -0.32317,-0.281429 -0.3588,-0.28311 -0.74982,-0.03538 -0.2258,0.143047 -0.61131,0.276603 -0.8567,0.296792 -0.24537,0.02019 -0.55627,0.09735 -0.69086,0.171477 -0.19016,0.104713 2.98347,2.799675 14.22991,12.083667 7.96106,6.571894 14.65047,12.039062 14.8654,12.149263 0.21492,0.110202 0.54017,0.178699 0.72278,0.152215 0.25079,-0.03637 -3.27411,-3.022027 -14.40864,-12.204327 -8.10737,-6.685896 -14.74066,-12.171354 -14.74066,-12.189905 0,-0.387419 2.89764,1.909787 14.99752,11.889801 15.88938,13.105592 14.30862,11.9452 16.33089,11.987978 l 0.551,0.01166 0.0388,24.354441 c 0.0213,13.394937 0.0722,24.440057 0.11313,24.544707 0.0409,0.10465 0.28908,0.19027 0.55155,0.19027 h 0.47723 V 87.823526 Z M 48.096148,112.07026 c -0.108232,-0.0422 -0.28534,-0.0422 -0.393573,0 -0.108232,0.0422 -0.01968,0.0768 0.196787,0.0768 0.216465,0 0.305019,-0.0345 0.196786,-0.0768 z m 141.961772,-0.12752 c 0.37614,-0.14005 0.45108,-0.20949 0.23614,-0.21882 -0.17317,-0.008 -0.47426,-0.055 -0.66908,-0.10544 -0.28567,-0.074 -0.35421,-0.0294 -0.35421,0.2304 0,0.36853 0.0375,0.373 0.78715,0.0939 z m -142.906347,-0.0247 c -0.108232,-0.0422 -0.28534,-0.0422 -0.393573,0 -0.108232,0.0422 -0.01968,0.0768 0.196787,0.0768 0.216465,0 0.305019,-0.0346 0.196786,-0.0768 z M 188.79848,87.283873 c 0,-24.083835 -0.008,-24.734979 -0.29518,-24.734979 -0.16235,0 -0.53428,-0.04411 -0.8265,-0.09803 l -0.53132,-0.09803 0.35421,0.374221 0.35422,0.374221 v 24.37 c 0,19.353574 0.0405,24.385804 0.19678,24.446774 0.10824,0.0422 0.32077,0.0822 0.47229,0.0888 0.2613,0.0114 0.2755,-1.26273 0.2755,-24.722959 z m 0.27549,-12.355486 c -0.0227,-6.85058 -0.0412,-1.290612 -0.0412,12.355486 0,13.646097 0.0186,19.251117 0.0412,12.455601 0.0227,-6.795517 0.0227,-17.960505 0,-24.811087 z m 9.79998,34.351013 c 3.67991,-1.11427 6.75034,-2.07647 6.82317,-2.13824 0.0728,-0.0618 -0.28685,-0.15935 -0.7993,-0.21686 -0.87512,-0.0982 -1.18933,-0.026 -5.17016,1.18818 -2.33115,0.71101 -5.28337,1.61043 -6.56052,1.99872 -2.28937,0.69602 -2.32208,0.71218 -2.32208,1.14731 v 0.44135 l 0.66908,-0.19726 c 0.36799,-0.10849 3.6799,-1.10893 7.35981,-2.2232 z m -8.50118,-22.452173 c 0,-13.604238 -0.0531,-24.737962 -0.11807,-24.741607 -0.0649,-0.0036 -0.41915,-0.06295 -0.78714,-0.131778 -0.6949,-0.129978 -0.83765,-0.03415 -0.43293,0.290622 0.20812,0.166998 0.23614,3.094837 0.23614,24.666348 0,23.183298 0.0145,24.480538 0.2755,24.546468 0.15153,0.0383 0.39948,0.0776 0.551,0.0873 0.26133,0.0168 0.2755,-1.25495 0.2755,-24.717323 z m 0.27549,-12.355486 c -0.0227,-6.850579 -0.0412,-1.290611 -0.0412,12.355486 0,13.646093 0.0185,19.251123 0.0412,12.455601 0.0227,-6.795516 0.0227,-17.960505 0,-24.811087 z M 39.777652,111.23571 c -0.07694,-0.12037 0.01802,-0.15037 0.306944,-0.097 0.339868,0.0628 0.38494,0.0384 0.240265,-0.13014 -0.236636,-0.27569 -0.926675,-0.2696 -0.926675,0.008 0,0.17864 0.151754,0.30946 0.442222,0.38121 0.02676,0.007 -0.0014,-0.0664 -0.06276,-0.16227 z m 159.303888,-3.12602 c 3.51293,-1.0651 4.30732,-1.35362 4.0149,-1.45821 -0.86852,-0.31065 -1.84983,-0.1051 -6.9775,1.46153 l -5.19516,1.58725 -0.0483,0.46086 -0.0483,0.46086 1.93744,-0.59224 c 1.0656,-0.32573 3.90821,-1.18975 6.31691,-1.92005 z m -3.09331,-0.14443 c 2.66947,-0.80625 4.91319,-1.51802 4.98601,-1.5817 0.0728,-0.0637 -0.28137,-0.16157 -0.78714,-0.21754 -0.85689,-0.0948 -1.20399,-0.0152 -5.09145,1.16784 -4.04484,1.23095 -4.17339,1.28222 -4.22168,1.68347 -0.0274,0.22763 0.02,0.41386 0.10541,0.41386 0.0854,0 2.33937,-0.65967 5.00885,-1.46593 z m -120.538761,0.63165 c 0,-0.28483 0.729018,-0.14544 -9.209607,-1.7609 -7.892427,-1.28286 -9.525329,-1.46959 -9.524127,-1.08914 3.14e-4,0.10726 17.483027,3.0303 18.300804,3.05983 0.284677,0.0103 0.43293,-0.0616 0.43293,-0.20979 z m 119.567461,-1.43921 3.93573,-1.20289 -0.86586,-0.11913 c -1.10613,-0.15218 -0.84805,-0.20141 -4.28983,0.81831 -2.89572,0.85792 -2.9517,0.88245 -2.9518,1.2931 -6e-5,0.23023 0.053,0.41745 0.11796,0.41605 0.0649,-0.001 1.88915,-0.54384 4.0538,-1.20544 z m -119.567796,0.56107 c -3.15e-4,-0.33386 -0.211313,-0.37664 -8.383104,-1.69973 -4.610523,-0.74648 -8.471323,-1.3874 -8.579556,-1.42427 -0.154455,-0.0526 -0.196786,-2.02027 -0.196786,-9.147051 0,-8.926416 -0.0054,-9.083243 -0.316033,-9.270845 -0.315332,-0.190406 -0.315943,-0.169457 -0.275501,9.436752 l 0.04053,9.627584 8.422461,1.39018 c 4.632354,0.7646 8.61728,1.39911 8.855392,1.41003 0.350181,0.016 0.432865,-0.0456 0.432595,-0.32265 z M 193.7575,106.4519 c 1.29879,-0.38777 2.41991,-0.75799 2.49138,-0.8227 0.0715,-0.0647 -0.26662,-0.16557 -0.75131,-0.22412 -0.76171,-0.092 -1.13702,-0.0293 -2.76687,0.4626 -1.84117,0.55563 -1.88564,0.57948 -1.88564,1.01103 0,0.35065 0.0569,0.42507 0.2755,0.36011 0.15153,-0.045 1.33815,-0.39914 2.63694,-0.78692 z m -118.317206,-2.69073 -0.0092,-3.23457 -5.820595,-4.794781 C 66.409194,93.09469 63.632731,90.84745 63.440602,90.737951 63.13417,90.563308 62.839986,90.621022 61.044699,91.207996 l -2.04658,0.669132 -0.04108,6.235087 -0.04108,6.235085 7.912537,1.30582 c 4.351896,0.7182 8.071935,1.3141 8.266753,1.32423 l 0.354216,0.0184 z m 117.136486,1.95547 1.65301,-0.51189 -0.78715,-0.12935 c -0.87803,-0.14428 -1.33298,-0.11984 -2.08593,0.11203 -0.42335,0.13037 -0.51165,0.23433 -0.51165,0.6024 0,0.24466 0.0177,0.44346 0.0394,0.44177 0.0216,-0.002 0.78321,-0.23342 1.69236,-0.51496 z m -135.644465,-0.32119 0.570227,-0.23037 v -9.707501 -9.7075 l -0.708431,-0.572562 -0.708432,-0.572563 v 10.510429 c 0,5.930717 0.06022,10.510427 0.138204,10.510427 0.07601,0 0.394806,-0.10366 0.708432,-0.23036 z m -2.293356,-0.18823 c -0.0457,-0.2299 -1.788322,-0.54926 -12.723951,-2.33186 -10.555751,-1.72067 -12.759791,-2.03939 -13.202866,-1.9092 -0.292524,0.0859 -0.435829,0.18722 -0.318455,0.22505 0.277411,0.0894 25.634069,4.25068 26.011171,4.26868 0.192185,0.009 0.269549,-0.0743 0.234101,-0.25267 z m 137.150681,-0.43348 c 0,-0.0337 -0.21253,-0.0612 -0.47229,-0.0612 -0.30732,0 -0.47229,0.077 -0.47229,0.2204 0,0.1788 0.0892,0.19035 0.47229,0.0612 0.25976,-0.0876 0.47229,-0.18673 0.47229,-0.2204 z M 54.668817,104.33198 c 0,-0.20929 -0.05891,-0.38054 -0.130901,-0.38054 -0.072,0 -5.588014,-0.89046 -12.257816,-1.9788 -6.669804,-1.08833 -12.172989,-1.978793 -12.229303,-1.978793 -0.05631,0 -0.08377,-2.407142 -0.06102,-5.349202 l 0.04137,-5.3492 1.377614,-0.714146 c 1.997315,-1.035394 1.904095,-1.092103 -0.157537,-0.09584 l -1.771079,0.855859 v 5.630692 c 0,3.096882 0.01771,5.63435 0.03936,5.63882 0.489186,0.10098 24.682594,4.07534 24.873811,4.08614 0.193205,0.0109 0.275501,-0.0981 0.275501,-0.36499 z m 0,-5.857013 v -5.172046 l -1.062647,0.368715 c -3.328209,1.154821 -19.463824,6.472934 -19.615746,6.465124 -0.09954,-0.005 0.987937,-0.399061 2.416607,-0.875433 l 2.597582,-0.86613 0.04116,-6.042687 0.04116,-6.042688 -4.014666,1.32421 -4.014664,1.324209 -0.0016,5.422598 -0.0016,5.422598 1.613649,0.251493 c 0.887507,0.13832 6.112188,0.99636 11.610402,1.90675 5.498215,0.91038 10.085308,1.66201 10.19354,1.67029 0.153873,0.0118 0.196787,-1.11282 0.196787,-5.157003 z m -25.936458,2.249493 0.43293,-0.15153 v -5.905223 c 0,-5.443723 -0.02116,-5.913068 -0.270703,-6.005656 -0.148885,-0.05524 -0.21558,-0.04714 -0.148208,0.018 0.06737,0.06514 -0.111896,0.194726 -0.398372,0.287968 l -0.520865,0.16953 -0.0412,5.977872 c -0.03899,5.656809 -0.02631,5.972039 0.236144,5.869229 0.152539,-0.0598 0.472163,-0.17684 0.710275,-0.26019 z M 87.934738,98.166536 C 87.864846,98.106326 80.652504,92.147768 71.907312,84.925298 63.162121,77.702827 55.865279,71.651068 55.692106,71.476944 l -0.314858,-0.316587 0.314858,0.237958 c 0.173173,0.130877 7.436414,6.121811 16.140535,13.313184 8.704122,7.191375 15.943399,13.165677 16.087283,13.276228 0.224827,0.172743 7.059752,-2.060102 48.614856,-15.881587 26.59429,-8.845423 48.37966,-16.057054 48.41194,-16.025847 0.0323,0.03121 -21.03153,7.068733 -46.80847,15.638946 -25.77693,8.570212 -47.557869,15.819392 -48.402083,16.109291 l -1.534934,0.527086 v 0.743008 c 0,0.408654 0.06451,0.743007 0.143366,0.743007 0.07885,0 21.870621,-7.226419 48.426151,-16.058709 26.55553,-8.83229 48.3107,-16.058709 48.34482,-16.058709 0.15872,0 0.0392,-1.643651 -0.13475,-1.85241 -0.37506,-0.450237 -32.44662,-26.806609 -32.69621,-26.869718 -0.22531,-0.05697 -96.103546,31.724805 -96.671218,32.044632 -0.129879,0.07317 -0.259478,0.323697 -0.287998,0.556717 -0.04265,0.34848 0.09139,0.544828 0.755273,1.10634 0.443919,0.375469 0.76895,0.719581 0.722293,0.764693 -0.110832,0.107161 0.219983,0.490571 0.423276,0.490571 0.08659,0 0.06235,-0.119869 -0.05387,-0.266376 -0.116215,-0.146508 -0.0189,-0.100574 0.216247,0.102077 0.23515,0.20265 0.392249,0.402582 0.349108,0.444293 -0.09996,0.09665 0.396316,0.633298 0.585656,0.633298 0.07828,0 0.09054,-0.08562 0.02725,-0.190269 -0.06329,-0.104648 0.03713,-0.06125 0.22314,0.09645 0.186015,0.157695 0.306127,0.336907 0.266918,0.398248 -0.09699,0.151735 0.5267,0.683097 0.655554,0.55851 0.131077,-0.126736 0.546158,0.198795 0.448429,0.351686 -0.10031,0.156932 0.455503,0.624323 0.810716,0.68174 0.15912,0.02572 0.273833,0.116804 0.254918,0.20241 -0.04586,0.207557 0.988028,0.962137 1.130085,0.824784 0.0612,-0.05917 0.08765,-0.02753 0.05879,0.07031 -0.05274,0.178787 22.727233,19.077344 22.995481,19.077344 0.07886,0 0.109031,0.126968 0.06706,0.28215 -0.05661,0.209318 0.282453,0.580059 1.313529,1.436237 l 1.38984,1.154087 0.04836,-0.773002 c 0.0266,-0.425152 -0.0088,-0.822267 -0.07872,-0.882477 z M 30.89701,94.43799 c 0,-3.399474 -0.05552,-5.251426 -0.157429,-5.251426 -0.101911,0 -0.157429,1.851952 -0.157429,5.251426 0,3.399473 0.05552,5.251426 0.157429,5.251426 0.10191,0 0.157429,-1.851953 0.157429,-5.251426 z m 45.9637,4.584793 C 75.942498,98.186363 47.544861,74.86592 47.498793,74.910462 c -0.08018,0.07753 29.250372,24.298258 29.440631,24.311635 0.08349,0.0059 0.04807,-0.08382 -0.07871,-0.199314 z m 2.052201,-0.119813 c 0,-0.06976 -0.05313,-0.132086 -0.118072,-0.138491 -0.06494,-0.0064 -0.232409,-0.03323 -0.372156,-0.0596 C 78.282936,98.678504 71.623682,93.263346 63.62434,86.671196 47.050157,73.012635 48.677029,74.371162 49.066548,74.51464 c 0.233283,0.08593 0.270534,0.06282 0.164964,-0.10234 -0.200053,-0.312973 -0.526525,-0.579158 14.92321,12.167471 l 14.275148,11.777548 1.046927,0.0444 c 0.57581,0.02442 0.985578,-0.0121 0.910594,-0.08114 -0.07498,-0.06905 -6.78255,-5.605462 -14.905703,-12.303142 C 51.058567,74.125324 50.700961,73.842983 50.228001,73.974133 c -0.266374,0.07387 -0.55602,0.09145 -0.643656,0.03908 -0.09384,-0.05607 -0.110487,-0.01879 -0.0405,0.0907 0.07469,0.116854 0.03801,0.167997 -0.09874,0.13768 -0.300259,-0.06656 -1.566002,0.501842 -1.505878,0.676239 0.08115,0.235393 28.968695,24.003623 29.087414,23.932681 0.0606,-0.03621 0.421249,-0.01256 0.801442,0.05255 0.898102,0.153823 1.084835,0.153806 1.084835,-1e-4 z M 65.53143,86.434221 C 57.608807,79.899938 50.984974,74.408843 50.811802,74.231788 50.371307,73.781416 50.771243,74.108501 65.925003,86.592027 79.332131,97.636694 80.155059,98.321718 80.010542,98.317107 79.969654,98.315803 73.454054,92.968505 65.53143,86.434221 Z M 78.200106,98.335238 C 77.777582,97.942397 49.935521,75.010672 49.546817,74.735355 c -1.190424,-0.84317 2.221754,2.010816 14.623289,12.231093 12.224983,10.074779 15.442025,12.681611 14.03,11.36879 z m -34.118402,-1.638211 4.447375,-1.473533 v -5.986663 c 0,-3.292664 -0.05313,-5.987404 -0.118072,-5.988311 -0.06494,-9.13e-4 -2.119391,0.661442 -4.565447,1.471885 l -4.447374,1.473534 v 5.986662 c 0,3.292664 0.05313,5.987404 0.118072,5.988311 0.06494,9.13e-4 2.11939,-0.661442 4.565446,-1.471885 z m 37.424415,0.731735 C 80.822316,96.808012 52.369729,73.408953 52.14995,73.286609 c -0.140649,-0.07829 -0.184917,-0.07542 -0.109467,0.0071 0.360706,0.394556 29.493008,24.395636 29.623065,24.405404 0.08418,0.0063 0.01333,-0.11534 -0.157429,-0.27036 z m 2.129668,0.01404 c 0,-0.06358 -0.1491,-0.205631 -0.331332,-0.315669 -0.242578,-0.146474 -0.299319,-0.149982 -0.21182,-0.01309 0.08202,0.128311 0.05421,0.14795 -0.08863,0.06259 C 82.889528,97.108229 76.295116,91.68996 68.349754,85.136038 60.404395,78.582117 53.769882,73.139047 53.606395,73.040329 c -0.233757,-0.141149 -0.390722,-0.132135 -0.734854,0.0422 l -0.437606,0.221691 14.56721,12.012931 14.567211,12.012932 h 0.891175 c 0.490146,0 0.924078,0.05137 0.964291,0.114161 0.09447,0.147504 0.211965,0.146707 0.211965,-0.0014 z M 82.686953,96.602247 C 79.934234,94.265773 53.813076,72.809823 53.675431,72.772149 c -0.103033,-0.0282 0.0252,0.121308 0.284954,0.33224 0.259759,0.210932 6.84817,5.656439 14.640915,12.101126 7.792744,6.444687 14.239469,11.721391 14.326055,11.726009 0.08659,0.0046 -0.02159,-0.143556 -0.240402,-0.329277 z m 2.050838,0.270102 c 0,-0.01754 -5.381813,-4.469731 -11.959584,-9.893754 -6.57777,-5.424025 -11.915481,-9.930855 -11.861579,-10.015183 0.0539,-0.08433 0.02221,-0.108031 -0.07042,-0.05268 -0.20739,0.123929 -1.146012,-0.614968 -1.096658,-0.863304 0.01964,-0.09884 -0.0757,-0.162363 -0.211881,-0.141172 -0.243426,0.03788 -1.039588,-0.650633 -0.982805,-0.849923 0.01597,-0.05604 -0.06003,-0.08456 -0.168881,-0.06337 -0.191519,0.03728 -0.962157,-0.64346 -0.962157,-0.849923 0,-0.05604 -0.062,-0.08192 -0.137775,-0.0575 -0.189331,0.06102 -0.738719,-0.437375 -0.644541,-0.584715 0.141684,-0.221653 -1.171148,-1.169829 -1.562254,-1.128318 -0.454155,0.0482 -1.099879,0.367793 -0.979087,0.484584 0.04842,0.04682 6.618266,5.469642 14.599658,12.050727 l 14.511622,11.965606 0.763171,0.0154 c 0.419743,0.0085 0.76317,0.0011 0.76317,-0.01649 z m -28.901383,-23.907707 -0.616589,-0.543751 0.669074,0.493118 c 0.611367,0.450589 0.760534,0.594383 0.616589,0.594383 -0.02887,0 -0.32995,-0.244687 -0.669074,-0.54375 z m -1.204801,15.360718 0.0415,-4.87371 -0.934293,-0.785709 c -0.51386,-0.432141 -1.063861,-0.782107 -1.222222,-0.777702 -0.158363,0.0044 -1.031785,0.267514 -1.940938,0.584688 l -1.653007,0.576681 -0.04116,6.033594 -0.04116,6.033593 2.874885,-0.958861 2.874887,-0.958862 z m 8.263861,2.088915 c 0.100266,-0.08692 -3.137983,-2.881048 -3.769053,-3.252127 -0.167566,-0.09853 -0.20701,0.327127 -0.20701,2.233947 v 2.355672 l 1.928507,-0.617142 c 1.060679,-0.339428 1.982079,-0.663585 2.047556,-0.72035 z M 29.56813,88.340982 c 0.288144,-0.223204 0.28312,-0.226373 -0.08798,-0.05549 -0.481895,0.221901 -0.571206,0.29221 -0.371186,0.29221 0.08447,0 0.291094,-0.106524 0.459169,-0.236721 z m 3.926461,-2.08954 c 0.08659,-0.0849 -0.621845,0.241726 -1.574291,0.725845 -0.952447,0.484118 -1.802565,0.949682 -1.889151,1.034586 -0.08659,0.0849 0.621846,-0.241726 1.574292,-0.725845 0.952447,-0.484117 1.802564,-0.949681 1.88915,-1.034586 z m 1.907482,1.091863 c 1.288709,-0.427763 2.64419,-0.879431 3.01218,-1.003707 0.646875,-0.218459 0.669074,-0.247625 0.669074,-0.879055 v -0.653098 l -1.022211,0.524818 c -0.562216,0.288652 -1.104485,0.475656 -1.205043,0.415566 -0.108779,-0.065 -0.140503,-0.04303 -0.07832,0.05425 0.06298,0.09853 -0.678031,0.564886 -1.864826,1.173625 -2.750111,1.410608 -2.720384,1.43295 0.489149,0.367604 z M 34.990169,86.6643 c 0,-0.04186 -0.141687,-0.0028 -0.314859,0.08682 -0.173172,0.08961 -0.314858,0.197176 -0.314858,0.239035 0,0.04186 0.141686,0.0028 0.314858,-0.08682 0.173172,-0.08961 0.314859,-0.197175 0.314859,-0.239035 z m 0.629716,-1.515823 c 0,-0.04186 -0.425058,0.131356 -0.944575,0.38492 -0.519516,0.253565 -0.944575,0.495277 -0.944575,0.537136 0,0.04186 0.425059,-0.131356 0.944575,-0.38492 0.519517,-0.253565 0.944575,-0.495277 0.944575,-0.537136 z m 8.579891,-0.728959 4.250588,-1.420683 0.04604,-1.263035 c 0.03581,-0.98233 7.87e-4,-1.24691 -0.157429,-1.190486 -0.111906,0.0399 -0.770212,0.253839 -1.4629,0.475414 -0.692688,0.221575 -2.640874,1.114569 -4.329302,1.984427 l -3.06987,1.581563 -0.04854,0.714737 c -0.04285,0.630985 -0.01518,0.704425 0.236144,0.626742 0.156574,-0.0484 2.197444,-0.727303 4.535267,-1.508679 z M 37.666465,84.08297 c 0,-0.04186 -0.425059,0.131356 -0.944575,0.384921 -0.519517,0.253564 -0.944575,0.495276 -0.944575,0.537135 0,0.04186 0.425058,-0.131355 0.944575,-0.38492 0.519516,-0.253565 0.944575,-0.495277 0.944575,-0.537136 z m 2.046579,-1.065506 c 0,-0.04186 -0.425059,0.131355 -0.944575,0.38492 -0.519516,0.253565 -0.944575,0.495276 -0.944575,0.537136 0,0.04186 0.425059,-0.131356 0.944575,-0.384921 0.519516,-0.253565 0.944575,-0.495276 0.944575,-0.537135 z m 3.34537,-1.704793 c 1.363731,-0.707862 2.47951,-1.31738 2.47951,-1.354486 0,-0.079 0.02315,-0.09044 -3.187941,1.576315 -1.36373,0.707862 -2.47951,1.317381 -2.47951,1.354486 0,0.079 -0.02315,0.09044 3.187941,-1.576315 z m 7.736919,0.918703 1.715252,-0.565701 -0.613248,-0.517964 c -1.557829,-1.315777 -1.558971,-1.316277 -2.34733,-1.025171 l -0.70607,0.26072 v 1.205133 c 0,0.662822 0.05313,1.205931 0.118072,1.206908 0.06494,9.14e-4 0.889936,-0.25279 1.833324,-0.563925 z m -1.740616,-2.172366 c 0.783758,-0.25014 1.029478,-0.389216 0.903271,-0.511244 -0.126208,-0.122028 -0.48333,-0.01218 -1.312785,0.403783 -1.232513,0.618099 -1.209429,0.624157 0.409514,0.107461 z m -1.470214,-1.151356 c 0,-0.04186 -0.425058,0.131355 -0.944575,0.38492 -0.519516,0.253565 -0.944575,0.495277 -0.944575,0.537136 0,0.04186 0.425059,-0.131356 0.944575,-0.384921 0.519517,-0.253564 0.944575,-0.495276 0.944575,-0.537135 z m 0.555168,-0.346759 c -0.04847,-0.04686 -0.1755,-9.7e-5 -0.282291,0.10393 -0.154321,0.150331 -0.136239,0.167814 0.08813,0.08521 0.15526,-0.05716 0.242633,-0.142274 0.194161,-0.18914 z m 3.298644,-5.188248 c 0.344581,-0.134634 0.682794,-0.227117 0.751581,-0.205515 0.06879,0.0216 0.403913,-0.09827 0.744722,-0.266376 0.340807,-0.16811 0.726334,-0.305653 0.856726,-0.305653 0.130391,0 0.487428,-0.115432 0.793417,-0.256515 0.447832,-0.206483 0.556343,-0.342557 0.556343,-0.697654 0,-0.242625 -0.05313,-0.417496 -0.118072,-0.388601 -0.816164,0.363161 -5.23452,2.578259 -5.23452,2.624275 0,0.07403 0.781455,-0.164679 1.649803,-0.503961 z M 184.54789,64.693609 V 64.098447 L 169.65827,51.818201 c -8.18929,-6.754134 -14.91599,-12.254753 -14.94821,-12.223597 -0.0322,0.03116 6.63019,5.568226 14.80538,12.304599 14.77806,12.177148 14.86402,12.251251 14.8695,12.818759 0.003,0.313944 0.041,0.570807 0.0842,0.570807 0.0433,0 0.0787,-0.267823 0.0787,-0.59516 z m -0.49787,-0.488856 c -0.1158,-0.07097 -0.38767,-0.128251 -0.60413,-0.127281 -0.38418,0.0017 -0.38041,0.01236 0.15743,0.445523 0.52685,0.424305 0.55333,0.429885 0.60413,0.127281 0.0292,-0.174063 -0.0416,-0.374548 -0.15743,-0.445523 z m 1.20193,-1.331439 c -0.95092,-0.871156 -29.38059,-24.218387 -29.3337,-24.08965 0.0753,0.206842 29.29566,24.344045 29.49113,24.360897 0.0842,0.0073 0.0134,-0.114805 -0.15743,-0.271247 z m 2.12967,-0.04536 c 0,-0.114198 -0.22678,-0.183348 -0.49387,-0.150599 -0.0552,0.0068 -6.71442,-5.439532 -14.79835,-12.10288 -8.08392,-6.663347 -14.71238,-12.125841 -14.7299,-12.138874 -0.0175,-0.01304 0.11333,-0.0237 0.29077,-0.0237 0.19946,0 5.84685,4.556688 14.79242,11.935495 l 14.46977,11.935495 1.04234,0.0442 c 0.86646,0.03675 1.00566,0.01037 0.82493,-0.156331 -0.11957,-0.110295 -6.82762,-5.648132 -14.90681,-12.306306 -10.09123,-8.316342 -14.78029,-12.088847 -14.97973,-12.05171 -0.15967,0.02973 -0.5008,0.159296 -0.75804,0.287918 -0.25726,0.128622 -0.50336,0.199406 -0.54691,0.157298 -0.096,-0.09277 -1.22017,0.409816 -1.22017,0.545482 0,0.05278 6.50567,5.460113 14.45704,12.016293 14.35774,11.838469 14.46231,11.920768 15.22563,11.984197 0.42275,0.03513 0.78887,0.08344 0.8136,0.107365 0.10348,0.100051 0.51728,0.03338 0.51728,-0.08335 z m -13.4602,-12.544968 c -7.96591,-6.573723 -14.58975,-12.067013 -14.71962,-12.207312 -0.31129,-0.336266 -1.35586,-1.190799 14.56219,11.912936 13.52234,11.131576 14.87933,12.261281 14.71606,12.251225 -0.0413,-0.0025 -6.59271,-5.383127 -14.55863,-11.956849 z m 12.66948,11.903999 c -0.49565,-0.459951 -28.15026,-23.232023 -28.5714,-23.526997 -1.06962,-0.749187 1.75764,1.61327 14.54895,12.1571 12.57357,10.364335 15.46716,12.710574 14.02245,11.369897 z m 3.38392,-0.837058 c -0.91239,-0.839488 -29.39516,-24.234022 -29.44553,-24.185314 -0.0708,0.06848 29.49676,24.470989 29.65055,24.470989 0.058,0 -0.0343,-0.128554 -0.20502,-0.285675 z M 80.644632,170.44262 c 1.255498,-0.42421 3.262383,-1.10542 4.459744,-1.51381 1.19736,-0.40839 2.260007,-0.73884 2.361438,-0.73432 0.10143,0.005 -0.701122,0.31326 -1.783448,0.6861 -1.082326,0.37284 -2.109551,0.73437 -2.282723,0.80339 -0.681599,0.27169 -4.732208,1.55018 -4.880305,1.54036 -0.08659,-0.006 0.869796,-0.35751 2.125294,-0.78172 z m 7.989531,0.23051 c 0.108233,-0.0422 0.285341,-0.0422 0.393573,0 0.108233,0.0422 0.01968,0.0768 -0.196786,0.0768 -0.216465,0 -0.305019,-0.0345 -0.196787,-0.0768 z M 7.7254018,168.69116 c 0.1136442,-0.044 0.2494269,-0.0386 0.3017393,0.012 0.052312,0.0506 -0.040669,0.0866 -0.2066258,0.0799 -0.183396,-0.007 -0.2206999,-0.0434 -0.095114,-0.092 z M 88.83095,167.75824 c 0.129879,-0.0806 3.919986,-1.36148 8.422461,-2.84635 4.502479,-1.48486 8.398849,-2.78571 8.658609,-2.89076 0.85369,-0.34526 4.0329,-1.32629 4.09705,-1.26426 0.0345,0.0334 -0.76692,0.32219 -1.78099,0.64179 -1.01408,0.3196 -2.05631,0.66763 -2.31606,0.77339 -0.40039,0.16303 -16.395054,5.4676 -17.08107,5.66488 -0.209905,0.0604 -0.209905,0.0516 0,-0.0787 z M 8.6994949,167.5176 c 0,-0.0329 0.1099441,-0.10062 0.2443203,-0.15048 0.1401002,-0.052 0.2032918,-0.0265 0.1481382,0.0598 -0.092451,0.14463 -0.3924585,0.21393 -0.3924585,0.0906 z M 111.15638,163.21141 c 0.11364,-0.044 0.24942,-0.0386 0.30174,0.012 0.0523,0.0506 -0.0407,0.0866 -0.20663,0.0799 -0.1834,-0.007 -0.2207,-0.0434 -0.0951,-0.092 z m -0.97756,-1.54502 c -0.0446,-0.0698 0.0221,-0.12684 0.14814,-0.12684 0.12607,0 0.22922,0.0571 0.22922,0.12684 0,0.0698 -0.0667,0.12685 -0.14814,0.12685 -0.0815,0 -0.18463,-0.0571 -0.22922,-0.12685 z m -78.839041,-0.28156 c 0.113644,-0.044 0.249427,-0.0386 0.30174,0.012 0.05231,0.0506 -0.04067,0.0866 -0.206626,0.0799 -0.183397,-0.007 -0.2207,-0.0434 -0.09511,-0.092 z m 79.186881,-0.91329 c 0.11364,-0.044 0.24943,-0.0386 0.30174,0.012 0.0523,0.0506 -0.0407,0.0865 -0.20663,0.0799 -0.18339,-0.007 -0.2207,-0.0434 -0.0951,-0.092 z m -78.212787,-0.26028 c 0,-0.0329 0.109943,-0.10061 0.24432,-0.15047 0.1401,-0.052 0.203292,-0.0265 0.148138,0.0598 -0.09245,0.14464 -0.392458,0.21394 -0.392458,0.0907 z M 200.10386,131.24621 c 0.11365,-0.044 0.24944,-0.0386 0.30175,0.012 0.0523,0.0506 -0.0407,0.0866 -0.20663,0.0799 -0.1834,-0.007 -0.2207,-0.0434 -0.0951,-0.092 z m 6.64155,-0.26027 c 0,-0.0329 0.10995,-0.10062 0.24431,-0.15048 0.14012,-0.052 0.20331,-0.0265 0.14814,0.0598 -0.0924,0.14463 -0.39245,0.21393 -0.39245,0.0907 z m -5.70681,-1.1065 c 0.10823,-0.0422 0.28534,-0.0422 0.39357,0 0.10824,0.0422 0.0197,0.0768 -0.19678,0.0768 -0.21647,0 -0.30502,-0.0345 -0.19679,-0.0768 z"
       id="path94" />
  </g>
</svg>
