<?xml version="1.0" encoding="UTF-8" standalone="no"?>
<svg
   xmlns:dc="http://purl.org/dc/elements/1.1/"
   xmlns:cc="http://creativecommons.org/ns#"
   xmlns:rdf="http://www.w3.org/1999/02/22-rdf-syntax-ns#"
   xmlns:svg="http://www.w3.org/2000/svg"
   xmlns="http://www.w3.org/2000/svg"
   xmlns:sodipodi="http://sodipodi.sourceforge.net/DTD/sodipodi-0.dtd"
   xmlns:inkscape="http://www.inkscape.org/namespaces/inkscape"
   width="200mm"
   height="200mm"
   viewBox="0 0 200 200"
   version="1.1"
   id="svg3075"
   inkscape:version="1.0.2 (e86c8708, 2021-01-15)"
   sodipodi:docname="QHouseEcoPassive.svg">
  <defs
     id="defs3069" />
  <sodipodi:namedview
     id="base"
     pagecolor="#ffffff"
     bordercolor="#666666"
     borderopacity="1.0"
     inkscape:pageopacity="0.0"
     inkscape:pageshadow="2"
     inkscape:zoom="0.7940499"
     inkscape:cx="504.01076"
     inkscape:cy="461.15827"
     inkscape:document-units="mm"
     inkscape:current-layer="layer1"
     inkscape:document-rotation="0"
     showgrid="false"
     inkscape:window-width="1440"
     inkscape:window-height="779"
     inkscape:window-x="0"
     inkscape:window-y="25"
     inkscape:window-maximized="1" />
  <metadata
     id="metadata3072">
    <rdf:RDF>
      <cc:Work
         rdf:about="">
        <dc:format>image/svg+xml</dc:format>
        <dc:type
           rdf:resource="http://purl.org/dc/dcmitype/StillImage" />
        <dc:title></dc:title>
      </cc:Work>
    </rdf:RDF>
  </metadata>
  <g
     inkscape:label="Layer 1"
     inkscape:groupmode="layer"
     id="layer1">
    <rect
       style="fill:#ffffff;stroke:#000000;stroke-width:0.5;stroke-miterlimit:4;stroke-dasharray:none;stroke-dashoffset:0;stroke-opacity:1"
       id="rect4456"
       width="167.82143"
       height="167.82143"
       x="16.252977"
       y="16.252975"
       sodipodi:insensitive="true" />
    <text
       xml:space="preserve"
       style="font-style:normal;font-weight:normal;font-size:16.7981px;line-height:1.25;font-family:sans-serif;fill:#000000;fill-opacity:1;stroke:none;stroke-width:0.419954"
       x="21.413927"
       y="39.877586"
       id="text110188-1"><tspan
         sodipodi:role="line"
         x="21.413927"
         y="39.877586"
         style="fill:#000000;stroke-width:0.419954"
         id="tspan6793">Dom Ekologiczny</tspan></text>
    <text
       xml:space="preserve"
       style="font-style:normal;font-weight:normal;font-size:5.64444px;line-height:1.15;font-family:sans-serif;white-space:pre;inline-size:67.0362;fill:#4d4d4d;fill-opacity:1;stroke:none;stroke-width:0.264583"
       x="108.85714"
       y="1131.6608"
       id="text1123-3-0-86"
       transform="matrix(1.3835679,0,0,1.3835679,-128.67364,-1506.0586)"><tspan
         x="108.85714"
         y="1131.6608"><tspan>Dzięki zastosowaniu </tspan></tspan><tspan
         x="108.85714"
         y="1138.1518"><tspan>ekologicznych </tspan></tspan><tspan
         x="108.85714"
         y="1144.6429"><tspan>technolgii i dużej </tspan></tspan><tspan
         x="108.85714"
         y="1151.134"><tspan>ilkości ocieplenia nasze </tspan></tspan><tspan
         x="108.85714"
         y="1157.6251"><tspan>domy nie wymagają </tspan></tspan><tspan
         x="108.85714"
         y="1164.1162"><tspan>dużej  ilości energi do </tspan></tspan><tspan
         x="108.85714"
         y="1170.6072"><tspan>ogrzewania.</tspan></tspan></text>
    <path
       style="fill:#ff6600;stroke:#000000;stroke-width:0.499999;stroke-miterlimit:4;stroke-dasharray:none;stroke-dashoffset:0;stroke-opacity:1"
       id="path7155"
       d="m 132.12438,130.97334 c 0.26916,3.07743 0.52415,6.15356 0.85292,9.22595 0.57859,4.21204 1.01733,8.4352 1.2652,12.67939 0.18602,3.62939 0.18951,7.26437 0.19207,10.89745 -0.0259,2.98652 0.03,5.97414 -0.0628,8.95955 -0.0489,2.46741 -0.28106,4.91889 -0.51237,7.37321 -0.14082,2.32758 -0.31516,4.64949 -0.6695,6.95568 -0.26624,1.56316 -0.61947,3.11343 -0.57388,4.70564 0.53365,2.05852 -0.007,0.21784 5.08044,-2.70477 0,0 -5.04318,2.483 -5.04318,2.483 v 0 c 1.65167,-0.77729 3.30335,-1.55458 4.95502,-2.33187 -0.007,-10e-4 -0.0137,-0.002 -0.0205,-0.004 -0.0753,-1.53397 0.32132,-3.03948 0.49695,-4.55518 0.31016,-2.32557 0.55504,-4.65906 0.69766,-7.00121 0.21522,-2.45034 0.34996,-4.90328 0.41836,-7.3625 0.0927,-2.98818 0.0364,-5.97863 0.0377,-8.96788 -0.0252,-3.63116 -0.0779,-7.26335 -0.27407,-10.88995 -0.27359,-4.2497 -0.73861,-8.47926 -1.26584,-12.70465 -0.31649,-3.1122 -0.55613,-6.22619 -0.61339,-9.35536 0,0 -4.96072,2.59715 -4.96072,2.59715 z" />
    <path
       style="fill:#ff6600;stroke:#000000;stroke-width:0.499999;stroke-miterlimit:4;stroke-dasharray:none;stroke-dashoffset:0;stroke-opacity:1"
       id="path7157"
       d="m 121.96764,147.36583 c 1.95386,-1.15311 3.92931,-2.27038 5.86157,-3.45931 0.53845,-0.3313 1.02629,-0.73869 1.54604,-1.09862 0.68694,-0.47572 1.37886,-0.94426 2.07383,-1.40817 2.85792,-1.90776 5.73851,-3.78108 8.59497,-5.69126 5.05947,-3.42784 10.27214,-6.70755 14.72273,-10.93437 0.66955,-0.63589 1.28894,-1.3226 1.93341,-1.98389 2.43707,-2.54914 4.10929,-5.63063 5.70174,-8.73726 0.65257,-1.3361 1.35673,-2.64315 2.02483,-3.97079 0,0 -5.08372,2.30557 -5.08372,2.30557 v 0 c -0.6234,1.31405 -1.32038,2.59098 -1.92164,3.91601 -1.51128,3.03423 -3.14795,6.0172 -5.52377,8.48193 -0.63104,0.64249 -1.23891,1.3086 -1.89312,1.92748 -4.42555,4.18659 -9.60874,7.42986 -14.63572,10.82446 -2.92046,1.93856 -5.86511,3.83913 -8.79003,5.7707 -0.72642,0.47971 -1.44767,0.9672 -2.16981,1.45331 -0.54945,0.36986 -2.24716,1.39038 -1.64496,1.1146 1.23291,-0.56463 2.3666,-1.32466 3.5499,-1.98698 0,0 -4.34625,3.47659 -4.34625,3.47659 z" />
    <path
       style="fill:#ff6600;stroke:#000000;stroke-width:0.499999;stroke-miterlimit:4;stroke-dasharray:none;stroke-dashoffset:0;stroke-opacity:1"
       id="path7159"
       d="m 141.51318,109.4585 c 0.60491,0.67494 1.61736,1.8169 2.16554,2.34538 1.46107,1.40857 4.54222,4.06386 5.973,5.28568 3.09329,2.64155 4.0647,3.41621 7.18502,5.9817 4.42753,3.4475 8.43463,7.40257 12.92499,10.77213 0.67533,0.50678 1.37683,0.97772 2.06524,1.46657 3.39519,2.33002 7.15948,4.01906 10.87611,5.756 1.93258,0.90466 0.98494,0.46803 2.84224,1.31138 0,0 4.50816,-2.9957 4.50816,-2.9957 v 0 c -1.88286,-0.81847 -0.92105,-0.39415 -2.88474,-1.2745 -3.72649,-1.69095 -7.49155,-3.3691 -10.92585,-5.61131 -0.69315,-0.47561 -1.39857,-0.93383 -2.07947,-1.42683 -4.57106,-3.30965 -8.6792,-7.20278 -13.1911,-10.58917 -3.11707,-2.53616 -4.12138,-3.29632 -7.14006,-5.98456 -2.72514,-2.42683 -5.49194,-4.91577 -7.54099,-7.96479 0,0 -4.77809,2.92802 -4.77809,2.92802 z" />
    <path
       style="fill:#ff6600;stroke:#000000;stroke-width:0.499999;stroke-miterlimit:4;stroke-dasharray:none;stroke-dashoffset:0;stroke-opacity:1"
       id="path7161"
       d="m 176.28797,129.43401 c 0.27407,6.70511 0.32665,13.42088 0.3661,20.1313 0.045,7.73036 -0.13207,15.47088 -0.77052,23.17709 -0.24249,3.04411 -0.84482,6.04137 -1.6625,8.97889 -0.70036,2.5857 -1.27818,5.20639 -1.81179,7.8317 -0.27687,1.48072 -0.15456,0.76078 -0.37114,2.15909 0,0 4.93335,-2.42204 4.93335,-2.42204 v 0 c 0.19711,-1.36587 0.0869,-0.6617 0.33414,-2.11198 0.50994,-2.62283 1.14971,-5.21892 1.83509,-7.80094 0.78361,-2.94472 1.30824,-5.94481 1.44762,-8.99499 0.32172,-7.65694 0.34316,-15.32352 0.32308,-22.98603 0.04,-6.83486 0.096,-13.67456 0.3661,-20.50438 0,0 -4.98953,2.54229 -4.98953,2.54229 z" />
    <path
       style="fill:#ff6600;stroke:#000000;stroke-width:0.499999;stroke-miterlimit:4;stroke-dasharray:none;stroke-dashoffset:0;stroke-opacity:1"
       id="path7163"
       d="m 125.19006,186.09587 c 5.81438,-0.31744 11.59027,-1.09594 17.38726,-1.63191 8.46786,-0.7292 16.9655,-0.97208 25.46009,-1.1131 4.8483,-0.0599 9.69705,-0.017 14.5453,0.024 1.34292,0.007 2.6858,0.0189 4.02867,0.0303 0,0 4.42102,-3.21065 4.42102,-3.21065 v 0 c -1.36351,0.006 -2.72702,0.0117 -4.09054,0.0141 -4.94759,0.0294 -9.89478,0.0926 -14.8417,0.17945 -8.53954,0.16263 -17.07557,0.50577 -25.59239,1.16785 -5.62918,0.45878 -3.18521,0.24394 -8.49286,0.73383 -1.64566,0.15189 -3.9165,0.38726 -5.62506,0.46872 -0.89103,0.0425 -1.7846,0.002 -2.67566,0.0505 0,0 -4.52413,3.28697 -4.52413,3.28697 z" />
    <path
       style="fill:#333333;stroke:#000000;stroke-width:0.499999;stroke-miterlimit:4;stroke-dasharray:none;stroke-dashoffset:0;stroke-opacity:1"
       id="path7155-3"
       d="m 127.52479,126.88434 c 0.26916,3.07743 0.52415,6.15356 0.85292,9.22595 0.57859,4.21204 1.01733,8.4352 1.2652,12.67939 0.18602,3.62939 0.18951,7.26437 0.19207,10.89745 -0.0259,2.98652 0.03,5.97414 -0.0628,8.95955 -0.0489,2.46741 -0.28106,4.91889 -0.51237,7.37321 -0.14082,2.32758 -0.31516,4.64949 -0.6695,6.95568 -0.26624,1.56316 -0.61947,3.11343 -0.57388,4.70564 0.53365,2.05852 -0.007,0.21784 5.08044,-2.70477 0,0 -5.04318,2.483 -5.04318,2.483 v 0 c 1.65167,-0.77729 3.30335,-1.55458 4.95502,-2.33187 -0.007,-0.001 -0.0137,-0.002 -0.0205,-0.004 -0.0753,-1.53397 0.32132,-3.03948 0.49695,-4.55518 0.31016,-2.32557 0.55504,-4.65906 0.69766,-7.00121 0.21522,-2.45034 0.34996,-4.90328 0.41836,-7.3625 0.0927,-2.98818 0.0364,-5.97863 0.0377,-8.96788 -0.0252,-3.63116 -0.0779,-7.26335 -0.27407,-10.88995 -0.27359,-4.2497 -0.73861,-8.47926 -1.26584,-12.70465 -0.31649,-3.1122 -0.55613,-6.22619 -0.61339,-9.35536 0,0 -4.96072,2.59715 -4.96072,2.59715 z" />
    <path
       style="fill:#333333;stroke:#000000;stroke-width:0.499999;stroke-miterlimit:4;stroke-dasharray:none;stroke-dashoffset:0;stroke-opacity:1"
       id="path7157-1"
       d="m 117.36805,143.27683 c 1.95386,-1.15311 3.92931,-2.27038 5.86157,-3.45931 0.53845,-0.3313 1.02629,-0.73869 1.54604,-1.09862 0.68694,-0.47572 1.37886,-0.94426 2.07383,-1.40817 2.85792,-1.90776 5.73851,-3.78108 8.59497,-5.69126 5.05947,-3.42784 10.27214,-6.70755 14.72273,-10.93437 0.66955,-0.63589 1.28894,-1.3226 1.93341,-1.98389 2.43707,-2.54914 4.10929,-5.63063 5.70174,-8.73726 0.65257,-1.3361 1.35673,-2.64315 2.02483,-3.97079 0,0 -5.08372,2.30557 -5.08372,2.30557 v 0 c -0.6234,1.31405 -1.32038,2.59098 -1.92164,3.91601 -1.51128,3.03423 -3.14795,6.0172 -5.52377,8.48193 -0.63104,0.64249 -1.23891,1.3086 -1.89312,1.92748 -4.42555,4.18659 -9.60874,7.42986 -14.63572,10.82446 -2.92046,1.93856 -5.86511,3.83913 -8.79003,5.7707 -0.72642,0.47971 -1.44767,0.9672 -2.16981,1.45331 -0.54945,0.36986 -2.24716,1.39038 -1.64496,1.1146 1.23291,-0.56463 2.3666,-1.32466 3.5499,-1.98698 0,0 -4.34625,3.47659 -4.34625,3.47659 z" />
    <path
       style="fill:#333333;stroke:#000000;stroke-width:0.499999;stroke-miterlimit:4;stroke-dasharray:none;stroke-dashoffset:0;stroke-opacity:1"
       id="path7159-9"
       d="m 136.91359,105.3695 c 0.60491,0.67494 1.61736,1.8169 2.16554,2.34538 1.46107,1.40857 4.54222,4.06386 5.973,5.28568 3.09329,2.64155 4.0647,3.41621 7.18502,5.9817 4.42753,3.4475 8.43463,7.40257 12.92499,10.77213 0.67533,0.50678 1.37683,0.97772 2.06524,1.46657 3.39519,2.33002 7.15948,4.01906 10.87611,5.756 1.93258,0.90466 0.98494,0.46803 2.84224,1.31138 0,0 4.50816,-2.9957 4.50816,-2.9957 v 0 c -1.88286,-0.81847 -0.92105,-0.39415 -2.88474,-1.2745 -3.72649,-1.69095 -7.49155,-3.3691 -10.92585,-5.61131 -0.69315,-0.47561 -1.39857,-0.93383 -2.07947,-1.42683 -4.57106,-3.30965 -8.6792,-7.20278 -13.1911,-10.58917 -3.11707,-2.53616 -4.12138,-3.29632 -7.14006,-5.98456 -2.72514,-2.42683 -5.49194,-4.91577 -7.54099,-7.96479 0,0 -4.77809,2.92802 -4.77809,2.92802 z" />
    <path
       style="fill:#333333;stroke:#000000;stroke-width:0.499999;stroke-miterlimit:4;stroke-dasharray:none;stroke-dashoffset:0;stroke-opacity:1"
       id="path7161-1"
       d="m 171.68838,125.34501 c 0.27407,6.70511 0.32665,13.42088 0.3661,20.1313 0.045,7.73036 -0.13207,15.47088 -0.77052,23.17709 -0.24249,3.04411 -0.84482,6.04137 -1.6625,8.97889 -0.70036,2.5857 -1.27818,5.20639 -1.81179,7.8317 -0.27687,1.48072 -0.15456,0.76078 -0.37114,2.15909 0,0 4.93335,-2.42204 4.93335,-2.42204 v 0 c 0.19711,-1.36587 0.0869,-0.6617 0.33414,-2.11198 0.50994,-2.62283 1.14971,-5.21892 1.83509,-7.80094 0.78361,-2.94472 1.30824,-5.94481 1.44762,-8.99499 0.32172,-7.65694 0.34316,-15.32352 0.32308,-22.98603 0.04,-6.83486 0.096,-13.67456 0.3661,-20.50438 0,0 -4.98953,2.54229 -4.98953,2.54229 z" />
    <path
       style="fill:#333333;stroke:#000000;stroke-width:0.499999;stroke-miterlimit:4;stroke-dasharray:none;stroke-dashoffset:0;stroke-opacity:1"
       id="path7163-8"
       d="m 120.59047,182.00687 c 5.81438,-0.31744 11.59027,-1.09594 17.38726,-1.63191 8.46786,-0.7292 16.9655,-0.97208 25.46009,-1.1131 4.8483,-0.0599 9.69705,-0.017 14.5453,0.024 1.34292,0.007 2.6858,0.0189 4.02867,0.0303 0,0 4.42102,-3.21065 4.42102,-3.21065 v 0 c -1.36351,0.006 -2.72702,0.0117 -4.09054,0.0141 -4.94759,0.0294 -9.89478,0.0926 -14.8417,0.17945 -8.53954,0.16263 -17.07557,0.50577 -25.59239,1.16785 -5.62918,0.45878 -3.18521,0.24394 -8.49286,0.73383 -1.64566,0.15189 -3.9165,0.38726 -5.62506,0.46872 -0.89103,0.0425 -1.7846,0.002 -2.67566,0.0505 0,0 -4.52413,3.28697 -4.52413,3.28697 z" />
  </g>
</svg>
